<?xml version="1.0" standalone="no"?>
<!DOCTYPE svg PUBLIC "-//W3C//DTD SVG 1.1//EN" "http://www.w3.org/Graphics/SVG/1.1/DTD/svg11.dtd" >
<svg xmlns="http://www.w3.org/2000/svg" xmlns:xlink="http://www.w3.org/1999/xlink" version="1.1">
<metadata></metadata>
<defs>
<font id="heartandsoulaltregular" horiz-adv-x="512" >
<font-face units-per-em="2048" ascent="1153" descent="-895" />
<missing-glyph horiz-adv-x="500" />
<glyph horiz-adv-x="0" />
<glyph unicode="&#xd;" />
<glyph horiz-adv-x="0" />
<glyph horiz-adv-x="0" />
<glyph unicode=" " />
<glyph unicode="1" horiz-adv-x="1947" d="M112 152q-1 41 15 77q16 37 52 60.5t77 19.5t59 -33q10 -16 7 -34.5t-17 -28.5q-16 -10 -33.5 -2t-19.5 25q-29 -2 -49.5 -27t-22.5 -55q-2 -29 10.5 -57.5t28.5 -53.5q20 -29 48 -51.5t63 -26.5q41 -4 76.5 13.5t66.5 44.5q27 23 50.5 47t45.5 51q6 8 11.5 16t5.5 19 q4 16 -4.5 30.5t-18.5 26.5q-57 80 -88 175t-31 196q0 53 12.5 104t47.5 90q18 18 41.5 31.5t49.5 16.5t51.5 -2t43.5 -23q16 -16 26.5 -34.5t18.5 -41.5q33 -96 31 -198.5t-41 -196.5q-10 -27 -19.5 -53.5t-3.5 -55.5t30 -47t52 -29q39 -14 81 -11t81 18.5t74 41t61 58.5 q-84 61 -129 157.5t-39 200.5q2 29 9.5 58.5t23.5 54.5t41 41t53 18q35 2 65 -15t52 -42q63 -70 81.5 -165t-13.5 -181q-4 -16 -9.5 -29.5t-1.5 -30.5q6 -16 19.5 -24t30.5 -12q86 -31 178 -14.5t164 69.5t116.5 134t55.5 171q4 25 3 49.5t-9 46.5q-8 23 -25.5 42.5 t-40.5 25.5t-45.5 -1t-38.5 -24q-16 -18 -19.5 -41.5t7.5 -46.5q16 12 36.5 21.5t36.5 -2.5q16 -14 7 -38t-29 -34t-44 -10t-44.5 8t-37.5 23.5t-26 37.5q-16 43 0.5 89.5t55.5 70.5q39 25 86 24t88 -24t67.5 -60.5t38.5 -82.5q25 -96 -13 -192.5t-103 -170.5 q-47 -53 -104.5 -95t-125.5 -66q-66 -23 -138.5 -24t-137.5 28q-18 8 -37 14t-37 2q-23 -4 -36 -20.5t-30 -32.5q-39 -45 -95 -65.5t-116 -18.5q-59 0 -115.5 15t-111.5 38v-2q-33 -59 -75 -110.5t-99 -82.5q-47 -25 -99.5 -31.5t-101.5 11.5q-53 18 -88 63.5t-55 94.5 q-14 39 -15 80zM568 593q3 -46 12.5 -91t23.5 -89t27 -89q2 -4 6 -6.5t8 -6.5q8 23 15.5 41.5t13.5 36.5q61 174 -2 344q-10 29 -22.5 34t-37.5 -13q-14 -12 -24 -30.5t-15 -37.5q-8 -47 -5 -93zM1034 627q10 -70 37 -131q2 -6 11.5 -22.5t19.5 -34t21.5 -32t21.5 -16.5h6 q8 8 10 12q27 51 28 108.5t-24 109.5q-10 23 -26.5 41t-40.5 26q-12 4 -26.5 3t-24.5 -11t-12.5 -24.5t-0.5 -28.5z" />
<glyph unicode="2" horiz-adv-x="2228" d="M57 465q-10 47 6 88q20 47 67.5 71.5t98.5 22.5q27 0 53.5 -10t48 -27.5t35 -41t13.5 -50.5q0 -16 -13.5 -30.5t-23.5 -2.5q-6 8 -5 17.5t-1 17.5q-4 23 -28.5 28t-43.5 -5q-39 -20 -47 -66.5t12 -85.5q20 -37 58.5 -60.5t79.5 -35.5q98 -29 199.5 -8.5t193.5 67.5 q-20 23 -40 47.5t-35 51t-24.5 55.5t-7.5 59q2 41 21.5 78t48.5 66t68.5 48t80.5 13q29 -6 52.5 -23.5t39 -42t23.5 -54t8 -60.5q0 -66 -30.5 -125t-83.5 -98q72 -66 159.5 -104t182.5 -46q-4 0 0 27.5t9 63.5t10 67t7 37q20 98 66 194q41 90 97 171t132 145q27 23 54.5 41 t60.5 32q59 29 126.5 33t127.5 -24q35 -16 64.5 -42t54.5 -59q25 -31 42 -67.5t21 -77.5q4 -53 -16.5 -102.5t-50.5 -92.5q-61 -90 -142.5 -159.5t-174.5 -122t-196.5 -88t-209.5 -54.5v-2q8 -68 37.5 -130t74.5 -112.5t103.5 -87t124.5 -53.5q55 -14 112.5 -12t108.5 27 q53 23 90 68.5t43 103.5q4 20 -2 34q-8 16 -24.5 24.5t-33.5 6.5q-45 0 -67 -37l-8 -12t-11 -10q-10 -8 -23 -4t-22 14q-14 20 -10 49q8 57 60.5 91t109.5 24q55 -12 93 -59.5t42 -104.5t-21.5 -110.5t-70.5 -88.5q-45 -37 -99 -54t-112 -21q-82 -6 -160.5 16.5t-146.5 66.5 t-120 107.5t-81 138.5q-12 31 -23.5 63t-37.5 54q-23 23 -54.5 29t-62.5 12q-143 29 -260 109q-12 8 -25.5 15t-27.5 9q-12 4 -25.5 1t-25.5 -7q-70 -23 -137.5 -53.5t-139.5 -42.5q-111 -16 -216 32t-165 144q-25 39 -35 86zM803 532q4 -25 12 -49t19 -49q6 -16 12 -16 q4 0 16 6q16 10 39 29.5t33 35.5q27 41 22 95q-4 20 -11 51t-27 41q-31 12 -54.5 0t-38 -37t-20.5 -54.5t-2 -52.5zM1278 295q2 -66 19.5 -79t78.5 -3q10 4 18.5 5t18.5 5q57 25 113.5 48.5t111.5 52.5q104 53 171 137t100 194q27 86 -12 162t-123 105q-27 10 -59 11 t-52 -11q-29 -16 -57.5 -33t-55 -36t-50 -42t-40.5 -53q-80 -145 -145 -297q-16 -39 -22.5 -82t-14.5 -84z" />
<glyph unicode="3" horiz-adv-x="2437" d="M84 276q-2 35 23.5 67t64.5 34q20 0 27 -10q6 -10 0 -21.5t-17 -15.5q-10 -6 -21 -9.5t-20 -13.5q-16 -16 -3.5 -42.5t36.5 -31.5q23 -6 47.5 2.5t46.5 18.5q43 23 84 50.5t56 74.5q6 23 6 47.5t-2 48.5q-4 106 33.5 209.5t123.5 169.5q16 14 39 23.5t45 3.5 q18 -4 31.5 -18.5t24.5 -31.5q31 -59 15.5 -125.5t-48.5 -125.5q-31 -59 -62.5 -119t-33.5 -125q-2 -55 22.5 -107.5t59.5 -93.5q35 -39 76.5 -67.5t90.5 -36.5q78 -14 150 19.5t137 74.5q-49 39 -90 86t-63 106q-20 59 -14.5 123t46.5 111q20 25 49 39t60 17t61.5 -5 t53.5 -29q20 -20 31.5 -44.5t19.5 -53.5q16 -72 5 -147.5t-52 -139.5q-4 -6 -7.5 -13t-1.5 -13q2 -12 19 -21q96 -63 209.5 -88.5t228.5 -11.5q117 12 221.5 64.5t186.5 134.5q43 43 76.5 97t50.5 114q16 61 6 125.5t-49 113.5t-102.5 70.5t-123.5 -0.5q-29 -12 -51 -35 t-35.5 -51.5t-14.5 -60t13 -60.5q10 -23 33 -39t47 -8q12 4 24.5 10t24.5 2q16 -6 14.5 -27.5t-18.5 -33.5q-18 -16 -41.5 -17.5t-47 6t-43 23.5t-32.5 39q-23 41 -25.5 88t13.5 90q16 45 46 81t69 62q39 25 81 41.5t89 16.5q51 0 98 -19.5t86 -54.5t65.5 -80t37.5 -96 q20 -100 -16 -200.5t-105 -176.5q-70 -78 -160 -129t-188 -86q-72 -25 -148 -42t-152.5 -20t-150.5 11t-141 49q-27 14 -54.5 28.5t-58.5 16.5q-35 2 -67.5 -15.5t-63.5 -33.5q-47 -27 -95 -43t-102 -19q-70 -2 -134 25t-118 70q-53 43 -95 96t-79 111q-37 -16 -73.5 -32 t-73.5 -32q-27 -12 -55.5 -22.5t-57.5 -8.5q-38 0 -69 31q-29 29 -29 61zM559 506q16 12 25.5 29.5t19.5 33.5q25 37 41 84q2 8 9.5 30t10.5 45.5t1 41.5t-15 23q0 2 -2 2q-10 0 -22 -7q-25 -16 -35 -55t-14 -67q-4 -20 -6.5 -39t-4.5 -39q-4 -20 -5 -41t-3 -41zM1075 393.5 q0 -24.5 4 -43.5q6 -33 23.5 -63.5t42.5 -50.5q8 -7 14 -7q10 -2 18.5 11.5t16.5 25.5q20 33 29 66q12 41 8 82t-27 75q-14 23 -36.5 38.5t-49.5 -5.5q-16 -12 -25.5 -33.5t-13.5 -46t-4 -49z" />
<glyph unicode="4" horiz-adv-x="2652" d="M84 55q2 12 11 18.5t22 6.5q23 0 44 -15.5t42 -23.5q49 -18 98 -25q51 -8 102.5 -3t102.5 16q70 14 134.5 41.5t124.5 61.5t118.5 72t117.5 72q117 68 228.5 143t228.5 146q168 104 348.5 143.5t378.5 6.5q115 -18 195 -93t115.5 -175.5t24.5 -212t-79 -201.5 q-66 -88 -157 -161t-193 -116q-49 -23 -103.5 -38t-107.5 -18t-104.5 10.5t-96.5 49.5q-33 27 -45 53.5t-20 67.5q-6 37 0 76t22.5 74t42 62.5t56.5 41.5q33 14 67.5 1t52.5 -42q6 -10 11.5 -23.5t6.5 -26.5t-3.5 -23.5t-14.5 -12.5q-10 0 -14 2q-18 6 -31.5 11.5t-25.5 5.5 t-24.5 -7.5t-26.5 -27.5q-23 -35 -15 -70t37 -59q51 -43 117.5 -46t131 21.5t120 67.5t86.5 92q45 74 55 153.5t-6 156.5t-57 143.5t-99 113.5q-35 27 -74.5 39t-82.5 14.5t-87 -5t-83 -15.5q-92 -20 -178.5 -58t-165.5 -85q-180 -106 -359.5 -213t-365.5 -205 q-109 -55 -225.5 -77.5t-239.5 7.5q-23 6 -42.5 12.5t-37.5 16.5q-16 8 -32.5 15t-31.5 18q-16 12 -14 26zM2157 588l45 -45q8 8 14 12q-10 12 -21.5 24.5t-21.5 22.5q-6 -4 -16 -14z" />
<glyph unicode="5" horiz-adv-x="3241" d="M172 365q10 53 31.5 107t56.5 97t85 69t104 44q131 43 267 57.5t274 4t274.5 -43t265.5 -82.5q166 -63 320.5 -141t320.5 -141q80 -29 164 -52.5t169 -33.5t170 -3t167 42q51 23 92 60.5t57 90.5q8 27 6 55.5t-13 56.5t-30.5 50.5t-44.5 34.5q-37 18 -76 2t-57 -51 q-12 -25 -18.5 -45.5t30.5 -26.5q6 -2 13.5 -6t9.5 -10q2 -14 -12 -23q-23 -16 -48 -6q-8 4 -18 15.5t-18.5 24.5t-15.5 27.5t-9 22.5q-12 49 9.5 83t60.5 52.5t85 22.5t81 -6q92 -29 133 -112t26 -175q-10 -61 -40.5 -105.5t-74.5 -74t-97.5 -46t-110.5 -22.5 q-256 -29 -510 14.5t-502 112.5q-123 35 -247 72t-248 68.5t-249.5 58t-252.5 39.5q-90 8 -180.5 4t-172.5 -45q-29 -14 -64.5 -45t-58 -68t-23.5 -76t40 -69q29 -18 63.5 -18.5t59.5 22.5l24.5 24.5t28.5 14.5q25 4 39 -21q6 -10 7 -21.5t-1 -23.5q-8 -29 -30.5 -48 t-51.5 -30q-80 -25 -158 11q-61 29 -86.5 87t-15.5 124z" />
<glyph unicode="6" horiz-adv-x="2813" d="M123 229q2 49 21.5 93.5t51 81t72.5 65.5t86 47q111 43 239 49t245 -6q29 -4 56.5 -7t55.5 -7q57 -8 112.5 -17.5t113.5 -19.5q111 -23 222 -45.5t224 -44.5q162 -33 325.5 -54.5t329.5 -19.5q51 0 101.5 6t95.5 29t78 59.5t49 83.5q14 43 10 89t-33 81q-31 35 -80 41 t-81 -26q-6 -6 -12.5 -19.5t-11.5 -27t-5 -26.5t8 -20q6 -6 15.5 -7t17.5 1t16.5 4t14.5 -2q8 -6 8 -22q-2 -14 -11.5 -25.5t-23.5 -15.5q-10 -2 -18.5 3t-14.5 12t-12 15.5t-12 14.5q-16 16 -26.5 38.5t-8.5 45.5q0 41 22.5 73.5t53.5 55.5q29 23 59 31q29 10 57.5 4.5 t55.5 -19.5q39 -20 67.5 -56t40.5 -79q16 -51 11 -105.5t-27.5 -103.5t-61.5 -89t-88 -60q-47 -20 -97 -25.5t-101 -7.5q-305 -12 -605.5 14.5t-594.5 104.5q-92 23 -183.5 48t-187.5 32q-94 6 -188.5 -16.5t-165.5 -84.5q-63 -55 -92 -136t-11 -163q18 -80 83 -139t149 -64 q45 -2 88 15.5t75 48.5q12 12 28.5 33.5t27 45t11.5 47t-15 42.5q-16 16 -39 10q-8 -2 -14.5 -4t-14.5 -6q-6 -4 -14 -6t-15 2q-14 8 -18 28q-6 43 27 74q14 10 31.5 14.5t33.5 8.5q10 4 21.5 4t21.5 -6q14 -10 15 -24.5t6 -29.5q4 -16 13 -29.5t13 -31.5q8 -35 0 -72 t-24 -69q-39 -68 -108 -111t-146 -53q-45 -6 -89 -2t-85 22q-51 23 -91 66t-71 90q-35 53 -59.5 111.5t-22.5 119.5z" />
<glyph unicode="7" horiz-adv-x="2336" d="M94 147q-2 29 4 57.5t29 47.5q23 18 53.5 17t44.5 -25q8 -14 8 -30.5t-4 -33t-8 -34t-4 -35.5q2 -29 21.5 -51.5t48.5 -32.5q27 -12 56.5 -14.5t57.5 -2.5q68 2 136.5 16.5t115.5 65.5q-43 47 -79.5 98.5t-41.5 112.5q-4 49 18.5 95t63.5 75q39 29 88.5 41t98.5 6 q39 -4 75.5 -20.5t61.5 -46.5q33 -39 36 -91.5t-13 -99.5t-47 -88l-62 -82h-2q111 -78 239 -119t263 -41t263 41t238 119q80 59 142.5 136t89.5 171t4 193.5t-96 165.5q-47 41 -109 59q-47 14 -97 9t-85 -40q-18 -16 -26.5 -39.5t-8.5 -48t10.5 -47t30.5 -35.5q6 12 11 25.5 t12 26.5q29 4 45 -26t2 -56q-14 -27 -44 -35t-59 2q-51 16 -76.5 66.5t-21.5 103.5q8 66 52 117t106 78q59 25 125.5 23.5t130.5 -17.5q53 -16 102 -43t88 -68q61 -68 85 -158t20 -182q-8 -123 -62.5 -235.5t-155.5 -182.5q-37 -25 -77.5 -44t-81.5 -36q-82 -35 -165 -66.5 t-169 -53.5q-86 -20 -174 -26.5t-174 3.5t-169 38t-157 75q-33 20 -65.5 39.5t-71.5 19.5q-35 2 -67.5 -13.5t-65.5 -31.5q-66 -31 -155 -41t-172 9.5t-143.5 71.5t-66.5 148zM754.5 309q-3.5 -47 29.5 -106q18 41 34 71.5t26 61.5q4 16 2 35.5t-10 34.5q-12 25 -35 23.5 t-31 -28.5q-12 -45 -15.5 -92z" />
<glyph unicode="8" horiz-adv-x="3020" d="M211 -127q-12 66 4 127q35 158 135.5 268.5t227.5 182.5q55 31 114.5 52t120.5 28.5t121.5 -4t118.5 -46.5q27 -16 47 -37q10 -10 20 -17t17 -21q0 -2 11 3t24.5 11t24.5 12t13 6q59 29 126 26t128 -22q53 -16 104.5 -41.5t102.5 -52.5q47 -27 98.5 -48t102.5 -42 q104 -39 210.5 -59.5t217.5 -16.5q61 2 122.5 17.5t112.5 58.5q39 33 66 77t45 91q12 35 10 73t-10 72q-10 47 -28.5 96.5t-59.5 71.5q-33 16 -70 12.5t-69 -14.5q-29 -10 -54.5 -28.5t-37.5 -49.5q-10 -23 -8.5 -44t1.5 -46q4 -2 10.5 -2t10.5 -2q10 8 19.5 16.5t19.5 14.5 q23 14 44 15t36 -21q27 -37 26 -86q2 -27 -14 -41t-43 -21q-37 -6 -71 6.5t-60.5 38t-41.5 62.5t-13 78q4 59 45 104q47 53 109.5 73.5t127.5 16.5q66 -2 126.5 -26.5t105.5 -77.5q47 -53 71.5 -128t28.5 -149q4 -68 -17.5 -128t-61.5 -109t-93 -83t-111 -48l-55 -13 q-119 -23 -236.5 -13.5t-234.5 38.5t-230.5 72t-222.5 90q-66 29 -132 63.5t-136 46.5q-29 6 -54.5 0t-53.5 -12q-16 -4 -23 -12q-6 -6 -3 -12.5t7 -14.5q10 -35 8 -63q-4 -51 -17 -100.5t-48 -88.5q-41 -47 -99.5 -64.5t-111.5 19.5q-27 18 -39 48t-8 65q6 35 27.5 58.5 t43.5 47.5q4 2 20.5 18.5t34 35t32 33t12.5 16.5q-23 47 -53.5 89t-83.5 46q-66 6 -137.5 -14.5t-131.5 -51.5q-92 -45 -161.5 -120.5t-110.5 -174.5q-20 -47 -27.5 -102t8.5 -104q10 -35 39 -58.5t64 -23.5q23 -2 40 6t36 18q12 8 25 15.5t11 29.5q-2 10 -5 17.5t1 17.5 q4 12 13.5 13t20.5 -5t19.5 -14t12.5 -14q18 -33 0.5 -67t-37.5 -58q-33 -41 -86 -68q-47 -23 -100.5 -26t-100.5 26q-31 20 -51 49q-37 51 -49 117zM958.5 124q-6.5 -22 14.5 -38q12 -8 34.5 -4t36.5 14q29 27 38 66t5 94q-31 -29 -56 -50.5t-50 -43.5q-16 -16 -22.5 -38z " />
<glyph unicode="9" horiz-adv-x="2723" d="M133 176q10 59 39 113.5t70 98.5t93 76t111 46q35 10 68 13t68 3q37 -2 73.5 -7t75.5 -9q18 -4 41 8q92 49 186.5 80t196.5 41q70 8 135.5 0t130.5 -29q23 -8 39.5 -6t38.5 10q68 29 142.5 50.5t148.5 23.5q86 2 174 -10t174 -35q115 -27 208 -84t173 -141 q16 -14 28.5 -30t24.5 -32q33 -45 52.5 -95t17.5 -105q-4 -98 -74 -168q-37 -41 -87 -60.5t-103.5 -18.5t-104.5 20.5t-90 56.5q-23 18 -34 44.5t-13 54.5t8 54.5t33 46.5q33 29 70 22t59 -42q10 -16 10 -34.5t-22 -29.5q-12 -4 -18.5 1.5t-10.5 14.5l-8 18t-12 14 q-20 14 -37 -5.5t-23 -35.5q-16 -39 2 -74q10 -20 28.5 -31.5t39.5 -17.5q47 -16 86 -9q35 10 61.5 36t42.5 55q27 51 39.5 108t6 112.5t-34 105.5t-78.5 85q-59 41 -132 67.5t-145 43.5q-152 37 -301 28q-16 -2 -33.5 -3t-35.5 -5q-14 -2 -27.5 -4t-28.5 -6 q-29 -4 -56.5 -15.5t-62.5 -23.5q16 -10 24.5 -16t18.5 -10q51 -23 89 -68t57 -98q23 -59 15.5 -117.5t-31.5 -118.5q-23 -53 -52.5 -106.5t-77.5 -92.5q-70 -57 -161.5 -64t-169.5 32q-88 41 -94 139q-6 131 45 259t143 220q2 2 8 9.5t8 7.5q-86 49 -233.5 32.5 t-319.5 -94.5q14 -16 27.5 -28.5t24.5 -26.5q35 -47 47 -100.5t-15 -106.5q-31 -66 -94 -100q-74 -39 -153 -4q-37 14 -58 36q-29 33 -26.5 72t18.5 74q10 23 20.5 43t20.5 41q2 2 9 16.5t14.5 29.5t14.5 27l7 13q-59 16 -122.5 11t-125.5 -40q-45 -25 -80 -64.5t-56.5 -88 t-27.5 -101.5t6 -104q4 -16 13.5 -32.5t19.5 -27.5q23 -23 46.5 -19.5t39.5 32.5q8 14 18.5 30.5t32.5 1.5q18 -12 18.5 -32.5t-9.5 -38.5q-16 -29 -44 -45.5t-60 -21.5t-63.5 3t-54.5 31q-47 43 -78.5 99.5t-21.5 121.5zM643 256q-6 -35 11.5 -52.5t39.5 -33.5 q47 -31 88 10q25 25 36 54.5t8 61.5t-21 62.5t-49 57.5q-39 -35 -71 -71t-42 -89zM1255.5 152.5q6.5 -66.5 47.5 -136.5q23 -41 51 -59t57 -18t56.5 15t50.5 42q75 90 69 213v25.5t-2 25.5q-10 57 -19.5 113.5t-43.5 103.5q-31 41 -56.5 45t-60.5 -30q-47 -45 -84 -98.5 t-54.5 -114t-11 -127z" />
<glyph unicode="B" horiz-adv-x="1107" d="M34 1315q1 33 11 82q14 63 28.5 87.5t57.5 10.5q45 -14 63 -41q17 -24 17 -65v-9q0 -35 3 -57.5t7 -45t7 -49t3 -69.5q31 53 52.5 87t43 57.5t48 44t69.5 49.5q16 10 33 21.5t33 13.5q31 0 63.5 -2.5t53.5 -20.5q14 -12 14 -52t-6 -69q-12 -61 -23.5 -111.5t-27 -94.5 t-39 -89t-62.5 -96q59 16 111.5 32.5t101.5 28.5q47 10 85 10q31 0 57 -7q56 -15 90.5 -58t50.5 -109.5t22 -152.5q1 -21 1 -45v-26q-1 -40 -4 -83t-9 -82.5t-12 -70.5q-23 -111 -73 -192t-124 -158q-35 -37 -71.5 -53.5t-85.5 -28.5q-41 -10 -93 -12q-12 -1 -23 -1 q-39 1 -74 7q-46 8 -83 29.5t-49 58.5q-4 16 -2 37.5t0 41.5q16 -10 34.5 -16t26.5 -20q25 -41 45.5 -58.5t45 -21.5t55.5 4t72 20q49 14 75.5 29.5t43 37t28.5 54.5t33 80q14 35 25.5 99.5t18.5 134.5q7 68 8 134v19q0 53 -5 84q-16 109 -83 162q-51 41 -119 41 q-20 0 -42 -4q-35 -4 -68.5 -21.5t-66.5 -34.5q-29 -12 -53.5 -29.5t-50.5 -33.5q-4 4 -7.5 10t-7.5 10q16 29 33.5 61t36.5 60q23 33 43 72t35.5 82t23.5 88q6 36 6 71v17q-2 23 -10 48.5t-22 37.5q-8 6 -31 -6t-35 -29q-35 -39 -66.5 -80t-55 -87t-37.5 -99 q-10 -41 -10 -88q0 -14 1 -29q2 -78 3 -192v-115.5v-119.5q-1 -122 -2 -235.5t-4 -193.5q0 -29 -2.5 -47t-6.5 -34.5t-10.5 -35t-12.5 -45.5q-4 -23 -26.5 -39t-40.5 -34q-10 20 -23.5 38.5t-15.5 40.5q-12 137 -15.5 299t-3.5 329t-1 330t-7 300q-2 47 -7 80t-8 63.5 t-2 63.5z" />
<glyph unicode="D" horiz-adv-x="1095" d="M31 1292q-1 9 -1 19q0 24 4 50q5 36 21 58q36 48 67 48q7 0 14 -3q36 -14 52 -86q18 -86 29.5 -171t26.5 -171q4 -20 5 -39.5t5 -40.5q2 0 14 -4q8 20 16.5 41t18.5 39q27 45 49.5 86t47 80t53 74t69.5 67q35 29 77 32h6q39 0 87 -34q82 -57 136.5 -133t89 -165 t52 -187.5t25.5 -200.5q2 -49 3 -86q0 -13 1 -25q0 -24 -2 -48q-2 -36 -6 -72.5t-10 -85.5q-8 -66 -34.5 -125t-67.5 -111.5t-91.5 -98.5t-105.5 -87q-35 -27 -83 -37q-25 -5 -50 -5q-22 0 -43 4q-45 9 -77 41t-32 91q0 35 16.5 63.5t45.5 43.5q18 10 33 2q12 -12 4 -35 q-4 -8 -10.5 -14.5t-10.5 -14.5q-20 -33 -15 -57.5t24.5 -38.5t47 -17.5t52.5 7.5q47 23 81.5 68.5t59.5 90.5q47 82 73.5 188.5t32.5 233.5q3 38 3 72q0 46 -5 88q-8 72 -26.5 139.5t-45 138t-57.5 158.5q-33 90 -86 108q-11 4 -22 3q-43 0 -90 -53q-53 -61 -106.5 -127 t-86.5 -144q-35 -84 -50 -170t-26 -176q-6 -70 -10 -126t-6 -109.5t-3 -109.5v-39q0 -40 1 -87q0 -35 1 -70.5t3 -70.5q1 -31 9 -70q4 -20 4 -38q0 -17 -3 -31q-4 -23 -20 -34t-34.5 -10t-37 12t-26.5 34q-31 70 -37 151q-12 176 -16.5 339t-7.5 325t-6 324.5t-13 338.5z " />
<glyph unicode="F" horiz-adv-x="1579" d="M37 408q-2 22 -2 44q0 36 6 69q10 54 41 99.5t86 73.5q52 29 122 37q28 3 55 3q39 0 75 -7q98 -20 174 -77.5t102 -168.5q12 -43 12 -77q0 -35 -32 -60q-35 -29 -83 -31h-8q-43 0 -79 19q-12 6 -22.5 17t-6.5 26q4 10 13.5 14t19.5 4q10 2 20.5 0t20.5 -2q33 4 49 29 q10 14 12 37.5t-6 40.5q-29 61 -76 102t-112 55q-23 6 -49.5 -5t-53 -31.5t-50 -47t-38.5 -53.5q-43 -78 -45 -150v-10q0 -66 24 -124q26 -62 74 -113t105 -88q49 -31 99.5 -62.5t103.5 -50.5q62 -21 119 -21q63 0 121 26q110 50 165 179q37 86 56.5 178.5t29.5 184.5 q3 47 11 91q5 29 5 59q0 16 -1 32q-4 27 -11.5 43.5t-35.5 18.5q-8 1 -16 1q-26 0 -53 -10q-36 -12 -65 -28q-12 -6 -27.5 -12.5t-29.5 4.5q-10 6 -11 20t5 25q6 12 16.5 19t22.5 13q66 33 135 33q25 0 45.5 -2t36.5 21q25 31 26 74.5t7 80.5t12 102.5t13 144.5t15.5 166 t15.5 168t15.5 149.5t16.5 111.5q-59 0 -117 2q-19 1 -38 1q-39 0 -79 -3q-35 -2 -82 -4t-90 -12t-73 -36q-28 -24 -27 -69v-6q2 -31 18.5 -58.5t42.5 -43.5q16 -10 30.5 -20.5t18.5 -29.5q4 -16 -7 -29.5t-27 -17.5t-31.5 3.5t-28.5 19.5q-23 23 -40 53.5t-27 59.5 q-8 23 -14.5 50t-7.5 55t3 50.5t17 34.5q41 41 104.5 64.5t122.5 29.5q176 18 351 25t353 20q168 12 320 51q78 18 156 50q33 12 69.5 23t65.5 34q12 10 21.5 23.5t13.5 29.5q2 16 -5.5 31.5t-23.5 21.5t-33.5 2t-36.5 -8q-8 -2 -17 1t-9 14v6l8 8q23 18 53.5 22.5 t56.5 -8.5q39 -20 46.5 -50t-4 -61.5t-35 -61t-47.5 -48.5q-102 -84 -223.5 -122t-248.5 -64q-47 -9 -92 -21q-38 -10 -78 -10h-14h-8q-62 0 -90 -28q-30 -30 -41 -93q-6 -39 -12.5 -105.5t-12.5 -146.5t-12 -167t-12 -167.5t-13.5 -149.5t-13.5 -112q29 -2 60.5 -2t62.5 -5 t59.5 -16t49.5 -36q12 -12 6 -23q-4 -6 -11.5 -7t-13.5 1q-16 2 -46 9.5t-61.5 11.5t-59 4t-40.5 -14q-25 -31 -32 -78t-17 -90q-25 -106 -47.5 -212t-52.5 -210q-14 -45 -39 -83t-55 -73q-43 -45 -96.5 -80t-113.5 -58q-58 -24 -122 -33q-44 -6 -87 -6q-19 0 -38 1 q-63 6 -111.5 29.5t-105.5 52.5q-72 35 -131.5 91t-112.5 114q-80 84 -113 186q-16 51 -22 109z" />
<glyph unicode="M" horiz-adv-x="1394" d="M-241 96v14q0 70 48 126q10 12 31 13t37 5q13 3 25 3q32 0 61 -19q10 -6 17.5 -17.5t3.5 -21.5t-25 -19q-8 -2 -29 -2q-41 -6 -63 -43q-14 -25 -10 -56.5t14 -55.5q10 -23 16 -41q12 -35 45 -44.5t56 1.5q35 16 68.5 35.5t68.5 39.5q8 4 13 13.5t9 19.5q10 29 21.5 55.5 t17.5 55.5q10 47 19.5 95t13.5 95q6 72 10 141.5t6 141.5q3 37 3 74q0 19 -1 37q-1 22 -1 44q0 34 2 68q6 104 18 207q8 63 18.5 125.5t22.5 124.5q4 20 19.5 42.5t35 38t43 18.5t45.5 -11q23 -16 25 -46t2 -55q0 -35 -2 -71.5t-8 -71.5q-10 -50 -9 -99q0 -54 17 -106 q25 -84 50.5 -166t72.5 -157q37 -59 80 -111q20 -27 39.5 -29t48.5 11q68 29 112.5 80t89.5 104q4 4 5.5 13.5t1.5 17.5q-9 105 -11 207v26q0 90 15 180q4 37 7 74t11 72q12 70 44 126t93 97q25 14 52.5 19.5t55 0t51.5 -21.5t38 -41q16 -30 16 -60q1 -14 -3 -27 q-10 -44 -21 -87q-14 -63 -41 -123.5t-60 -116.5q-29 -53 -54.5 -107t-49.5 -108q-6 -12 -6 -24q2 -72 8 -144.5t20 -144.5q12 -66 26.5 -131.5t31.5 -130.5q6 -25 8 -33t5 -13t7 -12.5t11 -31.5q16 -53 39.5 -105.5t46.5 -105.5q33 -70 70.5 -133.5t84.5 -124.5 q20 -27 44 -41.5t59 -18.5q10 0 19 -3t19 -3q25 -2 49.5 2t47.5 17l129 67q8 4 23.5 14.5t32.5 18.5t30.5 8t19.5 -16q4 -12 -5 -22.5t-24.5 -18.5t-31 -13.5t-23.5 -9.5l-135 -73q-47 -27 -105 -27q-14 0 -28 2q-74 8 -131 41q-39 20 -70.5 48t-58.5 60q-4 6 -7 11.5 t-5 11.5q-8 20 -20.5 34.5t-29.5 28.5q-20 16 -35.5 41t-27.5 50q-45 92 -77 151.5t-56.5 112.5t-44 116.5t-39.5 163.5q-6 33 -6 66t-4 67q-25 -29 -47.5 -53t-45.5 -51q-23 -29 -52 -41t-62 -22h-10q-39 20 -82 32.5t-72 46.5q-39 45 -78 88t-65 97q-2 6 -6.5 11t-8.5 13 q-10 -27 -19 -50t-16 -48q-10 -41 -15 -83t-15 -83q-6 -35 -14.5 -68.5t-18.5 -68.5q-8 -35 -15.5 -70t-17.5 -69q-6 -20 -13 -40t-18 -40q-14 -27 -30.5 -50.5t-28.5 -50.5q-16 -29 -37.5 -46t-50.5 -27q-27 -10 -51.5 -21.5t-46.5 -23.5q-27 -17 -64 -17h-3q-34 0 -68 12 t-64.5 36t-42.5 59q-25 71 -30 149zM252 264q27 72 39 144.5t20 146.5l-10 6q-16 -25 -17 -50.5t5 -51.5q6 -35 -23 -41q-4 -41 -7 -78t-7 -76zM1036 852q0 -2 2 -4t4 -6h11q5 54 5 108v18q-1 62 -7 124q-12 -59 -12.5 -119t-2.5 -121zM1108 965q29 47 51.5 92t44.5 92 q12 31 19 63q6 47 13 96.5t13 98.5q2 14 4 28.5t4 34.5q-27 -18 -33.5 -28t-15.5 -29q-68 -166 -86 -344q-4 -27 -7 -52.5t-7 -51.5z" />
<glyph unicode="W" horiz-adv-x="1417" d="M49 485q-9 141 -9 282q0 215 21 429q0 12 2.5 23.5t2.5 21.5q2 29 12 50.5t47 23.5q6 0 22 8q27 14 46 14q9 0 17 -3q24 -9 28 -54q5 -52 5 -106v-18q-1 -62 -1 -126q0 -118 -2 -236q-1 -59 -1 -118.5t1 -118.5q2 -96 6 -190.5t10 -190.5q4 -49 12 -98t15 -101q8 0 12 -2 q10 16 20.5 32t18.5 32q66 150 129 300t92 314q4 25 2 50.5t-6 52.5q-6 29 8 44t37 25l45 23q29 -59 50 -119.5t37.5 -124t33 -126t37.5 -124.5q43 -127 135 -217q23 -23 36 -19.5t27 34.5q90 199 148.5 407.5t116.5 419.5q8 31 -23 39q-53 20 -85 65t-41 97q-3 19 -3 39 q0 33 10 67q16 53 58 88q18 16 43.5 19.5t49 -5t41 -25.5t23.5 -42q10 -51 19.5 -101.5t19.5 -103.5q4 2 11.5 6t13.5 13q31 35 49 60.5t47 59.5q14 18 20.5 34t11.5 32t11 32.5t21 35.5q8 12 15 23t9 26q4 18 15.5 23t23.5 5q10 0 23.5 -4t17.5 -12q4 -6 -2 -18.5 t-10 -22.5q-27 -66 -60 -137q-18 -43 -39.5 -69.5t-54.5 -61.5q-27 -29 -55.5 -58.5t-42.5 -27.5q-27 2 -43.5 -12.5t-25.5 -37t-13 -50t-10 -48.5q-29 -119 -56.5 -234.5t-60.5 -232.5q-18 -68 -43 -133t-49 -131q-12 -37 -26.5 -72.5t-47.5 -60.5t-56.5 -37t-44 -13t-41 9 t-46.5 31q-102 80 -156 192q-29 55 -49.5 112.5t-28.5 119.5q-2 14 -4 27.5t-6 27.5h-14q-16 -51 -29.5 -102.5t-34.5 -100.5q-43 -98 -89 -192t-93 -191q-10 -20 -24.5 -38.5t-31.5 -34.5q-30 -30 -64 -30q-6 0 -12 1q-42 6 -61 53q-18 43 -32.5 89t-20.5 93 q-12 106 -20.5 213t-16.5 213zM1174 1172q8 -36 30 -72q6 -10 20.5 -17.5t26.5 -7.5q10 2 20.5 14.5t12.5 22.5q6 43 12 87q2 12 2 24q0 32 -12 63q-4 10 -10 22.5t-14 14.5q-10 4 -23.5 -1t-19.5 -13q-12 -12 -20.5 -27.5t-18.5 -32.5q-9 -26 -9 -50q0 -14 3 -27z" />
<glyph unicode="a" horiz-adv-x="722" d="M-68 430q-8 31 4.5 59.5t22.5 57.5q4 10 7 18t7 17q16 35 38 66.5t63 47.5q14 8 26.5 19.5t22.5 21.5q16 12 30.5 22.5t34.5 12.5q29 2 46.5 -9t33.5 -34q10 -16 13.5 -33.5t5.5 -36.5q4 -23 10 -46t2 -48q-8 -39 -12 -76.5t-17 -76.5q-10 -35 -19 -72t-24 -74 q-8 -23 5.5 -35t23.5 -24q29 -35 66 -59q38 -22 78 -32q22 -5 45 -6q18 0 37 4q42 8 79 38q18 14 41 38.5t44.5 51t42 53.5t34.5 47q25 33 41 68.5t28.5 64.5t23 44t22.5 9q1 -6 1 -12q1 -20 -9 -52q-12 -42 -32 -87t-41.5 -84t-33.5 -53q-53 -59 -99 -101.5t-118 -64.5 q-16 -6 -41 -13.5t-50.5 -13.5t-50 -7t-38.5 7q-16 10 -30.5 6t-31.5 8q-20 16 -30.5 19.5t-32.5 9.5q-12 4 -23.5 9t-21.5 12q-2 -2 -15.5 9t-13.5 9q-14 16 -29.5 27.5t-38.5 19.5q0 8 -10 19q-66 61 -88 139q-8 23 -16 47.5t-13 48.5zM113 512q0 -6 2 -12t4 -13 q10 -23 17 -45t18 -45q4 -10 8 -21t10 -26q35 88 47 176q6 44 6 88.5t-6 90.5q-23 -16 -43 -29.5t-39 -30.5q-8 -4 -12 -13t-6 -18q-4 -27 -4 -51t-2 -51z" />
<glyph unicode="b" horiz-adv-x="628" d="M1 516q1 55 14.5 109.5t39.5 97.5q76 127 199 131h3q33 0 56 -41q31 -57 36 -113q2 -18 2 -36q0 -38 -8 -76q-11 -56 -33.5 -111t-47.5 -110q-4 -10 -10 -19.5t-12 -19.5q46 -39 110 -41h5q62 0 118 45q39 33 67.5 63.5t63.5 63.5q16 16 23.5 28.5t23.5 28.5 q4 4 10.5 13.5t10.5 11.5q10 4 9 -9.5t-5 -19.5q-23 -47 -46.5 -76.5t-58.5 -68.5q-16 -16 -30.5 -36t-30.5 -36q-20 -18 -48 -36.5t-52 -33.5q-53 -29 -83 -34t-69 -5q-31 0 -59.5 6.5t-57.5 24.5q-12 10 -27.5 18.5t-25.5 20.5q-12 12 -21.5 29.5t-19.5 31.5 q-25 39 -36 91q-10 48 -10 99v9zM150 559q-1 -12 -2 -23q0 -30 8 -62q12 -44 47 -95q16 47 34.5 92t34 90t23.5 91q5 27 5 54q0 21 -3 42q-23 12 -44.5 4.5t-35.5 -29.5q-27 -43 -45 -83t-22 -81z" />
<glyph unicode="c" horiz-adv-x="708" d="M-41 322q-2 16 -2 32q0 70 35 148q39 90 74.5 176t101.5 158q36 37 70 49q15 5 31 5q22 0 46 -9q41 -17 49 -55q2 -8 1 -16q0 -32 -23 -71q-4 14 -9 25.5t-9 26.5q-43 -41 -72 -90.5t-41 -102.5q-2 -4 -15.5 -28.5t-21.5 -41.5q-24 -53 -24 -97v-10q0 -40 4 -87 q4 -33 31.5 -52.5t56.5 -33.5q61 33 99 80t60 112q8 18 11 33q6 61 38.5 94t79.5 56q29 14 48.5 3t15.5 -46q-4 -41 -19.5 -96.5t-19.5 -96.5q-10 -104 -18.5 -197.5t-17.5 -183.5t-19.5 -183t-20.5 -200q-10 -98 -18 -177t-37 -167q-10 -29 -38 -56.5t-56 -51.5 q-43 -37 -89 -55q-25 -10 -51 -10q-23 0 -47 7q-35 12 -64.5 40t-51 65t-30.5 80q-5 26 -5 52q0 17 2 34q6 47 31.5 88t64.5 65q14 10 31.5 12t25.5 -14t-6 -43q-4 -10 -12 -16t-16 -17q-23 -23 -35 -55q-10 -28 -10 -58v-10q4 -35 19 -62.5t44 -41.5q24 -12 44 -11 q13 0 25 5q28 14 47 46t29.5 72t16.5 74q8 63 16 110.5t14.5 92.5t10.5 93t4 112q1 39 1 77v37v13q0 50 7 104q0 10 2 47t5 79t7.5 75t10.5 37q-16 -10 -29 -23q-53 -70 -117.5 -106.5t-140.5 -56.5q-35 -10 -47 2t-29 45q-39 82 -49 166zM371 57h18q2 29 3 57.5t3 57.5h-8 q-4 -29 -8 -57.5t-8 -57.5z" />
<glyph unicode="d" horiz-adv-x="978" d="M36 132q1 91 3 183q4 242 14 479.5t39 479.5q8 63 39 124.5t59 121.5q20 39 66 52q24 7 47 7q21 0 41 -6q76 -20 76 -109q-2 -129 -32 -251.5t-95 -235.5q-51 -88 -81 -176t-30 -193v-30q0 -81 -9 -161q-11 -95 -17 -192q-4 -16 10 -37q10 16 21.5 28.5t19.5 29.5 q98 164 235 280q58 52 107 52q13 0 25 -4q58 -18 88 -113q23 -78 43 -154t45 -151q8 -27 23 -51.5t32 -49.5q23 18 45 36t39 40q20 25 37.5 53.5t27.5 59.5q16 57 50.5 100t85.5 82q0 -10 -1.5 -21.5t-5.5 -21.5q-47 -104 -103 -198.5t-132 -178.5q-23 -25 -47.5 -35 t-51 -12t-52 3t-52.5 11q-47 10 -65.5 43t-30.5 74q-20 72 -45 141.5t-49 141.5q-4 12 -13.5 24.5t-21.5 32.5q-23 -27 -41.5 -47.5t-32.5 -42.5q-45 -70 -88 -139.5t-84 -141.5q-12 -20 -19.5 -41.5t-15.5 -44.5q-4 -10 -5 -22t-9 -17q-27 -27 -62 -32q-4 -2 -15 16.5 t-11 30.5q-1 61 -1 122v61zM236 1028q27 57 53 111.5t47 108.5q20 56 32 112q10 48 9 98v17q0 16 -8.5 30.5t-14.5 30.5q-23 -16 -46 -77.5t-41.5 -139.5t-28.5 -158q-5 -46 -5 -83q0 -28 3 -50z" />
<glyph unicode="e" horiz-adv-x="856" d="M25 360q0 52 10 100q7 35 7 69q0 14 -1 28v16l-6 -6v28.5t-4 29.5q18 45 18 102q0 41 3 84t3 84q0 86 10.5 166t26.5 172q10 57 21.5 112.5t21.5 112.5q8 55 39 119.5t77 121t103.5 94.5t118.5 38q70 0 101.5 -39t31.5 -104q0 -49 -22.5 -123t-55 -152t-66.5 -149.5 t-59 -116.5q-41 -84 -92 -163t-94 -161q-16 -33 -16 -80q0 -51 -1 -107v-10q0 -50 9 -96q29 41 66.5 93.5t82.5 97.5t96.5 75.5t110.5 30.5q33 0 65 -11t56.5 -32.5t39.5 -51.5t15 -64q0 -43 -16 -80t-41 -70t-56.5 -60.5t-62.5 -51.5v-15q33 -35 54.5 -80t38 -92t30.5 -93 t35 -79q-2 -25 5 -54.5t17.5 -61t22.5 -62.5t23 -53q14 -6 24 -8.5t25 -4.5v-6l-17 -10l2 -6q16 -12 31.5 -26.5t36.5 -18.5q14 -4 37.5 -10.5t23.5 -26.5q0 -8 -14 -12t-20 -4q-16 0 -33 10q-23 10 -48.5 15t-50.5 16q-10 4 -22 20q-12 27 -33.5 44t-36.5 42 q-45 78 -84 148.5t-57 156.5q-4 18 -9 53t-14.5 69t-26 58.5t-42.5 24.5q-41 0 -83 -20.5t-81 -20.5q-12 0 -19.5 11.5t-11.5 21.5q53 27 97.5 48t81 48t68.5 62.5t63 89.5q12 23 21 45t9 49q0 29 -20.5 61.5t-52.5 32.5q-23 0 -34.5 -6t-20.5 -14.5t-18 -16.5t-24 -12 q-8 -4 -14 -10.5t-10 -12.5q-27 -31 -51.5 -62.5t-53.5 -62.5q-25 -27 -45 -74.5t-35.5 -103t-23.5 -109t-8 -89.5q0 -14 4 -26.5t4 -27.5v-53t-6 -64.5t-21.5 -55t-46.5 -23.5q-33 0 -52.5 16t-29.5 41t-13 53.5t-3 53.5q0 63 -4 125.5t-4 125.5zM207 948l10 2 q8 10 25.5 37t36 57.5t32 58t13.5 38.5q0 4 -1 7t-1 7q12 39 34.5 81t44.5 77q14 20 17.5 42.5t15.5 43.5q14 20 30.5 65t31 94.5t23.5 96t9 71.5q0 10 -4 20.5t-18 10.5q-10 0 -36 -12t-40 -16q-53 -20 -88 -71.5t-55.5 -116t-29.5 -131.5t-11 -116q-4 -86 -16.5 -173 t-22.5 -173z" />
<glyph unicode="f" horiz-adv-x="925" d="M-8 1008q-2 32 -2 64q0 97 14 194q20 129 98 233q16 23 41 38t52 26q20 7 37 7q21 0 38 -10q31 -18 45 -63q22 -66 22 -133v-16q-3 -74 -22 -146q-31 -135 -67.5 -269t-91.5 -263q-16 -35 -16 -72q0 -9 2 -20q3 -26 3 -57q0 -22 -2 -46q29 31 51.5 53.5t43.5 44.5 q49 55 108.5 93.5t130.5 60.5q27 8 49.5 4t44.5 -26q27 -27 27 -61q0 -19 -8 -40q-35 -78 -78 -151.5t-119 -124.5q-2 -2 -8 -17q10 -2 17.5 -4t15.5 -6q37 -14 69.5 -33.5t61.5 -48.5q31 -35 43 -69.5t29 -75.5q6 -16 16 -29.5t25 -19.5q25 -10 51 -1t47 27q20 18 52 70.5 t65.5 113t62.5 114.5t43 79q6 10 15.5 19.5t21.5 5.5q12 -5 16 -21q0 -10 -4 -26q-8 -25 -35.5 -76t-60.5 -107.5t-62.5 -105.5t-44.5 -70q-31 -43 -67 -70q-31 -20 -66 -20q-15 0 -30 3q-52 13 -84 54q-39 49 -72 97.5t-82 89.5q-47 39 -96 47q-11 2 -23 2q-39 0 -82 -21 q-29 -14 -53 -27.5t-29 -47.5q-2 -17 -2 -35q0 -38 9 -79q12 -60 18 -114q2 -16 2 -33.5t-10 -31.5q-16 -25 -49 -25t-58 6q-37 10 -41 39t-6 62q-2 92 -3 180t-3 180q-2 113 -5 223q-2 67 -2 134q0 45 1 90v64q0 97 -4 194zM137 834q12 -4 17 -7q6 16 13 31.5t11 32.5 q16 47 30.5 93t31.5 93q27 72 36 145.5t15 149.5q4 25 0 50.5t-8 50.5q-2 18 -12.5 22t-20.5 -10q-14 -18 -25.5 -36.5t-19.5 -39.5q-61 -141 -67 -285q-4 -74 -4 -150q0 -69 3 -140zM145 258q13 -2 26 -2q49 0 95 30q58 38 99 83q35 41 65 84q25 38 25 87v13q-4 39 -31 57 q-18 14 -38.5 9t-39 -20t-35 -34.5t-28.5 -32.5q-31 -35 -59.5 -70.5t-53.5 -76.5q-18 -33 -23 -76q-2 -12 -2 -24.5v-26.5z" />
<glyph unicode="g" horiz-adv-x="581" d="M-37 1040q-3 44 -3 86q0 57 5 113q8 84 26.5 166t41.5 160q23 72 76 105.5t114 47.5q14 4 33.5 -9t28.5 -30q16 -33 29.5 -68.5t17.5 -72.5q15 -131 15 -259q0 -90 -7 -178q-18 -214 -96 -419q-18 -47 -39 -93t-37 -95q-8 -29 -8 -62t4 -61q10 -72 39.5 -131.5 t83.5 -104.5q41 -35 80 -36h3q37 0 74 26q23 14 45.5 34.5t38.5 43.5q18 29 30.5 66.5t25.5 70.5q4 6 5 11t5 11q8 20 18.5 40t26.5 32q11 10 23 2q6 -4 5 -18.5t-4.5 -31.5t-7.5 -32.5t-6 -21.5q-18 -74 -59 -127q-43 -57 -92 -98t-113 -64q-48 -18 -90 -18q-45 0 -82 21 q-72 40 -107 157q-6 23 -11 45t-15 43q-8 14 -16.5 25.5t-12.5 27.5q-18 49 -29.5 100.5t-23.5 102.5q-31 130 -31 263v30q1 25 1 50q0 75 -5 150zM128 1122q1 -100 3 -200q2 -74 8 -149t11 -148q2 -2 4 -2t4 -2q10 25 21 47t22 47q78 203 88 415q3 64 3 129q0 149 -16 300 q-2 20 -6 41.5t-28 17.5q-14 -2 -29.5 -15.5t-19.5 -29.5q-18 -61 -36 -125t-22 -129q-7 -87 -7 -175v-22z" />
<glyph unicode="h" horiz-adv-x="1191" d="M-61 563q6 106 9 211t11 211q8 92 39 176t74 162q28 53 70 86q37 29 94 29h14q48 -4 78 -26q29 -21 28 -65v-6q-2 -66 -5 -132t-19 -130q-33 -141 -80 -277t-113 -265q-33 -68 -33 -134q0 -45 15 -90q18 -61 39.5 -121.5t44.5 -119.5q4 -12 10 -22.5t14 -20.5 q47 -70 97 -80q8 -2 16 -1q43 0 96 44q84 68 141.5 156t84.5 192q5 20 5 41q-1 24 -7 50q-12 48 -17 95q-14 131 -14 261q0 53 2 103q8 180 47 359q6 29 17.5 55.5t23.5 51.5q29 58 78 74q39 12 83 13q11 0 23 -1q35 -4 51.5 -24.5t26.5 -51.5q15 -52 15 -102q0 -26 -4 -54 q-12 -76 -36 -151q-37 -123 -78.5 -243t-80.5 -243q-21 -70 -21 -137q0 -130 78 -252q24 -37 56 -43q5 -1 11 -1q27 0 54 26q29 29 54.5 63.5t47.5 69.5q29 45 49.5 77t38 61.5t32.5 62t34 82.5q4 12 10 24t10 27q6 -2 21 -2q4 -16 9 -31t1 -29q-10 -33 -16 -54t-12.5 -41.5 t-15.5 -43t-28 -55.5q-29 -55 -64.5 -106.5t-74.5 -100.5q-25 -33 -59.5 -51.5t-70.5 -23.5q-12 -2 -25 -2q-22 1 -44 7q-34 10 -59 33q-23 25 -45 50.5t-45 49.5q-4 4 -7 9.5t-9 13.5q-29 -45 -53.5 -87t-53.5 -81q-27 -35 -55.5 -68.5t-61.5 -62.5q-35 -31 -82 -45 q-35 -10 -69 -10l-25 1q-47 5 -92 29.5t-78 67.5q-97 129 -153 265q-49 117 -48 254q0 22 1 44zM78 714.5q0 -63.5 14 -104.5q8 16 15.5 29.5t11.5 28.5q45 160 90 319.5t88 319.5q4 16 1 36.5t-5 47.5q-35 -37 -66.5 -97.5t-58.5 -133.5t-47.5 -152.5t-31.5 -154.5 t-11 -138.5zM784 741q12 -4 17 -4q12 37 24.5 75t26.5 75q69 203 92 416q2 23 -5 44t-13 48q-53 -23 -68.5 -59t-19.5 -72q-25 -193 -43 -392q-4 -35 -6.5 -66.5t-4.5 -64.5z" />
<glyph unicode="i" horiz-adv-x="522" d="M-20 638q2 42 6 83q8 72 19 140.5t22 139.5q16 111 32.5 220.5t36.5 220.5q10 61 25.5 121.5t34.5 119.5q16 45 52 80t77 66q25 20 57 20q6 -1 10 -1q38 -4 62 -25q40 -33 60 -70q14 -27 15 -61q0 -12 -2 -25q-2 -26 -2 -51q0 -19 1 -37q2 -26 2 -52q0 -18 -1 -36 q-2 -39 -7 -77t-13 -75q-20 -86 -39.5 -169t-48.5 -164q-23 -74 -53.5 -146t-61.5 -143q-10 -27 -25.5 -52.5t-31.5 -50.5q-25 -34 -25 -71v-5q2 -40 6 -79q4 -61 14.5 -122t26.5 -120q10 -35 33 -64.5t45 -58.5q10 -16 37 -14t39 18q14 18 35.5 49t44 63t44 62.5t36.5 49.5 q14 18 27.5 35.5t27.5 35.5q10 12 20 19q14 10 29 0q10 -11 2 -29q-12 -41 -43 -87t-67.5 -92t-74.5 -88t-67 -73q-31 -35 -83 -47q-22 -5 -44 -5q-28 0 -55 9q-16 6 -30.5 19.5t-22.5 29.5q-66 123 -115 247t-63 259q-4 31 -4 62v21zM174 834q2 -74 2 -146q6 -2 21 -2 q14 41 29.5 79t29.5 79q20 66 39.5 128t32.5 126q25 133 46.5 264t41.5 262q4 29 1 55.5t-9 53.5q-2 10 -16.5 16t-24.5 14q-6 -8 -11.5 -15t-9.5 -13t-8 -11.5t-6 -9.5q-14 -25 -29.5 -49.5t-21.5 -50.5q-20 -84 -37 -167t-31 -167q-12 -76 -22.5 -150.5t-14.5 -148.5 q-3 -49 -3 -98q0 -25 1 -49z" />
<glyph unicode="j" horiz-adv-x="1171" d="M-16 242v169t2 167q2 53 5 107t23 106q6 12 15.5 28.5t20.5 26.5t24.5 10t25.5 -20q16 -27 22.5 -61t6.5 -70.5t-1 -72.5t-1 -67q2 -45 2 -86v-69q25 23 56.5 49t66.5 55q36 28 70 28q9 0 17 -2q42 -8 67 -61q20 -43 35.5 -88t31.5 -92q2 2 5 6t5 10q12 49 22.5 98.5 t24.5 98.5q25 96 58 188.5t92 173.5q29 41 70 51.5t81 14.5h9q33 0 52 -26q23 -31 34 -66q20 -68 36.5 -136.5t34.5 -136.5q16 -59 34 -117.5t42 -119.5q6 14 12.5 27.5t10.5 27.5q8 29 20 53.5t25 51.5q2 2 7 15t12 30.5t15.5 35t16.5 27.5q18 29 27 2q2 -6 2 -22 q-6 -53 -25.5 -105.5t-40.5 -101.5q-10 -23 -22.5 -45.5t-28.5 -42.5q-4 -6 -12.5 -18.5t-18.5 -24.5t-20.5 -20.5t-16.5 -8.5q-96 4 -114 105q-4 29 -11.5 58.5t-13.5 57.5q-20 84 -38.5 166t-41.5 166q-6 23 -22.5 42.5t-30.5 41.5q-16 -18 -35.5 -33.5t-30.5 -36.5 q-29 -74 -56.5 -148.5t-49.5 -152.5q-23 -76 -38 -152.5t-34 -154.5q-6 -20 -17 -38.5t-24 -37.5q-20 -31 -43.5 -30.5t-42.5 34.5q-12 27 -22.5 54.5t-16.5 56.5q-10 47 -18 93t-19 93q-4 27 -18 46q-14 18 -31.5 21t-34.5 -19q-47 -59 -85 -121q-34 -54 -34 -122 q0 -11 1 -22v-16q0 -25 -5 -50q-6 -32 -16 -63q-4 -14 -23.5 -23t-37.5 -24q-14 4 -25.5 17.5t-13.5 35.5q-4 45 -7 89.5t-3 89.5z" />
<glyph unicode="k" horiz-adv-x="823" d="M4 500q-1 11 -1 21q0 65 32 120q23 41 52.5 69.5t64.5 51.5q18 10 36.5 6t34.5 -18q14 -12 22.5 -27.5t0.5 -42.5q-12 -47 -24.5 -95t-26.5 -100q29 20 58.5 40t59.5 40q31 20 63 39t64 37q25 13 51 13q20 0 41 -7q34 -13 34 -48q0 -7 -1 -15q-4 -25 -10 -50.5t-16 -48.5 q-29 -76 -53.5 -143.5t-34.5 -148.5q-6 -43 -6 -75q1 -3 1 -5q0 -33 17 -74q17 -44 41 -44q19 0 43 28q6 8 32.5 40.5t61.5 78.5t75 98.5t74.5 98.5t60.5 79t32 41t12 13t16 13q1 -11 1 -21q0 -30 -13 -48q-6 -8 -29.5 -42t-58.5 -80t-73 -98.5t-72.5 -97.5t-59 -77.5 t-33.5 -38.5q-16 -16 -39.5 -27.5t-44.5 -9.5q-27 4 -51 16t-47 29q-43 31 -67.5 95.5t-26.5 121.5q0 41 3 70.5t9 56t15.5 55.5t19.5 70q6 18 20.5 37.5t18.5 40.5q-4 2 -8 6q-23 -12 -42.5 -24.5t-41.5 -24.5q-25 -16 -49.5 -40t-51.5 -28q-23 -4 -36 -9t-37 -16h-26.5 t-20.5 5q-12 4 -21 4q-39 31 -45 90zM109 550q3 -30 20 -52q39 47 46 100.5t7 112.5q-27 -18 -44 -45t-24.5 -56.5t-4.5 -59.5z" />
<glyph unicode="l" horiz-adv-x="565" d="M-66 150q-4 33 8.5 61.5t35 46.5t54.5 26q18 5 38 5q14 0 28 -2q20 -4 39 -11.5t35 -15.5q8 -4 14.5 -16.5t11.5 -27.5t6 -30.5t-3 -23.5q-10 -18 -24.5 -27.5t-39.5 0.5q2 17 2 31q0 24 -6 38q-10 24 -43 40q-29 14 -43 -13q-27 -55 -30 -111v-9q0 -52 36 -101 q14 -23 43 -39t60.5 -24t62.5 -6t53 14q8 4 14.5 9t8.5 9q17 39 23 73q4 19 3 40q0 16 -2 33q-6 37 -8 75.5t-18 71.5q-23 45 -56.5 85t-68.5 79q-47 53 -100.5 97t-98.5 98q-14 16 -21 37.5t-11 42.5q-3 16 -3 31q0 28 9 52q14 40 45 68q43 41 91 78t111 49q39 10 77 15.5 t79 7.5h10q36 0 56 -27q15 -21 15 -49q0 -13 -3 -27q-16 -59 -57 -97t-88 -71q-27 -18 -40.5 -29.5t-16.5 -22.5t4 -26.5t26 -42.5q37 -53 77 -106t70 -111q44 -76 44 -158q0 -84 -27 -173q-10 -27 -23.5 -51.5t-25.5 -49.5q-4 -10 -21.5 -22.5t-28.5 -18.5q-31 -18 -71 -24 q-20 -3 -39.5 -3t-39.5 3q-40 6 -76 22.5t-62 40.5q-39 39 -63.5 86t-31.5 101zM201 752q27 25 54.5 45t52 43.5t43 52.5t26.5 68q-180 -23 -181 -162q1 -22 5 -47z" />
<glyph unicode="m" horiz-adv-x="507" d="M-41 -13q-3 17 -3 32q0 22 7 40q31 80 107 123q16 11 29 11q22 0 34 -33l19 -56q4 -10 -2 -16q-8 -4 -17 0q-31 20 -49 9t-39 -29q-10 -10 -18.5 -19.5t-18.5 -17.5q-23 -23 -21.5 -48.5t29.5 -41.5q37 -20 77 -19h15q48 4 78 55q55 92 64 193q4 23 6 47.5t-2 46.5 q-4 23 -16.5 42.5t-28.5 35.5q-23 20 -48.5 33.5t-51.5 27.5q-27 14 -51.5 30t-45.5 38q-33 39 -41 89q-4 22 -4 44q0 28 6 55q6 31 17.5 61t25.5 58q12 27 24.5 54.5t35.5 48.5q33 31 72.5 50t87.5 19q40 0 68 -26q24 -22 25 -56q0 -5 -1 -10q-4 -53 -17.5 -103t-42.5 -98 q-16 -27 -24 -51q-4 -10 6 -20q23 -23 45 -42.5t43 -41.5q44 -54 66 -114q18 -48 17 -101q0 -14 -1 -29q-6 -125 -72 -238q-18 -33 -45 -58t-59 -48q-33 -23 -66 -25t-65 -6q-10 -1 -19 -1q-48 0 -92 34q-35 29 -43 71zM149 771.5q-3 -23.5 3 -49.5t18 -48.5t35 -36.5 q4 4 7 5t3 5q16 29 32.5 55.5t22.5 61.5q4 16 8.5 30.5t6.5 30.5q5 22 5 41q0 14 -3 25q-5 29 -25 29q-11 0 -26 -9q-29 -18 -45.5 -43.5t-30.5 -54.5q-8 -18 -11 -41.5z" />
<glyph unicode="n" horiz-adv-x="618" d="M-20 717q37 61 85 108t119 76q33 12 51.5 5t40.5 -34q42 -47 42 -96q0 -6 -1 -12q-6 -55 -24 -113q-12 -37 -27.5 -73.5t-32.5 -75.5q23 -29 46.5 -57.5t48.5 -57.5q48 -53 64 -113q15 -54 14 -113v-14v-30q0 2 4 -6q18 16 45.5 25t36.5 32q6 16 21 42t26 42 q20 37 40.5 75t41.5 74q14 29 27.5 55.5t27.5 53.5q16 -10 14.5 -17.5t16.5 -17.5q-47 -104 -107.5 -207.5t-126.5 -201.5q-43 -68 -104 -132q-31 -35 -74 -49t-84 -26q-16 -6 -42 -1t-52.5 16t-49 25.5t-30.5 26.5q-12 18 -14.5 41t3 45.5t18.5 42t32 31.5q14 8 34.5 7 t39 -10t29.5 -24.5t9 -33.5q-14 -8 -23 -4t-20 14q-16 16 -27.5 14t-23.5 -22q-11 -19 -12 -36q0 -19 14 -36q8 -10 16.5 -21.5t16.5 -21.5q18 2 33.5 2t32.5 4q55 6 85.5 29.5t45.5 77.5q2 8 3 16t-3 14q-20 43 -42 84t-46 82q-14 18 -27.5 36.5t-30.5 39.5 q-12 16 -24.5 32.5t-28.5 32.5q-6 6 -13.5 12.5t-13.5 12.5q-4 6 -7 12.5t-7 12.5q-25 31 -50.5 62.5t-47.5 64.5q-34 46 -34 94q0 41 26 84zM117 712.5q4 -28.5 14 -56t26.5 -55.5t32.5 -56q6 10 8.5 16t4.5 10q14 47 27.5 96.5t25.5 96.5q6 25 -4 53q-10 27 -31.5 34 t-46.5 -7q-23 -12 -34 -29.5t-17 -40.5q-10 -33 -6 -61.5z" />
<glyph unicode="o" horiz-adv-x="669" d="M-279 1343q18 18 39 0q48 -47 108 -62q36 -9 74 -9q25 0 52 4q66 10 129 27.5t127 39.5q29 8 37 35q12 49 25.5 98.5t27.5 98.5q4 10 9 19.5t11 19.5q22 28 45 28l17 -4q39 -16 39 -54q0 -8 -2 -17q-4 -35 -7 -70t-8 -74q23 10 103 25.5t188.5 32t230 33t231.5 29.5 t190.5 20.5t105.5 7.5q2 -10 4 -19.5t0 -17.5q-2 -6 -7 -12t-9 -13q-4 -6 -8.5 -13t-8.5 -17q-10 -2 -77.5 -9.5t-163 -17.5t-205 -21.5t-204.5 -22.5t-161.5 -18.5t-77.5 -9.5q-35 -10 -70.5 -22t-70.5 -25q-6 -4 -11 -11t-7 -13q-10 -35 -26.5 -88.5t-33 -109.5 t-29 -109.5t-16.5 -90.5q-6 -49 -24.5 -116.5t-39 -138t-40 -138t-27.5 -117.5q-4 -23 -2 -19.5t6 12.5t7.5 12.5t1.5 -19.5q-5 -73 -19 -141q-8 -43 -9 -87q0 -26 3 -53q10 -94 53 -163q8 -10 22.5 -18.5t30.5 -18.5q14 6 44 46t66 95t75 120.5t71.5 124t57 101.5t33.5 58 q14 25 21 33t12 12t11.5 12t20.5 35q10 16 21.5 30.5t17.5 32.5q4 0 5 1t5 1q4 -8 9.5 -16t3.5 -17q-6 -43 -23 -86q-6 -12 -8 -15t-5 -4t-6.5 -4t-9.5 -15q-10 -20 -35.5 -67.5t-58.5 -106t-70.5 -124t-73.5 -122t-67 -98.5t-49 -56q-30 -23 -61 -23q-19 0 -39 9 q-14 4 -28.5 5t-31.5 3q-72 6 -127 49q-37 28 -37 75v9q1 14 1 27q0 28 -3 56q-2 21 -2 42t2 41q6 55 8.5 84t2.5 51.5t2 51t10 83.5q6 41 12 71t12.5 57.5t12.5 58t12 71.5q4 27 27.5 98.5t51.5 152.5t51.5 153t27.5 98q4 10 4 21.5t2 27.5q-63 -18 -120.5 -36.5 t-115.5 -32.5q-36 -8 -74 -12l-20 -2q-28 0 -57 10q-29 8 -50.5 26.5t-37.5 42.5q-16 23 -28.5 48.5t-27.5 49.5z" />
<glyph unicode="p" horiz-adv-x="583" d="M-1240 1067.5q1 15.5 11 28.5q23 25 40.5 51.5t41.5 48.5q29 27 66 43t75.5 26.5t79.5 16.5t80 12q37 8 73 12q25 4 51 4q12 0 24 -1q63 0 114.5 -1t100.5 -4.5t100 -8.5t115 -13q41 -6 72.5 -10t61.5 -6t61.5 -5.5t72.5 -5.5q10 -2 17.5 -1t15.5 1q25 0 39 9.5t18 35.5 q10 57 22.5 113.5t22.5 112.5q2 10 0 18t-4 21q20 0 39.5 2t38.5 -2q47 -10 47 -54q-2 -41 -5 -79.5t-5 -79.5q-2 -14 -2 -28.5t-2 -33.5q61 20 119.5 40t112.5 45.5t99 62.5t80 90q24 -23 24 -45q0 -17 -15 -33q-31 -31 -65 -60.5t-71 -54.5q-35 -23 -71.5 -39t-75.5 -32 q-20 -10 -42 -14.5t-44 -10.5q-72 -18 -72 -86q-2 -29 -7 -56.5t-9 -56.5q-6 -37 -9 -58t-6.5 -38.5t-6.5 -39t-11 -58.5q-10 -45 -15 -81t-8.5 -72t-6.5 -71.5t-5 -80.5q-4 -47 -8 -91t-4 -90q2 -51 7 -101t11 -99q4 -41 29 -71t57 -58q19 -13 36 -13t32 13q18 14 46 52 t57.5 81t56 84t43.5 63q6 18 15 41t18.5 43.5t16.5 35.5t11 20q8 14 14.5 21t12.5 13q8 8 14 15.5t12 11.5q27 8 27 0t4 -23q-14 -20 -35.5 -60t-47 -88t-52.5 -100.5t-52.5 -98.5t-48 -80.5t-36.5 -47.5q-39 -33 -89 -52q-31 -12 -64 -12q-21 0 -42 5q-72 16 -121 55 t-69 111q-14 55 -16 109q-1 21 -1 42q0 33 2 66q4 53 12.5 107.5t16.5 107.5q6 49 13.5 89t14.5 78t13 78t12 89q6 45 7 74.5t2.5 56t3.5 56.5t6 75v29q-10 0 -17.5 1t-17.5 1q-27 -2 -44.5 -2t-32.5 1t-32.5 3t-44.5 2q-37 0 -73.5 1t-73.5 5q-25 4 -50.5 8t-49.5 8 q-47 4 -91.5 8.5t-91.5 6.5q-57 2 -102 4q-30 1 -59 1h-29q-43 -1 -87 -6.5t-100 -19.5q-29 -6 -54 -21.5t-51 -32t-50.5 -32.5t-50.5 -29q-10 -4 -17.5 -14t-15.5 -18q-14 -14 -30.5 -18.5t-33.5 5.5q-16 12 -15 27.5z" />
<glyph unicode="q" horiz-adv-x="526" d="M-303 1161.5q8 20.5 20 36.5q28 36 73 36q13 0 26 -3q16 -4 24 -17q4 -6 1 -14t-5 -14q-4 -12 -8 -24.5t-8 -24.5q-4 -8 -4 -15.5t-4 -13.5q-16 -23 -7 -40t25 -34q53 -60 120 -60q29 0 60 11q20 6 40 10t42 9q25 2 29 30q10 59 19.5 116.5t19.5 117.5v13t2 13 q4 8 8 15.5t8 15.5q14 -10 29 -22q4 4 7 9t3 11q4 33 26.5 44t47.5 19q31 10 35 -24q2 -16 0 -32.5t-7 -33.5q-8 -55 -16 -109l-16 -108q-2 -2 2 -12q23 10 44 18.5t44 16.5q127 41 252 82t252 82q53 18 107 38.5t108 36.5q137 45 295 52q14 1 27 1q24 0 48 -4q35 -8 72 -20 q29 -10 41 -32.5t2 -49.5q-8 -18 -16.5 -35.5t-20.5 -31.5q-18 -25 -45 -29q-25 -4 -50.5 -5t-51.5 -1q-37 2 -25 45q10 -18 24.5 -18.5t30.5 -0.5h10q46 0 69 16q26 19 38 64q6 20 2 31.5t-26 15.5q-37 8 -75 15q-25 5 -48 5q-13 0 -25 -1q-92 -6 -178 -27.5t-172 -52.5 q-55 -20 -109.5 -40.5t-107.5 -43.5q-57 -23 -112.5 -47.5t-110.5 -50.5q-55 -25 -110.5 -50.5t-111.5 -50.5q-14 -6 -28.5 -9t-28.5 -7q-29 -8 -35 -41q-4 -35 -10 -66.5t-10 -66.5q-4 -27 -5 -73t-5 -73q-4 -45 -8.5 -89t-8.5 -89q-6 -51 -6 -102q0 -30 2 -61l12 -160 q2 -23 8.5 -45.5t12.5 -49.5q45 43 97 112t104.5 143.5t103.5 143t98 111.5q16 -23 9 -46t-17 -46q-8 -25 -27.5 -35t-35.5 -28q-35 -41 -79 -101.5t-91 -124t-92.5 -122t-79.5 -95.5q-29 -18 -58.5 -18t-55.5 12.5t-46.5 36t-28.5 51.5q-16 53 -21 103q-3 29 -3 57 q0 23 2 47q8 74 12 146.5t14 144.5q10 78 23.5 177t25.5 177v21q-10 -2 -17 -2t-15 -2q-35 -8 -70 -15.5t-70 -17.5q-23 -6 -49 -3t-52 14t-48.5 27.5t-36.5 35.5q-23 33 -29 65.5t-10 67.5q-2 4 -1 8t-1 8q-16 25 -8 45.5zM203 1075q-2 -6 2 -13t8 -15h8q10 49 20.5 98 t20.5 98q-16 -43 -30.5 -85t-28.5 -83z" />
<glyph unicode="r" horiz-adv-x="546" d="M-174 965q-12 29 0 61q4 10 14 17.5t21 3.5q16 -4 28.5 -17.5t30.5 -17.5q23 -4 44.5 -2t41.5 8q20 8 40 12t42 8q25 2 29 31q10 57 18 114.5t19 114.5q2 6 1 13.5t3 13.5q4 8 7 15.5t7 15.5q8 -6 14.5 -11.5t14.5 -11.5q10 10 10 19q4 33 26.5 44t45.5 19q31 10 34 -24 q2 -16 0 -32t-6 -32q-8 -53 -16 -107.5t-16 -107.5q0 -2 1 -4t1 -6q23 8 44 16t44 17q10 4 31.5 13t45 17.5t44 11.5t28.5 -6q8 -12 10 -16q8 -25 -13 -45t-54 -35.5t-64.5 -27t-44.5 -17.5q-14 -6 -28.5 -9t-28.5 -7q-31 -8 -33 -41q-4 -33 -10 -64.5t-10 -66.5 q-4 -25 -6.5 -71t-4.5 -73q-4 -43 -8 -87t-8 -89q-6 -49 -6 -98q0 -30 2 -60q6 -80 12 -159q2 -23 8.5 -45.5t10.5 -46.5q45 43 96 110.5t102.5 140t102.5 140t98 110.5q16 -23 9 -45t-17 -47q-10 -23 -28.5 -33t-35.5 -28q-35 -41 -77.5 -100.5t-89 -122t-91.5 -120 t-80 -91.5q-27 -18 -55.5 -18.5t-54 12t-46 35t-28.5 50.5q-23 72 -23 150q0 27 3 55q6 72 11 142.5t13 142.5q6 39 12.5 84t12.5 91t12 91t12 84v19q-10 -2 -17 -2t-15 -2q-35 -8 -69 -15.5t-69 -17.5q-29 -8 -59.5 0t-44.5 37zM197 1108q-2 -4 2 -12.5t8 -16.5q2 2 8 2 q10 47 20.5 96.5t20.5 96.5q-16 -41 -30.5 -83t-28.5 -83z" />
<glyph unicode="s" horiz-adv-x="487" d="M-671 1275.5q-5 12.5 7 39.5q4 -2 8.5 -2t8.5 -4q16 -12 29.5 -27.5t29.5 -26.5q35 -27 78 -43q72 -33 143.5 -47t143.5 -22q27 -2 54.5 -8.5t53.5 -10.5q41 -4 80 -4h80q18 -2 35.5 -2t36.5 -2q20 -2 24 23q4 20 7.5 61t7.5 64q6 51 47 82q6 4 16 2t20.5 -10.5 t19.5 -18.5t11 -23q4 -18 7.5 -57t5.5 -57q2 -12 2 -25.5v-30.5q23 6 43 10.5t41 10.5q168 51 338 110q37 12 72.5 26.5t74.5 25.5q23 6 47.5 7t48.5 1q129 0 258 -6q18 0 38 -6.5t38 -14.5q28 -10 48 -46q16 -30 17 -57q0 -5 -1 -11q0 -4 -2 -7q-4 -12 -31 -21t-41 -5 q8 20 10 31q3 10 3 19q0 32 -34 52q-4 2 -7 4t-7 2q-31 8 -62.5 17.5t-62.5 5.5q-49 -6 -99 -7t-97 -12q-55 -12 -106.5 -30.5t-104.5 -36.5q-35 -14 -70 -31.5t-72 -32.5q-63 -23 -126.5 -45t-129.5 -45q-14 -4 -21 -12t-3 -27q4 -39 -15 -59q-4 -6 -3 -19.5t-1 -23.5 q-6 -39 -13 -81t-11 -81q-4 -27 -6.5 -39t-4.5 -22.5t-3 -22.5t-5 -39q-10 -59 -11 -117.5t-9 -117.5q-6 -45 -9.5 -80t-3.5 -70t2.5 -71.5t6.5 -83.5q2 -23 5 -42.5t7 -41.5q4 -23 3 -44.5t15 -35.5q27 -16 39 4q16 29 30.5 54.5t31.5 53.5q4 10 7 21.5t-7 25.5q-4 8 0 19 q2 4 4 9t4 9q18 35 38.5 35t53.5 -37q8 -10 11 -26.5t5 -30.5q3 -21 3 -39q0 -42 -16 -73q-23 -44 -64 -74l-9 -5q-16 -12 -28.5 -18t-30.5 -10q-16 -2 -32.5 0t-22.5 4q-23 8 -35 12t-35 15q-23 10 -44 20t-42 27q-33 29 -45 65.5t-14 73.5q-4 53 -5 103v34q0 33 1 66 q0 29 1 47t2 34.5t3 34t4 45.5q6 61 11 109.5t11.5 92.5t13.5 90t17 106q6 37 13.5 72.5t13.5 70.5q4 10 7 19.5t-9 23.5q0 2 1 7t3 7l16 17q-6 6 -8 10q-6 0 -12 1t-13 1q-68 -4 -136 -6h-23q-57 0 -117 8q-78 12 -156 28.5t-155 47.5q-29 10 -61 26.5t-54 43.5 q-14 16 -34.5 31.5t-27.5 37.5q-4 16 -9 28.5z" />
<glyph unicode="t" horiz-adv-x="395" d="M-217 967q0 8 3 15t5 15q8 -4 16.5 -5t12.5 -7q16 -18 46 -30.5t64 -17.5q19 -3 36 -3q14 0 28 2q31 4 51 18q8 4 11 16.5t7 22.5q10 33 20.5 67t20.5 66q2 8 14.5 16.5t28 13.5t31 7t25.5 0q25 -6 29 -23.5t4 -37.5q0 -10 -2.5 -21.5t-4.5 -21.5t-4 -21.5t-6 -31.5 q39 16 71 29.5t62 29.5q31 17 66 21q6 1 11 0q29 0 54 -19q15 -11 15 -27q2 -6 -2 -10q-2 -2 -13 -2q-12 4 -23 6l-22 4q-29 4 -55.5 -9t-48.5 -25q-29 -12 -56.5 -26.5t-54.5 -31.5q-12 -6 -20 -23.5t-13 -33.5q-8 -53 -18 -115.5t-20.5 -127t-19.5 -128t-15 -117.5 q-4 -37 -8.5 -73.5t-8.5 -75.5q-2 -16 -3 -32.5t3 -33.5q4 -16 4 -33.5t5 -33.5q2 -10 14 -27q10 -10 24.5 -13t22.5 11q4 4 23.5 14.5t21.5 14.5q2 8 16.5 29.5t18.5 29.5q16 33 34.5 65.5t34.5 65.5q35 66 70 132.5t70 131.5q2 2 6 9.5t8 15.5t9 12t10 2l6 -12 q2 -10 2 -19q0 -25 -12 -49q-16 -32 -29 -61q-20 -37 -39 -74t-37 -73q-29 -55 -60.5 -111.5t-68.5 -108.5q-25 -35 -58.5 -66.5t-52.5 -41.5q-29 -14 -50 -17.5t-46 19.5q-10 10 -22.5 19.5t-20.5 19.5q-6 8 -9 21.5t-3 23.5q-10 68 -12 136q-1 22 -1 44q0 45 3 90 q4 57 9 112.5t11 113.5q4 29 8 56.5t4 55.5q0 12 2 35t5.5 48.5t7.5 48t6 34.5v14q-2 8 -17.5 9.5t-35 0.5t-37 -3.5t-25.5 -2.5q-6 -1 -12 -1q-42 0 -76 24q-39 27 -49 70z" />
<glyph unicode="u" horiz-adv-x="681" d="M-451 -565q0 66 28 132t75 119.5t108.5 86t130.5 32.5q55 0 102.5 -35.5t47.5 -95.5q0 -23 -3 -52.5t-13.5 -55t-29 -44t-48.5 -18.5q-12 0 -19.5 17.5t-17.5 38t-26.5 38t-45.5 17.5q-39 0 -73.5 -21.5t-61.5 -54.5t-42 -72.5t-15 -74.5q0 -59 25.5 -109.5t66.5 -86.5 t95 -56.5t110 -20.5q49 0 96 19.5t90 50.5t80 70t63 75q33 43 54.5 79t37 71t27.5 74t25 90q6 26 6 64v19q-2 50 -2 85q0 29 -4 55.5t-2 54.5h-2q-4 10 -9.5 37t-12.5 54.5t-16 48t-18 20.5q-8 0 -20 -8t-29.5 -19.5t-41 -19.5t-52.5 -8q-59 0 -99 31.5t-65.5 79.5 t-39 102.5t-19.5 99.5q-8 53 -19.5 106.5t-11.5 106.5t28.5 87t84.5 34q31 0 40 -15.5t9 -44.5l-2 -219q0 -33 -2 -85v-21q0 -41 6 -80q8 -49 30.5 -84t69.5 -35q59 0 105.5 35t46.5 96q0 113 -8.5 224.5t-8.5 222.5q0 47 28 88t79 41q16 0 34.5 -7.5t18.5 -27.5 q0 -16 -3 -34.5t-3 -37.5q0 -135 17.5 -281.5t17.5 -297.5q0 -80 4 -161t4 -163q0 -29 -5 -65.5t-13.5 -74.5t-18.5 -74t-22 -62q-47 -109 -104.5 -192t-132.5 -138t-172 -83t-222 -28q-59 0 -116.5 35t-101.5 88t-71 116.5t-27 121.5zM-203 -336l43 27z" />
<glyph unicode="v" horiz-adv-x="833" d="M-569 -770q4 23 7 44t7 42q4 14 11 26.5t16 22.5q37 55 86 88t108 49q29 9 57 9q37 0 72 -15q23 -10 46.5 -15t45.5 -22q29 -23 54.5 -47t42.5 -63q6 -16 13 -31.5t13 -32.5q6 -16 6 -30q1 -14 1 -29q0 -95 -35 -176q-2 -2 -2 -4v-2q-23 -23 -42.5 -43.5t-39.5 -42.5 q-6 -6 -12.5 -5.5t-12.5 5.5q-10 4 -22.5 8t-22.5 4q-20 2 -39 20q-31 31 -47 78q-2 2 -2 10v2q2 2 2 5q10 -6 17.5 -12.5t15.5 -12.5q27 -17 47 -17q39 0 49 64q5 29 5 57q0 34 -7 66q-12 60 -45 119q-35 57 -98 67q-16 4 -30.5 6.5t-31.5 4.5q-2 0 -16 -5q-8 -4 -16.5 -9 t-16.5 -13q-10 -10 -22.5 -19.5t-20.5 -23.5q-37 -61 -47 -148q-2 -18 -2 -36q0 -54 18 -107q4 -10 9.5 -18.5t9.5 -18.5q4 -12 8 -23.5t8 -23.5q6 -23 14.5 -42t22.5 -36q25 -31 48.5 -61.5t47.5 -59.5q12 -16 35 -26q10 -8 22.5 -13.5t22.5 -13.5q35 -23 70 -38t71 -19 q12 -2 24.5 -3t22.5 -3q10 -4 20.5 -7t20.5 -6q10 -2 17.5 -3t15.5 -1q35 6 68 11.5t65 13.5q53 12 94 42t76 75q10 14 23.5 25.5t25.5 23.5q4 6 8.5 13t8.5 11q18 23 29.5 49.5t27.5 51.5q20 35 30.5 73.5t16.5 79.5q6 53 10 109l2 32q0 40 -8 81q-4 29 -8 57.5t-8 56.5 q-4 29 -6 56.5t-4 56.5l-19 184q-2 20 -2 29.5t-2 30.5q0 14 -2 28.5t-2 30.5q0 12 1 25.5t1 25.5q0 10 -2 18.5t-2 16.5q2 47 2 96t4 97q4 47 13.5 90t17.5 88q6 33 18 78q-14 -4 -14 -5q-14 -23 -31.5 -41t-27.5 -47q-2 -8 -9.5 -13t-13.5 -13q-10 -16 -20.5 -32.5 t-22.5 -33.5q-12 -16 -25.5 -29.5l-27.5 -27.5q-4 -6 -10.5 -10t-10.5 -11q-14 -25 -35.5 -38t-41.5 -27q-4 -4 -8.5 -4h-8.5q-16 4 -30.5 1t-30.5 -3h-11q-60 0 -114 41q-16 12 -26.5 31.5t-18.5 37.5q-35 76 -35 154q-2 33 -4 64.5t-2 64.5q2 33 5 63.5t7 63.5l4 8l4 8 q4 12 4 15q2 14 1 26.5t1 26.5q0 8 11 14q16 10 31.5 17.5t31.5 17.5q12 8 25.5 5t27.5 -7q27 -12 31 -47q4 -29 1 -53.5t-7 -51.5q-2 -29 -1 -58.5t3 -57.5q2 -25 4 -49.5t4 -49.5v-20q-2 -17 -2 -34q0 -21 3 -43q5 -38 12 -79q2 -10 7 -19t11 -20q8 -14 15 -16t20 4 q61 33 102 102q16 27 36.5 48.5t39.5 44.5q10 14 19.5 28.5t19.5 30.5q20 33 39.5 64.5t42.5 64.5q4 8 11 15.5t13 15.5q23 25 43.5 50t42.5 50q10 10 19.5 16.5t19.5 16.5q8 8 13 18q4 16 27.5 24.5t37.5 -1.5q6 -6 12.5 -11.5t12.5 -11.5q12 -12 12 -20.5t-4 -22.5 q-12 -35 -30.5 -65.5t-29.5 -67.5q-12 -47 -29.5 -90t-33.5 -86q-16 -45 -26.5 -92t-14.5 -96q-3 -30 -3 -60v-15q1 -38 1 -75v-67q4 -33 6 -65t4 -65q2 -14 1 -27t-1 -28v17q4 -31 10 -63t11 -62q0 -4 1 -6.5t1 -6.5q-1 -13 -1 -25q0 -29 6 -59q9 -43 13 -84q4 -25 3 -49 t3 -49q4 -47 5 -92t4 -90q0 -18 -1.5 -34.5t-7.5 -33.5q-8 -16 -8 -39q0 -29 -9 -51t-20 -45q-4 -14 -10 -27.5t-12 -29.5q-16 -45 -43 -77t-57 -60q-4 -6 -9.5 -11.5t-9.5 -11.5q-8 -20 -23.5 -28.5t-31.5 -14.5t-30.5 -12t-31.5 -15q-10 -6 -17 -15t-17 -19q-8 -8 -15 -9 q-16 0 -27.5 -8t-21.5 -18q-4 -2 -5 -5t-3 -3q-14 0 -27.5 -8.5t-27 -16.5t-27.5 -15.5t-29 -7.5q-27 0 -52.5 1t-51.5 10q-14 4 -26.5 1t-26.5 1q-51 10 -102.5 34.5t-100.5 57.5q-23 14 -46.5 24.5t-43.5 30.5q-14 16 -28.5 31.5t-31.5 32.5q-25 29 -49 55.5t-47 54.5 q-10 14 -18.5 29.5t-16.5 32.5q-12 29 -26.5 56.5t-24.5 55.5q-21 55 -21 111q0 22 3 43zM508 -254q4 -33 6 -65.5t12 -67.5q9 16 9 14q-4 33 -7.5 65t-7.5 62q-2 2 -6 2q-2 -4 -4 -5t-2 -5z" />
<glyph unicode="w" horiz-adv-x="1595" d="M-190 1446q8 20 24 16q8 0 21 -8q45 -35 101 -49q44 -11 88 -10h26q29 2 56.5 9t51.5 17q18 8 42 25.5t46 9.5q4 -2 12.5 1t18.5 7q8 -12 27 -10q18 4 23 0t7 -22q0 -14 -1 -27.5t-3 -28.5v-39.5t-4 -40.5q-8 -55 -13 -113.5t-20 -111.5q-10 -47 -21 -91t-20 -91 q-8 -41 -18 -78t-12 -78q-2 -77 -6 -155q-1 -16 -1 -33q0 -61 13 -123q4 -20 12 -40t12 -38q6 -29 11.5 -55.5t11.5 -55.5q2 -6 3 -11t3 -11q4 -16 9 -32.5t9 -33.5q6 -37 41 -57q14 23 28.5 44.5t25.5 45.5q31 82 47 166t33 170q10 49 22 99.5t23 101.5q4 23 6 43t12 41 q8 20 20.5 38.5t26.5 34.5q4 4 11.5 5.5t13.5 3.5q20 -23 28.5 -48.5t16.5 -50.5q35 -109 61 -211q10 -31 21.5 -61.5t34.5 -56.5q6 -6 9 -13.5t7 -15.5q16 -43 38.5 -83t37.5 -85q4 -16 12 -29.5t16 -29.5q2 -4 5.5 -9.5t3.5 -9.5q2 -16 9 -29.5t15 -25.5q49 -92 129 -160 q18 -16 53 -18t54 14q59 55 90 127q18 41 25.5 86t11.5 92q6 68 7 136v45q0 45 -1 90q-2 68 -6 135t-15 135q-4 37 -7 73.5t-7 73.5q-2 12 -1 25.5t-1 26t-9 22.5t-24 14q-16 6 -35.5 5t-38.5 -3h-8q-51 0 -97 25q-50 27 -79 74q-27 43 -27 92v9q2 54 31 99q16 27 42 45.5 t56 24.5q16 4 33 4q19 0 38 -5q36 -9 65 -28q61 -37 96 -100q6 -10 11 -28.5t12.5 -37t16.5 -34t23 -17.5q12 -2 23.5 3.5t21.5 11.5q23 14 40.5 30.5t37.5 28.5q16 10 32.5 16.5t33.5 18.5q12 8 23.5 16t21.5 19q23 20 42 39.5t42 37.5q4 4 9 7.5t11 1.5q13 -5 13 -19 q-2 -8 -11 -20q-29 -41 -64.5 -80t-76.5 -68q-16 -10 -29.5 -19t-27.5 -24q-16 -16 -28.5 -33.5t-31.5 -29.5q-14 -8 -27.5 -16.5t-23.5 -20.5q-8 -12 -8 -28.5t4 -35t9 -36t7 -29.5q10 -51 18.5 -100.5t14.5 -100.5q3 -28 3 -57v-14q-1 -36 -1 -72q-2 -47 -2 -93t-4 -93 q2 35 7 36.5t5 -28t-10 -88t-39 -144.5q-8 -27 -21.5 -51.5t-25.5 -46.5q-16 -31 -33.5 -61.5t-38.5 -59.5q-14 -23 -31.5 -42t-35.5 -38q-47 -47 -96 -90q-12 -12 -27 -12q-31 2 -59 -17q-15 -9 -28 -9q-18 0 -32 16q-12 12 -26 18q-23 10 -34 25.5t-22 33.5q-10 18 -19 36 t-22 34q-16 20 -28.5 45t-30.5 41q-18 18 -30.5 31.5t-22.5 40.5q-4 18 -9.5 36.5t-15.5 34.5q-16 25 -36.5 46.5t-33.5 50.5q-12 33 -18 68.5t-14 68.5l-13 55l-16 78t-16 80q-2 0 -2 1t-2 1q-4 -16 -8.5 -33.5t-8.5 -34.5q-10 -47 -19.5 -92t-19.5 -90q-20 -121 -71 -237 q-16 -41 -43 -78t-60 -72q-10 -10 -16 -20.5t-15 -20.5q-13 -21 -31 -21q-13 0 -28 11q-39 31 -65 80q-23 43 -40.5 85t-27.5 89q-14 74 -26.5 147.5t-16.5 151.5q-2 25 -6 49.5t-4 48.5q-2 71 -3 141v28q0 56 3 114q4 35 6 68.5t4 68.5q4 70 23.5 134.5t48.5 127.5 q6 16 16 29.5t14 29.5q8 25 -6 39q-12 10 -29.5 8.5t-33.5 -6.5q-29 -6 -59 -6q-26 1 -54 5q-58 10 -111 24q-16 4 -32.5 10t-28.5 17q-12 10 -19.5 25.5t-0.5 29.5zM1068 1257.5q2 -12.5 7 -24.5q20 -39 55 -55q27 -14 57 -21.5t50 -30.5q-8 45 -27.5 86t-60.5 68 q-16 14 -37 16q-27 0 -37 -16q-9 -10 -7 -22.5z" />
<glyph unicode="&#xa0;" />
<glyph unicode="&#x2000;" horiz-adv-x="1120" />
<glyph unicode="&#x2001;" horiz-adv-x="2241" />
<glyph unicode="&#x2002;" horiz-adv-x="1120" />
<glyph unicode="&#x2003;" horiz-adv-x="2241" />
<glyph unicode="&#x2004;" horiz-adv-x="747" />
<glyph unicode="&#x2005;" horiz-adv-x="560" />
<glyph unicode="&#x2006;" horiz-adv-x="373" />
<glyph unicode="&#x2007;" horiz-adv-x="373" />
<glyph unicode="&#x2008;" horiz-adv-x="280" />
<glyph unicode="&#x2009;" horiz-adv-x="448" />
<glyph unicode="&#x200a;" horiz-adv-x="124" />
<glyph unicode="&#x202f;" horiz-adv-x="448" />
<glyph unicode="&#x205f;" horiz-adv-x="560" />
<glyph unicode="&#x25fc;" horiz-adv-x="1024" d="M0 0z" />
</font>
</defs>
</svg>
