<?xml version="1.0" standalone="no"?>
<!DOCTYPE svg PUBLIC "-//W3C//DTD SVG 1.1//EN" "http://www.w3.org/Graphics/SVG/1.1/DTD/svg11.dtd" >
<svg xmlns="http://www.w3.org/2000/svg" xmlns:xlink="http://www.w3.org/1999/xlink" version="1.1">
<metadata></metadata>
<defs>
<font id="the_missus_handitalic" horiz-adv-x="853" >
<font-face units-per-em="2048" ascent="1536" descent="-512" />
<missing-glyph horiz-adv-x="500" />
<glyph horiz-adv-x="0" />
<glyph horiz-adv-x="0" />
<glyph unicode="&#xd;" />
<glyph unicode=" " />
<glyph unicode="!" horiz-adv-x="377" d="M43 104q5 24 19.5 39.5t29.5 28.5q19 7 24 14q7 2 8.5 -1.5t5.5 -3.5v7q9 2 15.5 0t12.5 -5.5t11 -7t14 -1.5q5 -10 10 -19.5t19 -12.5q2 -15 7 -28t1 -27q-7 -5 -10 -16t-7.5 -21.5t-9 -18t-14.5 -7.5q-3 -2 -6.5 -4.5t-5.5 -4.5q-20 -3 -28.5 -3t-25.5 2q-10 9 -22 13 t-24 11v8q-9 2 -12.5 8.5t-4.5 15.5t-1.5 18t-5.5 16zM150 333.5q-5 14.5 2 30.5q-3 41 3.5 83.5t4.5 78.5q9 20 6.5 45.5t9.5 48.5q-3 3 -3.5 7t-3.5 8q9 22 8.5 47t1.5 50q0 9 2.5 17.5t2.5 16.5q0 12 -2.5 22.5t6.5 18.5q0 7 -4 17q2 24 2 53t1.5 57.5t7.5 54.5t20 45v12 q7 3 8 11t4 16q3 2 12 2q5 14 18.5 18t24.5 15q14 -2 29 -4.5t27 -6.5q3 -9 10 -12t10 -10q9 -27 12.5 -54.5t10.5 -57.5q-3 -10 -7 -17t0 -19q-9 -12 -9 -27.5t-5 -34.5q-3 -12 -8.5 -23t-6.5 -23q-2 -3 -1 -9t1 -10q-3 -12 -8.5 -21t-8.5 -21q-5 -20 -7 -38.5t-14 -31.5 v-16q-2 -5 -3.5 -8.5t-3.5 -6.5q3 -9 0 -17.5t-1 -18.5q-12 -14 -14 -31.5t-5 -36.5q-3 -24 -16 -52t-22 -49q2 -27 -9 -49t-20 -46q-5 -17 -6.5 -29t-15.5 -21q-7 3 -15.5 0t-15.5 0q-5 12 -10 26.5zM196 471q3 -5 3 0t-3 0zM208 596q4 3 4 1q-3 0 -4 -1zM246.5 588.5 q-0.5 -3.5 2.5 -3.5q-2 2 1.5 4.5t-1.5 4.5q-2 -2 -2.5 -5.5zM270 684q-1 -6 1 -6q-2 3 1.5 4.5t-2.5 1.5z" />
<glyph unicode="," horiz-adv-x="315" d="M45.5 -136q2.5 10 2.5 18q31 17 56.5 39.5t28.5 68.5q3 7 3.5 11t1.5 13q-15 12 -30.5 23.5t-23.5 30.5q-14 10 -21.5 31.5t0.5 43.5q3 10 13.5 15.5t10.5 13.5h10q3 3 3.5 8.5t3.5 8.5q15 9 40 15t40 -4q19 9 35 -1.5t30 -15.5q0 -9 -2 -12q0 -3 3.5 -1.5t5.5 -0.5 q7 -9 6 -19t3 -22q2 -9 5 -18t1 -20q-2 -15 -7.5 -28.5t-2.5 -27.5q-9 3 -12 -8.5t-5 -20.5q-3 -3 -5 -5.5t-9 -1.5q-29 -46 -74 -85t-88 -72q-9 2 -11 3t-11 1q-3 9 -0.5 19zM224 58q2 -5 2 1t-2 -1z" />
<glyph unicode="." horiz-adv-x="233" d="M43 101q9 3 7.5 8t-2.5 10q5 3 12 9.5t7 14.5q17 9 34.5 15t36.5 2q14 -2 23.5 -8.5t19.5 -11.5q3 -9 5 -16.5t5 -15.5q0 -44 -30 -70t-65 -18q-3 0 -4.5 -1.5t-2.5 -1.5q-17 5 -29 19.5t-11 33.5q0 3 -2.5 4t-2.5 3q-2 3 -0.5 11t-0.5 13z" />
<glyph unicode="0" horiz-adv-x="1017" d="M43 387q5 61 13.5 123t15.5 125q7 5 12 16t0 23q3 3 5.5 6.5t6.5 8.5q0 10 -6 11q19 12 27 32.5t23 33.5q3 26 18.5 38.5t24.5 33.5q3 0 4 1.5t6 0.5q-2 7 0 9.5t3 7.5q5 0 8 3.5t8 4.5q0 19 12.5 28.5t26.5 22.5q15 19 24.5 27.5t26.5 22.5q34 24 69 39.5t73 33.5 q22 3 29 12q14 -3 24 2t25 2q5 0 7.5 2.5t6.5 5.5q7 -5 14.5 -2.5t13.5 5t11 3.5t10 -4q27 -3 59 -6.5t59 -8.5q3 -7 9.5 -9.5t11.5 -6.5q23 9 32 -13q10 3 18.5 -2t13.5 -14q20 2 30 -9t25 -20v-8q19 -15 28.5 -37.5t27.5 -39.5h17q0 -27 7 -47.5t24 -32.5 q0 -29 10.5 -63.5t3.5 -69.5q9 -5 6 -26.5t1 -37.5q0 -2 3 -5q2 -2 4 -5q-2 -14 -14 -33.5t-4 -39.5q-7 -19 -12 -41t-8 -41q-7 -3 -14 -16q2 -10 -1.5 -16.5t-8.5 -12.5t-8.5 -14.5t-1.5 -20.5q0 -5 -3.5 -5t-6.5 -4q3 -19 -7 -28t-19 -20q-7 -9 -9.5 -18t-12.5 -12 q-2 -20 -15 -29t-16 -26q-10 -3 -17 -11.5t-13.5 -17.5t-14.5 -15.5t-21 -8.5q-5 -9 -15.5 -18t-25.5 -13q-32 -34 -77 -49q-7 -9 -20 -12t-16 -15q-9 2 -15 -6q-32 9 -45 -13q-5 -2 -5 1.5t-3 1.5q-7 -2 -9 -5t-5 -5q-14 2 -21.5 -1.5t-17.5 -10.5q-14 7 -26 0t-25 -3 q-32 -14 -71.5 -7t-70.5 17q-3 5 -5 10t-10 3q3 12 -10 15t-21 8q-14 9 -29.5 24t-30.5 20q2 9 -0.5 12t-4.5 7q-5 0 -7.5 -2t-6.5 -2q-9 17 -20.5 31t-16.5 33q-2 3 -6 2t-4 1v15q-14 19 -22.5 41t-22.5 38q-3 22 -5 49.5t-15 45.5zM203 369q2 -3 4.5 -7t4.5 -9 q3 -20 3 -39t9 -32q9 -10 15.5 -14.5t-0.5 -14.5q9 -14 14.5 -29.5t12.5 -28.5q20 -19 41 -38.5t38 -42.5q5 0 7.5 2t7.5 -2q-3 -5 0.5 -9t8.5 -6q7 3 12.5 8.5t16.5 3.5q5 -14 17.5 -12t28.5 -2q7 3 10 7q29 -3 48.5 5.5t38.5 21.5q3 2 6 -0.5t4 -2.5q5 15 20.5 17.5 t32.5 6.5q10 20 25.5 29.5t34.5 23.5q-2 14 7.5 17t11.5 17q12 -3 18 8.5t16 15.5q0 22 11 30.5t20 22.5q5 19 13.5 35t13.5 35q5 -7 6 0t4 10q-3 0 -5 -1t-2 4q2 19 10.5 38t6.5 39q0 19 7 32t9 31q2 9 -1 17.5t-1 16.5q2 15 3.5 30t3.5 30q5 51 1.5 105t-22.5 95v10 q-7 9 -11 18t-6 23q-15 5 -24.5 17t-21.5 21q-15 0 -26 6t-22.5 13.5t-23 12.5t-29.5 3q0 3 -1.5 5t-1.5 6q-19 -3 -34.5 2.5t-30.5 2.5q-14 7 -26.5 6t-25.5 -5.5t-25 -8.5t-23 -4q-19 -17 -39.5 -32.5t-38.5 -32.5t-33.5 -37.5t-22.5 -47.5q-17 -14 -26 -34.5t-28 -34.5 q-7 -19 -14.5 -33t-18.5 -30q3 -14 -1 -20.5t-2 -20.5q-9 0 -9 -8q-10 -58 -22 -125.5t-5 -135.5z" />
<glyph unicode="1" horiz-adv-x="585" d="M43 27q10 12 25.5 17t32.5 8.5t34 6t31 11.5q12 7 18.5 17t12.5 20.5t13 20t19 17.5q-3 17 4.5 23t2.5 20q0 3 3 2t3 3q-7 14 1 19t11 13q2 7 0.5 12t6.5 12q-3 15 -0.5 28t7.5 26t8.5 26.5t-0.5 28.5q2 3 11 9q-2 9 -1 15.5t-1 11.5q9 22 9.5 42.5t7.5 48.5q2 12 7 22 t8 24q5 20 4.5 44t6.5 45q9 24 12 56t13 60q-5 15 -4 30.5t2.5 32.5t3.5 34t-2 36q-5 29 -31.5 45t-55.5 21q-31 5 -55.5 2.5t-48.5 9.5q-3 7 -2.5 13t0.5 16q20 10 46 18l52 16q14 3 27.5 7t26.5 7q20 5 38.5 11t36.5 3q14 9 27 10.5t23 13.5q17 -3 29 7t26 4 q7 7 13.5 -1.5t15.5 -11.5q-2 -10 2 -19.5t6 -18.5q0 -14 -6 -25.5t-9 -25.5q-3 -26 -5 -53t-9 -54q-3 -9 -6.5 -21t-7.5 -26q-2 -14 -1 -27t0 -27q-3 -29 -7 -54.5t-12 -53.5q-5 -53 -10 -111t-21 -105q-2 -3 0 -7t2 -7q-10 -22 -8.5 -51t-6.5 -48q0 -31 -5.5 -61.5 t-9 -59.5t-2.5 -58t15 -57q9 -17 37.5 -33t52.5 -25q9 -2 19.5 -1.5t13.5 -13.5q-9 -12 -21.5 -11t-26.5 1h-167h-128t-113 3q-14 3 -28.5 2.5t-15.5 14.5zM278 333q-3 -5 1 -1t-1 1z" />
<glyph unicode="2" horiz-adv-x="1003" d="M44.5 39.5q3.5 6.5 6.5 15.5q14 -2 19 5.5t19 9.5q24 26 57 46.5t62 35.5q3 7 6.5 11t7.5 9q19 3 26.5 15.5t26.5 15.5q2 3 1.5 6.5t1.5 7.5q12 12 23 17t20 19q14 3 24 11.5t19.5 17t19.5 16t22 9.5q5 3 7 7.5t5 8.5q26 10 46.5 28.5t44.5 34.5q7 15 18.5 24.5t24.5 17 t25 17t20 23.5q9 0 13 6t8 11q39 0 44 34q5 3 7 1.5t10 0.5q2 3 3.5 7t0.5 11q19 12 32.5 26.5t21.5 36.5q7 3 12 4q2 2 2 12q14 5 19 18t6.5 28t4 30.5t11.5 24.5q2 5 -1.5 6.5t-2.5 8.5q9 3 9 15t3 21q-7 20 0 40.5t4 41.5q-5 19 -19 30.5t-20 28.5q-15 5 -30 13l-30 16 q-5 0 -7 -2.5t-7 -2.5q-5 10 -13.5 10t-15.5 11q-22 -3 -49.5 -2.5t-55.5 -0.5t-54.5 -4.5t-46.5 -13.5q-58 -12 -90.5 -49.5t-53.5 -86.5q3 -24 0 -39.5t0 -34.5q3 -22 19.5 -35.5t20.5 -29.5q12 -39 -12 -71q-61 -5 -97 15.5t-62 50.5q-3 3 0 6t3 8q-12 10 -13.5 26.5 t-8.5 29.5q7 24 8.5 43t5.5 49q31 39 51 88q2 5 6 6.5t6 8.5q3 2 5 -1t5 -3q9 10 15.5 29t20.5 12q2 7 3.5 11.5t5.5 9.5q32 17 49 37.5t50 32.5q3 5 9 9.5t9 10.5q14 0 17.5 2t11.5 -3q7 5 14 8.5t12 9.5q27 -3 41 4t36 7v7q32 3 65.5 -0.5t63.5 -6.5q26 -3 49 -1t42 -4 q19 -9 37.5 -19t39.5 -17q7 -3 11 -11t11 -15q9 -9 20.5 -13t16.5 -12q5 -5 5.5 -12t3.5 -14q7 -14 16 -24t18 -22q2 -20 5.5 -41.5t11.5 -37.5q2 -5 -3 -5.5t-4 -7.5q12 -19 6 -35.5t-2 -31.5q-10 -20 -9.5 -45t-12.5 -40q-2 -7 0.5 -8.5t4.5 -5.5q-7 -9 -12 -19t-4 -27 q-7 -12 -18 -19.5t-7 -28.5q-9 -2 -15 -7.5t-11 -12.5t-11 -12t-13 -5q-15 -24 -39 -36t-38 -34q-9 -5 -19 -9.5t-15 -14.5q-14 -2 -21.5 -9.5t-14.5 -17.5q-3 -3 -3 -1.5t-5 1.5q-15 -24 -41 -37t-44 -33q-9 3 -14 -2t-9 -10q-3 -2 -5.5 -0.5t-6.5 1.5q-3 -3 -4.5 -5.5 t-5.5 -6.5q-29 -9 -46 -28t-41 -26q-2 -3 -2.5 -8.5t-2.5 -8.5q-14 -9 -27.5 -15.5t-20.5 -22.5q-9 7 -12 -1.5t-12 -5.5q-9 -15 -24 -23.5t-25 -22.5q2 -3 3.5 -5t3.5 -5q84 -3 173.5 4.5t174.5 0.5q5 0 16 -1t21 3q15 -5 35 -6t41.5 0t42.5 1t37 -5q3 -9 1.5 -13t-0.5 -13 q-12 -19 -20.5 -41t-16 -45t-17 -44.5t-24.5 -36.5q-2 -3 -1 -8.5t-3 -5.5q-14 -9 -21.5 -24t-15 -30.5t-17.5 -27.5t-29 -17q-3 9 -6.5 19t-2.5 24q0 3 -6 10q2 44 -20.5 64.5t-51.5 34.5q-14 -2 -25 2.5t-25 6.5q-17 2 -31.5 -2t-29.5 0q-19 3 -38.5 2.5t-38.5 -0.5 q-3 0 -5 2.5t-5 2.5q-3 -2 -7.5 -4.5t-9.5 -2.5q-19 -3 -39.5 2t-40.5 -2q-34 9 -78 4.5t-88 5.5q-34 -12 -74 -8.5t-66 10.5q-5 14 -1.5 20.5zM485 975q7 -1 7 1q-7 0 -7 -1z" />
<glyph unicode="3" horiz-adv-x="873" d="M43 32q10 24 29 40q19 0 32.5 -9.5t9.5 -24.5q9 -9 11.5 -20t9.5 -20q3 -7 9 -11t11 -11q2 -3 2 -5.5t3 -6.5q3 -3 7.5 -5t8.5 -5q3 -3 3 -6t4 -6q5 -5 16 -12t24.5 -13.5t28 -11t26.5 -4.5q19 -2 35 -3.5t33 5.5q3 -2 5 -3t7 -1q3 2 8.5 2t8.5 3q3 0 5 -1.5t6 -1.5 q10 3 12 7q14 -7 24 -2t23 2q17 3 29 19.5t31 16.5q-2 3 1 5.5t4 9.5q29 7 42 37t21 64q3 14 2.5 25t1.5 23t5 24.5t-5 24.5q0 3 1.5 5t1.5 5q-9 27 -9.5 55.5t-9.5 55.5q-3 7 -6.5 13t-4.5 14q-2 3 -7 12t-7 9q-5 9 -13.5 12t-12.5 12q-9 2 -14.5 5t-5.5 12q-10 -3 -17 2 t-16 3q-5 -2 -8.5 -5t-8.5 -7q-5 -3 -10 -3t-10 -5q-3 -2 -3.5 -4.5t-3.5 -4.5q-3 -3 -9 -4t-11 -4q-17 -12 -43 -18q-7 3 -11 5t-10 -3q0 14 -8.5 16.5t-9.5 16.5q-2 17 9 29.5t25.5 23t28 21.5t17.5 25q3 2 7.5 2.5t2.5 7.5q9 -3 15 2.5t9 12.5q3 -3 5 -3q9 14 25 21.5 t25 22.5q20 0 35.5 16.5t37.5 22.5q5 12 14.5 20.5t19.5 16.5t18.5 17.5t14.5 22.5q17 3 20 18.5t17 20.5v12q10 7 18.5 21.5t5.5 26.5q7 9 10.5 21.5t4.5 23.5q3 34 -3.5 65.5t-11.5 62.5q-9 15 -25 22.5t-19 21.5q-19 2 -33.5 8.5t-33.5 10.5q-3 0 -9 -5q-41 9 -86 -2.5 t-79 -35.5q-2 -12 -14 -17q3 -3 1 -4t-2 -6q-24 -14 -37 -40.5t-32 -46.5q0 -27 -0.5 -48.5t9.5 -47.5q2 -5 -1 -6t-4 -4q9 -34 -10 -58t-48 -31q-22 5 -29 25.5t-24 30.5q-3 19 -16 33t-12 37q-10 20 -4 52t22 46q5 31 20 46t24 41q5 0 7.5 2.5t7.5 4.5q10 24 31.5 36.5 t35.5 31.5q14 3 27.5 7.5t16.5 17.5q9 0 10.5 3.5t6.5 -3.5q15 12 36 19t39 4q5 0 6 4t3 8q9 -3 17.5 0t14.5 6q10 -7 14.5 -3.5t16.5 2.5q3 0 3 3q7 2 7 -5q19 -3 42 -6t47 -9q24 -5 48.5 -13t35.5 -23q27 -9 41.5 -27.5t36.5 -32.5q10 -17 14.5 -38.5t16.5 -34.5 q-2 -19 0.5 -41.5t9.5 -35.5q-2 -3 -3.5 -6t0.5 -8q9 -34 -3 -66.5t-19 -61.5q-15 -9 -24 -21.5t-17 -26.5h-9q-3 -9 -9 -14.5t-8 -15.5q-14 -5 -25 -14t-18 -22q-7 3 -9.5 -1t-5.5 -8q-14 -5 -24 -14.5t-18.5 -18.5t-19 -17t-25.5 -11q-5 -9 -13.5 -15t-13.5 -16 q3 -9 10.5 -8t7.5 -11q27 0 43.5 -18.5t38.5 -30.5q10 -15 22 -29t28 -26q-3 -7 0 -9.5t5 -9.5q12 -3 13.5 -16t5.5 -24q3 -7 6.5 -12.5t5.5 -13.5q2 -9 0 -18t0 -18q2 -15 3.5 -26t-5.5 -23q3 -22 -4.5 -34t-10.5 -31q-5 0 -7 -5t-3 -12t-2.5 -12t-8.5 -5q2 -3 0 -5t-2 -6 q-20 -12 -27.5 -35t-30.5 -35q-15 -38 -54 -58l-16.5 -16.5t-19.5 -12.5q-12 -15 -30 -22t-32 -20q-3 0 -6.5 -1t-6.5 -1q-39 -22 -99 -31.5t-116 -6.5q-32 2 -56 15.5t-50 19.5q-2 2 -2 5q-3 2 -4 -1t-4 -1q-3 5 -8.5 10t-8.5 9q-14 2 -21 12t-15 18q-10 10 -26.5 24 t-14.5 38q-14 15 -13 39t-9 39z" />
<glyph unicode="4" horiz-adv-x="897" d="M43 326q2 3 3.5 6.5t1.5 12.5q22 12 33 36.5t35 38.5q2 5 3.5 8.5t3.5 8.5q5 3 10 6.5t9 8.5q2 2 1.5 5.5t1.5 5.5t5.5 2.5t6.5 3.5q2 2 1 3.5t2 3.5q5 3 3.5 3.5t3.5 6.5q2 2 4.5 2t5.5 4q5 5 8 13.5t8 15.5q3 3 5.5 4t6.5 4q3 3 3 6.5t4 7.5q3 3 5.5 4t4.5 4 q5 7 10 15.5t15 12.5q3 14 9.5 21.5t14.5 13.5q0 10 4 12q10 9 17 19t17 19q2 2 2 12q17 19 35 37.5t31 42.5q15 14 28 30t22 38q5 0 12 7q14 24 33.5 43.5t32.5 43.5q7 0 9 2q12 32 36 53q0 9 2.5 12t2.5 12q36 29 58 69t56 67q5 0 7.5 -3.5t9.5 -1.5q2 -82 -6.5 -151 t-15.5 -139q-9 -9 -9.5 -25t-4.5 -33q-5 -27 -10 -52t-7 -52q0 -3 -1.5 -6t-3.5 -6q-2 -38 -10.5 -73t-11.5 -74q-3 -2 -2.5 -7t-2.5 -7q3 -38 -10.5 -77t-11.5 -76q3 -3 8 -4t10 -1q3 -2 8.5 -3t8.5 1q3 0 5 2.5t6 2.5q9 0 17 -2.5t17 0.5q14 3 28 11t30 17q2 2 3.5 1 t4.5 0q22 14 37.5 33t29.5 37q0 7 -2 9.5t2 6.5q3 7 5 13.5t7 10.5q-2 14 3 32.5t9 37.5q24 2 31.5 -12t6.5 -36t-6 -47t-7 -44q-2 -20 0 -39.5t1 -36t-7.5 -27.5t-25.5 -13q-29 -3 -60.5 -2t-64 2.5t-64 2.5t-60.5 -4q-15 -24 -17 -59t-16 -61q-2 -12 -4 -36t-11 -27 q3 -19 0 -36t2 -32q-7 -32 -3.5 -65.5t27.5 -50.5q10 -7 22 -9t24.5 -2t26.5 -2t26 -9q-5 -12 -2.5 -20t-1.5 -18q-102 -9 -209 -5.5t-214 2.5q-3 9 2 14.5t1 19.5q3 3 7 4t5 6q7 -3 13 1t13 6q14 3 27.5 1.5t25.5 3.5q14 5 19.5 12.5t17.5 13.5q9 17 21 29.5t20 29.5 q3 19 5 38.5t7 38.5q2 3 4.5 6.5t2.5 7.5q2 3 0 5.5t-2 6.5q3 12 8.5 21t7.5 21q2 14 1.5 28.5t-0.5 28.5q5 -3 5.5 0t3.5 5q-3 24 3.5 41t1.5 41q-22 10 -47 7.5t-50 -1.5q-72 3 -142 2.5t-140 3.5q-3 3 -4 7.5t-4 7.5zM181 350q49 -2 112.5 -3.5t107.5 6.5q9 -5 17.5 -3 t20.5 0q10 9 13.5 22.5t4 28.5t3 29.5t9.5 26.5q-2 12 2.5 26.5t8.5 23.5q-3 2 -2.5 7t-3.5 8q10 14 9.5 30t11.5 30q2 -2 2 0q-3 14 0 24t0 27q9 19 13.5 41t1.5 46q7 14 3.5 30t10.5 27q-2 12 1.5 29.5t-0.5 28.5q-7 -9 -15.5 -13.5t-9.5 -17.5q-9 2 -10.5 -2.5t-5.5 -7.5 q-3 -2 -4.5 -2t-3.5 -2q-3 -3 -6 -9t-6 -13h-3h-2q-10 -10 -17 -27q-15 -9 -23 -23.5t-22 -22.5v-9q-31 -31 -53 -78q-9 -3 -13 -16q-9 2 -9.5 -8.5t-12.5 -8.5q0 -15 -14.5 -25.5t-14.5 -30.5q-15 -9 -23 -24t-22 -27q-5 -20 -13.5 -35t-20.5 -29q0 -5 -1 -8t-1 -10 q-10 -5 -13 -24q-3 2 -7 -3.5t0 -8.5z" />
<glyph unicode="5" horiz-adv-x="979" d="M43 -46q2 12 1.5 20.5t1.5 22.5q19 19 48 22t56 12q14 -12 15.5 -29t8.5 -38q2 -7 10 -12q2 -7 1 -13.5t1 -10.5q3 -9 8.5 -14.5t3.5 -15.5q9 -3 14 -9.5t15 -6.5q2 -3 5.5 -6.5t-0.5 -10.5q9 -3 19 -11.5t19 -17.5q38 -9 80.5 -14.5t81.5 4.5q27 9 46 29t37 32 q9 14 21 23.5t20 22.5q3 7 5 15t7 16q3 7 8.5 14t7.5 13q3 12 3 24t12 21q-3 17 3.5 29t10.5 24q0 5 -2 1.5t0 1.5q9 46 23.5 104t5.5 123q-5 58 -17 103q-9 36 -34.5 53.5t-59.5 29.5q-72 2 -128 -11t-89 -52q-5 0 -6 1t-4 -1q-9 -7 -16.5 -12t-10.5 -14q-5 -9 -12 -13.5 t-9 -11.5q-3 -14 -4 -30t-9 -35q-14 -14 -39.5 -11.5t-44.5 11.5q-3 38 7 61.5t12 52.5q14 26 18 62t19 58q-2 5 -1 8.5t1 8.5q3 14 9.5 24t6.5 27q15 24 18.5 54.5t8.5 59.5q7 27 16.5 52t17.5 51q10 34 12.5 70.5t16.5 65.5q0 5 -1 8.5t-1 7.5q15 9 27.5 17t30.5 8 q9 -2 16 -5t13 -3q22 -2 44.5 5t43.5 -4q31 12 63 -5q15 5 32 2t33 5q12 0 32 -2.5t40.5 -3.5t40.5 2.5t32 13.5q12 0 18.5 4.5t12.5 10.5t13 12t17 9q46 51 75 120q10 2 13.5 0.5t13.5 0.5q9 -22 6.5 -51t-16.5 -41v-19q-12 -29 -21.5 -58t-12.5 -59q-17 -14 -20.5 -37 t-16.5 -37q-17 -3 -32.5 -0.5t-31.5 0.5q-3 0 -7.5 -1.5t-7.5 -1.5q-32 -3 -70 5.5t-77 2.5q-20 -3 -47.5 -3h-47.5q-9 3 -16.5 0.5t-14.5 -2.5q-24 5 -46 8t-46 -3q-10 -39 -16 -77.5t-17 -77.5q-2 0 -4 -2.5t-6 -2.5q-14 -55 -25.5 -106t-29.5 -97q7 -3 13 1t11.5 10 t11 10.5t14.5 4.5q5 2 5 5t4 6q10 -2 16.5 3.5t17.5 2.5q10 3 21 10t20 8q7 2 17 1t18 1q19 3 50.5 4t50.5 -2q10 0 20.5 -2.5t24.5 -7.5q12 -2 20.5 -7t14.5 -9q3 -2 7 -1t2 3q9 -3 14.5 -9t14.5 -6q9 -19 24 -29.5t20 -32.5q14 -10 23.5 -25.5t16 -33.5t13.5 -35t16 -29 q-3 -7 -1 -13t-1 -12q12 -14 7.5 -31t-4.5 -34q-2 -10 0 -19.5t0 -19.5q0 -10 -3.5 -17t-6.5 -24q-3 -9 -6 -14t-4 -17q-3 -22 -7.5 -45t-14.5 -40q2 -7 0 -19q-3 -3 -5 -6t-6 -6q0 -19 -9 -28.5t-13 -26.5q2 -5 -0.5 -4t-2.5 -3q0 -14 -9.5 -23t-18.5 -18q-2 -3 -1 -13 q-10 -3 -16 -12.5t-12 -20.5q-19 -7 -34 -30q-7 0 -13 -4q-22 -26 -43 -41q-7 2 -10.5 -1.5t-6.5 0.5q-5 -2 -2.5 -6.5t-1.5 -7.5q-9 2 -19 -4t-15 -13q-3 0 -5.5 0.5t-7.5 0.5q-31 -19 -73 -24t-88 -2t-90.5 10.5t-78.5 15.5q-9 9 -10 16q-15 0 -24.5 6t-16.5 14.5 t-15.5 15.5t-20.5 10q-3 3 -1.5 5.5t1.5 6.5q-19 17 -28 41.5t-26 45.5z" />
<glyph unicode="6" horiz-adv-x="803" d="M43 338q5 7 4 14.5t4 14.5q-9 44 0 85q2 14 6 27t8 30q3 10 3 12q2 3 0.5 8t-1.5 9q3 24 10 46t12 49q2 9 6 14t7 13q3 9 3.5 17.5t3.5 17.5q2 3 9 10q7 14 7.5 27.5t4.5 20.5q3 9 9 15.5t9 13.5q3 9 5 16.5t9 10.5q2 22 14 35.5t10 32.5q9 9 15 18.5t9 22.5 q12 15 25.5 32.5t22.5 35.5q17 3 22 15.5t14 24.5q3 3 7 5.5t6 7.5q3 3 3.5 6t3.5 6t6.5 4t7.5 5q9 5 13.5 13.5t11.5 13.5q3 3 7.5 3.5t8.5 3.5q26 14 54 29t58 19q31 3 62.5 6.5t67.5 3.5q15 -10 34 -10q34 -17 60.5 -42.5t53.5 -51.5q3 -44 -20 -70q-7 -9 -21.5 -15.5 t-29.5 0.5q-5 2 -16.5 12.5t-16.5 16.5q-9 14 -13.5 31.5t-16.5 27.5q-10 9 -19 11.5t-17 10.5q-10 3 -21.5 4.5t-21.5 2.5q-2 0 -4.5 2.5t-9.5 2.5q-15 0 -25 1t-22 -7q-15 3 -20.5 -4t-17.5 -10q-24 -22 -47 -43.5t-42 -50.5v-12q-12 -3 -12.5 -14t-9.5 -15 q-12 -38 -27 -67.5t-27 -63.5q-14 -10 -17.5 -25.5t-8.5 -29.5q-2 -3 -5.5 -7.5t-4.5 -7.5q-3 -7 -3.5 -16.5t-1.5 -17.5q-5 -19 -13 -39.5t-10 -39.5q5 0 6 -1t5 -1q5 2 5 9q14 5 25.5 10t20.5 16q3 2 4 0t6 0q19 14 45.5 18.5t45.5 15.5q10 -3 12 0q24 -2 43.5 -2t43.5 -3 q5 -2 5.5 -4.5t9.5 -6.5q2 0 3.5 1t4.5 -1q3 0 9 -5q7 -3 13 -3t13 -4q12 -14 26.5 -22t29.5 -17q10 -15 22 -28t24 -27q9 -31 24 -63t20 -66q5 -41 -0.5 -78t-14.5 -76q-9 -10 -9.5 -21t-4.5 -23q-9 -20 -25 -35.5t-24 -34.5q-19 -9 -28.5 -27.5t-29.5 -27.5 q-14 -19 -35 -30t-45 -26q-38 -24 -79 -36t-102 -5q-19 3 -32 8.5t-30 1.5q-3 3 -10.5 6.5t-11.5 0.5q-7 5 -13 9.5t-16 4.5q-2 2 -2 12q-3 -3 -6.5 -1t-6.5 1q-12 10 -21.5 23.5t-21.5 23.5q-3 3 -8.5 5t-8.5 6q0 9 -7 20q-9 14 -18 31t-13 36q-3 14 -2 31.5t-8 31.5 q7 19 -5 34q2 9 3.5 21.5t-6.5 19.5zM161 304q-1 -36 3 -63q2 -10 6 -19.5t7 -18.5q9 -29 20 -50.5t20 -44.5q26 -20 60.5 -33.5t84.5 -7.5q14 3 28 6.5t26 8.5q19 7 39.5 22t34.5 34q5 5 7.5 12t7.5 16q12 15 19.5 26t16.5 28q19 38 19 91v43.5t-1 49t-4.5 47.5t-10.5 39 q3 7 1 13t-1 14q-10 12 -14 25.5t-13 24.5q-5 5 -18.5 13.5t-18.5 11.5q-17 7 -52 8t-59 1q-14 -3 -23.5 -7.5t-26.5 -2.5q-9 -9 -17 -11.5t-17 -6.5q-12 -3 -19.5 -8t-16.5 -12q-17 -10 -30.5 -19.5t-29.5 -19.5q-12 -31 -17 -66t-8 -74q-2 -34 -3 -70z" />
<glyph unicode="7" horiz-adv-x="703" d="M43 -49q9 14 18 24.5t16 29.5q-2 0 8 4v11q9 5 13 12t7.5 15t8 15.5t12.5 10.5q0 24 12 24q12 34 30 61.5t37 54.5q9 24 18 47t28 40q0 3 2.5 6t0.5 8q10 5 16 13t11.5 17t10.5 18.5t13 14.5q3 14 11 26t17 22q0 3 1 5t-1 5q15 17 28.5 37t32.5 35v12q9 9 15.5 20 t10.5 22q14 22 26.5 43.5t21.5 45.5q14 14 20.5 31t14.5 36q15 3 19.5 21t20.5 23q5 27 16 41t16 41q10 5 16 20.5t20 22.5q0 14 7.5 23t4.5 23q-2 9 -11.5 12t-22 3t-25.5 -1.5t-21 -5.5q-12 -2 -27.5 -1t-29.5 -2q-2 0 -2.5 -1t-2.5 -1q-2 -2 -3 -1q-5 -2 -9.5 0.5 t-9.5 2.5q-12 0 -24 -2.5t-20 -2.5q-24 0 -33 2q-14 -5 -28 -7t-29.5 -3t-31 -3.5t-28.5 -9.5q-10 2 -19.5 -2t-20.5 -8q-14 -9 -33.5 -20t-27.5 -23q-12 -14 -24 -34t-26 -34q-9 -7 -16.5 -4.5t-15.5 6.5q0 5 1 9.5t1 7.5q19 14 26.5 35t14.5 45q12 19 17 40.5t18 39.5 q3 24 7.5 38t13.5 32q3 3 3 1t4 -2q-3 14 2 26.5t13 20.5q3 10 1.5 19t2.5 17q0 3 1.5 7t3.5 7q2 7 4 18t5 22t8 18.5t15 6.5q10 -3 8.5 -15.5t-5.5 -25.5q0 -24 7 -43.5t21 -31.5q27 -12 41 -26q29 -5 69 -5t66 5q3 2 4 0t2 -3q26 5 50 2.5t43 5.5q19 -5 46 -5h56h87 q9 2 20 1t16 -11q-2 -20 -9.5 -35t-11.5 -33q-10 -10 -20 -21.5t-14 -30.5q-15 -10 -17 -29q-15 -14 -23.5 -33t-13.5 -38q-14 -12 -21 -28.5t-20 -29.5q0 -3 -1 -6t-1 -6q-3 -3 -7 -4q-2 -14 -8.5 -19.5t-8.5 -17.5q-24 -32 -40 -70.5t-38 -69.5q-3 -14 -10.5 -25 t-13.5 -23q2 -3 -1 -5t1 -3q-15 -22 -30 -47t-23 -49q-10 0 -13 -8.5t-11 -12.5q-3 -15 -10 -29.5t-16 -28.5q0 -14 -7.5 -18t-7.5 -17q-3 -3 -6.5 -5t-7.5 -6q3 -14 -5 -20.5t-12 -14.5q-2 -3 -1 -6t-1 -6t-6 -5t-5 -6q0 -9 0 -8q-2 -3 -4 -4t-2 -5q-2 -3 -1 -7.5t0 -7.5 q-3 -14 -14.5 -24t-8.5 -24q-19 -24 -29 -50.5t-29 -50.5q-2 -15 -13 -23q-5 -19 -13.5 -31t-17 -23t-16.5 -24t-11 -30q-9 -9 -16.5 -18t-12.5 -23q-10 0 -14.5 -6t-7.5 -9q-12 0 -25 -7t-25 -2q-9 3 -9.5 9.5t-9.5 6.5q-3 22 -8 34t-5 36zM186 1024q2 -3 2 1t-2 -1z" />
<glyph unicode="8" horiz-adv-x="812" d="M43 276q-4 41 10 89q14 5 14 21.5t5 29.5q3 2 5.5 1t6.5 1v14q14 10 22 23.5t17 29.5q7 -2 7.5 3t6.5 2q20 17 38 34t38 36q3 0 3.5 1.5t3.5 -1.5q3 12 17 13.5t16 17.5q7 -2 9.5 2t10.5 3q10 14 29 18t31 17q-9 20 -27.5 30t-34.5 27q-5 5 -10 11t-12 14q-7 7 -10 24 q-7 9 -10.5 21t-11.5 20q-3 26 -12 45q2 12 -1 24.5t-3 28.5q3 0 3.5 0.5t3.5 0.5q0 3 -3.5 5t-1.5 7h2q3 0 3 4q5 19 11 32.5t6 33.5q3 3 5 4t4 5q0 7 1.5 13.5t10.5 8.5q0 9 3 22q9 5 5 -3q3 3 6 7.5t10 0.5q2 3 -1 5t-3 5q9 9 18.5 16.5t15.5 19.5l26 13t15 23q3 2 7 -2 q3 5 7.5 6l13.5 3q10 7 25.5 9.5t23.5 10.5q5 2 5 -0.5t4 -2.5q5 1 5 10q3 0 4 -3.5t4 -3.5q2 -2 11 4q36 0 78.5 -1t76.5 -8q36 -7 60.5 -27.5t53.5 -33.5q3 -5 6 -10.5t10 -6.5q0 -3 0.5 -5t0.5 -4q2 -2 3.5 -1t3.5 0q19 -38 25 -83t-11 -90v-12q-3 -9 -9.5 -13t-4.5 -18 q-7 -7 -12 -14.5t-7 -17.5q-24 -27 -53.5 -46.5t-62.5 -38.5q-3 0 -3 -7q-19 -14 -44.5 -25t-44.5 -28q0 -9 4.5 -13t9.5 -6.5t9 -6t6 -10.5q20 -5 34 -16t29 -21v-6h9q27 -27 48.5 -58.5t34.5 -70.5q-2 -15 5 -31.5t7 -35.5q-2 -14 -6 -27.5t3 -26.5q-7 -9 -8.5 -21 t-1.5 -24q-2 -3 -3.5 -5.5t-5.5 -6.5q2 -7 -4 -23t-13 -24q-5 -9 -12 -14t-10 -10q-3 -3 -2.5 -5t-2.5 -4q-3 -5 -9.5 -8.5t-9.5 -8.5q-2 -2 -2 -5.5t-1 -4.5q-3 -3 -7 -4t-7 -5q-3 -5 -7 -15q-9 -7 -18 -12t-13 -15q-22 -9 -38 -21t-40 -19q-3 -2 -9 -10q-22 -7 -38 -12 t-42 -7q-3 0 -4 -1.5t-4 -5.5q-3 3 -8.5 0t-12.5 -5q-9 -2 -20 0t-19 -5q-3 7 -10 3.5t-11 5.5q-9 -7 -19 -7t-19 1.5t-18.5 2.5t-16.5 -4q-7 9 -11 8t-9 6q-10 0 -14 -2q-41 31 -79 51q-5 3 -6 -2q-10 12 -19 24t-21 21q0 9 -0.5 12t-2.5 8q-12 5 -16.5 23t-16.5 28 q-2 46 -6 87zM157.5 243.5q-3.5 -19.5 9.5 -33.5q2 -7 3 -14t2 -13q3 -3 6 -4.5t5 -4.5q2 -12 9.5 -19t16 -12.5l17 -11t13.5 -15.5q17 -10 30.5 -17t32.5 -15q9 2 19 -4.5t19 -9.5q44 -3 78 9.5t60 34.5q7 5 14.5 16.5t16.5 21.5q14 19 23 34t18 34q14 29 15.5 63t7.5 70 q-7 20 -11 41.5t-9 45.5q-14 15 -25 35t-35 28q0 3 2 3.5t-2 3.5q-10 -3 -14 5.5t-13 15.5q-3 3 -8.5 3t-8.5 2q-5 3 -7.5 9t-8.5 6q-12 2 -17 10.5t-12 13.5t-16 7.5t-13 11.5q-49 -2 -66 -39q-14 -2 -18 -11.5t-16 -12.5q0 -12 -8 -15.5t-8 -13.5h-6q-19 -27 -38.5 -52 t-33.5 -56q3 -7 -0.5 -12t-1.5 -13q-15 -17 -18.5 -41t-1.5 -46q2 -19 -1.5 -38.5zM332 834.5q1 -27.5 4 -52.5q7 -3 8.5 -9.5t3.5 -14.5q10 -3 17 -13.5t17 -19.5q3 -3 8.5 -4t8.5 -4q5 -3 8.5 -7.5t7.5 -8.5q9 -9 23 -14.5t21 -7.5q3 -2 12.5 -1t6.5 1q2 0 3.5 4.5 t4.5 4.5q10 3 18 9t20 11q3 3 4 6t4 6q2 2 11 2q0 9 6 9.5t9 2.5q3 3 3 8q2 2 4.5 2t6.5 4q9 9 16.5 20.5t15.5 23.5l6.5 6.5t5.5 7.5q9 14 9.5 30t2.5 34q2 26 1 48t-8 41q-3 14 -17.5 32.5t-23.5 27.5q-7 5 -24 16t-25 13q-46 9 -80.5 -6.5t-52.5 -41.5q-3 2 -3.5 1 t-5.5 -1q-3 -7 -8.5 -12t-8.5 -15q-3 2 -5 1t-3 -1q-5 -14 -11.5 -23.5t-6.5 -22.5q-9 -7 -8.5 -15.5t-1.5 -20.5q-5 -29 -4 -56.5zM705 1014q0 -3 2.5 -3t4.5 -2q0 3 -2.5 3t-4.5 2z" />
<glyph unicode="9" horiz-adv-x="897" d="M44.5 -46q-5.5 14 3.5 27q3 7 16 8.5t26 0.5q20 -3 45 -21t37 -32q5 -9 7 -15.5t7 -10.5q3 -3 8.5 -2t8.5 -3q9 -3 12 -7.5t9 -7.5q5 -3 12.5 -2.5t16.5 -1.5q9 -3 16 -7.5t18 -5.5q39 -5 74 6.5t59 37.5q3 0 4 1.5t4 0.5q15 24 36.5 42.5t35.5 44.5q9 0 14 5 q14 34 39 55q3 3 1.5 5.5t-1.5 9.5q7 2 8.5 6t6.5 8q-3 12 4 15t5 17q10 5 12 15.5t5 23.5q3 7 8.5 14t8.5 15q3 3 2.5 7.5t0.5 8.5q3 3 7 6.5t7 6.5q14 34 17.5 72.5t16.5 76.5q0 3 -1 6.5t-6 3.5q7 9 9 21.5t2 26.5q-9 7 -16 5t-13 -8.5t-13.5 -12.5t-15.5 -6 q-3 -7 -8.5 -9t-8.5 -7q-15 -7 -29 -13.5t-33 -8.5q-3 0 -3 -2.5t-2 -4.5q-3 3 -7.5 0t-7.5 0q-20 -12 -53.5 -14.5t-54.5 -12.5q-27 3 -46.5 7.5t-43.5 6.5q-26 17 -55 25q-14 17 -30 32.5t-31.5 31.5t-29 35t-20.5 43q-2 3 -5 3t-7 4q3 15 -4.5 22.5t-3.5 19.5 q-2 9 -6.5 11.5t-7.5 9.5q3 9 1.5 16.5t-4.5 14.5q0 9 6 11q-7 17 -1.5 46.5t5.5 58.5q0 19 -1 35t2 40q2 9 6.5 18t7.5 18q7 24 13 38t20 33q14 17 22 31t27 26q3 3 10 3q14 19 33.5 32.5t41 25.5t43 23t39.5 25q9 -3 15.5 2.5t15.5 5.5q3 0 5 4.5t5 6.5q24 2 59 6.5 t59 3.5q14 0 25 -2.5t19 3.5q12 -5 25 -11.5t30 0.5q9 -15 22.5 -19t25.5 -12q12 -9 19 -21q19 -5 29 -17.5t22 -26.5q2 -14 12 -20t15 -18q3 -3 3 -9t4 -11q3 -7 6.5 -10.5t5.5 -8.5q2 -3 1 -9t1 -10q9 -22 19 -44t13 -48q2 -14 2 -27.5t3 -26.5q5 -19 8.5 -52.5t0.5 -62.5 q-2 -14 -3 -25t-1 -24q-3 -19 -8 -37t-11 -37q-3 -12 -3 -23t-3 -21q-2 -3 -5.5 -8.5t-5.5 -10.5q-5 -17 -3 -32.5t-12 -23.5v-10q-2 -5 -5.5 -8.5t-4.5 -7.5q0 -24 -13 -44.5t-11 -43.5q-31 -58 -50 -125q-9 -5 -10.5 -13.5t-4.5 -17.5q-3 -2 -6 -3.5t-6 -3.5 q-9 -34 -28.5 -58t-27.5 -56q-19 -24 -39.5 -42.5t-32.5 -47.5q-3 -2 -10 -2q-36 -55 -104.5 -90t-153.5 -38q-24 0 -46 3.5t-43 6.5q-17 3 -35 10t-31 16q-12 5 -23 16t-16 21q-15 3 -25 21.5t-18 36.5q-3 12 -8.5 26zM248.5 600q-2.5 -37 12.5 -50q0 -19 12 -32t15 -32 q5 -3 10.5 -8t6.5 -14q26 -12 47.5 -25.5t57.5 -11.5q19 2 37.5 1.5t35.5 1.5q72 9 119.5 45.5t80.5 80.5q7 19 6.5 38.5t3.5 36.5q0 2 2.5 3t4.5 3q0 3 -2.5 6.5t0.5 6.5q2 3 3.5 6.5t3.5 9.5q2 9 -1 19t-1 18q0 15 2.5 29t2.5 27q-2 10 -4.5 21.5t-2.5 23.5q0 3 2 7.5 t2 9.5q-2 27 -12 52t-10 54q-14 24 -33 47.5t-51 30.5q-10 2 -23 0.5t-23 3.5q-2 0 -2 -2q-14 -2 -26.5 -1t-26.5 -2q-29 -9 -48.5 -20t-45.5 -25q-15 -9 -32 -19t-29 -20q-3 -3 -7.5 -11t-9.5 -13q-38 -39 -54 -93.5t-19 -131.5q-2 -34 -4.5 -71zM756 505q3 -5 3 1t-3 -1z " />
<glyph unicode="?" horiz-adv-x="689" d="M45 1031q-4 36 4 70q7 19 14 37.5t19 32.5q3 34 19.5 54.5t40.5 37.5q14 24 42 34t53 26q24 2 47 1t49 2q39 3 72.5 -7t70.5 -19q39 -12 77 -28t67 -45q3 -7 9 -15.5t11 -15.5q3 -5 8.5 -7.5t8.5 -7.5q12 -19 13.5 -42t15.5 -43q-3 -7 -1.5 -12t-1.5 -11q9 -15 5 -37 t-14 -32v-23q-15 -12 -15 -29.5t-9 -33.5q-9 -15 -23 -25.5t-16 -28.5q-7 -5 -12 -9.5t-8 -7.5q-3 -7 -5 -9.5t-2 -9.5q-34 -26 -67.5 -53t-79.5 -39q-14 -22 -36 -35t-41 -23q-12 -15 -28 -26.5t-33 -21.5t-33.5 -21.5t-28.5 -26.5q-14 -19 -17 -42t-3 -50q12 -19 29 -26 t30 -22q10 7 20.5 2t22.5 -5q5 0 19 6t24 9q3 3 4 6t4 4h9q5 7 10 16t10 12q12 2 15.5 -5t15.5 -9q2 -24 -6 -39.5t-20.5 -27.5t-28 -22t-27.5 -22q-32 -7 -71.5 -6t-73.5 14q-15 15 -31.5 31t-28.5 33.5t-18.5 39t-1.5 50.5q2 15 2 36.5t6 36.5q3 10 13 24t18 24 q14 17 28.5 31t22.5 29q10 0 18 4.5t15 10t13.5 10t16.5 4.5q3 2 1.5 7t2.5 8q27 9 45 26t42 22q5 2 6.5 7t7.5 8q39 7 64.5 30t54.5 54q14 19 20.5 31t17.5 31q7 14 11 21.5t7 25.5q2 14 3 30t-3 28q-2 3 -4 7.5t-2 8.5q-2 14 -3 24t-8 22q-24 17 -40 36.5t-40 29.5 q-39 14 -86 15.5t-79 -10.5q-17 -5 -32.5 -18.5t-29.5 -30.5t-23 -36.5t-14 -35.5q-9 -34 -8 -69t-8 -60q2 -9 0 -16.5t2 -12.5q-3 -7 -10 -9t-2 -12q-7 3 -15.5 0.5t-17 -5.5t-18.5 -6t-21 1q-9 14 -21.5 27.5t-12.5 30.5q-7 5 -14 8q0 38 -4 74zM108 41q-15 55 1.5 105 t59.5 66q2 2 2 3q19 0 30 -1t23 -1q10 -7 18.5 -8.5t16.5 -4.5q19 -22 23.5 -55.5t2.5 -76.5q-9 -14 -22.5 -29t-30.5 -24.5t-38.5 -12t-43.5 9.5q-5 2 -5 -1.5t-5 -1.5q-10 9 -14.5 19t-17.5 13z" />
<glyph unicode="A" horiz-adv-x="1179" d="M43 24q3 7 7.5 12t4.5 13q19 3 37.5 9.5t26.5 20.5h19q26 12 41.5 28t32.5 45q7 7 12.5 11t9.5 13q7 7 8.5 14.5t6.5 14.5q3 3 7.5 5.5t6.5 6.5q19 31 30 61.5t35 54.5q2 7 4.5 9.5t0.5 9.5q3 9 12 10q24 51 47.5 103t56.5 98q2 29 11 52t20.5 44.5t21.5 43.5t15 50 q2 9 8.5 13t3.5 19q3 5 10 7.5t11 9.5q-5 17 -1 30t11 24t13 23t6 31q9 17 19 34t13 41q19 20 31 46.5t22 55.5q7 3 10.5 10t9.5 12q0 41 17.5 70t30.5 67q19 2 32 11t31 1q3 -15 10 -26.5t14 -24.5q-2 -15 1 -29t5.5 -27t2.5 -25.5t-5 -22.5q12 -32 16 -71t6 -76 q19 -51 21.5 -112t12.5 -125q5 -38 14.5 -74t12.5 -70q2 -15 -0.5 -29.5t10.5 -23.5q0 -44 9.5 -99.5t18.5 -103.5q5 -36 6.5 -70t17.5 -65q-2 -36 11 -59.5t36 -40t53.5 -25t64.5 -10.5q2 -9 3 -21.5t-3 -18.5q-87 -3 -181 -4.5t-191 -1.5q-29 0 -53 -1.5t-37 8.5 q5 31 29 38.5t53.5 9.5t58 6t40.5 30q4 18 4 33q0 17 -6 33q-10 28 -12 60q-3 14 1 25t2 23q-2 15 -10 33t-14 39q-9 29 -9.5 58t-12.5 49q-38 6 -72 6q-33 0 -61 -5q-60 -11 -118 -23q-10 7 -22.5 6t-25.5 -3.5t-26.5 -4t-25.5 4.5q-27 -48 -47 -100t-51 -91q-2 -9 -1 -11 t1 -13q-17 -7 -16 -22t-6 -36q-7 -15 -19.5 -29.5t-10.5 -28.5q2 -19 20.5 -22t41.5 -3t44.5 -2.5t29.5 -18.5q-2 -12 -7 -20.5t-12 -16.5q-49 -3 -90 -6t-81 -4q-40 -2 -84 -2h-29q-31 0 -66 1q-7 3 -9.5 10t-8.5 11zM485 519q14 -3 19.5 -2.5t14.5 7.5q10 -14 32 -8.5 t36 8.5q15 -3 31.5 -6.5t30.5 -2.5q3 0 4.5 4.5t8.5 4.5q0 -2 2 -2h7q31 2 58 3t58 14q8 20 8 45q0 22 -6 44q-12 50 -18 106q-5 82 -8.5 155.5t-6.5 144.5q-9 2 -11 9.5t-16 4.5q-5 -7 -15.5 -16.5t-15.5 -17.5q-3 -5 -2.5 -13t-2.5 -16q-12 -19 -24 -33.5t-17 -28.5 q-3 -7 -3 -14.5t-4 -12.5q-3 -10 -10 -16t-12 -15q-3 -7 -3 -15.5t-6 -16.5q-10 -24 -22.5 -39.5t-11.5 -44.5q-19 -22 -30.5 -51t-21 -60.5t-19 -62.5t-24.5 -56zM858 63q-7 -9 2 -12q0 10 -2 12z" />
<glyph unicode="B" horiz-adv-x="1020" d="M43 24q5 14 7.5 14.5t0.5 16.5q10 14 34 11t45 4q24 10 35 28t36 28q5 22 14.5 42t18 39.5t15.5 39t7 41.5q3 7 7.5 9.5t7.5 6.5q-7 19 3.5 36t13.5 35q10 31 11 61t24 54q-3 24 4.5 47t16 44t12.5 43.5t-3 44.5q2 5 5.5 7t6.5 5q-3 17 -2 28t-3 33q9 5 10.5 14t8.5 14 q-7 14 -1 36t9 35q3 15 5 36.5t6 42.5q5 41 18.5 82t16.5 92q2 19 5.5 34t4.5 29t-3.5 26t-16.5 24q-24 2 -47.5 6t-49.5 4q-3 9 -5 23t2 23q43 15 87 15h20q54 -4 106 -8h78.5t84.5 -4.5t81 -15.5t70 -33q22 0 27 -8.5t14 -22.5q7 -7 13.5 -10.5t10.5 -8.5q19 -20 29 -41.5 t15 -46t8.5 -53t7.5 -62.5q3 -20 3 -39q0 -33 -8 -67q-12 -52 -36 -92q-9 -14 -25 -25t-25 -24q-2 -5 -2.5 -15.5t-7.5 -18.5q-3 -9 -11 -12.5t-8 -8.5q-2 -12 6 -21.5t8 -19.5q24 -17 35 -43.5t30 -48.5q2 -27 9.5 -41.5t12.5 -33.5q-2 -19 -1.5 -35t9.5 -26 q-12 -26 -12.5 -50t-9.5 -48t-26.5 -42.5t-24.5 -42.5q-7 -14 -17 -26t-12 -27q-24 -14 -37 -33.5t-31 -34.5q-43 -17 -80.5 -40t-82.5 -37q-7 2 -8.5 4.5t-9.5 -1.5q-14 -9 -34.5 -10.5t-30.5 7.5q-14 -5 -26.5 -3.5t-26.5 3.5q-24 3 -51.5 2.5t-55.5 -2.5t-53.5 -2.5 t-42.5 2.5q-3 2 -6 2t-4 6q-3 -2 -4.5 -6t-6.5 -2q-23 -2 -45 -2q-27 0 -52 3q-28 4 -57 4q-20 0 -40 -2q-9 0 -19 -1.5t-15 10.5zM326 305q2 -3 2 -2v3.5v3t-2 -4.5zM343.5 135q-2.5 -10 1.5 -16q2 -3 12 -6.5t22 -6t23 -4t16 -2.5q27 -2 61.5 -1.5t56.5 1.5q27 3 50 13 t42 18q19 9 38.5 16t31.5 15q3 3 7.5 10t11.5 12q5 5 13.5 8.5t13.5 8.5q19 14 33.5 39t26.5 47q12 17 24 35t17 35q10 24 11.5 53.5t-3.5 59.5t-16 55.5t-26 41.5q-14 14 -35.5 24.5t-41.5 17.5q-14 2 -28.5 1t-29.5 1q-19 3 -35 10t-32 10q-23 2 -46 2q-12 -1 -23 -1 q-35 -2 -72 -1q-7 -41 -16.5 -78.5t-21.5 -76.5q-9 -27 -8 -57t-7 -61q-2 -5 -7 -11.5t-9 -17.5q-2 -9 -1 -18t-2 -19q-5 -15 -13.5 -37.5t-15.5 -47.5q-3 -10 -7.5 -24t-9 -26t-7 -22zM492 758q5 -10 15 -16t21 -10.5t23 -8.5t21 -11q39 -4 75 -10q13 -2 25 -2q23 0 45 8 q9 3 19 10t18 12q32 14 52 22.5t35 35.5q10 19 15.5 36t8.5 41l6 14t5 15q3 19 5.5 44.5t2.5 51t-2.5 49.5t-7.5 41q-10 36 -41 59t-72.5 36t-89.5 15q-13 1 -25 1q-35 0 -67 -5q-14 -19 -21 -38.5t-9.5 -41t-3.5 -44.5t-4 -47q-9 -65 -27.5 -128.5t-21.5 -128.5zM876 800 q3 0 4 -1.5t4 -1.5q-2 3 -2 6.5t-6 0.5v-4z" />
<glyph unicode="C" horiz-adv-x="954" d="M48 350q-5 40 -5 81t5 83q3 36 12.5 72.5t18.5 75.5t13 76t17 66q2 9 8 14t11 11q2 9 1 17.5t2 17.5t11 15.5t10 14.5q5 9 5 19t3 19q2 0 6.5 1t5.5 4q2 3 0.5 8.5t-0.5 10.5q5 14 19 22t10 24q24 19 44 35t25 50q22 -3 34.5 16.5t28.5 34.5q9 9 19 13t13 18 q15 0 21.5 10.5t19.5 11.5q5 3 7.5 8.5t8.5 8.5q12 2 22 7t19.5 11t19.5 10.5t22 4.5q3 7 9.5 9.5t9.5 10.5q29 0 53.5 5t48.5 4q15 0 28 -10q10 2 19.5 1t21.5 -3q9 -3 10.5 -9.5t4.5 -9.5q34 -7 54.5 -35t46.5 -45q21 -40 41 -72q10 10 15 26.5t10 34.5t11 34t17 26 q19 3 24 -7.5t18 -16.5q-5 -49 -12.5 -98.5t-14.5 -100.5q-3 -19 -10 -38t-11 -37q-2 -19 -2 -37q-1 -15 1 -31q0 -3 1 -7q0 -30 -22 -52q-12 2 -23 2t-23 2q-1 17 -1 34q0 35 4 69q2 16 3 32q0 31 -9 58q-9 31 -26 54.5t-25 47.5q-9 9 -15 18t-16 18q-9 9 -19 10.5t-19 4.5 q-3 3 -2 6.5t-1 7.5q-12 9 -35 15.5t-44 9.5q-34 3 -61 -12t-63 -20q-34 -29 -66 -58t-71 -53q-7 -19 -19.5 -38.5t-27 -41t-29 -42.5t-23.5 -43q-10 -32 -22 -82t-19 -87q-3 -20 -5 -41t-5 -40q-5 -47 -5 -96v-28q2 -62 2 -120q-2 -29 -2 -55v-25q2 -36 20 -70 q10 -24 32.5 -48.5t51.5 -36.5q14 -5 30 -8.5t31 -8.5q19 -10 45.5 -19t57.5 0q9 -3 7 3.5t3 6.5q14 3 21 -5q31 24 63 37.5t68 32.5q19 20 35 41.5t40 37.5q15 29 31.5 57t31.5 57q9 34 12.5 70.5t16.5 65.5q10 3 19 -2.5t22 -2.5q-7 -82 -14.5 -184t-16.5 -195 q-2 -12 -3.5 -27t-6.5 -29t-13.5 -21.5t-23.5 -2.5q-10 3 -14.5 15.5t-6 27.5t-3.5 30.5t-5 27.5q-26 7 -42 -11t-35 -30q-9 -5 -21 -8.5t-20 -10.5q-24 -14 -49.5 -24t-54.5 -24q-34 3 -54.5 -8.5t-48.5 -13.5q-10 0 -22.5 3.5t-28.5 6.5q-10 3 -23.5 3.5t-27.5 3.5 q-55 9 -101.5 39.5t-74.5 63.5q-9 9 -19.5 15.5t-17.5 14.5q-9 9 -11.5 27t-10.5 33q-3 7 -9.5 12t-8.5 10q-3 14 -2 28.5t-1 28.5q0 12 -4.5 24.5t-5.5 26.5z" />
<glyph unicode="D" horiz-adv-x="1146" d="M43 32q10 7 17.5 15.5t19.5 12.5q3 3 9.5 2t9.5 3q7 3 10.5 9t9.5 10q9 5 17.5 5.5t13.5 2.5q9 3 12.5 8.5t11.5 7.5q9 9 17.5 23t14.5 30t6 32.5t-7 31.5q15 9 18.5 31t6.5 41q7 34 11.5 72.5t7.5 63.5q12 19 19 36t10 46q2 17 9 34.5t13 35.5q3 22 1.5 51.5t2.5 51.5 q2 9 6 13t6 12q10 39 16 83t14 83q2 12 6.5 22t7.5 22q3 15 1.5 31.5t0.5 30.5q3 15 10 30.5t9 30.5q0 9 -3 12.5t-1 9.5q2 9 7 16t5 15q2 22 1 51t-18 45q-19 19 -51.5 24.5t-64.5 5.5q-3 3 -3 10v16q3 0 3 1t3 1q35 -1 69 -1q60 0 118 2q25 1 50 1q64 0 127 -6 q15 -3 29 -6.5t29 -5.5t31.5 0t29.5 0q34 -5 77 -15t75 -21q7 -2 15.5 -4t12.5 -4q3 -2 2 -5.5t3 -6.5q3 -2 10.5 -2.5t9.5 -2.5q7 -3 9.5 -8.5t11.5 -3.5q12 -19 28 -34.5t35 -28.5q-2 -20 7.5 -32.5t21.5 -20.5q10 -48 27 -102q13 -42 14 -91q0 -14 -1.5 -29t-1.5 -30 q0 -30 4 -61q2 -19 2 -37q0 -27 -5 -51q-3 -12 -8.5 -21.5t-8.5 -19.5q-9 -34 -11.5 -65.5t-20.5 -50.5q-10 -97 -53 -166.5t-103 -120.5q2 -14 -5.5 -17t-6.5 -14q-7 -2 -7.5 1t-7.5 -1q-3 -19 -17 -24t-21 -22q-27 -17 -57.5 -35.5t-64.5 -32.5q-19 -9 -39.5 -12 t-37.5 -12q-15 -5 -29 -12.5t-31 -11.5q-19 -2 -42 -2h-24q-36 2 -76 2h-94.5t-89.5 10q-17 -5 -41 -6.5t-49.5 -1.5h-49.5t-41 -5q-5 7 -12.5 11t-7.5 14zM324 126q9 -15 27 -21t42 -9q19 -3 35.5 -2.5t35.5 -1.5q7 0 14.5 -4t14.5 -4q29 -2 60.5 10t64.5 17q12 2 22 0 t20 5q29 29 61 55.5t60 57t50 67.5t33 85q44 121 62 261q12 91 12 185q0 50 -4 101q-9 14 -13.5 34.5t-5.5 34.5q-9 9 -14 16.5t-3 20.5q-29 32 -58 59.5t-55 56.5q-32 3 -54.5 16t-49.5 13q-3 2 -6.5 7t-8.5 7q-26 0 -48 2.5t-51 -4.5q-27 -24 -33.5 -70t-16.5 -88l-10 -24 l-10 -24q-14 -60 -15.5 -113t-18.5 -97q0 -7 -8 -7t-4 -9q0 -10 3 -23q-12 -19 -15.5 -30t1.5 -35q-9 -9 -8.5 -19t-3.5 -21q0 -5 -5 -6.5t-7 -4.5q0 -7 1 -13t-1 -10q0 -3 -2.5 -4.5t-5.5 -7.5q-5 -26 -7 -52t-8 -55q-9 -60 -26 -116.5t-26 -107.5q2 -9 3.5 -15.5 t3.5 -13.5q-10 -5 -13.5 -17t-3.5 -26.5t-1 -29.5t-6 -26zM968 421.5q-1 1.5 1 -1.5q0 -5 3 -3.5t3.5 4t0.5 4.5t-5 -3q-2 -2 -3 -0.5z" />
<glyph unicode="E" horiz-adv-x="955" d="M43 26q2 19 2.5 27t3.5 24q12 1 24 1q21 0 43 -3q12 -2 24 -2q21 0 41 6q31 7 42 32.5t13.5 58.5t4 68t13.5 61q0 51 7 93.5t15.5 84.5t16 83.5t9.5 91.5q10 20 8.5 40.5t1.5 39.5q2 9 7 16.5t7 16.5q3 14 0 30t0 29q3 15 12.5 27.5t11.5 29.5q5 24 3.5 47t1.5 48 q5 15 13.5 36.5t8.5 42.5q0 7 -5 16t-5 18q0 10 4 19.5t1 17.5q-3 19 -14.5 32t-16.5 26q-14 5 -30.5 10.5t-30.5 13t-20.5 20.5t-1.5 33q71 9 141 9q35 0 69 -2q104 -7 206 -7q32 -1 63.5 -1t63 1t64.5 1t67 -1q20 -12 15 -30t-8 -36q-3 -24 -5 -53t-4 -57.5t-5.5 -54 t-11.5 -44.5q-20 -3 -28 5.5t-10.5 23t-1.5 32.5t1 33q0 26 -1 45.5t-6 33t-17 23t-34 13.5q-27 3 -59 1.5t-68 -1.5h-103t-67 -31q-15 -19 -17 -39.5t-5 -44.5q-2 -14 -5.5 -24t-6.5 -18q-5 -44 -8 -88.5t-9 -89.5q-3 -29 -12 -56t-6 -55q12 -17 37 -21t55 -4t61.5 2.5 t56.5 -1.5q2 12 7 20.5t7 17.5q0 3 -3.5 6.5t0.5 7.5q3 5 9 8t9 10q10 20 0 50q7 15 27.5 24.5t39.5 -4.5q-14 -46 -16 -97t-13 -96q-3 -12 -10 -23.5t-9 -22.5q-2 -24 0 -45t-12 -40q2 -29 -6.5 -53.5t-13.5 -50.5q-15 3 -24 7.5t-17 18.5q-2 22 -1.5 39.5t1.5 31.5 q1 6 1 12q0 24 -10 56q-9 10 -30 13t-45 3t-46 -3.5t-34 -5.5q-9 3 -14.5 6t-16.5 -1q-14 -44 -21.5 -87.5t-14.5 -89.5q-3 -24 -3 -47t-3 -45q0 -7 -4.5 -12t-6.5 -14q-3 -9 0.5 -20t-0.5 -19q-3 -9 -7.5 -15t-7.5 -14q-3 -26 2 -50.5t-7 -48.5q7 -15 20.5 -21t25.5 -17 q24 0 40 -0.5t40 -5.5q18 3 38 3q13 1 29 -1q36 -4 72 -6q13 -1 27 -1q21 0 41 2q32 4 56 28q14 15 20.5 36.5t12 45.5t12 47t18.5 38q9 -2 17.5 -4t18.5 -4q1 -8 1 -16q0 -24 -5 -50q-6 -34 -15.5 -66t-19 -64.5t-14.5 -61.5q-48 -14 -108 -18q-47 -3 -99 -3h-30 q-68 1 -139 3h-47q-46 0 -91 -2q-36 0 -69 -2.5t-63.5 -3.5t-59 2.5t-53.5 15.5z" />
<glyph unicode="F" horiz-adv-x="909" d="M44.5 32q-3.5 11 1.5 28q22 10 45 6.5t42 5.5q17 9 27.5 24t28.5 12q7 31 18 59.5t8 59.5q14 14 17.5 30t11.5 33q-5 17 -2.5 38.5t8.5 44.5l12 46t9 45q7 51 16.5 101.5t14.5 101.5q19 38 23 85t5 96.5t6 97t26 83.5q-9 32 -2 60.5t2 52.5q-3 34 -36.5 44t-71.5 17 q-5 24 0 41q31 8 76 12q11 1 21 1q32 0 59 -8q22 -3 43 1t45 4q3 0 9.5 -2.5t13.5 -2.5q14 0 26.5 2t29.5 0q35 -3 75 -3h13q47 0 95 2h47h46q46 -1 86 -6q28 -3 42 -22q-9 -34 -16.5 -82t-10.5 -87q-2 -9 -1 -19t-0.5 -18.5t-6 -15.5t-14.5 -8q-5 14 -7.5 29t-4.5 29 q0 5 2.5 7.5t2.5 0.5q-2 9 -6 16.5t-6 16.5q-3 24 -5.5 41.5t-25.5 26.5q-14 7 -38.5 5t-43.5 0q-38 2 -75 6q-20 2 -38 2q-15 0 -28 -1q-9 -3 -18.5 -6.5t-19.5 -5.5q-24 -2 -47.5 1.5t-39.5 -10.5q-7 -68 -18 -126q-8 -43 -8 -92q0 -18 1 -36q-3 -7 -5 -11t-6 -11 q7 -7 3.5 -22.5t5.5 -22.5q-5 -9 -6 -19.5t-9 -15.5q5 -7 5.5 -18t9.5 -15q0 -5 -2.5 -4t-6 1.5t-5 -1t-1.5 -8.5q3 -17 18.5 -13.5t27.5 3.5q14 0 24.5 -3.5t21.5 0.5q7 0 9.5 3t8.5 7q12 3 24 2.5t17 0.5q14 9 19 20t19 14q0 15 6 24.5t11 20.5q-5 24 4.5 36t17.5 29 q9 0 16.5 1.5t17.5 1.5q4 -19 4 -37q0 -21 -6 -41q-11 -36 -16 -72q-12 -72 -22.5 -141t-24.5 -141q-9 0 -18 -1.5t-12 1.5q1 18 1 35q0 31 -2 61q-4 46 -44 70q-49 0 -88.5 -1t-76.5 -9q0 -26 -6 -51t-13 -52q-5 -29 -8.5 -62t-11.5 -68q0 -5 -2 -6.5t-4 -5.5 q-9 -26 -8.5 -53.5t-8.5 -50.5q-2 -5 -4 -9t-6 -11q-3 -14 -3 -30t-2 -30q-3 -22 -9 -38t2 -34q10 -17 32.5 -23t48 -10t48.5 -9t35 -22q-3 -17 -13.5 -27.5t-20.5 -18.5q-32 0 -47.5 -3t-39.5 -6q-36 6 -80 8l-66 2h-23q-46 0 -93 -2h-16q-39 0 -75 4q-7 9 -10.5 20z" />
<glyph unicode="G" horiz-adv-x="1068" d="M46 416q-2 33 -2 64q0 50 4 97q3 24 5 45t7 50q2 9 5 18.5t5 21.5q3 26 7.5 49.5t16.5 45.5q2 3 7 7.5t8 8.5q5 9 6 19t4 18q9 20 25 35.5t25 31.5q9 15 14 31.5t24 19.5q3 14 10.5 25t11.5 23q15 15 28 32t25.5 33.5t28 31t35.5 22.5q10 24 28.5 32.5t33.5 30.5 q22 9 44 18.5t46 16t50.5 9t59.5 -2.5q20 -3 45 -7.5t43 -10.5q17 -7 31.5 -19t31.5 -12q20 -27 53 -43.5t52 -45.5q24 14 30.5 42t20.5 52q9 -12 15.5 -10.5t14.5 -8.5v-9q0 -28 -11 -57q-12 -33 -19 -67q-2 -14 -4.5 -37.5t-5.5 -40.5q-5 -20 -14 -56.5t-12 -60.5 q-3 -14 -4 -29t-5.5 -25t-11 -13t-20.5 9q-9 32 -3.5 61.5t1.5 63.5q-3 15 -11 33t-11 35q-9 31 -25 51.5t-33 44.5q-9 10 -14.5 22t-12.5 21q-7 7 -21.5 17t-33.5 19.5t-37.5 15.5t-34.5 6q-17 0 -48.5 -9.5t-43.5 -18.5q-27 -20 -50 -43t-52 -39q-51 -75 -94.5 -155 t-88.5 -157q-3 -49 -16.5 -86t-17.5 -85q-2 -18 -2 -37q0 -27 4 -54q7 -47 8 -90q0 -14 -2.5 -24.5t8.5 -19.5q2 -10 -2.5 -12.5t-4.5 -7.5q19 -26 24 -56.5t20 -58.5q14 -26 38.5 -52t53.5 -40q49 -19 108 -21q8 -1 17 -1q48 0 90 12q24 15 46.5 34t51.5 34q10 29 28 49.5 t33 44.5q2 17 5.5 29t9.5 27q-7 15 -6.5 31.5t0.5 32t-1 31t-8 28.5q-26 19 -55 26q-23 5 -55 5h-20q-14 29 5 48q29 1 59 1q58 0 120 -4q36 -2 71 -2q52 0 99 5q7 0 12 4t13 6q15 3 28 -2t27 -3q0 -7 4 -8t8 -8q0 -10 -2 -18.5t-2 -16.5q-10 -12 -29.5 -14.5t-40 -2.5 t-39.5 -2t-29 -12q-5 -20 -6.5 -43.5t-3.5 -46.5t-4.5 -46t-11.5 -42q-3 -9 -10.5 -17t-11.5 -18q-24 -39 -38.5 -72t-43.5 -60q-9 -9 -18 -17t-14 -12q-20 -14 -46.5 -19t-40.5 -29q-14 2 -24 -3t-20.5 -13t-21.5 -15.5t-25 -9.5q-9 -2 -12 0t-11 2q-7 0 -13 -3.5t-11 -3.5 q-12 -3 -21.5 -0.5t-21.5 2.5q-20 0 -40.5 -4.5t-41.5 -0.5q-7 0 -15.5 4t-16.5 6q-9 2 -20 0t-20 0t-16.5 8.5t-16 13.5t-17.5 10.5t-21 -0.5q-17 20 -37 36t-42 31q-14 24 -30 48.5t-33 48.5q-7 14 -15.5 25t-11.5 32q-10 61 -14 146zM441 63q1 -2 2.5 -1.5t3.5 3.5 q-5 2 -6 1t0 -3zM471 60q9 0 9 7q-9 0 -9 -7z" />
<glyph unicode="H" horiz-adv-x="1268" d="M45 38.5q-4 7.5 1 21.5q19 9 48 8t53 4q24 3 49.5 25t33.5 43q7 14 12 37.5t11 47.5q9 41 13 82t10 87q3 24 11 58t12 60q9 65 17 130.5t20 123.5q12 56 23 121t13 120q1 18 1 35q-1 29 -3 55q-4 41 -22 65q-14 2 -21.5 10.5t-15.5 15.5q-12 -2 -20.5 1.5t-22.5 0.5 q-5 14 -9.5 24t-0.5 28q27 5 61 3.5t68 -1.5q44 2 77.5 2t67.5 -10q23 3 45 3q38 0 73 -8q0 -19 -6.5 -31t-10.5 -26q-38 5 -60.5 -2.5t-38 -23t-26 -36.5t-20.5 -44q-2 -22 -2 -40.5t-1 -42.5q-7 -48 -18 -99t-15 -96q-3 -19 -2 -43.5t23 -34.5q23 7 44 7q14 0 27 -3 q33 -8 58 -9q17 -2 33.5 1.5t35.5 3.5q68 0 139 -6q34 -3 73 -2q42 0 90 3q14 10 16.5 28.5t14.5 29.5q5 49 13.5 91.5t16.5 94.5q6 31 14 73q4 20 3 40q0 23 -5 47q-2 14 -15.5 32.5t-26.5 27.5q-26 17 -58.5 24.5t-61.5 19.5q-3 15 -5 26.5t15 14.5q5 2 19 3t30 1t31.5 -2 t22.5 -2q11 -3 13 -10q27 5 61.5 5h73.5q24 0 49.5 1t48.5 0t42 -5.5t33 -12.5q3 -14 -1.5 -20.5t-13 -10t-20.5 -5.5t-22 -5t-23 -14.5t-25.5 -26t-23.5 -30.5t-17 -28q-14 -34 -20.5 -84.5t-16.5 -91.5q-19 -72 -36 -146t-34 -151q-7 -24 -8 -48.5t-6 -46.5 q-7 -24 -11 -55.5t-7 -60.5t-13 -56.5t-14 -56.5q0 -14 1.5 -25t-1.5 -25q-3 -34 -11.5 -69t2.5 -62q5 -15 19.5 -23.5t32.5 -12t36 -5.5t31 -3q5 -20 0 -36q-12 -3 -31.5 -9.5t-38.5 -2.5q-9 0 -12 2.5t-10 4.5q-40 5 -87 5q-23 0 -48 -2q-75 -4 -141 -3h-51t-30 12 q-5 14 5.5 25t11.5 19h31q45 0 83 4q50 6 74 49q9 17 11.5 42t10.5 48q2 9 7 16.5t9 12.5q7 22 8.5 54t4.5 62q3 60 12.5 114.5t13.5 104.5q-113 14 -241 17q-64 2 -131 1.5t-137 -1.5q3 -27 -6 -53t-16 -55q-2 -14 -2 -27t-5 -27q-2 -7 -4.5 -11.5t-5.5 -10.5 q-3 -20 -3 -47t-4 -52q-3 -19 -9 -37t-10 -38q0 -15 2 -33.5t-2 -35.5q0 -17 -2.5 -30.5t-0.5 -23.5q2 -20 14 -30.5t29.5 -15t38 -6t41.5 -5.5q7 -9 7 -19t-2 -23q-34 -9 -75 -9h-12q-48 2 -97 2h-118.5t-103.5 -7q-9 2 -19 4.5t-18 6t-12 11zM321 369h5v6h-5v-6z M1133 1121q9 -2 9.5 7t-7.5 9q0 -7 -2 -8t0 -8z" />
<glyph unicode="I" horiz-adv-x="641" d="M44 49q9 12 19 10.5t19 1.5q12 3 21.5 9.5t19.5 9.5q14 3 26.5 5t21.5 9q20 12 36.5 35t27.5 51t15 60.5t3 63.5q19 60 31.5 129t19.5 125q14 22 19.5 50.5t10 56.5t9.5 55.5t17 50.5q3 36 8.5 85.5t10.5 88.5q2 15 7 29t5 28q2 9 -1 13t-3 12q0 34 5.5 67.5t-13.5 54.5 q-17 5 -32.5 17.5t-34.5 21.5q-9 5 -19 7.5t-19 7t-14.5 10.5t-3.5 18q66 7 122 7q28 0 54 -2q77 -5 157 -5q3 0 7.5 2.5t7.5 2.5q7 -3 12 -7t14 -5q15 -3 29 -2.5t29 -2.5q10 -17 8 -40q-89 -24 -140 -73q-27 -49 -40 -112.5t-31 -123.5q-2 -9 -6.5 -13.5t-7.5 -11.5 q-3 -14 -3 -28.5t-4 -28.5q-3 -17 -5 -31.5t-3 -37.5q-3 -19 -8.5 -37t-8.5 -35q-3 -15 -2.5 -31.5t-3.5 -35.5q-2 -17 -6 -33t-5 -33q-7 -31 -9.5 -61.5t-9.5 -59.5q-3 -19 -7.5 -33t-8.5 -41q-2 -19 -6 -37.5t-7 -35.5q-2 -9 -6 -12.5t-6 -9.5q-2 -9 2.5 -22t0.5 -23 l-7 -31.5t-1 -38.5q5 -15 19.5 -24.5t33 -16.5t39 -12t36.5 -10q3 -7 5.5 -13t1.5 -19q-108 -2 -224 -3h-23q-103 0 -196 8q-10 15 -5 30z" />
<glyph unicode="J" horiz-adv-x="725" d="M43.5 -56.5q-0.5 20.5 9.5 39.5q9 14 21.5 17t17.5 22q15 -12 24 -11t17 -6q10 -9 13.5 -19t2.5 -22t-1.5 -24t2.5 -24q3 -19 25.5 -39t54.5 -12q5 2 18 13t27.5 25.5t26.5 29t17 24.5q20 48 32.5 115.5t27.5 125.5q5 22 6 43.5t4 43.5q9 75 30 143.5t28 144.5 q0 10 -1 20.5t1 20.5q2 17 8 31.5t8 33.5q2 9 1 15.5t-1 15.5q5 26 13.5 53t11.5 56q2 22 2 44.5t12 35.5q-2 22 -2 47.5t2 53.5q3 34 11 68q4 19 4 36q0 15 -3 29q-3 12 -12.5 22.5t-18.5 22.5q-9 10 -20 19.5t-19 14.5q-9 2 -18.5 3.5t-18 5t-11.5 10t2 20.5q0 7 6 8.5 t13.5 2.5t15 1t12.5 5q26 -9 57.5 -8.5t57.5 -8.5q10 -2 11.5 4t8.5 6q5 -3 12 -5.5t12 -4.5q5 0 10.5 2.5t11.5 2.5q3 -2 8.5 -4.5t8.5 -2.5q12 -1 24 -1q25 0 49 4q13 2 24 2q23 0 40 -8q2 -9 1 -16.5t-3 -16.5q-24 2 -36.5 -7.5t-31.5 -17.5q-7 -5 -14.5 -6t-12.5 -4 q-14 -9 -24 -36.5t-16 -49.5q-3 -15 -4.5 -34.5t-7.5 -43.5q-3 -26 -12.5 -66t-14.5 -71q-3 -15 -2.5 -28.5t-9.5 -22.5q2 -24 -2.5 -39.5t-9.5 -28.5q3 -11 3 -24q0 -21 -8 -44q-12 -38 -19 -74q-5 -31 -10 -63t-8 -63q-15 -92 -30.5 -187t-33.5 -177q-2 -14 -8.5 -28 t-2.5 -28q-14 -48 -39 -97.5t-57 -90.5q-9 -10 -21.5 -17t-26.5 -17q-19 -10 -33.5 -20.5t-39.5 -13.5q-18 -3 -34 -3q-28 0 -50 8q-36 12 -68 26q-10 10 -22 25.5t-20 34t-8.5 39zM97 -56q3 -7 3 -1t-3 1zM99 -68v-5v1v4z" />
<glyph unicode="K" horiz-adv-x="1063" d="M44 48h8q52 0 88 24q40 26 48 80q3 24 5 50.5t8 51.5q7 29 15.5 52t0.5 58q19 24 19 55.5t3 73.5q3 38 7.5 80.5t12.5 86.5q3 26 10 49t11 44q3 14 3 23t2 21q10 38 12 73.5t10 69.5q2 17 6 35t-2 42q-2 9 3 9t7 3q1 16 1 31q0 22 -2 43q-3 35 -15.5 60t-38.5 36 q-16 7 -40 7q-15 0 -33 -3q-3 9 -6 12.5t-6 15.5q0 10 10 12.5t12 12.5q42 5 86 5q42 -1 85 -5q46 -4 91 -4q42 0 83 4q7 2 13.5 5.5t11.5 1.5q10 -2 17 -9.5t19 -7.5q-2 -12 1 -19t3 -15q-44 -5 -81 -24t-49 -63q-14 -53 -26.5 -114.5t-23.5 -124t-20 -124.5t-15 -115 q17 10 30.5 20.5t18.5 32.5q41 49 80.5 98.5t71.5 107.5q29 17 48 42t32 59q20 15 36.5 32t33 35t34 34.5t41.5 29.5q3 12 11 14.5t20 11.5q3 3 6 7.5t6 6.5q10 9 23 11t21 11q15 15 28 20t42 7q9 2 18.5 5.5t17.5 -0.5q3 0 18.5 -6t19.5 -9q3 -3 3 -8.5t4 -8.5 q9 -12 19.5 -19t14.5 -14q12 -24 12.5 -66.5t4.5 -76.5q-14 -10 -26 -26q-31 -2 -49.5 8.5t-30.5 27t-21.5 35t-21.5 35.5q-36 7 -62 -6t-49.5 -34t-44 -46t-42.5 -40q0 -3 -3.5 -6t0.5 -11q-63 -60 -123.5 -125.5t-105.5 -147.5q14 2 34.5 -2.5t28.5 3.5l40 -18t25 -33 q7 -3 10 -3h7q3 -19 13.5 -31t14.5 -27q3 -3 1.5 -7.5t-1.5 -8.5q3 -7 8 -13.5t9 -13.5q3 -3 0.5 -6.5t-0.5 -10.5q3 -19 10.5 -34t9.5 -39q0 -19 6 -39.5t8 -37.5q0 -29 4 -60t-4 -56q7 -5 8.5 -12t1.5 -15.5t1.5 -15.5t10.5 -12q-9 -19 -2 -33.5t10 -31.5q-3 -5 0.5 -5 t3.5 4q-2 -17 6.5 -29t20.5 -21q26 -2 53 0t48 -1q2 -14 -7.5 -24.5t-22.5 -19t-28 -14.5t-27 -7q-24 -3 -50 0t-49 0q-17 15 -32 34t-35 32q-27 41 -31.5 106t-6.5 130q-2 31 3.5 61.5t-6.5 50.5q5 29 -7 51.5t-15 51.5q-9 14 -16.5 25.5t-16.5 23.5q-27 7 -48.5 14.5 t-50.5 6.5q-19 -10 -39 -19.5t-32 -33.5q-12 -2 -19 -9t-12 -13v-23q-9 -19 -17.5 -41t-13.5 -46q-10 -84 -21 -172q-7 -53 -7 -110q0 -36 3 -74q9 -12 31.5 -9.5t38.5 -6.5q3 -9 5 -18t7 -17q-63 -7 -130 -7h-38q-88 2 -169 5q-7 9 -13.5 15.5t-3.5 25.5z" />
<glyph unicode="L" horiz-adv-x="931" d="M46 -2q-5 19 2 29.5t15 18.5q46 3 85 24q22 19 27.5 44.5t13.5 62.5q3 32 13 64t13 66q9 68 23.5 134t27.5 134q3 24 5 47t5 52q5 32 12 65.5t11 76.5q3 36 13.5 69t13.5 66q5 19 3.5 34t1.5 32q3 31 10 65q2 12 2 24q0 22 -8 44q-10 26 -46 36q-18 5 -36 5q-19 0 -40 -5 q-2 14 -9.5 24t-3.5 22q15 19 39 17.5t48 -3.5q19 0 38 -1q75 0 143 7q39 4 76 4q41 0 79 -6q2 -14 -3.5 -21t-14.5 -11.5t-19.5 -7t-15.5 -5.5q-17 -9 -34 -25t-26 -30q-12 -26 -18 -64t-16 -74q-2 -10 -7 -18.5t-8 -17.5q-14 -56 -22.5 -123.5t-22.5 -132.5 q-10 -49 -22 -93.5t-24 -94.5q-3 -14 -7.5 -28t-7.5 -28q-5 -24 -4 -48t-3 -42q-2 -14 -7.5 -26t-7.5 -27q-9 -36 -10.5 -78.5t-6.5 -82.5q-3 -22 -9.5 -44t2.5 -44q26 -13 63 -13q4 1 8 1q42 2 86 1q56 1 112 -1q8 0 16 -1q47 0 89 8q10 2 22 7.5t22 9.5q19 3 31 4t25 11 q17 12 25 34t12 46t8.5 49t16.5 45q20 7 28 -2.5t9.5 -26.5t1.5 -36t5 -31q-9 -20 -8.5 -42t1 -42.5t-1 -41t-11.5 -37.5q-205 -9 -411 -20q-161 -9 -323 -9q-45 0 -89 1z" />
<glyph unicode="M" horiz-adv-x="1408" d="M44 15q-3 34 10.5 45.5t35 15t45.5 5t39 16.5q12 19 18 48t15 56q9 22 17 43.5t17 50.5q2 10 0 21.5t1 24.5q2 5 7 9.5t9 11.5q-3 17 1 33t9 32.5t8.5 33.5t1.5 36q7 0 8.5 6.5t7.5 11.5q-2 24 4.5 50t14.5 50.5t13 47.5t2 44q14 24 15.5 58.5t9.5 58.5q-12 12 -7.5 30 t14.5 28q5 39 13.5 80.5t17.5 80.5q3 9 5.5 24t4.5 32t3.5 34t5.5 29q2 9 5 13t0 13q-5 14 -22.5 19.5t-37.5 9t-40.5 6t-31.5 11.5q0 10 4.5 16t7.5 12q36 0 68.5 -0.5t65 -2t66.5 -2.5t75 -3q12 -7 18 -21t8.5 -34t2.5 -41t3 -42q2 -5 5.5 -9t3.5 -10q9 -29 8 -58.5 t16 -46.5q-3 -29 5.5 -53t6.5 -52q14 -26 13 -53.5t7 -55.5q3 -5 8.5 -8.5t5.5 -13.5q3 -10 1.5 -21t-1.5 -23q3 -9 9 -14t8 -14q3 -10 3 -21t4 -20q7 -26 16 -53t15 -59q9 -49 13.5 -92t13.5 -93q10 9 17 22.5t12 29t9.5 31t10.5 27.5q19 31 38 61.5t34 64.5q7 2 10.5 7 t11.5 7q2 20 11.5 34.5t9.5 35.5q9 3 13.5 10.5t10.5 11.5q-5 10 -6 20q12 17 17.5 37.5t23.5 32.5q0 17 6 30t13 24t13 23t8 27q24 19 33 49t26 54q0 20 9 36.5t19 31.5t20 32.5t14 39.5q-3 5 1 6t7 1q-2 10 -1 14t1 16q26 12 32 37t16 54q3 3 5 1.5t11 -1.5q22 10 50 13.5 t59 3.5t60.5 -2.5t55.5 -5.5q12 -17 4 -29.5t-24 -21t-35.5 -16t-31.5 -14.5q-19 -9 -37 -28.5t-21 -39.5q-2 -9 -0.5 -20t0.5 -21q-5 -38 -13 -79.5t-15 -87.5q-3 -34 -3 -69.5t-3 -69.5q-3 -22 -8.5 -42.5t-5.5 -39.5q-3 -14 0 -28t0 -28q0 -5 -2.5 -11t-4.5 -15 q0 -53 -15 -110q7 -43 7 -88.5t-1 -91.5t-2 -94v-11q0 -42 6 -86q3 -3 6 -7.5t11 -0.5q2 -17 9.5 -27.5t18 -18t19 -16t13.5 -20.5q-17 2 -24 -5t-21 -12q-38 10 -83 12q-34 1 -68 1q-12 -1 -24 -1h-94t-91 5q-14 20 -6 28.5t27 11t42 3.5t40 10q24 9 33 21.5t26 15.5 q2 7 3 12t-8 5q3 5 7 7t9 5q-3 24 7 55t10 65q0 9 -1 17t-1 17q2 14 8 28t9 30q3 48 3 97q-1 8 -1 16v7q0 53 8 102q2 17 0.5 33t-3.5 31.5t-2 30t7 28.5q-7 14 -5 29t4.5 31t4 35t-3.5 39q-19 -29 -34 -61t-29.5 -65.5t-30 -66t-36.5 -61.5v-14q-17 -24 -30.5 -50 t-22.5 -60q-20 -14 -27 -37t-25 -35q2 -19 -8.5 -27.5t-10.5 -25.5q-17 -12 -27.5 -31.5t-18 -40t-17 -41t-24.5 -32.5q-3 -20 -12.5 -34t-19 -27t-17.5 -27.5t-9 -36.5q-19 -15 -28.5 -35.5t-28.5 -30.5q-19 19 -21 47t-11 64q-3 9 -7.5 16.5t-4.5 15.5q-9 19 -8.5 36 t-5.5 36q-5 14 -9 36.5t-11 46.5q-5 31 -15.5 60t-15.5 58q-7 39 -8.5 76.5t-18.5 73.5q0 7 -1 15t4 11q-9 22 -13.5 48.5t-10 53t-12 51t-17.5 45.5q5 16 5 33q1 15 -3 31q-8 35 -22 59q-9 -3 -6 -9.5t1 -14.5q-3 -15 -9.5 -29t-9.5 -31q-3 -14 -0.5 -26.5t-1.5 -26.5 q-5 -19 -13.5 -34t-11.5 -32q-3 -15 -2 -33.5t-2 -35.5q-2 -20 -9.5 -41.5t-20.5 -31.5q-3 -26 -11 -60t-22 -58q7 -9 6 -17t-3.5 -17.5t-6 -21.5t0.5 -27q-9 -9 -11.5 -25t-4 -33t-5 -34.5t-13.5 -29.5q-3 -10 3.5 -13.5t2.5 -13.5q-3 -12 -10.5 -21.5t-2.5 -27.5 q0 -5 4 -8t4 -8t-2.5 -9t1.5 -8q3 -14 13.5 -25t11.5 -23q15 -10 38.5 -13.5t45.5 -11.5q7 -9 5 -16.5t-7 -13.5t-12 -10.5t-13 -9.5h-349zM908 539q-7 -7 7 -10q-2 3 -1 7.5t-6 2.5zM1145.5 100.5q1.5 1.5 3 3.5t2.5 1.5t-4 -3.5q-3 -3 -1.5 -1.5z" />
<glyph unicode="N" horiz-adv-x="1338" d="M43.5 96.5q-0.5 21.5 7.5 40.5q14 26 46.5 29t59.5 -6q9 -10 10.5 -26t11.5 -25q20 -2 36.5 13t30.5 28q3 24 16 48t32 43q5 10 6.5 42.5t6.5 52.5q2 9 8 18.5t6 19.5q3 10 0.5 23.5t-0.5 27.5q3 15 9 29.5t-2 33.5q7 15 13.5 29t4.5 38q0 5 4.5 5.5t6.5 4.5 q3 46 12.5 92t19.5 92t18.5 92t10.5 91q7 14 10.5 27.5t13.5 21.5q2 29 6 51.5t8.5 43.5t8 44t3.5 54q-2 7 4 7t6 7q-9 0 -9 -4.5t-5 0.5q-5 36 -35.5 43t-70.5 7q-2 3 -4 15t4 12q15 12 36 20t39 16q31 -12 67 -13t70 -16q5 -26 15.5 -48t20.5 -46q9 -49 23 -89.5t26 -84.5 q12 -9 20 -22.5t16 -25.5v-20q15 -27 26.5 -58t22.5 -63.5t23 -63t27 -56.5q9 -43 22.5 -78.5t29 -70.5t30.5 -69t26 -75q3 -3 7.5 -9.5t10.5 -9.5q3 -39 12 -71t24 -61q9 12 11.5 31t4 39.5t5 39t13.5 30.5q3 24 5 49t6 49q3 19 12.5 35t14.5 35q3 17 1.5 34t0.5 34t9.5 34 t12.5 34q14 46 21.5 95t15.5 91q0 32 9 66.5t12 68.5q5 5 6.5 13.5t7.5 12.5q-3 20 4.5 39t13.5 37q3 7 1 11.5t-1 9.5l8.5 8.5t8.5 10.5q12 29 22.5 64t34.5 55q22 19 39 27.5t55 11.5q17 0 38 5.5t40 0.5q14 -2 23.5 -7t18 -11t17 -13t21.5 -10q9 -10 16.5 -29t11 -38.5 t-0.5 -37.5t-18 -29q-9 -5 -27 -10t-31 0q-9 2 -27.5 20t-25.5 30q-2 5 -2.5 14.5t-4.5 14.5q-3 9 -11 11t-8 11q-9 -7 -15.5 -2.5t-18.5 0.5q-38 -9 -54.5 -39.5t-27 -69.5t-19 -80t-29.5 -70q-3 -49 -15 -92t-14 -81q2 -9 -3 -10.5t-7 -6.5q5 -14 3.5 -26.5t-5 -25 t-7 -26.5t-1.5 -29q0 -9 -5 -10.5t-8 -8.5q-2 -60 -16.5 -128t-18.5 -140q0 -3 -5 -5t-5 -10q-2 -26 -5.5 -46.5t-3.5 -49.5q0 -9 -3 -16.5t-5 -15.5q-5 -24 -5 -51.5t-4 -52.5q-2 -9 -6 -20t-6 -20q-7 -31 -6 -55.5t-21 -37.5q-22 -5 -31.5 2.5t-19.5 2.5q-3 15 -12 24.5 t-12 22.5q0 20 -7.5 45t-30.5 32q2 3 3 5t1 7q-7 9 -10.5 21.5t-11.5 21.5q7 26 -7 49t-15 45q0 3 0.5 9t0.5 9q-2 9 -7.5 16.5t-9.5 16.5q-7 19 -7.5 35t-19.5 25q-3 26 -10 45.5t-15.5 37t-17 35.5t-12.5 42q-14 14 -20.5 34.5t-11.5 41.5t-12 40t-21 33q-19 70 -47.5 127 t-52.5 108q0 24 -13 42t-18 31q-3 9 -2.5 25t-12.5 16q-9 0 -12.5 -7.5t-5 -19.5t-2.5 -25.5t-3 -23.5q-3 -34 -14 -69t-20 -71q-10 -43 -13.5 -79.5t-10.5 -69.5q0 -9 -4 -14t-6 -13q-3 -14 -0.5 -26.5t-11.5 -16.5q-7 -38 -8.5 -72t-12.5 -61q2 -17 -4 -27t-2 -26 q-3 -2 -5 -7.5t-7 -9.5q5 -26 -2.5 -50.5t-11.5 -46.5q-3 -10 -2 -21.5t-3 -21.5q-3 -14 -10 -24t-9 -22q-9 -49 -31.5 -81.5t-41.5 -70.5q-14 -2 -18 -10.5t-13 -16.5q-19 0 -33 -14.5t-26 -24.5q-10 2 -18 1t-10 -6q-20 0 -39 2.5t-27 -2.5q-15 2 -28 15.5t-21 32t-8.5 40 zM505 1147q2 0 3 -1t4 1q0 3 -3.5 3t-3.5 -3z" />
<glyph unicode="O" horiz-adv-x="1080" d="M44.5 408q1.5 19 4 37t2.5 36.5t-5 37.5q0 9 5 18t5 18q0 3 -2.5 8t-2.5 7q0 7 5 10.5t5 10.5v37q3 15 8.5 29.5t9.5 30.5q3 29 8 56t19 53l7.5 7.5t5.5 7.5q7 14 9 30t9 28q14 34 36 61.5t40 51.5q0 9 2 12t-2 10q14 0 17.5 11t8.5 20q3 3 9 2.5t11 -0.5q22 38 51.5 65 t54.5 61q27 10 46 27t40 33q5 3 11.5 2t11.5 1q24 7 46.5 19t44.5 17q27 3 52 0t49 10q0 3 3 4q14 -9 37.5 -4.5t47.5 -1.5q26 -9 54 -23t50 -26q51 -32 78.5 -72.5t49.5 -111.5q10 -34 22.5 -74.5t13.5 -84.5q12 -19 12 -55q0 -5 -1 -11q0 -31 3 -64q1 -19 1 -36 q0 -23 -2 -41q-4 -32 -9 -68q-10 -53 -33.5 -94.5t-41.5 -91.5q-27 -68 -69 -124q-10 -15 -17 -27.5t-20 -29.5q-17 -24 -44.5 -53.5t-56.5 -50.5q-29 -24 -66.5 -50.5t-61.5 -31.5q-22 -9 -43.5 -10.5t-40.5 -6.5q-9 -3 -18 -9t-17 -8q-26 -5 -55 -3.5t-57 7t-51 12 t-39 13.5q-29 12 -55.5 23t-50.5 33q-19 19 -45 50.5t-38 54.5q-7 9 -12 24t-10 28q-9 14 -16.5 25t-11.5 21q-2 9 0 16t0 15q-2 9 -6 16.5t-4 16.5q-3 20 -1.5 39zM169 166q5 -9 6 -9t0 2.5t-3.5 5.5t-2.5 1zM169 421.5q0 -66.5 5 -116.5q7 -51 25 -85t38 -63 q14 -3 21.5 -11.5t19.5 -17.5q24 -14 58 -25q32 -11 68 -15q16 -2 32 -1q20 0 39 2q35 5 61 22q9 2 8.5 -2.5t6.5 -2.5q10 9 22 14.5t26 12.5q14 9 24 17.5t22 15.5q9 2 15.5 1.5t11.5 3.5q17 10 21.5 25.5t16.5 30.5q3 10 10 18t16 16q12 20 27 31q3 20 12.5 36.5t9.5 40.5 q49 56 73 126t50 152q3 65 4 135v21q0 61 -5 117q-6 66 -21.5 126t-42.5 103q-14 3 -22.5 14t-21.5 16q-26 12 -69.5 12t-70.5 -3q-12 -2 -21.5 -5.5t-23.5 -3.5q-12 -9 -23 -17t-31 -8q-17 -19 -37 -29.5t-40 -20.5q-31 -19 -60 -51t-49 -58q-7 -9 -14.5 -17.5t-16.5 -16.5 q-3 -3 -4 -9.5t-3 -11.5q-3 -5 -10 -7.5t-10 -5.5q-14 -17 -18 -39.5t-20 -35.5q3 -10 -2.5 -14.5t-2.5 -18.5q-3 -7 -9 -8.5t-8 -10.5q-7 -34 -19.5 -63t-25.5 -59.5t-23.5 -63t-13.5 -71.5q-5 -55 -5 -121.5z" />
<glyph unicode="P" horiz-adv-x="875" d="M43 12q2 17 13.5 24t27 11t32.5 7.5t29 13.5q17 10 20.5 25.5t17.5 29.5q3 49 19 95.5t25 95.5v29q2 12 7 20.5t8 18.5q5 26 6 54t2 56.5t5 54t18 45.5q0 36 6 72.5t9 83.5q5 34 13 69t13 74q0 9 -1 19t1 18q2 20 8 39t7 37q3 14 1 31.5t-1 34.5q3 38 14.5 73.5t4.5 61.5 q-3 15 -16 23.5t-30 13t-34 6t-31 5.5q2 5 6 8.5t4 11.5q26 3 45 4t35 0.5t32 -2t37 -2.5q9 0 11.5 -4t8.5 -6q24 1 50 1h27q41 -1 86 -1q56 0 110.5 -18t104.5 -23q17 -15 37.5 -36.5t28.5 -50.5q27 -19 31.5 -55t7.5 -82q1 -14 1 -27q0 -32 -6 -58q-8 -37 -15 -77 q-9 -19 -20.5 -34t-20.5 -34q-5 -9 -7 -17.5t-5 -16.5q-9 -14 -25 -24t-30 -22q-14 -10 -25.5 -24t-25.5 -24q-24 -19 -57 -25t-55 -23q-29 2 -55.5 -7.5t-55.5 -11.5q-24 9 -51 7q-9 -1 -19 -1q-20 0 -46 3q-9 -46 -15 -98t-28 -90q0 -39 -10.5 -87.5t-18.5 -93.5 q-2 -14 -6 -34t-5 -40.5t5 -38.5t25 -23q24 -9 54.5 -11t45.5 -20v-20q-31 -3 -62 -9.5t-61 -4.5q-20 0 -38 5t-38 5q-9 0 -18.5 -3.5t-22.5 -6.5q-5 0 -11 3.5t-11 4.5q-10 0 -26.5 -3t-33.5 -5.5t-34 -3.5t-29 4zM338 935q3 -10 3 -2.5t-3 2.5zM386 640q19 -5 42 -7t46 1 t45 6.5t39 8.5q7 3 8 9t6 8q27 7 55 24t52 39q44 39 65 97t27 137q3 38 -1 61.5t-11 45.5q-2 10 -1.5 20.5t-3.5 18.5q-19 55 -61.5 72t-103.5 24q-29 5 -63 1q-21 -2 -43 -2q-13 0 -26 1l-3 -9q-19 -67 -23 -144t-13 -156q-2 -14 -6 -27.5t-8 -27.5q-7 -49 -11 -101 t-7 -100z" />
<glyph unicode="Q" horiz-adv-x="935" d="M44.5 11q1.5 13 6 25t9.5 17q7 9 21.5 18t27.5 23q5 5 10.5 12.5t8.5 11.5q14 9 29 11t20 14q7 -2 18 2q27 26 70 48q3 17 -10.5 19.5t-27.5 5.5q-7 12 -18 19t-18 21q-2 2 -12 1q-32 39 -55 83t-45 93q3 19 -4 35t-15 30q3 34 -7 62q-7 20 -7 43q0 12 2 25 q3 10 7.5 19.5t7.5 19.5q2 12 2 23t2 23q3 14 10 27.5t10 28.5q3 9 2.5 17.5t2.5 17.5q7 3 10 10q7 14 12 26.5t9 29.5q9 17 20.5 35t11.5 40q3 2 6 3.5t6 5.5q9 29 25 49.5t38 37.5q19 36 46.5 59.5t51.5 52.5q34 9 54.5 30.5t45.5 34.5q19 -5 32.5 7t31.5 15 q9 0 15.5 -1.5t14.5 1.5q34 3 50.5 7.5t41.5 -1.5q9 -2 27 -6.5t31 -7.5q14 -7 23.5 -16.5t23.5 -12.5q41 -36 66.5 -83t43.5 -107q2 -3 1 -6.5t-1 -4.5q19 -56 29 -132q8 -51 8 -103q0 -25 -2 -50q-2 -14 -6.5 -27.5t-5.5 -25.5q-7 -65 -25 -121.5t-44 -104.5 q-24 -46 -46 -79t-59 -57q-7 -10 -18 -16t-15 -22q-31 -9 -53 -27.5t-51 -35.5h-15q-29 -24 -78 -27q-14 -1 -26 -1q-33 0 -57 6q-5 -10 -15 -8.5t-22 -0.5q-5 0 -4.5 -6t-6.5 -9q-3 2 -13 -1.5t-20.5 -9.5t-19 -12t-8.5 -9q2 -12 16.5 -9t27.5 3q12 0 24 -3t24 -3 q12 -2 24 0.5t19 -7.5q24 2 45 -6t40 -20.5t37.5 -25.5t39.5 -22q-2 -9 2.5 -11t7.5 -6q9 2 12.5 -3t11.5 -3q19 -19 41 -35.5t61 -24.5q7 -2 14 -5.5t12 -3.5q20 -2 41.5 -11t42.5 -1q15 -10 33 -5.5t38 0.5q39 14 77 26t57 44q9 0 16 5t7 19q12 -2 19 6t14 17t15.5 17 t25.5 6q3 3 1.5 6t0.5 10q17 9 35 8q15 -9 13 -20.5t-13 -25.5q-5 -9 -8.5 -16.5t-6.5 -10.5q-3 -5 -8.5 -7t-10.5 -5q-7 -9 -11 -19t-13 -19t-19 -14.5t-18 -14.5q-3 -3 -5 -8.5t-5 -8.5q-9 -9 -21 -15.5t-15 -21.5q-34 -15 -62.5 -32.5t-57.5 -36.5q-7 -2 -7 5 q-10 -9 -21 -9.5t-23 -0.5t-23 -2.5t-20 -12.5q-3 3 -7.5 5t-7.5 5q-17 -5 -31.5 -2.5t-30 7t-31.5 9.5t-37 7q0 10 -1 11q-14 3 -21 9.5t-15 6.5q-19 22 -44.5 35.5t-42.5 37.5h-11q-5 19 -18.5 26t-18.5 25q-19 2 -26.5 16.5t-21.5 23.5q-14 -3 -21.5 4.5t-21.5 10.5 q-9 2 -9.5 -3.5t-5.5 -5.5q-9 -2 -9.5 2.5t-7.5 4.5q-27 -5 -55.5 -5t-57.5 -15q-27 3 -46.5 -2t-40.5 -14q-9 -5 -19.5 -11.5t-22 -12t-23 -6t-23.5 7.5q-9 5 -10.5 17t0 25zM156 658q-2 -15 -2 -29q0 -29 5 -57q2 -14 6 -27t1 -28q5 -7 8 -14q-2 -29 5 -45t10 -40 q9 -10 16.5 -19.5t11.5 -21.5q5 -3 10 -5t9 -5q15 -29 38 -55.5t52 -43.5q9 -3 18 -10t18 -11q27 -9 51 -5t45.5 12.5t40 19.5t35.5 20q3 19 19.5 23t23.5 19q12 0 14.5 8t14.5 8q31 51 77 92q-3 7 0 10t3 12q22 19 30 43.5t25 48.5q9 32 13 68t11 67q3 7 -2 6t-2 4 q12 44 12 91t-7 94t-18 94t-19 93q-10 10 -13 24t-11 24q-5 7 -15.5 17t-15.5 17q-19 17 -48 22t-61 0q-24 -12 -51.5 -13.5t-49.5 -20.5q-24 -2 -35 -11t-25 -20q-22 -14 -32 -23t-24 -28q-7 -7 -14.5 -10t-16.5 -10q-17 -17 -25.5 -34t-18.5 -34q-12 -19 -22 -36t-24 -34 v-18q-17 -31 -32.5 -67.5t-25.5 -77.5t-13 -84z" />
<glyph unicode="R" horiz-adv-x="984" d="M42 22q2 14 6 17q26 5 43 21.5t35 24.5q9 5 15.5 7t15.5 5q27 17 43.5 41t19.5 65q5 49 22 100.5t24 97.5q2 10 0.5 22t-0.5 24q2 17 8 35t9 32q3 10 0 20t0 21q5 22 12 42.5t9 42.5q5 44 8.5 79t8.5 73q3 36 3 67.5t14 60.5q-2 18 -2 35.5t2 34.5q3 34 5.5 66.5t1 59 t-15.5 46.5q3 19 -3.5 29t-11.5 24q-19 12 -48 11t-46 15q5 15 15.5 17t18.5 5q22 3 55.5 2.5t72.5 -2.5q38 -1 79 -3q18 -1 34 -1q22 0 44 1h28q79 0 153 -14q86 -17 135 -67q22 -24 36 -57q13 -33 19 -74q5 -38 6 -78v-8q0 -44 -8 -88q-9 -58 -21.5 -101t-48.5 -75 q-3 -5 -13.5 -8.5t-15.5 -8.5q-10 -9 -12 -13t-15 -9q-31 -19 -65 -37t-68 -37q9 -9 16 -19.5t16 -19.5q9 -10 23.5 -26.5t20.5 -29.5q12 -26 16.5 -55t19.5 -53q7 -34 7 -66.5t-2.5 -67.5t-5 -70.5t-2.5 -75.5q19 -19 36 -27t42 -2q9 0 14 6t14 10q22 12 43 12.5t35 -7.5 q-7 -31 -26.5 -49.5t-46 -31.5t-57 -20.5t-61.5 -16.5q-17 3 -26.5 6.5t-29.5 7.5q-20 20 -26.5 56t-6.5 77t1 83v11q0 36 -6 65q-9 36 -21.5 71.5t-21.5 69.5q-7 24 -10 43t-17 37q-14 12 -39.5 21.5t-40.5 25.5q-15 -5 -26.5 -4.5t-20 1.5t-18 2t-19.5 -5q-14 -10 -18 -27 t-5.5 -36.5t-5 -39t-15.5 -33.5q2 -16 2 -32q0 -38 -12 -75q-17 -52 -24 -110q-2 -18 -2.5 -35.5t2.5 -35.5q5 -35 25 -55q19 0 29.5 -8t28.5 -11q-7 -9 -1.5 -18t-3.5 -9q-12 -15 -32.5 -11t-38.5 4q-56 3 -121 4h-42q-40 0 -73 -1q-19 -3 -36 -8t-31 3q-9 -2 -7 12z M422 645q17 -14 44 -9.5t51 1.5t44.5 -7t40.5 -2q22 3 50.5 23.5t47.5 34.5q7 9 16 20t16 18q3 3 7.5 2t6.5 3q3 3 6.5 11t8.5 11q5 9 12 14t9 8q9 14 11 28.5t3 28t4.5 24.5t11.5 20q-5 7 -5.5 14.5t-0.5 16.5q5 17 5.5 29.5t0.5 29.5q-2 27 -4 57t-13 44q-17 27 -26.5 38 t-27.5 29q-22 20 -53 27t-65 9q-20 1 -42 0h-28h-14q-28 0 -55 3q-14 -85 -17 -157t-13 -149q-10 -51 -18.5 -104t-13.5 -116z" />
<glyph unicode="S" horiz-adv-x="829" d="M45.5 -5q-2.5 17 0 35t7.5 35t10 25q2 38 9 73t14.5 68.5t13.5 65.5t8 67q0 14 -2 25.5t15 16.5q20 -9 19.5 -30t2.5 -38q5 -32 16.5 -58.5t25 -49.5t29.5 -43.5t32 -41.5q24 -3 39 -22t38 -29q9 -5 19 -2.5t20 -1.5q9 -2 22.5 -6t26.5 0q15 0 26 6q3 -3 5 -3t3 -3 q29 5 49.5 17t36 29.5t28.5 39t25 42.5q2 24 7 44t8 40.5t6 44t3 52.5q-9 9 -10 19t-2 18q-7 3 -20 14.5t-15 24.5q-22 14 -34.5 34.5t-40.5 27.5q-19 19 -39 34t-46 24q-5 15 -16 25.5t-25 17t-28.5 12.5t-26.5 15q-3 5 -9 13.5t-20 8.5q-2 19 -12.5 29t-21.5 24 q-5 26 -12.5 57.5t-12.5 66.5q-5 32 -5 62v6q0 33 13 62q12 29 30 63t27 63q2 3 6 3.5t7 3.5q3 15 11 24.5t18.5 18t19.5 17.5t18 19q34 12 67.5 26.5t65.5 31.5q28 -6 58 -6h9h23q23 0 46 -1q31 -19 63.5 -35t51.5 -45q22 0 29 16t11 34t12 30.5t28 9.5q3 -26 -1 -54 t-11.5 -56t-16.5 -56t-14 -57q-9 -60 -14.5 -120.5t-26.5 -108.5q-12 2 -17 10.5t-5.5 19.5t0 24t0.5 26q-9 44 -14.5 94t-26.5 89q-10 17 -24.5 28t-24.5 30q-19 7 -43 13.5t-48 10t-47 0t-40 -18.5q-20 -15 -39 -40t-27 -57q-2 -7 -0.5 -13t0.5 -10q-3 -14 -8.5 -22 t-8.5 -17q-4 -24 -4 -44q1 -38 13 -67q18 -44 50.5 -75.5t71.5 -54t72 -44.5q2 -3 4.5 -7.5t2.5 -9.5q12 -3 19.5 -10t14.5 -14t15.5 -12t21.5 -7q10 -19 24.5 -34t30.5 -29q-3 -9 2.5 -11t2.5 -13q28 -26 38 -68q10 -38 9 -80v-8q-1 -47 -11 -92t-22 -79q-3 -9 -9.5 -18.5 t-9.5 -17.5q-14 -36 -28.5 -61.5t-38.5 -49.5q-19 -19 -46 -32.5t-54 -22.5q-24 -7 -46.5 -13.5t-46.5 -3.5q-9 3 -7 -2.5t-5 -5.5q-38 2 -71.5 2.5t-73.5 9.5q-9 12 -25.5 12.5t-32.5 9.5q-9 5 -19 12.5t-22 15.5t-26.5 11.5t-31.5 -2.5q-12 -2 -26.5 -17t-20.5 -25 q-5 -12 -8 -27.5t-18 -20.5q-10 7 -12.5 24z" />
<glyph unicode="T" horiz-adv-x="764" d="M43.5 1065q0.5 19 3 37.5t4.5 30.5q-2 16 -2.5 32.5t2.5 34.5q5 34 38 48q161 2 324 2h109h146q146 0 293 1q3 -9 11 -9.5t13 -4.5q7 -10 8.5 -28t0.5 -37.5t-3.5 -38.5t-2.5 -30q-3 -22 -10 -42.5t-31 -29.5q-10 15 -8.5 39t-3.5 39q-11 26 -53 33q-36 6 -81 6h-13 q-52 -2 -104 -6q-28 -2 -50 -2q-20 0 -35 2q-24 -51 -33.5 -109t-34.5 -101q2 -9 3.5 -13t-8.5 -6q-2 -12 1.5 -16t3.5 -13q-22 -58 -39.5 -118.5t-27.5 -132.5q-9 -44 -15.5 -88.5t-18.5 -87.5q-20 -79 -34 -176t-17 -189q19 -22 46 -34q22 -10 55 -10q8 0 17 1q0 -9 4 -16 t-4 -14q-69 -9 -144 -9q-25 0 -51 1q-46 2 -91 2q-56 0 -109 -3q-3 9 -4 15.5t3 18.5q17 14 31.5 16.5t38.5 0.5q19 22 40 37t36 39q3 12 3.5 22t3.5 24q3 10 10 17.5t11 16.5q3 7 4 15.5t3 14.5q5 14 5 27t1 37q7 44 24 89t29 95q9 34 11.5 65.5t7.5 64.5q9 49 17.5 97.5 t13.5 93.5q7 44 9.5 90t21.5 89q-3 26 0 49.5t8 47.5q-7 14 -4.5 19t-0.5 19q-23 7 -53 7q-10 -1 -22 -1q-28 -2 -58 -2q-17 0 -33 1q-34 2 -72.5 8t-60.5 -10q-17 -14 -20.5 -31.5t-16.5 -31.5q-2 -20 -7 -38t-22 -15q-10 0 -13.5 14.5t-3 33.5z" />
<glyph unicode="U" horiz-adv-x="1008" d="M43 1231.5q1 9.5 5 22.5q77 11 168 11q11 -1 23 -1q104 -2 196 -3q5 -9 4.5 -18t-0.5 -18q-32 -14 -69 -22t-59 -34q-24 -118 -49 -233t-55 -226q-20 -19 -21.5 -54.5t-9.5 -76.5q-3 -3 -6.5 -9.5t-5.5 -13.5q-3 -14 -5 -33.5t-5 -36.5q-9 -38 -15 -81q-3 -23 -4 -48 q0 -20 3 -40q3 -29 22 -65.5t38 -62.5q24 -32 59 -43t74 -25q20 -1 38 -2q21 1 38 3q33 4 59 4q20 9 38 21t44 15q9 14 17 27.5t26 17.5q0 10 4 15t8.5 10t7.5 12t2 19q20 14 32 39.5t26 55.5q5 14 12.5 29.5t11.5 28.5q2 3 0 8.5t0 14.5q5 17 17 42.5t5 52.5q19 22 19.5 57 t9.5 66q3 14 13.5 30t-0.5 38q15 34 17 72t11 75q0 7 4 12t6 14q9 29 9.5 60.5t14.5 60.5q0 14 -9 25q9 14 11.5 30.5t2.5 32.5t1 34t8 35q-7 17 -21.5 24t-26.5 19q-14 3 -26 3t-22 1.5t-15 7t-5 17.5q2 9 14.5 12t30.5 4t39 0t39 -1q48 0 91 1.5t71 5.5q12 0 29.5 0.5 t33 0t26.5 -3.5t13 -9q3 -17 -10.5 -18.5t-20.5 -3.5q-36 -17 -74 -35t-54 -56q-7 -12 -9.5 -27t-5.5 -29q-3 -9 -6.5 -14t-5.5 -8q-7 -28 -7 -58v-13.5v-12.5q0 -30 -7 -61q-5 -22 -10 -54t-9 -61q-5 -34 -14 -64.5t-15 -68.5q-3 -14 -1.5 -29t-1.5 -29q-2 -12 -7 -20.5 t-6 -16.5q-14 -51 -19.5 -101t-16.5 -94q-9 -10 -14 -28t-19 -27q-5 -36 -22 -66q-7 -10 -11 -14.5t-11 -12.5q-22 -26 -39.5 -54t-40.5 -52q-34 -32 -72 -56.5t-87 -42.5q-17 -7 -42 -12t-53 -7.5t-56 -1t-51 6.5q-9 3 -16 8.5t-16 8.5q-26 9 -39.5 12t-33.5 19 q-20 12 -30.5 24.5t-24.5 36.5q-3 9 -11 15t-11 14q-10 19 -16 41t-15 45q-3 12 -9 21t-8 18q-10 34 -12 70q-1 11 -1 22q-1 26 3 50q4 36 9.5 71.5t7.5 69.5q3 9 6.5 15t7.5 16q3 12 2 25.5t3 25.5q7 26 12 50.5t10 52.5q9 49 27.5 91t26.5 93q3 20 3.5 45t7.5 50 q5 22 11 45.5t8.5 44.5t-1 41.5t-18.5 37.5q-28 13 -56 13q-3 -1 -7 -1q-32 -2 -64 -1q-2 15 -1 24.5z" />
<glyph unicode="V" horiz-adv-x="964" d="M43 1242q15 17 35.5 14.5t42.5 -2.5q82 -3 167 -3t164 -3q3 -7 3.5 -15.5t3.5 -15.5q-17 -14 -38.5 -13t-41.5 -8t-33 -26.5t-29 -32.5q-4 -20 -4 -40q0 -19 4 -39q9 -38 12 -73q2 -14 -0.5 -28.5t0.5 -26.5q5 -19 12 -33.5t9 -31.5q0 -5 -2.5 -11t0.5 -13q2 -12 8 -21 t8 -20q2 -9 -1 -18t-1 -14q2 -32 10 -62q6 -24 5 -50v-14q0 -9 5 -10.5t7 -6.5q-2 -15 -2 -31q0 -32 7 -70q10 -58 17 -113q5 -34 7 -69t2 -74q31 27 53 63t41.5 74.5t38.5 77t43 72.5v20q29 31 35 82q5 0 7 2.5t3.5 7t3.5 7t9 0.5q3 19 14 35t20 33q7 14 10 33.5t21 28.5 q2 34 25 49q7 34 22.5 59t30.5 49q2 9 2 12t-2 12q22 19 33 48.5t25 55.5q-3 22 5.5 37.5t4.5 34.5q-5 15 -19.5 25t-34 16t-41.5 8.5t-41 6.5q-5 7 0 13t1 18q54 -2 109 -2t110 2q33 1 66 1q76 0 149 -5q2 -9 -3.5 -13t-3.5 -12q-12 -9 -27.5 -12.5t-32.5 -5t-32 -5 t-27 -13.5q-24 -20 -37 -49.5t-37 -51.5q-19 -39 -43.5 -79t-38.5 -80q-2 -7 -7.5 -8.5t-9.5 -8.5q-10 -38 -27 -67.5t-35 -57.5t-34 -59t-25 -68q-2 -5 -5 -7t-9 -5q-17 -36 -34.5 -70t-26.5 -79q-5 -14 -14.5 -21.5t-17.5 -20.5q-9 -14 -15 -30.5t-14 -29.5 q-3 -9 -9.5 -12.5t-9.5 -9.5q-12 -15 -19 -33.5t-19 -35.5q-14 -26 -26.5 -44.5t-26.5 -45.5q-7 -12 -13.5 -25.5t-6.5 -32.5q-17 -14 -27.5 -32t-19 -37.5t-19.5 -38t-28 -30.5h-48q-15 17 -14 38t-1 44q-2 15 -9 30.5t-7 28.5q-2 9 1 15.5t3 15.5q0 24 -9.5 50.5 t-12.5 51.5q-2 17 1.5 31t-6.5 29q2 19 2 38q0 16 -2 34q-2 38 -7 73q0 7 -3.5 10.5t-3.5 10.5q-3 12 -2.5 24.5t0.5 26.5t-3.5 25.5t-11.5 20.5q5 27 -2 53.5t-15 45.5q-3 55 -12 125t-19 138q-5 17 -8.5 29.5t-3.5 31.5q-2 31 -9.5 59t-10.5 68q-2 15 -15.5 26t-33.5 18.5 t-41 13t-37 6.5q0 3 2 10t-3 7z" />
<glyph unicode="W" horiz-adv-x="1262" d="M43 1234q28 -1 55 -1q50 0 98 3.5t94 3.5q25 0 50 -1v-31q-39 3 -58 -16.5t-33 -46.5v-29q0 -94 11 -178q13 -96 20 -196q3 -27 2.5 -55t4.5 -57q3 -19 10 -33.5t2 -41.5q3 -14 7.5 -37t7.5 -47q0 -3 -3.5 -11t-3.5 -4q2 -7 9.5 -20.5t11.5 -24.5q2 -9 1.5 -16.5 t3.5 -17.5q31 36 48.5 84.5t46.5 88.5q-3 24 7 35.5t21 23.5q-2 10 0.5 17t2.5 14q19 39 39.5 75t33.5 80q22 31 40.5 67t31.5 77q14 34 32 70.5t23 74.5q12 9 19.5 24t21.5 29q5 7 8.5 22t7.5 30.5t12.5 25.5t24.5 10q22 -39 24.5 -86.5t5.5 -95.5q3 -19 7.5 -36t8.5 -32 q3 -31 4 -62.5t4 -64.5q2 -38 6 -81t9.5 -89.5t10.5 -92.5t8 -87q5 -49 7 -97t19 -92q14 22 24 45t19 52q9 9 18 21.5t2 28.5q14 5 15.5 18.5t13.5 17.5q2 20 9 35.5t14.5 30t13.5 29.5t6 34q12 2 17 12q3 19 13.5 33.5t18.5 31.5q7 10 9 21t5 22q3 7 8.5 11t8.5 11t1.5 12 t1.5 12q2 7 8 12t8 12q3 9 3 17t4 17q9 29 21.5 55.5t24.5 53.5q0 9 4 9.5t13 4.5q2 24 8.5 42.5t15.5 37.5v12q0 126 -106 145q2 9 -1 11.5t-3 8.5q35 -1 71 -1q54 0 110 2q27 1 53 2q63 0 116 -8q9 -19 -2 -21.5t-30 -7.5q-10 -5 -27 -15t-26 -17q-17 -14 -26.5 -30 t-16.5 -34t-14.5 -36t-19.5 -32q2 -9 1 -13t-4 -10q-5 -3 -7.5 -10.5t-8.5 -13.5q-24 -43 -41.5 -91t-38.5 -95q-3 -9 -5.5 -22t-9.5 -24q-3 -10 -13.5 -19.5t-15.5 -23.5q-12 -20 -15.5 -42.5t-25.5 -32.5q0 -17 -5 -27.5t-2 -29.5q-14 -5 -15.5 -23t-16.5 -23 q-9 -39 -25 -67t-32 -62q-9 -20 -13 -40t-12 -37q-3 -9 -10 -14t-11 -12q-5 -10 -6.5 -23.5t-6.5 -25.5q-10 -19 -24 -37t-23 -38q-12 -29 -17.5 -56.5t-24.5 -46.5q-3 -5 -6 -15t-5.5 -20.5t-6 -17t-10.5 -6.5t-12.5 14.5t-9 34t-6 38t-2.5 27.5q-3 38 -8.5 73.5t-8.5 69.5 q0 14 0.5 31t-0.5 29q-3 29 -12 58t-12 51q-3 14 0 26.5t3 24.5q-3 34 -11.5 69.5t-10.5 67.5q-7 58 -11 129.5t-11 141.5q-14 -5 -21.5 -29.5t-14.5 -43.5q-15 -15 -23.5 -34t-16.5 -38.5t-17.5 -39.5t-24.5 -35q-3 -29 -17.5 -53t-23.5 -49q-3 -9 -3 -15.5t-4 -13.5 q-2 -9 -7 -14t-8 -14q-3 -7 -4 -16t-5 -14q-5 -14 -17 -22.5t-15 -22.5q-3 -7 -3 -14.5t-2 -12.5q-3 -9 -8.5 -12t-8.5 -12q-9 -15 -12.5 -32t-11.5 -31q-7 -14 -16.5 -26t-17.5 -25q-7 -14 -15.5 -26t-13.5 -25q-3 -3 -1.5 -8.5t-2.5 -12.5q-3 -7 -14 -16.5t-10 -27.5 q-19 -14 -28 -34.5t-17.5 -42.5t-19.5 -42t-32 -30q-3 12 -12 12q-3 26 -4 52.5t-2.5 53.5t-5 53.5t-13.5 50.5q9 17 5 37.5t-5 47.5q-2 19 -1 35.5t-3 40.5q-3 29 -7.5 67t-9.5 72q-2 17 -2.5 31t-11.5 31q1 32 5 68q2 12 1 24q0 24 -6 48q-9 49 -11 104t-6 113 q-2 24 -10 48.5t-10 48.5q0 12 3.5 20.5t-0.5 20.5q-2 5 -5 10t-7 12q-3 9 -2 19t-1 19q-7 14 -17 28t-17 18q-7 5 -15.5 7.5t-16 6t-13.5 8.5t-6 17zM227 1149q3 0 4 -1.5t3 1.5q0 3 -3.5 3t-3.5 -3zM327 371q-1 1 2 -2q3 -2 2.5 -1t-2 1.5t-2.5 1.5z" />
<glyph unicode="X" horiz-adv-x="1307" d="M43 12v31q15 3 24.5 10.5t22.5 11.5q19 7 38 7t39 5q17 5 31.5 19.5t27.5 32.5t24 36.5t23 34.5q5 9 13.5 16.5t17.5 15.5q41 44 73 97q15 24 28 47t34 35q19 55 53.5 99.5t68.5 88.5q17 29 32 48.5t6 53.5q-3 14 -10 23.5t-10 17.5q-5 14 -7 27t-5 25q-7 14 -18 35 t-20 38q-5 34 -13.5 68t-23.5 67q-3 9 -9.5 14t-13.5 13q-9 19 -13.5 39.5t-16.5 37.5q-9 14 -21 24t-20 24q-12 17 -19 32t-24 27q-26 9 -49 16.5t-48 16.5q7 22 36 21t56 -1h223q31 0 61 2t52 -14q-3 -19 -12.5 -27t-23 -12.5t-31 -6t-34.5 -5.5q-19 -15 -19.5 -35.5 t7 -42.5t18 -46t13.5 -45q2 -3 -0.5 -6.5t-7.5 -0.5q5 -10 11 -15t14 -10q0 -38 22 -57q9 -48 22.5 -80t27.5 -71q19 9 31.5 23t16.5 36q20 12 34.5 28.5t21.5 41.5q15 12 29 26.5t15 38.5q19 10 31 27.5t23 34.5l22 34t30 27q2 15 9 26.5t13.5 21.5t8.5 20.5t-5 23.5 q-9 12 -21.5 15.5t-27 6t-29 7t-23.5 14.5q-3 9 3.5 13t1.5 7q39 3 89 6t102 4h34q35 0 69 -1q51 -2 94 -5q0 -17 -9.5 -26.5t-25 -15.5t-34 -9.5t-35.5 -5.5q-26 -3 -41.5 -17.5t-34.5 -23.5q-5 -3 -5 -9v-11q-32 -14 -47.5 -41t-39.5 -46q0 -9 -4 -13t-4 -11 q-24 -9 -36 -28.5t-27 -36.5v-20q-29 -29 -53 -57.5t-40 -67.5q-19 -10 -31.5 -26.5t-23.5 -34t-23 -34t-29 -26.5q-2 -17 2.5 -30.5t9.5 -26.5t7.5 -26t-4.5 -28q19 -15 24 -38t14 -47q5 -17 16 -39.5t18 -41.5q2 -3 1 -9t-1 -13q5 -12 9.5 -20.5t7.5 -30.5q2 -10 2 -23 t5 -21q19 -68 45.5 -133t68.5 -110q29 -14 63 -21.5t58 -24.5q5 -12 -3.5 -10t-8.5 -8q-51 1 -102 1q-60 0 -116 -2q-50 -2 -99 -1q-57 0 -114 2q-5 20 5 27.5t26 8.5t36 1t35 7q22 9 22 23t12 26q-3 41 -15 82t-24 81q3 29 -4.5 54.5t-21.5 44.5q-2 44 -11 74t-28 62 q-3 26 -5.5 42t-18.5 30q-19 -17 -33.5 -39.5t-28 -45.5t-28 -45t-33.5 -39q-38 -73 -84.5 -135.5t-96.5 -124.5q-7 -19 -9.5 -41.5t16.5 -33.5q22 0 40 -3.5t35 -8.5t35 -8.5t40 -3.5q3 -7 2.5 -17t3.5 -18q-41 -1 -82 -1q-72 0 -141.5 2.5t-141.5 2.5q-42 0 -84 -1z M290 68q3 0 7 -2.5t7 -2.5q2 5 -5 7.5t-9 -2.5z" />
<glyph unicode="Y" horiz-adv-x="827" d="M43 1181q24 44 53.5 72.5t72.5 31.5q3 0 16 -1t26.5 -2.5t27.5 -4t20 -4.5q17 -5 31.5 -18t26.5 -28t23.5 -31.5t24.5 -29.5q5 -56 24 -108q15 -42 15 -76q0 -9 -1 -18q10 -24 11.5 -47.5t0 -47.5t-1.5 -50.5t7 -53.5q19 14 27.5 39t26.5 41q9 32 27 57.5t26 61.5 q14 9 18.5 25t19.5 23q0 29 15 31q0 20 8.5 28.5t20.5 19.5q7 22 20 38t26.5 30.5t26.5 30t21 37.5q20 14 48.5 34.5t67.5 23.5q31 2 60 -6.5t55 -22.5q14 -20 27.5 -43t18.5 -56v-7q0 -38 -22 -62q-23 -25 -59 -37q-9 3 -22 4t-24 5q-14 19 -21.5 47t-10.5 57q-22 10 -40 6 t-32.5 -15.5t-27.5 -25t-25 -21.5q-3 -17 -10.5 -30t-23.5 -18q-3 -12 -5.5 -25t-16.5 -14q-3 -17 -10 -30t-14.5 -26t-15.5 -26.5t-13 -32.5q-10 -2 -12.5 -8.5t-7.5 -10.5q-12 -19 -18 -41.5t-20 -46.5q-12 -26 -24 -44t-20 -48q-9 -27 -29.5 -57t-33.5 -63 q-5 -15 -9.5 -30.5t-8.5 -29.5q-14 -60 -18.5 -135t-10.5 -139q-4 -31 -4 -60q0 -24 3 -46q5 -51 36 -75q22 -5 40.5 -11t41.5 -12q0 -9 -2 -14.5t-4 -10.5q-9 -10 -19 -7.5t-18 -4.5q-65 9 -141 9q-23 0 -46 -1q-103 -3 -202 -3q-14 10 -12.5 24.5t12.5 23.5q26 5 56.5 3.5 t54.5 4.5q14 14 28 21t25 20q12 15 17 36.5t8.5 43t8.5 43t15 38.5q-1 15 -1 29q0 32 4 60q4 40 11 77t12 75.5t5 85.5q0 9 2.5 13.5t5.5 12.5q-5 15 -4 36.5t9 38.5q-3 20 -3 42.5v44.5t-1.5 45t-8.5 46q9 24 0 54.5t-16 61.5q-5 27 -7.5 57t-9 56.5t-17 47t-30.5 30.5 q-12 7 -27.5 12t-31 5t-29 -6t-20.5 -21q1 -9 1 -17q0 -36 -11 -60q-2 2 -7 -4q-34 0 -42 27.5t-14 56.5z" />
<glyph unicode="Z" horiz-adv-x="1095" d="M43 90q17 17 29.5 37.5t31.5 38.5q0 5 -1.5 7.5t-0.5 10.5q9 3 12.5 12t16.5 9q9 19 18.5 34t24.5 24q7 32 36 46q-3 9 2.5 12t4.5 15q17 7 25.5 25t27.5 25q2 5 -1.5 6.5t-2.5 6.5q38 34 71 72.5t65.5 79t66.5 78t74 69.5q0 5 1.5 7.5t-0.5 9.5q19 9 28 34 q15 19 34 34.5t39 33.5q22 20 39 47t45 42q17 34 47 56.5t53 51.5q-20 12 -40.5 6t-42.5 -6q-34 2 -67.5 16t-67.5 21q-3 5 -6 8t-3 9q-29 12 -52.5 27.5t-48.5 29t-52 22t-63 8.5q-19 -12 -41 -22t-42 -23t-37 -29t-25 -40q-14 7 -15 16.5t1.5 19.5t6 21t2.5 23 q19 46 54.5 76t69.5 61q35 14 61 14h1q26 0 66 -9q2 -5 2 -14q15 0 28 -7.5t25.5 -17t26.5 -18t32 -10.5q26 -24 66 -35.5t68 -37.5h23t18 -3q49 2 83 18t68 34q10 14 23 28.5t29.5 25t36 14.5t45.5 -3q12 -15 13.5 -31t-3.5 -33.5t-13 -32.5t-15 -27q-20 -19 -34.5 -41 t-30.5 -44.5t-36 -41t-47 -29.5q-3 -14 -11.5 -20.5t-20.5 -14.5q-26 -24 -48 -51.5t-51 -35.5q-39 -44 -80.5 -84.5t-71.5 -90.5q-34 -19 -60 -47.5t-49.5 -59.5t-47 -60.5t-48.5 -52.5q-3 -15 -10 -23.5t-15.5 -17t-16.5 -19t-9 -25.5q-9 5 -12.5 -5t-15.5 -12 q-22 -44 -52 -75t-53 -70q12 -5 24.5 2.5t21.5 16.5q24 3 42.5 10t35.5 17q19 2 38.5 1.5t40.5 -1.5q41 -3 65 -27q7 -3 8.5 -1t4.5 2q20 -17 41.5 -25.5t45.5 -25.5q5 -22 29 -31q9 -26 21.5 -49.5t25.5 -47.5t24 -48.5t15 -53.5q29 -29 54.5 -63.5t64.5 -54.5 q20 -3 40 -11t40 -15q10 9 23 10t26 0t26.5 -2t27.5 4q5 3 11 11t14 13q7 3 12 2.5t9 1.5q27 17 49 36.5t51 31.5q-3 -36 -18.5 -62.5t-37.5 -48t-46 -41t-43 -41.5q-17 -7 -30.5 -13.5t-25.5 -18.5q-19 3 -31 -4t-30 -15q-19 3 -37 -3t-35 -6q-46 3 -89 26.5t-68 59.5 q-9 26 -22.5 44.5t-27.5 40.5v14q-29 20 -41.5 52.5t-28.5 66.5q-10 19 -23.5 41t-25.5 43q-3 5 -2.5 10t-2.5 10q-19 27 -48 46q-28 19 -62 27q-22 5 -45 4q-13 0 -25 -1q-36 -4 -66 -21q-60 -2 -100 -20.5t-89 -32.5q-3 9 -7 17.5t-5 19.5z" />
<glyph unicode="a" horiz-adv-x="713" d="M43 261q5 20 4 45t0 50.5t6 49.5t22 39q2 20 11.5 38.5t21 36.5t23.5 35.5t19 38.5q17 14 33.5 29t21.5 43q27 15 42.5 34.5t44.5 36.5q19 10 41 16t41 22q32 -9 61 -7t55 -9q22 -9 40.5 -29t44.5 -29q20 9 35 23.5t45 16.5q10 -14 8.5 -30t-7.5 -36t-14.5 -42t-11.5 -46 q-9 -55 -14 -119.5t-22 -110.5q-7 -17 -8.5 -38.5t-5.5 -38.5q-2 -14 -8.5 -32.5t-10.5 -39.5q0 -3 2 -7.5t2 -7.5q-2 -10 -5.5 -20.5t-4 -20.5t3.5 -18t16 -9q9 -3 24 2.5t24 9.5q3 3 14.5 15t14.5 12q14 -3 14.5 -18t4.5 -32q-22 -14 -41 -32.5t-43 -32.5q-14 -1 -27 -1 q-69 0 -99 41q0 12 -1 22t-6 17q-27 -9 -29 -36q-39 -24 -77 -48q-37 -24 -85 -24h-4q-14 14 -32.5 15t-35.5 4q-12 3 -18 13.5t-23 7.5q-3 9 -9 14.5t-16 7.5q-29 39 -45.5 86t-36.5 93zM154 344q-4 -25 -4 -53q0 -35 7 -73q9 -10 15.5 -22.5t6.5 -31.5q14 -9 21.5 -22.5 t14.5 -30.5q24 -3 39.5 -4t32.5 -8q10 5 18.5 12.5t16 15.5t16 14t22.5 9q12 19 29 36t35 36t35 40t31 50q10 22 17 52t10.5 62.5t6 66t5.5 62.5q3 31 0.5 59.5t-10.5 44.5q-2 3 -10.5 10t-17 14.5t-15.5 13.5l-8 6q-17 7 -31 6t-27.5 -3.5t-27 -6t-29.5 -1.5 q-19 -17 -38.5 -32.5t-38.5 -32.5q-22 -44 -47.5 -88.5t-45 -94t-29.5 -106.5z" />
<glyph unicode="b" horiz-adv-x="733" d="M44 187v15q0 50 9 104q10 60 23 124q11 54 11 105v16q14 31 23 67t16 74t13 76.5t13 74.5q3 17 9 30.5t10 29.5q8 33 8 71q0 6 -0.5 12.5t-0.5 12.5q0 38 8 76q5 29 14.5 55.5t11.5 50.5q0 36 -5.5 72.5t-27.5 55.5q-19 2 -30 -2.5t-19 -6.5q-10 0 -14.5 4.5t-8 9.5 t-7.5 8.5t-13 1.5q0 32 27.5 45t65.5 16.5t79.5 5t68.5 10.5q10 -48 10 -98v-17q-2 -59 -9.5 -118t-17 -117.5t-12.5 -115.5q-3 -53 -10 -103q-5 -35 -5 -68q0 -14 1 -28q19 10 50.5 21t67.5 18t74 7t73 -11q14 -5 24.5 -13.5l21 -17t20.5 -16t22 -9.5q31 -45 42 -105 q9 -50 9 -113v-23q-10 -22 -15 -46t-11 -47t-14.5 -44t-23.5 -37q-5 -29 -19 -51t-30 -41.5t-32.5 -39.5t-28.5 -43q-24 -19 -47 -37t-46 -35q-27 -9 -60.5 -19t-68.5 -16t-71 -7h-7q-32 0 -61 9q-12 5 -20.5 14t-16.5 17.5t-16.5 16t-20.5 9.5q-34 51 -36 110zM152 220 q3 -39 28 -64t49 -47q32 -7 58.5 -4t50.5 12t47 20t48 20q-5 10 8 17t20 15q20 32 43 74t37 95q3 15 3 33.5t4 36.5q7 40 11 80q1 14 1 27q0 23 -4 45q-8 32 -30.5 54.5t-64.5 27.5q-20 3 -38 3q-19 1 -35 -3q-32 -8 -60 -22.5t-51 -33.5t-48 -34q-3 -20 -10 -35.5t-15 -31 t-13 -32.5t-5 -40q-14 -43 -28 -101q-9 -35 -10 -70q1 -21 4 -42z" />
<glyph unicode="c" horiz-adv-x="607" d="M46 229q-4 29 -4 58q0 42 8 86q13 74 27 137q22 19 34 46.5t26 54.5q12 2 19.5 10.5t15.5 -1.5q5 3 1 8t3 10q22 17 43.5 38.5t43.5 40.5t47.5 35t56.5 26q19 -7 36 -1t36 5q22 -2 40 -13t36 -8q19 -14 27.5 -37t22.5 -43q-2 -17 -8 -29t-13.5 -22t-15 -20.5t-13.5 -22.5 q-27 -9 -47.5 -3.5t-33 18t-18 31.5t-1.5 38q-26 10 -47.5 4t-37.5 -19.5t-29.5 -33.5t-24.5 -35q-10 -15 -27 -29.5t-25 -30.5q-26 -41 -41.5 -95.5t-18.5 -108.5q-2 -27 -3 -60t6 -56q7 -20 22.5 -33.5t23.5 -31.5q31 -10 60 -28q23 -14 51 -13q8 0 17 1q26 3 49 19t49 14 q14 10 30 18.5t21 29.5q10 -2 23 -0.5t25 -6.5q3 -12 -0.5 -17t0.5 -21q-19 -26 -51.5 -58t-71.5 -48q-66 -26 -132 -26q-14 0 -27 2q-79 6 -130 50q-19 15 -37.5 39t-27.5 48q-3 10 -1.5 21t-1.5 23q0 10 -5 19.5t-7 20.5z" />
<glyph unicode="d" horiz-adv-x="790" d="M42.5 304q-1.5 22 6.5 46q14 44 35.5 90t34.5 96q26 15 43 36.5t31 48.5q14 2 21.5 11.5t10.5 21.5q24 3 39.5 13.5t30.5 21.5q19 9 35 14t35 10q10 3 17 11t17 12q9 3 18.5 0.5t7.5 11.5q9 -9 26.5 -4t22.5 14q3 0 10.5 -2.5t13 -4.5t11 0.5t6.5 11.5q12 -5 22.5 -10 t29.5 3q9 7 7 14t-1 15q5 49 22.5 99t25.5 104q9 60 11.5 122t17.5 114q-20 9 -41.5 6t-42 -7t-38.5 -4t-28 13q5 22 22 25t36 11q15 5 28 16t30 20q31 17 67.5 24t75.5 10q12 -26 11.5 -63.5t-5 -78.5t-12 -78.5l-12.5 -62.5q-27 -188 -59.5 -381t-68.5 -384 q-3 -15 -9.5 -43.5t-10.5 -57.5t-4 -55t8 -40q12 -19 26 -18t29 7.5t32 12t33 -1.5q2 -31 -13.5 -54t-40.5 -36.5t-57 -17.5q-10 -1 -19 -1q-22 0 -44 6q-10 17 -23 32t-25 30q-27 -7 -59 -16.5t-66 -17t-72 -9.5q-10 -1 -19 -1q-28 0 -55 5q-24 3 -50 19t-46 20 q-22 15 -33 37.5t-30 39.5q-3 12 -3.5 28t-8.5 25q3 17 0.5 36.5t-6 41t-5 43.5zM155 307q-2 -19 -2 -36q0 -33 8 -57q13 -38 40 -55q14 -10 36 -22t48 -21.5t54 -14t54 0.5q34 5 62 27.5t47 51.5q2 38 9.5 70t14.5 63q6 32 10 62q3 21 4 44q0 11 -1 22q18 41 18 88 q0 50 -11 98q-25 5 -49 5q-31 -1 -57 -9q-48 -16 -85 -32q-31 -22 -64 -50t-62 -64t-49 -78t-25 -93z" />
<glyph unicode="e" horiz-adv-x="650" d="M45 420q4 54 28 97q27 114 106 176.5t191 94.5q19 -9 50.5 -6t62.5 -4q39 -26 75 -69q34 -41 34 -99v-6q0 -19 -10 -36.5t-9 -40.5q-15 -19 -30.5 -37.5t-33.5 -37.5q-51 -22 -100 -43.5t-98 -44.5q-9 -2 -11.5 3t-11.5 3q-12 -12 -27 -20.5t-29.5 -17t-26.5 -20.5 t-17 -30q-2 -27 -1 -50.5t9 -42.5q12 -19 32.5 -41t44.5 -27q24 -3 56.5 -1.5t65.5 10t62 22.5t45 34q7 9 8.5 20t6.5 18q10 15 34 35.5t43 25.5q15 -24 12.5 -45.5t-12.5 -42.5t-23 -40.5t-16 -40.5q-26 -41 -77 -67.5t-110 -36.5q-30 -5 -59 -5l-59 5q-59 10 -100 44 q-14 9 -24 27.5t-20 37.5q-17 32 -33.5 82t-24.5 106q-5 37 -4 72q0 20 1 39zM176.5 433.5q2.5 -25.5 23.5 -29.5q10 -2 16 2t11 9t11 8.5t16 1.5q5 3 8.5 10t10.5 10q70 22 125.5 78t70.5 132q-5 12 -11.5 22.5t-15.5 18.5q-16 2 -31 2q-48 0 -85 -22q-48 -29 -84 -72 q-3 -12 -4.5 -14.5t-3.5 -16.5q-14 -2 -28.5 -27t-23 -56t-6 -56.5z" />
<glyph unicode="f" horiz-adv-x="749" d="M44.5 -48.5q-1.5 9.5 4.5 22.5q14 5 23 19q15 0 30.5 -1.5t28.5 -10.5q9 -19 22.5 -35t17.5 -42q10 -5 18.5 -12.5t22.5 -4.5q12 2 23.5 19t22 41t19 50.5t13.5 45.5q3 17 2.5 25.5t-0.5 21.5q0 24 7.5 49t11.5 44q0 9 -2 19t-2 20q2 17 5.5 34t6.5 41q3 19 6.5 39.5 t7.5 38.5q3 27 4 54.5t6 51.5q3 24 13.5 52t13.5 61q0 3 -1.5 10t-1.5 10q2 9 8.5 23.5t10.5 29.5q2 14 -1.5 26t4.5 20q-9 3 -23 1t-21 -6q-9 7 -20 1t-26 -1q-3 24 1 48t17 34q36 3 56 4t43 10q2 32 4.5 57.5t18.5 49.5q-2 14 1.5 26l7 24t6.5 23t2 23q9 7 13.5 19t1.5 25 q3 2 8.5 3t6.5 8q-2 24 4.5 38t11.5 32q29 15 39 47q20 3 29.5 15.5t23.5 20.5q3 3 6.5 0t8.5 0q24 19 53 16.5t55 -2.5q7 -9 13.5 -9.5t20.5 -4.5q12 -14 23 -26.5t25 -26.5q2 -10 3.5 -20t4.5 -19q-3 -7 -4 -17t-4 -19q-14 -17 -34.5 -22t-39.5 14q-7 14 -12.5 28 t-17.5 23q-10 9 -23 7t-23 8q-24 -14 -38 -37.5t-36 -39.5q-19 -38 -35 -72.5t-21 -79.5q-12 -24 -19 -51t-5 -61q34 -7 61.5 1.5t59.5 11.5q14 -14 18 -37.5t-9 -37.5q-41 0 -78 -11.5t-71 -11.5q-12 -24 -13.5 -50t-2.5 -52t-4.5 -52t-15.5 -50q5 -14 1 -24.5t-8 -24.5 q-3 -12 -0.5 -19t0.5 -19q-3 -20 -10 -46.5t-10 -52.5q-3 -19 -1.5 -39t-10.5 -31q-3 -29 -0.5 -56t0.5 -51q-2 -14 -7 -24t-7 -22q-2 -5 2 -11t0 -11q-2 -32 -11 -59.5t-22 -53.5t-26.5 -50.5t-24.5 -51.5q-12 -10 -26 -14.5t-18 -18.5q-27 -9 -60.5 -12t-60.5 -1 q-3 10 -12.5 11.5t-18.5 8.5q-14 12 -21.5 28t-22.5 25q-2 10 -7 19.5t-8.5 18t-5 18z" />
<glyph unicode="g" horiz-adv-x="704" d="M-67 -193q3 15 13.5 30t9.5 32q17 12 42.5 23t49.5 -1q2 -27 0 -54.5t-0.5 -53t7.5 -48t22 -37.5q19 -19 48 -26t63 -9.5t72.5 -3t74.5 -5.5q32 12 60 29.5t48.5 42.5t30.5 59q5 20 5 43q0 17 -3 37q-9 46 -39.5 69t-72 34.5t-91 14.5t-92.5 10q-26 17 -57.5 29t-51.5 39 q-9 2 -10.5 -2t-10.5 -1q7 14 1 20.5t-9 17.5q-1 11 -1 21q0 24 6 43q7 26 20.5 46.5t30.5 37.5t32 36q-19 46 -34 98t-17 120q0 65 29 129t68 102q19 19 52.5 42t72 37.5t77.5 15.5h1q39 0 71 -27q20 3 30 -3.5t24 -11.5q5 0 5 6.5t4 8.5q34 10 70 19q32 7 61 7h7 q24 -9 43.5 -33t24 -48.5t-11.5 -43.5q-15 -17 -53 -17h-12q-3 10 -10 22t-15.5 19.5t-19.5 8.5t-23 -11q14 -44 14 -83q0 -4 -1 -7q-1 -43 -9 -99q-2 -7 -6.5 -10.5t-5.5 -10.5q-3 -41 -19 -71.5t-36 -54.5t-43.5 -45.5t-43.5 -46.5q-24 -3 -46 -18.5t-48 -19.5 q-14 -3 -26.5 1t-21.5 -8q-17 0 -31.5 9.5t-33.5 6.5q-14 -2 -30.5 -14t-33 -29t-27.5 -35.5t-11 -34.5q0 -14 10.5 -22.5t11.5 -21.5q14 -9 27.5 -13t27.5 -13q32 -3 63.5 0.5t60.5 6t58 2.5t58 -9q15 -14 30 -19.5t39 -12.5q20 -26 37 -59t28.5 -72.5t14.5 -82.5v-14 q0 -36 -10 -74q-5 -9 -13 -15.5t-16 -17.5q-10 -14 -19.5 -30t-28.5 -29q-7 -5 -19 -13t-25.5 -15.5t-26.5 -15.5t-21 -11q-36 -17 -65 -17h-77q-27 0 -52 -3.5t-45 10.5q-24 -3 -45.5 1t-34.5 17q-55 10 -81 48q-10 0 -15 5t-14 -1q-19 26 -34 63q-10 24 -10 53q0 15 3 32z M187 417.5q-3 -33.5 9 -50.5q7 -12 24 -19.5t36.5 -11t40 -2.5t38.5 7q9 3 15.5 10t16.5 16q9 7 19 11t17 11q60 53 83 143q11 41 11 86q0 51 -14 106q-14 12 -37 19.5t-49.5 9t-52 -1.5t-42.5 -12q-14 -7 -33.5 -27.5t-29.5 -40.5q-14 -24 -28.5 -59t-17.5 -69 q-2 -15 0 -31.5t0 -31.5q-3 -29 -6 -62.5z" />
<glyph unicode="h" horiz-adv-x="738" d="M43 31q27 138 46.5 266t35.5 271q15 15 17 24q0 44 6 83.5t14.5 78t15 75t6.5 76.5q10 32 20 75q10 42 14 88q3 27 2 53q0 17 -1 35q-3 44 -18 80q-17 7 -38 1t-38 2q0 15 9 25.5t23.5 18t32 12.5t30.5 12q29 12 60.5 23t55.5 25q10 -7 19 -19.5t12 -27t-1 -29t-18 -25.5 q0 -65 -10 -128.5t-23 -129.5t-23 -132.5t-10 -138.5q9 -19 17 -19.5t18.5 7t22.5 18t27 11.5q12 19 30.5 29.5t42 14.5t48 4h50.5q10 -7 25.5 -13.5t29 -14.5t21 -18t0.5 -24q27 -5 31 -33t15 -64q9 -30 9 -64q-1 -5 -1 -10q-2 -40 -9 -82t-18 -84t-16 -79q-6 -40 -6 -80 v-12v-6q0 -42 -13 -78q3 -12 16 -13t28.5 0t29 -0.5t16.5 -13.5q-32 -58 -114 -70q-38 7 -56.5 30.5t-24.5 59.5q-4 23 -4 49q-1 16 1 32q4 44 11 88q2 12 6 21.5t6 19.5q3 19 0.5 36t-0.5 32q3 31 16 57.5t14 50.5q5 27 5 53q0 14 -2 26q-4 38 -18 64q-16 26 -42 40 q-19 10 -46 9q-10 0 -21 -1q-39 -7 -80.5 -34t-59.5 -58q-3 -3 -5 -12.5t-6 -14.5q-5 -7 -12.5 -9.5t-12.5 -6.5q-10 -19 -13.5 -41t-5.5 -53q-3 -70 -18.5 -151t-36.5 -139q0 -14 1 -33.5t-0.5 -41.5t-8.5 -41.5t-19 -31.5q-10 -7 -26 -13t-33.5 -7.5t-31 2.5t-16.5 18z M130.5 193.5q-0.5 0.5 2.5 -2.5t2.5 -2.5l-2.5 2.5zM188 906.5q2 -1.5 5 1.5q2 0 0 2.5t-5 -0.5q-2 -2 0 -3.5z" />
<glyph unicode="i" horiz-adv-x="399" d="M47 607.5q8 25.5 25.5 51t41.5 43.5t48 13q17 -3 24 -13.5t27 -13.5q27 -43 29 -89q1 -10 1 -21q1 -36 -7 -74q-8 -50 -24 -101t-23 -103q-7 -50 -9 -104q-1 -14 -1 -29q0 -40 5 -80q9 -9 16.5 -8t12.5 -2q5 3 8 9l5.5 11t6.5 8.5t13 3.5q12 -10 11 -30.5t-10 -34.5 q-7 -12 -21 -22t-31.5 -15t-36 -5t-32.5 10q-17 15 -29.5 27t-20.5 28.5t-11.5 38.5t0.5 56q3 39 16 83.5t21 90.5q14 55 17.5 102.5t22.5 93.5q-5 17 -4.5 28.5t7.5 24.5q-12 12 -24 13t-24.5 -4t-24.5 -12t-24 -10q-9 10 -1 35.5zM203 925q-3 17 2 35t12.5 35t16 34 t12.5 31q20 7 34.5 13.5t38.5 6.5q29 -22 34 -58q1 -10 1 -20q0 -25 -8 -49q-12 -33 -42 -56q-24 -19 -54 -19q-6 0 -13 1q-9 14 -19.5 21.5t-14.5 24.5z" />
<glyph unicode="j" horiz-adv-x="358" d="M-174 -121q3 24 4 41.5t15 31.5q15 -3 21 3.5t15 10.5q32 3 46.5 -25t2.5 -62q19 -12 41 -12q12 0 25 3q38 11 52 40q5 24 9 41t13 35q2 7 -1.5 9.5t-5.5 6.5q12 27 23 58.5t4 60.5q7 3 9.5 10t3.5 14t3.5 13t9.5 9q-3 15 1 31.5t8.5 32t7 30.5t-2.5 31q31 90 37.5 180.5 t8.5 189.5q-20 -7 -46 -7t-46 2q-9 20 4 34t26 22q24 15 62.5 30.5t57.5 31.5q10 -3 15 2t14 1q9 0 9.5 -7.5t7.5 -11.5q-3 -39 -8 -78q-4 -23 -4 -41q0 -14 2 -26q-14 -14 -10.5 -30.5t-0.5 -35.5q0 -3 -3 -6.5t-3 -7.5q-9 -26 -7.5 -54.5t-1.5 -63.5q-3 -20 -5.5 -54 t-9.5 -58q-2 -9 -7 -18.5t-9 -17.5q-2 -9 -1 -18t0 -18q-5 -24 -16.5 -48t-7.5 -53q-10 -26 -19 -64t-17 -69q-9 -36 -20 -65t-23 -58q-22 -32 -57 -45t-74 -26q-14 5 -27.5 7.5t-29.5 -4.5q-27 14 -55 27.5t-40 44.5zM213 975q0 20 6 40.5t16.5 34t25.5 19.5t34 -1 q7 -3 7 2t7 3q12 -10 24 -19t22 -21q-9 -24 -12 -46.5t-14 -42.5q-22 -10 -49 -14.5t-46 12.5q-9 7 -10.5 17t-10.5 16z" />
<glyph unicode="k" horiz-adv-x="590" d="M46 5q-2 20 -2 37.5t2 33.5q5 32 13 60t14 55t2 58q23 28 23 60v26q0 24 1 49q3 58 16 115t22 98q-5 20 -3.5 43.5t4 48t6 47.5t3.5 44q-1 21 -1 49v30q1 47 4 95q2 9 4.5 16.5t5.5 17.5q-5 15 -17 20.5t-25.5 8t-27 6.5t-20.5 16q0 14 4.5 22.5t9.5 17.5q19 0 40 6.5 t43 14.5t42.5 13t39.5 1q15 -3 18.5 -15t19.5 -20q-3 -55 -12.5 -110.5t-15.5 -110.5q-2 -14 -7 -25.5t-3 -25.5q-2 -24 -2 -43.5t-8 -36.5q0 -9 2.5 -17.5t2.5 -14.5q-3 -9 -7.5 -14t-6.5 -12q-2 -19 0 -37t-1 -35q-5 -44 -12 -97q-5 -41 -5 -75v-19q12 10 18 23t11.5 26 t13.5 24t21 19q3 24 17 37t21 37q31 19 57.5 44.5t68.5 33.5q17 -9 33.5 -13t30 -10.5t24.5 -18t16 -29.5q3 -20 3 -35q0 -22 -6 -34q-10 -20 -39 -34q-12 -12 -19 -13q-15 -2 -26.5 4t-20 13.5t-16 15t-17.5 7.5t-24 -9t-26 -24.5t-18.5 -34.5t-1.5 -37q3 -15 16 -27.5 t23 -29.5q14 -20 27.5 -51t18.5 -61q9 -55 12 -93.5t19 -74.5q17 -2 30 4.5t23 12.5t19.5 10t19.5 -1q-5 -20 -7.5 -40.5t-18.5 -39.5q-10 -14 -29.5 -19t-41 -5t-43.5 5t-39 12q-22 22 -24 62q-2 33 -3 69q1 7 1 14v9q0 38 -4 72q-4 38 -30 61q2 9 2.5 13.5t-2.5 13.5 q-7 7 -16.5 8t-19.5 -1t-20 -4.5t-21 -0.5q-22 -15 -31.5 -36.5t-13 -46.5t-3.5 -50.5t-5 -49.5q-2 -15 -8.5 -29t-6.5 -27q-3 -20 -5 -37.5t-2 -34.5q-27 -5 -51 -2.5t-53 2.5z" />
<glyph unicode="l" horiz-adv-x="370" d="M44 63q-2 32 3.5 61.5t13 57.5t14.5 56t9 61q12 17 17 38t7.5 44t6 46.5t11.5 41.5q-3 7 -3 13t-2 13q14 14 12 38.5t2 48.5q2 12 7.5 22t10 20.5t6 21.5t-3.5 23q17 36 20.5 75t10.5 75q2 10 6 20.5t8 22.5q3 10 -0.5 21t0.5 20q3 9 10 22.5t2 26.5q-3 10 -19.5 17 t-34.5 13t-31 13t-11 19q0 7 13 14.5t28 13.5t31.5 12t24.5 11q24 14 42 26.5t52 16.5q22 -9 19.5 -25t-9.5 -35q-5 -19 -7.5 -42t-5 -45t-7.5 -42t-15 -32q5 -10 3 -19.5t-4.5 -18.5t-3.5 -19.5t3 -22.5q0 -7 -5 -8.5t-5 -10.5q3 -14 1.5 -23t-4 -18.5t-4.5 -20.5t2 -25 q-14 -19 -16 -48.5t-13 -50.5q5 -14 2.5 -21.5t-6.5 -17.5q2 -22 -2.5 -45t-12.5 -40v-14q1 -48 -17 -98q-20 -57 -34 -115q-5 -24 -11.5 -49.5t-2.5 -49.5q2 -10 10.5 -28t20.5 -22q24 -5 39 9t32 22q3 -26 -4.5 -43.5t-21 -31.5t-31.5 -25t-33 -21q-9 -3 -10.5 1t-5.5 7 q-14 -9 -27 -5t-27 11.5t-26.5 18.5t-23.5 18zM225 625q2 -3 2 -2.5v2v2.5t-2 -2z" />
<glyph unicode="m" horiz-adv-x="1102" d="M43 51q7 46 15.5 75t26.5 63q-3 34 7 57.5t14 53.5q3 3 5.5 7t9.5 4q-14 9 -2.5 28t12.5 40q2 26 5.5 49.5t1.5 45.5q22 38 24 92q1 18 1 36q0 36 -3 72q-14 17 -28 17t-29.5 -6.5t-30 -15.5t-26.5 -9v7q0 35 30 65q32 33 69 46q14 2 26 2q27 0 47 -8q28 -11 50 -30 q0 -22 12 -32q40 44 100 67q33 13 74 13q32 0 68 -8q20 -5 35.5 -16.5t28.5 -26t24.5 -30t26.5 -25.5q27 19 46.5 44.5t52.5 41.5q31 5 59.5 8.5t54.5 0.5t46 -12t36 -30q14 -20 25 -54t19 -75q8 -40 10 -82q1 -23 1 -44q0 -17 -1 -33q0 -39 -11 -63q-2 -38 -7 -81.5 t-7 -85.5q-1 -13 -1 -25q0 -28 4 -54q4 -38 22 -63q15 -3 32.5 4.5t41.5 2.5q-9 -32 -38 -53t-58 -22q-26 -2 -42.5 10.5t-29.5 31.5t-21.5 40.5t-18.5 38.5q0 82 8.5 151t14.5 133q4 45 4 89q-1 18 -1 37q-2 62 -23 131q-9 10 -19 17.5t-19 18.5q-29 3 -45 -4t-40 -7 q-20 -20 -35.5 -45t-34.5 -45q-14 -68 -22.5 -130.5t-31.5 -120.5q2 -10 3 -19q0 -27 -20 -49q-3 -60 -9.5 -117t-26.5 -112q-34 3 -55.5 -3.5t-50.5 -6.5q3 49 11.5 96t16.5 93t14 92q5 34 5 71q0 12 -1 25q0 9 7 8.5t7 8.5q-2 19 2 37.5t8.5 38.5t7 37.5t-0.5 36.5 q-5 19 -15.5 31t-23.5 21.5t-27.5 17t-27.5 17.5q-14 -3 -28.5 -6.5t-22.5 5.5q-10 -14 -29 -19t-35 -14q-7 -17 -18 -24.5t-17 -24.5q-3 -12 -3.5 -26t-0.5 -27.5t-2.5 -25.5t-12.5 -20q1 -8 1 -16q0 -24 -6 -50q-8 -35 -19 -52q-3 -9 5.5 -12t1.5 -7q-26 -72 -37 -147 t-35 -152q-29 -15 -65 -19q-9 -1 -18 -1q-26 0 -48 10z" />
<glyph unicode="n" horiz-adv-x="798" d="M44 686q2 22 21 42t46 33.5t58 20t56 3.5q17 -19 31.5 -39.5t33.5 -37.5q20 2 32.5 10.5t22.5 19.5t21 21.5t27 15.5q9 3 16 -1t18 -3q17 3 37.5 11t38.5 12q22 2 47 -2t49 -2q34 -10 56.5 -37.5t33.5 -65.5q11 -39 13 -85l2 -24q0 -34 -6 -69q-5 -44 -12.5 -96.5 t-14.5 -100.5t-11 -94q-2 -18 -3 -36q0 -27 5 -54q27 -3 42 3t38 9q17 -12 11.5 -29t-7.5 -38q-10 -19 -29 -36.5t-43 -28t-50.5 -9.5t-50.5 20q-41 63 -41 143q0 4 -1 7q0 77 10 157q9 84 19 168q3 27 4 54q0 55 -14 106q-34 24 -83 32q-17 3 -34 3l-64 -10 q-15 -5 -26.5 -20.5t-30.5 -28.5q-14 -10 -28 -19.5t-23 -28.5q-12 -27 -15.5 -70t-13.5 -82q-5 -24 -6.5 -59t-5.5 -72q-5 -41 -14.5 -80.5t-14.5 -76.5q-3 -24 -4 -49t-5.5 -47t-13 -40t-28.5 -30q-17 0 -32.5 2.5t-34.5 -0.5q-15 29 -7.5 59t11.5 53q3 19 -0.5 38t0.5 38 q3 39 15 74.5t14 71.5q2 48 9.5 96.5t12.5 103.5q2 20 2 39q0 16 -2 32v13q0 28 9 51q-10 17 -19 18t-18.5 -5t-18 -13t-18.5 -4q-20 7 -19 43z" />
<glyph unicode="o" horiz-adv-x="691" d="M43 350q0 22 7.5 46t5.5 43t-1.5 30.5t8.5 39.5q7 27 12 45t19 40q9 17 26.5 34t31.5 34q22 26 33 39.5t33 23.5q3 3 7.5 2.5t6.5 2.5q10 9 41 22.5t55 17.5q38 8 70 10q9 0 18 1q24 0 53 -3q14 -14 26 -20.5t32 -9.5q36 -39 62.5 -86.5t45.5 -101.5q3 -54 9 -98 q4 -30 4 -60q0 -14 -1 -28q-3 -17 -10 -32.5t-11 -32.5q-3 -9 -2 -21.5t-3 -22.5q-2 -5 -7.5 -17t-13.5 -26t-15.5 -27.5t-12.5 -20.5q-24 -34 -50.5 -57t-65.5 -44q-34 -20 -66.5 -35.5t-78.5 -28.5q-26 -9 -58.5 -2t-56.5 8q-121 58 -147 200q0 10 14 10 q-10 24 -14.5 57.5t-5.5 67.5zM164 285q0 -43 3 -84.5t10 -77.5q17 -19 46 -23t53 -1q10 2 25 8t31 13.5t29.5 14.5t20.5 12q32 24 53.5 53.5t44.5 46.5q-5 22 7.5 50.5t22.5 48.5q-3 17 0.5 34.5t8.5 34.5t6.5 34t-4.5 34q5 23 5 46q0 27 -7 55q-12 50 -40 83.5t-69 41.5 q-8 2 -16 2q-34 0 -73 -28q-15 -12 -41 -35t-38 -37q-17 -20 -23 -39t-16 -43q-9 -19 -20.5 -38.5t-16.5 -38.5q1 -20 1 -40t-1 -42q-2 -42 -2 -85z" />
<glyph unicode="p" horiz-adv-x="779" d="M-128 -476q-2 17 19.5 23t29.5 2q19 9 37 16t37 5q14 15 29 29t29.5 30t24 36.5t12.5 49.5q2 3 5.5 3t5.5 6q-3 16 -3 31q0 25 8 48q15 38 24 86q3 36 10 71t10 69q15 85 26.5 179t23.5 186q10 10 13.5 25.5t6 32.5t6 32.5t13.5 25.5q-5 5 -3.5 14.5t4 20t2.5 21.5 t-10 19q-17 -15 -27 -34.5t-20.5 -39t-22.5 -37t-32 -27.5q-2 -17 -9.5 -30.5t-17 -26.5t-19 -25.5t-14.5 -28.5q-10 0 -14.5 -7.5t-19.5 -4.5q-7 27 -2 48t13.5 38l17 34t12.5 37q27 39 52.5 79.5t44.5 84.5q7 9 21 17q14 49 36.5 98t33.5 104q2 12 1 21t0 21q2 10 7 18 t7 16q3 14 2.5 27t-0.5 25.5t2.5 23t10.5 18.5q24 -3 57 3q12 2 25 2q19 0 38 -5q6 -28 6 -57v-9q-1 -33 -4.5 -66t-9.5 -65.5t-9 -63.5q23 -3 44 -3q15 0 29 2q34 3 63 -6q22 -9 37.5 -22.5t34.5 -16.5q0 -9 5 -12t3 -12h21q38 -31 61 -73.5t32 -93.5q8 -43 8 -89v-15 q-2 -55 -14 -108q-15 -15 -18 -37t-11 -43q-3 -3 -8.5 -4t-6.5 -4q-3 -7 -2.5 -15.5t-3.5 -17.5q-12 -24 -30.5 -49.5t-23.5 -52.5q-14 -7 -24 -18t-21.5 -21.5t-24 -17t-29.5 -5.5q-5 -9 -15.5 -11t-13.5 -8q-24 3 -43 4.5t-37 -7.5q-14 5 -32 8.5t-36 8.5t-35 11t-29 15 q-15 -5 -14 -19.5t-1 -25.5q-12 -67 -25.5 -138.5t-22.5 -142.5q-3 -22 -0.5 -42t14.5 -32q-3 -2 -4 -9.5t-10 -0.5q10 -10 18.5 -24.5t18 -27.5t23 -20.5t34.5 -4.5q2 -15 15.5 -18.5t18.5 -13.5q2 -14 -5 -20.5t-10 -15.5h-78.5h-93t-95.5 1t-85 4q-12 0 -29 -1.5 t-32.5 -1.5t-28 3.5t-14.5 13.5zM295 188q19 -19 36 -38t38 -34q5 15 14 6.5t18 -8.5q29 3 51 16t50 20q-3 15 6 23t18 15q0 5 3 11t2 14q20 14 35.5 46.5t22.5 69.5q2 20 7 30.5t8 24.5q3 18 3 36q0 14 -2 28q-4 33 6 62q-12 56 -32.5 102.5t-54.5 75.5q-29 11 -58 11 q-9 0 -18 -1q-38 -5 -69 -19q-5 -68 -19 -128.5t-27.5 -119.5t-24.5 -118.5t-13 -124.5z" />
<glyph unicode="q" horiz-adv-x="720" d="M46 270q-4 18 -4 38q0 23 6 50q10 48 20 94q9 34 21.5 69t24.5 59q24 43 52.5 76t41.5 63q19 9 33.5 19t28.5 21q19 -3 30 1.5t23 12.5q22 -5 37 2.5t31 11.5q20 2 36.5 -1t33.5 -7t36.5 -6.5t45.5 2.5q5 -14 21.5 -15.5t26.5 -10.5q19 14 35 18t34 6q10 -15 14 -34.5 t1 -39.5t-9 -36t-14 -26q-2 -20 -1 -41t-13 -33q3 -15 0 -28.5t-7.5 -26.5t-6 -26t5.5 -25q0 -10 -8.5 -13.5t-8.5 -15.5q2 -34 -5 -63t-13 -57t-9.5 -57t5.5 -63q-20 -55 -26.5 -116.5t-21.5 -120.5q2 -26 -2.5 -51t-9.5 -48.5t-7 -46.5t3 -49q-3 -7 -7.5 -10.5t-2.5 -15.5 q15 -24 18.5 -49.5t17.5 -40.5q10 -14 24.5 -19t31.5 -9.5t31.5 -12t25.5 -22.5q-19 -14 -43 -12t-44 2q-39 0 -84.5 0.5t-91 0.5t-87 -2.5t-74.5 -9.5q-10 15 -41 4q-2 14 -10 13t-17 11q3 5 1.5 13.5t-1.5 16.5q5 2 5 9q17 7 32.5 8.5l31 3t30 5t31.5 14.5q9 2 12 -2.5 t7 -6.5q12 10 19.5 21t15.5 25q3 5 10 7.5t9 6.5q15 24 23 62t11 67q3 14 9.5 27t6.5 26q3 24 3 50.5t5 48.5q3 24 -1 40.5t-7 40.5q-20 -3 -39 -12t-37 -17.5t-35 -14.5t-34 -6q-3 0 -1 -8.5t-5 -5.5q-29 -7 -59.5 -0.5t-59.5 9.5q-12 3 -18 12.5t-25 4.5q-12 14 -17 30 t-13 33q-3 7 -9.5 14t-9.5 15q-14 34 -15 77t-4 72zM184 265.5q0 -33.5 4 -60.5q5 -34 25.5 -60.5t45.5 -33.5q14 -3 27 2.5t26 7.5q22 2 39.5 9.5t33.5 17t33 19t38 14.5q7 22 0 46q9 20 8 46t5 50q3 19 8.5 35t8.5 31q5 24 3.5 45.5t20.5 31.5q-1 12 -1 25q0 45 9 90 q11 57 11 108q-27 15 -52 15.5t-49 -7.5t-46 -19t-44 -18q-15 -24 -36.5 -41.5t-42.5 -38.5q-3 -29 -22.5 -58.5t-29.5 -64.5q-7 -26 -12.5 -58t-8 -66t-2.5 -67.5z" />
<glyph unicode="r" horiz-adv-x="658" d="M43 43q14 55 18 112t12 116q3 27 13 53t13 53q3 26 1.5 53t1.5 56q5 36 20 70.5t16 63.5q3 26 -13 47q-14 7 -33.5 1t-33.5 3q-5 20 8.5 41.5t23.5 41.5q15 2 32.5 9.5t34.5 16t34 14t34 1.5q19 -3 26 -18.5t22 -25.5q26 10 49.5 24.5t48.5 26.5t52.5 19t59.5 0 q9 -3 22.5 -10t27 -16.5t25.5 -19.5t17 -17q15 -19 25.5 -44.5t13 -53t-2.5 -52t-22 -43.5q-17 -9 -40 -12t-47 2q-19 9 -25 30t-9.5 45t-10 44.5t-25.5 28.5q-10 1 -19 1q-27 0 -52 -10q-33 -14 -52 -42q-2 -2 -2 -3l-2 -2q-7 -19 -19.5 -41t-25.5 -46t-23 -49t-15 -47 q-2 -10 0 -19.5t0 -19.5q-2 -14 -8.5 -24t-10.5 -24q-19 -89 -27.5 -181t-28.5 -164q-15 -9 -30 -15.5t-33 -9.5q-20 15 -41 36z" />
<glyph unicode="s" horiz-adv-x="556" d="M46 102q-9 34 5 49.5t29 32.5q27 9 47 3t33.5 -20.5t22 -34t15.5 -40.5q31 -9 54.5 -2.5t38 23.5t17.5 41.5t-9 53.5q-2 7 -9 9.5t-10 11.5q-3 5 -1.5 11.5t-2.5 10.5q-3 5 -8 7.5t-9 6.5q-7 10 -9.5 20t-8.5 19q-5 5 -16.5 15t-22.5 21.5t-20.5 21.5t-14.5 19 q-9 17 -11 40t-14 31q0 9 4 16.5t4 16.5q3 24 1.5 46t7.5 42q0 3 5 5t8 6q7 19 12 42t14 36q5 7 15.5 14t16.5 15q34 48 82 80q26 -3 47.5 -0.5t43.5 -2.5t46.5 -23t40.5 -43q18 -26 22 -58q1 -6 0 -12q0 -26 -15 -52q-22 -9 -43 -6t-36 12.5t-23.5 24.5t-8.5 34 q0 7 3.5 16.5t5 18t-2 15t-17.5 10.5q-29 -5 -45 -24t-40 -29q-14 -31 -14 -69v-8q2 -43 11 -72q2 -9 9.5 -8.5t10.5 -6.5q22 -39 48 -70t47 -64q21 -34 32 -76q6 -25 6 -56q0 -23 -3 -51q-7 -49 -43.5 -90.5t-81.5 -61.5q-18 -10 -50 -13q-15 -1 -30 -1q-17 -1 -35 1 q-33 4 -62 12.5t-43 22.5q-9 5 -26 28t-20 33z" />
<glyph unicode="t" horiz-adv-x="512" d="M49 638q-6 19 -6 32q1 19 13 28q22 14 55.5 16.5t67.5 4t46 25.5q0 34 4.5 72.5t9.5 81.5q3 22 2.5 46t7.5 32q10 12 23 9.5t26.5 -12t26.5 -18.5t25 -11q1 -16 1 -31q0 -19 -2 -37q-4 -30 -10 -58t-9.5 -53.5t-0.5 -52.5q7 -5 16.5 -4.5t17 0.5t13.5 -0.5t8 -9.5 q10 10 24.5 11t27.5 -3.5t21.5 -13t10.5 -16.5q2 -22 -14.5 -31.5t-41.5 -12t-54 -1t-51 -0.5q-17 -14 -18.5 -35t-5.5 -48q-3 -39 -17.5 -77.5t-19.5 -77.5q-3 -22 -6.5 -57.5t-6.5 -71.5q-2 -27 -2 -54v-17q1 -34 6 -55q3 -10 14.5 -23t19.5 -13q17 -3 36 4t36 17t34 17.5 t33 6.5q-5 -26 -18 -44.5t-29.5 -34t-33.5 -30t-29 -31.5q-31 -5 -59.5 -8.5t-52.5 10.5q-9 19 -16.5 25.5t-16.5 16.5q-15 45 -19 103q-2 29 -2 58q0 30 2 60q4 60 14 114t24 90q-3 5 -0.5 14.5t-6.5 6.5q15 27 18.5 56t7.5 65q-10 9 -30 13t-41 5.5t-41 1.5h-32z" />
<glyph unicode="u" horiz-adv-x="750" d="M43 660q0 17 12 32.5t29.5 29.5t37.5 25.5t33 20.5q15 9 40.5 7.5t45.5 -10.5q19 -52 19 -110q0 -59 -10 -127q-8 -64 -19 -127t-14 -121q-1 -11 -1 -21q0 -45 12 -71q14 -31 54 -50q26 -4 49 -4q63 0 101 28q54 38 84 105.5t43.5 149t32.5 155.5q7 27 5.5 54.5t-1.5 52 t6 44t26 30.5q10 2 18 2q28 -1 41 -19q16 -24 17 -58v-9q0 -33 -6 -67q-7 -40 -10 -66q-9 -53 -16.5 -112t-16.5 -105q-3 -9 -6.5 -13t-6.5 -12q-5 -14 -3.5 -30.5t-1.5 -31.5q-3 -29 -13 -53.5t-6 -52.5q3 -10 11.5 -20t5.5 -19q15 0 23.5 7t15.5 15.5l14 17t17 13.5 q3 -18 3 -35q0 -21 -4 -40q-8 -36 -30 -59q-22 -22 -52 -30q-9 -2 -19 -3q-22 0 -47 12q-19 2 -27 17t-14 33t-12 33.5t-22 18.5q-12 2 -24 -6.5t-23.5 -20.5t-25.5 -25t-31 -20q-32 -12 -65.5 -12.5t-87.5 -0.5q-17 14 -37 25.5t-40 23.5q-3 27 -21 45t-24 42 q-5 20 -4 49.5t4.5 61t8.5 64.5t8 62q3 12 8.5 24t7.5 23q3 14 1.5 29t-1.5 27q3 15 7.5 27t5.5 27q2 10 1 22.5t-1 20.5q3 17 9.5 33.5t9 29t-2 23t-21.5 18.5q-14 -3 -26.5 -11t-25 -13t-24.5 -5.5t-24 10.5z" />
<glyph unicode="v" horiz-adv-x="682" d="M44 178l4 76q-3 9 4.5 6.5t5.5 2.5q2 53 27.5 118.5t49.5 120.5q-3 19 2 35t12.5 30.5t16 29t13.5 31.5h-22.5t-26 5t-20.5 15.5t-2 29.5q51 14 97 33t104 25q14 -12 15.5 -31t-1.5 -39q-9 -9 -15 -18.5t-14 -16.5q-15 -44 -36.5 -94.5t-40.5 -105t-30 -113.5 q-7 -36 -7 -73q0 -23 3 -47q3 -26 13.5 -48t28.5 -36q22 -2 40.5 -2.5t34.5 2.5q32 5 57 17t46.5 28.5t40.5 35.5q20 34 38 69.5t32.5 76.5t22 88t7.5 105q-2 36 -12.5 63.5t-22.5 52.5q-11 26 -21 54q-8 23 -8 54v13q9 19 25.5 25t38.5 10q14 -17 31 -35t16 -42 q2 -3 5 -1.5t6 -0.5q14 -61 38 -107q0 -43 -1 -91.5t-8 -98.5q-5 -55 -31.5 -101t-39.5 -92q-17 -17 -31 -39t-26.5 -44.5t-27 -43t-35.5 -35.5q-20 -15 -44 -22t-43 -26q-19 3 -27.5 -3.5t-16.5 -14.5q-19 2 -37.5 -1t-27.5 -15q-19 3 -44.5 7.5t-42.5 1.5q-15 14 -34 27.5 t-38 25.5q-5 15 -15 26t-22 20q-5 29 -5 57q0 10 1 20z" />
<glyph unicode="w" horiz-adv-x="984" d="M44 693q32 9 58 21.5t65 17.5q36 5 72.5 17t71.5 21q14 -3 18 -18t0 -35q-20 -19 -30.5 -49.5t-27.5 -54.5q-3 -9 3 -7t2 -5q-3 0 -4.5 -2t-6.5 -2q0 -9 3 -13.5t-3 -11.5q-22 -24 -28.5 -61.5t-19.5 -80.5q-9 -27 -23.5 -54.5t-22.5 -66.5q-7 -37 -9 -75q-1 -9 -1 -17 q1 -27 7 -51q8 -30 32 -48q15 -10 38 -9q15 0 33 4q24 17 50.5 31.5t52.5 27.5q3 5 6.5 13t8.5 15q-2 12 -8.5 18t-10.5 16q3 7 1.5 14.5t-3 13.5t-1.5 10t7 4q-12 12 -15.5 27.5t-4.5 32t1 34t0 33.5q0 10 -5 18.5t-5 17.5v10q1 27 9 55q10 34 16 59q7 19 7 34.5t7 25.5 q7 12 19 21.5t23 18t18.5 17t9.5 20.5q20 3 36.5 12.5t32 19t30.5 15.5t34 4q14 -14 27.5 -22.5t22.5 -21.5q0 -24 6.5 -42t11.5 -39q3 -9 -3.5 -8.5t-6.5 -4.5q-2 -5 1 -6t6 -1t5.5 -1t1.5 -4q-12 -65 -27.5 -124t-34.5 -119q-5 -2 -6.5 -7t-10.5 -5q2 -9 -0.5 -13.5 t-0.5 -15.5q-14 -3 -16.5 -12.5t-11.5 -21.5q-9 -15 -15.5 -22t-8.5 -15q0 -10 6 -18t10 -16q12 -29 20.5 -60t20.5 -48q31 -29 61.5 -29t58.5 17t50.5 42t37.5 45q-3 15 5.5 33t21.5 27q-9 14 -1 30t15 25q5 43 13 84q8 42 12 83q3 28 3 57q0 14 -1 26q-2 42 -15 82 q-10 22 -27.5 41t-17.5 53q12 10 20 24t20 24q14 -3 20.5 -3t21.5 -4q19 -27 32 -65.5t19 -79.5q5 -41 7 -81q0 -13 1 -26q0 -25 -2 -46q0 -7 -4.5 -10.5t-6.5 -10.5q0 -9 1 -17q-1 -33 -7 -69q-8 -44 -11 -83q-10 -39 -28 -70.5t-30 -74.5q-31 -15 -49.5 -42.5t-45.5 -49.5 q-3 3 -11 3t-11 -3q-15 -10 -36 -20.5t-43 -17.5t-45 -8.5t-44 7.5q-15 0 -20 -4q-5 7 -14.5 11.5t-19 7.5t-17 9t-9.5 18q-5 3 -13.5 5t-13.5 9q3 14 -2 20.5t-7 15.5q-5 0 -7 3q-24 2 -35 -5.5t-17 -19.5q-29 -9 -58.5 -19t-58.5 -17t-58.5 -6t-60.5 14q-22 24 -41 49.5 t-41 46.5q-11 34 -13 79q-1 20 -1 39q0 22 2 41q29 84 57 168t63 171q-9 10 -25 13t-34 2t-37 -2t-32 4q-5 9 -9.5 21t-1.5 22zM472 460q6 -61 30 -112q22 27 33 62t37 59q4 34 8 78q2 23 2 51q0 24 -2 52q-5 7 -17 9.5t-20 11.5q-5 -12 -13 -23t-15.5 -23t-13 -25t-3.5 -28 q-26 -43 -26 -94q-1 -9 0 -18zM474 403q0 -3 3.5 -3.5t3.5 3.5q-3 0 -4 1.5t-3 -1.5z" />
<glyph unicode="x" horiz-adv-x="730" d="M44 128q3 20 22 40t53 11q10 -10 12 -31.5t7 -41t16.5 -29t40.5 4.5q9 7 13 16.5t12 19.5q3 3 7.5 4t6.5 3q2 3 0 9t2 9q3 5 9 6t11 6q7 5 8.5 15.5t13.5 12.5q0 22 7 40t15.5 35t18.5 34t17 37q1 12 1 23q1 25 -3 49q-4 34 -11 68t-12.5 69t-6.5 75q-10 9 -19.5 24 t-18.5 29q-14 17 -23 22t-30 -12q-14 -10 -20.5 -21.5t-26.5 -14.5q-24 9 -31 29t2 41q7 14 22 21.5t18 22.5q22 5 43 15.5t43 5.5q12 -3 18.5 -12t18.5 -5q9 -17 17.5 -31t15.5 -32q7 -14 13 -29.5t18 -28.5q5 -29 8 -59t16 -51q2 -9 1.5 -17t3.5 -12q3 0 6 -3 q14 5 21.5 16t13 25.5t9.5 30t11 29.5q17 9 25.5 29t13.5 44q29 2 26 41q12 14 24 30t15 42q26 26 56 26h4q32 -2 58.5 -23.5t41.5 -60.5q9 -24 9 -52q0 -17 -3 -35q-9 -9 -22 -15t-14 -23q-26 -2 -39.5 8.5t-20.5 27.5t-9.5 38.5t-2.5 39.5q-14 2 -23 -13.5t-23 -20.5 q-22 -56 -46 -109t-38 -114q-3 -2 -6.5 -3.5t-6.5 -1.5q2 -22 -4 -35t-15 -22q-3 -29 -3 -64t4 -70t11 -69t17 -60q5 2 4 7t8 2q-7 -12 1.5 -17t8.5 -19q27 0 45 4.5t41 2.5q5 -12 17 -19t8 -29q-3 0 -2.5 -3.5t-0.5 -6.5q-19 -5 -26.5 -19.5t-21.5 -19.5q-3 -2 -7.5 1.5 t-7.5 1.5q-9 -2 -10.5 -5t-5.5 -3q-10 -2 -23 0.5t-21 -11.5q-26 3 -41.5 18t-37.5 22q3 12 -2 17.5t-10 11.5q-9 31 -16.5 65t-13.5 61q-3 0 -4 -1t-5 -1q-3 0 -3 -10t3 -7q-15 -14 -27 -28.5t-12 -41.5q-31 -32 -60 -66.5t-63 -63.5q-20 9 -30.5 4.5t-37.5 -0.5 q-9 17 -26 21t-31 18q-17 17 -24.5 52t-4.5 59zM324 621q7 -5 13 1t-1 11q0 -5 -5 -7t-7 -5zM360 500h9q3 17 -9 14v-14zM365 466q3 -7 6.5 -2t-2.5 9q-1 -4 -4 -7zM365 492q-3 -3 1 -9t6 3q-3 0 -3 3t-4 3zM483 498h12v9q-5 0 -7 -3t-5 -6z" />
<glyph unicode="y" horiz-adv-x="609" d="M-422 -276q10 29 34 42q12 7 27 7q16 0 35 -7q15 -41 52 -47q23 -4 51 -4q18 0 39 2q22 2 46 1.5t46 1.5t40 6t32 15q7 9 13.5 15.5t21.5 9.5q10 15 25.5 27t32 23.5t30 26t20.5 34.5q9 0 14.5 9.5t17.5 12.5q3 19 11 32.5t18 25.5q-2 12 1 21.5t7 18t6.5 17t-0.5 18.5 q0 7 6 6.5t9 5.5q-3 22 2 43t10 41t8.5 40.5t-3.5 43.5q3 3 6 6.5t8 10.5q-12 82 -12 154.5t-10 150.5q-10 29 -25.5 59t-32.5 57q-9 0 -18 2t-23 5q-15 -12 -24.5 -20.5t-30.5 -10.5q-5 15 -12 28t2 32q19 14 31.5 29t26.5 34q20 9 40 15.5t42 1.5q7 2 8.5 -1.5t6.5 -3.5 q7 -3 13 0.5t10 -0.5q9 -10 19 -17t17.5 -15.5t12.5 -19.5t5 -31q14 -9 18 -26t8 -36q3 -7 -0.5 -8.5t-6.5 -5.5q5 -3 9.5 -10t7.5 -12q0 -24 2.5 -48.5t-16.5 -38.5q7 2 11 2.5t13 -2.5q7 -15 6 -34t-3.5 -37t-2.5 -36.5t9 -33.5q0 -10 -2.5 -17t-6.5 -14q7 -32 8 -54.5 t2 -59.5q-3 -3 -4.5 -7.5t-10.5 -8.5q3 -19 15 -19q-2 -7 -3.5 -16t2.5 -16q9 14 19 25t19.5 23.5t16 27t6.5 33.5q9 0 11.5 7t10.5 10q-3 10 -1.5 19t5 17.5t7 17.5t1.5 20q7 3 9.5 7.5t6.5 7.5q0 22 6.5 39t13.5 32.5t12 31t2 35.5q15 29 18 75q1 9 1 18q0 35 -11 61 q-7 10 -18.5 18.5t-23.5 17t-22.5 18t-11.5 23.5q-1 7 -1 13q0 33 23 52q27 22 65 23q12 -7 17 -19.5t9 -27t9.5 -28t15.5 -20.5q7 -65 7 -130.5t-19 -129.5q-5 -31 -16 -63t-22 -61q-9 -34 -13.5 -65.5t-28.5 -55.5v-21q-27 -55 -65 -100t-75 -89q0 -9 1.5 -10t-1.5 -9 q-12 -14 -26.5 -25t-18.5 -35q-14 -7 -20.5 -16t-18.5 -16v-17q-39 -22 -68 -48t-53 -60q-7 2 -9.5 -4t-11.5 -4q-17 -20 -35.5 -40t-46.5 -42q-19 -9 -36.5 -12.5t-39.5 -11.5q-12 -2 -26 -10.5t-29 -11.5q-27 -7 -59 -6h-12q-26 0 -54 -3q-34 -3 -62 -9t-52 2 q-34 12 -52 42t-20 68zM-364 -305q2 2 4 1t2 2q-5 0 -6 -3zM297 609q5 1 5 4q-3 -2 -4 -1t-1 -3z" />
<glyph unicode="z" horiz-adv-x="783" d="M44 40q4 18 16.5 34t25.5 33.5t13 35.5q14 -2 20 11t2 20q20 3 23 22t11 33q5 10 13 17t16.5 13.5t14.5 15t6 22.5q14 5 25.5 15.5t13.5 30.5q39 29 72.5 65t64 74.5t62 76t67.5 71.5q-19 9 -36.5 10.5t-41.5 4.5q-24 19 -49.5 32.5t-59.5 3.5q-14 -2 -18.5 -12 t-12.5 -24q-3 -2 -7.5 1t-6.5 -1q-3 -3 -2.5 -8.5t-2.5 -8.5q-15 -20 -35.5 -28.5t-29.5 -20.5q-15 2 -23 10t-21 13q-9 26 -9.5 56.5t12.5 54.5q14 12 32 22.5t19 34.5q26 3 42 16.5t39 22.5q22 -9 40.5 -20t42.5 -2q9 -14 21 -23.5t34 -9.5q10 -17 23 -19.5t30 -10.5 q39 7 70.5 18t52.5 35q19 0 32.5 8.5t25.5 17t26.5 13.5t36.5 0q9 -14 8 -25t-5.5 -21.5t-8.5 -20.5t-4 -25q-31 -27 -56.5 -61.5t-49.5 -69.5t-51.5 -67.5t-61.5 -56.5q2 -10 -0.5 -14t0.5 -15q-41 -39 -79.5 -83.5t-67.5 -95.5q-32 -15 -42 -56q14 -10 22 -25.5t26 -25.5 q9 -9 17 -11.5t17 -11.5q3 -3 5.5 -16.5t9.5 -25.5q7 -14 15.5 -23.5t10.5 -33.5q19 -15 27 -39.5t27 -38.5q2 -3 10.5 -7.5t18 -8t18 -7t11.5 -3.5q36 -7 61.5 1t46 23.5t37.5 34t34 33.5q19 -2 27 -10t8.5 -20t-3.5 -25.5t-9 -25.5q-12 -10 -19 -22.5t-14 -27.5 q-41 -29 -85 -43.5t-87 -29.5q-9 3 -21.5 10t-21.5 5q-15 14 -33 26t-28 32q-20 0 -31.5 10.5t-19 22t-15.5 24.5t-21 18q0 22 -12 38.5t-26.5 31t-27.5 30.5t-18 37q-17 3 -27 3t-22 9q-24 -7 -41 -19t-31 -27.5t-26.5 -33.5t-26.5 -35q-12 7 -24 5.5t-20 -0.5 q-15 19 -11 37z" />
<glyph unicode="&#xa0;" />
<glyph unicode="&#xd8;" horiz-adv-x="1343" d="M43 628v17v16.5t1 16.5q0 -5 1 -8t1 -4q2 -3 2.5 -5t2.5 -6q0 -3 1 -10.5t1 -21.5q0 -15 -1 -16t-2 4t-1.5 12.5t-0.5 9.5q0 -32 5 -63q-3 9 -5 20.5t-4 23.5q0 9 -1 14zM49 558q0 -7 4 -17q3 -19 10 -44v5q3 -12 8.5 -30t13.5 -37q14 -39 31 -71q-3 5 -8.5 14t-11.5 23 q-5 12 -10.5 25t-10.5 23q3 -9 7.5 -20t9.5 -25q9 -22 26 -52q15 -27 32 -48.5t27 -32.5q7 -9 15.5 -19t14.5 -18q7 -7 6 -10q-2 0 -3 1l-7 7l34 -34q12 -9 16 -10q7 -3 13 -9q5 -3 12 -9t21 -15l-5 -1q26 -22 54.5 -38.5t59.5 -30.5t61.5 -23t61.5 -18l7 5q7 -3 16 -4.5 t18 -5.5q22 -3 27 -5q-12 2 -22 2t-22 3q7 -3 12 -3t8 -2q-102 15 -191.5 60.5t-159 114.5t-115.5 158t-60 191zM51 746q12 80 50 157q3 3 -2 -7l-5 -9q-3 -12 -7 -23.5t-7 -25.5q-5 -15 -10 -31.5t-10 -29.5q-3 -9 -4 -16.5t-5 -14.5zM53 577v25l5 -17q-3 24 -3 49t1 49 q5 53 16 100q12 49 32.5 97t45.5 89q-10 -15 -15 -30q5 10 15 25q3 9 8.5 15.5t8.5 13.5q9 14 14 19t2 -3q7 9 15.5 19.5t18.5 21.5q19 20 39 39q19 19 34 30t14 14q14 9 37.5 22.5t52.5 27.5q14 9 29.5 15.5t32.5 11.5q32 12 65 21q-5 2 5 5t27 6t35 5t26 4q3 -2 -7 -3.5 t-25 -5.5q-14 -3 -26.5 -5.5t-14.5 -4.5q17 5 36 7.5t41 6.5q41 3 85 0q20 -3 39 -5t35 -5q32 -5 49 -5q9 -3 9 -4h-4q14 -3 28.5 -9t26.5 -11q3 -2 0.5 -0.5t-4.5 3.5q-9 3 17 -5q19 -9 19 -10q0 -2 5 -5q10 -5 22 -10.5t24 -12.5q22 -12 46 -29q22 -14 37.5 -24t19.5 -11 q10 -10 16 -18t-6 0q26 -20 43 -41q9 -9 13.5 -15.5t10.5 -13.5q7 -9 12 -16t11 -16q10 -15 26 -41q-3 5 -5 7.5t-5 6.5q-3 3 -7.5 10t-14.5 22q7 -14 20.5 -37t26.5 -52q9 -14 15 -29t13 -32q5 -15 8.5 -31.5t6.5 -29.5q3 -5 7 -16l2 -8v-2h1v-2q2 -3 2 -8v-2h-2h-3 q-3 0 -4 1t-3 1l5 3h-1l-4 2h-2h-1h-2v2v1l-2 4q0 9 -3 18q-3 10 -5 19.5t-5 18.5q-5 17 -11 34t-15 36q-15 38 -39 75q-3 3 -7.5 9t-8.5 12q-10 10 -10 6q9 -5 17 -20q7 -9 14 -20t15 -28q0 -7 -3.5 0t-9.5 17q-5 9 -10.5 17.5t-6.5 6.5q12 -19 19.5 -32.5t9.5 -23.5 q-3 9 -8.5 17t-10.5 17q-10 19 -19 24q7 -9 12 -17.5t12 -16.5q3 -10 2.5 -11t-2.5 0q-17 29 -35 56.5t-40 53.5l-5 5q14 -14 20.5 -20t9.5 -11q5 -3 9.5 -6t7.5 -6q-34 46 -75 85q7 0 29 -25q12 -10 21.5 -22t14.5 -19q9 -9 5.5 -2t-12.5 17q-9 12 -16 21.5t-2 5.5 q-14 10 -31 28q-20 19 -38 32l-3 4q-15 14 -29 22t-27 17q-22 14 -57 29l-3 2q-12 3 -25.5 7.5t-34.5 10.5q5 -2 10.5 -3.5t10.5 -2.5q-9 2 -18.5 4t-19.5 4q-10 3 -19.5 5t-17.5 4q-9 2 -14 1.5t-7 -0.5q0 -2 14 -7q-10 3 -21.5 5t-24.5 4q-3 2 -11 2q-9 2 -16 2.5t-16 0.5 q-5 2 -15 2q9 5 30 7q27 3 72 -7l9 2q-22 7 -43 8q-12 2 -22.5 3t-20.5 1q-22 0 -27 -2q-3 -2 5 -4q-19 -3 -49.5 -4.5t-66.5 -7.5q-19 -2 -36 -5t-36 -7q-32 -10 -65 -23q-2 0 19 12q9 3 19 7t19 8q39 12 44 8q19 3 29 5t14 4q3 2 2.5 2.5t-2.5 0.5l-2 2l5 2q3 2 15.5 3.5 t35.5 1.5q19 0 16 -2h-7.5t-11.5 -1q-5 -2 -9.5 -2t-2.5 0h31q15 3 31.5 4t31.5 3q-41 3 -78.5 0.5t-70.5 -7.5q-46 -9 -87 -22.5t-75 -30.5t-62 -34t-50 -34q-22 -19 -38.5 -33.5t-26.5 -24.5l-22 -23q-89 -108 -123 -239q-17 -67 -17 -135t13 -134q15 -67 44.5 -128.5 t73.5 -114.5q85 -106 212 -163q19 -9 36 -15t32 -11q26 -9 51 -12q22 -3 38.5 -5t35.5 2q-9 2 -23.5 3.5t-28.5 4.5q-9 0 -15 4q-3 2 -5 1q65 -14 128 -13q116 0 217.5 41t178.5 114q3 3 7.5 6.5t9.5 7.5v1l11 11t11 13l5 5l-1 -1q36 41 64 89.5t46 101.5h-1q3 9 7.5 19 t7.5 18q-3 2 0 11q3 12 4 23t5 23q0 -5 0.5 -5t2.5 6l2 4h19h11h6h1v-2q0 -9 -3 -22q0 -10 -4 -24q0 2 1 3.5t1 5.5q-5 -32 -15 -60v-2q-3 -5 -4 -10t-5 -10q-7 -19 -14.5 -38t-17.5 -37q3 7 7 17q-19 -43 -33 -64q-9 -12 -15.5 -20.5t-13.5 -16.5l-27 -33q-7 -9 -15.5 -18 t-18.5 -22q-10 -10 -20.5 -20t-20.5 -18l8 8q9 9 18.5 19.5t17.5 20.5l-28 -30t-32 -28q-7 -3 -12.5 -6t-12.5 -6q-14 -10 -26 -18t-25 -16q-26 -15 -55 -28l5 4q-19 -7 -37.5 -14t-37.5 -14t-39.5 -12t-44.5 -8q5 2 6 2l8 1q-14 -3 -25.5 -4t-25.5 -2h-3q2 -2 -28 -6 q-10 -2 -23 -2.5t-21 -0.5q-34 0 -67 5q5 -2 16 -2h19.5t27.5 -1q-3 2 -6 1q-9 0 -12 2q-5 0 -12 4q-3 2 -7 1q-68 5 -132 27.5t-124 56.5q-116 72 -196 186q2 -5 4 -9.5t-1 -0.5q-3 7 -9 14.5t-10 15.5q-3 7 -5.5 11.5t-1.5 2.5l4 -5q-20 34 -29 61q-10 26 -16 50 q-3 7 -8 21.5t-9 29.5q-3 14 -4.5 22.5t-3.5 -0.5q-2 9 -2 15.5v15.5q-2 5 -5 8q-3 7 -5 16zM85 625q0 20 1 36.5t1 29.5l3 48q0 10 1 20.5t3 20.5t3.5 22t4.5 26l2 -7q9 24 14 38.5t12 27.5q5 14 11.5 26t15.5 31q22 31 19 22q-2 -2 -6 -9.5t-11 -17.5q-5 -9 -11 -20 t-10 -20q-7 -19 -1 -12q3 7 5.5 13t5.5 13q-2 -5 -2.5 -11t-3.5 -15q-26 -55 -40.5 -116t-14.5 -126v-2q-2 -2 -2 -18zM102 910q39 80 98 145t135 112q0 -2 -6 -6l41 25q-19 -14 -46 -31t-56 -41q-14 -12 -28.5 -24.5t-27.5 -26.5q-14 -14 -26 -29t-20 -30q-2 0 3 8 q10 14 15 19q-20 -20 -25 -31q-3 -7 -6 -12t-8 -13q-9 -14 -17 -28.5t-15 -24.5q-9 -12 -11 -12zM108 753q3 22 10 42q-2 -2 -2 -5v-6.5t-3 -13.5q-2 -3 -3 -8.5t-2 -8.5zM148 316l6 -7q-2 2 -2 3zM149.5 316q-1.5 0 2.5 -4q1 -3 8 -10q-9 14 -10.5 14zM242 1015v4v-4z M282 215q2 -2 3.5 -2.5t2.5 -4.5q2 0 3 -0.5t3 -0.5q-5 2 -12 8zM314 1099q3 5 12 12t27 19q5 0 13.5 5t20.5 12q24 17 53 27q-22 -10 -24 -12q-60 -29 -102 -63zM323 582q0 2 0.5 2.5t0.5 2.5q0 3 -1 5q2 2 1 5v4v3v4l2 3v5q0 3 -2 7q3 3 0 8v11v3q2 0 2 4h-2v1q0 2 2 5 q0 3 -2 4q0 7 2 8q0 7 -2 11v1q-3 2 0 5v4q0 3 -1 5q0 3 1 5q6 0 9 2h8q0 -3 1 -5t1 -6v-8q-2 -3 -2 -10v-9q0 -2 -0.5 -3.5t-0.5 -3.5v-8v-7q3 -5 0 -9v-5q0 -3 1 -6v-6v-3v-5v-4v-5v-5v-5q0 -2 -1 -3q0 -2 1 -4v-3v-2q-2 0 -1 -2q0 -2 1 -3v-3l-1 -2v-4v-8v-9q-2 -2 -7 -1 q-5 0 -9 1v17v16v2q-2 2 -1 3zM326 1135q3 0 10 4t16 10q9 5 16.5 9.5t10.5 7.5q-9 -7 -24 -15t-29 -16zM333 618v2v1v-1v-2zM333 667v4v3q2 -2 0 -3v-4zM348 1164q19 12 29 22q7 3 14 7.5t19 9.5l-13.5 -4.5t-7.5 -3.5q-5 -2 -8 -2q65 32 135.5 50t147.5 18q7 0 13 -0.5 t12 -0.5h-37q-12 0 -23 -1t-21 -3t-18 -2h-11q10 0 15 -1q-34 -3 -65.5 -11t-62.5 -18q-55 -22 -118 -60zM410 1203q3 2 8 3.5t10 3.5q-7 -2 -11 -3.5t-7 -3.5zM433 114q-3 3 4.5 1t16.5 -6q9 -3 14.5 -5.5t0.5 0.5l-10 4q5 0 7 -2q19 -5 35 -11t35 -10q-5 2 -13.5 3 t-20.5 4q-14 3 -32 8.5t-37 13.5zM474 548q2 2 2 5v7v7v6h2v2v4v3v5q2 5 0 7v2q2 0 2 1q0 3 -1 5t-1 6q0 5 2 8q-2 3 -2 7v7q0 3 -1 5.5t-1 6.5v13v14q-2 5 -2 14v1v2q2 2 2 5v7h2h3h4l1 2q2 -2 4 -2h3l2 -3v-4v-8v-9q-2 -2 -2 -7q0 -3 1 -4t1 -4v-7v-7q0 -5 1 -9.5t1 -9.5 q0 -10 1 -17v2h2l2 2h1l2 1q0 2 2 2l3 4l2 1q0 2 2 2q0 2 1 2l2 3l2 2l2 1l1 2v2h2q3 3 5 7q0 2 3 5q0 2 2 2v1h2h2q0 2 3 5q0 2 3 5h2q0 2 2 4l2 2q2 0 1.5 0.5t1.5 0.5q0 2 1 2t1 2l1 1l2 2l2 2l1 2q2 2 2 2.5t2 2.5l3 3q2 3 5 7q0 2 4 5h3q0 -2 2 0h2l1 -2q2 2 9 2t8 -2 q-3 -7 -6 -8q-2 -3 -3.5 -4t-3.5 -5q-2 -3 -5 -7l-5 -5q-5 -2 -7 -7l-5 -5h-2v-1q-3 -5 -12 -14l-12 -12q3 -7 7 -10q5 -5 7 -9h1q5 -12 12 -15q3 -3 5 -6.5t6 -8.5q2 -2 3.5 -3t2.5 -3q3 -7 4 -8l5 -5q3 -4 3 -7q2 0 4 -2t1.5 -2.5t1.5 -2.5v-2q-2 0 -2 -1h-18q-3 3 -4 7 q-2 2 -1.5 2.5t-1.5 2.5q0 2 -2 1q-2 2 -3 2q0 2 -2 3v2q-2 2 -2 3t-1 2q-2 0 -6 4q0 2 -1 3q0 2 -2 4l-3 3q0 2 -1 2t-1 1h-2q0 2 -3 6l-4 3q-3 0 -3 3l-3 4l-6 5l-3 3h-2q-2 0 -3 -1l-2 -2q-2 -2 -1 -4q-3 -3 -7 -4.5t-7 -5.5q-7 -7 -12 -10v-15q0 -10 -2 -14q0 -2 2 -2 v-1l-2 -4v-2h-3q-2 0 -4 2h-1q-2 0 -2 -1t-2 -1q0 2 -1 0h-2v2q-2 2 -4 2zM490 623q0 -2 2 -3v-4v4q0 3 -2 3zM490 625l2 -2v3l-2 2v-3zM490 640q2 0 2 2l-2 1v-1v-2zM503 596l2 1l2 2v2l-2 -2q-2 -2 -2 -3zM551 32h17q9 -2 15 -3.5t13 -2.5q-10 2 -21.5 2.5t-23.5 3.5z M573 676q0 -2 1 -2t1 2v2q0 -2 -2 -2zM606 39q12 -2 22 -1.5t21 0.5q-14 2 -21.5 1.5t-11.5 -0.5h-10zM613 60.5q5 -0.5 15 -2.5h36q2 0 -2 1t-13 1q-9 2 -18.5 2.5t-17.5 -1.5q-5 0 0 -0.5zM633 19q3 0 8.5 0.5t8.5 0.5q9 0 7 -0.5t-10 -0.5h-14zM671 22h18h-18zM686 29 q5 2 34 2h-1q-9 -2 -16.5 -2h-16.5zM695 1260h16t16 -2q-9 0 -7 -2q-14 3 -25 4zM720 1256h2h-2zM742 32q0 2 2 2q9 2 14 2h8q-7 -1 -24 -4zM742 1212q7 0 11 -2q-4 2 -11 2zM785 1208h7t14 -1l18 -4t19 -5q10 -2 19.5 -4.5t18.5 -3.5q-5 2 -10.5 3.5t-10.5 2.5 q20 -7 34 -11t26 -7l3 -2q34 -15 57 -29q14 -9 27.5 -17.5t28.5 -21.5l3 -4q17 -14 38 -32q17 -17 31 -28q-5 3 2.5 -6t15.5 -21q9 -10 12.5 -17t-5.5 2q-5 7 -14.5 19t-21.5 22q-22 26 -29 25q41 -39 75 -85q-3 3 -7.5 6t-9.5 6q-3 5 -10 11t-20 20l5 -5q-26 31 -57 56 q0 -2 -3 12q-14 9 -30 19t-33 20q-3 2 -6.5 3t-7.5 4q-73 46 -165 66q-14 5 -14 7zM787 1244q2 2 8.5 1t11.5 -1q10 -3 20.5 -5.5t20.5 -6.5l-20 5q-15 2 -41 7zM795 1217q3 -2 12 -2.5t14 -2.5q-17 3 -24 5h-2zM799 1258q10 -4 8 -4t-8 4zM800 43q7 3 12 5q9 3 21 6.5 t34 10.5l14 3l-2 -1q-19 -9 -38.5 -14t-40.5 -10zM809 97q10 3 17 5t10 4l14 7q7 3 14 5l27 12q-9 -5 -15.5 -9.5t-15.5 -9.5q-14 -3 -25.5 -6.5t-25.5 -7.5zM811 1231h3h-3zM814 1231q3 -1 17 -4q-7 0 -17 4zM840 1203l20 -7q-7 3 -20 7zM874 696l2 2q7 0 8 2q7 0 10 -2 l2 -3l2 -2q2 -2 1 -4q2 -2 2 -5l4 -3l3 -2q2 -9 7 -12l8 -8q2 -3 4 -5l3 -4v-1v-2l10 -10q7 -7 9 -12q2 0 2 -1t1 -1q3 -7 7 -10l7 -11l2 -1q2 -2 1.5 -3t1.5 -2h2v-2q2 -2 2 0q2 -3 5 -7q2 -2 2.5 -3.5t2.5 -3.5l3 2q-2 7 -2 19q2 5 2 9v8q0 3 2 5h-2v2v5l-2 1q0 2 2 2v2v5 v7v5q0 5 -2 7q2 2 2 5t-2 5q2 2 2 7t-2 7q2 0 2 1v4v1v2v2v2q0 2 1 1.5t1 1.5q2 0 2.5 1t2.5 1h7q2 0 2.5 -1t2.5 -1v-18t-2 -18v-34v-3v-4v-5v-2v-1v-2v-3v-4v-7q2 -2 2 -6v-7v-5v-9v-9v-5v-5v-3q0 -2 -2 -4h-1h-2h-2h-3q-3 2 -5 0q-2 2 -4 2v2l-2 2q0 2 -1 1q0 2 -1 3 t-1 2q-2 2 -2.5 2t-2.5 2q0 3 -3 3q-2 2 -2 3t-2 2q0 2 -2 4v1q-3 2 -6 9q-3 3 -4.5 5t-4.5 4v1v2l-5 5q-3 7 -4 7l-3 3t-5 4v1q0 2 -1 2t-1 2q-2 2 -2.5 3.5t-4.5 3.5q-2 3 -2.5 4t-2.5 4h-3l2 2q-2 0 -2 2q-3 3 -7 5q-2 3 -5 7v1l-5 5q-3 3 -7 5v-1h-2q2 -3 1 -6t-1 -6 v-14q0 -2 -1 -2v-1v-7v-5v2q2 2 1 3v3v4q0 -5 1 -10.5t1 -10.5q0 -14 -2 -20v-19v-22q0 -2 -0.5 -2t-0.5 -2l-4 -1h-5h-7q-2 2 -1 5q0 3 1 5q-2 3 -1 10q2 3 1 10q0 2 -1 2q0 2 1 2v2q0 2 -1 1q3 7 3 14q0 5 -3 12q2 2 1 3q0 3 -0.5 7t-0.5 7q3 5 0 14q0 2 1 1v2q-2 0 -1 2 v25q0 9 -1 15t-1 14zM881 548q0 -2 1 -4v4v3q-2 -2 -1 -3zM882 633q2 -2 2 -3v1v4h-2v-2zM886 575v2q2 0 1 2h-1v-2v-2zM886 1220q2 0 3 -1q-1 1 -3 1zM889 660h2h-2zM905 133q29 14 59 34q-5 -3 -15 -13q10 3 20 13q-7 -7 -20 -17q2 0 -10 -7q3 2 5 3.5t5 3.5q-3 0 -11 -4 t-8 -3zM906.5 78.5q8.5 3.5 23.5 10.5l34 17q20 12 26 17q15 9 27 16.5t21 12.5q-29 -24 -62.5 -42t-67.5 -33q-10 -2 -1.5 1.5zM920 1178l7 -2q-4 2 -7 2zM927 645q0 -2 1 -3q1 1 -1 3zM927 1176q7 -3 13.5 -6t1.5 1zM935 1200q55 -27 98 -58q-5 3 -9.5 4t-9.5 4 q-7 3 -15.5 9t-23.5 15q10 -3 5.5 -0.5t-12.5 7.5q-9 5 -17.5 10t-15.5 9zM944 1196l36 -17q-9 5 -18 9.5t-18 7.5zM964 1135q3 -3 7 -4t7 -3q17 -10 33 -20.5t30 -18.5q3 -14 3 -12q-39 34 -80 58zM995 184l3 2zM1004 1171q15 -11 18 -14q-3 3 -7.5 6.5t-10.5 7.5z M1021.5 1150q0.5 0 5.5 -3h-1q-5 3 -4.5 3zM1050 152q3 3 6.5 5.5t6.5 6.5l-1 -5q-3 -2 -6 -3.5t-6 -3.5zM1051 157v2q2 0 0 -2zM1060 227q3 3 8 7.5t9 7.5v-1q-5 -3 -9.5 -7t-7.5 -7zM1089 1096l29 -29q-10 7 -15 13q-10 9 -14 16zM1099 266l4 4l1 1zM1101 205v2l5 5 q-2 -2 -2.5 -3.5t-2.5 -3.5zM1118 1082q7 -3 9.5 -7.5t5.5 -7.5q-8 10 -15 15zM1133 1067l21 -21l-7 5q-10 9 -14 16zM1143 983l2 -2zM1154 1012q2 2 7 -2.5t8 -9.5q2 -2 2.5 -2t2.5 -1q32 -46 55 -96q9 -14 14 -29t10 -29q2 -3 1.5 -5t1.5 -5q5 -15 9.5 -30.5t7.5 -31.5v-1 q2 -9 3.5 -18.5t3.5 -17.5v-2v-2v-1l-3 1h-7h-8.5t-13.5 -1q10 3 20 3h5h2v4v3l-4 15q-3 20 -9 41.5t-13 35.5q-12 48 -36 92q-14 24 -29 46.5t-30 42.5zM1193 971q7 -10 12 -20.5t10 -20.5q-5 9 -10 19t-12 22zM1198 319q5 10 10 20.5t11 18.5l-4 -10q-3 -7 -7.5 -13.5 t-9.5 -15.5zM1198 942l5 -10q-3 7 -5 10zM1207 444q2 3 2.5 8.5t2.5 8.5q0 -3 -2 -7.5t-3 -9.5zM1210 879q2 -3 5 -10zM1212 461q3 9 7.5 18.5t7.5 18.5q-3 2 0 11q-3 -12 -6.5 -24t-7.5 -24h-1zM1229 901q9 -14 14 -29t10 -29q2 -3 1.5 -5t1.5 -5q-5 19 -12 35t-15 33z M1237 693v5h4h1h2v-2q0 2 2 2h8h2h2h2h3h2h3h3h2h2h2h3h2h1v-2q0 -2 -1 -1q2 0 1 0.5t0 0.5h-1h-2q0 2 -1 0.5t-1 -0.5h-5q-3 2 -5.5 1t-6.5 -1q-3 0 -5.5 -0.5t-6.5 0.5q-2 2 -3.5 0.5t-3.5 -0.5h-3q0 -2 1 -1.5t1 -1.5v-4v-10q0 -3 1 -5v-2v-1h2h10h4q3 2 6.5 1t6.5 -1h7 h4h1h2h-2q2 0 0 1v6q0 3 -0.5 4.5t-0.5 5.5v1v2v2v2q0 -5 1 -7v-7h2q-2 0 0 -2v-1v1v-10h-3h-4h-3q-2 2 -4 0v2q-2 0 -1 -2v2q-3 -3 -4 -2l-1 2v-2h-7h-4q-7 0 -6 0h-4h-3v2v1v2q0 3 -2 4h2q-2 0 -1 0.5t-1 0.5h2q0 2 -2 4v1v5zM1239 594v2v1v2v3v2v4h2l-2 1h2v5v4v3v2h1h2 h2v-2l2 2h8h2h3h4h1q2 2 4 0h3h2h2h1h5q2 0 2 -2v-1v1h-2q0 2 -0.5 0.5t-0.5 -0.5h-2h-5q-3 2 -6 1t-6 -1t-6 -0.5t-6 0.5q-2 2 -2.5 0.5t-4.5 -0.5h-2v-3v-4q0 -3 -0.5 -4.5t-0.5 -5.5v-8h1h11h3q3 2 6.5 1t7.5 -1h7h3h3h-1q2 0 1.5 0.5t-1.5 0.5q0 2 0.5 3t0.5 2v11v1v4v2 v-7v-7h2q-2 0 -1 -1t-1 -1v-2v2v-5v-2v-3h-3h-3h-4h-5q2 0 2 2q-2 0 -2 -2v2q-2 -2 -2.5 -1t-2.5 -1v2v-2h-7h-3q-2 0 -3.5 1t-5.5 -1h-5zM1239 596q2 7 2 12.5t1 12.5h43q0 -17 -2 -25h-44zM1239 696h44q0 -7 1 -12.5t1 -12.5h-43q-2 7 -1.5 12.5t-1.5 12.5zM1241 655h1h-1 v2h1l-1 2v1h1h2h2h2h3h9h-2h2h1v-1l2 1h8h2h4h3h2h1h4h2v-3v-2q-2 -2 0 -1l-2 -2l2 -2v-3v-2h-2h-2q2 0 1 1t1 1v2v1h-2q0 2 1 3t1 2v4h-2h-7q-3 0 -5.5 -1t-6.5 1q-2 2 -2.5 0t-3.5 0q-2 0 -4.5 -1t-4.5 1h-5h-4v-2v-12q2 -2 2 -5v-3v-2v-2h4q2 2 3 2q3 -2 7 -2h13h4h5h2h1 q2 0 2 2v2v3v2v-5v-4h-2h-3t-4 -1t-5 -1h-3h-3h-4h-3v2l-2 -2v2q-3 -3 -3 -2l-2 2v-2q-2 0 -2.5 1t-4.5 -1q0 2 -1 1t-1 1v5v4v7q0 3 -1 6zM1242 633h45v12v14h-45v-14v-12zM1246 719q3 0 4.5 0.5t3.5 0.5q-2 -2 -8 -1zM1261 744h2h-2zM1273 770v1v-1zM1282 695v1v-1z M1283 620q2 0 0 1v-1zM1283 645l2 -2v2h-2z" />
<glyph unicode="&#x2000;" horiz-adv-x="700" />
<glyph unicode="&#x2001;" horiz-adv-x="1401" />
<glyph unicode="&#x2002;" horiz-adv-x="700" />
<glyph unicode="&#x2003;" horiz-adv-x="1401" />
<glyph unicode="&#x2004;" horiz-adv-x="467" />
<glyph unicode="&#x2005;" horiz-adv-x="350" />
<glyph unicode="&#x2006;" horiz-adv-x="233" />
<glyph unicode="&#x2007;" horiz-adv-x="233" />
<glyph unicode="&#x2008;" horiz-adv-x="175" />
<glyph unicode="&#x2009;" horiz-adv-x="280" />
<glyph unicode="&#x200a;" horiz-adv-x="77" />
<glyph unicode="&#x202f;" horiz-adv-x="280" />
<glyph unicode="&#x205f;" horiz-adv-x="350" />
<glyph unicode="&#x25fc;" horiz-adv-x="810" d="M0 0v811h811v-811h-811z" />
</font>
</defs>
</svg>
