<?xml version="1.0" standalone="no"?>
<!DOCTYPE svg PUBLIC "-//W3C//DTD SVG 1.1//EN" "http://www.w3.org/Graphics/SVG/1.1/DTD/svg11.dtd" >
<svg xmlns="http://www.w3.org/2000/svg" xmlns:xlink="http://www.w3.org/1999/xlink" version="1.1">
<metadata></metadata>
<defs>
<font id="landlieberegular" horiz-adv-x="1069" >
<font-face units-per-em="2048" ascent="1638" descent="-410" />
<missing-glyph horiz-adv-x="380" />
<glyph horiz-adv-x="0" />
<glyph horiz-adv-x="682" />
<glyph unicode=" "  horiz-adv-x="380" />
<glyph unicode="&#x09;" horiz-adv-x="380" />
<glyph unicode="&#xa0;" horiz-adv-x="380" />
<glyph unicode="!" horiz-adv-x="847" d="M88 -16q10 -18 27 -25q72 4 127 43q16 16 25 34.5t28 33.5q23 37 32 87t-20 87q-23 35 -55.5 27.5t-61.5 -23.5q-29 -23 -52 -53.5t-23 -67.5q-14 -23 -19.5 -52.5t0.5 -60.5q-10 -14 -8 -30zM227 397q12 -16 24.5 -17t26 5t26.5 14.5t26 8.5q25 0 46 -11.5t46 2.5 q14 8 22 35q-12 66 18 120t64 105q23 53 49.5 105.5t51.5 105.5q20 35 35.5 71t33 71t38 68.5t48.5 64.5q12 16 21.5 31.5t3.5 35.5q-10 14 -29 17q-33 -6 -60.5 -24.5t-60.5 -24.5q-25 -10 -51 -3t-51 3q-27 -23 -35 -52.5t-18 -60.5q-14 -68 -44 -127t-59 -121 q-25 -49 -56.5 -95t-37.5 -103q-4 -31 -23.5 -53.5t-33.5 -47.5q-8 -29 -20.5 -60.5t-0.5 -62.5z" />
<glyph unicode="&#x22;" horiz-adv-x="604" d="M70 1280q4 0 12 -23.5t17.5 -60.5t19.5 -81t19 -82t15.5 -64.5t8.5 -28.5q0 2 6 35t17.5 85t21.5 101t20.5 85t16.5 36l-14 20q-15 19 -31.5 41.5t-29.5 40t-11 13.5q2 0 -13.5 -18.5t-33 -40t-31.5 -40t-10 -18.5zM362 1272q4 0 11.5 -22.5t15.5 -58.5t16.5 -78 t15.5 -79t12 -61.5t7 -26.5l12 52q13 51 30.5 112t33 112.5t21.5 51.5q2 0 -12.5 20.5t-31 45t-29.5 43t-9 14.5l-15 -21q-14 -20 -32.5 -42.5t-33 -42t-12.5 -19.5z" />
<glyph unicode="%" horiz-adv-x="1259" d="M-39 -195q6 -12 17.5 -15t21.5 -7q12 0 22.5 8t18.5 19q23 18 52.5 19t58.5 5q20 2 32.5 13.5t18.5 26.5t9 33.5t7 33.5q27 59 49.5 116.5t65.5 108.5q16 43 36.5 86t55.5 78q27 33 43 69.5t39 71.5q10 25 28.5 41t39 28.5t40 27t33.5 36.5q68 96 132.5 190.5 t129.5 188.5q53 88 109.5 174t128.5 158q8 14 22.5 24.5t26.5 21.5t19.5 25.5t3.5 32.5l-15 13q-33 4 -63.5 -6.5t-59.5 -24.5q-23 -8 -50 -4t-48 -13q-25 -33 -47.5 -63.5t-44.5 -65.5q-68 -127 -142.5 -246.5t-152.5 -238.5q-41 -72 -86 -139.5t-90 -136t-87 -137 t-79 -140.5q-78 -92 -151.5 -183t-137.5 -190q-12 -23 -6 -39zM61 889q-2 -37 6.5 -73t32.5 -64q29 -27 52.5 -56.5t60.5 -36t75 0t72 18.5q41 23 80 50.5t70 66.5q12 27 28.5 53t30 53t22.5 55.5t7 61.5q-8 27 -16.5 54.5t2.5 55.5q-4 23 -15.5 45.5t-33.5 36.5 q-41 20 -89.5 18.5t-95.5 6.5q-16 -2 -30.5 -9t-30.5 -12q-59 -23 -114.5 -73.5t-80.5 -110.5q-12 -31 -21.5 -67.5t-11.5 -73.5zM209 846q4 33 15.5 62.5t21.5 60.5q23 37 39 75.5t45 73.5q33 23 71.5 24t75.5 -3q18 -4 23 -23v-67q0 -35 6 -70q-12 -55 -43 -104.5 t-80 -88.5q-29 -14 -65.5 -21t-69.5 13q-20 10 -28.5 27.5t-10.5 40.5zM657 272q-16 -57 0.5 -111.5t47.5 -99.5q23 -41 58.5 -58t78.5 -17q51 -12 91 11t77 50q14 12 21 26.5t12.5 29t12.5 28.5t21 25q16 55 37 107t29 110q-6 18 -3 33.5t8 31t7 32t-6 32.5 q-12 10 -18.5 26.5t-13.5 30.5t-17 25.5t-31 11.5q-18 -10 -40.5 -12t-45.5 -6q-37 -23 -77 -40.5t-77 -45.5q-53 -47 -101 -101.5t-71 -118.5zM828.5 154.5q-1.5 23.5 2.5 44.5q16 66 50 121t55 118q4 10 11 13.5t16 3.5q8 0 17 1t15 7q14 8 24.5 23.5t31.5 5.5l14 -17 q4 -31 -4 -60.5t2 -58.5q-10 -43 -29.5 -81.5t-29.5 -81.5q-6 -25 -28 -41.5t-32 -38.5q-23 -16 -48.5 -8t-47.5 14q-18 12 -19.5 35.5z" />
<glyph unicode="&#x26;" horiz-adv-x="1099" d="M-62 -163q3 -38 31 -62q57 -47 128 -65.5t149 -18.5q41 -4 78.5 6t72.5 25.5t70 34t72 32.5q35 20 55 52t53 48q70 41 92.5 112t16.5 149q35 25 59.5 57.5t48.5 64.5q41 47 59.5 100.5t30.5 108.5q12 37 6 76t-28 70q-10 6 -19.5 12t-21.5 6q-16 4 -26.5 -8t-18.5 -25 q-14 -41 14 -71q8 -4 16.5 0t12.5 2q4 -43 -7.5 -82t-25.5 -76q-29 -31 -50.5 -67.5t-53.5 -67.5q-18 115 -53 218t-64 214q35 25 71.5 45.5t73.5 43t71 49t60 63.5q31 63 71 121.5t56 128.5q8 80 -26 151q-10 18 -27.5 26.5t-36.5 12.5l-51 -4q-66 18 -128 -1.5t-118 -45.5 q-47 -27 -89 -64t-72.5 -82t-48 -96t-15.5 -106q12 -51 12 -105q0 -53 17 -102q-16 -16 -35 -11t-39 -1q-59 -18 -115.5 -48t-103.5 -82q-76 -94 -102.5 -218t6.5 -240q16 -51 61 -87t96 -46q41 -29 94.5 -32t96.5 23q35 35 79 45.5t87 26.5q10 -55 -17.5 -103t-70.5 -89 q-43 -16 -83 -43t-85 -39q-66 -10 -132.5 -5t-121.5 29q-18 10 -37 20.5t-21 32.5q-2 10 1 13.5t9.5 4.5t12.5 0t10 3q16 0 19.5 11.5t7.5 19.5q4 16 3 28.5t-16 22.5q-16 8 -37.5 7t-39.5 -5q-16 -8 -23.5 -21.5t-13.5 -27.5q-10 -31 -7 -69zM301 211q4 76 19.5 147.5 t56.5 137.5q18 29 39.5 57.5t56.5 42.5l4 -14q16 -90 48 -172t40 -177q10 -51 10 -98q-43 -18 -90 -28.5t-82 -38.5q-16 -6 -34.5 -8.5t-34.5 8.5q-10 14 -15.5 31.5t-7.5 36t-3 38t-7 37.5zM612 776q-10 61 2.5 117.5t40 107t64.5 96.5t78 89q14 12 31.5 26.5t36 25.5 t38.5 13t43 -12q25 -35 15.5 -80t-23.5 -80q-33 -57 -65.5 -115.5t-88.5 -99.5q-41 -29 -81.5 -52.5t-86.5 -39.5z" />
<glyph unicode="'" horiz-adv-x="462" d="M135 1262q4 2 11.5 -20.5t15.5 -58.5t16 -77t15.5 -78t11.5 -62.5t6 -27.5l13 51q12 51 29 112.5t33.5 113t22.5 51.5l-14 20q-14 21 -30.5 45.5t-29 43t-8.5 14.5l-15 -21q-15 -20 -33.5 -44t-33 -43t-10.5 -19z" />
<glyph unicode="(" horiz-adv-x="741" d="M72 208q4 -71 18 -138.5t45 -130.5q2 -14 1 -31t3 -33q14 -20 28.5 -40.5t43.5 -24.5q8 4 16.5 6t12.5 10q18 33 8 63.5t-25 59.5q-4 184 27 361t76 347q6 16 17 28.5t22 29.5q53 164 151 309t227 274q18 12 43 24.5t45.5 27t34 34t11.5 48.5l-15 10q-43 4 -77.5 -16.5 t-69.5 -43.5q-61 -27 -114.5 -69.5t-106.5 -89.5q-72 -76 -140.5 -152t-120.5 -162q-33 -59 -67.5 -116.5t-56.5 -120.5q2 -47 -11.5 -88t-17.5 -88q-4 -72 -8 -144.5t0 -143.5z" />
<glyph unicode=")" horiz-adv-x="817" d="M-78 -216q-2 -7 2 -15q10 -8 20.5 -18.5t26.5 -6.5q23 16 50.5 35.5t31.5 52.5q41 39 75 79t69 81q10 27 34.5 37t42.5 26q70 70 128.5 139.5t111.5 149.5q74 92 121 197.5t84 216.5q10 39 24.5 81t-4.5 83q16 88 6 184q-10 78 -26.5 152.5t-61.5 138.5q-25 14 -42 37.5 t-46 25.5q-10 -2 -14 -16q4 -29 11 -56.5t9 -56.5q10 -156 -6 -304t-57 -290q-6 -16 -17.5 -31.5t-19.5 -31.5q-29 -78 -53.5 -159t-71.5 -153q-41 -53 -69.5 -109t-51.5 -116q-10 -23 -30.5 -37t-40.5 -24q-37 -45 -73 -87t-71 -87q-25 -25 -42 -54.5t-46 -48.5 q-2 -8 -4 -15z" />
<glyph unicode="*" horiz-adv-x="716" d="M78 1034q-8 -25 8 -43t27 -39q4 -10 3 -22t-2 -24.5t4 -20.5t21 -11q23 0 35 13q29 47 71 76.5t81 60.5q-4 -31 -13.5 -59.5t-19.5 -57.5q-10 -18 -23.5 -35.5t-17.5 -40.5q6 -18 18.5 -22t27.5 -2t29.5 7t26.5 5q14 2 25.5 -5t26.5 -1q10 10 20 18.5t6 24.5t-20.5 20.5 t-20.5 20.5l-10 113l4 6l45 -29q18 -10 27.5 -27.5t16.5 -34t18.5 -30.5t31.5 -21q10 4 17.5 6.5t13.5 10.5q2 23 18.5 37t32.5 26q16 23 2 43q-23 12 -51.5 10.5t-50.5 16.5q-16 8 -35.5 13t-36.5 20q57 31 131 41q23 0 45.5 3t40.5 13q10 20 -1 38.5t-19 35.5l-2 61 q-14 27 -41 23q-12 0 -15.5 -12.5t-13.5 -18.5q-23 -51 -69 -77.5t-87 -57.5h-8q10 33 19.5 66.5t27.5 66.5q6 12 16.5 21.5t20.5 18.5t15.5 19.5t1.5 26.5l-7 8q-20 4 -41.5 2t-41.5 -4q-20 -4 -39 -1t-35 -7q-12 -27 -6 -47q20 -29 15 -68t-5 -71l-4 -9l-51 54 q-12 8 -17.5 21.5t-10.5 26.5t-11 24.5t-21 19.5q-12 2 -18 -4q-6 -16 -16.5 -28.5t-22.5 -24t-25.5 -22.5t-21.5 -26q-4 -16 4 -24q14 -14 33.5 -15.5t38.5 0.5q31 -14 60.5 -25t51.5 -32q-20 -14 -46 -18t-48 -11q-16 -8 -33.5 -6t-34 5.5t-32.5 3.5t-33 -13z" />
<glyph unicode="+" horiz-adv-x="1060" d="M84 483q2 -18 14 -26q23 -4 42.5 4t37.5 16q53 8 106.5 15.5t106.5 17.5l90 -6q-14 -35 -24.5 -72t-21.5 -72.5t-27.5 -69.5t-42.5 -65q-2 -8 -7.5 -14t0.5 -16q6 -12 15.5 -15.5t21 -2.5t22.5 4t21 3q16 -2 36 -6t38 -6t34.5 2t28.5 19q8 16 9 36q0 20 -6 37 q10 31 9 60.5t-3 60.5t-2 62t10 61q41 4 88 11t86 -15q47 -12 91 -8t93 0q18 8 19 30q-4 27 5 48.5t13 44.5q6 10 12 20.5t2 24.5q-2 10 -9 16t-17 4q-31 -10 -58.5 -26.5t-60.5 -26.5h-65q-47 -2 -89.5 -16.5t-87.5 -20.5l-6 4q4 23 9.5 41t21.5 33q16 45 29.5 89t36.5 85 q16 14 31.5 23.5t31.5 27.5q4 10 9 25.5t-3 26t-31 10.5q-43 -16 -92 -14.5t-94 -0.5q-14 -2 -27.5 -4t-21.5 -12q-12 -23 -12 -51q0 -27 10 -50q8 -29 24.5 -52t20.5 -54q-27 -31 -31 -70t-14 -78q-16 0 -27.5 9.5t-21.5 15.5q-59 -6 -121 -5t-113 30q-4 8 -10 15t-20 5 q-27 -8 -34 -31.5t-18 -44.5q-14 -23 -30.5 -43t-26.5 -43z" />
<glyph unicode="," horiz-adv-x="389" d="M43 57q-2 -27 3 -53.5t32 -40.5q31 -20 64.5 -10t62.5 22l2 -2q-12 -35 -33 -73q-12 -23 -31.5 -39.5t-40 -32.5t-35 -35.5t-14.5 -46.5q8 -23 25 -27q14 -4 25.5 1.5t20.5 15.5t17.5 22.5t18.5 22.5q57 47 98 107.5t70 123.5q23 41 19.5 88t-25.5 84l-27 33 q-20 10 -42 22.5t-44 -1.5q-23 -23 -48.5 -41.5t-49 -40t-42 -45t-26.5 -54.5z" />
<glyph unicode="-" horiz-adv-x="593" d="M72 451q4 -12 13 -14.5t17 -2.5q39 10 74 25.5t72 27.5q57 10 116.5 6t114.5 -12q14 -4 25.5 -17t27.5 -7q20 12 31.5 34.5t16.5 45.5q8 12 19 23t21.5 23.5t14.5 27t-4 30.5q-4 14 -17.5 20.5t-27.5 2.5q-16 -16 -35 -25.5t-39 -16t-40.5 -11.5t-39.5 -13l-196 -2 q-16 6 -25.5 20.5t-28.5 16.5q-10 -2 -18 -4t-12 -13l-29 -77l-51 -68v-20z" />
<glyph unicode="." horiz-adv-x="358" d="M59 94q12 -16 11.5 -34.5t-0.5 -34.5q8 -14 22 -24.5t33 -10.5q45 0 82 43q23 4 38 23.5t31 37.5q20 29 31 71t-12 77l-16 22q-33 14 -69 6t-63 -32q-35 -29 -62.5 -64t-25.5 -80z" />
<glyph unicode="/" horiz-adv-x="1009" d="M2 -207q4 -10 10 -20.5t19 -12.5q23 -12 41 2.5t37 26.5q29 16 62.5 12t64.5 0q33 16 39 48t18 61q16 80 53 151.5t70 145.5q23 41 47 81t41 85q88 111 176 214t178 208q55 66 104.5 134t98.5 137t101 135.5t114 125.5q14 16 35.5 31.5t40 33t29.5 38t5 47.5l-6 8 q-35 14 -69.5 4t-63.5 -23q-18 -8 -35.5 -4t-35 8.5t-35.5 4.5q-16 0 -33 -15q-20 -33 -26.5 -71.5t-32.5 -69.5q-152 -227 -304.5 -452.5t-314.5 -448.5q-12 -35 -33.5 -68t-46.5 -63q-47 -70 -100 -135.5t-107 -131.5q-16 -27 -33.5 -54t-39.5 -54q-23 -29 -46.5 -54.5 t-21.5 -64.5z" />
<glyph unicode="0" d="M51 536.5q-2 -96.5 17 -178.5q-12 -133 73 -231q6 -18 23 -35q16 -10 29.5 -24.5t25.5 -28.5t27.5 -22.5t38.5 -2.5q29 12 63.5 7t61.5 10q78 35 145.5 90t120.5 121q27 29 36 60.5t25 59.5q35 49 68 98.5t49 106.5q12 23 17.5 48.5t8.5 51t9 50t22 47.5q18 33 20.5 71.5 t-3.5 75.5q35 23 71.5 46.5t73.5 48.5q27 25 56.5 52t33.5 66q0 8 -6 5t-10 -1q-55 -29 -108.5 -64.5t-106.5 -66.5q6 49 -8.5 95.5t-55.5 74.5q-4 16 -9 29.5t-15 24.5q-18 14 -42 8t-44 0q-27 -8 -53.5 -9t-55.5 -6q-86 -23 -160.5 -68.5t-146.5 -98.5 q-23 -25 -49.5 -48.5t-36.5 -56.5q-47 -55 -91 -112.5t-73 -120.5q-39 -76 -41 -172.5zM264 354q4 27 2 59.5t21 53.5q14 59 25.5 118.5t35.5 112.5q18 39 34.5 80t51.5 74q39 66 80 137.5t111 118.5q-18 -39 -28.5 -86t9.5 -90q8 -14 12.5 -30.5t8.5 -33t12 -31t25 -22.5 q27 -8 51 -4t47.5 13.5t46 19.5t45.5 16q2 -29 -6 -52.5t-18.5 -47t-17.5 -48t-5 -50.5q-16 -76 -56 -142.5t-81 -132.5q-39 -45 -68 -94t-76 -88q-37 -37 -80 -62.5t-90 -42.5q-29 -4 -47 11q-37 51 -40 114.5t-5 128.5zM682 987q-6 35 3 67.5t26 61.5q14 16 33.5 20.5 t37.5 2.5q27 -14 39.5 -37t22.5 -45q12 -23 10 -52.5t0 -54.5q-31 -16 -61.5 -30.5t-65.5 -20.5q-31 6 -34 35t-11 53z" />
<glyph unicode="1" d="M125 639q0 -6 8 -10q14 -10 34.5 -8t37.5 6q20 2 38.5 11t36 20.5t35 19.5t39.5 8q16 4 27.5 9t26.5 10q39 20 73.5 46.5t69.5 55.5l12 4q-14 -29 -25.5 -57.5t-23.5 -59.5q-14 -35 -32.5 -65.5t-36 -62t-32 -65.5t-16.5 -73q-74 -96 -130 -195.5t-111 -201.5 q-4 -14 -8.5 -28.5t-0.5 -31.5q10 -23 35 -14q51 33 115 37q35 -6 73 -1t70 -5q20 4 29.5 21.5t17.5 33.5q23 86 54.5 169t72.5 161q23 29 37.5 60.5t26.5 64t23.5 65.5t27.5 64q16 57 45 110.5t53 106.5q23 37 38.5 78t31.5 83t36.5 80.5t51.5 73.5q10 20 25.5 40.5 t5.5 45.5q-10 16 -26.5 17.5t-28.5 -7.5q-61 -59 -126 -116.5t-130 -116.5q-37 -18 -72 -45t-68 -55.5t-65.5 -56t-67.5 -52.5q-41 -25 -85 -45t-91 -37q-29 -10 -55.5 -17t-48.5 -34q-6 -6 -14.5 -10t-10.5 -15q-2 -8 -2 -16z" />
<glyph unicode="2" d="M19.5 63.5q0.5 -22.5 17.5 -34.5q16 0 30.5 -7.5t29 -15.5t27.5 -17t30 -12q25 -6 46 -0.5t41.5 17.5t38 28.5t35.5 30.5q23 18 44.5 34.5t48.5 33.5q10 12 23 15t27.5 0t28 -9t25.5 -10l18 -29q39 -35 81 -63.5t96 -38.5q25 4 45 17t47 15q59 18 97 75t46 118 q0 41 -31 57q-2 4 -12 -2q-10 -39 -27.5 -71.5t-42.5 -67.5q-37 -41 -92 -41q-16 4 -28.5 11t-20.5 24l-53 147l-27 45q-4 23 10.5 37.5t24.5 30.5q10 2 18.5 6t18.5 8q66 47 129 95.5t117 113.5q16 16 26.5 37t30.5 35q59 49 74.5 122.5t-2.5 145.5q-12 39 -44 68.5 t-53 66.5q-10 23 -27.5 34t-39 16.5t-43 8.5t-41.5 9q-35 0 -67.5 -9.5t-63.5 -23.5q-37 -8 -74 -19.5t-70 -33.5q-29 -14 -44 -35.5t-26 -46.5t-18.5 -50.5t-19.5 -47.5q-12 -33 0 -62q2 -12 18 -16q14 0 23 8q18 25 31.5 51.5t28 53t32.5 50t43 42.5q14 10 31.5 14t36 7 t35 9t30.5 19q12 4 26.5 5t24.5 -3q25 -10 24 -35t5 -45q-10 -94 -39 -179t-57 -173q-18 -33 -28.5 -68t-33.5 -65q-39 -12 -62.5 -45t-45.5 -64q-6 2 -12.5 8t-10.5 13q-25 16 -54.5 23t-61.5 7q-31 0 -62 -7t-55 -21q-66 -35 -124 -85.5t-106 -111.5q-2 -29 -15 -54.5 t-23 -52.5q-4 -18 -3.5 -40.5zM111 115q12 29 26.5 60.5t44.5 51.5q23 10 42.5 26.5t41.5 27.5q31 -10 53.5 -41t45.5 -58q-35 -23 -70 -56.5t-74 -55.5q-20 2 -42.5 -3.5t-37.5 11.5q-8 10 -20 17t-10 20z" />
<glyph unicode="3" d="M97 132.5q5 -15.5 16 -30.5q20 -49 66 -81.5t95 -43.5q20 -4 38 0.5t34 10.5t33.5 13t36.5 7q29 4 55.5 15.5t53 25.5t52 27.5t54.5 21.5q82 16 154.5 69.5t101.5 133.5q16 20 34.5 37.5t26.5 40.5q16 37 15.5 72.5t-12 69.5t-31 64.5t-39.5 59.5q-20 27 -48 50.5 t-32 56.5l51 39q10 10 24.5 16t26.5 20q33 70 17.5 151t-60.5 138q-12 16 -27.5 33.5t-37.5 28.5q-41 20 -88.5 13t-92.5 -11q-49 -33 -97 -66t-97 -63q-16 -14 -35.5 -26.5t-37 -27t-30 -32t-12.5 -41.5q6 -18 25 -29q16 -8 27.5 0t21.5 16q18 27 42.5 46.5t50.5 35 t52.5 29.5t50.5 33q29 6 54.5 15t54.5 9q10 -2 15.5 -10t9.5 -16q20 -86 -11.5 -164t-97.5 -125q-41 -35 -90 -41t-96 -16q-23 -20 -49.5 -37t-34.5 -45q0 -27 20 -35q20 -4 42 4t40 14q18 12 36.5 13.5t37.5 1.5q20 0 39.5 1t36.5 13q33 8 61.5 1t58.5 -1q18 -10 29 -33 q-12 -12 -18 -25.5t-17 -27.5q-23 -59 -37 -118.5t-32 -119.5q-20 -35 -33.5 -71.5t-52.5 -55.5q-33 -16 -65 -39.5t-63.5 -44t-67.5 -32t-79 -0.5q-31 8 -53.5 34.5t-30.5 55.5q10 31 26.5 56.5t33.5 51.5q-12 8 -27.5 15.5t-32.5 -0.5q-31 -20 -52 -51t-32 -66 q-6 -18 -1 -33.5z" />
<glyph unicode="4" d="M74 395q10 -23 30 -28q4 -4 8.5 -2t8.5 0q23 10 50.5 1.5t49.5 -4.5q47 8 92 21.5t95 17.5q18 0 39.5 4.5t39.5 0.5l-22 -66q-29 -39 -49.5 -81t-36.5 -87q-23 -39 -50.5 -76t-56.5 -73q-8 -23 9 -37q16 -16 42.5 -15.5t47.5 9.5q33 2 64.5 10t60.5 16q23 0 46 -3t40 13 q25 25 20 64q2 37 19.5 67.5t29.5 65.5q12 14 16.5 31.5t5.5 36t3 37t12 32.5q8 12 10 27.5t13 25.5q31 8 63.5 3t56.5 -25q47 -20 84 3.5t70 53.5q10 18 10 43t-4 45q-16 2 -27.5 -4t-20.5 -16t-17 -21.5t-21 -19.5q-23 -6 -41 5t-37 22l-92 6q4 16 7 35.5t10 41.5 q39 113 77.5 224.5t73.5 228.5q6 23 17.5 44.5t19.5 44t10 46t-8 47.5q10 18 25.5 34t9.5 38.5t-25.5 16t-29.5 -18.5q-47 -59 -105.5 -111.5t-101.5 -115.5q-78 -66 -145.5 -141.5t-143.5 -143.5q-37 -39 -77 -70.5t-81 -62.5t-81 -63.5t-74 -75.5q-14 -25 -29.5 -47.5 t-9.5 -53.5zM197 459l2 10q27 25 53.5 51.5t60.5 34.5q61 59 124 114.5t122 112.5q25 39 57.5 66.5t67.5 56.5q-14 -41 -21.5 -86t-27.5 -82q-25 -59 -58.5 -116.5t-50.5 -120.5q-20 -4 -37 -4h-36q-49 -12 -101.5 -17.5t-95.5 -34.5q-16 -4 -32.5 -1t-26.5 16z" />
<glyph unicode="5" d="M64.5 163.5q1.5 -22.5 6.5 -44t9 -39.5q23 -33 55.5 -57.5t61.5 -49.5q10 -6 21 -7t22 1q41 20 91 21.5t97 17.5q86 39 169 91.5t136 140.5q10 33 35 57t37 55q41 78 49 174.5t-12 184.5q-10 33 -32 60.5t-50.5 48t-62 32.5t-66.5 16q-29 -6 -58 -6q-27 0 -55 4 q-23 -2 -42 -11t-37.5 -19.5t-38 -20.5t-40.5 -14q2 8 7.5 16t9.5 16q47 63 75.5 134t73.5 137q16 12 38 13t44 5q78 -14 157 -9t144 46q25 16 54.5 19.5t52.5 25.5q8 14 8 33t-6 33q-10 10 -21.5 22.5t-27.5 5.5q-18 -25 -42 -36t-49.5 -17t-53 -10t-52.5 -12 q-35 4 -64.5 20t-60.5 29q-10 4 -14 12t-14.5 12t-17.5 0t-17 -8q-68 -20 -110 -79.5t-50 -127.5q-23 -33 -42.5 -66.5t-31.5 -72.5q-41 -45 -67.5 -94t-42.5 -103q-4 -25 1 -48t25 -38q20 -10 36.5 -4t31 18.5t28 26t29.5 17.5q63 43 131 59q12 -12 27 -12h31 q37 -14 46 -50t9 -71q-61 -246 -211 -465q-14 -16 -21.5 -35.5t-25.5 -34.5q-31 -23 -63.5 -30.5t-67.5 -22.5q-25 10 -46.5 31.5t-35.5 44.5q-14 59 -2 114.5t45 100.5q0 4 1 9t-3 9q-41 -10 -68.5 -45.5t-50.5 -70.5q-14 -16 -18.5 -38t-3 -44.5z" />
<glyph unicode="6" d="M72 370.5q-2 -32.5 1 -63.5t13 -59.5t35 -50.5q10 -49 52 -82t79 -62q76 -49 166 -67q51 10 98 19t88 40q20 4 41 6t39 8q35 10 60.5 33t48.5 51q12 8 23 16.5t20 18.5q43 59 67.5 128t34.5 145q2 72 -10.5 139t-46.5 125q-20 23 -40 44t-40 44q-16 10 -37 17t-39 -5 q-141 -4 -256 -57l-2 2q59 117 145 217q35 41 76 70q27 -6 44.5 5t35.5 27q23 23 53 23q33 0 62 -12q23 -10 32 -34t13 -46q0 -4 -2 -9.5t4 -7.5q18 -4 35.5 7.5t29.5 27.5q8 16 5 32.5t-11 31.5q-14 29 -35.5 45t-48 24t-55.5 9t-57 -1q-59 -2 -114.5 -20.5t-109.5 -34.5 q-68 -35 -127 -86t-118 -104q-39 -45 -80 -91.5t-66 -99.5q-10 -29 -29.5 -55.5t-11.5 -61.5q-18 -45 -36.5 -89t-24.5 -93q-2 -31 -4 -63.5zM287 219q0 72 15 139.5t34 133.5q18 37 31.5 77.5t54.5 69.5q53 39 111.5 62.5t123.5 27.5q10 4 26 3t22 -17q31 -78 25.5 -149.5 t-29 -141.5t-56.5 -137.5t-57 -132.5q-16 -12 -31.5 -26.5t-31 -27t-33 -20.5t-39.5 -8q-20 -4 -38 2t-35.5 15t-34.5 17.5t-36 10.5q-18 20 -18 47t-4 55z" />
<glyph unicode="7" d="M80 942q0 -14 8 -24q16 -4 29.5 8t25.5 22q37 35 43 74q16 41 54.5 63.5t76.5 34.5q10 -10 23.5 -16t28.5 -14q63 -29 130.5 -48.5t137.5 -17.5q8 0 19.5 1t19.5 -3q-23 -25 -40.5 -49.5t-33.5 -50.5q-111 -123 -197 -257.5t-151 -277.5q-10 -53 -33.5 -99t-52.5 -93 l-57 -150q-4 -16 -8.5 -36.5t10.5 -35.5q23 -18 50 -5.5t52 16.5q23 2 49.5 0t44.5 2q18 20 45 36.5t27 47.5q8 72 38 131t46 125q27 41 43 84t39 84q53 123 113.5 239.5t138.5 227.5q35 41 73.5 78.5t69.5 78.5q23 20 49.5 32.5t34.5 43.5q2 18 -6 35q-10 8 -21.5 9 t-25.5 1q-74 -23 -139 -49q-53 -23 -108.5 -40t-115.5 -22q-61 10 -117.5 33t-109.5 51q-31 18 -60.5 4t-54.5 -30q-23 -16 -49 -25.5t-47 -36.5q-25 -37 -49.5 -74.5t-38.5 -78.5q-4 -12 -4 -29z" />
<glyph unicode="8" d="M158 297q-10 -61 2 -121.5t45 -109.5q4 -14 9 -26.5t15 -23.5q14 -6 26.5 -15t26 -17.5t28 -14.5t30.5 -2l178 49q41 35 86 50.5t88 39.5q115 68 172 181q18 31 23.5 63.5t5.5 67.5q0 37 -3 72.5t-3 70.5q-23 53 -67 88t-81 76q29 25 58.5 49.5t60.5 44.5q29 33 50.5 70 t17.5 82q4 63 -28 112.5t-69 96.5q4 10 5.5 22t-5.5 23q-2 8 -9 11t-15 5q-18 -4 -37.5 -2t-38 6t-37 9.5t-37.5 5.5q-31 -10 -56.5 -30t-51.5 -36q-39 -29 -76 -61.5t-51 -77.5q-16 -59 -28.5 -125t-2.5 -131q6 -53 47 -90t80 -70q-55 -29 -109.5 -60.5t-101.5 -82.5 q-53 -33 -98 -84.5t-49 -114.5zM344 78v20q29 88 41 181.5t25 187.5q37 45 84 68.5t88 58.5q10 -4 16 -11.5t16 -9.5q23 -16 44.5 -34.5t17.5 -46.5q0 -23 4 -43.5t8 -40t5 -40t-7 -40.5q-20 -47 -47 -94.5t-64 -88.5q-51 -29 -102 -53t-111 -31q-10 0 -18 17zM546 968.5 q9 30.5 3 61.5q4 41 29.5 75t54.5 60q14 12 31 13q16 0 31.5 -5.5t30.5 -12.5t30 -13q14 -23 33.5 -44.5t34 -44t20.5 -49t-2 -57.5q-4 -31 -21.5 -53t-41 -40.5t-48 -36t-45.5 -38.5q-35 29 -66.5 62t-66.5 65q-16 27 -7 57.5z" />
<glyph unicode="9" d="M98 25q4 -14 17 -15q12 0 22 -4q57 2 105.5 19.5t101.5 29.5q82 35 160 88.5t141 120.5q59 47 109.5 110.5t89.5 129.5q14 16 22 36.5t15.5 41t14.5 41t22 36.5q12 31 25 67t19.5 73t3 72.5t-21.5 68.5q4 59 -12.5 116.5t-65.5 94.5q-25 12 -46 27.5t-38 40.5 q-18 8 -37.5 9t-35.5 11q-23 8 -42.5 -3t-37.5 -17q-33 4 -55.5 -10.5t-49.5 -22.5q-43 -12 -82 -37t-72.5 -57.5t-64.5 -68.5t-57 -73q-20 -35 -25.5 -73.5t-1.5 -77.5t16.5 -78t28.5 -72q25 -49 66 -90t88 -67q18 -10 37 -11q20 0 39.5 4t40 9.5t41.5 5.5q4 -6 5 -16.5 t1 -20.5q-10 -59 -44 -114.5t-82 -101.5t-104.5 -80t-111.5 -52q-18 -10 -38 -18.5t-40.5 -17.5t-36.5 -22.5t-29 -31.5zM446 651q-6 41 2.5 76t8.5 74q4 47 14 89t21 85q20 47 47.5 93t74.5 75q25 4 48.5 12t50.5 4q16 0 26 -20q0 -23 20.5 -31.5t28.5 -26.5 q-4 -111 -16 -217t-49 -205q-16 -27 -44 -39t-52 -24q-37 -14 -75 -25.5t-77 -7.5q-16 18 -18 42t-11 46z" />
<glyph unicode=":" horiz-adv-x="518" d="M104 96q10 -29 29 -60.5t53 -35.5q29 8 56.5 6t50.5 21q25 23 21.5 53.5t0.5 58.5q0 12 5.5 25.5t8.5 27t1.5 26t-11.5 22.5q-16 14 -37.5 11t-37.5 -13q-20 4 -38 -7.5t-34 -23.5q-20 -29 -45 -52.5t-23 -58.5zM229.5 552.5q1.5 -32.5 24.5 -56.5q12 -10 31.5 -11.5 t38.5 2.5q14 6 29.5 16.5t33.5 14.5q16 23 37.5 43.5t19.5 48.5q-6 14 -4 27.5t6.5 26t7.5 26t-1 27.5q-12 29 -45 35q-31 -4 -58.5 -20.5t-52.5 -39.5q-12 -18 -29.5 -37.5t-29.5 -40.5q-10 -29 -8.5 -61.5z" />
<glyph unicode=";" horiz-adv-x="548" d="M117 59q2 -24 20.5 -40.5t46 -19.5t49.5 11q12 6 25.5 11.5t24.5 19.5q-10 -29 -13.5 -61.5t-23.5 -59.5q-27 -18 -47.5 -46t-53.5 -30q-16 -8 -22 -23.5t-4 -31.5q4 -10 12 -16t16 -11q41 0 74 29q14 20 32.5 36.5t39.5 31.5q43 37 57.5 87t38.5 97q27 33 31 78t-12 86 q-18 14 -36 31.5t-40 23.5q-49 8 -90 -10.5t-70 -56.5q-6 -27 -25.5 -44.5t-23.5 -44.5q-8 -23 -6 -47zM242 518q6 -20 19 -38.5t34 -26.5q59 -10 106.5 20.5t81.5 71.5q14 16 19.5 40t-4.5 44q-4 25 -1 54.5t-22 49.5q-31 18 -66.5 9t-60.5 -27q-53 -33 -84 -82t-22 -115z " />
<glyph unicode="&#x3c;" horiz-adv-x="587" d="M66 383q12 -20 29.5 -31.5t37 -20.5t37.5 -20.5t33 -31.5q47 -43 96 -75t102 -65q16 -10 29.5 -30.5t38.5 -16.5q16 10 17 25.5t1 32.5q4 16 7.5 35.5t-2.5 39.5q-2 14 -17 15q-14 0 -24 -2l-76 38q-31 2 -57.5 15.5t-51 29t-48 33t-50.5 29.5l-2 4q70 43 141.5 76 t134.5 86l54 16q24 14 22 39q-8 25 -6 51.5t2 49.5q-2 10 -10 10h-17q-27 -14 -45 -39t-45 -41q-59 -18 -107 -62.5t-100 -85.5q-29 -18 -54 -39.5t-60 -25.5q-4 -8 -9.5 -16.5t-0.5 -22.5z" />
<glyph unicode="=" horiz-adv-x="763" d="M74 425q-2 -9 6 -13q25 -10 47.5 -1t44.5 19q78 23 164 26t164 -18q16 4 24 19.5t15 27.5q4 10 13 19.5t17.5 17.5t12.5 18.5t2 22.5q-6 20 -29 12q-41 -4 -79 -12t-81 -8q-35 -4 -74.5 1t-68.5 -11q-12 -4 -23.5 0t-20.5 10t-19.5 12t-22.5 6q-23 -4 -31 -18 q-14 -29 -30.5 -56.5t-26.5 -58.5q-2 -6 -4 -15zM182 662q4 -6 13.5 -7.5t15.5 -5.5q14 -4 24.5 0t20.5 11.5t21.5 12.5t23.5 3q57 10 111.5 5t109.5 -5q10 8 21.5 9t24 -2t23.5 -6t23 -3q18 4 27 16q10 27 28.5 49.5t14.5 51.5q-8 10 -20.5 13t-26.5 3q-78 -23 -169 -31 t-171 21q-12 2 -23.5 7t-23.5 1q-20 -14 -27.5 -37t-13.5 -45q-6 -16 -16.5 -29.5t-10.5 -31.5z" />
<glyph unicode="&#x3e;" horiz-adv-x="548" d="M70 98q4 -14 14 -18q10 0 20.5 -1t18.5 9q12 20 28.5 35.5t36 27t39 21.5t37.5 25q51 39 101.5 83t101.5 85q25 20 25 53q-8 12 -22.5 17t-31.5 3q-70 53 -135 116.5t-131 123.5q-10 14 -20.5 28.5t-26.5 18.5q-6 2 -15.5 3t-11.5 -7q-4 -10 -3 -21.5t3 -21.5 q4 -16 2 -32.5t-5 -32t-2 -31t11 -29.5q10 -8 23 -8q12 0 27 -2q33 -12 62.5 -33t59 -42.5t59.5 -41.5t62 -35q-59 -47 -121.5 -86t-128.5 -67q-14 0 -30.5 8t-28.5 -8q-16 -8 -12 -29q12 -31 4 -57.5t-10 -53.5z" />
<glyph unicode="?" horiz-adv-x="923" d="M84 106q-8 -33 1 -60.5t28 -51.5q23 -18 44 -6t42 18q29 -2 50 15.5t38 41.5q8 18 22.5 36t24.5 36.5t14 38.5t-6 45q-16 35 -56 40t-71 -11q-37 -29 -79 -59.5t-52 -82.5zM172 408q-4 -23 12 -39q18 -12 38 -4t36 12q33 0 68.5 -4t64.5 12q29 20 35 52t10 65 q23 53 69 87t97 52l43 2q41 16 78 45t72 62q27 29 46 63.5t30.5 71.5t11.5 76q-1 40 -15 79q-10 37 -40.5 72t-71.5 39q-35 27 -75 35t-82 3t-83 -17.5t-76 -26.5q-41 -14 -72.5 -45t-62.5 -66t-51.5 -74.5t-38.5 -80.5q-4 -20 -2 -41t18 -35q8 -14 22.5 -11t29.5 1 q18 4 27 21t16 34q-2 12 -8.5 25.5t-18.5 17.5q27 57 73 112.5t105 77.5q27 6 55.5 15.5t57 12.5t55.5 -2t51 -26q18 -33 15 -77q-16 -76 -45 -143.5t-80 -127.5q-18 -18 -41 -28.5t-46.5 -19.5t-45 -19.5t-39.5 -30.5q-35 -18 -73 -40t-73 -49.5t-60.5 -61t-35.5 -76.5z " />
<glyph unicode="A" horiz-adv-x="1359" d="M56.5 176q0.5 -31 11 -59.5t27 -55t32.5 -51.5q33 -41 75 -41q13 0 27 4q12 -2 23 -2q42 0 76 24q44 30 84 71q111 127 235 241q29 -10 58.5 -14t58.5 -12q25 -23 60 -23h6q13 1 25 1q25 0 48 -3q10 -2 23 -2q12 0 22 -4l-35 -57q-12 -41 -37.5 -73t-48.5 -67 q-8 -16 -14 -37.5t10 -38.5q14 -14 33 -6q31 16 68 17q37 0 72.5 2t67.5 12t52 45q31 18 46.5 46t26.5 57.5t20.5 59.5t25.5 56q96 23 158 107q6 6 8 16t10 19q0 10 4 21t0 24q-35 -23 -67.5 -47.5t-71.5 -38.5v4q4 14 8 27.5t14 29.5q16 51 39 99t47 100q31 80 73 154.5 t75 154.5q29 45 50.5 94t37.5 100q16 29 41 51.5t45 49.5q4 14 2 28.5t-6 26.5q-12 10 -37 10q-41 -4 -78 -21.5t-67 -43.5q-66 -16 -123.5 -52t-116.5 -71q-14 -10 -30.5 -15.5t-28.5 -15.5q-86 -72 -172 -133t-164 -145q-90 45 -187 45q-55 0 -98 -28l-86 -56 q-29 -26 -46 -60q-13 -26 -13 -51q0 -9 2 -18q8 -18 13 -37t15 -39q-2 -23 4.5 -41t16.5 -36.5t21.5 -35t21.5 -34.5q10 -12 19.5 -24.5t15.5 -27.5q-57 -59 -111.5 -114.5t-110.5 -114.5q-23 -23 -47 -47.5t-57 -26.5q-16 2 -32.5 8.5t-26.5 22.5q-12 16 -26.5 35.5t-24 41 t-12 44t8.5 45.5q4 12 13.5 20.5t5.5 24.5q-4 10 -19 6q-29 -2 -48 -21.5t-29 -41.5q-12 -31 -11.5 -62zM541 627q-10 20 0 39q23 33 53.5 47t60.5 30q20 10 43 11.5t44.5 -5t42 -16.5t38.5 -20q-47 -63 -90 -132t-90 -132h-6q-18 25 -37.5 48t-30.5 50q2 23 -11 41t-17 39z M707 391l6 17q49 63 90 129.5t88 132.5q59 -41 87 -97.5t56 -113.5l8 -37l-47 -90q-41 4 -81 5t-80 11q-12 12 -29 16.5t-34 6.5t-33.5 6t-30.5 14zM954 741q59 84 144.5 148.5t163.5 124.5q16 14 34.5 20t36.5 19q23 10 42 25.5t42 21.5l-4 -8q-45 -63 -73.5 -133 t-69.5 -136q-20 -39 -39 -78.5t-47 -74.5q-23 -35 -43.5 -69t-40.5 -69q-31 53 -62.5 108.5t-83.5 100.5z" />
<glyph unicode="B" horiz-adv-x="1458" d="M43 74q2 -31 11 -62.5t38 -52.5q29 -23 70 -29q11 -2 21 -2q29 0 55 13q39 16 74.5 31.5t70.5 37.5q39 16 80 39t55 70q51 41 90 91t70 103.5t55.5 109.5t50.5 112q57 94 100.5 194t80.5 205q47 70 100 135.5t127 112.5q8 8 20.5 14t12.5 23q18 -10 35.5 -21.5 t37.5 -19.5q0 -55 -1 -113.5t-5 -118.5q-2 -55 -40 -95t-78 -79q-22 10 -45 10q-14 0 -29 -4q-39 -10 -74 -20q-29 4 -57.5 -2t-42.5 -33q-3 -12 -3 -24q0 -36 29 -62q15 -6 30 -6q18 0 35 8q32 14 62 25q4 0 9.5 3t10.5 5t9 1t6 -9q16 -27 35.5 -52.5t26.5 -60.5 q1 -19 1 -38q1 -61 -9 -117q-12 -74 -40 -146q-4 -14 -15 -24.5t-22.5 -19.5t-19.5 -20.5t-8 -27.5q-16 -10 -32.5 -19.5t-33.5 -19.5q-25 -12 -52 -26.5t-57 -24t-59.5 -10.5t-60.5 12q-16 8 -19.5 22t-3.5 29q0 16 -3 29.5t-21 19.5q-25 4 -36 -16.5t-26 -34.5 q-10 -23 -9 -48.5t16 -45.5q22 -35 56 -45q28 -8 58 -7h12q36 2 74.5 10.5t69.5 12.5q35 14 67.5 30.5t73.5 24.5q59 20 114.5 60.5t92.5 99.5q96 74 115 188q-2 90 -31 171t-70 157q31 23 65 39t64 39q12 0 22.5 5t20.5 13q31 39 36 91q2 23 2 46q0 27 -3 54 q0 76 -35.5 140.5t-103.5 107.5l-53 36q-31 27 -75 28h-13q-37 0 -72 -5q-129 -23 -247 -71t-222 -130q-29 -10 -54.5 -23.5t-49.5 -27.5q-23 -16 -45.5 -31.5t-42.5 -38.5q0 -10 3 -21t15 -20q10 -6 22 3q43 31 89.5 55t93.5 47q162 117 364 160q27 4 55.5 7t57.5 -5 q-96 -25 -184 -88h-4q-53 -35 -106.5 -74t-94.5 -86q-70 -37 -122 -101.5t-67 -140.5q-16 -49 -24 -98t-23 -98q-41 -96 -87 -187.5t-93 -187.5q-29 -59 -86 -101.5t-125 -42.5q-18 0 -29.5 10.5t-17.5 26t-9 31.5t-9 31q-10 6 -21.5 9t-21.5 -1q-16 -10 -20.5 -23.5 t-4.5 -29.5z" />
<glyph unicode="C" horiz-adv-x="800" d="M36 565v-24q0 -35 2 -71q3 -48 5 -93q10 -47 17.5 -96.5t27.5 -94.5q29 -39 56.5 -77.5t64.5 -71.5q25 -23 57 -32q29 -8 61 -8h7q35 1 67.5 10t61.5 22q33 2 60.5 13t53 28.5t50 36t51.5 34.5q23 18 38 39t38 35q35 47 61.5 98.5t30.5 108.5q0 14 1.5 25.5t-7.5 21.5 q-16 -10 -22.5 -26.5t-16.5 -32.5q-31 -86 -104.5 -159t-151.5 -120q-10 -4 -15 0q-18 -4 -34.5 -13t-32.5 -16q-23 -6 -51.5 -12t-57 -5t-54.5 9t-42 29q-41 63 -43 146v8q0 78 39 141q2 59 24.5 109.5t49.5 99.5q35 25 47 61.5t33 69.5q29 33 50 69.5t42.5 73.5t45 73 t54.5 66q12 14 28.5 23.5t34 16.5t33 16.5t27.5 27.5q18 5 38 5q18 0 37 -4t37 -4q20 0 37 5q20 -6 39 -11t39 -7q29 -2 49.5 -23.5t30.5 -44.5q8 -14 5 -26.5t-10 -23.5t-16.5 -22.5t-13.5 -23.5q-6 -16 3.5 -27.5t19.5 -23.5q6 -6 16 -7t19 -1q14 4 21 16t11 23 q-6 29 10.5 50t18.5 50q1 6 1 13q1 33 -17 59q-20 32 -49 57q-29 12 -53.5 27.5t-57.5 11.5q-14 -4 -23.5 5t-23.5 7q-40 5 -79 5h-13h-30q-30 0 -62 1q-29 -6 -59 -11t-54 -23q-109 -25 -205 -78.5t-176 -139.5q-55 -41 -92 -96t-55 -117q-16 -41 -22.5 -87t-7.5 -93z" />
<glyph unicode="D" horiz-adv-x="1542" d="M14 55q6 -25 21.5 -41t35 -27.5t41 -20.5t40.5 -17q23 -8 42 -4t36.5 13t33 22.5t31.5 25.5q33 29 61.5 58.5t59.5 54.5q29 -37 55.5 -78t69.5 -70q18 2 35.5 -5t34 -14t34 -12.5t37.5 -0.5q31 6 62.5 7t64.5 2t62.5 8t56.5 30q88 23 162.5 73t156.5 95q18 12 29.5 28.5 t23 33.5t24.5 33.5t32 31.5q78 82 108.5 182t36.5 215q2 12 0 21.5t-5 17.5t-6 17t-1 20q-16 45 -31.5 94t-37 95t-54.5 85t-82 64q-12 27 -33.5 41t-45 24t-48 18.5t-45.5 24.5q-43 27 -88 48.5t-94 31.5q-18 1 -35 1q-72 -1 -136 -21q-79 -26 -153 -66 q-35 -23 -65.5 -50.5t-38.5 -68.5q2 -14 9 -26.5t21 -16.5q12 0 26.5 2t21.5 17q10 14 13 30.5t15 26.5q41 25 88 46q48 20 98 31q46 10 93 10h9q52 -1 101 -17q47 -37 97.5 -68t97.5 -72l23.5 -23.5t13.5 -29.5q10 -35 23.5 -65.5t19.5 -65.5q1 -27 1 -54q0 -54 -5 -108 q-8 -80 -31 -151q-23 -14 -28 -35t-15 -39q-31 -88 -88 -164t-119 -149q-14 6 -23.5 -2.5t-19.5 -12.5q-51 -53 -109.5 -82.5t-125.5 -42.5q-16 0 -35 -2t-29 11q-27 35 -32 76.5t-15 82.5q-10 23 -20.5 45.5t-26.5 44.5q154 174 192 398q39 82 86.5 158.5t85.5 158.5 q4 41 32 74t63 57q6 8 15 9t11 12q-23 8 -43 2q-37 0 -67.5 -16.5t-58 -40t-53.5 -50t-52 -47.5q-12 -4 -21.5 -12t-19.5 -19q-47 -63 -95 -123.5t-96 -123.5q-39 -86 -61.5 -176.5t-34.5 -184.5q-26 4 -50 3q-80 0 -146 -39q-86 -52 -154 -134q-16 -35 -42 -59.5t-28 -63.5 zM109 66q18 51 62 99t103 58q10 2 19 2q35 0 65 -32q2 -16 -10 -27.5t-22 -24.5q-29 -33 -62 -63.5t-67 -52.5q-20 -8 -39 2t-35 16q-6 4 -9 10t-5 13z" />
<glyph unicode="E" horiz-adv-x="892" d="M32 158q3 -35 14 -68t36 -57q33 -16 62.5 -34.5t64.5 -29.5q28 -12 57 -12q17 0 34 4q48 10 85 31q47 29 97 46t96 50l2 4q14 2 26 14q59 35 116.5 71t111.5 79q18 20 41.5 28.5t39.5 30.5q23 35 38.5 71t19.5 77h-4q-27 -18 -46.5 -40t-39.5 -44q-63 -45 -126 -91 t-130 -77q-47 -23 -87 -54.5t-89 -37.5q-18 -4 -36 -12.5t-36.5 -14.5t-36.5 -9t-37 1q-16 33 -16 72q0 41 6 77q37 88 83 169t91 167q37 20 79 30.5t83 23.5q12 16 30.5 13t34.5 5q16 12 32.5 21.5t31.5 23.5q14 18 8 39q-14 33 -47 31q-16 -10 -34.5 -11.5t-37.5 -1.5 q-35 0 -69 -3h-7q-29 0 -53 20q-4 10 -6 25.5t2 25.5q20 2 35.5 8t32.5 10q55 18 111.5 36t110.5 39.5t103 51t92 74.5q39 18 67 54t48 73q0 10 5 18.5t11.5 15.5t10.5 15.5t2 20.5q0 27 -13.5 49t-37.5 33q-57 23 -124 33q-27 4 -52 4q-38 0 -74 -9q-12 1 -23 1 q-34 0 -67 -9q-43 -12 -82 -29q-109 -53 -199 -145t-154 -197q-51 12 -90 58q-12 14 -13 30.5t3 33t11.5 31.5t11.5 30q4 18 14 32.5t10 32.5q-53 -14 -82.5 -62t-46.5 -95q-8 -23 7.5 -38.5t19.5 -35.5q16 -37 49 -63.5t66 -49.5l6 -8q-8 -23 -6 -47.5t12 -44.5 q14 -39 49 -58.5t70 -31.5v-4q-41 -23 -84 -39.5t-84 -42.5q-78 -49 -132.5 -125t-66.5 -164q-6 -33 -10 -69q-2 -20 -2 -40q0 -15 1 -30zM563 909q14 35 40 66t48 63q47 59 101.5 113.5t119.5 89.5q39 7 81 13q10 2 19 1q31 0 58 -16l8 -12q10 -18 4 -37t-16 -37 q-8 -14 -22.5 -21.5t-26.5 -21.5q-37 -41 -80 -69.5t-89 -50t-94 -38t-96 -34.5q-12 -4 -26 -5.5t-29 -3.5z" />
<glyph unicode="F" horiz-adv-x="1142" d="M31 158q10 -41 27.5 -74t45.5 -66q8 -14 21.5 -20t29 -7t29.5 -1h29q14 -1 27 -1q51 0 97 12q58 15 112 52q66 20 120 69.5t101 104.5q29 47 54.5 95.5t59.5 91.5q35 70 69 139.5t69 136.5q20 6 40.5 7t41.5 5q25 6 54 7.5t57 5.5t49.5 16t33.5 43q4 23 11.5 41.5 t15.5 40.5q2 10 3 21.5t-9 15.5q-20 8 -35 2q-49 -23 -101.5 -38t-109.5 -17q27 57 57.5 113.5t77.5 101.5q29 25 63.5 28.5t69.5 16.5q20 4 37 16q43 12 83 33.5t77 48.5q20 14 42.5 22t30.5 37q2 18 3.5 38t-15.5 32q-6 4 -13 2t-13 -2q-20 -6 -36 -21.5t-36 -23.5 q-43 -40 -97 -60q-44 -16 -92 -17q-10 0 -20 1q-31 8 -61.5 15.5t-57.5 27.5l-33 27q-47 37 -103 51q-46 12 -95 12q-12 0 -22 -1q-60 -3 -118.5 -17t-107.5 -35q-53 -29 -104.5 -53.5t-96.5 -65.5q-20 -27 -45.5 -49t-25.5 -59q2 -10 10 -18.5t18 -12.5q18 -2 34.5 5 t30 19.5t26 28t22.5 27.5q16 16 29.5 31.5t29.5 25.5q31 4 61.5 15.5t62.5 18.5t64 8h4q29 0 58 -13q29 -53 81 -72.5t105 -38.5q-20 -29 -44.5 -49t-47.5 -49q-47 -29 -81.5 -71t-69.5 -80q-20 -4 -39 -8.5t-37 -4.5q-16 10 -33.5 14.5t-36.5 12.5q-14 2 -28.5 4t-24.5 -12 q-12 -33 -41 -55.5t-45 -53.5q-2 -10 -3 -18t7 -17q20 -12 41 -1.5t41 16.5q34 4 68 5h23q23 0 46 -1q-6 -23 -14 -42.5t-16 -41.5q-14 -72 -44 -137.5t-51 -137.5q-8 -25 -12 -50t-10 -50t-16.5 -46.5t-30.5 -39.5q-53 -52 -125 -74q-61 -18 -123 -19q-12 0 -23 1 q-18 6 -31.5 20.5t-23.5 30.5q2 25 -5 46.5t-24 35.5q-18 6 -34.5 -2t-30.5 -21q-12 -12 -8 -30z" />
<glyph unicode="G" horiz-adv-x="1251" d="M-87 -338.5q-3 -19.5 3 -42.5q-4 -27 8.5 -42t29.5 -24.5t37.5 -16.5t37.5 -19q21 -12 45 -12q8 0 18 2q33 6 60 18l30 -2q47 12 91 30.5t89 40.5q23 4 45.5 8.5t43.5 14.5q76 51 141 118.5t123 139.5q31 41 53.5 83t50.5 83q37 23 76 41t78 39q53 47 112.5 82t112.5 78 q35 23 65.5 53.5t41.5 71.5q2 10 7 24.5t-5 26.5q-8 0 -11 -6q-16 -23 -39.5 -43.5t-46.5 -38.5q-47 -35 -97 -57.5t-97 -59.5q-29 -20 -57.5 -39.5t-63.5 -32.5q37 59 73 122t72.5 122t78.5 116.5t93 108.5q25 14 52.5 32.5t23.5 53.5q-12 14 -26.5 15.5t-28.5 -5 t-28.5 -15.5t-26.5 -11q-8 1 -16 1q-27 0 -51 -12q-30 -14 -62 -12q-25 -2 -42.5 13.5t-37.5 17.5q-20 -4 -34.5 -15.5t-25.5 -25.5q3 -16 3 -32q0 -34 -16 -64q-22 -43 -44 -84q-39 -61 -91 -117.5t-114 -95.5q-16 -18 -32.5 -31.5t-34.5 -28.5q-47 -29 -93.5 -61.5 t-103.5 -42.5q-20 0 -33 18q-41 37 -58 89q-7 22 -7 45q0 29 12 59q25 27 37 57.5t24 59.5q33 59 60.5 119.5t58.5 119.5q53 14 99.5 35t99.5 37q115 35 216 102.5t193 153.5q33 29 52.5 66.5t31.5 76.5q3 14 3 28q0 19 -5 37q-8 32 -30 54q-31 33 -71 45t-81 15 q-111 -8 -206 -51.5t-179 -116.5q-59 -35 -112.5 -80t-104.5 -99q-41 -49 -85 -99t-73 -107q-29 10 -54.5 28.5t-41.5 46.5q-2 27 -8 51.5t-10 49.5q0 23 6 43t8 43q16 31 40.5 54.5t47.5 49.5l86 62q8 4 15.5 10t9.5 16q-2 2 -9 2q-10 1 -20 1q-47 0 -85 -24 q-46 -28 -89 -63q-45 -31 -63.5 -77t-28.5 -93q9 -37 9 -74v-7v-6q0 -37 11 -70q25 -41 64 -72t73 -62q-14 -37 -22 -75.5t-17 -79.5q-6 -29 0.5 -54.5t16.5 -50.5q-10 -37 -10 -77q0 -18 2 -35q6 -60 24 -113q29 -29 40 -63.5t46 -63.5q16 -16 32.5 -33.5t39.5 -23.5 q59 2 109.5 29.5t101.5 50.5q14 10 29.5 18t23.5 25q27 23 53.5 46t55.5 46h2q-29 -51 -57.5 -104.5t-63.5 -100.5q-55 -23 -116.5 -35t-119.5 -31q-20 -16 -43.5 -19t-46.5 -13q-80 -35 -160.5 -70t-144.5 -106q-8 -18 -19.5 -35t-18.5 -35t-10 -37.5zM-2 -340.5 q6 23.5 18 41.5q14 25 37 41t45 33q63 37 130 64.5t139 43.5q39 23 83 34.5t85 27.5q-25 -53 -60 -108.5t-79 -102.5t-96 -83t-114 -50q-23 2 -47 -4.5t-47.5 -9.5t-46 1t-41.5 25q-12 23 -6 46.5zM532 793q59 111 129 213t170 192q14 6 24.5 16.5t23.5 16.5q23 0 44 9 t40.5 17.5t40 10.5t43.5 -15q14 -4 24.5 -16.5t18.5 -24.5q6 -23 1.5 -42t-15.5 -37.5t-25.5 -36t-26.5 -33.5q-94 -90 -200.5 -150.5t-223.5 -97.5q-18 -6 -34.5 -12t-33.5 -10z" />
<glyph unicode="H" horiz-adv-x="1519" d="M24 124q5 -36 5 -71q8 -23 12 -44t18 -42q33 -12 70 -14q9 -1 18 -1q27 0 54 5q16 2 27.5 12.5t25.5 10.5q35 -4 58.5 14t47.5 36l50 15q45 33 82.5 64.5t76.5 72.5q31 27 52.5 64t56.5 61q45 59 85 117.5t77 122.5q6 23 25.5 21.5t33.5 6.5q35 10 73 17.5t75 13.5 q-25 -53 -41.5 -108.5t-20.5 -114.5q0 2 -2 2l2 -4q2 -13 2 -25q0 -24 -7 -44q-11 -32 -15 -66q2 -43 6 -86t24 -78q-8 -31 13.5 -55.5t44.5 -40.5q23 -23 54.5 -20t55.5 14q23 8 39.5 28.5t40.5 28.5q6 10 16.5 11t20.5 11q18 23 40.5 36.5t47.5 25.5q31 23 51.5 47.5 t40.5 56.5q39 43 63.5 95.5t37.5 109.5q2 8 4 18.5t-4 18.5q-6 4 -11 -4q-35 -51 -68.5 -98.5t-68.5 -98.5q-66 -59 -134.5 -118.5t-145.5 -94.5q-12 -6 -25 10l-29 66q-4 16 -9 29.5t-1 29.5q66 129 133.5 254t143.5 250q100 29 195 72t181 108q25 23 45 48.5t43 48.5 q16 47 22 103q1 8 1 16q0 46 -33 81q-16 18 -30.5 40t-43.5 22q-10 10 -21 16t-22 10q-25 10 -47 -12q-20 0 -41.5 -1t-40.5 -7q-57 -20 -106 -57t-90 -82q-39 -23 -60.5 -58.5t-44.5 -70.5q-25 -25 -46 -47.5t-40 -53.5q-25 -41 -48 -85t-40 -91q-41 -12 -86 -20t-86 -19 l-2 2q29 80 70 155t61 159q20 43 32.5 89t39.5 87q8 23 28.5 42t39 39.5t31 43t3.5 53.5q0 14 -18 10q-23 -23 -52.5 -29t-54.5 -28h-28q-47 -25 -92 -54.5t-92.5 -56t-96.5 -46t-104 -23.5l-123 92q-25 16 -60 16t-65 -2q-27 8 -48.5 -3t-41.5 -28q-27 -25 -53.5 -50 t-49 -54t-36 -60.5t-13.5 -68.5q4 -14 23 -18q12 -4 23.5 1t19.5 15q6 18 17 32.5t22.5 29t20.5 30.5t9 35q16 23 38 39t46 20q20 -6 24.5 -25.5t15 -33.5t24.5 -25.5t33 -7.5q12 -4 11 -15t9 -20q2 -4 7 -3t12 -3l112 6q37 0 69 11.5t61.5 27t58 32.5t59.5 30 q-41 -61 -79 -124t-95 -116q-47 -66 -81 -135.5t-67 -140.5q-96 -25 -180 -76t-172 -96l-96 -89q-35 -29 -52.5 -63.5t-45.5 -62.5q-7 -22 -7 -45q0 -12 2 -24zM109.5 97.5q-3.5 27.5 1.5 56.5q16 47 51 82.5t65 74.5q12 23 37 33t43 27q55 37 115 62.5t117 58.5 q0 -10 -6.5 -21.5t-10.5 -26.5q-10 -37 -22.5 -73.5t-18.5 -75.5q-14 -27 -31.5 -50.5t-31.5 -47.5q-20 -33 -49 -62t-64 -39q-20 -23 -46 -30t-54 -9q-16 -10 -35.5 -20t-42.5 -7l-10 11q-4 29 -7.5 56.5zM1403 786q33 72 71.5 139.5t77.5 137.5q23 29 51.5 47t47.5 49 q8 4 15 7t17 -1q12 -6 20.5 -14t14.5 -18.5t12.5 -18.5t16.5 -14q4 -16 2 -32t-2 -32q-4 -39 -35 -67.5t-61 -57.5q-23 -16 -47.5 -30.5t-49.5 -24.5l-4 2l-2 -2q-29 -12 -56.5 -24.5t-55.5 -22.5z" />
<glyph unicode="I" horiz-adv-x="999" d="M45 172q-5 -18 -5 -35q0 -19 6 -38q11 -36 28 -64q25 -37 63.5 -51.5t77.5 -24.5q42 -14 87 -14h12q52 2 94 16q76 29 142 80t128 111q23 14 41 35.5t35 39.5q18 14 31.5 36t29.5 36q47 66 85 132.5t75 133.5q51 86 93 171t81 173q39 66 82 131.5t86 130.5l69 46 q23 16 28 44.5t1 57.5l-6 14q-18 2 -32.5 -4t-27 -16t-24.5 -21.5t-25 -19.5q-41 -14 -78.5 -32.5t-76.5 -35.5q-35 -16 -70 -37.5t-78 -23.5q-29 -16 -62.5 -18.5t-66.5 -6.5q-12 -2 -23 7.5t-16 19.5q-10 35 -19 70.5t-28 66.5q-16 25 -41.5 27t-50.5 4 q-59 -27 -114.5 -53.5t-108.5 -65.5q-16 -8 -28.5 -23.5t-10.5 -35.5q-8 -12 -20.5 -25.5t-22.5 -27t-13 -29t7 -33.5q6 -14 27 -14q23 4 39 23.5t34 29.5q10 14 11.5 30.5t11.5 26.5l65 41q35 16 68 34.5t72 22.5q10 0 10 -10t6 -14q0 -49 25.5 -93t70.5 -67q24 -2 45.5 -2 t42.5 2q41 4 90 6q14 4 29.5 6t26.5 0q-29 -37 -64 -72.5t-65 -72.5q-29 -33 -53.5 -69.5t-61.5 -61.5q-59 -59 -101 -125t-74 -137.5t-56.5 -146t-49.5 -148.5l-32 -43q-18 -16 -35 -36.5t-35 -39t-39.5 -33t-46.5 -16.5q-29 -6 -58 -5q-22 0 -46 3q-52 8 -89 43 q-18 16 -21 44t5 50q6 10 17.5 14.5t17.5 18.5q8 20 9 43.5t-15 42.5q-8 6 -17.5 3t-17.5 -3q-35 -23 -52.5 -55.5t-27.5 -67.5z" />
<glyph unicode="J" horiz-adv-x="1091" d="M-68 -373q4 -35 26 -64.5t54 -51.5q2 -8 2 -19q0 -10 9 -12h-3q8 -20 25.5 -33.5t36.5 -21.5q25 0 47.5 10t44.5 24h16q23 10 45.5 23.5t40.5 34.5q25 23 41.5 50t49.5 38q63 45 101 107.5t69 125.5q45 59 85 122t72 128l111 86q70 55 144.5 92t144.5 86q39 35 45 88 q0 14 -9 13l-65 -39q-72 -35 -138.5 -76t-131.5 -86v10q23 59 53.5 111.5t54.5 111.5q12 23 20.5 46.5t16.5 47t20.5 45t34.5 38.5q41 49 74 102t62.5 106.5t60.5 106.5t68 102q23 35 41 73t59 54q35 16 51 50q13 27 13 58q0 7 -1 15l-10 14q-18 4 -32.5 -2t-28 -15 t-25.5 -20.5t-27 -19.5q-16 -4 -28 -9t-27 -11q-25 -18 -53.5 -31.5t-56 -26t-54 -27t-51.5 -36.5q-82 0 -170 -6l-14 12q-16 41 -27.5 84t-42.5 78q-29 14 -54.5 11t-49 -14.5t-47 -26.5t-45.5 -23q-35 -16 -68 -37t-61 -49q-4 -29 -29 -51.5t-35 -51.5q-4 -10 0 -21.5 t8 -21.5q4 -8 13.5 -12t21.5 0q29 16 52.5 42.5t31.5 61.5q49 33 98.5 61.5t108.5 39.5q12 -6 15 -15.5t3 -19.5v-23q0 -10 4 -20q14 -29 36 -57.5t50 -47.5q12 -8 23.5 -7t23 4t22.5 6t24 3q25 -2 45 2.5t43 -4.5q-12 -14 -24.5 -25t-22.5 -26q-57 -72 -105.5 -145.5 t-87.5 -155.5q-49 -59 -88 -120.5t-78 -125.5q-23 -29 -33 -63.5t-22 -67t-32.5 -61.5t-59.5 -43q-59 -31 -121 -63.5t-119 -70.5t-110.5 -84t-96.5 -106q-29 -59 -51 -122.5t-27 -135.5zM20 -334q4 49 25 91t33 87l145 140q61 39 125.5 73.5t130.5 69.5q-25 -70 -47 -139.5 t-45 -141.5q-41 -66 -77 -134t-99 -124q-14 -10 -29.5 -27.5t-36.5 -13.5l-47 -24q-4 8 -7 16t-9 19q-20 25 -43 49q-20 20 -20 49q0 5 1 10z" />
<glyph unicode="K" horiz-adv-x="1648" d="M18 162q-5 -24 -5 -48q0 -35 10 -69q25 -61 83 -82.5t117 -30.5q12 -1 24 -1q70 1 133 21q73 24 138 60q100 80 195.5 176.5t156.5 208.5q0 6 7.5 7.5t3.5 7.5q39 76 79.5 147.5t73.5 149.5q47 119 107.5 232.5t109.5 229.5q25 37 52.5 73t44.5 77q20 20 42.5 39.5 t32.5 48.5q8 25 -6 47q-4 12 -17.5 15.5t-23.5 -1.5q-76 -53 -156.5 -95t-164.5 -77q-18 -6 -39 -15t-40.5 -15t-41 -7t-43.5 9q-16 23 -32.5 50.5t-38 50t-48.5 35.5t-59 9q-82 -18 -150.5 -64t-136.5 -100q-12 -16 -30.5 -29.5t-33 -27.5t-20.5 -31.5t4 -40.5 q6 -20 31 -20q29 16 61.5 39.5t48.5 58.5q41 35 80 65.5t86 47.5q15 4 29 4q18 -1 35 -7q31 -12 55 -34q10 -10 23.5 -19.5t5.5 -25.5q10 -23 22.5 -42.5t34.5 -29.5q24 -4 46 -4q28 0 56 6q48 10 99 19v-2q-47 -68 -97.5 -133.5t-97.5 -133.5q-23 -41 -51.5 -82t-40.5 -88 q-10 -45 -33.5 -84t-36.5 -82q-33 -82 -67.5 -161.5t-50.5 -167.5q-10 -20 -25.5 -40t-30.5 -38q-47 -55 -103 -95t-128 -53q-12 -1 -24 -1q-35 1 -71 9q-48 12 -83 40q-12 14 -22.5 27.5t-6.5 31.5q-4 20 11.5 30.5t25.5 20.5q10 16 14 35.5t0 38.5q-10 25 -39 29 q-8 -4 -14 -8.5t-14 -8.5q-44 -42 -56 -102zM1047 121q4 -47 29.5 -82t60.5 -64q10 -10 20 -17t25 -3q66 14 120 52t103 87q63 63 131 124t125 132q15 30 37 58q20 26 20 57v6q-2 8 -12 4l-90 -90t-94 -92q-74 -61 -144.5 -133t-154.5 -117h-11q-4 0 -8 4q-4 16 -1 32.5 t5 31.5q14 45 35 88t62 75q59 72 92 156t37 176q2 27 -7.5 50.5t-25 44t-33.5 39t-37 34.5q61 23 114.5 60.5t106.5 85.5q25 55 57.5 104t78.5 94q12 10 22 23.5t22.5 26t26 19.5t29.5 5q10 -29 35 -41q20 -4 36.5 10.5t32.5 30.5q23 16 28 39.5t1 46.5l-25 29 q-34 16 -74 19h-8q-35 0 -61 -21q-35 -31 -67.5 -64t-61.5 -72q-37 -41 -76 -83t-53 -95l-70 -65q-18 -18 -38.5 -29.5t-42 -20t-44 -16.5t-43.5 -20l-16 2q-41 -4 -80 -18.5t-71 -45.5q-10 -33 14 -53q29 -10 60.5 -2t60.5 2q18 -10 40.5 -26.5t18.5 -41.5 q-27 -33 -56.5 -60.5t-57 -56t-52 -59t-39.5 -69.5q-20 -68 -24 -143.5t-8 -147.5z" />
<glyph unicode="L" horiz-adv-x="1130" d="M35 83q4 -65 33 -118q10 -6 23 -14t30 -8q49 4 102 9t101 21q49 33 92 77t84 85q23 -29 43 -57.5t45 -52.5q23 -12 45 -28.5t51 -4.5q4 -6 11 -9t16 -8q25 -5 48 -5q32 0 62 10q51 16 95.5 49.5t80 78t64.5 87.5q16 25 31.5 52t31.5 50q16 41 38 83q20 38 20 81v8 q-2 4 -2 10q0 8 -4 10l-19 -14q-41 -86 -93 -166t-124 -153q-33 -25 -65.5 -56.5t-73.5 -38.5q-10 2 -20.5 3.5t-16.5 11.5q-35 72 -74 140.5t-86 133.5q6 10 8 20.5t13 18.5h2v10q35 94 75.5 185.5t75.5 187.5q49 23 99.5 42.5t101.5 35.5q66 27 117 81t100 107 q14 27 32.5 52.5t31 53t15.5 57.5q1 6 1 12q0 24 -10 51l-27 28q-33 35 -78 35h-86q-23 -4 -46 -5t-42 -15q-35 -10 -65.5 -31t-65.5 -31q-59 -31 -105 -84l-92 -106q-45 -59 -75.5 -127t-61.5 -133q-41 -12 -89 -12q-13 1 -27 1q-62 4 -105 41q-23 18 -26 44t-19 49 q-23 -4 -30 -24t-15 -36q-4 -31 12 -59q25 -35 56.5 -54.5t67.5 -29.5t73 -12.5t72 -2.5q-12 -66 -35 -127t-33 -127l-6 -8q-37 -8 -72 -19t-72 -22q-23 -6 -39 -22.5t-36 -26.5q-39 -35 -83 -64.5t-69 -76.5q-13 -47 -13 -98q0 -13 1 -26zM115 123q4 27 21.5 46t35.5 40 q29 25 60.5 56.5t66.5 43.5q25 4 40.5 -13.5t29.5 -33.5q-20 -33 -38 -65.5t-40 -63.5q-33 -23 -63.5 -50.5t-67.5 -39.5q-29 0 -33 28.5t-12 51.5zM817 881q4 23 11.5 43t9.5 43q45 53 70.5 114.5t60.5 120.5q35 37 87 46q25 4 49 4q27 0 54 -5l2 -6q10 -2 17.5 -9 t13.5 -15q6 -31 -9.5 -54.5t-27.5 -48.5q-25 -33 -51.5 -65.5t-58 -60t-67.5 -48t-75 -29.5q-23 -8 -44 -15t-42 -15z" />
<glyph unicode="M" horiz-adv-x="2136" d="M43 283q-3 -23 -3 -46q0 -66 26 -129q34 -85 112 -126q48 -23 102 -23q13 0 27 1q70 7 127 40q45 45 87 95t61 108q37 43 64.5 91t68.5 85q18 14 29.5 32.5t20.5 37t18.5 36t25.5 33.5q53 53 95 112.5t85 119.5q35 39 72 75.5t72 75.5q10 4 18 13.5t14 19.5 q20 4 34.5 21.5t31.5 27.5q-12 -31 -24.5 -60.5t-22.5 -60.5q-47 -121 -78 -247t-49 -257q-20 -53 -41 -105t-39 -106q-4 -20 -15.5 -37.5t-23.5 -35t-20.5 -36t-6.5 -40.5q4 -10 11.5 -15.5t17.5 -9.5q23 -4 44.5 7.5t37.5 31.5q45 23 88 52.5t76 76.5q33 53 81 96.5 t91 88.5q66 57 115 127q27 41 63.5 71.5t69.5 69.5q55 82 118.5 166t145.5 151l10 2q-35 -78 -70.5 -154.5t-58.5 -158.5q-47 -82 -92 -164t-70 -172q-9 -29 -9 -58q0 -22 5 -43q12 -50 45 -87q4 -14 9.5 -27.5t19.5 -25.5q38 -28 79 -28q26 0 54 11q115 53 221.5 130 t181.5 190q11 34 27 64q12 24 13 52q0 7 -1 15q-2 8 -10 4q-70 -119 -178.5 -204t-218.5 -155q-20 -10 -42 -20t-46 -2q-12 4 -16.5 15t-6.5 24q6 31 31 55.5t47 50.5q43 74 78 150t90 143q45 86 85 173t79 175t80 174t92 170q14 18 36.5 25.5t28.5 34.5q0 14 -2 27.5 t-12 23.5q-12 12 -33 12q-23 -4 -35 -22q-147 -68 -277 -180.5t-251 -229.5q-47 -55 -97 -105.5t-85 -109.5q-20 -35 -48 -65.5t-56.5 -59.5t-55.5 -59.5t-47 -67.5q-23 -29 -49.5 -47t-50.5 -45q8 29 24.5 57.5t22.5 63.5q29 100 59.5 197.5t69.5 195.5q12 35 29.5 66.5 t27.5 68.5q16 59 33.5 114.5t40.5 113.5q8 14 20.5 28.5t23.5 28.5t15 29.5t-2 33.5l-20 29q-16 4 -26.5 -4t-22.5 -14l-3 2q-20 -16 -43.5 -37t-46.5 -43q-96 -53 -179 -128t-161 -153q-10 -16 -25.5 -23t-21.5 -24q-47 -31 -84 -72t-70.5 -85t-64.5 -90t-63 -89 q-45 -29 -67.5 -69.5t-45.5 -81.5q-41 -41 -71.5 -86t-61.5 -90q-23 -31 -46.5 -67t-51 -68.5t-59.5 -60.5t-70 -42q-23 -4 -45.5 2t-45.5 14q-47 10 -68.5 51.5t-35.5 82.5q-6 31 1 58.5t19.5 53t24.5 51t14 54.5l-6 12q-10 8 -19 1t-20 -11q-33 -25 -61.5 -56.5 t-38.5 -72.5z" />
<glyph unicode="N" horiz-adv-x="1544" d="M42 262q-3 -29 13 -59q23 -63 67 -123t107 -94q20 -8 42 -8q13 0 26 3q37 7 70 13q94 41 168.5 124t128.5 169q23 23 45 46t36 52q12 29 32 54.5t42.5 50t44 49t37.5 53.5q59 100 151.5 180t196.5 127h6q-41 -55 -74.5 -114.5t-66.5 -120.5q-31 -72 -62.5 -146 t-54.5 -149q-6 -29 -12 -55.5t-12 -53.5l-101 -160q-23 -18 -40 -42.5t-21 -55.5q4 -8 6 -13t10 -12q16 -8 31.5 -0.5t28.5 15.5q20 20 45.5 27.5t48.5 23.5q66 49 135.5 106.5t112.5 129.5q31 16 57.5 36.5t50.5 46.5q43 43 91.5 79t95.5 77q43 35 64.5 79t49.5 85 q43 43 72 91t64 97q20 23 34.5 48.5t28.5 52.5q16 41 55 73.5t70 63.5q12 20 22.5 39.5t30.5 32.5q29 23 66 32q17 4 34 4q21 0 42 -6q23 -4 29.5 -24.5t13.5 -36.5q4 -12 4 -29q0 -16 10 -28q12 2 20 16q20 41 28 89q3 18 2 37q0 29 -7 58q-14 23 -35.5 38.5t-50.5 4.5 q-25 -16 -54.5 -20t-54.5 -17q-37 -10 -63.5 -33.5t-51 -52t-49 -56.5t-55.5 -48q-37 -35 -55.5 -77t-50.5 -79q-45 -57 -78 -119.5t-86 -117.5q-25 -39 -49.5 -79t-63.5 -71q-53 -37 -98 -83t-96 -85q27 61 48 126t41.5 130.5l41 131t47.5 126.5q55 78 99 160t110 154 q10 18 21.5 39.5t-5.5 44.5q-10 6 -19.5 11t-19.5 1q-31 -18 -56.5 -45t-51.5 -51q-119 -45 -220.5 -127t-193.5 -180q-53 -31 -98 -73t-84 -91t-75 -100.5t-73 -100.5q-43 -29 -64.5 -72t-47.5 -84q-41 -37 -69 -81t-56 -87q-25 -29 -51.5 -57.5t-56.5 -53t-62.5 -40 t-71.5 -17.5q-35 -14 -59.5 7.5t-44.5 46.5q-29 37 -55 77q-17 25 -17 55q0 18 6 38q12 25 22.5 53.5t23.5 54t34.5 46t54.5 26.5q16 5 31 5q19 0 35 -8q30 -16 61 -28q10 16 11 37t-9 37q-16 23 -34.5 46.5t-49.5 20.5q-16 2 -27.5 -6t-21.5 -18q-43 -23 -85 -54.5 t-66 -74.5q-10 -27 -25.5 -52.5t-27 -52t-14.5 -55.5z" />
<glyph unicode="O" horiz-adv-x="983" d="M61 471q14 -154 93 -283q33 -55 79 -113.5t111 -76.5q32 2 60 -12q15 -7 33 -7q14 0 30 5q51 14 98 39.5t91 58.5t86 69.5t85 73.5q16 16 31.5 33.5t26.5 38.5q72 96 117 200.5t75 217.5q9 63 19 127q6 40 6 80q0 25 -2 51q4 10 8 12q31 20 66.5 39.5t67.5 44.5 t53.5 56.5t21.5 74.5q0 4 -5 7t-9 -1q-45 -47 -97.5 -75.5t-103.5 -59.5l-8 -2q-4 27 -17.5 47.5t-25.5 42.5q-31 33 -64 63.5t-69.5 50t-78.5 27.5q-15 3 -31 2q-28 0 -58 -8q-16 10 -39 11q-115 -35 -211 -95q-12 -12 -27.5 -16t-32.5 -8q-45 -33 -89 -62.5t-85 -70.5 q-63 -49 -102 -114t-70 -130q-12 -29 -14 -60.5t-6 -62.5q-20 -50 -20 -104q0 -53 7 -111zM211 375q-8 20 0 39.5t10 42.5q2 16 11.5 29.5t18.5 26.5t17 27.5t11 30.5q16 39 37.5 76t25.5 82q10 10 12 26.5t6 28.5q-8 16 2.5 31.5t18.5 28.5q37 35 59.5 72.5t57.5 72.5 q29 41 67.5 59.5t75.5 47.5q8 23 30.5 31t43.5 18l59 35q-4 -23 -12 -46.5t-13.5 -47t-2 -47t21.5 -44.5q16 -20 36.5 -36.5t47.5 -14.5q22 -1 43 -1l43 1q43 2 84 8q1 -22 1 -43q0 -149 -49 -279q-56 -150 -155 -280l-8 -20q-57 -66 -123.5 -127.5t-138.5 -108.5 q-31 -28 -74 -28h-2q-42 0 -76 20q-55 16 -96 61.5t-65 92.5q-20 30 -24 64q-2 18 -3 37q0 17 2 34zM836 1044q4 27 12 51.5t16 47.5q10 14 29 22q27 4 43 -12t33 -31q31 -37 47 -88q-35 -12 -77 -14h-21q-31 0 -62 4q-6 2 -11 8t-9 12z" />
<glyph unicode="P" horiz-adv-x="1521" d="M53 138q4 -56 21 -105q18 -25 37.5 -49.5t48.5 -40.5q25 -16 52.5 -11t53.5 15q68 29 135.5 74t104.5 116q29 20 52.5 47t45.5 54q8 12 11 25t16 24q57 59 88 127.5t76 132.5q25 49 44 99t37.5 100.5t40 99.5t52.5 94q41 82 108.5 147.5t139.5 120.5l4 11q-8 12 -22.5 6 t-27.5 -8q-147 -72 -282 -167.5t-246 -232.5q-74 -100 -121 -219q-12 -39 -13 -82v-28q0 -28 1 -56q-35 -82 -67.5 -163t-65.5 -160q-18 -23 -40 -35.5t-42 -30.5q-25 -10 -46.5 -25.5t-53.5 -7.5q-16 12 -29.5 30.5t-26.5 35.5q-4 23 -3 47t1 49t-3 47.5t-15 40.5 q-8 4 -14.5 9t-16.5 1t-15 -9t-14 -15q-7 -36 -7 -76q0 -16 1 -32zM475 1042.5q-8 -14.5 4 -24.5q43 37 90 67.5t95 57.5q43 18 85 38.5t89 30.5q72 23 146.5 34t148.5 18q35 -2 66.5 -8.5t62.5 -24.5q25 -23 46 -47.5t38 -48.5q3 -46 3 -90v-23v-12q0 -49 7 -99v-13 q0 -58 -16 -111q-18 -58 -33 -117q-16 -23 -39 -46.5t-54 -21.5q-43 -23 -89 -41q-26 -10 -53 -10q-21 0 -44 6q-29 -2 -47 21.5t-35 46.5h-2q0 6 -8 6q-6 0 -10 2q-12 -2 -21.5 -10.5t-19.5 -18.5q-16 -16 -7 -34.5t17 -34.5q23 -33 58.5 -51.5t76.5 -20.5q63 4 132 8 t124 35q27 14 54.5 20t50.5 33q47 4 86 39t71 72q39 41 56.5 92t19.5 108q2 22 2 43q0 86 -33 156q-41 88 -114 166q-16 12 -34 27.5t-40 19.5q-27 27 -56.5 41t-62.5 29q-52 21 -108 21q-18 -1 -36 -3q-76 -8 -145 -22q-119 -35 -230.5 -84.5t-213.5 -126.5 q-18 -14 -37.5 -28.5t-28.5 -35.5q-4 -16 -12 -30.5z" />
<glyph unicode="Q" horiz-adv-x="1097" d="M46 470q3 -77 26 -142q0 -45 10 -89t22 -87q6 -29 21.5 -51.5t37 -41t46 -33t47.5 -28.5q23 -8 45 -8q25 0 48.5 2t47 3t45.5 -1q14 -2 28 -2q25 0 48 7q35 11 65.5 29.5t61.5 39t66 30.5q18 -20 38.5 -42.5t43.5 -39.5q8 -10 18 -13t23 -3q12 0 24 1t25 -1q14 0 27.5 5 t25.5 11q72 51 135.5 117t116.5 137q27 43 59.5 84t48.5 88q2 12 5.5 26.5t-7.5 23.5q-16 -4 -29.5 -15.5t-25.5 -21.5q-47 -66 -98 -128.5t-107 -121.5q-29 -25 -55.5 -53.5t-67.5 -30.5q-12 0 -18 14q-5 19 -5 37q0 14 3 28q6 31 10 66q14 16 28.5 31.5t26.5 34.5 q4 27 23.5 45t32.5 41q45 72 73.5 146.5t51.5 154.5q18 90 24 191q1 22 1 43q0 78 -17 149q-4 20 -3 42.5t-20 39.5q-16 10 -32.5 27.5t-34 30.5t-37 17.5t-41.5 -10.5q-18 14 -40 21.5t-46 11.5q-36 5 -72 5t-73 -5q-72 -10 -138 -29q-23 -12 -46 -17t-46 -19 q-80 -33 -150.5 -83.5t-127.5 -121.5q-51 -59 -98.5 -123t-63.5 -141q0 -35 -2 -67t-15 -63q-13 -59 -13 -123v-25zM174 246q4 33 18.5 57.5t18.5 54.5q-1 9 -1 18q0 38 14 71q18 40 24 88q-4 29 11 48t24 42q25 47 37 96t51 90q68 59 126 132t115 140q27 27 56.5 51.5 t62.5 42t70 24.5q15 3 31 3q23 0 47 -6q18 -8 35.5 -19.5t39.5 -13.5q25 -47 33 -103q6 -46 6 -92v-24q-12 -8 -17 -21.5t-7 -27.5q-4 -74 -22.5 -140.5t-61.5 -125.5q-16 -51 -40 -100.5t-50 -96.5q-23 -10 -43.5 -6t-41 11t-41 14.5t-42.5 3.5q-18 -6 -35 -15.5t-33 -19.5 q-43 -6 -83 -18.5t-68 -47.5q-2 -8 -4.5 -15t2.5 -15q8 -12 23 -10.5t28 3.5q29 9 58 9q23 0 46 -6q51 -13 88 -56q0 -31 -12 -57q-23 -37 -58.5 -65.5t-70.5 -47.5q-68 -6 -136 -10h-13q-60 0 -111 33q-33 16 -54 51q-20 32 -20 69v7z" />
<glyph unicode="R" horiz-adv-x="1374" d="M20 150q-1 -13 -2 -25q0 -25 5 -49q8 -35 28.5 -56.5t47 -37t56 -24.5t58.5 -15q11 -2 21 -2q32 -1 58 19q34 26 62 54q20 18 36 40t31 43.5t32.5 41t40.5 31.5q98 84 152 188.5t95 214.5q33 45 55.5 95.5t41 102.5t35 105.5t38.5 102.5q18 33 37 73t41.5 74.5t52 62.5 t72.5 40q43 -37 61.5 -84t21.5 -99q1 -18 1 -36q0 -35 -4 -71q-6 -54 -12 -105q-27 -35 -65 -51.5t-73 -39.5q-27 2 -49 13.5t-51 9.5q-33 -8 -62.5 -32.5t-41.5 -55.5q10 -18 24 -27h22q36 1 74 5q48 6 93 16q43 -14 63 -45q14 -29 6 -56q-49 -66 -104 -122t-90 -127 q-14 -25 -17.5 -51.5t-0.5 -54.5t11.5 -54.5t18.5 -48.5v-27q10 -31 25.5 -59.5t38.5 -53.5q16 -18 36.5 -21t41 1t41 10t38.5 10q18 8 39 10.5t37 14.5q8 20 24.5 30.5t28.5 26.5q-6 6 0 6l2 -2q35 41 75 82t75 86q10 14 17 30.5t24 29.5q41 35 50 80t23 92q0 4 -5 6t-9 -2 q-25 -16 -42 -39t-36 -45q-33 -59 -77 -107.5t-84 -99.5q-20 -16 -40 -36.5t-40.5 -39t-43 -33t-49.5 -16.5q-16 -4 -36.5 -6t-38.5 2q-6 16 -11.5 31.5t-1.5 31.5q31 47 67 89.5t72 84.5t68.5 86t55.5 93q10 25 10 50q1 27 -11 54q-22 53 -49 92v-2q-25 23 -52 33t-56 23 q59 31 121.5 52t111.5 68q20 41 30 89q7 36 7 71q0 11 -1 23q-3 47 -18.5 92t-41.5 82q-47 68 -116 120t-150 60q-40 4 -88 5h-9q-43 0 -80 -9q-29 -2 -54 -11.5t-54 -15.5q-94 -35 -187.5 -78t-175.5 -110q-18 -20 -41.5 -37.5t-45 -37t-39 -41t-21.5 -50.5q-4 -6 -10 -11 t-11 -16q-6 -20 -5 -47.5t10 -48.5q6 -14 28 -14q35 10 42 44t11 68q66 94 161 157t192 110q39 16 82 31.5t88 24.5q40 8 81 8h9q45 -1 88 -17v-2l-29 -4q-66 -18 -128 -44t-107 -83q-41 -25 -78 -67t-53 -85q-31 -84 -64 -166t-61 -164q-4 -35 -18.5 -68.5t-24.5 -68.5v-8 q-27 -76 -49.5 -155t-47.5 -154l-14 -15q-14 -25 -30.5 -52.5t-38 -52t-48 -40.5t-59.5 -16q-35 8 -73 30.5t-46 63.5q0 9 -1 17q0 26 4.5 52t4.5 53v17l-4 6q-10 6 -18 2t-14.5 -12t-12.5 -16.5t-14 -14.5q-13 -33 -17 -73z" />
<glyph unicode="S" horiz-adv-x="940" d="M57 154q2 -45 22.5 -82t43.5 -74q10 -16 27.5 -21.5t33.5 -9.5q44 -16 98 -21q8 -1 16 -1q45 0 79 24q66 16 118 56.5t105 87.5q6 14 18.5 23t20.5 24q39 68 76 134t69 136q20 23 32.5 46.5t21.5 45.5q20 41 35.5 81t37.5 81q90 33 173 80t163 102q29 18 57.5 42t38.5 59 q2 16 12.5 26.5t23 18.5t25.5 16t21 23q15 41 25 89q4 17 3 32q0 30 -13 59q-16 23 -37 40t-41 34q-31 8 -66 8h-14q-43 -2 -78 -10q-78 -29 -150.5 -72t-131.5 -109q-51 -43 -89 -94t-69 -104.5t-57.5 -109.5t-53.5 -112q-29 4 -57.5 5.5t-54.5 9.5q-41 23 -71 60.5 t-42 82.5q0 9 -1 18q-1 72 29 134q32 70 81 133q2 6 6 12t0 12q-29 4 -52.5 -5t-46.5 -23q-20 -14 -35.5 -32.5t-11.5 -45.5q-31 -47 -49 -99q-10 -28 -10 -58q0 -26 8 -54q14 -41 26.5 -86t49.5 -76q41 -39 92 -50t109 -15l6 -4q-10 -35 -22.5 -67t-22.5 -65 q-47 -102 -95.5 -201.5t-101.5 -197.5q-6 -20 -22.5 -31.5t-36.5 -17.5q-16 -10 -31.5 -9t-31 6t-31 12t-29.5 11q-27 18 -38 47t-26 56q-12 10 -27.5 20.5t-33.5 3.5q-18 -10 -23 -34zM961 791q41 90 98 169.5t104 165.5q23 23 41.5 48.5t44.5 42.5q23 -2 46.5 2t39.5 -17 l23 -28q4 -20 3 -44t-11 -40q-25 -8 -37.5 -25.5t-21.5 -37t-20 -38t-34 -31.5q-20 -6 -35.5 -23t-32.5 -32q-49 -33 -101 -63.5t-107 -48.5z" />
<glyph unicode="T" horiz-adv-x="866" d="M59 186q0 -12 4 -24q12 -10 15.5 -22.5t1.5 -27t-3 -28.5t3 -27q14 -29 40.5 -47t55.5 -26q23 -23 55 -23q35 0 64 2q51 4 92 27.5t76 58.5q55 20 101 68.5t77 99.5q16 14 30.5 28.5t22.5 30.5q47 96 82 191.5t76 194.5q35 70 64.5 141t76.5 137q23 14 46.5 28.5 t50.5 24.5q30 7 58 21q16 8 34 8q13 0 28 -4q35 6 67 18q28 11 60 11h11l43 32q12 10 28.5 14.5t31.5 9.5t27.5 13.5t16.5 26.5q0 14 2 26.5t-8 22.5l-13.5 9t-17.5 3q-31 -8 -57.5 -30.5t-54.5 -40.5q-39 -2 -73 -13.5t-67 -21.5q-23 16 -52.5 11t-57.5 -1l-70 29 q-43 27 -92 52q-48 25 -100 37q-37 9 -74 9q-15 0 -30 -1q-52 -5 -99 -38h-31q-55 -23 -112.5 -44.5t-102.5 -68.5q-18 -37 -30.5 -76.5t-26.5 -80.5q-6 -35 18 -56q4 -10 13.5 -12t19.5 0q23 10 29 33v10q0 47 18 87q20 44 53 83q14 8 29.5 11t31 5.5t30 6.5t26.5 14h43 l41 -39q47 -27 98 -38t94 -44q-72 -53 -131 -124.5t-100 -147.5q-35 -76 -67.5 -151t-36.5 -163q-23 -55 -41.5 -111.5t-34.5 -115.5q-18 -31 -46 -59.5t-59 -44.5h-12q-33 -18 -74 -20h-5q-38 0 -66 20q-18 8 -22.5 22t-4.5 31q0 16 1 32.5t-7 30.5q-12 16 -28.5 34 t-39.5 18q-10 -4 -18 -10.5t-12 -16.5q-8 -10 -9 -25z" />
<glyph unicode="U" horiz-adv-x="1185" d="M43 276h6q0 -4 -2 -4q4 -4 4 -8t2 -8q-4 -18 2 -26.5t2 -26.5q-2 -2 1 -3t-1 -3q4 -8 1 -12.5t1 -8.5q0 -2 3.5 0t3.5 -4q-2 0 -3 -2h-2l2 -2q-2 -4 -1 -7t-1 -7q6 -8 2 -18.5t5 -12.5q20 -43 56 -86t83 -60q27 -6 52.5 -14t52 -15t53 -9t55.5 6q74 51 142.5 108.5 t139.5 112.5q37 27 59.5 64.5t57.5 64.5h4q-6 -43 -9 -85q-1 -11 -1 -23q0 -30 6 -60q14 -35 44 -62.5t57 -52.5q12 -18 29.5 -22t34.5 -1t35.5 8t35.5 9q14 -4 27.5 0t25.5 8q57 33 107.5 76t103.5 84q25 20 38 45t36 47q53 31 72.5 80t35.5 100q-2 4 -3 8.5t-7 4.5 l-53 -49q-72 -86 -160 -167t-182 -143q-12 -8 -28.5 -14t-33.5 4q-18 16 -39.5 33.5t-15.5 46.5q12 35 28.5 70.5t32.5 70.5q104 186 191.5 378t175.5 386q12 18 27.5 35.5t19.5 40.5q8 27 -12 39q-20 2 -36.5 -3t-33 -13.5t-33 -15.5t-34.5 -9q-16 4 -32 7t-32 1 q-27 -2 -44 -17.5t-28 -37.5q-59 -152 -129.5 -296t-142.5 -292q-37 -39 -65.5 -82t-61.5 -84l-94 -98q-66 -53 -134.5 -116.5t-142.5 -104.5q-18 -2 -36 -2q-62 0 -125 22q-16 18 -29.5 43t-26.5 53q6 41 17.5 79t33.5 73q29 27 63 45t60 51q66 72 121 146.5t109 148.5 q18 37 38.5 72t47.5 67q27 45 49 90.5t27 98.5q-4 43 -10.5 85t-22.5 83q-10 18 -29.5 34.5t-36.5 30.5q-26 11 -53 11q-18 0 -38 -5q-48 -12 -81 -41q-53 -10 -112.5 -16t-106.5 -41q-2 -18 -12 -29.5t-23.5 -20.5t-25 -20.5t-15.5 -27.5q-10 -31 -28 -59q-14 -23 -14 -51 q0 -6 1 -13q8 -14 21.5 -16t25.5 0q20 12 31.5 30.5t20 38t16.5 39t20 37.5q16 33 47 43t60 20q37 6 78 16q11 2 21 2q29 0 55 -20q12 -16 10 -26q-16 -43 -31.5 -86t-40.5 -84q-66 -57 -125 -124t-114 -132q-63 -66 -114.5 -136.5t-62.5 -158.5q-2 0 -2 2l-2 -21 q-8 -2 -6 -11t-6 -15h4q0 -6 -2 -9t0 -8q0 -8 4 -6q0 2 2 0t-2 -4v-6l-4 6l-2 -2q-4 -10 6 -14l-6 -4q2 2 6 -2q2 -4 -6 -9z" />
<glyph unicode="V" horiz-adv-x="1038" d="M47 932q-4 -10 2 -23q6 -14 14.5 -16t18.5 1t20.5 7t20.5 4q59 51 115.5 105.5t117.5 97.5q12 10 24.5 12t27 1t26.5 -1q14 0 29 4q6 2 12 7.5t14 5.5q8 -16 9 -29q-8 -29 -22.5 -54.5t-31.5 -49.5q-53 -66 -106 -127.5t-98 -128.5q-29 -55 -52.5 -111.5t-31.5 -122.5 q-4 -47 -8.5 -95t-4.5 -97q0 -47 8.5 -93.5t28.5 -89.5q-2 -33 15.5 -60.5t46.5 -41.5q29 -16 48 -45t54 -37q24 -13 48 -13q20 0 40 8q45 18 82 42q72 66 139.5 132t134.5 138l5 14q59 63 109 129t85 142q45 23 63.5 66.5t41.5 80.5q12 29 20 58.5t18 60.5 q68 31 136.5 59.5t134.5 73.5q20 18 48 34.5t24 49.5q0 10 -9.5 11t-19.5 6q-16 10 -24.5 -3.5t-20.5 -17.5q-61 -29 -119.5 -65.5t-124.5 -57.5q11 69 23 147q4 24 4 48q0 51 -17 96q-10 23 -24.5 45.5t-38.5 36.5q-23 4 -45.5 -1t-38.5 -22q-43 -25 -66.5 -60.5t-36 -76.5 t-16.5 -87t-6 -89q10 -35 18.5 -69.5t28.5 -65.5q23 -23 53.5 -16.5t59.5 2.5l-2 -11q-23 -53 -48.5 -107.5t-74.5 -88.5q-47 -78 -100.5 -153t-118.5 -146q-61 -57 -123 -116.5t-129 -111.5q-18 -18 -45 -13t-49.5 13.5t-33 23.5t-18.5 34.5t-15 39t-22 33.5 q8 47 22.5 91.5t27.5 91.5q20 45 55 85t70.5 79.5t66.5 81.5t43 94q51 66 89 134t61 146q1 11 1 21q0 35 -16 64q-20 38 -41 75q-29 43 -72.5 54.5t-88.5 13.5q-12 0 -22.5 -8.5t-20.5 1.5q-78 -6 -144 -47l-207 -184q-6 -6 -17 -14.5t-20.5 -16.5t-13.5 -18zM971 995 q4 53 24.5 105.5t73.5 79.5q14 -4 19.5 -14.5t7.5 -23t2 -26.5q0 -12 2 -22q-4 -55 -9.5 -108.5t-13.5 -106.5q-18 -6 -35.5 -2t-33.5 2q-29 16 -30 51t-7 65z" />
<glyph unicode="W" horiz-adv-x="1794" d="M57 291q10 -37 17.5 -76t17.5 -76t29.5 -69.5t54.5 -59.5q35 -29 85 -34q12 -1 25 -1q36 0 68 11q18 -2 37 -10.5t37 -4.5q63 37 109.5 90.5t101.5 102.5q44 44 110 44q8 0 17 -1q4 -16 10 -28.5t10 -26.5q14 -27 35 -55.5t45 -52.5q26 -24 54 -38q25 -12 54 -12h9 q57 8 109.5 28.5t99.5 50t93 63.5t91 69q16 -4 30.5 0t25.5 8q68 47 123 107.5t106 125.5q80 98 136 207t97 226q47 23 93.5 51t91.5 57l28 25q20 30 45 58q23 26 23 61v6q0 4 -6 4t-10 -2q-66 -37 -125.5 -83t-128.5 -71q-2 61 -17.5 117.5t-48.5 105.5q-16 23 -39.5 33 t-50.5 12q-47 -4 -89 -19t-75 -50q-41 -59 -65 -130q-11 -32 -10 -65q0 -40 16 -82q16 -25 38.5 -37t49 -18t54.5 -8t56 -6q-25 -84 -68.5 -159t-101 -144.5t-121 -136t-124.5 -132.5q-53 -41 -106.5 -88t-119.5 -67q-23 -4 -44 0t-40 20q-6 18 -6 34q-1 17 5 31 q12 30 22 60q66 90 112 184.5t91 190.5q29 86 72.5 162.5t74.5 160.5q27 61 53.5 123t46.5 127q-4 4 -5 10.5t-11 6.5q-35 -10 -69.5 -23.5t-75.5 -17.5h-62q-31 0 -47 -37q-23 -61 -50.5 -119.5t-55.5 -118.5q-51 -98 -97.5 -194.5t-103.5 -192.5q-14 0 -25 -10l-46 -70 t-50 -69q-20 -23 -38.5 -50.5t-49.5 -29.5q-53 -33 -96 -76l-84 -84q-14 -10 -27.5 -23.5t-28 -24.5t-30 -16.5t-33.5 -1.5q-14 6 -30.5 5.5t-33 0.5t-32 5t-27.5 20q-10 14 -11 30.5t2.5 33t10 33t10.5 30.5q16 14 32 30.5t30 33.5q66 92 139.5 174t138.5 172 q25 47 52.5 92t52 91t45 94t33.5 102q2 18 -4.5 34.5t-10.5 34.5q-4 51 -38.5 97.5t-86.5 62.5q-35 8 -62.5 -5t-51.5 -32q-86 -4 -161 -38t-130 -101q-18 -31 -36.5 -61.5t-20.5 -69.5q2 -10 4 -18.5t12 -12.5q16 -8 29 -2q16 4 19 15.5t7 21.5q23 74 86.5 124t134.5 64 q29 6 56.5 2t48.5 -28q-12 -45 -31.5 -84t-44.5 -78q-61 -72 -121.5 -139.5t-130.5 -132.5q-27 -31 -56.5 -58.5t-56 -57.5t-49 -62.5t-32.5 -71.5q0 -31 -8.5 -61.5t-4.5 -61.5zM1610 1016q2 35 9 72.5t42 58.5q23 8 50.5 16t47.5 -12q16 -10 15.5 -30t3.5 -38 q-4 -39 -8.5 -74.5t-20.5 -68.5q-18 0 -35.5 -3t-35 -5t-34 2t-28.5 20q-6 14 -5 29.5t-1 32.5z" />
<glyph unicode="X" horiz-adv-x="1277" d="M63.5 90q2.5 -27 10.5 -50.5t28 -41.5q33 -29 74 -39q37 -9 76 -9h8q43 1 86 11t80 25q98 12 182 61t156 123q4 -12 5 -27.5t3 -29.5q8 -18 11 -40t9.5 -41.5t16.5 -35.5t35 -23q29 -2 56.5 -6t55.5 0q57 14 110.5 38t96.5 65q80 78 140.5 169t76.5 199l-10 15 q-8 4 -12 -5.5t-10 -13.5q-25 -47 -56.5 -92t-64.5 -90q-29 -39 -60.5 -76t-70.5 -65.5t-82 -47t-92 -20.5q-16 4 -32 7t-24 20q-10 31 -10 61q0 7 1 15q3 38 7 77q20 78 58.5 147.5t81.5 137t86 134.5t75 138q72 109 174.5 196t208.5 146q14 8 30.5 14.5t33 11.5t31 12 t26.5 22q17 5 34 5q17 1 33 -5q32 -10 60 -33q10 16 13 35t-3 37q-14 27 -53 34q-31 3 -67 5q-2 0 -4 1q-33 0 -56 -22q-109 -39 -209 -102.5t-176 -157.5h-4q17 50 17 106v17q-3 66 -25 123q-16 43 -57.5 68.5t-86.5 31.5q-27 6 -51 2t-48.5 -10t-50.5 -12.5t-52 -4.5 q-63 -2 -109.5 -39.5t-93.5 -78.5q-16 -16 -33.5 -35t-30 -38t-16.5 -39.5t6 -45.5q6 -16 27 -16q23 10 44 28.5t32 42.5q8 39 37.5 64.5t58.5 48.5q23 18 47.5 25.5t51 8.5t54 0t56.5 1q16 -4 28.5 -21.5t16.5 -34.5q-4 -63 -27.5 -117.5t-40.5 -113.5q-18 -55 -49 -105.5 t-65.5 -98.5t-72.5 -95t-71 -96q-4 -8 -8 -10.5t-8 -6.5h-2v-4h2q-82 -100 -133 -207q-10 -39 -37 -72.5t-53 -66.5q-29 -35 -61 -66.5t-69 -53.5q-38 -22 -81 -30q-14 -2 -29 -3q-30 0 -61 10q-16 10 -28.5 26.5t-21.5 32.5q-4 20 -5 46t16 42q16 4 26 -3t27 -7q18 4 26 12 q6 10 10.5 24.5t-3.5 27.5q-22 34 -66 34h-2q-35 -4 -60.5 -24.5t-39.5 -50.5q-4 -25 -7.5 -51.5t-1 -53.5z" />
<glyph unicode="Y" horiz-adv-x="1159" d="M35 238q-3 -17 -3 -33q0 -40 20 -73q30 -48 75 -89q45 -23 96 -36t101 -23q31 -4 57.5 8t40.5 39q59 39 116.5 84t110.5 92q10 23 29.5 41t36.5 37h2q-4 -12 -11.5 -23.5t-15.5 -21.5q-43 -66 -77.5 -134.5t-65.5 -140.5q-41 -18 -86 -32.5t-88 -32.5q-84 -31 -157 -93.5 t-138 -125.5q-12 -16 -20.5 -37t-0.5 -43q29 -76 90 -138q10 -8 23 -8q12 0 25 2q41 14 78.5 30.5t78.5 33.5q35 16 70 29.5t63 43.5q41 55 90.5 93.5t92.5 91.5q39 41 61.5 88t52.5 90q45 23 90.5 39t90.5 33q55 4 101 40.5t81 77.5q61 63 117.5 136t97.5 151v21q0 4 -10 4 q-43 -18 -82 -53t-58 -80q-45 -51 -93 -102.5t-97 -96.5q-94 -29 -178 -66q-2 2 -7.5 0t-3.5 2q92 154 178.5 309.5t153.5 317.5q35 49 62.5 99.5t58.5 97.5q37 59 64.5 121.5t64.5 119.5q12 16 26.5 32.5t10.5 39.5q-16 14 -34.5 16.5t-37 -1t-38 -9.5t-35.5 -8h-101 q-20 0 -33.5 -10t-22.5 -24.5t-16.5 -31t-13.5 -30.5q-16 -63 -49 -119.5t-57 -116.5q-33 -94 -85.5 -180t-99.5 -176q-43 -49 -86 -97t-94 -96q-29 -41 -68.5 -78.5t-80.5 -66.5t-81 -58.5t-81 -52.5q-41 4 -78 14.5t-72 33.5q-16 18 -28.5 38.5t-1.5 49.5q12 43 25.5 85 t35.5 80q29 18 56.5 40t56.5 44q66 86 129 171t110 182q27 39 58.5 79t54.5 81.5t32 88.5q3 16 3 33q0 31 -10 62q-18 25 -24.5 53.5t-23.5 52.5q-23 41 -67 51q-15 3 -30 3q-27 0 -52 -11q-33 -16 -68.5 -25.5t-72.5 -16.5t-73 -15t-71 -21q-51 -41 -75.5 -97t-47.5 -113 q0 -8 -1 -18.5t5 -16.5q29 -4 47.5 8t32 30.5t22.5 41t21 38.5l-2 19q8 14 19.5 26.5t23.5 26.5q47 12 92.5 22.5t92.5 14.5l22 -4q12 -8 23.5 -22.5t11.5 -30.5q-23 -70 -55 -144q-33 -35 -66 -67.5t-63 -67.5q-43 -59 -97.5 -115.5t-101.5 -113.5q-74 -102 -80 -209h-2 q0 -47 -2 -92t-10 -92zM143 -375q63 98 163 155.5t204 86.5q-18 -31 -27.5 -67t-20.5 -70.5t-30.5 -65.5t-56.5 -51q-37 -23 -77 -35t-77 -29q-12 -4 -25.5 -5t-23.5 7q-14 16 -24.5 34t-4.5 40z" />
<glyph unicode="Z" horiz-adv-x="1050" d="M43 -18q2 -8 18 -17q10 -6 27 -6q16 0 29 8q29 14 60.5 20.5t60.5 20.5q84 45 164.5 93.5t164.5 95.5q23 8 41.5 20t44.5 8l-2 -37q4 -55 33 -104t82 -74q14 -10 29.5 -9t31 7t29.5 15.5t27 15.5q31 33 66.5 52.5t62.5 60.5q8 12 14 26.5t12 27.5t14.5 25.5t24.5 20.5 q43 35 71 81q22 37 22 81q0 11 -1 22q-4 8 -6 17.5t-12 5.5q-14 -23 -34.5 -45.5t-37.5 -44.5q-14 -16 -31.5 -29.5t-34 -27t-28.5 -29t-18 -35.5q-27 -23 -42.5 -52.5t-43.5 -48.5q-10 -4 -18.5 -7t-18.5 1q-10 41 -21.5 80t-38.5 74q-23 16 -48 28.5t-54 10.5 q-45 -31 -94 -41q-20 -8 -31 0q90 94 162 198.5t137 210.5l25 31q23 12 53.5 11t52.5 -15q8 -8 14.5 -19.5t22.5 -7.5q20 6 28.5 23.5t18.5 32.5q4 12 14.5 22.5t20.5 19.5t14 20t-4 26q-6 8 -14 17t-23 1q-33 -10 -66.5 -23.5t-68.5 -15.5q-14 4 -18 21q18 29 33.5 56.5 t31.5 55.5q41 39 81 78t75 86q25 31 55.5 54.5t48.5 60.5q4 14 1 28.5t-5 26.5q-14 23 -33 17q-29 -8 -53 -22.5t-49 -29.5q-86 -27 -165 -62.5t-165 -64.5q-14 4 -27.5 6.5t-25.5 10.5q-8 43 -32.5 80t-53.5 71q-18 8 -36.5 0t-35.5 -18q-18 2 -36.5 1t-34.5 -13 q-82 -55 -162 -111.5t-156 -128.5q-4 -4 -4 -12q0 -6 4 -10q20 -20 54 -11q72 39 136 91.5t138 87.5q10 -33 25.5 -64t39.5 -55q10 -14 25.5 -19.5t32 -7.5t33.5 -2q16 0 30 -2q20 -4 39 -4q25 0 48 7q42 13 81 26q-57 -55 -98 -120t-100 -118q-29 10 -62 3t-63 -11 q-12 -2 -16.5 3t-6.5 14.5t-4 18.5t-8 13q-10 4 -19.5 -2t-19.5 -12q-23 -35 -45.5 -67t-36.5 -68q0 -16 16.5 -26.5t32 -1.5t29.5 19q35 -10 63 -10q12 4 22.5 5t24.5 3q-72 -82 -133 -167t-112 -173q-14 -10 -28.5 -22t-25.5 -27l-141 -215q-12 -10 -29.5 -20.5t-32 -22.5 t-23.5 -29.5t-5 -37.5z" />
<glyph unicode="^" horiz-adv-x="772" d="M53 885q23 -16 49.5 -12t49.5 10q72 20 137 64t112 110l5 2q20 -29 44.5 -58.5t65.5 -29.5q43 -43 92 -70t109 -24q6 2 13 5t7 9q-31 29 -65.5 51.5t-57.5 56.5q-14 12 -21 27.5t-12.5 32t-12.5 33t-19 30.5q-4 16 -5 35t-18 31q-27 18 -55.5 6t-50.5 -29h-10 q-23 10 -45.5 17.5t-45.5 3.5q-10 -4 -19 -13.5t-13 -19.5q4 -29 -7.5 -54.5t-29.5 -45.5q-41 -49 -91 -92t-106 -70v-6z" />
<glyph unicode="_" horiz-adv-x="847" d="M14 -231q-4 -10 13.5 -30t25.5 -32q27 -10 49.5 -2t44.5 19q43 10 85 11t85 -2l86 -6t91 -1q41 8 81.5 12t79.5 -8q14 0 36 -6.5t45.5 -11.5t44 -2t32.5 24q4 12 17.5 27.5t17.5 25.5q6 12 0 16t-15.5 8.5t-19.5 10.5t-14 20q0 4 -9.5 5t-21.5 1q-10 0 -20.5 -1t-14.5 -1 l-102 -2q-33 0 -56.5 -3t-46 -6t-47 -7t-61.5 -6q-47 6 -93 7t-94 5q-29 -4 -58.5 4t-59.5 0q-4 -2 -14.5 -1t-21.5 3t-22.5 3t-13.5 1q-6 -20 -5 -28.5t1 -12.5q0 -6 -4 -12t-21 -22z" />
<glyph unicode="`" horiz-adv-x="542" d="M70 1178q-6 -20 2 -37t22 -33q41 -41 86 -84t92 -76q47 -23 93.5 -46t99.5 -15l2 6q-53 47 -111.5 89t-93.5 105q-4 10 -2 21.5t3 23t-2 20.5t-15 15q-45 20 -90 0q-20 4 -42 15.5t-44 -4.5z" />
<glyph unicode="a" horiz-adv-x="983" d="M52 271q18 -89 77 -150q14 -39 41 -73t68 -52q23 -4 51 -4q31 0 53 22q57 47 103.5 102.5t80.5 119.5q-1 -15 -1 -30q-1 -45 13 -88q18 -57 56 -104q16 -14 40.5 -19t47.5 7q78 35 145.5 93.5t114.5 133.5q25 35 48.5 71t33.5 77q4 23 9 43t1 43q-23 -8 -33 -31.5 t-26 -40.5q-43 -74 -101.5 -143.5t-130.5 -122.5q-12 -4 -24 -12.5t-24.5 -13.5t-26.5 -5q-12 0 -25 10q-10 4 -13 13.5t-3 17.5q-6 27 5 45.5t29.5 33.5t38 29.5t29.5 35.5q20 45 35.5 93t30 96t34 94t50.5 89q12 18 28.5 30.5t32.5 33.5q6 18 20.5 35.5t4.5 40.5l-15 14 q-27 4 -53.5 0t-50.5 -10q-20 -8 -40 -4t-38 7t-36.5 0t-33.5 -22l-57 -139q-14 41 -37.5 81t-68.5 54q-29 10 -58 10q-31 0 -62 -11q-61 -21 -108 -62q-12 -2 -24.5 -5.5t-22.5 -11.5q-66 -47 -116 -112.5t-81 -137.5q-18 -51 -18 -104q0 -33 7 -67zM260 141q-7 37 -7 72 q1 47 13 91q22 77 53 149q27 16 32 44.5t20 55.5q14 43 43.5 87t77.5 52q29 4 46 -15.5t29 -39.5q10 -23 18.5 -46t12.5 -46q-16 -53 -38.5 -103.5t-43.5 -103.5q-35 -55 -72.5 -111.5t-93.5 -101.5q-14 -10 -28.5 -17.5t-30.5 -3.5q-16 0 -21.5 13.5t-9.5 23.5z" />
<glyph unicode="b" horiz-adv-x="839" d="M35 408v-18q0 -43 8 -85q2 -35 4 -67.5t10.5 -63.5t25.5 -57.5t48 -46.5q16 -23 37.5 -42.5t48.5 -27.5q34 -3 69 -3h17q43 1 84 11q25 14 50.5 27.5t47.5 32.5q6 20 21.5 36.5t31 32t30 30.5t20.5 38q29 37 51.5 75.5t48.5 73.5l2 -4q29 -21 61 -21q13 -1 26 3 q46 12 81 37q23 20 36 45.5t13 54.5q-33 -25 -69 -47q-27 -16 -56 -16q-10 0 -20 2q-14 2 -26.5 6t-16.5 20q8 8 12 17.5t10 19.5q12 29 26.5 57.5t27 58t20.5 60.5q6 25 6 52v14q-6 37 -22.5 73.5t-55.5 53.5q-23 12 -41 7t-35.5 -19.5t-33 -32t-29.5 -29.5 q-15 -37 -15 -77v-5q1 -43 1 -84q8 -47 17 -92t24 -90q-16 -37 -39 -73t-45 -71q-23 -45 -59.5 -81.5t-71.5 -73.5q-48 -25 -106 -37q-18 -4 -34 -3q-39 0 -75 19q-23 35 -24 79v10q0 39 7 75l43 60q16 35 21.5 74.5t17.5 76.5q10 23 17.5 48.5t15.5 50t21.5 46t35.5 37.5 q53 57 116 106.5t116 104.5q20 23 31.5 48.5t39.5 41.5q25 12 39.5 33t24.5 44.5t21.5 47t27.5 41.5q20 23 27.5 50.5t6.5 57.5t-7 58.5t-13 54.5q-2 6 -5 8.5t-3 8.5l-16 20q-27 18 -56 18q-11 0 -23 -2q-42 -10 -79 -28q-31 -16 -60.5 -36.5t-56.5 -43.5 q-39 -14 -70.5 -45t-60.5 -61q-61 -82 -111 -168t-100 -174q-13 -35 -31 -67q-17 -29 -16 -65v-8q-14 -47 -28.5 -94t-23.5 -96.5t-11 -101.5zM401 799q8 18 17.5 35.5t19.5 33.5q41 84 81 168t89 164q23 27 42.5 53.5t51.5 40.5q16 -2 21.5 -13.5t9.5 -23.5q2 -29 -7 -52 t-23.5 -45.5t-27.5 -45t-18 -49.5q-18 -31 -48.5 -49.5t-49.5 -46.5q-10 -29 -28.5 -50.5t-41 -41t-46 -39t-42.5 -39.5zM664 653.5q-2 32.5 8 61t43 47.5q18 4 26 -10q8 -33 4 -61.5t-15 -56.5t-24.5 -54.5t-21.5 -55.5q-4 29 -11 63t-9 66.5z" />
<glyph unicode="c" horiz-adv-x="747" d="M33 407.5q-4 -30.5 8 -61.5q2 -57 20.5 -106.5t47.5 -96.5q31 -25 53 -58.5t47 -66.5q21 -14 44 -14q9 0 19 2q34 8 64 12q125 39 240.5 111t201.5 188q23 39 44.5 77t25.5 83q-41 -39 -76 -84t-82 -84q-141 -147 -328 -209q-25 -2 -52 -12t-52 8q-14 16 -10 41 q16 55 29.5 110.5t17.5 114.5q31 59 54.5 123t60.5 123q31 27 53 58.5t55 56.5q29 0 53.5 7t53.5 7q18 -23 20 -54.5t0 -59.5q0 -20 17 -21q31 -4 49 12q19 31 19 66q0 12 -2 26q-8 50 -26 91q-8 12 -19 16t-25.5 3t-28 -5t-25.5 -6q-43 9 -88 9t-91 -10q-91 -18 -159 -75 q-53 -20 -88 -66.5t-67 -89.5q-14 -25 -32 -52t-30 -55t-16 -58.5z" />
<glyph unicode="d" horiz-adv-x="839" d="M-2 298q2 -26 18 -48q0 -14 -1 -28.5t3 -28.5q10 -39 26.5 -76t51.5 -66q23 -12 43.5 -32.5t46.5 -22.5q14 -2 19.5 10t19.5 8q41 23 75 61t69 72q18 12 29.5 27.5t21.5 33t21.5 33t29.5 27.5l2 -4l-20 -153q-8 -33 10 -54q31 -27 65 -43q28 -13 60 -13q8 0 16 1 q45 29 83 62.5t77 72.5q27 45 64.5 82t66.5 80q23 41 34 86t13 92h-2q-10 -14 -18.5 -28.5t-18.5 -28.5q-27 -39 -54.5 -77t-60.5 -75q-41 -39 -75.5 -81t-81.5 -70q-2 -4 -8 -4t-11 4q4 29 15.5 51t19.5 47q12 43 18.5 88t28.5 86q23 68 53.5 132.5t51.5 133.5 q14 29 31.5 56.5t29.5 60.5q18 49 42 97.5t47.5 96.5t43 97t31.5 102q14 35 38.5 61.5t43.5 57.5q2 10 6 20.5t-2 20.5q-10 12 -21.5 13t-23.5 -3t-24.5 -12t-22.5 -12q-18 -12 -40 -16.5t-44.5 -6.5l-45 -4t-40.5 -12q-18 -8 -25.5 -20.5t-9.5 -27t-1 -29.5t-1 -30 q-16 -43 -34.5 -87t-41.5 -85q-20 -41 -34.5 -83t-36.5 -83q-10 -12 -13.5 -28.5t-13.5 -26.5q-4 4 -13.5 3t-13.5 9q-4 14 -14 22.5t-21 16.5q-39 21 -79 23h-13q-33 0 -64 -10q-38 -12 -74 -34t-66 -46q-27 -8 -52 -31q-68 -61 -116 -129t-82 -143q-6 -25 -15.5 -50.5 t-13.5 -52t-2 -52.5zM223 272q10 62 31 115l14 21q18 43 36 89t39.5 89t50 83t69.5 70q18 8 37.5 12.5t38.5 -6.5q10 -4 20 -10t14 -16q5 -27 17 -43q-29 -74 -59.5 -145.5t-59.5 -145.5q-53 -68 -110.5 -135.5t-122.5 -126.5q-6 4 -8.5 12t-4.5 17q-7 32 -7 65q0 27 5 55z " />
<glyph unicode="e" horiz-adv-x="692" d="M39 356q8 -56 8 -116q18 -25 30.5 -50.5t26 -52t31 -50.5t45.5 -42q2 -10 8.5 -17.5t14.5 -13.5q35 -18 71 -28q18 -5 37 -6q20 0 41 6q43 23 85 54.5t77 68.5q25 14 48.5 31.5t41.5 41.5q20 31 46 61.5t48.5 62.5t39 67t18.5 76q0 10 -11 6q-57 -78 -121.5 -142.5 t-131.5 -138.5l-25 -12q-39 -33 -80 -60.5t-90 -38.5q-20 4 -31.5 23.5t-19.5 40.5q-10 27 -8 53.5t9 51t15 49t12 49.5q35 33 78 50q35 14 72 14q9 0 18 -1q14 -2 28 -2q31 1 59 13q40 18 71 57q47 29 77 76t38 100q-10 33 -26.5 61.5t-47.5 44.5q-47 11 -89 27 q-26 10 -55 10q-17 0 -36 -4q-53 -23 -107.5 -41t-103.5 -47q-29 -23 -60.5 -46.5t-61.5 -50t-53.5 -56t-33.5 -66.5q-6 -32 -6 -63q0 -25 4 -50zM311 449q16 45 37 90t68 67q4 4 5 6t7 6q0 10 6 21.5t10 22.5q4 20 22.5 27t35.5 11q37 -2 71.5 -11t57.5 -38q4 -23 -2 -43 t-19.5 -38.5t-30 -34t-30.5 -29.5q-16 -16 -36.5 -24.5t-39.5 -18.5q-19 2 -38 2q-23 0 -45 -3q-40 -5 -79 -13z" />
<glyph unicode="f" horiz-adv-x="573" d="M-276 -414q4 -12 15 -15t21 -7q29 -10 54.5 4t52.5 24q16 -2 33.5 0t33.5 2q23 12 49.5 30t34.5 46q23 84 47.5 166t65.5 158q6 14 9 30.5t5 34t6.5 32.5t16.5 28l25 -6q23 -31 53 -41.5t63 -3.5q53 6 96.5 41.5t86.5 66.5q55 53 96 112.5t55 131.5q8 23 2 39 q-37 -43 -71.5 -91.5t-77.5 -86.5q-37 -35 -77 -73t-87 -54q-25 -4 -45.5 4t-36.5 24q-6 16 -17.5 30.5t-15.5 31.5q16 35 29.5 69.5t17.5 73.5q23 39 40.5 79t33.5 81q14 23 32.5 37t37.5 28q47 25 89 61t89 64q49 47 94 94.5t68 108.5q49 45 57 102q23 23 30 49.5t11 57.5 q0 20 -2 42.5t-9.5 43t-19.5 37t-35 22.5l-57 6q-20 6 -40 6q-24 0 -46 -9q-41 -17 -76 -42q-10 -4 -20.5 -15t-22.5 -15q-80 -47 -131 -121t-104 -146q-49 -78 -86 -158.5t-66 -166.5q-4 -41 -24.5 -74t-34.5 -67q-14 -31 -23.5 -62t-19 -61.5t-20.5 -61.5t-29 -59 q-29 -53 -49.5 -112.5t-51.5 -115.5q-18 -72 -49 -138t-51 -138q-6 -43 -28.5 -79t-26.5 -79zM389 688q41 80 73 163t79 161q23 51 51.5 99t66.5 93q23 14 47.5 15.5t49.5 -2.5l16 -11q10 -23 6 -48t-14 -44q-12 -16 -21.5 -33.5t-13.5 -40.5q-59 -70 -88 -147 q-53 -63 -119.5 -113.5t-132.5 -91.5z" />
<glyph unicode="g" horiz-adv-x="1060" d="M-106.5 -359.5q-4.5 -9.5 0.5 -19.5q-4 -29 3 -59.5t29 -53.5q23 -10 44.5 -19t43.5 -15q35 0 66 17t67 17q35 4 65 22.5t58 35.5q18 10 36 16t32 17q41 49 80 99t84 93q10 35 34.5 59.5t55.5 45.5q25 14 53.5 22t57 15.5t55 19.5t49.5 35q51 20 94 57t76 82 q35 31 69.5 62.5t59.5 68.5q25 49 52 100q23 45 23 96q0 7 -1 15l-4 -2q-37 -53 -78 -109.5t-94 -103.5q-37 -47 -85.5 -87t-91.5 -87q-41 -25 -80.5 -50.5t-89.5 -29.5q18 45 41 86t58 76q10 16 14 32.5t10 32.5q27 68 58.5 132.5t60.5 129.5q4 8 3 17.5t5 15.5 q31 16 51.5 41t36 54.5t26.5 60.5t28 59q4 12 2 26.5t-15 22.5q-14 -4 -29.5 -2t-30.5 4.5t-28.5 0t-25.5 -14.5q-18 -12 -40 -11t-43.5 2t-41 -3t-33.5 -25q-6 -16 -7 -33.5t-3 -35t-9.5 -32.5t-23.5 -24q-16 14 -13 36t7 40q-4 16 -16.5 27.5t-24.5 23.5l-56 11 q-23 6 -43 17t-47 11q-20 -10 -40.5 -12t-42 -3t-41 -7t-35.5 -23q-51 -8 -88 -39.5t-70 -70.5q-80 -47 -124 -127t-71 -158q-14 -30 -14 -61q0 -18 4 -37q14 -52 31 -95q8 -14 22.5 -20t28.5 -11t28.5 -11.5t24.5 -20.5q0 -18 9.5 -31.5t25.5 -25.5q27 -18 53.5 -17.5 t51 11t49 25.5t49.5 26q18 4 32.5 17t30.5 17q-6 -41 -21 -77.5t-32 -73.5q-10 -16 -28.5 -24.5t-34.5 -18.5q-49 -14 -95.5 -38t-95.5 -46q-33 -12 -67.5 -26.5t-66.5 -34t-58.5 -45t-40.5 -62.5q-4 -8 -8.5 -17.5zM-25.5 -392.5q0.5 17.5 9.5 32.5q20 39 58 56t69 40 q43 14 80.5 34.5t78.5 43.5q10 4 21 4q10 0 20 2q-18 -37 -42.5 -72t-47.5 -72q-10 -18 -20.5 -37.5t-30.5 -29.5q-41 -10 -75 -27.5t-75 -25.5q-25 0 -34 22q-12 12 -11.5 29.5zM221 182q6 37 17 70q14 12 23 28.5t15.5 34t13.5 34t21 30.5q33 53 69 102t46 115 q35 29 59 66q14 10 29.5 12t32.5 8q23 4 40 -5t36 -11q12 -4 10 -16.5t-2 -20.5q6 -43 45 -72q4 -31 -10.5 -56.5t-28.5 -54.5q-4 -12 3 -22t-3 -21q-14 -37 -39 -68.5t-55.5 -58t-62 -51t-62.5 -47.5q-72 -51 -156 -82q-23 -8 -33 17q-10 22 -10 47q0 10 2 22z" />
<glyph unicode="h" horiz-adv-x="1038" d="M-72 33q2 -6 7.5 -12.5t13.5 -6.5q31 4 59.5 16.5t61.5 8.5q29 -8 57.5 -12t56.5 0q23 10 39.5 29.5t24.5 39.5q-10 29 -10 56q0 12 2 23q6 38 21 73t35.5 68.5t37.5 68.5q18 16 39.5 37.5t44.5 40.5q61 29 114.5 75t114.5 72q18 6 32.5 19.5t30 26t31 20.5t35.5 8 q8 -4 15.5 -9t7.5 -16q-4 -23 -19.5 -39t-27.5 -32q-51 -31 -85 -83t-63 -102q-25 -53 -44 -110q-9 -28 -9 -56q0 -30 10 -61q12 -18 18.5 -37.5t9.5 -40t7 -42t14 -40.5q18 -23 47 -22q29 0 54 4q74 2 134 38t120 77q39 37 82 75.5t77 82.5q32 43 52 93q15 38 15 82 q0 13 -1 27q-4 2 -12 -2q-35 -66 -84.5 -130.5t-108.5 -117.5q-29 -23 -56.5 -47t-58 -44.5t-63.5 -34t-72 -13.5q-16 10 -13 31.5t5 38.5l59 135q53 47 80 107.5t52 121.5q6 16 10 33.5t0 36.5q8 24 8 52v12q-2 34 -21 59q-16 25 -43.5 32t-52.5 19q-19 6 -38 6 q-23 0 -45 -10q-40 -18 -72 -45q-37 -14 -71 -39t-66.5 -50.5t-65.5 -51t-70 -44.5l-12 -2q18 37 34.5 75t24.5 79q23 41 44.5 84t27.5 92q29 37 66.5 68.5t80.5 50.5l78 76q27 25 55.5 47t51.5 51q6 29 27.5 51.5t37.5 46.5q16 23 13.5 53.5t1.5 59.5q-16 27 -41 46t-50 36 q-20 10 -42.5 7t-43.5 -13q-78 -10 -143 -56.5t-110 -113.5q-18 -8 -30.5 -19.5t-25.5 -25.5q-53 -92 -96 -184.5t-92 -184.5q-20 -43 -32.5 -88t-16.5 -96q-35 -113 -84 -218.5t-78 -220.5q-10 -35 -29.5 -61.5t-32.5 -56.5l-14 -9q-33 -18 -33 -60v-9zM524 973 q-4 17 -4 32q0 21 8 39q14 30 25 64l12 47l80 145q10 10 18.5 22.5t24.5 16.5q29 6 54.5 11.5t52.5 15.5q20 2 31.5 -12.5t17.5 -30.5q4 -16 -1 -29.5t-14.5 -25t-20.5 -22.5t-20 -23q-12 -37 -42.5 -58.5t-55.5 -50.5q-27 -23 -53.5 -48.5t-61.5 -41.5z" />
<glyph unicode="i" horiz-adv-x="518" d="M32 273q4 -42 11 -85q4 -20 12 -41.5t33 -25.5q14 -23 28.5 -48.5t32 -48t40 -38t53.5 -15.5q23 6 42 11.5t35 19.5q66 70 129.5 134.5t112.5 144.5q16 41 29.5 81t17.5 87q-2 4 -3 2t-3 -2q-61 -90 -127.5 -176.5t-146.5 -163.5q-14 -14 -29.5 -27.5t-36.5 -18.5 q-18 0 -30.5 14.5t-20.5 26.5q-12 18 -13 38t3 40.5t12 40t12 37.5q35 37 54.5 81t33 91t24.5 94t30 92q6 18 20 31t28.5 25t25 25.5t10.5 35.5q-8 12 -11.5 28.5t-21.5 16.5q-25 -8 -48.5 -17t-47.5 -15q-25 -4 -47.5 1t-47.5 3q-53 -41 -74.5 -95.5t-48.5 -107.5 q-6 -51 -20 -99.5t-29 -97.5q-23 -32 -23 -67q-1 -6 0 -12zM303 1008.5q4 -25.5 2 -52.5q8 -18 24.5 -29.5t33 -15.5t30 1.5t24.5 16.5t21.5 23.5t22.5 20.5q20 12 38.5 27t22.5 42q4 29 -8 51.5t-20 45.5q-10 14 -26.5 16t-33.5 6q-14 -4 -25.5 -15t-23.5 -22 q-8 -25 -30.5 -37t-39.5 -30q-16 -23 -12 -48.5z" />
<glyph unicode="j" horiz-adv-x="587" d="M-472 -281.5q9 -19.5 7 -40.5q6 -16 18.5 -27t26.5 -20.5t29.5 -17.5t28.5 -21q25 -10 46 -5t42.5 16.5t41 25t42.5 19.5q16 8 36.5 11t36.5 17q35 35 76 51.5t78 49.5q43 53 74.5 109.5t78.5 105.5q6 35 27 74q37 29 83 40t89 29q23 8 44.5 11.5t37.5 19.5 q25 27 53.5 53.5t55 55t47 60.5t28.5 68q2 14 8.5 28t2.5 30q-12 -4 -23 -17q-41 -53 -84 -102t-96 -90q-23 -25 -54.5 -34t-64.5 -13q-18 -8 -36.5 -18.5t-41.5 -14.5l23 41q37 41 58.5 91t51.5 95q16 35 33 70t35 72q6 16 19.5 30.5t23.5 28.5t15 30.5t-3 39.5 q4 16 18.5 24t26.5 19q6 8 8.5 20t-0.5 23q-10 18 -24 21t-30.5 0t-32 -9t-27.5 -8q-20 -6 -39 -2t-37 8q-10 -12 -25.5 -11t-29.5 -7q-23 -10 -26 -34t-9 -46q-25 -16 -35 -43t-22 -50q-29 -47 -51.5 -98t-44 -102t-42 -101.5t-47.5 -99.5q-8 -16 -2 -35.5t-14 -32.5 q-178 -90 -342 -208q-29 0 -51.5 -14.5t-43 -36t-38 -45t-33.5 -44.5q-10 -20 -1 -39.5zM-385 -270q10 27 35.5 47t48.5 43q47 12 86 46t78 62q33 23 67.5 42.5t69.5 33.5v-10q-51 -43 -74.5 -97.5t-56.5 -107.5q-16 -25 -39 -41t-47.5 -27.5t-51 -21.5t-50.5 -23 q-14 0 -30 2.5t-28 12.5q-8 14 -8 39zM395 969q-4 -20 13 -29q12 -2 22 -8t21.5 -12.5t22.5 -10.5t24 -2q16 0 27.5 6.5t21.5 16.5t19 21.5t22 17.5q2 20 15 36.5t26.5 33t19.5 32.5t-6 39q-12 12 -39 12q-20 -12 -43 -12q-20 0 -41 8q-10 -6 -19 -9t-18 -13 q-8 -18 -21 -32.5t-27.5 -29t-26 -30t-13.5 -35.5z" />
<glyph unicode="k" horiz-adv-x="985" d="M-106 33q8 -16 19 -17.5t22.5 3t23.5 9.5t25 1q10 -12 23 -14.5t26.5 -1.5t28 2t28.5 -3q23 -6 41.5 6.5t34.5 26.5q10 12 7 25.5t-1 27.5q20 51 34.5 107.5t57.5 99.5q35 53 50.5 114.5t50.5 117.5q29 41 63.5 77.5t79.5 57.5q41 6 71.5 28.5t61.5 44.5q14 4 29.5 9.5 t25.5 -9.5q16 -23 13.5 -48t-13.5 -46q-6 -16 -10 -33.5t-10 -34t-17.5 -28.5t-31.5 -16q-16 -10 -35 0t-39 10q-20 6 -34.5 -4t-35.5 -10q-16 2 -27.5 -4.5t-21.5 -14.5t-20.5 -18.5t-20.5 -18.5q-8 -12 -7 -25.5t5 -25.5q4 -10 11.5 -17.5t17.5 -4.5q18 8 39.5 10t43 3 t43 4t40.5 13q12 -10 16 -26q-18 -20 -36.5 -42t-34 -44.5t-23.5 -47t-6 -53.5q2 -27 9 -52.5t3 -53.5q12 -29 20.5 -57.5t24.5 -55.5q16 -8 33.5 -7t34.5 5q27 20 56.5 28.5t57.5 24.5q39 33 81 56.5t77 62.5q80 39 135.5 119t67.5 168h-6q-43 -66 -101.5 -114t-111.5 -101 q-20 -6 -37 -19.5t-33 -27t-33.5 -26.5t-36.5 -19q-12 -4 -24 -3t-21 13q29 43 51.5 89t45.5 93q7 26 7 55q0 12 -1 24q-4 42 -15 77q8 29 30 42t42 29q41 25 47 65t6 81q2 18 -2 33.5t-12 30t-16.5 26.5t-12.5 29q-23 20 -48 17t-50 -7q-23 -10 -41 -6t-41 0 q-57 -14 -107.5 -44t-101.5 -59q-18 -10 -35.5 -23.5t-35.5 -23.5q4 16 9 33.5t15 32.5q23 20 49.5 32.5t55.5 22.5q51 51 109.5 90t117.5 70l86 84q27 31 42 65.5t32 69.5q4 20 2 44t2 46q0 16 3 34.5t-13 31.5q-18 8 -39 22t-41.5 23.5t-42 12.5t-45.5 -9 q-47 -23 -101.5 -36t-93.5 -56q-80 -59 -132 -140.5t-97 -160.5q-51 -68 -88 -140.5t-74 -146.5q-14 -35 -17.5 -73t-11.5 -75l-55 -139q-10 -23 -24.5 -44t-18.5 -46q-4 -33 -18.5 -60.5t-31 -55t-32.5 -54.5t-27 -55q-10 -20 -25.5 -38t-8.5 -44zM502 895q16 33 32.5 63.5 t26.5 65.5q29 41 49.5 83t42.5 85q14 23 19.5 51.5t36.5 40.5q27 20 63 30q13 4 27 4q22 0 41 -11q14 -31 12 -59.5t-13.5 -54.5t-27.5 -51.5t-31 -49.5q-33 -37 -74.5 -57.5t-78.5 -51.5q-29 -23 -59.5 -48.5t-65.5 -39.5z" />
<glyph unicode="l" horiz-adv-x="534" d="M27 324q-1 -10 -1 -19q0 -40 13 -76q2 -47 14.5 -88t20.5 -84q10 -20 26.5 -34.5t38.5 -16.5q156 20 273 131q39 12 69.5 42t53.5 65q104 92 116 227l-18 -12q-57 -63 -110.5 -126t-116.5 -116q-29 -14 -58 -26.5t-55 -32.5l-2 2q-20 -20 -53 -25.5t-62 4.5 q-6 6 -14 11.5t-6 15.5q10 14 21 29.5t20 31.5q41 96 78.5 193.5t72.5 195.5q10 45 36 85t59.5 74t71.5 64.5t75 59.5l63 70q27 20 50.5 46.5t33.5 59.5q20 23 35.5 47.5t20.5 55.5q0 20 5 40.5t8 42t2 42t-13 38.5q-10 25 -32 30t-40 15q-20 3 -39 3q-38 0 -74 -13 q-54 -20 -94 -61q-66 -45 -116 -103.5t-90 -123t-75.5 -132t-72.5 -131.5l-39 -120q-14 -74 -35.5 -145t-40.5 -144q-16 -42 -20 -92zM391 821q16 45 46 80t46 80l64 141q33 41 61.5 82t55.5 84q8 6 24 15q10 0 19.5 -5.5t19.5 -11.5q10 -23 6 -45t-6 -45 q-18 -33 -34.5 -65.5t-35.5 -67.5q-35 -29 -64.5 -56.5t-55.5 -64.5q-41 -25 -75 -57.5t-71 -63.5z" />
<glyph unicode="m" horiz-adv-x="1466" d="M-4 2q-4 -12 6 -27q14 -16 33.5 -11t36.5 9q20 10 41.5 9.5t43 -3t42 -1t39.5 13.5q41 39 57 89t41 97q41 59 67.5 125t63.5 127q4 12 11 14t15.5 3.5t16.5 3.5t14 12q49 49 90 104.5t101 94.5q16 10 35.5 17t37.5 -3l-16 -55q-27 -66 -50.5 -133.5t-59.5 -129.5 q-23 -35 -37.5 -73.5t-28.5 -76.5t-30.5 -77t-41.5 -74q-6 -16 -16 -31.5t-6 -33.5q20 -16 46.5 -12t49.5 6q37 10 80 11h28q27 0 52 -1q25 8 26.5 32.5t12.5 43.5q27 57 37 118.5t34 118.5q51 70 120 130.5t118 131.5l53 45q35 24 75 42q33 15 69 15q8 0 16 -1 q-16 -47 -51 -84t-66 -78q-45 -57 -72.5 -120.5t-44.5 -135.5q-6 -25 -11 -53.5t-6 -57t6 -55.5t28 -47q12 -20 26.5 -39.5t34.5 -30.5q15 -4 30 -4q28 -1 54 15q39 24 74 53q66 55 126 116.5t105 133.5q18 39 37 77.5t25 81.5q-68 -84 -143.5 -163.5t-157.5 -153.5 q-14 -10 -31.5 -16.5t-34.5 0.5q35 59 70 117.5t61 121.5q23 41 29 85q7 44 23 85q16 39 15 84v5q-1 48 -7 93q-4 10 -8.5 22.5t-16.5 20.5q-10 8 -20.5 18.5t-21.5 20t-24.5 14.5t-27.5 1q-47 -18 -90 -42t-88 -50q-31 -25 -62.5 -48.5t-50.5 -62.5q-10 -16 -28.5 -30.5 t-34.5 -24.5q4 29 5 58.5t1 57.5q-2 27 -6 55.5t-31 45.5q-47 18 -103 18q-53 0 -100 -18q-31 -6 -55.5 -23.5t-47 -41t-43 -48t-44.5 -43.5q4 16 8 31.5t4 32.5q1 7 1 14q0 30 -14 56q-16 32 -48 48q-41 0 -84 -1t-74 -31q-47 -39 -94 -82t-86 -92.5t-66 -104.5t-29 -117 q2 -2 11 -2q25 14 41 35t30.5 43.5t28.5 44t37 39.5q14 10 28.5 23.5t30.5 9.5q-16 -43 -37.5 -86t-44.5 -84q-45 -74 -72.5 -155t-68.5 -154q-4 -12 -14.5 -23.5t-19.5 -22t-13 -22.5z" />
<glyph unicode="n" horiz-adv-x="1046" d="M4 4q0 -16 12 -22q27 -16 47.5 -1t42.5 23q20 12 43 15.5t46 3.5q25 0 49 -1.5t49 3.5q16 14 15 33.5t3 39.5q8 41 25.5 75t30.5 71q23 39 43 80t41.5 80.5t48 76.5t63.5 72q18 16 42 26.5t30 36.5l61 39q35 15 74 29q20 7 39 7q18 0 35 -7q-23 -23 -42.5 -45.5 t-39.5 -44.5q-37 -53 -76 -103.5t-65 -109.5q-19 -67 -23 -139q-1 -12 -1 -23q0 -60 15 -119q6 -20 22.5 -33.5t33.5 -23.5q12 -16 21 -36.5t36 -22.5q49 0 90 21.5t76 54t67.5 71.5t65.5 70q115 108 127 258l-6 4q-53 -84 -115.5 -158t-140.5 -145q-31 -25 -60.5 -55.5 t-68.5 -34.5l-7 7t-5 7q-6 10 -7 25q0 16 4 28q45 90 101.5 174t114.5 166q17 29 31 59q11 23 10 49q0 9 -1 19q-4 39 -21 77t-58 48q-2 10 -6.5 23.5t-14.5 19.5q-26 4 -51 4q-22 0 -42 -3q-44 -7 -86 -24.5t-81 -41t-76 -48.5q-10 23 -5 46.5t1 46.5q-8 12 -20.5 16 t-25.5 6t-26.5 1t-25.5 1q-12 -2 -20.5 -11t-20.5 -9q-86 -57 -170 -128t-148 -159q-8 -14 -15 -37.5t-11 -40t-4 -18.5q39 35 74.5 68.5t80.5 68.5q14 10 30.5 24.5t35.5 20.5q-16 -35 -33.5 -68.5t-36.5 -68.5q-6 -6 -4 -10.5t-6 -8.5q-33 -63 -63.5 -126.5t-73.5 -122.5 q-18 -39 -43 -72t-31 -74z" />
<glyph unicode="o" horiz-adv-x="702" d="M24 334q-3 -19 -3 -37q0 -44 18 -86q23 -23 37 -52.5t27.5 -57t34 -52t55.5 -39.5q27 -16 53 -16q27 0 52.5 8t50 22.5t46.5 26.5q76 59 144.5 137t103.5 168q18 -2 36.5 -2t37.5 2q39 4 71 23q16 10 29.5 25.5t24.5 29.5q4 10 9 20.5t5 20.5q-41 -15 -86 -27 q-38 -10 -74 -10h-12l-12 6q14 29 19 60t16 61q7 43 7 82t-20 70q-19 18 -45 18q-8 0 -16 -2l-21 25q-14 12 -35.5 15t-37.5 -5q-27 8 -58.5 9t-60.5 -3q-51 -23 -102.5 -41t-96.5 -55q-53 -51 -101 -104.5t-71 -118.5q-15 -57 -25 -121zM248 106q0 12 2 21l2 68 q16 20 21.5 42.5t9.5 45.5q35 186 129 338q12 16 25.5 29.5t33.5 15.5q-16 -43 -16 -89q-1 -25 5 -53q14 -74 68 -127q2 -8 9.5 -12t13.5 -9t8 -10.5t-6 -15.5q-35 -78 -97.5 -141.5t-136.5 -106.5q-16 -4 -30.5 -14t-32.5 0q-8 8 -8 18zM545 555q-1 7 -1 14q0 47 23 86 q8 8 15 11q14 -4 25.5 -10.5t15.5 -22.5q3 -17 3 -34q0 -24 -6 -48q-12 -41 -22 -78q-23 12 -36 35.5t-17 46.5z" />
<glyph unicode="p" horiz-adv-x="1122" d="M-221 -401q-8 -18 6 -33q16 -18 37 -17q31 12 61.5 20.5t61.5 18.5q29 10 53.5 2t48.5 -8q23 0 34 11.5t16 28t8.5 34.5t9.5 35q41 100 93 195.5t105 191.5q10 16 26.5 33.5t27.5 33.5q35 53 59.5 111.5t62.5 112.5q4 -6 19 -7q14 6 27 19q39 41 76.5 85t75.5 86t80 80 t91 64h14q-2 -23 -2 -43t-8 -39q-33 -55 -68.5 -110t-70.5 -109q-16 -29 -36.5 -55.5t-31.5 -56.5q-14 -44 -14 -91v-12q2 -55 27 -100q6 -10 15 -22.5t15 -14.5q-2 -4 3.5 -6t7.5 -6q12 -10 25.5 -2t23.5 12q27 -11 54 -11l44 7q49 16 88 49q39 37 82 72t82 73.5t69.5 81.5 t43.5 95q4 4 3 10t3 10l2 14q-61 -45 -115.5 -101t-107.5 -108q-29 -23 -57.5 -47t-53.5 -53q-27 -22 -59 -22q-2 0 -4 1q-35 1 -64 5q-16 8 -16 18q16 25 38.5 43.5t38.5 44.5q14 -2 23.5 4t17.5 15q51 61 94.5 128.5t69.5 141.5q6 31 10 64q3 20 3 41q0 12 -1 24 q-2 33 -12 62.5t-33 52.5q-4 33 -28 55q-25 8 -60 2q-53 -18 -99 -50t-88 -72t-81 -82t-78 -81q2 23 12.5 43.5t20.5 38.5q4 43 14 87q6 21 6 44t-6 47l-14 21q-12 4 -25.5 8t-27.5 2q-12 -4 -24.5 -11t-25 -14.5t-24.5 -11.5t-27 2q-102 -43 -190 -122q-35 -33 -70.5 -67 t-67.5 -71t-56.5 -77.5t-36.5 -86.5l2 -2q57 47 112.5 96.5t112.5 92.5q14 27 40.5 45t53.5 29q-31 -80 -79 -154t-91 -145q-47 -98 -97 -191.5t-85 -196.5q-23 -63 -63 -119.5t-74 -113.5q-16 -27 -39 -50.5t-39 -51.5z" />
<glyph unicode="q" horiz-adv-x="1015" d="M45 250q4 -35 10 -70t29 -61q23 -16 47.5 -25.5t46.5 -25.5q8 -14 16.5 -27.5t24.5 -24.5q20 -16 44 -17t46.5 6t45 18.5t40.5 21.5q41 31 82 63.5t82 69.5h4q-8 -16 -14 -22q-66 -106 -125 -216t-129 -216l-51 -64q-12 -18 -27.5 -35.5t-13.5 -44.5q2 -4 6 -6t8 -6 q10 -4 19.5 -3t19.5 3q35 18 73 29.5t79 13.5q29 4 48 2t46 2q23 16 36 37.5t22 45t16.5 48.5t17.5 47q98 176 187 353.5t186 353.5q16 12 29.5 26.5t21.5 30.5q20 47 43 90t33 90q4 10 -2.5 16.5t-12.5 14.5q-14 3 -28 3q-23 0 -45 -9q-26 -11 -55 -11q-8 0 -17 1 q-20 -6 -44 -2t-42 -7q-25 -6 -35 -20t-14 -33.5t-7.5 -40t-13.5 -37.5q-4 -12 -14 -8q-14 16 -12 39t0 45q-10 18 -24.5 28.5t-31 15.5t-35 8t-34.5 10q-14 14 -30.5 18t-34 3t-36 -4t-34.5 -5q-84 -23 -153 -72t-126 -115q-16 -4 -27.5 -15t-25.5 -21q-43 -66 -76 -138.5 t-39 -150.5zM271 138.5q-1 15.5 1 31.5t2 31q4 18 11.5 34.5t11.5 32.5q16 6 29 23q-4 4 0 7t6 7h6q-8 12 -2 24.5t8 24.5q16 43 36.5 91.5t48.5 91.5t65.5 75.5t91.5 44.5q23 4 40 -5t36 -13q-2 -31 12 -57.5t28 -51.5q0 -18 -6 -34.5t-14 -31.5t-11 -31.5t3 -35.5 q-33 -68 -93.5 -117t-117.5 -96q-41 -25 -79 -53.5t-85 -36.5q-14 6 -20.5 17.5t-7.5 27z" />
<glyph unicode="r" horiz-adv-x="733" d="M-33 375l2 -2q10 6 16.5 13t14.5 17q61 70 134 130.5t149 109.5l2 -4q-14 -53 -36 -102.5t-38 -102.5q-16 -33 -32.5 -63.5t-28.5 -65.5q-39 -106 -101 -209q-4 -14 -14 -27.5t-19.5 -25.5t-13.5 -26.5t2 -30.5q18 -23 41 -25q41 14 83 15t77 26q25 4 53.5 3t42.5 26 q37 70 60.5 144.5t52.5 148.5q18 25 43.5 48t50.5 46q18 12 29.5 29.5t21.5 36t21.5 35t27.5 28.5q4 -29 7 -57.5t12.5 -54t25 -47t43.5 -34.5q18 -8 39 -4t37 12q29 18 41 45t14 56q-16 -10 -34.5 -17.5t-38.5 -11.5q-8 0 -17.5 3t-13.5 14q-20 39 -20 84q1 7 1 14 q4 53 7 100q4 16 16 31.5t16 34.5q6 14 15.5 28.5t1.5 30.5q-10 20 -35 31q-10 4 -18.5 1t-16.5 -7q-55 -66 -102 -133.5t-96 -137.5h-3q4 43 13.5 84t19.5 82q6 18 2 33.5t-13 28t-21.5 25t-20.5 24.5q-8 8 -21.5 7t-23.5 -5q-8 4 -29 4q-59 -23 -113.5 -62.5t-105.5 -80.5 q-72 -59 -135.5 -130t-73.5 -163z" />
<glyph unicode="s" horiz-adv-x="575" d="M7 138q-5 -21 -5 -42q0 -39 16 -76q23 -27 54.5 -40t62.5 -23q37 -4 79 -12q14 -3 27 -3q27 0 52 11q43 29 91 52.5t81 72.5q33 35 62.5 71.5t43.5 81.5q2 20 2 40q0 33 -6 65q-10 52 -14 106q0 25 -8 46.5t-19.5 41t-21.5 39t-12 43.5q-6 18 0 31.5t15 26t21.5 25 t18.5 24.5q8 16 18 31.5t17.5 32t10.5 34t-5 37.5q-4 10 -15.5 14t-21.5 6q-27 -12 -48.5 -32.5t-43.5 -36.5q-14 -16 -26.5 -29.5t-20.5 -32.5l-103 -65q-39 -31 -85 -63.5t-87 -68.5t-72.5 -79t-41.5 -96h6q82 70 167 131t171 121h8q4 -35 14 -68q7 -24 7 -50 q0 -11 -1 -22q-18 -72 -31.5 -145.5t-58.5 -130.5q-14 -27 -34.5 -46.5t-44 -35.5t-47 -30.5t-46.5 -28.5q-16 -6 -31 8q-2 10 2 22q16 23 28.5 45.5t8.5 53.5v8q0 41 -41 63q-14 4 -23 -4t-20 -18q-37 -46 -50 -106z" />
<glyph unicode="t" horiz-adv-x="503" d="M-20 215q16 -53 43.5 -102.5t52.5 -98.5q25 -14 47 -12t42.5 13.5t40 26.5t38.5 28q27 23 46 52.5t54 45.5q76 51 136.5 126t70.5 163q-49 -53 -99.5 -104.5t-107.5 -94.5q-18 -16 -39.5 -24.5t-40.5 -24.5q-10 -23 -30.5 -31t-36.5 -24q-6 -2 -11.5 -6.5t-9.5 2.5 q8 20 16.5 39.5t12.5 39.5q29 123 79 238t103 227q25 37 40 80t56 72q12 18 29.5 21t36 0t37 -8t35.5 -5q18 4 28 23q-2 16 4 29.5t13.5 27.5t14.5 28.5t7 30.5q-4 6 -13 14.5t-20 4.5q-29 -10 -61 -22q-13 -5 -26 -4q-18 0 -36 9q8 27 19.5 52.5t26.5 50.5q8 20 16 38.5 t4 41.5q-8 16 -29 12q-35 -27 -73 -27h-6q-42 2 -87 6q-4 2 -8 0t-4 7h-2v-5h2q-14 -2 -29.5 -4t-23.5 -18q-10 -41 -21.5 -80t-27.5 -76q-25 -27 -59 -33q-16 -3 -32 -3q-19 0 -38 4q-4 6 -11.5 8t-5.5 12q-2 8 -8 11t-12 3q-10 0 -17.5 -6t-11.5 -14q-23 -29 -42 -60.5 t-27 -66.5q8 -18 24 -23q23 -2 41 13q33 6 63.5 4t63.5 -8q-12 -47 -31.5 -91.5t-43 -87.5t-48 -85t-45.5 -87q-27 -39 -43 -84q-12 -47 -26 -90q-7 -22 -6 -46q0 -23 6 -48z" />
<glyph unicode="u" horiz-adv-x="878" d="M25 195q23 -47 36 -96.5t45 -90.5q16 -16 35 -21t39 -10q8 2 17.5 6.5t13.5 12.5q29 10 54.5 28.5t56.5 26.5q45 27 89 58.5t78 74.5q4 -16 11.5 -28.5t13.5 -26.5q2 -29 16.5 -47.5t36 -32.5t46 -24.5t44.5 -20.5q23 -6 41.5 4t32.5 27q33 41 69 80t64 82 q47 57 76 121.5t29 142.5q-53 -90 -124 -176t-149 -162l-12 -4q-14 -2 -27 10q-10 29 7.5 47.5t25.5 38.5q27 111 71 211t79 207q29 25 41 59q7 18 7 37q0 16 -5 33l-11 12q-23 12 -46 10t-44 -12q-16 -6 -31.5 -3t-32 6t-30.5 2t-26 -15q-35 -41 -56.5 -90t-40.5 -97 q-12 -47 -30.5 -89t-30.5 -87q-8 -18 -12.5 -38.5t-9.5 -41t-14 -39t-28 -32.5q-37 -49 -86 -84t-106 -49q-10 -4 -23.5 -5t-23.5 5q-10 10 -9 20t6 19.5t11 18.5t8 20q23 76 40 151.5t42 147.5q6 27 19.5 49t31 42.5t35.5 42t31 44.5q8 25 -6 51q-12 27 -31 31t-41.5 -1.5 t-46 -13.5t-43.5 -4q-10 -4 -17.5 1t-14.5 9.5t-14 7.5t-18 -3q-37 -23 -37 -70q-29 -51 -47 -103.5t-34 -107.5q-16 -67 -35 -133q-11 -39 -11 -81q0 -28 5 -58z" />
<glyph unicode="v" horiz-adv-x="817" d="M4 395.5q-2 -6.5 4 -10.5q31 39 62.5 83t65.5 86t71 80t82 66q10 4 26.5 9.5t26.5 -7.5q-29 -35 -56.5 -71.5t-62.5 -67.5q-37 -35 -50 -79t-30 -87q-13 -49 -29 -98q-8 -23 -7 -46q0 -27 10 -56q-7 -21 -7 -42q0 -16 4 -31q9 -36 25 -67q18 -23 36 -49t50 -33 q133 0 236 93q16 35 50 54t60 50q39 33 67 74t58 80q14 -10 34 -13.5t38 0.5q49 12 80 59.5t37 92.5q-29 -10 -52.5 -33.5t-56.5 -28.5q-4 2 -10 4.5t-10 6.5q45 68 53 149q12 51 12 109q0 57 -37 100q-25 25 -54 25q-8 0 -15 -2q-31 -16 -56.5 -44t-40.5 -59 q-18 -36 -19 -74v-11q0 -32 5 -66q6 -39 15.5 -79t13.5 -77q-27 -49 -65 -95t-83 -87q-27 -18 -52 -42t-51 -44.5t-54 -33.5q-22 -10 -48 -10q-8 0 -16 1q-20 16 -26 39q12 10 25 15t26 19q27 59 53.5 117t58.5 115q18 53 46 103t36 110q1 43 9 88q2 14 3 27q0 30 -12 59 q-26 31 -66 31h-9q-18 -8 -42 -6t-44 2q-31 0 -53.5 -17.5t-45.5 -36.5q-37 -35 -73.5 -72.5t-67.5 -77.5t-51.5 -85t-24.5 -96q0 -6 -2 -12.5zM681 624.5q3 20.5 17 39.5q2 6 8.5 13t13.5 12t12 3t9 -16v-14q0 -39 -9 -77q-11 -44 -27 -85q-4 18 -11.5 39.5t-11.5 43t-1 42 z" />
<glyph unicode="w" horiz-adv-x="1294" d="M0 385h4l43 53q41 57 97.5 94t109.5 78q10 4 18.5 10.5t18.5 -4.5q2 -8 -6 -20q-35 -27 -72 -54.5t-57 -68.5q-43 -49 -51.5 -115.5t-12.5 -132.5q4 -33 9 -69.5t30 -63.5q23 -14 43.5 -35.5t43 -38t48 -21.5t58.5 11q43 29 85 63.5t83 69.5q35 16 57 49t51 56 q10 -35 20.5 -71t20.5 -73q16 -43 54 -68.5t85 -27.5q53 4 96.5 27.5t86.5 50.5q68 53 119 120.5t92 139.5q13 -2 26 -2q22 0 43 6q47 8 85 52t54 87q-27 -18 -54.5 -33.5t-55.5 -19.5q-16 -2 -31.5 -3t-26.5 9q12 39 24 83t18 89q3 28 4 55q0 17 -2 35q-4 46 -21 89 q-2 8 -10 13t-17 9q-18 8 -37.5 2t-35.5 -20q-29 -29 -65 -58.5t-42 -70.5q-1 -14 -1 -27q1 -51 13 -99q16 -60 35 -116q2 -12 10.5 -22.5t14.5 -22.5q-18 -47 -54 -89t-71 -83q-37 -39 -79 -71q-33 -25 -75 -25q-12 0 -24 2l-27 16q-14 16 -17 38.5t3 45.5q16 47 32.5 93 t32.5 93q25 59 47.5 120t61.5 114q10 29 29.5 53.5t15.5 56.5q-4 23 -19 29q-9 1 -18 1q-28 -1 -52 -15q-30 -20 -65 -23q-23 -10 -40 2.5t-35 16.5q-10 -2 -20.5 -4t-16.5 -7q-39 -63 -56.5 -134.5t-42.5 -141.5l-24 -47q-31 -41 -59.5 -85t-59.5 -86t-67.5 -79t-86.5 -59 q-16 -4 -31.5 -3t-25.5 11q-4 6 -10 14t-4 19q4 27 20.5 47t24.5 47q4 16 3 34.5t15 28.5q31 35 62.5 70t57.5 71.5t42 77.5t16 88q-8 26 -8 54v11v7q0 30 -14 55q-6 10 -16.5 18.5t-22.5 4.5q-41 -10 -80 -27.5t-78 -36.5q-61 -33 -118.5 -76.5t-98.5 -103.5 q-16 -33 -31.5 -66.5t-17.5 -70.5zM1128 583q-4 19 -4 37q0 29 9 56q4 10 9 17t15 9l6 -36q0 -41 1 -85v-6q0 -41 -13 -75q-13 35 -23 83z" />
<glyph unicode="x" horiz-adv-x="1038" d="M-20 59q4 -20 18 -35.5t31 -27.5q37 -21 76 -21q17 -1 33 3q58 12 100 38q43 43 93 72t103 51q8 -41 30.5 -74.5t51.5 -66.5q29 -25 72 -29q8 -1 16 -1q33 0 60 14q31 23 65.5 30.5t67.5 30.5q88 68 168 150q57 49 96 115.5t41 142.5q0 4 -2 4q-33 -35 -61.5 -73 t-55.5 -75q-59 -47 -109.5 -105.5t-113.5 -92.5l-78 -29q-20 -8 -39.5 -20.5t-42.5 -2.5q-3 29 -3 57q0 24 2 48q5 52 11 104q12 61 38 118.5t48 115.5q18 29 35 60.5t37 60t45 53t57 41.5q11 2 22 2q23 -1 44 -9q31 -12 59 -28q2 18 0 35.5t-10 32.5q-12 18 -29.5 32.5 t-40.5 10.5q-22 6 -42 6q-17 -1 -33 -5q-34 -10 -64.5 -31.5t-57 -49t-52.5 -49.5q-38 45 -86 88q-45 41 -104 41h-5q-20 7 -41 7q-14 0 -28 -4q-34 -8 -64 -24q-27 -14 -56.5 -30.5t-57 -36t-48 -46t-29.5 -59.5q-6 -20 -5 -43t14 -39q8 14 19 24.5t24 22.5q25 25 46 51.5 t52 42.5q14 6 29.5 16.5t32 16.5t34 7t33.5 -9q14 -33 18.5 -67.5t8.5 -71.5q-12 -35 -24.5 -69t-25.5 -68q-27 -37 -49 -75t-44.5 -78t-47 -78t-55.5 -75q-18 -14 -39 -24t-41 -21q-20 4 -39.5 7.5t-30.5 21.5q-10 25 -4 47.5t17 44.5q4 6 13 12.5t5 16.5q-25 2 -43 -11.5 t-35 -29.5q-20 -23 -29.5 -52.5t-0.5 -58.5z" />
<glyph unicode="y" horiz-adv-x="1050" d="M-98 -403q-2 -23 7 -40.5t24.5 -33t34 -28.5t34.5 -25q31 -15 65 -15q16 0 33 3q52 12 93 30q68 29 126 76t109 100l2 6q25 10 46.5 27.5t41.5 36.5q25 35 45.5 71.5t48.5 69.5q35 16 67 30.5t60 35.5q51 14 94.5 43.5t82 66.5t74.5 78t75 78q41 41 65.5 93t36.5 108 q0 16 3 29.5t1 25.5q-10 -4 -13 -13.5t-13 -17.5q-14 -31 -37 -57.5t-41 -59.5q-47 -51 -98 -102t-95 -102q-18 -27 -43.5 -41.5t-52 -26.5t-53.5 -25.5t-49 -35.5l-8 2q35 70 68.5 141.5t49.5 150.5q27 72 55.5 140.5t57.5 138.5q10 23 16.5 49.5t26.5 46.5q4 14 14.5 26.5 t19.5 26t15 29t2 33.5l-11 11t-13 7q-18 -2 -34.5 -9l-33 -14t-33 -12.5t-34.5 -0.5q-29 4 -57.5 7t-49.5 -26q-45 -104 -77 -212.5t-68 -217.5q-23 -47 -60 -86t-78 -76q-31 -25 -62.5 -50.5t-72.5 -29.5q-10 4 -18 6.5t-12 12.5q-13 32 -13 64v8q2 36 6 73q33 66 80 128.5 t90 123.5q31 41 37 93q1 12 1 24q0 39 -15 74q8 23 10 45t-12 43q-14 14 -37 14q-57 -23 -111.5 -46.5t-103.5 -60.5q-59 -43 -116.5 -102t-78.5 -131q0 -14 -4 -28.5t0 -28.5q25 10 49 39q39 74 103.5 125t134.5 90q2 -2 2 -7q-63 -70 -119.5 -139t-87.5 -153 q-12 -35 -16 -72q-2 -16 -2 -33q0 -20 3 -41q5 -37 19.5 -70.5t40.5 -60.5q10 2 13.5 -5t9.5 -7q16 -16 34.5 -33.5t41.5 -26.5q16 -3 30 -3q19 0 36 4q30 8 59.5 21t57.5 28.5t56 27.5q-27 -41 -48 -85t-50 -85q-84 -23 -165 -52.5t-159 -72.5q-18 -20 -42.5 -36.5t-47 -34 t-40 -39t-23.5 -51.5zM-6 -408q6 20 21.5 33t27.5 27q66 51 138.5 83.5t150.5 55.5q-29 -57 -66 -113.5t-92 -95.5q-18 -6 -37.5 -17t-40 -19.5t-41 -9.5t-41.5 15q-8 10 -15 19.5t-5 21.5z" />
<glyph unicode="z" horiz-adv-x="868" d="M31 4q2 -10 3 -18.5t11 -12.5q18 -6 34.5 -2t32 15.5t30 25t26.5 23.5q25 6 46.5 21.5t44 29.5t46 23.5t51.5 3.5q23 -27 48.5 -51.5t54.5 -43.5q18 -10 36.5 -20t43.5 -6q29 2 47 23.5t45 25.5q86 53 151.5 122.5t128.5 147.5q23 31 32.5 69t19.5 75l-7 4 q-72 -84 -141.5 -168t-161.5 -144l-46 -20t-46 6q-6 18 -6 39q0 23 -2 42t-9 37.5t-28 31.5q-18 4 -35.5 -1.5t-33 -12.5t-31 -16t-31.5 -13q-4 -4 -12 -3t-15 1q2 8 8.5 11t8.5 11q57 61 111.5 125t115.5 119q33 16 60.5 35.5t56.5 42.5q35 34 65 72q27 33 27 76v11 q-10 25 -35 17q-43 -31 -88 -54.5t-92 -50.5q-23 -2 -46.5 -8t-45.5 -14q-16 -4 -31.5 -15.5t-38.5 -11.5q-14 4 -18 12q-10 33 -11.5 68t-23.5 64q-10 12 -23.5 10t-29.5 -2q-57 -29 -106.5 -74t-90.5 -96q-4 -33 -25.5 -61.5t-33.5 -59.5q-2 -23 -9.5 -46.5t-1.5 -45.5 q4 2 6.5 0t4.5 2q25 35 50 66.5t52 62.5q8 20 22.5 38.5t39.5 22.5q6 -33 30 -45q27 -23 57.5 -25.5t61.5 4.5t59.5 20t53.5 28q12 4 21 10t20 8q-12 -10 -21.5 -23.5t-23.5 -23.5q-59 -76 -126 -146.5t-130 -146.5q-29 -23 -62 -45t-62.5 -50t-52 -58.5t-30.5 -67.5z" />
<glyph unicode="&#xa1;" horiz-adv-x="847" d="M55 -215q10 -16 29 -18q33 6 60.5 25.5t62.5 25.5q23 10 49.5 3t50.5 -3q27 23 36 52.5t17 59.5q14 66 44 126.5t59 121.5q25 47 56.5 93t37.5 106q4 29 23.5 51.5t33.5 46.5q10 31 22.5 61.5t-1.5 63.5q-12 16 -24.5 17t-26 -5t-26.5 -14t-26 -8q-25 -2 -46 9t-46 -1 q-10 -4 -14 -14.5t-8 -20.5q12 -66 -17.5 -120t-64.5 -105q-23 -53 -49.5 -105.5t-48.5 -105.5q-41 -70 -71 -143.5t-87 -133.5q-10 -14 -20.5 -29.5t-4.5 -35.5zM535 840q-9 -51 20 -88q10 -16 24.5 -22.5t31 -4.5t31.5 8t30 15q31 23 53.5 54.5t22.5 67.5q31 45 20 111 q4 8 6 15.5t0 17.5q-6 16 -26 22q-72 -4 -127 -41q-14 -16 -24.5 -35.5t-29.5 -33.5q-23 -35 -32 -86z" />
<glyph unicode="&#xac;" horiz-adv-x="1067" d="M59 344q-8 -96 27 -182q-4 -39 3 -79t34 -71q16 -20 38.5 -25t45.5 -1q45 18 88 38.5t84 49.5q53 61 109.5 113.5t117.5 105.5l10 2q0 -41 2.5 -79t14.5 -73q12 -14 18 -30.5t11.5 -33t12.5 -31.5t21 -28q23 -10 44.5 0.5t43.5 12.5q45 10 82 41.5t66 68.5q25 25 43 51.5 t34.5 54t36 55.5t48.5 50q25 18 51 39t43 49l-2 4q-29 6 -54.5 1t-48.5 -15q-55 -41 -95 -98.5t-77 -110.5l-24 -18q-23 -39 -56.5 -66.5t-80.5 -29.5q-10 6 -11.5 18t-1.5 23q25 84 48.5 166.5t54.5 162.5q8 33 29.5 59.5t47 48t55 40t56.5 37.5q31 35 62.5 69.5t66.5 67.5 q23 41 49.5 79t40.5 83q31 43 54.5 89t23.5 101q-4 31 -6 65.5t-33 51.5q-39 6 -81 12t-75 -22q-53 -8 -96 -40t-86 -65q-23 -16 -37 -36.5t-27.5 -42t-27.5 -42t-35 -37.5q-35 -53 -59.5 -109.5t-46.5 -115.5q-39 -63 -57.5 -133t-30.5 -143q-4 -29 -9.5 -59.5t-21.5 -57.5 q-59 -41 -106.5 -95.5t-104.5 -101.5q-20 -33 -49 -52t-57 -40q-16 -6 -34 -13t-34 3q-25 6 -21.5 28.5t3.5 38.5q23 53 40 110.5t35 117.5q23 57 46.5 112.5t39.5 114.5q2 29 22.5 46.5t41.5 37.5q51 18 86 58t76 77q39 37 66.5 81t68.5 77q41 31 53 73t37 83q8 18 16 38.5 t2 43.5q-18 25 -34.5 50t-45.5 44q-35 18 -69 -6q-53 -4 -103.5 -26t-89.5 -67q-49 -23 -79.5 -62.5t-65.5 -78.5q-29 -18 -48.5 -45t-35.5 -53q-55 -104 -87 -219t-69 -228q-29 -86 -37 -182zM424 782q23 35 36 76t44 76q33 66 70.5 131t70.5 131q-2 23 18.5 32t36.5 15 q14 0 26.5 -12.5t18.5 -22.5q2 -23 -4 -43t-15 -40.5t-19.5 -39t-18.5 -38.5q-35 -27 -56.5 -60t-47.5 -63q-39 -45 -79 -77t-81 -65zM915 664q31 96 74 181t82 177q29 45 62.5 88t50.5 90q16 4 32.5 6t30.5 -8q12 -29 5 -63.5t-19 -61.5q-31 -33 -46.5 -71.5t-35.5 -73.5 q-37 -76 -101.5 -139.5t-123.5 -120.5z" />
<glyph unicode="&#xad;" horiz-adv-x="593" d="M72 451q4 -12 13 -14.5t17 -2.5q39 10 74 25.5t72 27.5q57 10 116.5 6t114.5 -12q14 -4 25.5 -17t27.5 -7q20 12 31.5 34.5t16.5 45.5q8 12 19 23t21.5 23.5t14.5 27t-4 30.5q-4 14 -17.5 20.5t-27.5 2.5q-16 -16 -35 -25.5t-39 -16t-40.5 -11.5t-39.5 -13l-196 -2 q-16 6 -25.5 20.5t-28.5 16.5q-10 -2 -18 -4t-12 -13l-29 -77l-51 -68v-20z" />
<glyph unicode="&#xb0;" horiz-adv-x="657" d="M57 807q4 -23 18.5 -38t22.5 -34q10 -10 17.5 -22.5t13.5 -24.5t14.5 -21.5t24.5 -11.5q27 -4 53.5 -8t54.5 0q61 33 127 41q41 25 68 64t49 79q39 35 54.5 79t13.5 91q4 14 10 26t6 28q2 31 -4 60.5t-35 49.5q-31 14 -60.5 27.5t-62.5 24.5q-41 23 -88 15.5t-88 -20.5 q-20 -10 -44.5 -23t-45 -30.5t-34 -40t-11.5 -49.5q-63 -117 -74 -262zM213 815q4 55 20.5 108.5t38.5 100.5q29 41 69 65.5t91 22.5q14 -4 31.5 -3t30.5 -9q14 -10 19 -23.5t3 -29t-5 -30t-3 -26.5q-4 -29 -10 -56.5t-31 -43.5q-25 -23 -39 -52.5t-41 -54.5 q-12 -14 -28.5 -16t-32.5 -12q-39 -18 -90 -8q-12 16 -15.5 33.5t-7.5 33.5z" />
<glyph unicode="&#xb4;" horiz-adv-x="604" d="M74 920q4 -16 18 -20.5t29 -6.5q94 10 176 54t152 112q12 12 27.5 19t28.5 16.5t23.5 22t10.5 30.5q-23 20 -53.5 16t-55.5 -14q-23 0 -40 10t-40 0q-27 -10 -27.5 -33.5t-11.5 -44.5q-49 -59 -110.5 -99t-126.5 -62z" />
<glyph unicode="&#xb7;" horiz-adv-x="458" d="M110 407.5q-8 -47.5 21 -88.5q23 -18 44.5 -28t49.5 -2q27 4 47.5 22.5t32.5 38.5q10 12 12 27.5t19 21.5q18 31 28 70t-6 76q-20 27 -55 41q-51 10 -92 -19.5t-70 -70.5q-23 -41 -31 -88.5z" />
<glyph unicode="&#xb8;" horiz-adv-x="454" d="M47 -297q0 -29 47 -47t115 -18q104 0 161.5 28.5t57.5 85.5q0 61 -48 89t-110 28q-10 0 -23.5 -1t-31.5 -1l41 104h-61q-4 -8 -12.5 -27.5t-16.5 -40t-15.5 -39t-7.5 -24.5q0 -27 29 -26q70 0 96.5 -15.5t26.5 -40.5q0 -59 -84 -59q-35 0 -56.5 5t-35 12.5t-23.5 12.5 t-20 5q-29 0 -29 -31z" />
<glyph unicode="&#xbf;" horiz-adv-x="923" d="M67.5 157q-24.5 -77 2.5 -155q10 -37 40.5 -71.5t71.5 -39.5q33 -29 74 -36t83 -2.5t83 17.5t76 28q41 14 73.5 44.5t61.5 65.5q33 35 52.5 75t37.5 81q4 20 3 40.5t-17 33.5q-10 16 -23.5 13t-28.5 -1q-20 -6 -28 -22.5t-17 -32.5q4 -12 10.5 -25.5t16.5 -17.5 q-27 -57 -72 -112.5t-104 -80.5q-27 -6 -55.5 -14t-57 -12.5t-56.5 0t-52 26.5q-16 37 -13 80q14 76 44 143.5t79 126.5q18 18 42 28.5t46.5 19t45 19.5t38.5 32q35 18 74 39.5t74 48t60.5 60.5t35.5 77q4 27 -14 41q-16 10 -36 3t-36 -11q-35 0 -71 4t-64 -13 q-27 -20 -34 -52t-11 -64q-23 -53 -68 -87t-96 -53l-43 -2q-43 -16 -80 -44.5t-70 -61.5q-53 -59 -77.5 -136zM591 866.5q-3 -20.5 7 -43.5q16 -35 56 -40t69 12q18 14 39.5 28.5t40 30.5t33 35.5t20.5 46.5q6 33 -2 60.5t-27 52.5q-23 18 -44 5.5t-42 -18.5q-29 2 -51 -15 t-37 -42q-10 -18 -23.5 -36.5t-24.5 -37t-14 -39z" />
<glyph unicode="&#xc4;" horiz-adv-x="1351" d="M52 228q-15 -38 1 -78q20 -41 43 -87.5t70 -66.5q47 -4 90 -5t78 34q39 33 75.5 71.5t71.5 78.5t72 79t78 72q18 -8 36.5 -14.5t39.5 -8.5q57 -6 92 -45l133 -6l2 -4q-31 -55 -57 -109q-16 -27 -39 -50t-35 -52q-14 -31 10 -51q18 -8 34.5 -2t35.5 12q31 0 62.5 -1t62 5 t56.5 22.5t42 47.5q31 18 53 47q16 45 29.5 90t36.5 88l69 16q49 10 80 55.5t41 92.5l-6 4q-35 -29 -69.5 -56.5t-79.5 -33.5q29 68 57.5 137.5t64.5 136.5q47 92 89 186.5t100 184.5q12 35 31.5 72.5t60.5 56.5q16 16 26.5 35.5t4.5 44.5q-4 18 -25 22q-41 4 -85 -1 t-79 -38q-86 -10 -167 -39.5t-142 -91.5q-84 -53 -168 -126.5t-156 -159.5q-53 35 -119.5 51t-131.5 -6q-23 -16 -50.5 -29.5t-52 -30t-45 -37t-31.5 -51.5q-10 -29 -0.5 -57.5t25.5 -50.5q10 -16 5 -34t5 -34q23 -37 46.5 -71.5t54.5 -63.5l2 -6q-76 -78 -150 -150.5 t-151 -148.5q-18 -12 -41 -6t-43 10q-33 23 -48.5 57.5t-25.5 69.5q0 25 10 50.5t23 47.5v10q-33 0 -62 -16q-25 -31 -40 -69zM525 655.5q-1 16.5 20 32.5q20 14 41.5 32.5t45 31t47 16.5t50.5 -6q25 -8 46.5 -18.5t39.5 -26.5q-39 -66 -88 -130.5t-90 -131.5 q-27 20 -46.5 45.5t-35.5 54.5q4 18 -5 34.5t-16.5 33t-8.5 33zM688 408q16 29 39 57.5t41 56.5l109 154q59 -47 95.5 -109.5t63.5 -128.5l-55 -104q-84 -10 -168 10q-6 14 -15.5 19.5t-21.5 8.5t-25.5 5t-23.5 8zM936 752q76 98 173 175t196 148q35 18 69.5 32.5t71.5 22.5 l4 -4q-14 -39 -44 -70.5t-52 -66.5q-31 -39 -52.5 -82t-42 -86t-44 -86t-56.5 -80q-23 -31 -39 -62.5t-37 -64.5q-23 61 -60.5 117.5t-86.5 106.5zM1193.5 1329q-5.5 -41 16.5 -74q16 -16 43 -12q14 8 33 13.5t36 12.5t28.5 18t15.5 34q4 18 14.5 37.5t17.5 40t4 39 t-26 32.5q-10 4 -22 5h-23q-27 4 -43 -12.5t-33 -32.5q-10 -4 -20 -11.5t-18 -17.5q-18 -31 -23.5 -72zM1481.5 1351.5q-11.5 -26.5 7.5 -48.5q20 -10 45 -15.5t47 4.5q43 8 69 44t44 71q6 20 6 43t-19 37q-27 20 -57 16q-16 0 -29.5 -10t-23.5 -23q-4 -16 -14.5 -23 t-21.5 -12t-21.5 -11.5t-12.5 -22.5q-8 -23 -19.5 -49.5z" />
<glyph unicode="&#xd6;" horiz-adv-x="1136" d="M49 520q-4 -106 23.5 -199.5t81.5 -177.5q18 -20 38.5 -42.5t43 -41t47 -31t53.5 -14.5q12 -4 22.5 -14t26.5 -8q61 -4 115.5 12t103.5 44t94 66t88 79q27 23 50.5 47t31.5 59l93 141q29 68 53 137.5t41 141.5q2 55 12 108.5t0 106.5q29 20 66.5 37.5t70.5 40t55.5 53.5 t22.5 76q-4 4 -5 8t-5 4q-33 -35 -69 -59.5t-70 -53.5l-32 -20t-32 -14q-10 33 -27.5 60.5t-37.5 55.5q-49 66 -120 92.5t-147 14.5l-14 12q-47 6 -87 -13.5t-81 -35.5q-27 -10 -50.5 -30.5t-51.5 -18.5q-72 -29 -135.5 -84t-114.5 -119q-20 -35 -44 -67.5t-43.5 -67.5 t-30.5 -73t-7 -81q-8 -33 -15.5 -64.5t-13.5 -66.5zM215 219q29 104 62.5 203.5t60.5 204.5q14 27 20.5 57.5t12.5 61t17 58t40 50.5q53 41 90 93t84 97q41 27 81 56.5t87 46.5q-16 -35 -30.5 -72t-14.5 -78q16 -31 33.5 -66.5t56.5 -45.5q47 0 90 6t90 10q6 -80 -7 -151.5 t-38.5 -138t-61.5 -129t-73 -124.5q0 -29 -21.5 -50t-41.5 -44q-66 -53 -129.5 -104t-135.5 -84q-59 -16 -116.5 0t-98.5 61q-18 20 -33.5 40t-23.5 42zM557 1339q4 -16 13.5 -32.5t25.5 -20.5q27 8 54.5 9t54.5 10q29 10 38 36.5t13 53.5q10 18 13 43t-9 43q-14 4 -22.5 15 t-24.5 7q-20 -2 -33.5 -13t-24.5 -26q-45 -10 -64.5 -49t-33.5 -76zM812 1004.5q-1 17.5 5 35t15.5 34t15.5 32.5q23 23 49 12q20 -14 36.5 -33.5t33.5 -40.5q8 -16 15 -30.5t13 -30.5q-41 -10 -84 -16t-84 4q-14 16 -15 33.5zM877 1294q6 -16 21 -25t28 -20q20 -6 43 2 q23 18 52.5 40t31.5 57q2 12 8 24t12 24.5t8 26t-4 25.5q-16 16 -31.5 26.5t-37.5 4.5q-18 -12 -39 -16.5t-37 -20.5q-29 -31 -41 -68t-14 -80z" />
<glyph unicode="&#xdc;" horiz-adv-x="1130" d="M43 258q2 -35 8 -68.5t17 -64.5q23 -35 44 -75t66 -56q27 -8 58.5 -18.5t63.5 -15.5t63.5 -2t60.5 22q33 10 62.5 30.5t55 46t51 53t52.5 50.5q45 35 90 66.5t82 78.5l10 4q-6 -33 -18 -60.5t-12 -62.5q-4 -35 10 -61.5t37.5 -48t51.5 -39t52 -31.5q20 -4 36.5 5t33.5 20 q29 -6 53.5 2t46 23.5t42 36l38.5 38.5q29 29 58.5 49.5t56.5 48.5q12 12 20 26.5t16.5 29t18.5 26t27 15.5q41 23 52 62.5t19 80.5l-6 4q-33 -10 -60.5 -38.5t-56.5 -51.5q-55 -80 -134 -145.5t-156 -120.5l-21 -2q-18 6 -32.5 19t-14.5 34q4 41 21.5 78t27.5 78 q12 41 31.5 77.5t42 73.5t45.5 74t39 76l151 331l27 64l47 53q14 27 29.5 56.5t3.5 62.5q-29 8 -55.5 1t-48.5 -24q-23 -10 -46.5 -8t-44.5 -6q-16 0 -30.5 3t-30.5 -5q-29 -35 -47.5 -74t-22.5 -84q-29 -49 -51 -101t-51 -101q-41 -78 -79 -157t-73 -157 q-53 -61 -113.5 -121.5t-125.5 -109.5q-29 -25 -56.5 -53.5t-56.5 -55t-59.5 -51.5t-65.5 -39q-18 -12 -37.5 -14t-39 2t-40 10t-38.5 6q-33 16 -47.5 49t-24.5 64q12 78 45 139q35 14 68.5 34.5t62.5 51.5q59 78 118.5 157t119.5 157q23 41 44 79.5t52 73.5q25 43 45 88 t18 98q-12 45 -16 92.5t-37 82.5l-31 30q-45 31 -95 13.5t-89 -41.5l-41 -2q-27 -8 -57.5 -11.5t-58 -9.5t-51 -20.5t-36.5 -44.5q-49 -35 -67.5 -88.5t-34.5 -104.5q4 -10 10 -10h19q33 6 49 26.5t27.5 46t22.5 53t34 48.5q47 31 107.5 44t121.5 -3q14 -4 18.5 -17.5 t4.5 -25.5q-10 -43 -31 -83t-39 -81q-66 -66 -129.5 -136.5t-128.5 -142.5q-92 -78 -138 -179t-30 -222zM760 1307.5q2 -15.5 12 -27.5q16 -18 45 -14q29 16 61.5 23t59.5 32q20 33 37.5 67.5t13.5 75.5q-6 16 -18.5 21.5t-28.5 9.5q-25 -4 -49.5 -8t-44.5 -21 q-18 -18 -34.5 -36.5t-37.5 -36.5q-4 -12 -9 -26.5t-7 -29t0 -30zM1042.5 1346.5q-12.5 -29.5 10.5 -58.5q20 -14 42.5 -29.5t51.5 -1.5q16 6 31.5 19.5t19.5 32.5q8 16 20.5 30.5t23.5 29.5t17.5 32t2.5 37q-6 12 -13.5 26.5t-27.5 16.5q-12 -4 -22.5 -3t-24.5 3 q-23 -4 -43.5 -17.5t-30.5 -36.5q-10 -4 -22.5 -7t-16.5 -15q-6 -29 -18.5 -58.5z" />
<glyph unicode="&#xdf;" horiz-adv-x="937" d="M-256 -482.5q-2 -11.5 6 -21.5q6 -14 33 -14q27 4 37 26.5t20 40.5q14 53 47 98.5t74 86.5q27 23 58.5 25.5t58.5 25.5q47 55 81 116.5t68 123.5q27 31 43.5 64.5t29.5 69.5t26.5 71.5t31.5 68.5q39 90 86.5 176t63.5 184q-2 16 1 35t4 37.5t-3 33.5t-18 28 q14 20 24 44.5t37 34.5q27 31 53.5 64t55 62.5t61.5 50t76 26.5q10 0 10 -12q0 -10 4 -16q-2 -59 -7 -116t-20 -112q0 -16 -7 -28.5t-17 -24.5t-19.5 -24.5t-11.5 -26.5q-23 -23 -53.5 -31t-63.5 -16q-16 -4 -37.5 -1t-31.5 -18q-10 -16 -12.5 -41.5t14.5 -42.5 q18 -6 36.5 -1t34.5 7q23 -10 50 -10t49 -6q16 -6 20 -27q-16 -41 -25.5 -81.5t-19.5 -81.5q-4 -23 -6 -48.5t-12 -48.5q-29 -33 -58.5 -63.5t-68.5 -48.5q-27 -12 -54.5 -24.5t-54.5 -18.5q-16 10 -16 41q8 27 8 55q0 29 -4 57h-4q-25 -29 -39 -59.5t-27 -63.5 q-8 -27 -12 -59.5t23 -54.5q12 -18 29.5 -23.5t37 -4.5t39 6t37.5 7h76q31 -8 55.5 0.5t47 23.5t43 34.5t42.5 33.5q41 23 81 45.5t65 65.5q33 47 28.5 109.5t-6.5 119.5q-2 59 -35 109.5t-80 87.5v4q23 16 49.5 23.5t49.5 31.5q33 47 53 98.5t43 102.5q4 49 0 96.5 t-21 90.5q-16 23 -36.5 45t-42.5 43q-29 20 -66 17t-70 -13l-151 -105q-35 -37 -65.5 -73.5t-61.5 -73.5q-39 -23 -58.5 -59.5t-41.5 -71.5q-45 -23 -86 -49.5t-82 -63.5q-41 -41 -87.5 -83t-74.5 -91q-23 -25 -52.5 -47.5t-37.5 -56.5q31 -6 58.5 7t49.5 29q18 8 29.5 22.5 l23 29t23.5 29t31 22.5q23 14 47 26.5t49 24.5q-33 -41 -56.5 -85t-44 -90t-39 -93t-40.5 -92l-21 -19q-27 -49 -46 -99t-44 -102q-70 -117 -132 -237.5t-126 -243.5q-4 -8 -6 -19.5z" />
<glyph unicode="&#xe0;" horiz-adv-x="983" d="M52 271q18 -89 77 -150q14 -39 41 -73t68 -52q23 -4 51 -4q31 0 53 22q57 47 103.5 102.5t80.5 119.5q-6 -61 12.5 -118t55.5 -104q16 -14 40.5 -19t47.5 7q78 35 145.5 93.5t114.5 133.5q25 35 48.5 71t33.5 77q4 23 9 43t1 43q-23 -8 -33 -31.5t-26 -40.5 q-43 -74 -101.5 -143.5t-130.5 -122.5q-12 -4 -24 -12.5t-24.5 -13.5t-26.5 -5q-12 0 -25 10q-10 4 -13 13.5t-3 17.5q-6 27 5 45.5t29.5 33.5t38 29.5t29.5 35.5q20 45 35.5 93t30 96t34 94t50.5 89q12 18 28.5 30.5t32.5 33.5q6 18 20.5 35.5t4.5 40.5l-15 14 q-27 4 -53.5 0t-50.5 -10q-20 -8 -40 -4t-38 7t-36.5 0t-33.5 -22l-57 -139q-14 41 -37.5 81t-68.5 54q-59 20 -120 -1t-108 -62q-12 -2 -24.5 -5.5t-22.5 -11.5q-66 -47 -116 -112.5t-81 -137.5q-29 -82 -11 -171zM260 141q-16 86 5.5 163t53.5 149q27 16 32 44.5t20 55.5 q14 43 43.5 87t77.5 52q29 4 46 -15.5t29 -39.5q10 -23 18.5 -46t12.5 -46q-16 -53 -38.5 -103.5t-43.5 -103.5q-35 -55 -72.5 -111.5t-93.5 -101.5q-14 -10 -28.5 -17.5t-30.5 -3.5q-16 0 -21.5 13.5t-9.5 23.5zM391 1223q-8 -20 1 -36t22 -32q41 -43 86 -86t94 -74 q23 -10 46.5 -23.5t47 -22.5t48 -14t50.5 -1l2 6q-53 45 -112.5 88t-93.5 107q-2 10 0 21t3 21.5t-2 20.5t-16 16q-45 16 -90 0q-20 4 -41.5 14.5t-44.5 -5.5z" />
<glyph unicode="&#xe1;" horiz-adv-x="983" d="M52 271q18 -89 77 -150q14 -39 41 -73t68 -52q23 -4 51 -4q31 0 53 22q57 47 103.5 102.5t80.5 119.5q-6 -61 12.5 -118t55.5 -104q16 -14 40.5 -19t47.5 7q78 35 145.5 93.5t114.5 133.5q25 35 48.5 71t33.5 77q4 23 9 43t1 43q-23 -8 -33 -31.5t-26 -40.5 q-43 -74 -101.5 -143.5t-130.5 -122.5q-12 -4 -24 -12.5t-24.5 -13.5t-26.5 -5q-12 0 -25 10q-10 4 -13 13.5t-3 17.5q-6 27 5 45.5t29.5 33.5t38 29.5t29.5 35.5q20 45 35.5 93t30 96t34 94t50.5 89q12 18 28.5 30.5t32.5 33.5q6 18 20.5 35.5t4.5 40.5l-15 14 q-27 4 -53.5 0t-50.5 -10q-20 -8 -40 -4t-38 7t-36.5 0t-33.5 -22l-57 -139q-14 41 -37.5 81t-68.5 54q-59 20 -120 -1t-108 -62q-12 -2 -24.5 -5.5t-22.5 -11.5q-66 -47 -116 -112.5t-81 -137.5q-29 -82 -11 -171zM260 141q-16 86 5.5 163t53.5 149q27 16 32 44.5t20 55.5 q14 43 43.5 87t77.5 52q29 4 46 -15.5t29 -39.5q10 -23 18.5 -46t12.5 -46q-16 -53 -38.5 -103.5t-43.5 -103.5q-35 -55 -72.5 -111.5t-93.5 -101.5q-14 -10 -28.5 -17.5t-30.5 -3.5q-16 0 -21.5 13.5t-9.5 23.5zM395 920q4 -16 18.5 -20.5t26.5 -6.5q96 10 178 54t152 112 q12 12 26.5 19t28 16.5t23.5 22t10 30.5q-23 20 -52.5 16t-55.5 -14q-23 0 -40.5 10t-39.5 0q-27 -10 -28 -33.5t-11 -44.5q-47 -59 -108.5 -99t-127.5 -62z" />
<glyph unicode="&#xe2;" horiz-adv-x="983" d="M52 271q18 -89 77 -150q14 -39 41 -73t68 -52q23 -4 51 -4q31 0 53 22q57 47 103.5 102.5t80.5 119.5q-6 -61 12.5 -118t55.5 -104q16 -14 40.5 -19t47.5 7q78 35 145.5 93.5t114.5 133.5q25 35 48.5 71t33.5 77q4 23 9 43t1 43q-23 -8 -33 -31.5t-26 -40.5 q-43 -74 -101.5 -143.5t-130.5 -122.5q-12 -4 -24 -12.5t-24.5 -13.5t-26.5 -5q-12 0 -25 10q-10 4 -13 13.5t-3 17.5q-6 27 5 45.5t29.5 33.5t38 29.5t29.5 35.5q20 45 35.5 93t30 96t34 94t50.5 89q12 18 28.5 30.5t32.5 33.5q6 18 20.5 35.5t4.5 40.5l-15 14 q-27 4 -53.5 0t-50.5 -10q-20 -8 -40 -4t-38 7t-36.5 0t-33.5 -22l-57 -139q-14 41 -37.5 81t-68.5 54q-59 20 -120 -1t-108 -62q-12 -2 -24.5 -5.5t-22.5 -11.5q-66 -47 -116 -112.5t-81 -137.5q-29 -82 -11 -171zM197 913q23 -14 49 -10t49 8q72 23 137.5 66t112.5 110 l2 3q23 -29 47 -59t65 -30q41 -43 91.5 -69.5t109.5 -24.5l13.5 4.5t7.5 10.5q-31 29 -66 51t-57 57q-14 12 -21.5 27.5t-12.5 32t-12 33t-20 30.5q-4 16 -6 34.5t-16 31.5q-27 18 -55.5 5.5t-51.5 -30.5h-10q-23 10 -45.5 18.5t-44.5 4.5q-25 -10 -33 -33q4 -29 -7 -54.5 t-30 -48.5q-41 -47 -91 -90t-105 -69v-9zM260 141q-16 86 5.5 163t53.5 149q27 16 32 44.5t20 55.5q14 43 43.5 87t77.5 52q29 4 46 -15.5t29 -39.5q10 -23 18.5 -46t12.5 -46q-16 -53 -38.5 -103.5t-43.5 -103.5q-35 -55 -72.5 -111.5t-93.5 -101.5q-14 -10 -28.5 -17.5 t-30.5 -3.5q-16 0 -21.5 13.5t-9.5 23.5z" />
<glyph unicode="&#xe4;" horiz-adv-x="976" d="M30 311q3 -43 17 -84t41 -71q18 -12 28.5 -29.5t19.5 -37t20.5 -38t31.5 -31.5q27 -16 59 -30.5t62 8.5q37 23 61.5 52.5t47 62t45 64.5t53.5 61h2q-4 -23 -7 -48.5t3 -48.5q10 -23 21.5 -48t27 -47.5t37 -37t51.5 -14.5q63 29 123 67.5t109 98.5q20 20 29.5 50t39.5 46 q25 18 39.5 43t21.5 51.5t10 54t7 56.5q-35 -14 -58.5 -46t-35.5 -65q-37 -41 -72 -84t-63 -90q-35 -29 -74 -52.5t-86 -25.5q-14 4 -19.5 13.5t-7.5 20.5t-2 24q0 14 -2 24q16 23 36 37t42 31q43 45 55.5 104.5t30.5 118.5l86 184q31 29 62.5 62t31.5 76l-6 10 q-20 8 -38.5 6t-37 -7t-37 -10.5t-38.5 -0.5q-23 16 -49 16q-27 0 -52 -10q-10 -41 -29.5 -81t-35.5 -81q-20 41 -46 82t-73 55q-59 10 -110.5 -8.5t-94.5 -52.5q-41 -10 -76.5 -35t-66.5 -57.5t-56.5 -70.5t-44.5 -75q-18 -35 -27 -77t-6 -85zM238 211q8 63 18 123.5 t39 114.5q25 18 36 42.5t20 50t19.5 51t32.5 46.5q10 12 21.5 24.5t24 20.5t26.5 11t31 -5l31 -24q25 -27 34 -59.5t17 -67.5q-12 -53 -36 -104.5t-46 -102.5q-31 -25 -54.5 -54.5t-46 -60.5t-45 -60.5t-53.5 -54.5q-8 -6 -20 -6q-10 0 -21 2q-27 23 -27.5 51.5t-0.5 61.5z M440 985.5q-2 -22.5 9 -45.5q14 -25 40.5 -31t51.5 -2q33 10 63.5 35t46.5 59q6 16 1 32t7 26q14 18 7 39.5t-15 38.5q-10 12 -22.5 26.5t-28.5 5.5q-14 -2 -26.5 -9t-22.5 -17t-21.5 -19.5t-23.5 -15.5q-14 -18 -28.5 -37.5t-25 -41t-12.5 -44zM743 1016q6 -16 11.5 -33.5 t17.5 -34.5q14 -10 29.5 -15t34.5 -1q37 10 71.5 39.5t42.5 70.5q2 12 9.5 25.5t11.5 27t3 27t-11 25.5q-16 12 -35 20.5t-41 1.5q-25 -10 -49.5 -22t-46.5 -29q-14 -27 -27.5 -50.5t-20.5 -51.5z" />
<glyph unicode="&#xe7;" horiz-adv-x="747" d="M33 407.5q-4 -30.5 8 -61.5q2 -57 20.5 -106.5t47.5 -96.5q31 -25 53 -58.5t47 -66.5q29 -20 62.5 -12t64.5 12q125 39 240.5 111t201.5 188q23 39 44.5 77t25.5 83q-41 -39 -76 -84t-82 -84q-141 -147 -328 -209q-25 -2 -52 -12t-52 8q-14 16 -10 41q16 55 29.5 110.5 t17.5 114.5q31 59 54.5 123t60.5 123q31 27 53 58.5t55 56.5q29 0 53.5 7t53.5 7q18 -23 20 -54.5t0 -59.5q0 -20 17 -21q31 -4 49 12q25 41 16.5 91.5t-25.5 91.5q-8 12 -19 16t-25.5 3t-28 -5t-25.5 -6q-88 18 -179 -0.5t-159 -75.5q-53 -20 -88 -66.5t-67 -89.5 q-14 -25 -32 -52t-30 -55t-16 -58.5zM84 -229q0 -29 46 -47.5t114 -18.5q104 0 161.5 28.5t57.5 86.5q0 61 -47 89t-109 28q-10 0 -23.5 -1.5t-31.5 -1.5l41 107h-62q-4 -10 -12 -28.5t-16 -40t-15.5 -40t-7.5 -24.5q0 -27 29 -27q68 0 94.5 -14t26.5 -41q0 -29 -18.5 -44 t-65.5 -15q-35 0 -55.5 5t-35 12t-23.5 12t-19 5q-29 0 -29 -30z" />
<glyph unicode="&#xe8;" horiz-adv-x="692" d="M39 355.5q8 -56.5 8 -115.5q18 -25 30.5 -50.5t26 -52t31 -50.5t45.5 -42q2 -10 8.5 -17.5t14.5 -13.5q35 -18 71.5 -28.5t77.5 0.5q43 23 85 54.5t77 68.5q25 14 48.5 31.5t41.5 41.5q20 31 46 61.5t48.5 62.5t39 67t18.5 76q0 10 -11 6q-57 -78 -121.5 -142.5 t-131.5 -138.5l-25 -12q-39 -33 -80 -60.5t-90 -38.5q-20 4 -31.5 23.5t-19.5 40.5q-10 27 -8 53.5t9 51t15 49t12 49.5q35 33 78 50t90 13q47 -8 87 10.5t71 57.5q47 29 77 76t38 100q-10 33 -26.5 61.5t-47.5 44.5q-47 10 -89 26.5t-91 6.5q-53 -23 -107.5 -41t-103.5 -47 q-29 -23 -60.5 -46.5t-61.5 -50t-53.5 -56t-33.5 -66.5q-10 -57 -2 -113.5zM162 1223q-6 -20 2 -36t20 -32q41 -43 86 -86t95 -74q23 -10 46 -23.5t46.5 -22.5t48 -14t51.5 -1l2 6q-27 23 -55.5 44.5t-56 44t-52 49t-43.5 57.5q-2 10 0 21t3 21.5t-2 20.5t-15 16 q-45 16 -90 0q-20 4 -42 14.5t-44 -5.5zM311 449q16 45 37 90t68 67q4 4 5 6t7 6q0 10 6 21.5t10 22.5q4 20 22.5 27t35.5 11q37 -2 71.5 -11t57.5 -38q4 -23 -2 -43t-19.5 -38.5t-30 -34t-30.5 -29.5q-16 -16 -36.5 -24.5t-39.5 -18.5q-43 4 -83 -1t-79 -13z" />
<glyph unicode="&#xe9;" horiz-adv-x="692" d="M39 355.5q8 -56.5 8 -115.5q18 -25 30.5 -50.5t26 -52t31 -50.5t45.5 -42q2 -10 8.5 -17.5t14.5 -13.5q35 -18 71.5 -28.5t77.5 0.5q43 23 85 54.5t77 68.5q25 14 48.5 31.5t41.5 41.5q20 31 46 61.5t48.5 62.5t39 67t18.5 76q0 10 -11 6q-57 -78 -121.5 -142.5 t-131.5 -138.5l-25 -12q-39 -33 -80 -60.5t-90 -38.5q-20 4 -31.5 23.5t-19.5 40.5q-10 27 -8 53.5t9 51t15 49t12 49.5q35 33 78 50t90 13q47 -8 87 10.5t71 57.5q47 29 77 76t38 100q-10 33 -26.5 61.5t-47.5 44.5q-47 10 -89 26.5t-91 6.5q-53 -23 -107.5 -41t-103.5 -47 q-29 -23 -60.5 -46.5t-61.5 -50t-53.5 -56t-33.5 -66.5q-10 -57 -2 -113.5zM236 920q2 -16 17 -20.5t28 -6.5q96 10 178 54t149 112q12 12 27.5 19t29 16.5t23.5 22t10 30.5q-23 20 -52.5 16t-55.5 -14q-23 0 -40.5 10t-39.5 0q-27 -10 -28 -33.5t-11 -44.5 q-47 -59 -108.5 -99t-126.5 -62zM311 449q16 45 37 90t68 67q4 4 5 6t7 6q0 10 6 21.5t10 22.5q4 20 22.5 27t35.5 11q37 -2 71.5 -11t57.5 -38q4 -23 -2 -43t-19.5 -38.5t-30 -34t-30.5 -29.5q-16 -16 -36.5 -24.5t-39.5 -18.5q-43 4 -83 -1t-79 -13z" />
<glyph unicode="&#xea;" horiz-adv-x="692" d="M39 355.5q8 -56.5 8 -115.5q18 -25 30.5 -50.5t26 -52t31 -50.5t45.5 -42q2 -10 8.5 -17.5t14.5 -13.5q35 -18 71.5 -28.5t77.5 0.5q43 23 85 54.5t77 68.5q25 14 48.5 31.5t41.5 41.5q20 31 46 61.5t48.5 62.5t39 67t18.5 76q0 10 -11 6q-57 -78 -121.5 -142.5 t-131.5 -138.5l-25 -12q-39 -33 -80 -60.5t-90 -38.5q-20 4 -31.5 23.5t-19.5 40.5q-10 27 -8 53.5t9 51t15 49t12 49.5q35 33 78 50t90 13q47 -8 87 10.5t71 57.5q47 29 77 76t38 100q-10 33 -26.5 61.5t-47.5 44.5q-47 10 -89 26.5t-91 6.5q-53 -23 -107.5 -41t-103.5 -47 q-29 -23 -60.5 -46.5t-61.5 -50t-53.5 -56t-33.5 -66.5q-10 -57 -2 -113.5zM51 907q23 -16 49.5 -12t49.5 10q72 20 137 64.5t112 109.5l4 2q20 -29 45 -57.5t66 -28.5q43 -43 92 -70.5t109 -25.5q6 2 13 5t7 9q-31 29 -65.5 52.5t-57.5 58.5q-14 12 -21 26.5t-12.5 31 t-12.5 32.5t-19 31q-4 16 -5 34.5t-18 30.5q-25 18 -54.5 6t-51.5 -28h-10q-23 10 -44.5 18t-46.5 2q-23 -10 -32 -32q4 -29 -7.5 -53.5t-29.5 -47.5q-41 -49 -90 -92t-107 -70v-6zM311 449q16 45 37 90t68 67q4 4 5 6t7 6q0 10 6 21.5t10 22.5q4 20 22.5 27t35.5 11 q37 -2 71.5 -11t57.5 -38q4 -23 -2 -43t-19.5 -38.5t-30 -34t-30.5 -29.5q-16 -16 -36.5 -24.5t-39.5 -18.5q-43 4 -83 -1t-79 -13z" />
<glyph unicode="&#xeb;" horiz-adv-x="692" d="M39 355.5q8 -56.5 8 -115.5q18 -25 30.5 -50.5t26 -52t31 -50.5t45.5 -42q2 -10 8.5 -17.5t14.5 -13.5q35 -18 71.5 -28.5t77.5 0.5q43 23 85 54.5t77 68.5q25 14 48.5 31.5t41.5 41.5q20 31 46 61.5t48.5 62.5t39 67t18.5 76q0 10 -11 6q-57 -78 -121.5 -142.5 t-131.5 -138.5l-25 -12q-39 -33 -80 -60.5t-90 -38.5q-20 4 -31.5 23.5t-19.5 40.5q-10 27 -8 53.5t9 51t15 49t12 49.5q35 33 78 50t90 13q47 -8 87 10.5t71 57.5q47 29 77 76t38 100q-10 33 -26.5 61.5t-47.5 44.5q-47 10 -89 26.5t-91 6.5q-53 -23 -107.5 -41t-103.5 -47 q-29 -23 -60.5 -46.5t-61.5 -50t-53.5 -56t-33.5 -66.5q-10 -57 -2 -113.5zM188 985.5q-2 -22.5 9 -45.5q14 -25 40.5 -31t51.5 -2q33 10 63.5 35t46.5 59q6 16 1.5 32t7.5 26q14 18 7 39.5t-16 38.5q-10 12 -22 26.5t-29 5.5q-14 -2 -26.5 -9t-22.5 -17t-21.5 -19.5 t-23.5 -15.5q-14 -18 -28.5 -37.5t-25 -41t-12.5 -44zM311 449q16 45 37 90t68 67q4 4 5 6t7 6q0 10 6 21.5t10 22.5q4 20 22.5 27t35.5 11q37 -2 71.5 -11t57.5 -38q4 -23 -2 -43t-19.5 -38.5t-30 -34t-30.5 -29.5q-16 -16 -36.5 -24.5t-39.5 -18.5q-43 4 -83 -1t-79 -13z M492 1016q6 -16 11 -33.5t17 -34.5q14 -10 29.5 -15t34.5 -1q37 10 71.5 39.5t42.5 70.5q2 12 9.5 25.5t11.5 27t3 27t-11 25.5q-16 12 -35 20.5t-41 1.5q-25 -10 -49.5 -22t-46.5 -29q-14 -27 -27.5 -50.5t-19.5 -51.5z" />
<glyph unicode="&#xee;" horiz-adv-x="518" d="M-47 885q23 -16 48.5 -12t47.5 10q74 20 138.5 64t111.5 110l4 2q20 -29 45 -58.5t66 -29.5q43 -43 93 -70t109 -24q6 2 12.5 5t6.5 9q-29 29 -63.5 51.5t-57.5 56.5q-14 12 -21.5 27.5t-12.5 32t-12 33t-19 30.5q-4 16 -6.5 35t-16.5 31q-27 18 -55.5 6t-51.5 -29h-10 q-23 10 -45 17.5t-47 3.5q-23 -10 -33 -33q4 -29 -6 -54.5t-28 -45.5q-41 -49 -91.5 -92t-105.5 -70v-6zM32.5 273q4.5 -42 10.5 -85q4 -20 12 -41.5t33 -25.5q14 -23 28.5 -48.5t32 -48t40 -38t53.5 -15.5q23 6 42 11.5t35 19.5q66 70 129.5 134.5t112.5 144.5 q16 41 29.5 81t17.5 87q-2 4 -3 2t-3 -2q-61 -90 -127.5 -176.5t-146.5 -163.5q-14 -14 -29.5 -27.5t-36.5 -18.5q-18 0 -30.5 14.5t-20.5 26.5q-12 18 -13 38t3 40.5t12 40t12 37.5q35 37 54.5 81t33 91t24.5 94t30 92q6 18 20 31t28.5 25t25 25.5t10.5 35.5 q-8 12 -11.5 28.5t-21.5 16.5q-25 -8 -48.5 -17t-47.5 -15q-25 -4 -47.5 1t-47.5 3q-53 -41 -74.5 -95.5t-48.5 -107.5q-6 -51 -20 -99.5t-29 -97.5q-27 -37 -22.5 -79z" />
<glyph unicode="&#xef;" horiz-adv-x="518" d="M32.5 273q4.5 -42 10.5 -85q4 -20 12 -41.5t33 -25.5q14 -23 28.5 -48.5t32 -48t40 -38t53.5 -15.5q23 6 42 11.5t35 19.5q66 70 129.5 134.5t112.5 144.5q16 41 29.5 81t17.5 87q-2 4 -3 2t-3 -2q-61 -90 -127.5 -176.5t-146.5 -163.5q-14 -14 -29.5 -27.5t-36.5 -18.5 q-18 0 -30.5 14.5t-20.5 26.5q-12 18 -13 38t3 40.5t12 40t12 37.5q35 37 54.5 81t33 91t24.5 94t30 92q6 18 20 31t28.5 25t25 25.5t10.5 35.5q-8 12 -11.5 28.5t-21.5 16.5q-25 -8 -48.5 -17t-47.5 -15q-25 -4 -47.5 1t-47.5 3q-53 -41 -74.5 -95.5t-48.5 -107.5 q-6 -51 -20 -99.5t-29 -97.5q-27 -37 -22.5 -79zM96 985.5q-2 -22.5 8 -45.5q16 -25 42 -31t51 -2q33 10 64.5 35t45.5 59q8 16 2 32t8 26q12 18 6 39.5t-16 38.5q-10 12 -22.5 26.5t-28.5 5.5q-14 -2 -26.5 -9t-22.5 -17t-21.5 -19.5t-23.5 -15.5q-12 -18 -27.5 -37.5 t-26 -41t-12.5 -44zM399 1016q6 -16 11.5 -33.5t19.5 -34.5q12 -10 27.5 -15t34.5 -1q39 10 73.5 39.5t40.5 70.5q2 12 9.5 25.5t11.5 27t2.5 27t-11.5 25.5q-16 12 -33.5 20.5t-39.5 1.5q-55 -23 -99 -51q-12 -27 -26 -50.5t-21 -51.5z" />
<glyph unicode="&#xf1;" horiz-adv-x="1046" d="M4 4q0 -16 12 -22q27 -16 47.5 -1t42.5 23q20 12 43 15.5t46 3.5q25 0 49 -1.5t49 3.5q16 14 15 33.5t3 39.5q8 41 25.5 75t30.5 71q23 39 43 80t41.5 80.5t48 76.5t63.5 72q18 16 42 26.5t30 36.5l61 39q35 14 74 28.5t74 0.5q-23 -23 -42.5 -45.5t-39.5 -44.5 q-37 -53 -76 -103.5t-65 -109.5q-20 -66 -23.5 -138.5t14.5 -142.5q6 -20 22.5 -33.5t33.5 -23.5q12 -16 21 -36.5t36 -22.5q49 0 90 21.5t76 54t67.5 71.5t65.5 70q115 108 127 258l-6 4q-53 -84 -115.5 -158t-140.5 -145q-31 -25 -60.5 -55.5t-68.5 -34.5l-7 7t-5 7 q-6 10 -7 25q0 16 4 28q45 90 101.5 174t114.5 166q16 29 30.5 59.5t9.5 67.5q-4 39 -21 77t-58 48q-2 10 -6.5 23.5t-14.5 19.5q-49 8 -93 1t-86 -24.5t-81 -41t-76 -48.5q-10 23 -5 46.5t1 46.5q-8 12 -20.5 16t-25.5 6t-26.5 1t-25.5 1q-12 -2 -20.5 -11t-20.5 -9 q-86 -57 -170 -128t-148 -159q-8 -14 -15 -37.5t-11 -40t-4 -18.5q39 35 74.5 68.5t80.5 68.5q14 10 30.5 24.5t35.5 20.5q-16 -35 -33.5 -68.5t-36.5 -68.5q-6 -6 -4 -10.5t-6 -8.5q-33 -63 -63.5 -126.5t-73.5 -122.5q-18 -39 -43 -72t-31 -74zM156 1047l75 -148 q25 43 65 81t107 38q70 0 128.5 -17.5t105.5 -39.5q53 -23 103.5 -39.5t107.5 -16.5q47 0 84 12.5t67.5 32t56 45t48.5 52.5l-76 147q-35 -43 -76 -80t-102 -37q-41 0 -97.5 18.5t-113.5 39.5q-59 23 -116.5 38t-110.5 15q-51 0 -91 -12.5t-71 -33t-53.5 -45t-40.5 -50.5z " />
<glyph unicode="&#xf2;" horiz-adv-x="702" d="M24.5 334q-10.5 -64 14.5 -123q23 -23 37 -52.5t27.5 -57t34 -52t55.5 -39.5q27 -16 53 -16q27 0 52.5 8t50 22.5t46.5 26.5q76 59 144.5 137t103.5 168q35 -4 74 0t71 23q16 10 29.5 25.5t24.5 29.5q4 10 9 20.5t5 20.5q-41 -16 -86 -27.5t-86 -9.5l-12 6q14 29 19 60 t16 61q6 37 7 78t-20 74q-25 23 -61 16l-21 25q-14 12 -35.5 15t-37.5 -5q-27 8 -58.5 9t-60.5 -3q-51 -23 -102.5 -41t-96.5 -55q-53 -51 -101 -104.5t-71 -118.5q-14 -57 -24.5 -121zM201 1223q-8 -20 1 -36t21 -32q41 -43 86 -86t94 -74q23 -10 45.5 -23.5t46 -22.5 t49 -14t52.5 -1l2 6q-27 23 -56.5 44.5t-57 44t-52 49t-41.5 57.5q-4 10 -2 21t3 21.5t-1 20.5t-14 16q-45 16 -90 0q-20 4 -42 14.5t-44 -5.5zM248 106q0 12 2 21l2 68q16 20 21.5 42.5t9.5 45.5q35 186 129 338q12 16 25.5 29.5t33.5 15.5q-25 -68 -10.5 -142.5 t67.5 -126.5q2 -8 9.5 -12t13.5 -9t8 -10.5t-6 -15.5q-35 -78 -97.5 -141.5t-136.5 -106.5q-16 -4 -30.5 -14t-32.5 0q-8 8 -8 18zM545 555q-4 55 22 100q8 8 15 11q14 -4 25.5 -10.5t15.5 -22.5q8 -41 -3.5 -82t-21.5 -78q-23 12 -36 35.5t-17 46.5z" />
<glyph unicode="&#xf3;" horiz-adv-x="702" d="M24.5 334q-10.5 -64 14.5 -123q23 -23 37 -52.5t27.5 -57t34 -52t55.5 -39.5q27 -16 53 -16q27 0 52.5 8t50 22.5t46.5 26.5q76 59 144.5 137t103.5 168q35 -4 74 0t71 23q16 10 29.5 25.5t24.5 29.5q4 10 9 20.5t5 20.5q-41 -16 -86 -27.5t-86 -9.5l-12 6q14 29 19 60 t16 61q6 37 7 78t-20 74q-25 23 -61 16l-21 25q-14 12 -35.5 15t-37.5 -5q-27 8 -58.5 9t-60.5 -3q-51 -23 -102.5 -41t-96.5 -55q-53 -51 -101 -104.5t-71 -118.5q-14 -57 -24.5 -121zM248 106q0 12 2 21l2 68q16 20 21.5 42.5t9.5 45.5q35 186 129 338q12 16 25.5 29.5 t33.5 15.5q-25 -68 -10.5 -142.5t67.5 -126.5q2 -8 9.5 -12t13.5 -9t8 -10.5t-6 -15.5q-35 -78 -97.5 -141.5t-136.5 -106.5q-16 -4 -30.5 -14t-32.5 0q-8 8 -8 18zM250 920q4 -16 18.5 -20.5t26.5 -6.5q96 10 178 54t152 112q12 12 27.5 19t28.5 16.5t23.5 22t10.5 30.5 q-23 20 -53.5 16t-57.5 -14q-23 0 -40 10t-40 0q-25 -10 -26.5 -33.5t-10.5 -44.5q-49 -59 -110.5 -99t-126.5 -62zM545 555q-4 55 22 100q8 8 15 11q14 -4 25.5 -10.5t15.5 -22.5q8 -41 -3.5 -82t-21.5 -78q-23 12 -36 35.5t-17 46.5z" />
<glyph unicode="&#xf4;" horiz-adv-x="702" d="M24.5 334q-10.5 -64 14.5 -123q23 -23 37 -52.5t27.5 -57t34 -52t55.5 -39.5q27 -16 53 -16q27 0 52.5 8t50 22.5t46.5 26.5q76 59 144.5 137t103.5 168q35 -4 74 0t71 23q16 10 29.5 25.5t24.5 29.5q4 10 9 20.5t5 20.5q-41 -16 -86 -27.5t-86 -9.5l-12 6q14 29 19 60 t16 61q6 37 7 78t-20 74q-25 23 -61 16l-21 25q-14 12 -35.5 15t-37.5 -5q-27 8 -58.5 9t-60.5 -3q-51 -23 -102.5 -41t-96.5 -55q-53 -51 -101 -104.5t-71 -118.5q-14 -57 -24.5 -121zM51 907q23 -16 49.5 -12t49.5 10q72 20 137 64.5t112 109.5l4 2q20 -29 45 -57.5 t66 -28.5q43 -43 92 -70.5t109 -25.5q6 2 13 5t7 9q-31 29 -65.5 52.5t-57.5 58.5q-14 12 -21 26.5t-12.5 31t-12.5 32.5t-19 31q-4 16 -5 34.5t-18 30.5q-25 18 -54.5 6t-51.5 -28h-10q-23 10 -44.5 18t-46.5 2q-23 -10 -32 -32q4 -29 -7.5 -53.5t-29.5 -47.5 q-41 -49 -90 -92t-107 -70v-6zM248 106q0 12 2 21l2 68q16 20 21.5 42.5t9.5 45.5q35 186 129 338q12 16 25.5 29.5t33.5 15.5q-25 -68 -10.5 -142.5t67.5 -126.5q2 -8 9.5 -12t13.5 -9t8 -10.5t-6 -15.5q-35 -78 -97.5 -141.5t-136.5 -106.5q-16 -4 -30.5 -14t-32.5 0 q-8 8 -8 18zM545 555q-4 55 22 100q8 8 15 11q14 -4 25.5 -10.5t15.5 -22.5q8 -41 -3.5 -82t-21.5 -78q-23 12 -36 35.5t-17 46.5z" />
<glyph unicode="&#xf6;" horiz-adv-x="694" d="M20 317q-10 -45 8.5 -83.5t51.5 -71.5q14 -35 25.5 -68t44.5 -61q31 -12 65.5 -26.5t69.5 3.5q55 35 112.5 64.5t104.5 81.5q27 20 44 45.5t30.5 53.5t25.5 56.5t29 55.5l6 2q23 -10 50.5 -7t51.5 7q37 12 70 42.5t43 71.5q-25 0 -48.5 -9t-46 -18.5t-45 -13.5t-48.5 7 q18 41 26 86t19 90q4 29 0 61.5t-33 50.5q-29 10 -55 -2l-17 33q-10 4 -21.5 8t-25.5 0l-25 -8q-35 16 -75.5 10t-73.5 -24q-66 -10 -123 -46t-106 -90q-66 -61 -92.5 -138t-41.5 -163zM229 150q0 18 8.5 34.5t17.5 31.5t15 31.5t4 39.5q12 111 46 210t114 177q8 4 15.5 9 t15.5 7l-4 -10q-6 -37 -11.5 -78t3.5 -82q20 -35 42.5 -72.5t61.5 -66.5q-25 -53 -57.5 -105.5t-75.5 -97.5q-43 -23 -83 -50.5t-85 -43.5q-25 2 -24 24.5t-3 41.5zM287 981q4 -14 12 -26.5t23 -18.5q14 -4 29.5 -10t31.5 6q23 12 48.5 18t41.5 35q16 35 35.5 72t11.5 80 q-18 29 -53 25.5t-61 -9.5q-37 -10 -57.5 -42t-47.5 -56q-6 -16 -11 -35t-3 -39zM535 573q2 25 8 48.5t20 46.5q12 10 27.5 5.5t21.5 -20.5q14 -35 6 -75.5t-12 -75.5l-10 -37q-25 20 -44.5 47t-16.5 61zM600 997q6 -18 22.5 -29.5t32.5 -21.5q23 -6 40.5 2t33.5 15 q16 8 26.5 22t18.5 30.5t17.5 32t25.5 27.5q10 18 8 43t-12 41.5t-25.5 22.5t-29.5 -4q-29 10 -51.5 -4.5t-44.5 -30.5q-2 -12 -13.5 -16.5t-21.5 -14.5q-33 -53 -27 -115z" />
<glyph unicode="&#xf9;" horiz-adv-x="878" d="M25 195q23 -47 36 -96.5t45 -90.5q16 -16 35 -21t39 -10q8 2 17.5 6.5t13.5 12.5q29 10 54.5 28.5t56.5 26.5q45 27 89 58.5t78 74.5q4 -16 11.5 -28.5t13.5 -26.5q2 -29 16.5 -47.5t36 -32.5t46 -24.5t44.5 -20.5q23 -6 41.5 4t32.5 27q33 41 69 80t64 82 q47 57 76 121.5t29 142.5q-53 -90 -124 -176t-149 -162l-12 -4q-14 -2 -27 10q-10 29 7.5 47.5t25.5 38.5q27 111 71 211t79 207q29 25 41 58.5t2 70.5l-11 12q-23 12 -46 10t-44 -12q-16 -6 -31.5 -3t-32 6t-30.5 2t-26 -15q-35 -41 -56.5 -90t-40.5 -97q-12 -47 -30.5 -89 t-30.5 -87q-8 -18 -12.5 -38.5t-9.5 -41t-14 -39t-28 -32.5q-37 -49 -86 -84t-106 -49q-10 -4 -23.5 -5t-23.5 5q-10 10 -9 20t6 19.5t11 18.5t8 20q23 76 40 151.5t42 147.5q6 27 19.5 49t31 42.5t35.5 42t31 44.5q8 25 -6 51q-12 27 -31 31t-41.5 -1.5t-46 -13.5t-43.5 -4 q-10 -4 -17.5 1t-14.5 9.5t-14 7.5t-18 -3q-37 -23 -37 -70q-29 -51 -47 -103.5t-34 -107.5q-16 -66 -35 -132.5t-6 -139.5zM346 1187q8 -16 23 -32q41 -43 86 -86t92 -74q23 -10 46 -23.5t47 -22.5t49.5 -14t51.5 -1l2 6q-27 23 -56.5 44.5t-57 44t-52 49t-40.5 57.5 q-6 20 1 42.5t-18 36.5q-45 16 -88 0q-20 4 -41.5 14.5t-44.5 -5.5q-8 -20 0 -36z" />
<glyph unicode="&#xfa;" horiz-adv-x="878" d="M25 195q23 -47 36 -96.5t45 -90.5q16 -16 35 -21t39 -10q8 2 17.5 6.5t13.5 12.5q29 10 54.5 28.5t56.5 26.5q45 27 89 58.5t78 74.5q4 -16 11.5 -28.5t13.5 -26.5q2 -29 16.5 -47.5t36 -32.5t46 -24.5t44.5 -20.5q23 -6 41.5 4t32.5 27q33 41 69 80t64 82 q47 57 76 121.5t29 142.5q-53 -90 -124 -176t-149 -162l-12 -4q-14 -2 -27 10q-10 29 7.5 47.5t25.5 38.5q27 111 71 211t79 207q29 25 41 58.5t2 70.5l-11 12q-23 12 -46 10t-44 -12q-16 -6 -31.5 -3t-32 6t-30.5 2t-26 -15q-35 -41 -56.5 -90t-40.5 -97q-12 -47 -30.5 -89 t-30.5 -87q-8 -18 -12.5 -38.5t-9.5 -41t-14 -39t-28 -32.5q-37 -49 -86 -84t-106 -49q-10 -4 -23.5 -5t-23.5 5q-10 10 -9 20t6 19.5t11 18.5t8 20q23 76 40 151.5t42 147.5q6 27 19.5 49t31 42.5t35.5 42t31 44.5q8 25 -6 51q-12 27 -31 31t-41.5 -1.5t-46 -13.5t-43.5 -4 q-10 -4 -17.5 1t-14.5 9.5t-14 7.5t-18 -3q-37 -23 -37 -70q-29 -51 -47 -103.5t-34 -107.5q-16 -66 -35 -132.5t-6 -139.5zM395 920q4 -16 18.5 -20.5t26.5 -6.5q96 10 178 54t152 112q12 12 26.5 19t28 16.5t23.5 22t10 30.5q-23 20 -52.5 16t-55.5 -14q-23 0 -40.5 10 t-39.5 0q-27 -10 -28 -33.5t-11 -44.5q-47 -59 -108.5 -99t-127.5 -62z" />
<glyph unicode="&#xfb;" horiz-adv-x="878" d="M25 195q23 -47 36 -96.5t45 -90.5q16 -16 35 -21t39 -10q8 2 17.5 6.5t13.5 12.5q29 10 54.5 28.5t56.5 26.5q45 27 89 58.5t78 74.5q4 -16 11.5 -28.5t13.5 -26.5q2 -29 16.5 -47.5t36 -32.5t46 -24.5t44.5 -20.5q23 -6 41.5 4t32.5 27q33 41 69 80t64 82 q47 57 76 121.5t29 142.5q-53 -90 -124 -176t-149 -162l-12 -4q-14 -2 -27 10q-10 29 7.5 47.5t25.5 38.5q27 111 71 211t79 207q29 25 41 58.5t2 70.5l-11 12q-23 12 -46 10t-44 -12q-16 -6 -31.5 -3t-32 6t-30.5 2t-26 -15q-35 -41 -56.5 -90t-40.5 -97q-12 -47 -30.5 -89 t-30.5 -87q-8 -18 -12.5 -38.5t-9.5 -41t-14 -39t-28 -32.5q-37 -49 -86 -84t-106 -49q-10 -4 -23.5 -5t-23.5 5q-10 10 -9 20t6 19.5t11 18.5t8 20q23 76 40 151.5t42 147.5q6 27 19.5 49t31 42.5t35.5 42t31 44.5q8 25 -6 51q-12 27 -31 31t-41.5 -1.5t-46 -13.5t-43.5 -4 q-10 -4 -17.5 1t-14.5 9.5t-14 7.5t-18 -3q-37 -23 -37 -70q-29 -51 -47 -103.5t-34 -107.5q-16 -66 -35 -132.5t-6 -139.5zM197 913q23 -14 49 -10t49 8q72 23 137.5 66t112.5 110l2 3q23 -29 47 -59t65 -30q41 -43 91.5 -69.5t109.5 -24.5l13.5 4.5t7.5 10.5 q-31 29 -66 51t-57 57q-14 12 -21.5 27.5t-12.5 32t-12 33t-20 30.5q-4 16 -6 34.5t-16 31.5q-27 18 -55.5 5.5t-51.5 -30.5h-10q-23 10 -45.5 18.5t-44.5 4.5q-25 -10 -33 -33q4 -29 -7 -54.5t-30 -48.5q-41 -47 -91 -90t-105 -69v-9z" />
<glyph unicode="&#xfc;" horiz-adv-x="976" d="M25 188q14 -35 20 -71.5t16 -75.5q10 -16 26.5 -31.5t35 -21.5t33 -3t28 12t24.5 21.5t23 22.5q47 8 87 29.5t75 56.5q45 31 73 73t69 76l2 -2q-4 -47 11 -89t13 -89q10 -16 15.5 -31.5t17.5 -29.5q20 -14 41.5 -23.5t46.5 -9.5q29 10 57.5 21.5t59.5 17.5l75 55 q25 18 43.5 41t37 47.5t37 47t42.5 40.5q35 39 50.5 87.5t23.5 99.5l-4 10q-47 -18 -69.5 -62.5t-49.5 -80.5q-39 -31 -67.5 -71t-57.5 -77q-29 -31 -66.5 -53.5t-78.5 -3.5v43q0 23 4 43q43 154 98 307q16 33 35.5 64.5t26.5 68.5q18 27 32.5 52.5t16.5 54.5q-6 16 -21 20 q-61 -14 -127 -20q-18 -6 -37.5 -8.5t-42.5 -4.5q-23 -6 -23.5 -25.5t-6.5 -35.5q-12 -23 -24.5 -43.5t-22.5 -42.5q-16 -41 -28.5 -82t-25.5 -84q-35 -29 -60.5 -64.5t-53.5 -68.5q-33 -47 -75 -78t-83 -61q-12 -10 -25.5 -13.5t-29.5 7.5q-16 4 -13.5 17t4.5 21q6 20 3 45 t22 37q16 98 46 187.5t79 175.5q8 18 21.5 34.5t24.5 33t16.5 36t-3.5 41.5q-45 0 -88 -6q-12 0 -23.5 -6t-23.5 -11t-23.5 -4t-21.5 13q-23 6 -40 -5t-36 -18q-41 -72 -65.5 -148.5t-40.5 -156.5q-6 -31 -17.5 -60.5t-20.5 -59t-15.5 -61.5t-1.5 -67zM383 969 q16 -27 41 -32t47 -9q39 8 71.5 32.5t43.5 63.5q8 23 2 42.5t10 35.5q4 20 -3 37.5t-20 34.5q-10 12 -25 15t-30 -3q-31 -25 -66.5 -46.5t-45.5 -62.5q-6 -29 -20.5 -53.5t-4.5 -54.5zM702 1016q-6 -20 2.5 -31.5t21.5 -19t28.5 -12.5t25.5 -13q66 -10 101 39q16 39 35.5 77 t23.5 81q-20 33 -53 45q-25 10 -48.5 -1.5t-45.5 -27.5q-45 -16 -62.5 -57t-28.5 -80z" />
<glyph unicode="&#x2000;" horiz-adv-x="752" />
<glyph unicode="&#x2001;" horiz-adv-x="1504" />
<glyph unicode="&#x2002;" horiz-adv-x="752" />
<glyph unicode="&#x2003;" horiz-adv-x="1504" />
<glyph unicode="&#x2004;" horiz-adv-x="501" />
<glyph unicode="&#x2005;" horiz-adv-x="376" />
<glyph unicode="&#x2006;" horiz-adv-x="250" />
<glyph unicode="&#x2007;" horiz-adv-x="250" />
<glyph unicode="&#x2008;" horiz-adv-x="188" />
<glyph unicode="&#x2009;" horiz-adv-x="300" />
<glyph unicode="&#x200a;" horiz-adv-x="83" />
<glyph unicode="&#x2010;" horiz-adv-x="593" d="M72 451q4 -12 13 -14.5t17 -2.5q39 10 74 25.5t72 27.5q57 10 116.5 6t114.5 -12q14 -4 25.5 -17t27.5 -7q20 12 31.5 34.5t16.5 45.5q8 12 19 23t21.5 23.5t14.5 27t-4 30.5q-4 14 -17.5 20.5t-27.5 2.5q-16 -16 -35 -25.5t-39 -16t-40.5 -11.5t-39.5 -13l-196 -2 q-16 6 -25.5 20.5t-28.5 16.5q-10 -2 -18 -4t-12 -13l-29 -77l-51 -68v-20z" />
<glyph unicode="&#x2011;" horiz-adv-x="593" d="M72 451q4 -12 13 -14.5t17 -2.5q39 10 74 25.5t72 27.5q57 10 116.5 6t114.5 -12q14 -4 25.5 -17t27.5 -7q20 12 31.5 34.5t16.5 45.5q8 12 19 23t21.5 23.5t14.5 27t-4 30.5q-4 14 -17.5 20.5t-27.5 2.5q-16 -16 -35 -25.5t-39 -16t-40.5 -11.5t-39.5 -13l-196 -2 q-16 6 -25.5 20.5t-28.5 16.5q-10 -2 -18 -4t-12 -13l-29 -77l-51 -68v-20z" />
<glyph unicode="&#x2012;" horiz-adv-x="593" d="M72 451q4 -12 13 -14.5t17 -2.5q39 10 74 25.5t72 27.5q57 10 116.5 6t114.5 -12q14 -4 25.5 -17t27.5 -7q20 12 31.5 34.5t16.5 45.5q8 12 19 23t21.5 23.5t14.5 27t-4 30.5q-4 14 -17.5 20.5t-27.5 2.5q-16 -16 -35 -25.5t-39 -16t-40.5 -11.5t-39.5 -13l-196 -2 q-16 6 -25.5 20.5t-28.5 16.5q-10 -2 -18 -4t-12 -13l-29 -77l-51 -68v-20z" />
<glyph unicode="&#x2013;" horiz-adv-x="954" d="M87 505q-7 -13 3 -24q25 -14 47.5 -1.5t44.5 20.5q88 16 182.5 21t188.5 7q39 8 77 14.5t77 -7.5q14 0 30.5 -7.5t33.5 -12.5t32.5 -2t27.5 24q6 10 1 19t-1 19q12 23 33 41.5t15 47.5q-4 10 -10.5 12t-12.5 2l-111 -29q-66 -16 -136 -21t-142 -7q-45 8 -88 14t-90 12 q-14 -2 -24.5 4t-18.5 15.5t-18.5 15.5t-24.5 4q-16 -6 -25 -18q-16 -39 -31.5 -74t-48.5 -66q-4 -10 -11 -23z" />
<glyph unicode="&#x2014;" horiz-adv-x="2076" d="M72 451q15 -12 47.5 -14.5t61.5 -2.5q141 10 268 25.5t262 27.5q207 10 422.5 6t415.5 -12q51 -4 92.5 -17t99.5 -7q73 12 114.5 34.5t60.5 45.5q29 12 68.5 23t78 23.5t53 27t-14.5 30.5q-15 14 -64 20.5t-100 2.5q-58 -16 -127 -25.5t-141.5 -16t-147 -11.5t-143.5 -13 l-711 -2q-58 6 -92.5 20.5t-103.5 16.5q-36 -2 -65 -4t-44 -13l-105 -77l-185 -68v-20z" />
<glyph unicode="&#x2018;" horiz-adv-x="428" d="M66 1038q6 -23 8 -46t22 -38q14 -8 30.5 -18t34 -14t35 -2t31.5 18q14 25 38 48.5t43.5 48t28.5 51t-1 59.5q-16 33 -49 43q-37 4 -70 -7.5t-55 -41.5l-4 2l10 45q20 45 49 87t74 70q16 8 35.5 12.5t29.5 22.5q15 25 9 52q-12 16 -34 11t-38 -9q-23 -6 -41.5 -19.5 t-34.5 -31t-31.5 -36t-33.5 -32.5q-41 -61 -70 -129t-16 -146z" />
<glyph unicode="&#x2019;" horiz-adv-x="434" d="M74 943.5q-2 -15.5 16 -23.5q16 -4 28.5 -1t24.5 11q16 25 39 46t44.5 41.5t42 42t34.5 48.5q33 59 55.5 123.5t6.5 130.5q-10 35 -39 57.5t-62 26.5q-39 -2 -66.5 -29.5t-43.5 -58.5q-23 -20 -44.5 -43t-19.5 -58q2 -18 10.5 -36.5t28.5 -28.5q18 -10 35 -10 q18 0 34.5 6t32 15t29.5 18q-12 -51 -37.5 -93.5t-62.5 -80.5q-20 -18 -48 -30.5t-38 -41.5q2 -16 0 -31.5z" />
<glyph unicode="&#x201c;" horiz-adv-x="923" d="M186 1038q8 -23 9.5 -46t21.5 -38l31.5 -18t35 -14t35 -2t31.5 18q14 25 38 48.5t43.5 48t28.5 51t-1 59.5q-16 33 -51 43q-35 4 -68 -7.5t-55 -41.5l-4 2l10 45q20 45 48 87t73 70q16 8 35.5 12.5t31.5 22.5q14 25 8 52q-14 16 -35.5 11t-37.5 -9q-23 -6 -41.5 -19.5 t-33.5 -31t-31.5 -36t-35.5 -32.5q-41 -61 -68.5 -129t-17.5 -146zM602 1012q10 -33 38 -55.5t62 -26.5q37 4 65 30.5t44 59.5q23 18 44.5 41.5t21.5 54.5q-4 18 -12.5 38t-28.5 30q-35 20 -69 3.5t-60 -30.5q10 47 35.5 90t62.5 84q20 18 48 29.5t38 40.5q-4 14 0 30.5 t-17 22.5q-14 6 -27 2t-24 -12q-18 -25 -39.5 -45.5t-44 -41t-44 -42t-36.5 -47.5q-29 -57 -52 -123t-5 -133z" />
<glyph unicode="&#x201d;" horiz-adv-x="831" d="M74 943.5q-2 -15.5 16 -23.5q16 -4 28.5 -1t24.5 11q16 25 39 46t44.5 41.5t42 42t34.5 48.5q33 59 55.5 123.5t6.5 130.5q-10 35 -39 57.5t-62 26.5q-39 -2 -66.5 -29.5t-43.5 -58.5q-23 -20 -44.5 -43t-19.5 -58q2 -18 10.5 -36.5t28.5 -28.5q18 -10 35 -10 q18 0 34.5 6t32 15t29.5 18q-12 -51 -37.5 -93.5t-62.5 -80.5q-20 -18 -48 -30.5t-38 -41.5q2 -16 0 -31.5zM478 973q-3 -12 1 -27q12 -16 34 -11t38 7q47 16 75.5 53t65.5 68q41 61 69.5 128.5t16.5 145.5q-6 23 -8 46.5t-22 37.5q-14 8 -31 18.5t-34 14.5t-35.5 2 t-33.5 -18q-14 -25 -36.5 -48.5t-42 -48t-28.5 -52t1 -60.5q8 -14 20.5 -24.5t28.5 -14.5q35 -4 68.5 6t56.5 39l4 -2l-10 -41q-20 -47 -49 -89t-74 -73q-16 -4 -36.5 -8t-31.5 -27q-4 -10 -7 -22z" />
<glyph unicode="&#x201e;" horiz-adv-x="870" d="M80 31q10 -23 30.5 -27t36.5 -14q23 -10 46.5 -3t44.5 11q4 -4 2 -6t-4 -6h2q-6 -41 -28 -78t-50 -72q-18 -10 -38 -21.5t-24 -33.5q6 -16 23.5 -23.5t36.5 -7.5q29 4 54.5 20.5t41.5 43.5q12 35 31.5 64.5t36.5 62.5q20 43 26 93t31 93q10 23 4 45.5t-16 40.5 q-23 41 -69 45t-81 -18q-12 -18 -28.5 -29.5t-32 -21t-31.5 -19.5t-29 -27q-35 -51 -16 -112zM500 -207q4 -10 9 -18t13 -13q61 -2 105 29q59 63 105 133t69 148q10 25 8 47t-8 44.5t-15.5 44t-13.5 44.5q-4 10 -16.5 19.5t-22.5 15.5q-20 8 -41.5 4t-38.5 -21 q-12 -20 -28.5 -35.5t-35 -28.5t-35.5 -28.5t-30 -36.5q-8 -23 -12 -50.5t12 -45.5q25 -23 53.5 -37t59.5 -2q16 2 29.5 10.5t23.5 16.5q-2 -10 -4 -18.5t-8 -18.5q-16 -20 -30.5 -44t-29 -45.5t-33 -41t-44.5 -29.5q-14 -10 -25.5 -19.5t-15.5 -23.5z" />
<glyph unicode="&#x2022;" horiz-adv-x="585" d="M144 453.5q-9 -62.5 28 -115.5q29 -23 57.5 -36t63.5 -5q35 6 61.5 30.5t42.5 51.5q10 16 13.5 35.5t25.5 27.5q25 41 38.5 91.5t-9.5 97.5q-29 39 -70 55q-68 10 -122 -27.5t-91 -89.5q-29 -53 -38 -115.5z" />
<glyph unicode="&#x202f;" horiz-adv-x="300" />
<glyph unicode="&#x205f;" horiz-adv-x="376" />
<glyph unicode="&#x25fc;" horiz-adv-x="798" d="M0 0v799h799v-799h-799z" />
</font>
</defs>
</svg>
