<?xml version="1.0" standalone="no"?>
<!DOCTYPE svg PUBLIC "-//W3C//DTD SVG 1.1//EN" "http://www.w3.org/Graphics/SVG/1.1/DTD/svg11.dtd" >
<svg xmlns="http://www.w3.org/2000/svg" xmlns:xlink="http://www.w3.org/1999/xlink" version="1.1">
<metadata></metadata>
<defs>
<font id="true_northregular" horiz-adv-x="1114" >
<font-face units-per-em="2048" ascent="1638" descent="-410" />
<missing-glyph horiz-adv-x="716" />
<glyph unicode="&#xfb01;" horiz-adv-x="1753" d="M164 659q0 191 2 285q0 14 3 43t3 43q0 12 -3 33t-3 33q0 11 6 33.5t6 35.5q0 7 -4 41t-4 51q0 20 2 57.5t2 55.5q0 62 123 62q3 0 5 -5.5t5 -5.5q45 0 134 5.5t134 5.5q233 0 424 -11q22 -2 32 -11t11 -30q5 -93 5 -110q0 -12 -2.5 -20.5t-8.5 -14t-10.5 -8.5 t-15.5 -4.5t-16 -2t-19 0t-17 0.5h-92q-43 0 -129 3t-129 3q-16 0 -49 -2t-49 -2q-18 0 -52 -2t-52 -2q-11 -157 -11 -168q0 -105 8 -121l13 -10q12 -2 39 -2q40 0 121.5 5t121.5 5q14 0 63.5 0.5t73 0t61 -2.5t67.5 -6q19 -3 26 -23q4 -15 4 -115q0 -23 -8.5 -38.5t-20 -23 t-31.5 -11t-34.5 -3t-39 1.5t-34.5 1q-57 0 -169 -2t-169 -2q-11 0 -31 -3.5t-24 -3.5q-31 -4 -31 -120q0 -7 3.5 -21.5t3.5 -21.5q0 -12 -4.5 -32t-4.5 -30q0 -11 4.5 -35t4.5 -35q0 -55 -6.5 -164t-6.5 -165q0 -62 -14 -74t-78 -12q-135 0 -135 37q0 7 2 20.5t2 20.5 q0 24 -2 70.5t-2 68.5q0 61 3 180t3 178q0 17 -5 48t-5 48zM1333 700q0 40 4 119t4 119q0 24 -3 72t-3 71v299q0 10 7 17.5t20 11.5t26.5 6.5t32 3.5t31 1t29 -0.5t20.5 -0.5q68 0 68 -59l-2 -193q0 -24 3 -74.5t3 -76.5q0 -34 -4 -101t-4 -100q0 -37 5 -109t5 -108 q0 -16 5 -44t5 -42q0 -10 -5 -25t-5 -22q0 -23 5 -70t5 -73q0 -24 2 -71t2 -69t-2 -32t-2.5 -33.5t-1.5 -43.5t-5 -40.5t-15.5 -32.5t-30.5 -12h-129q-40 4 -50 29q-7 28 -7 128q-1 29 -7 237.5t-6 317.5z" />
<glyph unicode="&#xfb02;" horiz-adv-x="2119" d="M164 659q0 191 2 285q0 14 3 43t3 43q0 12 -3 33t-3 33q0 11 6 33.5t6 35.5q0 7 -4 41t-4 51q0 20 2 57.5t2 55.5q0 62 123 62q3 0 5 -5.5t5 -5.5q45 0 134 5.5t134 5.5q233 0 424 -11q22 -2 32 -11t11 -30q5 -93 5 -110q0 -12 -2.5 -20.5t-8.5 -14t-10.5 -8.5 t-15.5 -4.5t-16 -2t-19 0t-17 0.5h-92q-43 0 -129 3t-129 3q-16 0 -49 -2t-49 -2q-18 0 -52 -2t-52 -2q-11 -157 -11 -168q0 -105 8 -121l13 -10q12 -2 39 -2q40 0 121.5 5t121.5 5q14 0 63.5 0.5t73 0t61 -2.5t67.5 -6q19 -3 26 -23q4 -15 4 -115q0 -23 -8.5 -38.5t-20 -23 t-31.5 -11t-34.5 -3t-39 1.5t-34.5 1q-57 0 -169 -2t-169 -2q-11 0 -31 -3.5t-24 -3.5q-31 -4 -31 -120q0 -7 3.5 -21.5t3.5 -21.5q0 -12 -4.5 -32t-4.5 -30q0 -11 4.5 -35t4.5 -35q0 -55 -6.5 -164t-6.5 -165q0 -62 -14 -74t-78 -12q-135 0 -135 37q0 7 2 20.5t2 20.5 q0 24 -2 70.5t-2 68.5q0 61 3 180t3 178q0 17 -5 48t-5 48zM1333 1368q0 15 6 25t13 15t21 7.5t22.5 2.5t26 -0.5t22.5 -0.5q40 4 65 4q13 0 18.5 -0.5t14.5 -3t12.5 -9t4.5 -17.5q3 -102 3 -217t-1.5 -255.5t-1.5 -216.5q0 -47 4 -149h-2q2 -25 2 -152q0 -27 10 -159 q1 -10 1.5 -13t2 -9t4.5 -7.5t8 -3.5t13 -2q49 0 149 4t150 4q52 0 74 -19.5t22 -72.5q0 -45 -6 -86q-3 -34 -39 -37q-38 -4 -168 -4h-193q-19 0 -58 -4t-58 -4h-16h-50.5t-32.5 5.5t-22 10t-9.5 24t-5.5 36.5v57v119q0 20 4.5 61t4.5 61q0 24 -2.5 74t-2.5 74q0 144 -5 429 t-5 429z" />
<glyph unicode="&#xfb03;" horiz-adv-x="2922" d="M164 659q0 191 2 285q0 14 3 43t3 43q0 12 -3 33t-3 33q0 11 6 33.5t6 35.5q0 7 -4 41t-4 51q0 20 2 57.5t2 55.5q0 62 123 62q3 0 5 -5.5t5 -5.5q45 0 134 5.5t134 5.5q233 0 424 -11q22 -2 32 -11t11 -30q5 -93 5 -110q0 -12 -2.5 -20.5t-8.5 -14t-10.5 -8.5 t-15.5 -4.5t-16 -2t-19 0t-17 0.5h-92q-43 0 -129 3t-129 3q-16 0 -49 -2t-49 -2q-18 0 -52 -2t-52 -2q-11 -157 -11 -168q0 -105 8 -121l13 -10q12 -2 39 -2q40 0 121.5 5t121.5 5q14 0 63.5 0.5t73 0t61 -2.5t67.5 -6q19 -3 26 -23q4 -15 4 -115q0 -23 -8.5 -38.5t-20 -23 t-31.5 -11t-34.5 -3t-39 1.5t-34.5 1q-57 0 -169 -2t-169 -2q-11 0 -31 -3.5t-24 -3.5q-31 -4 -31 -120q0 -7 3.5 -21.5t3.5 -21.5q0 -12 -4.5 -32t-4.5 -30q0 -11 4.5 -35t4.5 -35q0 -55 -6.5 -164t-6.5 -165q0 -62 -14 -74t-78 -12q-135 0 -135 37q0 7 2 20.5t2 20.5 q0 24 -2 70.5t-2 68.5q0 61 3 180t3 178q0 17 -5 48t-5 48zM1333 659q0 191 2 285q0 14 3 43t3 43q0 12 -3 33t-3 33q0 11 6.5 33.5t6.5 35.5q0 7 -4.5 41t-4.5 51q0 20 2 57.5t2 55.5q0 62 123 62q3 0 5.5 -5.5t5.5 -5.5q45 0 134 5.5t134 5.5q233 0 424 -11q22 -2 32 -11 t11 -30q4 -74 4 -110q0 -12 -2.5 -20.5t-8.5 -14t-10.5 -8.5t-15.5 -4.5t-15.5 -2t-18.5 0t-17 0.5h-92q-43 0 -129 3t-129 3q-16 0 -49 -2t-50 -2t-52 -2t-52 -2q-10 -142 -10 -168q0 -105 8 -121l12 -10q12 -2 39 -2q40 0 122 5t122 5q14 0 63.5 0.5t72.5 0t60.5 -2.5 t67.5 -6q20 -3 27 -23q4 -15 4 -115q0 -23 -8.5 -38.5t-20 -23t-31.5 -11t-34.5 -3t-39 1.5t-34.5 1q-57 0 -169 -2t-169 -2q-11 0 -31 -3.5t-24 -3.5q-31 -4 -31 -120q0 -7 3 -21.5t3 -21.5q0 -12 -4 -32t-4 -30q0 -12 4 -35.5t4 -34.5q0 -55 -6 -164t-6 -165 q0 -62 -14 -74t-78 -12q-136 0 -136 37q0 7 2 20.5t2 20.5q0 24 -2 70.5t-2 68.5q0 61 3 180t3 178q0 17 -5 48t-5 48zM2503 700q0 40 4 119t4 119q0 24 -3 72t-3 71v299q0 10 7 17.5t20 11.5t26.5 6.5t32 3.5t31 1t29 -0.5t20.5 -0.5q67 0 67 -59l-2 -193q0 -24 3 -74.5 t3 -76.5q0 -34 -4 -101t-4 -100q0 -37 5 -109t5 -108q0 -16 5.5 -44t5.5 -42q0 -10 -5.5 -25t-5.5 -22q0 -23 5.5 -70t5.5 -73q0 -24 2 -71t2 -69t-2 -32q-2 -11 -3 -43.5t-3 -55.5t-14.5 -43t-35.5 -20h-129q-40 4 -50 29q-7 28 -7 128q-1 61 -4.5 174.5t-5.5 206t-2 174.5 z" />
<glyph unicode="&#xfb04;" horiz-adv-x="3289" d="M164 659q0 191 2 285q0 14 3 43t3 43q0 12 -3 33t-3 33q0 11 6 33.5t6 35.5q0 7 -4 41t-4 51q0 20 2 57.5t2 55.5q0 62 123 62q3 0 5 -5.5t5 -5.5q45 0 134 5.5t134 5.5q233 0 424 -11q22 -2 32 -11t11 -30q5 -93 5 -110q0 -12 -2.5 -20.5t-8.5 -14t-10.5 -8.5 t-15.5 -4.5t-16 -2t-19 0t-17 0.5h-92q-43 0 -129 3t-129 3q-16 0 -49 -2t-49 -2q-18 0 -52 -2t-52 -2q-11 -157 -11 -168q0 -105 8 -121l13 -10q12 -2 39 -2q40 0 121.5 5t121.5 5q14 0 63.5 0.5t73 0t61 -2.5t67.5 -6q19 -3 26 -23q4 -15 4 -115q0 -23 -8.5 -38.5t-20 -23 t-31.5 -11t-34.5 -3t-39 1.5t-34.5 1q-57 0 -169 -2t-169 -2q-11 0 -31 -3.5t-24 -3.5q-31 -4 -31 -120q0 -7 3.5 -21.5t3.5 -21.5q0 -12 -4.5 -32t-4.5 -30q0 -11 4.5 -35t4.5 -35q0 -55 -6.5 -164t-6.5 -165q0 -62 -14 -74t-78 -12q-135 0 -135 37q0 7 2 20.5t2 20.5 q0 24 -2 70.5t-2 68.5q0 61 3 180t3 178q0 17 -5 48t-5 48zM1333 659q0 191 2 285q0 14 3 43t3 43q0 12 -3 33t-3 33q0 11 6.5 33.5t6.5 35.5q0 7 -4.5 41t-4.5 51q0 20 2 57.5t2 55.5q0 62 123 62q3 0 5.5 -5.5t5.5 -5.5q45 0 134 5.5t134 5.5q233 0 424 -11q22 -2 32 -11 t11 -30q4 -74 4 -110q0 -12 -2.5 -20.5t-8.5 -14t-10.5 -8.5t-15.5 -4.5t-15.5 -2t-18.5 0t-17 0.5h-92q-43 0 -129 3t-129 3q-16 0 -49 -2t-50 -2t-52 -2t-52 -2q-10 -142 -10 -168q0 -105 8 -121l12 -10q12 -2 39 -2q40 0 122 5t122 5q14 0 63.5 0.5t72.5 0t60.5 -2.5 t67.5 -6q20 -3 27 -23q4 -15 4 -115q0 -23 -8.5 -38.5t-20 -23t-31.5 -11t-34.5 -3t-39 1.5t-34.5 1q-57 0 -169 -2t-169 -2q-11 0 -31 -3.5t-24 -3.5q-31 -4 -31 -120q0 -7 3 -21.5t3 -21.5q0 -12 -4 -32t-4 -30q0 -12 4 -35.5t4 -34.5q0 -55 -6 -164t-6 -165 q0 -62 -14 -74t-78 -12q-136 0 -136 37q0 7 2 20.5t2 20.5q0 24 -2 70.5t-2 68.5q0 61 3 180t3 178q0 17 -5 48t-5 48zM2503 1368q0 15 5.5 25t12.5 15t21.5 7.5t22.5 2.5t25.5 -0.5t22.5 -0.5q40 4 66 4q17 0 24.5 -1t15.5 -7.5t9 -21.5q3 -102 3 -217t-1.5 -255.5 t-1.5 -216.5q0 -47 4 -149h-2q2 -25 2 -152q0 -27 10 -159q1 -10 1.5 -13t2 -9t4.5 -7.5t8 -3.5t13 -2q49 0 149 4t150 4q52 0 74 -19.5t22 -72.5q0 -45 -6 -86q-3 -34 -39 -37q-38 -4 -168 -4h-192q-19 0 -58 -4t-59 -4h-16h-40t-28.5 2.5t-21.5 4t-13.5 10.5t-9.5 14.5 t-3.5 24.5t-2.5 32.5v44.5v119q0 20 4 61t4 61q0 24 -2 73.5t-2 74.5q0 144 -5 429t-5 429z" />
<glyph horiz-adv-x="0" />
<glyph horiz-adv-x="682" />
<glyph unicode=" "  horiz-adv-x="716" />
<glyph unicode="&#x09;" horiz-adv-x="716" />
<glyph unicode="&#xa0;" horiz-adv-x="716" />
<glyph unicode="!" horiz-adv-x="595" d="M164 106q0 54 36 99t89 45q67 0 105 -44t38 -112q0 -54 -39 -86.5t-94 -32.5q-46 0 -90.5 43t-44.5 88zM178 510q0 18 6 56.5t6 58.5q0 49 -1 147.5t-1 147.5q0 9 -4 26.5t-4 26.5q0 127 2 188q1 13 4.5 55t3.5 64q0 12 -4 36t-4 36q0 54 16 69t70 15q12 0 33 1t31 1 q21 0 51 -15q16 -5 16 -28q-1 -28 0.5 -79t1.5 -67v-143q0 -7 -3 -21.5t-3 -21.5q0 -67 5.5 -200t5.5 -199q0 -22 -4.5 -68t-4.5 -68q0 -9 4.5 -28.5t4.5 -28.5q0 -57 -152 -57q-39 0 -57.5 27.5t-18.5 68.5z" />
<glyph unicode="&#x22;" horiz-adv-x="919" d="M145 1393q-1 14 0.5 24t7.5 16l10 10t16 5.5t16.5 2t20.5 0t20 -0.5q49 0 139 -8q18 0 25.5 -5.5t7.5 -23.5q0 -173 -37 -358q-5 -23 -13 -31.5t-30 -11.5q-33 -4 -101 -4q-24 0 -36 12t-17 37q-11 63 -19.5 192t-9.5 144zM514 1393q-1 14 0.5 24t7.5 16t9.5 10t15.5 5.5 t16.5 2t20.5 0t20 -0.5q49 0 139 -8q18 0 25.5 -5.5t7.5 -23.5q0 -173 -37 -358q-5 -23 -13 -31.5t-30 -11.5q-33 -4 -100 -4q-24 0 -36 12t-17 37q-11 63 -19.5 192t-9.5 144z" />
<glyph unicode="#" horiz-adv-x="1906" d="M102 410q0 14 25 77q7 20 18.5 31.5t28.5 14.5t31.5 3t37 -2t33.5 -2q31 0 92.5 2.5t90.5 2.5q17 0 26 18q20 55 56.5 168t56.5 168q-91 8 -192 8h-12h-19t-19 0.5t-20.5 2.5t-16 4.5t-12.5 7t-4 10.5q0 42 23 96q8 17 20.5 27.5t30 14t30.5 4t37 -1t35 -1.5h162 q17 0 23 14q14 35 36.5 102.5t30.5 88.5q5 16 13.5 47t17 55.5t18.5 44.5q9 21 33 21q3 0 16 0.5t24 0.5t27 -0.5t29 -2t24.5 -3.5t18 -6t6.5 -10q0 -40 -46 -176t-52 -170h62q19 0 54.5 -3t53.5 -3h227q14 0 18 2.5t7 15.5q74 224 100 297q8 24 27 42t41 18q2 0 28 1 t39.5 0t34.5 -4t31 -12.5t10 -23.5q0 -26 -50 -165.5t-50 -168.5q0 -6 12.5 -9t32 -3.5t38 0t37 1.5t21.5 1q95 0 140 -2q30 -3 30 -29q0 -51 -21.5 -90.5t-66.5 -40.5h-184q-28 0 -78 -4q-14 -2 -22 -21q-13 -33 -62 -169.5t-49 -143.5q0 -8 14 -8q33 -3 122.5 -9 t137.5 -12q12 -1 17 -2.5t9.5 -7t4.5 -16.5q0 -30 -5.5 -58t-24 -53t-46.5 -29q-12 -2 -39 -2q-41 0 -124 -5t-125 -5q-20 0 -25 -16q-12 -35 -47 -155t-62 -183q-70 -12 -98 -12h-12h-18t-20.5 0.5t-21.5 1.5t-18 3.5t-13.5 6.5t-4.5 10q0 23 52 159t52 169q0 6 -16 10 t-43.5 5.5t-50 1.5t-50.5 -0.5t-30 -0.5q-30 0 -93 5t-94 5q-18 0 -26 -18q-74 -190 -119 -324q-3 -10 -8.5 -17t-10 -10.5t-14.5 -5t-14.5 -2t-18 0t-16.5 0.5q-58 0 -125 18q15 71 62.5 197.5t60.5 169.5q-177 8 -273 10q-13 0 -29 10t-16 23zM684 549q35 -2 104 -2 q25 0 76 -5t78 -5q12 0 37 3t37 3t35 -2t34 -2q20 0 23 16q16 48 32.5 103t35.5 122.5t30 104.5q-18 5 -54 7.5t-87.5 3.5t-87.5 1.5t-92 0t-62 -0.5q-16 0 -22 -14q-72 -185 -117 -334z" />
<glyph unicode="$" horiz-adv-x="1312" d="M143 344q0 63 11 80q3 4 12.5 7t24 5t29.5 3t34 1h32h29h19q14 0 20.5 -5.5t7.5 -10.5t-0.5 -19t-1.5 -18q0 -39 46.5 -100.5t85.5 -73.5q39 -14 100 -29q5 19 7.5 44t3 38t0 47.5t-0.5 40.5q0 28 -1.5 112t-0.5 130q0 36 -35 51q-31 13 -79 30t-78.5 29.5t-67 32 t-66.5 48t-55 67.5q-9 14 -14.5 28.5t-10 31.5t-8.5 28q-26 61 -22 156v6q45 105 93 166t136 102q30 14 88.5 26t83.5 23q14 6 22 13.5t10 18.5t2 20t-1.5 23.5t-1.5 23.5q0 20 1.5 31.5t9.5 16t13 5t24 -0.5t30 -1h24q23 0 28.5 -18.5t1 -41.5t2 -44t30.5 -25 q22 -4 60.5 -16.5t47.5 -14.5q113 -31 166 -93.5t86 -182.5q8 -20 8 -33q0 -23 -8 -34t-30 -11q-24 0 -72 2t-72 2q-22 0 -33 17t-16 40t-28 51t-64 45q-35 15 -45 15q-11 0 -31 -4q-4 -123 -4 -367v-8q24 -8 87.5 -32t98.5 -34q152 -49 248 -266q10 -23 10 -100 q0 -64 -19 -147.5t-52 -118.5q-89 -89 -146 -119q-32 -18 -100 -29t-80 -14q-9 -2 -15 -7t-8 -13.5t-2 -15t0.5 -18.5t0.5 -16q0 -23 -0.5 -31.5t-3.5 -22t-10 -18t-20 -8.5t-34 -4q-52 0 -65 17t-13 71q0 4 0.5 15t0.5 16.5t-1.5 14t-5 13t-10 8t-15.5 3.5q-17 9 -36 14.5 t-45 10.5t-37 8t-62 26q-202 92 -244 273q0 2 -2 9t-2 9zM412 1073q0 -61 55 -131t113 -70q10 0 16 14t6.5 36.5t-0.5 44t-2.5 45t-1.5 30.5q0 22 2 46.5t5.5 54.5t4.5 45q-4 0 -4 24q0 29 -22 29q-71 0 -121.5 -49.5t-50.5 -118.5zM725 555q0 -269 4 -346q2 -27 41 -27 q78 0 122 65.5t44 145.5q0 85 -59 135.5t-148 63.5q-4 -24 -4 -37z" />
<glyph unicode="%" horiz-adv-x="2119" d="M143 1143q0 104 58 179.5t144.5 110.5t186.5 35q87 0 169 -27t141 -81q39 -35 59.5 -112t20.5 -144q0 -78 -23 -111q-12 -17 -27 -53q-30 -78 -121.5 -125t-183.5 -47q-196 0 -305 106q-10 10 -30.5 26t-32.5 30.5t-19 36.5q-37 121 -37 176zM379 1133q0 -149 76 -181 q66 -30 104 -30q39 0 70 32.5t45 74t14 79.5q0 50 -13 98.5t-48 87.5t-86 39q-7 0 -21.5 -1t-21.5 -1q-53 -7 -86 -72t-33 -126zM653 23q0 9 74 176q38 83 97 240t87 223q23 53 63 144t72.5 167t59.5 143q11 26 43.5 92.5t46.5 104.5q13 38 37 84q17 35 51 35q146 0 146 -43 q0 -10 -21 -66t-57.5 -146.5t-76.5 -188.5t-89 -213.5t-84 -199t-71 -168t-42 -98.5t-45 -125.5t-67 -152.5q-29 -45 -150 -45q-20 0 -47 10.5t-27 26.5zM1198 377q0 78 33.5 141t89 102t124 59.5t142.5 20.5q189 0 309 -106q39 -36 59.5 -113.5t20.5 -144.5q0 -79 -22 -111 q-17 -19 -27 -53q-32 -77 -123 -123.5t-182 -46.5q-201 0 -305 104q-9 8 -31.5 25.5t-33.5 31.5t-17 36q-37 121 -37 178zM1434 365q0 -66 14 -113t61 -68q77 -30 103 -30q57 0 93 63t36 125q0 36 -8 72.5t-24 71.5t-46.5 57t-69.5 22q-27 0 -41 -2q-37 -5 -65.5 -40.5 t-40.5 -77.5t-12 -80z" />
<glyph unicode="&#x26;" horiz-adv-x="1452" d="M143 430q0 65 26 121.5t58.5 90.5t83.5 85t78 86q-22 28 -52.5 62t-43.5 50.5t-28 45t-20 64.5t-5 89q0 81 53 158l29 41q39 55 112.5 85t149.5 30q113 0 190 -47q87 -49 145 -117t58 -152q0 -38 -6.5 -71.5t-22 -64t-29 -52.5t-41 -50.5t-43.5 -44t-51 -46.5t-51 -45 q0 -16 111 -124t149 -137q10 12 35.5 58.5t50.5 78t49 31.5q13 0 41 -11t60.5 -25.5t44.5 -18.5q24 -8 24 -27q0 -27 -84 -149t-84 -135q8 -22 75.5 -92t97.5 -93q22 -18 20 -36q6 -24 6 -25q0 -20 -65.5 -32.5t-102.5 -12.5q-22 0 -42.5 6t-45.5 23.5t-34 24.5t-39 35.5 t-31 29.5q-13 -2 -44 -23t-66 -45t-100 -43.5t-141 -19.5q-12 0 -36 3t-37 3q-67 0 -135 31q-138 62 -202.5 159t-64.5 248zM377 395q0 -94 69.5 -145t167.5 -51q39 0 132.5 30t93.5 60q0 5 -13 24q-1 1 -23 26.5t-43.5 50.5t-53 60.5t-58.5 65.5t-52.5 57t-42.5 42.5 t-22 15.5q-24 0 -59 -38t-61 -75q-16 -20 -25.5 -56t-9.5 -67zM467 1090q0 -32 42.5 -91t76.5 -84q74 40 111.5 86t37.5 119q0 56 -32 84.5t-89 28.5q-65 0 -106 -39.5t-41 -103.5z" />
<glyph unicode="'" horiz-adv-x="550" d="M145 1393q-1 14 0.5 24t7.5 16l10 10t16 5.5t16.5 2t20.5 0t20 -0.5q49 0 139 -8q18 0 25.5 -5.5t7.5 -23.5q0 -173 -37 -358q-5 -23 -13 -31.5t-30 -11.5q-33 -4 -101 -4q-24 0 -36 12t-17 37q-11 63 -19.5 192t-9.5 144z" />
<glyph unicode="(" horiz-adv-x="782" d="M143 610q0 13 2 40t2 42q0 9 -1 28t-1 28q0 107 43 231q5 16 13.5 46.5t13.5 45.5q19 50 79.5 158t90.5 141l74 84q17 19 51.5 43.5t52.5 24.5q15 0 35 -13q13 -9 47.5 -41.5t34.5 -40.5q0 -5 -15 -27.5t-35.5 -50.5t-23.5 -32q-6 -7 -14.5 -24l-9.5 -19 q-13 -20 -24.5 -44t-25 -55.5t-20.5 -46.5q-40 -87 -53 -120q-30 -71 -51 -175t-21 -180q0 -20 4.5 -56.5t5.5 -51.5q2 -26 15 -72t16 -63q11 -66 27 -103q12 -24 18 -51q7 -23 27 -62t24 -49q9 -21 29.5 -58t28.5 -54q6 -13 46 -68.5t40 -66.5q0 -24 -46 -59.5t-71 -35.5 q-16 0 -35.5 12.5t-28.5 22t-28 29.5q-90 94 -125 158q-25 49 -53 92q-35 52 -71 149.5t-42 157.5q-2 26 -13.5 89.5t-11.5 96.5z" />
<glyph unicode=")" horiz-adv-x="782" d="M102 1427q0 8 34.5 40.5t47.5 41.5q20 13 35 13q18 0 53 -24.5t52 -43.5l73 -84q30 -33 90.5 -141t79.5 -158q5 -15 13.5 -46t13.5 -46q43 -124 43 -231q0 -9 -1 -28t-1 -28q0 -15 2 -42t2 -40q0 -33 -11.5 -96.5t-13.5 -89.5q-6 -62 -41.5 -159t-70.5 -148 q-28 -43 -53 -92q-35 -64 -125 -158q-59 -64 -93 -64q-25 0 -70.5 35.5t-45.5 59.5q0 11 40 66.5t46 68.5q8 17 28 54t29 58q4 10 24 49t27 62q5 23 19 51q14 33 26 103q3 17 16 63t15 72q10 92 10 108q0 76 -21 180t-50 175q-8 19 -54 120q-8 16 -20.5 47t-24 55t-24.5 44 q-24 41 -25 43q-3 4 -23.5 32t-35.5 50.5t-15 27.5z" />
<glyph unicode="*" horiz-adv-x="909" d="M143 1343q0 22 20 57.5t40 35.5q17 0 89.5 -47t102.5 -52v52q1 24 -1.5 69t-2.5 62q0 32 21 35q5 1 26 1h45q23 -3 23 -26q1 -20 2 -84t6 -98q9 5 53.5 30.5t84.5 47.5t44 22q10 0 36 -42t26 -54q0 -8 -38 -30t-93.5 -50t-57.5 -29q10 -12 60 -41t93.5 -55t43.5 -37 q0 -20 -28 -53t-48 -33q-18 0 -87.5 47.5t-90.5 54.5q-1 -23 -2.5 -62.5t-2.5 -71.5t-1 -60q0 -33 -62 -33h-4q-14 0 -20 1t-12 7t-7 19q-3 27 -3.5 55.5t0.5 67.5t1 55q0 4 -1 12t-1 12q-13 -7 -54 -36.5t-76.5 -49.5t-57.5 -20q-14 0 -35.5 42.5t-21.5 59.5q0 12 38.5 41 t55.5 35q3 1 15.5 4t17.5 6q9 6 25.5 19.5t21.5 17.5q-5 2 -30 12.5t-48 21t-48.5 22.5t-41 23t-15.5 17z" />
<glyph unicode="+" horiz-adv-x="1193" d="M123 705q0 60 39 67q11 1 39.5 5.5t42.5 4.5q8 0 24 -3t25 -3q20 0 62.5 2t64.5 2q35 0 53 2q6 29 6 86q0 22 -2 66t-2 67q0 62 2 93q4 39 156 39q96 0 96 -78q0 -144 -6 -285q12 -6 22 -6q46 0 138.5 3t138.5 3q17 0 27.5 -9t14.5 -28t4.5 -30.5t0.5 -32.5v-8 q0 -14 -2 -39t-2 -37q-3 -28 -27 -33q-101 -18 -139 -18q-20 0 -58 3t-57 3l-63 -2q-6 -85 -6 -170v-21t-0.5 -23t-2.5 -26.5t-5 -24t-8.5 -24t-12.5 -18t-17.5 -13.5t-23.5 -4q-47 0 -141 8q-7 1 -12 2.5t-8 5.5t-5 5.5t-3 8.5t-1 8.5v10.5v10q0 22 -2 67t-2 67q0 20 2 61 t2 61q0 19 -18 19q-33 0 -98.5 -5t-98.5 -5q-17 0 -48 1t-46 1q-21 1 -27 7t-8 27q-8 86 -8 130z" />
<glyph unicode="," horiz-adv-x="575" d="M102 -272q0 15 10 50.5t26.5 83t32 88t33 86.5t21.5 58q1 3 4.5 14t5.5 16t6.5 12.5t11 10.5t15.5 3q30 0 88.5 -2.5t87.5 -2.5t29 -22q0 -28 -57 -162l-82 -203l-4 -6q-10 -22 -13.5 -29t-12.5 -17t-20.5 -12t-31.5 -1h-37v2h-10.5h-14t-15.5 0.5t-17.5 1.5t-16 2 t-15.5 4l-12 6t-9 8t-3 11z" />
<glyph unicode="-" horiz-adv-x="937" d="M123 596v38t2 29.5t2 23.5t6.5 17t8 13t14 7.5t17 5t25 2t30 1.5h38.5q15 0 42 -2t40 -2q12 0 37 3t39 3t42 -6t42 -6q32 0 95 5t95 5q73 0 86 -5q25 -8 29 -53q2 -16 2 -42q0 -23 -16 -55q-11 -19 -35 -19q-147 -6 -297 -6q-20 0 -62.5 1t-64.5 1q-21 1 -59.5 -0.5 t-71 -1t-59.5 5.5q-19 4 -23 10.5t-4 26.5z" />
<glyph unicode="." horiz-adv-x="473" d="M102 106q0 54 36 99t89 45q67 0 105.5 -44t38.5 -112q0 -54 -39 -86.5t-94 -32.5q-47 0 -91.5 42.5t-44.5 88.5z" />
<glyph unicode="/" horiz-adv-x="937" d="M82 35q0 20 94 251.5t219 529.5l125 298q8 19 47.5 128.5t65.5 150.5q8 12 21 20.5t31.5 12.5t31 5.5t35 2.5t28.5 2h2q20 0 47 -9.5t27 -25.5q0 -19 -100 -240t-94 -250h-5q-25 -70 -82 -197t-79 -186q-78 -208 -129 -297q-17 -33 -45 -101t-46 -101q-15 -35 -49 -35 q-145 0 -145 41z" />
<glyph unicode="0" horiz-adv-x="1214" d="M143 696q0 32 4.5 97t4.5 96q0 87 57 227q26 67 53 116t67 95.5t96.5 71t127.5 24.5q144 0 241.5 -49.5t170.5 -169.5q13 -21 21 -43.5t16 -51.5t14 -46q25 -68 35.5 -123.5t12 -90.5t1.5 -126q0 -19 3 -55t3 -54q0 -20 -9 -103.5t-13 -96.5q-11 -14 -19 -34.5t-15.5 -50 t-10.5 -38.5q-48 -129 -115 -187q-10 -8 -22 -25.5t-27 -25.5q-117 -65 -219 -65q-109 0 -194 45t-137.5 116t-86.5 167t-47 189t-13 191zM385 631q0 -22 4 -62h-2q3 -40 5 -64t9 -65.5t15.5 -67.5t24.5 -58t37 -50.5t52 -31.5t70 -13q35 0 72 18t51 48q119 218 119 399 q0 12 -7.5 31.5t-7.5 29.5q0 14 5.5 44.5t5.5 44.5q0 82 -37.5 186t-98.5 133q-37 16 -71 27q-30 10 -53 10q-53 0 -94 -46t-59.5 -103.5t-18.5 -108.5q0 -16 -7.5 -57.5t-7.5 -65.5q0 -29 -3 -89t-3 -89z" />
<glyph unicode="1" horiz-adv-x="755" d="M143 1130q0 17 25 49t65 69.5t69.5 63.5t57.5 48q4 3 14 10t17.5 13.5t11.5 11.5q9 13 27 20t29.5 7.5t34.5 0.5q43 0 61 -6q35 -14 35 -420q0 -25 -3 -73t-3 -72q0 -20 2 -62.5t2 -64.5q0 -20 -1 -60t-1 -59q0 -66 -3 -197.5t-3 -197.5q0 -30 4 -89t4 -87q0 -12 -4 -19 t-13 -9t-16 -2.5t-19 0.5t-16 1q-24 0 -67 -4.5t-60 -5.5q-12 0 -21 8.5t-14 23t-7.5 31t-3 37.5t-0.5 36t0.5 32t0.5 22q0 140 3 421t3 421q0 25 -2 37q-9 -5 -44 -25t-65 -36.5t-34 -16.5q-25 0 -45.5 54.5t-20.5 88.5z" />
<glyph unicode="2" horiz-adv-x="1124" d="M143 133q0 52 35 112.5t80 100.5q27 24 49 64q12 23 64 87t80 93q4 6 15 20t18 22.5t17 19.5t19 18q24 21 46 49t49.5 67.5t39.5 55.5q3 4 11 11t13.5 14t8.5 14q17 35 23 55t6 53q0 205 -178 205q-45 0 -125.5 -32.5t-114.5 -63.5l-27 -26q-26 -26 -45.5 -41t-29.5 -15 q-31 0 -31 84q0 41 1.5 63.5t8.5 56t25 57t47 40.5q12 7 55.5 32t61 34t53 24.5t66.5 21t65 5.5q117 0 227 -64t150 -168q8 -21 24 -45.5t23.5 -46t7.5 -55.5l-2 -43q0 -33 -15 -78.5t-25.5 -67.5t-35.5 -71q-5 -12 -21 -32.5t-18 -23.5q-23 -44 -39 -67q-15 -23 -37 -48.5 t-49 -55t-41 -46.5q-16 -19 -71.5 -96t-91.5 -111q-57 -57 -84 -98l2 -6q8 1 23.5 4.5t28 5.5t23.5 2q16 0 50.5 -5t52.5 -5q47 0 142 4t142 4q24 0 35 -20.5t11 -46.5q0 -10 -3.5 -30t-3.5 -22q0 -48 -2 -71q-3 -30 -34 -33q-24 -2 -142 -2q-22 0 -66 -4t-67 -4 q-14 0 -43 4t-45 4q-38 0 -115 1t-116 1q-24 0 -69 -7t-67 -7q-45 0 -45 149z" />
<glyph unicode="3" horiz-adv-x="1120" d="M123 125q0 188 33 188q13 0 91.5 -30.5t137.5 -30.5q16 0 46.5 -3t45.5 -3q36 0 78.5 10.5t83.5 30t68.5 52.5t27.5 73q0 70 -50.5 115.5t-123.5 62.5q-9 2 -43.5 11t-58 13t-43.5 4q-12 0 -37 -2t-37 -2q-21 0 -34 0.5t-22.5 3.5t-13 6t-5.5 11t-1.5 14.5t1.5 21.5t1 27 q0 21 -4 60.5t-4 58.5q0 8 2 13.5t8 7.5t9 2.5t12 0t10 -0.5q11 0 33 3.5t28 4.5q48 3 101.5 9.5t120 24.5t82.5 42q9 14 20.5 27t16 19t7.5 20.5t3 39.5q0 44 -24 77t-63 49.5t-79 24t-82 7.5q-103 0 -146 -14q-75 -26 -145 -64q-6 -4 -14 -4q-11 0 -18 11t-9 31.5t-3 36 t0 39t1 25.5q0 53 8 78q10 35 77.5 60t132.5 34t108 9q112 0 195.5 -26.5t189.5 -88.5q55 -32 100 -123q7 -16 14 -69.5t7 -78.5q0 -67 -35 -133t-90 -106q-13 -10 -50.5 -31.5t-54.5 -36.5q85 -34 112 -54q27 -19 56 -52q10 -11 20 -37t15 -35q24 -40 32.5 -62.5t8.5 -62.5 q0 -133 -76.5 -238t-202.5 -157q-9 -4 -33 -16t-42.5 -19t-34.5 -8q-28 0 -83 -2t-83 -2t-75.5 9t-98.5 25t-88 42.5t-37 56.5z" />
<glyph unicode="4" horiz-adv-x="1159" d="M123 459l424 780l65 119q4 7 14.5 28.5t14.5 26t17 11t32 6.5q23 0 66.5 -3.5t52.5 -3.5q4 0 16 -0.5t18 -1t13 -5t8 -13.5q4 -8 1 -54.5t-3 -54.5q0 -14 4 -44t4 -46q0 -12 -6 -37t-6 -37q0 -64 6 -190t6 -190q0 -33 -5 -98.5t-5 -96.5q0 -23 4.5 -38t10 -22.5 t18.5 -10.5t22.5 -3t30.5 1t33 1q15 0 25.5 -7.5t15.5 -17t7 -26t2 -27.5t-0.5 -29.5t-0.5 -23.5q1 -10 4.5 -39.5t3.5 -46.5q0 -23 -26 -26l-142 -11q-2 -68 -2 -198q0 -29 -10.5 -36t-42.5 -7q-13 0 -40 5t-42 5q-10 0 -31.5 -2t-31.5 -2q-18 0 -29.5 10.5t-11.5 28.5 q0 16 4 50t4 52q0 101 -8 109q-8 4 -45 4q-36 0 -106 -6t-105 -6q-25 0 -73.5 4t-72.5 4q-7 1 -19 -0.5t-16 -1.5q-22 0 -35 7t-18.5 22.5t-6.5 27t-1 33.5t-3 64t-3 63zM414 510q0 -14 5 -18.5t19 -4.5q125 0 152 10q30 11 35 51q2 12 0 131v28v163q0 8 -4.5 16.5 t-12.5 8.5l-10 -14l-29 -60q-28 -46 -91.5 -169t-63.5 -142z" />
<glyph unicode="5" horiz-adv-x="1146" d="M143 201q0 29 65.5 72.5t96.5 43.5q4 0 30.5 -23.5t74 -47t102.5 -23.5q220 0 262 226q0 2 3 12t3 16q0 12 -4 37.5t-4 30.5q-9 79 -27.5 126.5t-70.5 82.5q-5 4 -14.5 10.5t-13.5 9t-11.5 7t-12 6.5t-12.5 4.5t-17 3.5t-20 2q-25 2 -77 2q-27 0 -71.5 -14.5t-66.5 -14.5 q-9 0 -27.5 5.5t-29.5 4.5q-9 0 -27.5 -1t-27.5 -1q-29 0 -38 9t-9 40q0 26 5.5 77t6.5 71q2 24 2 52t-1 61.5t-1 50.5v237q0 9 11 22t20 13q7 0 22.5 -3t22.5 -3q69 0 206 9t205 9q21 0 60.5 3.5t58.5 3.5q9 0 26 -3.5t25 -3.5q7 0 22.5 2t22.5 2q18 0 35 -9.5t17 -26.5 q0 -16 -11 -162q-2 -14 -14.5 -27.5t-26.5 -13.5q-51 -3 -146 -4.5t-132 -3.5q-15 0 -45 -3t-47 -3h-86q-11 -19 -11 -44q0 -12 2.5 -37t2.5 -38q0 -18 -9 -70h19q13 0 41 3t41 3q59 0 100 -10q60 -14 125 -33q61 -19 108.5 -70t73.5 -108.5t41 -124.5q10 -39 10 -156 q0 -137 -45 -232t-153 -171q-75 -54 -125 -63q-18 -2 -65 -15.5t-74 -13.5h-99q-41 0 -98 22q-35 15 -117 86t-82 99z" />
<glyph unicode="6" horiz-adv-x="1251" d="M143 778q0 61 29 170q8 24 19.5 68.5t15.5 56.5q53 167 221 295q32 25 101 40t122 15q8 0 23.5 3.5t23.5 3.5q84 0 174 -44q8 -4 20 -14.5t17 -13.5q46 -28 107 -137q1 -3 10.5 -22t16 -34.5t6.5 -21.5q0 -10 -71.5 -38t-90.5 -28q-14 0 -30 24t-30.5 53t-44.5 53t-69 24 q-65 0 -123 -21q-44 -15 -101.5 -92t-60.5 -123q-14 -19 -25.5 -72t-11.5 -83q0 -10 1 -31t1 -31q87 62 140 83.5t143 21.5q65 0 155 -17q81 -18 146 -87.5t98 -156.5t33 -169q0 -83 -47 -234q-6 -21 -26.5 -57t-22.5 -41q-12 -23 -47 -43q-10 -4 -39 -22t-45 -23 q-141 -45 -217 -45q-170 0 -283 70t-176 223q-6 15 -11.5 30.5t-10 35t-7.5 33t-5.5 37t-4 34t-3.5 37.5t-2.5 34t-2.5 37t-2 33q-13 132 -13 186zM422 434q0 -94 70 -161.5t165 -67.5q101 0 167.5 84t66.5 188q0 94 -72 147.5t-170 53.5q-114 0 -170.5 -63.5t-56.5 -180.5z " />
<glyph unicode="7" horiz-adv-x="1122" d="M103.5 1262.5q-0.5 13.5 0.5 37t0 37.5q0 12 5 62q0 22 213 22q8 0 20.5 -4t19.5 -4q38 0 114.5 4t115.5 4q24 0 74.5 4.5t76.5 4.5q9 0 27 -3.5t27 -3.5q8 0 23.5 2t23.5 2q24 0 71 -3t70 -3q6 0 20.5 -5.5t14.5 -10.5q0 -27 -4.5 -58t-9.5 -52t-15 -57.5t-14 -53.5 q-13 -54 -46.5 -156t-45.5 -149q-20 -70 -66 -181q-13 -22 -22 -47q-12 -50 -37 -119q-4 -9 -7.5 -30.5t-7.5 -30.5q-12 -26 -29 -78.5t-28 -77.5l-6 -36q-1 -12 -5.5 -26.5t-9 -24.5t-12 -26t-10.5 -24q-4 -10 -14 -53.5t-21.5 -80t-21.5 -44.5q-8 0 -23.5 -1t-23.5 -1 q-13 0 -38 2t-38 2q-6 0 -18 -4t-17 -4q-19 0 -54 3.5t-44 4.5l-8 2q-2 4 -2 12q0 49 100 279q9 18 22 72q2 9 11 22q4 6 19.5 52.5t32.5 102t21 66.5q7 18 19 63.5t22 67.5q35 71 56 131q2 8 25.5 88t42 148t18.5 76q0 9 -6.5 15t-19 8t-22 2t-24 -0.5t-16.5 -0.5 q-9 0 -26.5 3t-25.5 3q-5 0 -16 -3t-16 -3q-17 0 -50 3t-49 3q-15 -1 -49.5 -7.5t-52.5 -6.5q-28 0 -85.5 2t-86.5 2q-24 0 -38 7t-19 22.5t-5.5 29z" />
<glyph unicode="8" horiz-adv-x="1261" d="M143 457q0 16 5 35.5t10.5 35t17.5 37.5t18.5 33.5t20.5 34.5t18 29q9 14 22 27.5t22 21.5t27.5 22.5t25.5 20.5q12 6 12 8q0 11 -20.5 33t-43.5 55.5t-28 69.5q-2 13 -12.5 57.5t-10.5 71.5q0 59 41 172q13 36 48.5 72t62 53.5t76.5 48.5q14 9 31.5 15t31.5 9t35.5 4.5 t32.5 2t35.5 0t31.5 -0.5q5 0 16.5 2.5t16.5 2.5q21 0 80 -19q129 -40 211 -135t82 -225q0 -53 -18 -119t-46 -107q-51 -61 -51 -71t17 -23q45 -34 58.5 -44.5t32.5 -34t26.5 -43t25.5 -68.5q14 -38 14 -66q0 -176 -94 -287l-61 -63q-7 -7 -9 -14q-14 -32 -95.5 -66.5 t-129.5 -40.5q-5 0 -17 2t-18 2q-14 0 -43 -4t-43 -4q-35 0 -86 14l-51 13q-28 8 -104 49q-224 131 -224 381zM381 410q0 -39 12.5 -69t31 -48t49 -31t57.5 -19t65 -12q3 0 18.5 -4t22.5 -4q30 0 78 15t88.5 44t38.5 60l4 4q11 19 16 35.5t5.5 26.5t0.5 38q0 11 -2 20.5 t-8 24t-8 19.5q-17 51 -31 63q-59 50 -201 50q-14 0 -40 -3.5t-41 -3.5q-16 0 -50 -24q-61 -38 -83.5 -75t-22.5 -107zM449 1038q0 -64 50 -98.5t117 -34.5q68 0 133.5 42.5t65.5 107.5q0 71 -52.5 109t-127.5 38q-79 0 -132.5 -43t-53.5 -121z" />
<glyph unicode="9" horiz-adv-x="1259" d="M143 1020q0 16 6.5 46t6.5 46q1 13 45 81.5t63 92.5q33 44 143.5 96t167.5 52q23 0 68 -2t68 -2q15 0 36 -7t31 -8q18 -2 32 -8.5t31 -18.5t27 -18q20 -11 36 -23.5t24 -21.5t23.5 -27.5t25.5 -29.5q71 -80 105 -209.5t34 -257.5q0 -131 -26.5 -301.5t-73.5 -261.5 q-18 -32 -29 -60q-5 -11 -25 -38.5t-28 -33.5l-96 -57q-90 -53 -150 -53q-28 0 -82 7t-80 7q-15 0 -26 3t-24 10t-23 10q-104 34 -165.5 81.5t-94.5 137.5q-5 15 -5 20q0 25 75 62t106 37q16 0 31.5 -15t32.5 -36.5t38 -43t56.5 -36.5t80.5 -15q64 0 115 33.5t80 86.5 t44 113t15 120q0 32 -6 69q-9 -5 -38 -22.5t-37 -22t-31 -16.5t-35.5 -15.5t-34.5 -10t-43.5 -8t-46.5 -1.5q-172 0 -287 90.5t-145 259.5q-15 93 -15 119zM367 977q0 -29 6.5 -46t25.5 -44q24 -35 36 -50.5t34 -35.5t48 -27.5t61 -7.5q115 0 188.5 69.5t73.5 182.5 q0 97 -60.5 156t-158.5 59q-123 0 -188.5 -66.5t-65.5 -189.5z" />
<glyph unicode=":" horiz-adv-x="485" d="M102 94q0 65 34.5 116.5t96.5 51.5q54 0 98 -44.5t44 -98.5q0 -41 -43.5 -90t-83.5 -49q-59 0 -102.5 29t-43.5 85zM111 766q0 53 37 88t90 35q68 0 106.5 -36.5t38.5 -104.5q0 -54 -40 -89.5t-95 -35.5q-52 0 -94.5 45t-42.5 98z" />
<glyph unicode=";" horiz-adv-x="630" d="M102 -272q0 15 10 50.5t26.5 83t32 88t33 86.5t21.5 58q1 3 4.5 14t5.5 16t6.5 12.5t11 10.5t15.5 3q30 0 88.5 -2.5t87.5 -2.5t29 -22q0 -28 -57 -162l-82 -203l-4 -6q-10 -22 -13.5 -29t-12.5 -17t-20.5 -12t-31.5 -1h-37v2h-10.5h-14t-15.5 0.5t-17.5 1.5t-16 2 t-15.5 4l-12 6t-9 8t-3 11zM244 762q0 54 44.5 97.5t98.5 43.5q42 0 91 -44.5t48 -84.5v-10q-2 -53 -32.5 -93t-81.5 -40q-64 0 -116 35t-52 96z" />
<glyph unicode="&#x3c;" horiz-adv-x="940" d="M104 713q0 48 9.5 76.5t44.5 48.5q23 15 67 40t51 29l61 30.5t79 45.5q41 30 189.5 108t176.5 78q16 0 19 -20q4 -23 5 -50.5t0 -72t-1 -51.5q0 -31 -29 -47q-81 -50 -239.5 -131t-196.5 -101q7 -11 23.5 -21.5t42 -22t32.5 -15.5q10 -7 56.5 -38t76 -49t60.5 -34 q11 -6 49.5 -25.5t62.5 -34t45 -32.5q27 -21 27 -53q0 -191 -27 -191q-15 0 -196.5 99.5t-239.5 134.5q-131 67 -231 164q-17 17 -17 135z" />
<glyph unicode="=" horiz-adv-x="995" d="M123 856h2v35q3 33 39 33q12 1 109 7.5t137 6.5q28 0 86 -5t86 -5q15 0 47 2t49 2q105 0 141 -10q5 -1 14 -3t12 -2.5t8.5 -2.5t7 -4.5t4 -7t3 -10.5t0.5 -15l2 -17q0 -59 -11 -77q-12 -19 -38 -19q-40 0 -118.5 2t-118.5 2q-12 0 -38 2t-40 2q-115 0 -127 -6 q-15 -5 -19 -4q-7 0 -20.5 2t-20.5 2q-20 0 -62 -4t-64 -4q-24 0 -38 2.5t-20.5 13t-8 17t-2 29.5t-1.5 36zM125 537v26v19q0 12 8.5 21t24 14t32 7.5t38 3t37 0.5t34 -0.5t23.5 -0.5q44 0 159 1t197.5 0.5t157.5 -3.5q16 -1 20 -7.5t4 -23.5l-2 -39v-27q0 -22 -2 -32 q-2 -16 -13 -26t-31 -13.5t-34 -4.5t-39.5 0t-29.5 1q-39 0 -109 4q-73 1 -204.5 -0.5t-172.5 -1.5q-73 0 -86 11.5t-12 70.5z" />
<glyph unicode="&#x3e;" horiz-adv-x="940" d="M125 371q0 32 27 53q17 14 38.5 27.5t35.5 21.5t43.5 23t39.5 20q31 16 60.5 34t76 49t56.5 38q8 5 32 16t41.5 21.5t24.5 21.5q-38 20 -196.5 101t-239.5 131q-29 16 -29 47q0 7 -1 51.5t0 72t5 50.5q3 20 19 20q28 0 176.5 -78t189.5 -108q24 -18 79 -45.5l61 -30.5 q7 -4 51 -29t67 -40q35 -20 44.5 -48.5t9.5 -76.5q0 -118 -17 -135q-107 -99 -231 -164q-77 -45 -249 -139.5t-187 -94.5q-27 0 -27 191z" />
<glyph unicode="?" horiz-adv-x="1208" d="M123 1026q0 10 4.5 31t5.5 28q5 36 11.5 53.5t18.5 38.5t21 44q22 51 74 93t116 67.5t129 39t120 13.5q56 0 112 -8t115 -26.5t104.5 -55t63.5 -87.5q11 -31 30.5 -63.5t28 -60.5t8.5 -80q0 -133 -75 -256q-39 -71 -162 -133q-5 -3 -17 -6.5t-18 -6.5q-14 -6 -44.5 -21.5 t-56.5 -27.5t-44 -16q-23 -7 -37 -22t-20 -38.5t-7.5 -43t-2 -48t-1.5 -41.5q-1 -14 -11 -21.5t-19.5 -8.5t-26.5 -1q-13 0 -40.5 -0.5t-45.5 -0.5t-41.5 1.5t-42.5 4.5q-43 9 -43 92q0 38 16 96q13 52 36.5 90t61 66t71 45t91.5 41q77 31 168 106q32 28 41.5 58t9.5 81 q0 19 -20 43q-47 63 -79.5 79t-111.5 16q-10 0 -29.5 -3t-29.5 -3q-26 0 -82 -25q-42 -18 -67 -50.5t-32.5 -60.5t-17.5 -49.5t-26 -21.5q-74 0 -166 18q-16 2 -28.5 13.5t-12.5 27.5zM319 117q0 54 45 97.5t99 43.5q41 0 90 -44t49 -83v-14q-2 -51 -33 -91t-82 -40 q-65 0 -116.5 34.5t-51.5 96.5z" />
<glyph unicode="@" horiz-adv-x="1937" d="M143 508q0 292 139 535.5t392 379.5q23 14 71 29t56 18q17 7 35 12t41.5 8t36 5t42.5 3t36.5 1h42h36.5q20 0 43 -3t40.5 -6t46 -10.5t41 -11t44.5 -13t39 -11.5q12 -3 24 -8.5t26 -13.5t21.5 -13t24 -16.5t21.5 -14.5q52 -32 96 -67q82 -62 142.5 -181t87 -241.5 t26.5 -233.5q0 -76 -27 -156.5t-73.5 -148.5t-118 -111.5t-152.5 -43.5q-12 0 -36.5 -4.5t-38.5 -4.5q-45 0 -125.5 32t-102.5 65q-7 -6 -35 -27.5t-35.5 -27t-31 -21.5t-36.5 -20.5t-34.5 -13t-43 -11t-46.5 -2.5q-149 0 -305 112q-56 39 -86.5 115.5t-30.5 153.5 q0 118 41 228.5t124 198t194 124.5q88 30 129 30q99 0 165 -20t107 -86q17 -28 25 -33q5 10 14 30.5t12.5 26t13.5 15t24 12t36 2.5q9 0 25 -4q10 -2 38.5 -5t37 -6.5t23.5 -12t20 -26t5 -44.5q0 -47 -28 -131t-56 -176t-28 -158q0 -60 19.5 -88.5t76.5 -28.5q45 0 75 38 t42 100.5t16 108t4 93.5q0 225 -143 422q-19 26 -45 46.5t-65 45t-54 35.5q-69 49 -221 49q-25 0 -75 -7t-73 -7q-43 0 -92 -27q-98 -45 -102 -47q-20 -12 -53 -39.5t-50 -38.5q-131 -90 -209.5 -255.5t-78.5 -332.5q0 -192 55.5 -302t210.5 -208q21 -13 44 -23t54 -21 t45 -17q93 -43 205 -43q58 0 110.5 18.5t89 37.5t54.5 20q8 4 26 15t32.5 17.5t25.5 6.5q24 0 54 -43.5t30 -67.5q0 -20 -16 -33q-182 -147 -383 -147q-52 0 -150 17.5t-141 35.5q-52 22 -73.5 31t-65.5 29t-64 31.5t-56 33t-55 39t-47 44t-46 53t-38 61t-36 73.5 q-52 117 -52 277zM672 561q0 -70 53.5 -116t124.5 -46q73 0 126.5 21t88 62.5t55.5 92.5t35 121q0 1 3 14.5t3 20.5q0 60 -33 96q-8 9 -25.5 28.5t-23.5 25.5t-21 17.5t-27 15t-31 7t-44 3.5q-79 0 -146.5 -60t-102.5 -143t-35 -160z" />
<glyph unicode="A" horiz-adv-x="1110" d="M82 31q0 26 15 74t18 69q3 46 33 137t36 119q12 53 30.5 118t32.5 111.5t37.5 121.5t34.5 110q15 51 42 154.5t42 154.5q4 15 23 71.5t27 88.5q10 39 24 53t51 14l23 -2q47 0 58.5 -10.5t25.5 -58.5q20 -67 55.5 -204t54.5 -204q4 -16 21 -62.5t22 -74.5q5 -27 30.5 -77 t29.5 -81q3 -28 8 -57.5t14.5 -66.5t16 -61t20.5 -69t19 -60.5t22 -65.5t19 -56q5 -18 22 -58t28 -75t11 -59q0 -37 -121 -37q-9 0 -28.5 2t-28.5 2q-28 1 -42.5 21.5t-19.5 49.5t-10.5 57.5t-23 49.5t-49.5 23q-14 0 -40 1t-38 1q-27 0 -76 -6t-70 -7q-7 0 -21 2t-20 2 q-14 0 -43 -2t-43 -2q-13 0 -20 -29.5t-9.5 -65.5t-17.5 -65.5t-43 -29.5q-182 0 -182 39zM418 397q108 -6 215 -6q22 0 55 10q-6 20 -23 63.5t-24 67.5q-37 149 -92 326q-23 -28 -45.5 -116t-34.5 -160q-6 -28 -6 -29q-9 -23 -45 -156z" />
<glyph unicode="B" horiz-adv-x="1284" d="M165.5 812.5q-0.5 21.5 1 50.5t1.5 40q0 14 2 41.5t2 42.5q0 20 -2 58.5t-2 56.5q0 46 1 136.5t1 135.5q0 14 9.5 26t23.5 13q61 3 123 12q41 5 202 5q44 0 129 -7.5t127 -7.5q44 0 93 -23t75 -43.5t74 -62.5q9 -8 14 -12q13 -12 39.5 -86t26.5 -96q0 -16 -2 -47t-2 -46 q0 -61 -35.5 -107.5t-95.5 -90.5l-21 -19q108 -65 159.5 -142.5t51.5 -195.5q0 -84 -17 -151t-45 -113.5t-73.5 -80.5t-93.5 -54t-114 -31.5t-126.5 -15.5t-138.5 -4q-53 0 -158.5 6t-158.5 6h-10.5h-9.5t-7.5 0.5t-7.5 1.5t-5.5 3t-5.5 5.5t-4 8t-4 10.5q-4 15 -8 150 t-4 190v192q0 27 4 83t4 83q0 8 -3.5 22t-4.5 19q-4 17 -4.5 38.5zM393 1100q0 -39 4.5 -111t5.5 -100q1 -17 9.5 -22t27.5 -5q49 0 146 7.5t145 7.5q33 0 86 64.5t53 105.5q0 40 -39 100q-21 31 -68.5 48t-83.5 19.5t-89 2.5q-25 0 -71.5 -5t-65.5 -6h-18t-14 0.5t-9 -1 t-7 -3t-3.5 -6.5t-3 -10.5l-1.5 -16.5q-4 -46 -4 -69zM409.5 324.5q0.5 -18.5 1.5 -45.5t3.5 -47t7.5 -33q171 -6 176 -6q17 0 49 8q13 2 46.5 6.5t44.5 7t36 8.5t36.5 14t29 21.5t30.5 32.5t25 45q29 60 29 106q0 86 -54 140q-4 5 -12.5 17t-14 18.5t-14.5 14.5t-18 13 q-80 41 -170 41q-11 0 -34 -1t-34 -1q-13 0 -38.5 -4t-38.5 -4h-9q-58 -1 -68 -9t-8 -51v-5q1 -28 1 -46q0 -25 -1 -76t-1 -77q0 -6 -0.5 -37.5t0 -50z" />
<glyph unicode="C" horiz-adv-x="1312" d="M143 735q0 121 31 221t100 195q6 8 27 37t32 42.5t30 34t36 33.5q85 60 205 93q8 2 39.5 10.5t45 12t38.5 9t45.5 7.5t40.5 2q10 0 30.5 2t30.5 2q196 0 302 -82q34 -25 34 -119q0 -127 -41 -127q-26 0 -57 31q-21 17 -113.5 36t-130.5 19q-129 0 -233.5 -64.5 t-161.5 -172.5t-57 -236q0 -117 37 -221q6 -19 39 -66q85 -115 178.5 -163t234.5 -48q101 0 207 39q8 2 24.5 10.5t30.5 8.5q43 0 43 -95q0 -63 -4 -92q-4 -36 -66.5 -61t-122.5 -33t-102 -8q-227 0 -401.5 88.5t-272.5 257.5t-98 397z" />
<glyph unicode="D" horiz-adv-x="1359" d="M165 872q0 45 0.5 99.5t0.5 83.5q0 19 3 56t3 56q0 30 -2 94.5t-2 96.5q0 24 6.5 39t15.5 22t25 9t29 2t34 -2.5t33 -2.5q22 0 68 4.5t70 4.5q58 0 131 -17l120 -24q137 -29 283 -150q88 -72 156.5 -198t68.5 -232q0 -30 4 -92q0 -8 2.5 -24.5t2.5 -24.5q0 -108 -52 -219 q-5 -12 -10 -41t-14 -45q-29 -52 -64 -82q-22 -20 -61 -56.5t-58 -53.5t-52.5 -44t-58.5 -41.5t-60.5 -32t-75 -28.5t-86.5 -19q-10 -1 -42.5 -8.5t-50.5 -7.5q-9 0 -26.5 2t-26.5 2q-10 0 -27.5 -5t-27.5 -5q-176 0 -211 10q-40 11 -43 53v41q0 72 3 218t3 220 q0 43 -10 258q-1 39 -1 84zM408 543q0 -187 14 -299q4 -35 86 -35q86 0 194 61q34 19 94.5 60.5t77.5 62.5q58 74 86.5 144t28.5 155v68q0 14 -1.5 25.5t-6 25.5t-7 19.5t-10.5 24t-10 22.5q-6 12 -11.5 31t-12.5 33.5t-19 29.5q-83 109 -181 169t-222 60q-23 0 -59 -4 q-20 -1 -25 -6.5t-8 -24.5q-8 -74 -8 -110q0 -58 5 -172t5 -170q0 -29 -5 -85t-5 -85z" />
<glyph unicode="E" horiz-adv-x="1236" d="M164 238q0 101 1 304t1 306q0 8 5 26t5 29q0 25 -3 77t-3 77q0 20 2 62.5t2 64.5q0 26 -4 76t-4 75q0 31 2 47q1 17 8 22t25 7q18 1 58.5 1t70.5 1.5t57 5.5q34 6 139 6q39 0 118 3.5t118 3.5q16 0 46 -4.5t46 -4.5q10 0 31 4.5t33 4.5h34q30 0 43 0.5t31.5 -2.5t24 -3.5 t14.5 -10t10 -14t4 -23t2.5 -30t-0.5 -41.5v-18q0 -22 -5.5 -36t-13 -20t-22 -8t-27 -1t-33.5 2.5t-36 1.5q-24 0 -71 -5t-70 -5q-19 0 -60 4t-61 4q-24 0 -69 -8.5t-68 -8.5q-8 0 -24.5 1t-24.5 1q-12 0 -34 -1t-32 -1q-20 -3 -20 -22q-7 -140 -7 -244q0 -1 5 -16h186 q9 0 27 -4t26 -4q9 0 26.5 4t26.5 4q18 0 55 -3t56 -3q10 0 28.5 4t28.5 4q11 0 30.5 -4.5t27.5 -5.5q66 -2 78 -16q10 -12 10 -66v-19v-74q-3 -26 -23 -28q-51 -8 -166 -8q-10 0 -31.5 4t-31.5 4q-25 0 -75 4t-73 4q-70 0 -206 -16q-9 -308 -9 -416q0 -23 13 -62 q6 -24 145 -24q31 0 96.5 3t98.5 3h118q16 0 50.5 -5t52.5 -5q13 0 41 1t43 1q57 0 57 -90q0 -33 -2 -54.5t-8.5 -35.5t-12.5 -20t-22 -8t-28.5 -1t-39 2.5t-47.5 1.5t-59 -3.5t-51 -4.5q-19 0 -55.5 1t-53.5 1q-12 0 -31.5 -5t-29.5 -5q-13 0 -40 3t-42 3h-60q-34 0 -104 8 q-8 1 -25 6.5t-26 5.5q-6 0 -21 -4t-22 -4h-68h-41.5t-27.5 4.5t-16.5 7t-7.5 14.5t-2.5 19.5t1 30.5t0.5 39q0 21 -4 61.5t-4 59.5z" />
<glyph unicode="F" horiz-adv-x="1181" d="M164 541q0 17 4 51t4 51q0 8 -2 24.5t-2 24.5q0 20 6 62.5t6 64.5v201q0 43 -5 129t-5 129q0 55 18 111q5 18 29 18q98 0 221 10v-4q4 0 63 1.5t115 5.5t76 10q18 6 37 6q27 0 83 -6.5t85 -6.5q15 0 47 3.5t47 3.5q29 0 47.5 -20t18.5 -48v-30v-43.5t-3.5 -29.5t-9.5 -22 t-19.5 -11.5t-32 -7.5t-48.5 -1q-7 0 -22.5 -2.5t-22.5 -2.5q-14 0 -42.5 2.5t-43.5 2.5q-63 0 -190 -8.5t-191 -8.5q-18 0 -18 -74v-174q0 -32 11.5 -41.5t45.5 -9.5q13 0 38 3t38 3q19 0 58 -3t59 -3q16 0 50 6t52 6q32 0 68.5 -1t81 -2.5t69.5 -2.5q13 0 20 -3.5 t9.5 -13.5t3 -15t0.5 -21q0 -2 -6 -125q0 -24 -7 -32t-30 -9q-92 -6 -154 -6q-15 0 -43 -3t-43 -3t-46 4t-46 4q-71 0 -203 -16q-22 -3 -22 -23q-12 -103 -12 -264q0 -27 2 -39q10 -41 10 -152q0 -8 -4 -28.5t-4 -32.5q0 -10 1 -32t1 -34q0 -16 -1 -27t-6 -18t-7 -11 t-12.5 -5.5t-14.5 -2t-20 0t-23 0.5q-14 0 -40 -6t-40 -6q-39 0 -54.5 12.5t-15.5 48.5q0 11 -6 32t-6 32l2 61q0 26 3 77t3 77q0 115 -4 168q0 3 -3 19.5t-3 25.5z" />
<glyph unicode="G" horiz-adv-x="1394" d="M143 707q0 35 18.5 138t31.5 128q86 165 205.5 271t289.5 159q72 20 135 20q16 0 51 7.5t54 7.5q131 0 185 -16q78 -24 79 -79q0 -21 -1 -61t-1 -61t-11.5 -34t-31.5 -13q-13 0 -37 8q-95 39 -201 39q-8 0 -24 -4q-23 -6 -87 -13.5t-98 -21.5q-58 -23 -125.5 -76 t-93.5 -102q-31 -59 -35 -66q-2 -3 -5 -8q-30 -45 -39 -80l-1 -4q-16 -94 -16 -144q0 -160 115 -313q7 -9 19 -20t21.5 -18.5t25 -19.5t20.5 -16q28 -28 55 -36q102 -40 158 -46q10 -1 36 -8.5t44 -7.5q31 0 47.5 0.5t32 5.5t21.5 11t11 21.5t5.5 32t0.5 48.5q0 3 -6 213 q-1 9 -3.5 14t-8 7t-9.5 2t-13.5 -0.5t-14.5 -0.5q-12 0 -34.5 -2t-33.5 -2q-26 0 -45 8q-22 8 -22 37q-6 135 -6 136q0 36 45 36q6 0 17.5 2t17.5 2q86 11 286 11q18 0 30.5 -7.5t19 -17t9 -27t3 -29t-0.5 -32t-1 -27.5h2q0 -17 -2 -52t-2 -52q0 -21 3 -61t3 -60v-223 q0 -18 -3 -51t-3 -49q0 -6 2 -17.5t2 -17.5q0 -34 -84.5 -55t-136.5 -21q-16 0 -47 -3t-46 -3q-143 0 -309 49q-15 4 -45.5 21t-50.5 20q-15 3 -31 16q-59 46 -103 85t-94.5 95.5t-78 118t-27.5 123.5q0 10 -6 19q-12 22 -19.5 75.5t-7.5 90.5z" />
<glyph unicode="H" horiz-adv-x="1499" d="M164 1167q0 127 10 209q2 20 10.5 30t28.5 13q58 6 125 6q31 0 44.5 -12.5t14.5 -44.5q4 -222 4 -334q0 -18 6.5 -53t6.5 -37q132 -4 196 -4q44 0 131 1t131 1q9 0 17 4q8 6 18 7.5t23 -1t18 -2.5q16 0 58 4q26 2 44 1q13 0 23 -1q2 10 2 31q0 41 -2 121.5t-2 120.5 q0 28 -5 83t-5 81q0 49 137 49q32 0 62 -6q26 -5 37.5 -15.5t17.5 -36.5q7 -30 8 -64v-20q1 -26 -1 -58q-2 -44 -3 -64q0 -56 3 -168t3 -168q0 -34 5 -101.5t5 -101.5q0 -86 -5.5 -247t-6.5 -230q0 -90 -5 -115q-10 -43 -58 -43h-119q-29 0 -41 14q-8 8 -12.5 40.5t-5.5 81 t-1 89.5t1 87t1 53v243q0 33 -4 95q-2 14 -5.5 18t-16.5 4q-123 12 -152 12q-8 0 -12 -4q-14 -6 -98 -6q-31 0 -95 3t-96 3q-36 0 -105 -7.5t-89 -8.5v-35q0 -34 2 -101.5t2 -101.5q0 -12 -3 -33.5t-3 -31.5q0 -58 2 -172t2 -172q0 -22 -4 -62q-4 -22 -123 -22q-89 0 -97 43 q-9 45 -12 104q-2 44 -2 83v25v50.5v54.5v336q0 49 -2 148t-2 149l-2 139q0 8 -2 23.5t-2 23.5z" />
<glyph unicode="I" horiz-adv-x="585" d="M164 1155q0 35 3 105t3 106q0 29 17.5 39t48.5 10q8 0 24.5 4t24.5 4q7 0 20.5 -2t20.5 -2t25.5 1t24 0t15.5 -5t13 -14.5t4 -28.5q2 -22 2 -95q0 -61 -2 -156q-2 -210 -2 -251q0 -94 5 -282.5t5 -282.5q0 -23 2 -71t2 -72q0 -100 -3 -116q-8 -39 -46 -50q-29 -8 -92 -8 q-65 0 -83 27.5t-18 95.5v155q0 16 -2 49t-2 50q0 49 1 148.5t1 148.5v71q0 8 -3 22t-3 21q0 33 1 99.5t1 99.5q0 12 -6 24q4 16 4 31q0 20 -3 61.5t-3 63.5z" />
<glyph unicode="J" horiz-adv-x="1056" d="M102 201q0 25 66.5 76t85.5 51q9 0 21 -14t29 -34.5t41 -41t67.5 -34.5t97.5 -14q50 0 86 33q46 41 59 71.5t13 94.5q0 9 -2 27.5t-2 27.5q0 24 3 75t3 77q0 16 -3 47.5t-3 46.5q0 8 2 24.5t2 24.5q0 12 -1 25.5t-2.5 29.5t-2.5 25v27v56q2 53 2 69q0 37 -6.5 111.5 t-6.5 111.5q0 12 4 38t4 38q0 18 -3 52t-3 50q0 14 5 24.5t17 16.5t22 10t28.5 5.5t28 2t29.5 0t24 -0.5q61 0 73.5 -11t12.5 -71h4q0 -16 -0.5 -47t-0.5 -56.5t1 -48.5q0 -12 3 -36t3 -36q0 -53 -2 -159.5t-2 -159.5q0 -14 5.5 -45.5t4.5 -48.5q0 -13 -2 -37t-2 -37 q0 -23 4 -67t4 -66q0 -57 -10 -125q-2 -12 -6.5 -51t-9.5 -60q-29 -131 -118 -202.5t-224 -71.5q-9 0 -29 -3t-29 -3q-88 0 -208 49q-31 12 -55 30.5t-54 48t-45 42.5q-23 19 -23 43z" />
<glyph unicode="K" horiz-adv-x="1191" d="M164 1126v150v48q0 82 16 96q15 13 99 12h13h40q7 0 22.5 -1t22.5 -1q20 -3 20 -25q0 -37 -2 -111.5t-2 -111.5q0 -88 19 -404l2 -2q42 66 115 188.5t100 165.5q16 26 55 86.5t67 106.5t50 90q8 19 41 19h110q2 0 19.5 0.5t31 0.5t30.5 -1.5t26.5 -6t9.5 -12.5l-159 -262 q-158 -262 -158 -274q0 -20 54.5 -172t122 -332.5t77.5 -210.5q2 -8 15.5 -43.5t22.5 -64t9 -40.5t-17 -12h-170q-45 0 -55 25q-12 28 -24 60.5t-27 75t-23 64.5q-10 28 -22.5 59.5t-28.5 70t-24 59.5q-6 14 -31 86t-43 108q-18 -16 -178 -291q-9 -12 -9 -30v-217 q0 -35 -2 -49q-1 -10 -12 -16t-30.5 -8t-34.5 -2.5t-36 0.5t-24 1q-47 0 -72 6q-13 3 -16 16q-4 34 -4 73.5t2 87.5t2 73q0 107 -2 318.5t-2 316.5q0 40 -3 118.5t-3 118.5z" />
<glyph unicode="L" horiz-adv-x="935" d="M165 1184.5q0 40.5 1 96.5t4 103q2 46 104 46q45 0 99 -13q24 -8 24 -35q0 -24 -1 -73.5t-1 -75.5q0 -34 4 -103t4 -104q0 -31 -2 -92.5t-2 -91.5v-418q0 -107 9 -209h36h22q52 -1 137 3q104 4 149 5q18 0 30 -5.5t18 -12t9 -21t3.5 -23.5t0.5 -28v-46.5t-2.5 -33.5 t-4 -25.5t-10.5 -15.5t-14.5 -11t-24 -4t-31.5 -3h-44q-33 0 -97.5 -3t-97.5 -3q-18 0 -80 -1q-31 0 -57 -0.5t-48 0.5q-43 1 -79 5q-33 3 -41 47q-4 34 -5.5 72.5t-1.5 89t-1 73.5q-2 152 -2 453q0 42 -3 127t-3 127q0 33 -0.5 98t-0.5 105.5z" />
<glyph unicode="M" horiz-adv-x="1654" d="M143 51q0 25 7 72t8 59q2 28 3 83t3 83q3 39 10.5 121t12 145.5t6.5 122.5q3 43 12 84q16 72 16 324q0 13 5 41t5 43l9 149q2 22 20.5 40t40.5 18q49 0 92 -9q16 -4 83.5 -129t144 -279t79.5 -159q55 -107 103 -182q9 -14 16 -14l8 6q12 17 23 41t23 55t18 45 q7 15 23 39.5t22 36.5q139 265 219 444q4 8 10 24t10 26t11 23t16 23q17 19 119 19q22 0 33 -9t14 -32q4 -27 14.5 -93.5t16.5 -115t8 -94.5q0 -11 6 -23q14 -37 21 -192q2 -27 6.5 -145.5t13.5 -182.5q5 -32 18 -106.5t19.5 -117.5t13 -105.5t6.5 -114.5q0 -15 -3 -41 t-3 -41q0 -10 -6.5 -18t-19.5 -12.5t-25.5 -7.5t-32 -4t-30 -1.5t-28.5 0t-20 0.5q-36 0 -51.5 16t-21.5 53q-3 23 -19 179q-3 26 -14 88.5t-14 97.5q-5 43 -14.5 150t-19.5 184.5t-26 148.5q-35 -31 -110 -202t-143.5 -322.5t-96.5 -151.5q-13 0 -20 15q-32 49 -66.5 110.5 t-56.5 103t-61.5 118t-55.5 106.5q-9 18 -26.5 52t-29 56t-28 50.5t-31.5 50.5q-2 -16 -8 -63.5t-9.5 -80t-4.5 -63.5q-4 -134 -8 -211q-2 -30 -7 -94.5t-7.5 -114t-2.5 -94.5q0 -82 -8 -106v-9q2 -21 -10 -36t-33 -21.5t-40 -9t-40 -2.5h-26.5t-25 1.5t-26.5 5.5 t-18.5 10.5t-16 18t-4.5 27.5z" />
<glyph unicode="N" horiz-adv-x="1445" d="M164 1255q0 21 3 61t3 60q0 14 5 24t15 15.5t20 9.5t25.5 5t25.5 1t26.5 -0.5t21.5 -0.5q37 0 56 -37q95 -161 371.5 -563t328.5 -424v14q1 19 -3.5 54t-4.5 52q0 16 2 48t2 47q0 33 -8 57q-6 21 -6 151q0 26 4 77t4 75q0 37 -7.5 109.5t-7.5 109.5l-2 182q0 15 5 26 t17.5 17.5t20.5 10t29 5t26 1.5h27q13 0 40 -2t40 -2q39 0 39 -52q0 -26 -3 -78t-3 -77q0 -17 3 -51t3 -50q0 -107 -4 -311q0 -17 -4 -52t-4 -52q0 -12 4 -39t4 -41q0 -31 -4 -91t-4 -91q0 -27 3 -83t3 -83q0 -15 -4 -46t-4 -48q0 -21 2 -65t2 -67q0 -18 -6.5 -30.5 t-14 -18.5t-24.5 -9t-25.5 -3h-30.5q-6 0 -35.5 -1t-43 0t-36.5 4.5t-38.5 13t-26.5 24.5q-36 49 -113.5 139t-113.5 139q-31 43 -104 153.5t-117 166.5q-20 25 -60 85.5t-65 90.5l-6 -2q0 -45 2 -135t2 -135q0 -21 -3 -64t-3 -65q0 -13 4 -36t4 -34q8 -93 8 -211 q0 -10 -3.5 -27t-4.5 -24q-1 -3 0.5 -17t1.5 -16q0 -16 -2 -24q-4 -18 -44 -27.5t-69 -9.5q-23 0 -38.5 1.5t-36.5 6.5t-32.5 18t-11.5 33q0 57 3.5 169t3.5 167q0 41 -5.5 123t-5.5 123q0 29 -3 86t-3 86q0 76 -6 227t-6 227z" />
<glyph unicode="O" horiz-adv-x="1757" d="M143 715q0 37 15.5 105t15.5 102q0 13 18 46.5t21 45.5q15 53 79.5 124t127.5 124q9 7 23 21.5t20 19.5q30 26 105 59.5t134 54.5q57 17 181 17q237 0 419.5 -126.5t260.5 -346.5q2 -7 11 -32.5t10.5 -31t7 -24.5t7 -27.5t4 -25.5t3 -32.5t0.5 -35.5q0 -9 4 -28t4 -28 q0 -8 -2 -23.5t-2 -23.5q0 -57 -14.5 -118t-41.5 -105q-24 -44 -45 -90q-8 -17 -42.5 -62.5t-45.5 -52.5q-13 -8 -30.5 -27.5t-22.5 -23.5q-90 -78 -216.5 -129t-242.5 -51q-22 0 -58.5 7.5t-49.5 8.5q-6 1 -17.5 -0.5t-15.5 -1.5q-18 0 -66 19q-22 7 -62 14.5t-56 11.5 q-23 7 -41.5 19t-39.5 29t-36 26q-60 35 -119 81t-82 87q-9 16 -31 57.5t-36 63.5q-12 19 -17.5 51t-7.5 39q-20 82 -20 112q0 16 -5.5 49.5t-5.5 51.5zM383 780q0 -11 7 -20q3 -9 2 -18.5t-2.5 -25.5t-2.5 -20q0 -87 43 -182t109 -152q67 -53 75 -61q36 -30 121 -47.5 t150 -17.5q72 0 198 36q3 1 43 25q4 2 22 12.5t25 14.5t19 14t20 20q6 8 29 35.5t31.5 38.5t26.5 36t26 41.5t18.5 40t14.5 46.5t4 47q0 13 4 37t4 37q0 46 -29 155q-50 159 -170 240.5t-290 81.5q-12 0 -33 -3t-31 -3q-91 0 -162 -47q-5 -3 -42.5 -24t-53.5 -36 q-71 -68 -102 -114.5t-60 -132.5q-14 -37 -14 -54z" />
<glyph unicode="P" horiz-adv-x="1286" d="M165.5 1339.5q0.5 21.5 4.5 38.5q6 33 39 43q27 8 83 9h29q45 0 99 -2q72 -3 90 -3q16 0 49 5.5t49 5.5q17 0 35.5 -2.5t44 -7.5t35.5 -7q175 -30 274.5 -105t139.5 -237q26 -110 26 -162q0 -39 -10.5 -100t-24.5 -90q-5 -8 -17.5 -30t-18.5 -33t-18 -30t-21 -31.5 t-21.5 -27t-25.5 -26.5q-61 -59 -157 -96t-185.5 -49.5t-186.5 -12.5q-35 0 -69 -6q-9 -59 -9 -160q1 -6 1 -11v-30q0 -88 -2 -143q-1 -28 -18 -37.5t-48 -9.5q-119 0 -140.5 19t-21.5 114v18q0 13 -1 40t-1 42q0 25 5 73t5 73q0 40 -1 119.5t-1 119.5q0 13 -3 40t-3 42 q0 10 4 32t4 32q0 35 -3 103.5t-3 103.5q0 48 -2 143t-2 143q0 11 -1.5 40t-1 50.5zM387 805q0 -19 4 -57.5t4 -59.5l-2 -65q0 -30 18 -39t54 -9q57 0 91 1.5t92.5 8.5t100 26.5t66.5 50.5q26 30 37 38q66 47 66 220q0 151 -99 228t-256 77q-12 0 -37 -2t-39 -2 q-28 0 -61 10q-15 1 -24 -8.5t-9 -24.5q0 -22 3 -68t3 -69q0 -43 -6 -128.5t-6 -127.5z" />
<glyph unicode="Q" horiz-adv-x="1773" d="M145 707q0 107 2 127q7 65 74 202q33 63 84 133q55 73 153.5 133t205.5 99q23 8 105 17t116 9q88 0 123 -12q39 -14 69 -16q13 -2 27 -5.5t25.5 -7t27 -10t24 -10t26.5 -13t23.5 -12.5t25 -14.5t22.5 -13.5t24.5 -15.5t22.5 -13.5q13 -8 23.5 -23.5t17.5 -21.5 q47 -43 75 -71.5t59 -74.5t46 -92q9 -36 21 -65q14 -30 24.5 -105t10.5 -118q0 -15 -3.5 -45t-3.5 -45q7 -11 7 -25q0 -47 -54.5 -165t-91.5 -161q-18 -24 -18 -30q0 -22 96 -126t96 -130q0 -21 -55 -21q-10 0 -47 -1.5t-59 -0.5t-53 4.5t-52.5 13.5t-34.5 27 q-2 3 -18.5 26.5t-31.5 41.5t-19 18q-2 0 -9 -3t-8 -3q-161 -100 -330 -100q-44 0 -110 8t-105 18l-36 6q-29 1 -87.5 33.5t-78.5 38.5q-29 9 -98.5 66.5t-88.5 87.5q-9 14 -34 46.5t-43.5 60t-26.5 46.5q-60 145 -60 308zM373 795q0 -6 3 -18.5t3 -18.5q0 -12 -1 -37 t-1 -37q0 -26 15 -70t14 -57q36 -79 69 -121q31 -36 65 -68.5t76.5 -65.5t89.5 -53t89 -20q62 0 97.5 2t87 15t89.5 39q1 1 3.5 3t4 3.5t3 3.5t1.5 4q0 6 -84 117.5t-84 128.5q0 19 33 24q128 15 162 15q50 0 76 -39q6 -10 28 -39t29 -45q2 -16 27 -33q42 46 76 139.5 t34 157.5q0 28 -10 66q-5 17 -9.5 55.5t-10.5 58.5q-20 57 -42.5 96.5t-45 65.5t-61 47t-72 33.5t-97.5 32.5q-100 32 -133 32q-18 0 -40.5 -4t-52 -11t-40.5 -9q-104 -21 -197 -85.5t-141 -154.5q-14 -26 -33.5 -79t-19.5 -74z" />
<glyph unicode="R" horiz-adv-x="1357" d="M165 1317q-1 26 0 39t4.5 32.5t14 29t27.5 9.5q27 0 83 -3t83 -3q19 0 54 2t52 2h61q27 0 45.5 0.5t29.5 -0.5q21 0 60 -2.5t69 -7.5q31 -6 90 -14q20 -2 43 -11t34 -15t41 -25t33 -21q109 -67 155 -168t46 -239q0 -75 -19.5 -159t-58.5 -132q-23 -29 -65.5 -74.5 t-57.5 -52.5q-11 -4 -21.5 -11t-23 -17.5t-18.5 -14.5l-4 -2q0 -1 30 -38.5t73 -92.5t86 -113t73 -108t30 -70q0 -17 -18 -21q-124 -18 -170 -18q-47 0 -82 47q-3 4 -36.5 52t-65.5 91.5t-71 93.5t-71 80.5t-49 30.5q-13 0 -41 1t-43 1q-41 0 -127 -4q-12 -1 -16 -6.5 t-4 -17.5q0 -256 -4 -330q-3 -46 -43 -49h-43q-6 0 -24 -0.5t-27.5 0t-25.5 1.5t-25.5 5.5t-19.5 11t-15 18t-5 27.5q-1 34 -1 103t-1 104q-1 38 -6.5 128t-5.5 138q0 40 2 121t2 121q0 22 -3 66t-3 67q0 25 -1 74t-1 74q0 40 -2 120.5t-2 120.5q0 3 -1 29zM408 1206 q0 -75 8 -224.5t8 -225.5q0 -14 -2 -58q-1 -22 -0.5 -40t0.5 -32q2 -29 8 -57q20 0 58 2t57 2q22 0 59.5 4t52.5 5q35 2 101 34q83 52 90 60q47 60 68.5 108t21.5 113q0 32 -4 94q0 11 -4 23.5t-11 28t-10 22.5q-24 67 -90 108t-141 44q-52 4 -80 8q-9 1 -33.5 4.5 t-38.5 3.5q-15 0 -62 -3.5t-52 -6.5q-4 -8 -4 -17z" />
<glyph unicode="S" horiz-adv-x="1255" d="M143 446q0 14 8 23.5t25 12.5t28 4t33 0t25 -1v-2h74q18 -1 29.5 -23t20 -59t11.5 -45q29 -72 105 -108.5t164 -36.5q116 0 165 51q7 7 12 15.5t10.5 20.5t8.5 17q27 43 27 93q0 42 -8 73q-9 46 -54 66q-69 34 -258 96q-9 3 -31.5 8.5t-38 10.5t-30.5 12q-2 1 -33 6 q-69 11 -139 55q-35 24 -72.5 96t-40.5 117q-2 18 -2 53q0 168 94.5 278t260.5 136q70 12 102 12q31 0 119 -18q127 -25 198.5 -77.5t104.5 -166.5q26 -107 26 -125q0 -34 -10 -51t-41 -16q-74 0 -141 12q-19 4 -32 23.5t-24.5 52.5t-15.5 41q-12 24 -27 41t-37 27 t-38.5 16.5t-46.5 8.5t-44.5 2.5t-48.5 0.5h-20q-149 0 -149 -180q0 -49 49.5 -90.5t108 -62t108.5 -25.5q25 -2 73 -16.5t70 -18.5q15 -3 28.5 -8.5t36 -19t25.5 -15.5q12 -6 38 -18t37.5 -19t27.5 -22t28 -35q29 -48 41 -77.5t13 -45t3 -50t9 -73.5q4 -24 4 -39 q0 -75 -76 -229q-24 -50 -136.5 -108t-174.5 -58q-119 0 -210.5 27t-207.5 89q-68 37 -116 146t-48 196z" />
<glyph unicode="T" horiz-adv-x="1245" d="M124.5 1238.5q-0.5 5.5 0 18t0.5 15.5q0 4 -0.5 32t0 40t4 31.5t10.5 31.5q5 13 23 16q258 4 385 4q3 0 303 -6l211 -4q41 0 51 -17.5t10 -62.5q0 -12 -1 -32.5t-1 -30.5q0 -25 -5.5 -41t-13 -24.5t-24 -12t-28 -3t-36 1.5t-38.5 1q-27 0 -80 4t-80 4h-7h-8.5t-9 -0.5 t-9.5 -1t-8 -1.5t-7.5 -3t-5.5 -5t-4.5 -6.5t-1.5 -8.5q0 -4 2 -12.5t2 -12.5q4 -33 4 -156q0 -14 -4 -43t-4 -45q0 -19 2 -59.5t2 -61.5q0 -7 -3 -21.5t-3 -21.5q0 -15 3 -43t3 -43q0 -40 -2 -118t-2 -117q0 -10 2 -30t2 -29q0 -50 -2 -149t-2 -148q0 -46 -26.5 -60 t-76.5 -14q-27 0 -46.5 1t-34 5.5t-24 8t-15.5 13t-8.5 17t-3.5 23t-0.5 27t1 34t0.5 39.5q0 23 -2 66.5t-2 64.5q0 17 2 48t2 48q0 1 -6 451q-1 44 -5.5 154t-4.5 171q0 15 -21 19q-76 6 -151 6q-26 0 -81 -4t-81 -4q-11 0 -19 3t-13 9.5t-8 11.5t-4 16z" />
<glyph unicode="U" horiz-adv-x="1210" d="M145 1184q0 16 2.5 49t2.5 49q0 13 -3 44.5t-2 49.5q3 45 48 45q16 2 51 2q5 0 26 1t36 0.5t33 -2.5t28 -9.5t10 -19.5q0 -7 8 -11q0 -14 -1 -38t-1 -37q0 -9 3 -28t3 -28q0 -6 -3 -19.5t-3 -19.5q0 -12 1 -33t1 -32t5 -33t5 -33q0 -12 -3 -37.5t-3 -39.5v-72v-246v-23 v-57.5t2 -59.5t5.5 -62.5t10.5 -58t17.5 -56t27 -46.5t37 -38.5t49.5 -23t64 -9.5q60 0 102 25t62.5 53t32.5 89.5t14 90.5t3 100q1 22 1 33q1 16 4.5 65t3.5 76q0 10 -3 31t-3 33q0 87 2 261t2 261q0 16 4.5 27t10.5 16.5t19 8t21.5 3t26.5 0.5q64 0 113 -8q13 -2 21.5 -21 t12.5 -50.5t6 -57.5t2.5 -58.5t0.5 -35.5l-2 -2q0 -14 -1 -44t-1 -44q0 -24 5 -76t5 -78q0 -32 -6 -103t-6 -106q0 -13 2 -38t2 -37q0 -44 -8.5 -132.5t-8.5 -132.5q0 -96 -61.5 -196.5t-144.5 -157.5q-23 -15 -50 -21.5t-62 -10t-52 -7.5q-8 -1 -30 -7.5t-38 -6.5 q-129 0 -258 100.5t-160 224.5q-20 78 -20 234q0 76 -6 227.5t-6 227.5q0 30 -4.5 88t-4.5 88z" />
<glyph unicode="V" horiz-adv-x="1284" d="M82 1411q0 16 22 16q25 3 154 3q40 0 51 -15q14 -16 65 -161t110.5 -323t66.5 -198l100 -258q15 28 27 61.5t26.5 83t20.5 66.5q65 187 139 449q6 21 22 85.5t31.5 110t36.5 78.5q5 9 22.5 15t44 7.5t48 2t49 -0.5t31.5 -1q3 0 12 1t15 1t12.5 -1.5t10 -6.5t3.5 -13 q0 -18 -42 -140.5t-48 -152.5q-1 -6 -5 -18.5t-5 -18.5q-82 -262 -125 -393q-13 -38 -33 -104t-38 -120.5t-38 -100.5q-20 -45 -53 -146l-35 -117q-33 -102 -67 -102h-25q-11 0 -30 -1t-30.5 -1.5t-27 2t-25.5 8t-20 17t-16 28.5q-28 74 -72.5 215.5t-54.5 171.5 q-9 27 -97.5 276.5t-160.5 460.5t-72 234z" />
<glyph unicode="W" horiz-adv-x="1615" d="M82 1393q0 37 125 37q3 0 17.5 0.5t19.5 0t17 -1.5t17.5 -4t13.5 -8t12.5 -12.5t6.5 -18.5q171 -857 185 -880q11 28 34 127q13 55 82 407q6 27 16.5 82.5t17 88.5t17.5 79.5t23 85.5q7 23 25 31q32 12 139 12q47 0 63 -37q17 -35 42.5 -177.5t29.5 -157.5 q11 -43 38.5 -157.5t49.5 -196t47 -156.5l6 2q4 15 25 151q11 65 38.5 192t39.5 191q3 15 10.5 60t12 68t11.5 60t15.5 67t17.5 58q15 41 52 41q26 0 78 -2t77 -2q31 0 31 -24t-14.5 -76t-16.5 -61q-46 -220 -63 -365q-8 -69 -23.5 -144t-39.5 -172t-34 -141 q-5 -22 -17 -79.5t-22.5 -98t-23.5 -78.5q-7 -21 -16.5 -72t-20.5 -77q-6 -13 -13 -20t-19.5 -9.5t-18.5 -3t-25 -0.5q-4 0 -39.5 -1t-49 0t-36 10t-34.5 26q-23 35 -61 199t-77 354t-57 248h-6q-19 -53 -42.5 -167t-41.5 -167q-28 -83 -65.5 -248t-51.5 -215 q-10 -41 -47 -41q-21 0 -65 -1t-66 -1q-30 0 -42.5 5.5t-20.5 31.5q-21 66 -48.5 195.5t-31.5 148.5q-30 120 -56.5 252.5t-58 305t-47.5 253.5q-3 17 -22 93.5t-19 109.5z" />
<glyph unicode="X" horiz-adv-x="1363" d="M82 4l8 14q4 6 14 25l19 29q7 11 19 32t44.5 77.5t79.5 135.5l39 54q17 32 38.5 66.5t47 74.5t35.5 57l16 27l50 86q14 22 22 36.5t11 20.5t5 9q-11 16 -28.5 40t-26 35.5t-17.5 27t-14 28.5l-18 30l-25 37q-16 32 -54 90.5t-50 79.5l-33 55l-90 146q-11 13 -31.5 50 t-31.5 48l2 8h12q6 -2 18 -2h2q23 0 27 4h14q30 5 39 5q4 0 19 -3.5t26 -3.5q17 0 25 2h61q4 0 11 -8.5t15 -22.5t11 -18l45 -67l15 -23q8 -22 28 -45l47 -74l84 -125l62 -100l90 129q6 13 24 39t39 68q5 17 98 165q26 43 42 68l8 6q22 13 26 13q1 0 4 -1.5t5 -1.5h2 q11 0 33 -3t36 -3q7 0 23 3t22 3h123l4 -2l-2 -2q-19 -21 -47 -67l-8 -13q-9 -14 -34 -63.5t-53 -95t-60 -82.5q-13 -24 -49 -70.5t-50 -75.5l-69 -108q-52 -101 -68 -105l14 -24l21 -37q8 -9 15 -19t12 -18t10 -15.5t8 -13.5t5.5 -10t3.5 -6l1 -2q13 -20 35.5 -61t36.5 -58 v-2q20 -20 50.5 -77t35.5 -64l24 -45q71 -110 121 -172l6 -8q27 -38 41 -62l27 -39l2 -2v-2h-2q-8 -2 -25 -2h-30q-12 0 -51.5 -1.5t-61.5 -0.5h-2q-53 0 -78 2h-12q-15 1 -32.5 22t-34 50.5t-19.5 32.5l-119 182q-3 5 -7 11.5l-12 19.5t-19.5 31t-33.5 53.5t-49 78.5 l-14 21l-25 -31l-55 -78l-20 -37l-17 -22l-10 -16l-43 -76l-14 -21l-62 -92l-28 -51q-6 -15 -15 -27l-20 -37q-13 -16 -29 -16l-123 -6q-17 -1 -52 1t-52 1h-9q-15 0 -24 6z" />
<glyph unicode="Y" horiz-adv-x="1308" d="M84 1415q8 8 87.5 12.5t121.5 4.5q26 0 37 -17q25 -40 149.5 -274.5t194.5 -319.5q17 30 92 179t141.5 279.5t69.5 133.5q68 25 227 25q23 0 23 -13q0 -18 -95 -199t-210.5 -392.5t-126.5 -233.5q-5 -11 -9 -30t-6 -36.5t-3 -46.5t-1 -43v-43v-32q0 -36 1 -76t2.5 -88.5 t2.5 -75.5q0 -13 3 -37t3 -35q0 -10 -2 -14q-13 -38 -20.5 -42.5t-50.5 -4.5q-85 0 -164 6q-23 0 -23 21q-2 22 -2 47t1 56t1 48q0 9 -3 28t-3 29q0 34 5 102.5t5 102.5q0 73 -14 162q-9 39 -112 205q-32 47 -177.5 317.5t-144.5 294.5z" />
<glyph unicode="Z" d="M145 1368q-3 37 33 43q3 1 21.5 5t26 5t21 1t25.5 -3h9q16 4 33 5.5t40.5 1.5t34.5 1q30 5 35 5h27q20 -9 81 -9h218h139q4 0 12.5 1t13.5 1q26 3 35 -20l8 -33q0 -22 -1 -63.5t-1 -61.5q0 -19 -4 -51q-4 -18 -8 -25l-57 -96l-45 -96q-6 -10 -16 -32t-13 -27l-117 -234 q-45 -86 -131 -258l-90 -174l-10 -21l4 -4q74 0 113 -2q14 0 44 -1t44 -1q25 -1 72 -1t71 -1q13 0 36.5 2t42.5 2t36 -4q17 -3 24 -9t13 -21q4 -12 4.5 -24.5t-1 -29t-1.5 -24.5q0 -30 -4 -88v-19q-21 0 -31 -2l-103 -8q-74 -4 -108 -4t-101.5 2t-101.5 2h-47q-54 -4 -84 -4 q-17 0 -49 2t-49 2q-38 0 -56 -2h-6q-46 0 -57 45q0 3 -1 7.5t-1 6.5q-4 78 -4 119q0 21 8 37q24 46 98 178l39 70q16 30 56.5 104.5t62.5 116.5q10 20 35.5 70.5t42.5 87t31 71.5q10 25 38 81t39 87q4 13 41 105v10q-7 0 -27.5 1.5t-31.5 0.5q-21 -1 -38 -1q-44 0 -71 7 q-7 1 -20 -1.5t-18 -2.5q-5 -1 -162 -12q-9 -1 -20 -1t-24 0.5t-20 0.5h-14q-23 -5 -39 18q-16 24 -16 62z" />
<glyph unicode="[" horiz-adv-x="739" d="M164 -326q0 22 2 65t2 64q0 320 2 383q0 1 3 35t3 51v213q0 123 -3 370.5t-3 371.5q0 21 -3 62t-3 61q0 48 17.5 68t48.5 19t73 -1q6 -1 21.5 2.5t21.5 3.5t18.5 -2t18.5 -2q7 0 20.5 4t20.5 4t19.5 -6t19.5 -6q21 0 64 7t65 7q6 0 10 -5.5t6 -15.5t3.5 -20t2 -24 t0.5 -23v-20.5v-12.5q0 -26 -5.5 -60.5t-18.5 -35.5q-142 -14 -176 -12q-2 -80 -2 -238q0 -27 3 -83t3 -85q0 -94 -2 -282.5t-2 -282.5q0 -17 -3 -48t-3 -46q0 -12 3 -37t3 -37q0 -152 -2 -230q6 3 12 3q7 0 19.5 -6.5t19.5 -6.5q21 0 64 8.5t65 8.5q6 0 10 -5.5t6 -15.5 t3.5 -20.5t2 -24.5t0.5 -23v-20v-12q0 -27 -5.5 -62t-18.5 -36q-143 -13 -205 -9q-13 -10 -35 -10q-21 0 -64.5 4t-66.5 4t-39 12.5t-16 34.5z" />
<glyph unicode="\" horiz-adv-x="978" d="M102 1389q0 41 146 41q34 0 49 -35q17 -33 44.5 -101.5t45.5 -101.5q51 -89 129 -297q23 -59 80 -186.5t82 -196.5h4q-6 -29 94.5 -249.5t100.5 -239.5q0 -16 -27 -25.5t-47 -9.5h-2q-6 1 -28.5 2t-35.5 2.5t-31.5 5.5t-31.5 12.5t-21 20.5q-26 41 -64.5 149.5 t-47.5 128.5q-1 3 -125.5 299t-219 528.5t-94.5 252.5z" />
<glyph unicode="]" horiz-adv-x="739" d="M125 -232q0 9 0.5 23t2 24.5t3.5 20.5t6 15.5t10 5.5q23 0 66 -8.5t63 -8.5q8 0 20 6.5t19 6.5t13 -3q-1 35 -1 73.5t0.5 85t0.5 71.5q0 12 3 37t3 37q0 15 -4 46t-4 48q0 94 -1 282.5t-1 282.5q0 29 2 85t2 83q0 158 -2 238q-37 -2 -174 12q-15 1 -21 35t-6 61v12.5 v20.5t0.5 23t2 24t3.5 20t6 15.5t10 5.5q23 0 66 -7t63 -7q8 0 20.5 6t20.5 6q6 0 19 -4t20 -4t19.5 2t19.5 2q6 0 21 -3.5t20 -2.5q42 0 73 1t48.5 -19t17.5 -68q0 -20 -3 -61t-3 -62q0 -124 -3 -371.5t-3 -370.5v-213q0 -13 1 -27t2.5 -31.5t2.5 -27.5q2 -63 2 -383 q0 -21 2 -64t2 -65t-16 -34.5t-39 -12.5q-22 0 -65 -4t-64 -4q-25 0 -37 10q-62 -4 -202 9q-15 1 -21 36t-6 62v12v20z" />
<glyph unicode="^" horiz-adv-x="1234" d="M123 760q0 28 79 177.5t109 188.5q17 24 42 76t32 64l70 118q20 35 48.5 44.5t76.5 9.5q118 0 135 -17q91 -96 166 -231q3 -6 34 -62t60.5 -109.5t62.5 -114.5t53.5 -102.5t20.5 -47.5q0 -27 -188 -27q-35 0 -56 27q-34 44 -90 157q-23 43 -121 193q-5 8 -16.5 32 t-22 41.5t-20.5 24.5q-13 -24 -97.5 -189.5t-135.5 -248.5q-15 -27 -48 -27q-7 0 -51 -1t-71.5 0t-51.5 5q-20 0 -20 19z" />
<glyph unicode="_" horiz-adv-x="702" d="M-174 -141q0 24 0.5 38t4.5 25t6.5 15.5t14.5 7t19.5 2t29.5 -1t38 -0.5h116q93 0 278.5 -2t278.5 -2q1 0 40 1t66 0t64.5 -3.5t59.5 -11t26 -21.5q9 -27 9 -66q0 -38 -15 -53.5t-53 -15.5q-97 0 -289 2t-289 2q-61 0 -181 -4t-181 -4q-43 0 -43 92z" />
<glyph unicode="`" horiz-adv-x="430" d="M0 1401q0 22 100 22q112 0 142 -4q31 -3 45 -26q143 -200 143 -248q0 -11 -15 -16t-28 -5t-41 3t-41 3q-57 0 -65 5q-45 28 -62 55q-98 124 -147 166q-31 31 -31 45z" />
<glyph unicode="a" d="M82 23q0 13 82 310.5t92 313.5q9 18 12.5 48.5t5.5 39.5q5 21 24.5 76.5t25.5 85.5q6 43 40 169t48 155q11 24 19 50t16.5 59t13.5 50q3 10 8 18.5t10 13.5t15 9t15.5 5.5t18.5 2.5t18.5 1h21.5h20q20 0 30 -19q26 -37 31 -70q6 -32 36.5 -133.5t57.5 -191t27 -98.5 q0 -3 9.5 -37t20 -72t11.5 -43q12 -41 33.5 -120t25.5 -93q162 -480 162 -533q0 -9 -3.5 -13.5t-8.5 -6t-16 -2.5l-113 -6v2h-33q-36 -1 -54.5 16t-21.5 38t-6 56t-8 54q-6 24 -33 24q-129 6 -133 6q-23 0 -49 -2t-58 -5.5t-49 -4.5q-11 -1 -31.5 0.5t-27.5 1.5 q-28 0 -40 -26.5t-11.5 -59t-8 -62t-30.5 -34.5q-46 -8 -70 -8q-14 0 -34 1.5t-47 4.5t-45.5 10.5t-18.5 18.5zM414 403l2 -4q70 -4 213 -4q28 0 55 8q-6 19 -23 63t-24 69q-31 128 -92 329q-13 -17 -26.5 -57t-22 -74.5t-19.5 -85.5t-14 -63q-3 -15 -26 -84t-23 -97z" />
<glyph unicode="b" horiz-adv-x="1288" d="M164 1282v60t6 38.5t10.5 25.5t24.5 11t35.5 6h55.5h3.5h3.5h4q33 0 97.5 2t97.5 2q12 0 34 3.5t33 3.5q10 0 31 -4.5t33 -4.5q23 0 71 2.5t72 2.5q36 0 109 -25q112 -38 166.5 -100t54.5 -175q0 -229 -152 -311q5 -8 29 -18q58 -28 97.5 -87t52.5 -126q0 -9 8 -29 q24 -50 24 -84q0 -49 -17 -122t-40 -113q-29 -50 -69 -99.5t-74 -60.5q-105 -36 -145 -48t-114 -25t-155 -13q-53 0 -158 7t-157 7q-23 0 -31.5 6.5t-16.5 28.5q-6 19 -9.5 58.5t-3.5 68.5t0.5 80.5t0.5 56.5q0 10 -3 31t-3 31q0 31 5 95t5 95v8q-8 13 -8 35q0 19 4 55.5 t4 53.5q0 10 -3 28.5t-3 28.5q0 12 2 38t2 40q0 18 -4 51t-4 51q0 12 2 37t2 37q0 42 -5 129.5t-5 130.5zM395 1075q0 -170 4 -196q49 -5 185 -5q14 0 143 11q62 7 104.5 74t42.5 133q0 48 -32 81t-74 45.5t-88 12.5q-44 0 -130.5 -1t-129.5 -1q-13 0 -15 -3t-4 -16 q-6 -68 -6 -135zM409 310q0 -16 0.5 -36t0.5 -30q1 -9 1.5 -12t2.5 -6t5.5 -3.5l10.5 -1.5q92 -12 180 -12h62q65 0 121 37.5t81 97.5q5 11 13.5 29t13 28.5t8.5 27t4 34.5q0 4 -1 13t-1 13q-3 33 -8 58.5t-14.5 44.5t-17.5 32.5t-24.5 23t-29.5 15t-38 9.5t-43.5 6t-53.5 4 q-62 6 -121 6q-151 0 -151 -29q0 -17 3 -52t3 -52q0 -32 -1 -68t-2.5 -79.5t-2.5 -67.5q-1 -14 -1 -30z" />
<glyph unicode="c" horiz-adv-x="1320" d="M143 723q0 112 38.5 219.5t107 194t158.5 152.5t198 102t219 36q82 0 166.5 -22.5t149.5 -65.5q15 -10 22.5 -30t8.5 -33.5t0 -44.5t-1 -35h2v-39q0 -3 0.5 -15t0 -16.5t-2 -14t-5 -13.5t-10 -7.5t-15.5 -3.5q-22 0 -66 33q-87 62 -235 62q-226 0 -351 -130.5 t-125 -357.5q0 -122 79 -249.5t188 -178.5q9 -3 28.5 -12t34 -14t29.5 -7q37 -6 160 -6q42 0 123 32t114 32q17 0 28.5 -11t17.5 -24t8.5 -36t3 -34.5t0.5 -31.5q0 -13 -3.5 -39t-3.5 -31l-8 -10q-46 -34 -74.5 -47t-83.5 -25q-4 -1 -29.5 -6.5t-41.5 -5.5q-21 0 -64.5 4 t-66.5 4q-17 0 -36.5 2t-42 6.5t-37 8t-41.5 10t-36 8.5q-132 29 -258 123t-174 211l-45 108q-29 82 -29 248z" />
<glyph unicode="d" horiz-adv-x="1357" d="M164 950q0 82 8 238q0 18 -2 55t-2 55q0 80 20 104q19 24 91 23h6h127q373 -3 635 -268q18 -18 51 -74q116 -180 116 -421q0 -172 -139 -377q-14 -22 -117 -101t-133 -94q-84 -47 -206.5 -70.5t-237.5 -23.5q-5 0 -17 3t-18 3q-9 0 -27.5 -2t-27.5 -2q-38 0 -88 16 q-12 4 -19 13t-9.5 24t-3.5 25.5t0 29.5t1 23q0 13 4 40t4 40q0 40 -2 118.5t-2 118.5q0 16 -4 45.5t-4 43.5q0 21 3 61t3 61q0 49 -5 146.5t-5 146.5zM397 1040q0 -31 5 -88.5t6 -81.5q2 -53 2.5 -149t1.5 -127q0 -16 2 -50t2 -52t-3 -56t-3 -57q0 -2 6 -125 q2 -20 7.5 -25.5t25.5 -5.5h67q73 0 187 60t161 120q111 147 111 261q0 40 -14 98q-1 7 -4.5 27.5t-5.5 31.5t-6 28t-9 30.5t-12 25.5q-74 137 -198 219q-120 80 -263 80h-10l-29 -2q-17 0 -21 -4t-6 -20v-138z" />
<glyph unicode="e" horiz-adv-x="1251" d="M165 1296.5q0 10.5 1 27.5t3.5 26.5t6.5 22t12 19.5t18.5 14t25.5 10t34 3q20 0 59 3t58 3h328q25 0 73.5 3.5t71.5 3.5q14 0 43 -3.5t43 -3.5h102q23 0 32 -9t9 -32q0 -10 -2 -30.5t-2 -30.5q0 -35 -5 -54.5t-21.5 -28t-31.5 -10t-51 -1.5h-14q-54 0 -162 3t-163 3 q-131 0 -197 -10q-13 -1 -16.5 -5t-3.5 -18q-2 -27 -4 -81t-4 -81h2q0 -3 -1 -22t-0.5 -34t1.5 -33t5.5 -28t12.5 -10q82 0 248 7.5t248 7.5q66 0 86 -25q6 -18 6 -108q0 -28 -12 -50q-4 -8 -28 -13t-60 -6t-67.5 -1t-66 1t-39.5 1q-54 0 -153.5 -3.5t-130.5 -4.5 q-25 -2 -33 -8.5t-8 -28.5q0 -30 2 -88t2 -86q0 -36 -4 -108.5t-4 -108.5q0 -5 -1 -19.5t-1 -26t1 -24.5t6 -20.5t13 -7.5q18 0 54 2t53 2q15 0 43 -2t43 -2q69 0 208 7t209 7q55 0 70.5 -20t15.5 -78q0 -26 -0.5 -37t-4 -28t-10.5 -24t-21 -12.5t-35 -5.5q-15 0 -46 -5 t-46 -5q-14 0 -43 4t-45 4q-42 0 -127.5 -2t-128.5 -2q-64 0 -195 -4t-197 -4q-51 0 -51 45q0 15 4 45t4 45t-4 46t-4 46q0 8 5 23t5 22q0 38 -2 113.5t-2 113.5q0 72 -4 215t-4 213q0 19 2 58.5t2 60.5q0 34 -7 101.5t-7 101.5q0 10 -0.5 29.5t-0.5 30z" />
<glyph unicode="f" horiz-adv-x="1169" d="M164 659q0 191 2 285q0 14 3 43t3 43q0 12 -3 33t-3 33q0 11 6 33.5t6 35.5q0 7 -4 41t-4 51q0 20 2 57.5t2 55.5q0 62 123 62q3 0 5 -5.5t5 -5.5q45 0 134 5.5t134 5.5q233 0 424 -11q22 -2 32 -11t11 -30q5 -93 5 -110q0 -12 -2.5 -20.5t-8.5 -14t-10.5 -8.5 t-15.5 -4.5t-16 -2t-19 0t-17 0.5h-92q-43 0 -129 3t-129 3q-16 0 -49 -2t-49 -2q-18 0 -52 -2t-52 -2q-11 -157 -11 -168q0 -105 8 -121l13 -10q12 -2 39 -2q40 0 121.5 5t121.5 5h64q24 1 42.5 1t29.5 -1q24 0 61.5 -2t67.5 -6q19 -3 26 -23q4 -15 4 -115 q0 -23 -8.5 -38.5t-20 -23t-31.5 -11t-34.5 -3t-39 1.5t-34.5 1q-57 0 -169 -2t-169 -2q-11 0 -31 -3.5t-24 -3.5q-31 -4 -31 -120q0 -7 3.5 -21.5t3.5 -21.5q0 -12 -4.5 -32t-4.5 -30q0 -11 4.5 -35t4.5 -35q0 -55 -6.5 -164t-6.5 -165q0 -62 -14 -74t-78 -12 q-135 0 -135 37q0 7 2 20.5t2 20.5q0 24 -2 70.5t-2 68.5q0 61 3 180t3 178q0 17 -5 48t-5 48z" />
<glyph unicode="g" horiz-adv-x="1402" d="M143 754q0 27 7 78t8 67q2 17 17.5 43t19.5 35q6 20 38 72q18 27 33 57q3 6 17 20q154 182 372 260q10 3 31 10.5t33 11.5t29.5 7.5t33.5 3.5q25 0 79 8.5t81 8.5q31 0 70 -3t91.5 -11.5t87 -27.5t34.5 -46q0 -24 -6.5 -82.5t-12.5 -77.5q-11 -33 -39 -33 q-32 0 -116 19.5t-129 19.5q-82 0 -105 -6q-100 -25 -172 -64q-9 -4 -19 -12.5t-24 -22t-18 -16.5q-183 -141 -183 -321q0 -7 -3 -22t-3 -23q0 -31 15.5 -77t33.5 -75q6 -11 24 -49t32 -55q97 -125 202 -176.5t263 -51.5q19 0 27 1t14.5 8.5t5.5 23.5v45v90q2 87 2 115v19.5 t-2.5 13t-3 7.5t-6.5 3.5t-8.5 1.5h-13h-15.5h-29h-44.5t-31 4t-22.5 10.5t-12 21t-8 34t-1 51.5q0 4 -1 26t0 33.5t4.5 28t13.5 24t26 7.5q8 0 23 2t22 2q19 0 59 -2t60 -2q12 5 25.5 5.5t31.5 -1.5t27 -2q15 0 43 5t41 5q22 0 34.5 -12.5t12.5 -34.5q0 -2 -6 -56 q-2 -19 -2 -129q0 -7 3 -21.5t3 -21.5q0 -10 -2 -30.5t-2 -30.5q-4 -41 -5.5 -91t-1.5 -83.5t0.5 -94t0.5 -85.5q0 -4 0.5 -14.5t0 -15t-2 -12.5t-6 -13t-11.5 -9q-111 -65 -313 -65q-47 0 -133 20q-108 21 -131 31q-149 68 -197 101.5t-147 144.5q-18 20 -38 59t-26 66 l-6 16q-29 46 -45 125q-29 127 -29 207z" />
<glyph unicode="h" horiz-adv-x="1495" d="M164 655q0 181 2 271q0 13 4 40t4 42q0 12 -3 35t-3 34q0 8 2 25.5t2 25.5q0 11 -2 34t-2 36q0 136 8 178l3 16.5t4 11t3.5 7.5t6 4t7.5 2t12 1t15 1q67 6 140 6q16 0 24.5 -11.5t10.5 -23t2.5 -33.5t1.5 -28h-5q7 -96 11 -338v-18q0 -17 6 -23t24 -6l95 -2q34 0 101 -3 t101 -3q28 0 86 4q37 3 122 4.5t130 5.5q10 1 12.5 4.5t0 13.5t-2.5 15q0 84 3 109q1 5 4.5 27.5t3.5 35.5q0 20 -3 58.5t-3 56.5q0 20 1 58t1 58q1 23 10.5 31t32.5 8h125q37 0 46 -12.5t9 -52.5q0 -32 -2 -96t-2 -95q0 -19 3 -57t3 -57v-207q1 -14 5 -84q4 -57 3 -74v-6 q-3 -1 -1.5 -51t1.5 -51v-23q-1 -20 -1 -48q-2 -46 -1 -60q0 -16 3 -47t3 -46v-79q0 -13 -3 -37t-3 -37q0 -25 2 -74t2 -74q0 -10 -2 -17.5t-7.5 -13t-10 -9.5t-13.5 -6.5t-14 -4t-16.5 -2t-15.5 -0.5h-16.5h-14.5q-23 0 -34.5 0.5t-35 4t-36 14t-13.5 26.5q-6 74 -6 144 q0 8 -4.5 25t-4.5 26q0 11 2.5 33.5t2.5 33.5q0 13 4 40t4 42t-4 42t-4 42q0 106 -11 193q0 5 -0.5 12.5t-0.5 9.5t-2.5 5.5t-7 5t-13.5 2.5q-41 6 -117 6q-14 0 -40 2t-40 2q-51 0 -154.5 1t-154.5 1h-25h-39.5t-28.5 -1.5t-21.5 -3.5t-12.5 -7.5t-9 -11.5t-3 -18.5 t-1.5 -25.5t1.5 -34q2 -41 2 -68l2 -131q0 -19 5 -55.5t5 -53.5q0 -8 -3 -25t-3 -26q0 -8 2 -26t2 -27q0 -18 -2 -52.5t-2 -50.5q-1 -12 -1 -35.5t-1 -35.5q-4 -41 -146 -41h-7h-9q-24 0 -53 8.5t-29 26.5q0 6 5 18.5t5 19.5q0 29 -4 86t-4 86q0 9 2 33t2 37q0 59 -7 177 t-7 175z" />
<glyph unicode="i" horiz-adv-x="583" d="M164 700q0 40 4 119t4 119q0 24 -3 72t-3 71v299q0 10 7 17.5t20 11.5t26.5 6.5t32 3.5t31 1t29 -0.5t20.5 -0.5q67 0 67 -59l-2 -193q0 -24 3 -74.5t3 -76.5q0 -34 -4 -101t-4 -100q0 -37 5.5 -109t5.5 -108q0 -16 5 -44t5 -42q0 -10 -5 -25t-5 -22q0 -23 5 -70t5 -73 q0 -24 2 -71t2 -69t-2 -32q-2 -11 -3 -43.5t-3 -55.5t-14.5 -43t-35.5 -20h-129q-40 4 -50 29q-7 28 -7 128q-1 61 -4.5 174.5t-5.5 206t-2 174.5z" />
<glyph unicode="j" horiz-adv-x="1067" d="M102 190q0 29 67.5 84.5t96.5 55.5q17 0 33.5 -16t29.5 -35.5t40 -38t63 -21.5q2 -1 8.5 -1.5t8.5 -2.5q27 -10 43 -10q66 0 102 27t72 90q6 35 6 90q0 19 1 54t1 52q0 56 4 168t4 168q0 52 -3 157.5t-3 157.5q0 9 -2 28.5t-2 29.5v151q0 19 8.5 31t25 16.5t30 6t36.5 1 t31 -0.5q25 0 40.5 -1.5t35 -8t29.5 -22t10 -40.5q0 -36 -2.5 -107.5t-2.5 -107.5q0 -15 5.5 -45t5.5 -45q0 -55 -3 -167t-3 -167q0 -26 -1.5 -76t-1.5 -74v-82t-3 -77.5t-8.5 -81.5t-17 -73t-28 -74.5t-42.5 -63.5t-60 -60q-56 -43 -95 -57t-108 -14h-84q-39 0 -83.5 14 t-69.5 26t-76 40q-5 3 -25 12t-32.5 16.5t-18.5 14.5q-24 24 -45 51q-17 17 -17 28z" />
<glyph unicode="k" horiz-adv-x="1187" d="M164 1382q0 15 2 23q6 18 24 18q66 4 197 4q4 0 6.5 -4t4 -11t2.5 -15t1 -17.5v-16.5v-15v-9q-2 -84 -2 -252q0 -55 2 -166t2 -167l5 -2q34 52 69 108t81.5 133t66.5 109q5 8 15.5 23.5t18.5 27.5t13 23q22 50 112 202q17 30 33 39q19 13 39 13q30 0 89 -2.5t87 -2.5 q33 0 33 -18q0 -10 -151.5 -262t-151.5 -271q0 -13 7.5 -41t21.5 -70.5t14 -43.5q4 -13 21 -64.5t30.5 -92.5t30 -90t29.5 -84t20 -48q3 -4 9.5 -13.5t8.5 -13.5q104 -266 109 -290q0 -2 -1 -4q-1 -6 -2 -8.5t-3.5 -5t-6 -3t-10.5 -0.5q-26 0 -80.5 -1t-82.5 -1q-29 0 -43 8 q-23 10 -121.5 293t-122.5 313q-8 -17 -94 -146.5t-86 -166.5q0 -21 2 -63t2 -62q0 -9 -1 -18.5t-2.5 -20.5t-2.5 -18q-2 -16 -1.5 -43t-0.5 -45q0 -12 -4 -19.5t-15 -10t-16.5 -3t-22.5 -0.5q-8 0 -42 -1t-57.5 0t-41.5 5q-25 7 -25 29q-8 122 -8 458q0 149 -5 447t-5 446z " />
<glyph unicode="l" horiz-adv-x="950" d="M164 1368q0 15 5.5 25t12.5 15t21.5 7.5t22.5 2.5t25.5 -0.5t22.5 -0.5q40 4 66 4q17 0 24.5 -1t15.5 -7.5t9 -21.5q3 -102 3 -217t-1.5 -255.5t-1.5 -216.5q0 -47 4 -149h-2q2 -25 2 -152q0 -27 10 -159q1 -10 1.5 -13t2 -9t4.5 -7.5t8 -3.5t13 -2q49 0 149 4t150 4 q52 0 74 -19.5t22 -72.5q0 -45 -6 -86q-3 -34 -39 -37q-38 -4 -168 -4h-192q-20 0 -59 -4t-58 -4h-16h-40t-28.5 2.5t-21.5 4t-13.5 10.5t-9.5 14.5t-3.5 24.5t-2.5 32.5v44.5v119q0 20 4 61t4 61q0 24 -2 73.5t-2 74.5q0 144 -5 429t-5 429z" />
<glyph unicode="m" horiz-adv-x="1640" d="M143 51q0 96 18 276.5t21 258.5q6 105 6 213q0 24 3.5 51.5t8.5 60t7 50.5q11 82 22 244t13 181q3 30 31.5 43t64.5 13q44 0 65 -27q78 -106 97 -176q18 -65 141 -283t170 -272q15 16 60 104.5t96.5 196.5t56.5 119q6 11 20.5 31.5t20.5 31.5q22 39 63 118t62 118 q16 25 38 33t56 8q24 0 35.5 -1.5t23 -12t13.5 -31.5q1 -11 24 -180q9 -55 18 -157.5t13 -137.5q1 -9 13 -93.5t12 -132.5q0 -47 12 -150.5t14 -131.5q2 -25 4 -67.5t5 -78t8 -67.5q18 -119 18 -168q0 -11 -3.5 -19t-10.5 -12.5t-14 -7.5t-19 -4t-19.5 -1t-20 0.5t-17.5 0.5 q-12 0 -33 -6t-29 -6q-4 0 -11.5 4.5t-10.5 5.5q-27 10 -34.5 19.5t-12.5 39.5q-11 87 -11 94q-1 11 -9.5 30.5t-8.5 29.5q-2 26 -4.5 87.5t-6 109t-10.5 87.5q-12 67 -12 127q0 83 -33 248h-6q-48 -89 -128.5 -253t-108.5 -218q-8 -15 -22.5 -44t-27 -52t-26.5 -41 q-18 -18 -31 -18q-29 0 -83 85t-105 190t-105 209.5t-78 131.5l-6 -2q-15 -97 -31 -247.5t-16 -227.5q0 -22 -3 -47t-8 -56.5t-7 -48.5q-3 -23 -3.5 -46.5t0.5 -56t1 -46.5q0 -15 -2 -27t-8 -20.5t-10.5 -14.5t-15 -10t-16 -6t-20 -3t-20.5 -1h-23h-22h-16h-16t-14 0.5 t-13.5 2.5t-10.5 4.5t-10 7t-6.5 10.5t-5 14.5t-1.5 19.5z" />
<glyph unicode="n" horiz-adv-x="1466" d="M164 1331q0 45 15.5 64.5t58.5 19.5h17h21.5t21.5 -0.5t23.5 -2.5t20 -4.5t18 -7.5t11.5 -11q21 -32 59 -95.5t59 -95.5q6 -9 19.5 -25.5t17.5 -21.5q52 -64 138.5 -190.5t113.5 -182.5q19 -40 129.5 -188t136.5 -164q3 12 3 23q0 35 -2.5 103.5t-2.5 102.5q0 13 2.5 40 t2.5 42v135q0 31 -5.5 96.5t-5.5 98.5q0 8 3 23.5t3 23.5q0 7 -3 22.5t-3 22.5q0 127 11 232q5 45 83 45q10 0 30 -3t30 -3q9 0 26.5 4t26.5 4q13 0 25.5 -8.5t13.5 -22.5q5 -35 7 -74.5t3 -88t2 -75.5q1 -19 5 -71.5t4 -81.5q0 -173 -13 -303q-4 -26 -4 -59t2 -73.5 t2 -60.5q0 -41 1 -121t1 -120q0 -4 0.5 -47t0 -57t-2.5 -47t-6.5 -57t-11.5 -46q-10 -33 -45 -33q-89 0 -160 8q-65 6 -90 61q-17 33 -38.5 52.5t-25.5 25.5q-43 72 -110 156q-34 43 -90.5 126t-73.5 107q-14 19 -41.5 55t-32.5 42q-20 29 -71 104t-80 115l-6 -4 q-5 -20 -5 -29q0 -50 3.5 -151.5t3.5 -151.5q0 -16 -5.5 -49.5t-5.5 -50.5q0 -42 7.5 -127t7.5 -127v-37t0.5 -34t-1 -27.5t-5.5 -24.5t-12 -17.5t-20.5 -14.5t-30.5 -7.5t-42 -3.5q-37 0 -78 6q-41 3 -41 45q-8 109 -8 250q0 63 3 187.5t3 185.5q0 62 -7 184t-7 182 q0 13 2 37t2 35q0 39 -4 116t-4 115z" />
<glyph unicode="o" horiz-adv-x="1763" d="M143 682q0 182 89.5 350t242.5 260q134 81 226.5 113.5t224.5 32.5q62 0 121 -19h6q19 0 52 -16t44 -19q14 -3 32 -14t27 -14q38 -11 80 -35.5t66 -50.5l78 -94l6 -9q70 -88 126 -199t56 -198q0 -59 -1 -99t-7 -78t-9.5 -58t-18.5 -56t-23.5 -53t-35 -68t-42.5 -84 q-15 -30 -37.5 -53t-55 -47.5t-49.5 -40.5q-7 -15 -45 -39q-36 -17 -67 -39q-43 -26 -143 -45q-87 -16 -140 -16h-16v-2h-6q-14 0 -42 3.5t-38 4.5q-10 -4 -33 -4q-19 0 -34.5 1.5t-24.5 3.5t-26 6t-30 7q-9 2 -43 8.5t-48.5 10.5t-40.5 12t-45 18.5t-36 24.5q-15 12 -30 21 q-42 23 -74 63q-7 8 -47 43q-68 65 -112.5 168.5t-59.5 208.5q-1 10 -9 41.5t-8 48.5zM393 657q0 -66 38 -149t87 -141q11 -14 45 -38t45 -34q24 -21 153.5 -44.5t182.5 -23.5q21 0 46.5 4.5t61 13.5t46.5 11q15 3 21.5 7.5t10.5 17.5q3 9 26.5 18t27.5 12q75 56 102 99 q2 5 7.5 13t9 15.5t2.5 14.5q3 7 36 63.5t33 87.5q0 74 -13 158t-49.5 172.5t-88.5 126.5q-5 4 -13.5 21t-17.5 22q-15 11 -35 22.5t-34 18t-39 18.5t-35 17q-59 26 -142 26q-184 0 -303 -98q-58 -49 -100 -102q0 -2 -2 -2q-8 -4 -13 -13t-9 -22t-7 -17q-8 -15 -23.5 -42 t-22 -39.5t-15 -34.5t-12.5 -44.5t-5 -50.5q-2 -27 -2 -84z" />
<glyph unicode="p" horiz-adv-x="1284" d="M164 1264q0 20 2 59t2 59q1 33 19 43.5t55 10.5q18 0 53 -3t53 -3q6 0 18.5 2t18.5 2q5 0 22 -4t27 -3h60q73 0 120 -2t112 -11.5t116 -27.5q23 -9 58.5 -29.5t49.5 -25.5q57 -21 104.5 -76.5t65.5 -117.5q3 -9 11.5 -37.5t14 -48t10.5 -44t5 -38.5q0 -11 -4 -32t-4 -32 q0 -62 -18.5 -139.5t-47.5 -130.5q-22 -45 -81 -90q-94 -73 -162 -102.5t-180 -41.5q-14 -1 -54 -1h-76q-16 1 -29 1q-80 0 -93 -8v-86q0 -258 -9 -278q-12 -27 -92 -27q-19 0 -58 2t-58 2q-8 0 -12.5 17.5t-5.5 47t-1 55.5t1 54.5t1 32.5q0 26 -2 78.5t-2 77.5q0 24 3 69.5 t3 67.5q0 57 -5.5 162.5t-6.5 148.5q0 34 2 101.5t2 101.5q0 40 -4 121.5t-4 122.5zM397 1182q0 -69 3 -205t3 -203q0 -18 3.5 -51t3.5 -39q0 -15 -0.5 -34.5t-1.5 -26t2.5 -16.5t6.5 -11.5t15.5 -4.5t24 -3h37.5q16 0 49 3t51 3q123 0 207.5 64.5t101.5 183.5q1 10 8 49.5 t7 62.5q0 26 -5 43q-2 7 -5 25t-6.5 31.5t-8.5 25.5q-15 30 -33 53t-42.5 39t-43.5 26t-53.5 17.5t-54 11t-62.5 9.5q-5 1 -23 1.5t-26 2.5q-5 1 -15.5 4.5t-17.5 3.5q-16 0 -45.5 -6.5t-42.5 -7.5q-15 -1 -20 -1.5t-10.5 -4.5t-6 -10.5t-0.5 -20.5v-14z" />
<glyph unicode="q" horiz-adv-x="1779" d="M143 700q0 134 35 271q4 18 20.5 48t20.5 46q5 20 16 39t19.5 29.5t28.5 31.5q84 97 202 172q4 3 10 5t13 4.5t10 3.5q7 3 43 16.5t44 16t38.5 13t43 13.5t39 10t44.5 9t43 4t49 2q84 0 183 -17t172 -45q4 -1 8.5 -4.5t5.5 -3.5q83 -64 116.5 -96.5t104.5 -114.5 q18 -21 36 -62t28 -55q34 -50 49 -112q2 -10 12.5 -51t18.5 -76.5t8 -44.5q0 -104 -32.5 -233t-88.5 -197l-62 -70q26 -34 89 -102.5t92 -108.5q2 -3 18 -15.5t16 -21.5q0 -17 -26.5 -28.5t-66.5 -16.5t-68 -6.5t-50 -1.5q-23 0 -47 6q-17 3 -42 28t-58.5 67.5t-36.5 45.5 q-11 -4 -60.5 -23.5t-70 -26t-60.5 -19t-73 -17t-66 -4.5q-11 0 -33 3t-34 3q-130 0 -215 49q-31 17 -71 28t-71 27t-63 54q-7 8 -55.5 46t-73.5 67q-61 72 -106.5 196t-45.5 219zM371 776q0 -13 6.5 -97.5t7.5 -88.5q30 -68 64 -123q26 -41 59 -71.5t97 -74t75 -51.5 q26 -19 70 -30t81 -11q56 0 153.5 17t115.5 43q-7 10 -55.5 70.5t-81.5 109.5t-33 68q0 26 35 34q110 13 157 13q26 0 53 -23t59 -66.5t38 -50.5q13 23 34 60t27 50t15.5 40t11.5 55t2 72q0 144 -88 270q-5 9 -31.5 38.5t-28.5 39.5q-12 16 -41 38.5t-34 27.5 q-7 16 -104.5 50t-125.5 34q-84 0 -182.5 -33t-185 -97.5t-117.5 -142.5q-19 -49 -39 -112q-14 -42 -14 -58z" />
<glyph unicode="r" horiz-adv-x="1361" d="M164 1368q0 24 7 33.5t30 15.5q39 10 438 10q70 0 135.5 -11t129.5 -34.5t117.5 -67t86.5 -102.5q6 -10 19.5 -37.5t23.5 -41.5q8 -9 17.5 -67.5t9.5 -80.5q0 -115 -35 -234t-107 -184q-21 -19 -62.5 -46t-53.5 -36q3 -6 13 -27.5t17 -31.5q109 -170 205 -289 q64 -82 64 -102q0 -33 -213 -33q-47 0 -78 47q-145 202 -209 307q-13 18 -36 37t-40 19q-28 0 -104.5 -3t-87.5 -6q-12 -3 -15.5 -8.5t-3.5 -17.5q2 -106 2 -320q0 -22 -8 -36.5t-24.5 -20t-30.5 -7t-37 -1.5q-30 0 -51.5 1t-38.5 5.5t-27 8t-17 14t-10 18.5t-4 26t-1 31.5 t0.5 41t0.5 48.5v183q0 13 -4 37t-4 36q0 17 2 53.5t2 55.5q0 23 -5 69.5t-5 71.5q0 20 2 61t2 62q0 20 -1 61.5t-1 63.5q0 20 -4 60t-4 59q0 8 3 24.5t3 24.5t-3 25.5t-3 25.5q0 12 3 33t3 31q0 25 -4 73t-4 72zM410 1020q0 -44 2 -133t2 -133q0 -24 1 -72t1 -72 q0 -20 11 -25t34 -5q75 0 185.5 14t135.5 41q10 10 37 27.5t37 31.5q86 109 86 256q0 67 -51 162q-15 27 -38 48.5t-47 35t-58.5 22.5t-60.5 13.5t-67 6.5t-64.5 2t-64.5 -0.5t-57 -0.5q-4 0 -11 -2t-11 -2v-38v-78q-2 -75 -2 -99z" />
<glyph unicode="s" horiz-adv-x="1284" d="M143 475q0 10 8.5 16.5t18.5 8.5q34 6 152 6q21 0 33 -6.5t18 -26.5q7 -18 10 -35q31 -209 285 -209q60 0 103.5 24.5t90.5 72.5q2 5 8 19t8.5 20.5t7 19t6.5 20.5t3.5 19.5t1.5 21.5q0 42 -22.5 77.5t-59.5 54.5q-54 26 -127 40q-88 17 -195 55t-167 79q-24 18 -39 30.5 t-31.5 32.5t-24.5 41q-11 34 -21.5 91t-10.5 89q0 138 62.5 230t189.5 147q84 33 161 33q96 0 185 -21q42 -11 99.5 -48t80.5 -70q7 -12 29 -35.5t28 -38.5q2 -4 12.5 -25.5t14 -28.5t11.5 -26t11 -30t6 -26.5t3 -29.5q0 -18 -3 -28.5t-11.5 -14.5t-14 -5t-22.5 0t-23 1 q-16 0 -48 -2t-48 -2q-42 0 -54 33q-20 52 -46 84t-74 63q-14 9 -30 13.5t-38.5 8t-32.5 5.5q-32 8 -49 8q-41 0 -100 -23q-31 -13 -66 -71t-35 -93q0 -49 49.5 -88t126 -64.5t155.5 -46.5t152.5 -45.5t102.5 -49.5q76 -66 113 -125t37 -144q0 -7 4 -22.5t4 -22.5 q0 -49 -39 -174q-25 -66 -117.5 -148.5t-155.5 -82.5q-2 0 -74.5 -21.5t-109.5 -21.5q-53 0 -131 16q-16 3 -25 10q-10 7 -65 31q-170 90 -195 145q-5 10 -18 29t-18 29q-19 41 -34.5 112t-15.5 115z" />
<glyph unicode="t" horiz-adv-x="1206" d="M123 1354q0 73 47 73q43 -1 258 -3q98 -1 160 -1q75 0 98 2q26 0 85.5 0.5t94 0.5t84 -2t90.5 -7q15 -1 24.5 -7.5t12.5 -20t3.5 -20.5t0.5 -26q0 -35 -0.5 -57.5t-4 -42.5t-6 -30t-12 -19t-16.5 -11.5t-25 -4t-31.5 -0.5t-42.5 1.5t-52 0.5v2h-143q-8 0 -13.5 -1 t-7.5 -6t-2.5 -6.5t0 -11t0.5 -12.5q0 -35 -1 -104.5t-1 -104.5q0 -22 3 -65t3 -64t-2 -61t-2 -60v-504q0 -20 3 -57t3 -55q0 -46 -18.5 -64t-63.5 -18q-37 0 -58.5 0.5t-42 3.5t-29.5 6t-18 12.5t-10 18t-2.5 27.5t0 35t2.5 47t1 59q0 66 -2.5 200.5t-2.5 200.5 q0 18 2.5 51t2.5 49q0 52 -4.5 156t-4.5 156q0 6 2 20t2 21q0 17 -4.5 52.5t-3.5 55.5q0 15 -4 20t-20 5q-50 3 -145.5 3.5t-135.5 2.5q-25 0 -35 12t-12 39q-4 74 -4 113z" />
<glyph unicode="u" horiz-adv-x="1179" d="M143 1329q0 25 0.5 40t5.5 26.5t8 16.5t17 8t22.5 3h34.5h19q6 0 24 0.5t28.5 0.5t24.5 -2t23 -5q21 -6 21 -28q14 -179 14 -310q0 -17 -2 -51t-2 -51q0 -10 3 -30t2 -29q0 -10 -2.5 -30t-2.5 -30q0 -46 3 -138t2 -138q0 -57 3.5 -99.5t16.5 -96t35 -87.5t64.5 -58 t100.5 -24q19 0 56.5 7t50.5 14q23 15 30 30q33 72 48.5 143.5t17.5 118.5t2 145v36q0 65 -7 197t-7 198q0 10 -0.5 50t-0.5 71t1 69.5t4 67.5t8 43q2 6 6 10.5t11 7t12 4.5t15 2.5t14 0.5h14.5h11.5q37 0 61 -2.5t39 -11t21.5 -16.5t8.5 -26t0.5 -33.5t-3.5 -44.5t-2 -53 q0 -38 8 -69q10 -37 10 -291q0 -16 -1 -49.5t-1 -51.5v-209q0 -21 -10 -118q-2 -14 -4 -55t-6.5 -71t-14.5 -52l-4 -9l-34 -84q-5 -14 -12.5 -26.5t-19.5 -25t-19 -20t-25 -20.5t-23 -16.5t-26 -17.5t-23 -15q-49 -32 -98 -37q-19 -1 -57 -8.5t-60 -7.5q-187 0 -287.5 94.5 t-138.5 280.5q-7 36 -9 82q-1 31 -1 68v39v52.5v32.5q-1 54 -4.5 220.5t-3.5 256.5q0 36 -5.5 106t-5.5 105z" />
<glyph unicode="v" horiz-adv-x="1275" d="M82 1401q0 33 154 33q62 0 77 -21q18 -27 38.5 -93t27.5 -83q21 -51 39 -108t39.5 -135.5t31.5 -110.5q58 -186 125 -369q25 -61 31 -72q19 51 38 106.5t43 128t36 107.5q4 13 31 84.5t28 77.5q1 24 22.5 101t52 176t36.5 120q1 3 5 18t5.5 19t5.5 15.5t8.5 15.5 t11.5 10.5t16.5 8.5t21.5 2q20 0 61 -1t63 -1q16 0 40 -7.5t24 -19.5q0 -51 -59 -229.5t-105 -299.5q-18 -50 -35 -120q-11 -47 -41.5 -134.5t-38.5 -113.5q-10 -30 -27 -85.5t-31.5 -101t-29.5 -86.5q-6 -15 -33 -95.5t-46 -121.5q-8 -22 -35 -22q-101 0 -121 2 q-25 2 -47.5 60.5t-32.5 68.5l-4 14q-65 159 -98 279q-8 36 -43 129t-50 121q-21 43 -32 94q-4 19 -21 53.5t-22 48.5q-26 81 -71.5 234t-55.5 186q-3 7 -18 60.5t-15 56.5z" />
<glyph unicode="w" horiz-adv-x="1642" d="M82 1364q0 68 113 68h13.5h17t18 -0.5t19.5 -1.5t18.5 -2t18.5 -4t14.5 -6t12.5 -8t7 -11q28 -80 47 -183.5t35.5 -227.5t29.5 -189q4 -16 16 -86.5t25.5 -135t24.5 -88.5h6q22 121 45 226q3 12 14 38t13 40t5.5 65t12.5 76l4 8q8 23 43 145v11q0 28 15 77.5t18 71.5 q21 195 98 195q110 0 127 -17q30 -30 35 -61q7 -36 17 -77t23 -90t20 -77q14 -60 59 -265t76 -316h6q8 41 26.5 158.5t34.5 181.5q15 61 15 127q0 36 8.5 93t16 94t25 111t19.5 85q6 27 24 43t44 16q66 0 174 -21q6 -1 10 -1.5t6.5 -2.5t4 -3t2 -4.5t0.5 -5v-8v-9.5 q0 -50 -24 -139t-28 -113q-13 -92 -49 -246q-6 -26 -29 -109t-30 -129q-2 -14 -10.5 -38.5t-10.5 -36.5q-10 -53 -53 -265q-6 -31 -24.5 -121t-26.5 -139q-1 -3 -3 -12.5t-3 -14t-4 -11.5t-6 -11t-8.5 -7.5t-12.5 -4.5q-8 -1 -21.5 -2.5t-24.5 -2.5t-20 -1q-15 0 -42 2 t-42 2q-35 0 -51 16q-23 23 -69.5 204.5t-61.5 264.5q-4 23 -18 123t-27 152q-7 26 -12 81.5t-12 82.5q0 6 -9 10q-2 -11 -6.5 -46.5t-9.5 -52.5q-42 -138 -53 -213q-3 -22 -18 -73.5t-17 -81.5q-2 -26 -18.5 -91.5t-20.5 -90.5q-20 -154 -43 -240q-9 -29 -24 -40t-46 -11 q-114 0 -133 4q-19 6 -29 15.5t-18 12.5q-19 7 -22 35q-7 69 -39.5 189.5t-40.5 161.5q-13 74 -43 169q-7 26 -21 119q-9 57 -32.5 163t-28.5 128q-7 33 -29 116.5t-37.5 154t-15.5 108.5z" />
<glyph unicode="x" horiz-adv-x="1341" d="M82 10q2 2 2 4l14 25q34 62 87 152q39 64 102 171l35 54q66 106 188 307q6 12 6 18q0 5 -4 13l-4 6q-4 8 -8 12q-11 11 -22.5 31t-44.5 77.5t-81 131.5l-190 297q-40 49 -68 100q70 12 119 12l2 2q19 0 29 2h6l76 5q15 -4 29.5 -18t23 -28.5t22.5 -40t21 -36.5l12 -17 q116 -185 225 -340l13 -14l166 287l80 123q3 5 10.5 19.5t10.5 19.5t12 15t17.5 14t23.5 7.5t34 3.5h143q5 0 15.5 -1t15.5 -1h23q16 0 16 -12q0 -21 -16 -47l-43 -66l-33 -47l-96 -151q-3 -4 -20 -23t-23 -30l-17 -27q-6 -11 -22 -33.5t-23 -36.5l-33 -53l-69 -113l-31 -53 l23 -39l61 -96q6 -6 6 -8l4 -8q0 -7 6 -18.5t16 -26t13 -19.5l119 -186q6 -15 24.5 -42t20.5 -30l18 -29q12 -22 97 -149l10 -14q0 -2 6.5 -12.5t13.5 -23.5t9 -20v-6h-86h-134q-18 0 -26 -2q-6 0 -8 4l-9 10q-7 6 -14.5 17t-16.5 25.5t-12 19.5l-8 10l-227 344 q-15 23 -27 37l-2 4q-2 6 -10 14l-10 17l-13 -21q-4 -8 -8 -10l-55 -86q-51 -82 -53 -86l-13 -18q-8 -15 -26 -41l-6 -9l-9 -10q-15 -18 -33 -55.5t-22 -44.5l-24 -41l-11 -25q-11 -25 -25 -42t-30 -17h-6q-8 2 -33 2h-92q-13 0 -37 2t-37 2q-6 0 -19.5 -2t-19.5 -2 q-3 0 -9.5 3t-6.5 7z" />
<glyph unicode="y" horiz-adv-x="1347" d="M82 1405v2q9 10 21 12.5t31 0t24 -2.5q24 0 69 8.5t68 8.5q20 0 29.5 -0.5t22.5 -4t22 -12t16 -22.5q142 -270 195 -387q1 -3 15.5 -32.5t19.5 -39t17 -32t22.5 -37t21.5 -27.5q67 102 145 250q13 26 35 78t35 77q44 90 78 154q7 12 10.5 17.5t11.5 10.5t19 5 q93 0 219 -7q37 0 37 -20q0 -19 -39 -74q-50 -82 -102 -176.5t-114 -212.5t-96 -180q-11 -20 -50 -83t-56 -101q-14 -33 -14 -287q0 -37 6 -110t6 -109q0 -29 -14 -64q-2 -5 -16 -8t-36 -4t-40.5 -1t-40.5 0.5t-25 0.5q-48 0 -61 12.5t-13 59.5q0 487 -14 516 q-17 34 -136 237t-224 386.5t-105 197.5z" />
<glyph unicode="z" d="M143 1343q0 13 1 23t2 18t5 13.5t6 9.5t9 6.5t10.5 3.5t14 1.5t16.5 0.5h20.5h22.5l106 4q18 2 58 2q16 0 50 -4t52 -4q9 0 25.5 2t25.5 2l21 2h41h20q29 0 89 5.5t89 5.5q75 0 80 -48l6 -73q0 -11 -2 -13l-18 -53q-30 -86 -117 -264l-4 -6q-18 -39 -50.5 -123 t-57.5 -137l-37 -80l-13 -39q-4 -18 -8 -25l-33 -67q-7 -15 -27 -53t-30 -60l-4 -10q-22 -66 -53 -135l-15 -31l15 -4q3 0 10.5 -2t11.5 -2q20 4 33 4q8 0 26.5 -2t30.5 -2h2q13 0 38 1t38 1l39 2q22 -4 103 -4h4q19 0 73 4l47 2q33 1 44.5 -29t11.5 -77v-27q0 -3 -1 -8.5 t-1 -7.5l-2 -11q-4 -51 -49 -51l-50 4q-14 1 -43 1t-43 1q-35 0 -104.5 -4t-104.5 -4h-2q-8 0 -12 2h-16q-16 0 -47.5 2t-49.5 2h-6q-26 0 -77 -4t-76 -4q-17 0 -49 1t-48 1q-12 0 -18.5 2.5t-9.5 10.5t-4 16t-2.5 28t-3.5 37l-5 27l5 22q20 113 53 160l8 17l4 5q4 5 4 9 l25 49l127 268q40 82 106 250l25 68l43 100q5 12 19 42.5t21 51t7 37.5v6l-2 9l-12 2q-2 0 -6.5 1t-6.5 1h-8q-37 0 -105.5 -3.5t-97.5 -3.5q-55 0 -190 11h-10q-13 13 -13 118z" />
<glyph unicode="{" horiz-adv-x="798" d="M-10 653q0 12 10 17q12 8 18 8q61 20 107 63q55 50 73.5 110.5t18.5 147.5q0 14 -2 42.5t-2 43.5q0 54 12 164q1 8 4 41.5t4 41t5.5 34t9 35t13 29t19 31.5t26.5 26t36 29q15 11 80 17.5t102 6.5q72 0 105 -4q8 0 8 -8q10 -52 10 -101q0 -3 0.5 -12t0.5 -14t-1.5 -12 t-6 -10t-11.5 -3q-14 0 -44 3t-46 3q-63 0 -74 -84q-8 -76 -8 -170q0 -12 0.5 -57t0.5 -75.5t-1.5 -71.5t-6 -73t-12.5 -52q-5 -12 -18.5 -31.5t-18.5 -30.5q-18 -33 -39 -51t-59 -37l23 -20q9 -5 18 -11.5t15 -11t15.5 -14l13 -13t14.5 -15.5t14 -15q24 -27 30.5 -54.5 t6.5 -72.5q0 -162 -11 -297q-2 -12 -2 -35q0 -168 127 -168q11 0 35 1t37 1q21 0 23 -20q0 -2 6 -97q1 -5 4.5 -20.5t3.5 -22.5q0 -13 -17.5 -22.5t-31.5 -9.5q-47 0 -133 8q-13 1 -62 16q-68 20 -109.5 49.5t-60.5 85.5q-2 8 -8 24t-8 24q-2 14 -2 86q-2 57 -2 172 q0 18 3 54.5t3 55.5q0 38 -10 86q-10 46 -51 93t-84 77t-78 55.5t-35 34.5z" />
<glyph unicode="|" horiz-adv-x="587" d="M164 -195q0 36 2 109t2 109q0 273 2 327q6 87 6 90v228q0 130 -3 391.5t-3 392.5q0 22 -3 65t-3 64q0 31 13.5 61.5t39.5 30.5q22 0 52 0.5t43 1t32 -1t25.5 -4t17.5 -10t13.5 -16.5t7.5 -25.5t6.5 -36t3.5 -49.5h-2q-4 -226 -4 -340q0 -30 3 -89t3 -89q0 -62 -3 -186 t-3 -185q0 -38 6 -113.5t6 -113.5q0 -30 -5 -89t-5 -89q0 -28 1 -83t1 -83q0 -1 0.5 -43t0 -70.5t-1.5 -69t-4.5 -67t-9.5 -35.5q-19 -27 -43 -27q-45 -4 -139 -4q-23 0 -39 13.5t-16 35.5z" />
<glyph unicode="}" horiz-adv-x="798" d="M123 -236q0 6 3 21t3 22q6 95 6 97q3 20 25 20q13 0 36.5 -1t34.5 -1q69 0 98 47.5t29 120.5q0 6 -1 17.5t-1 17.5q-12 147 -12 297q0 44 7.5 72t31.5 55q52 59 90 80l23 20q-39 19 -60 37t-39 51q-5 11 -18.5 31t-18.5 31q-10 25 -15 73t-5 85t1 98t1 73q0 94 -8 170 q-11 84 -76 84q-14 0 -44 -3t-44 -3q-8 0 -12.5 3t-6 10t-2 12t0 14.5t0.5 11.5q0 39 12 101q0 8 8 8q33 4 104 4q37 0 102.5 -7t80.5 -17q20 -14 36 -29t26.5 -26.5t19 -31t13 -29.5t8.5 -34.5t5 -34t4 -40.5t4 -42q13 -119 13 -164q0 -15 -2 -43.5t-2 -42.5q0 -86 18 -147 t72 -111q50 -44 108 -63q7 0 19 -8q10 -7 10 -17q0 -9 -35 -34.5t-78 -55.5t-84 -77t-51 -93q-10 -48 -10 -86q0 -19 3 -55.5t3 -54.5q0 -115 -2 -172q0 -67 -4 -86q-1 -9 -7 -26t-7 -22q-19 -56 -60.5 -85.5t-109.5 -49.5q-49 -15 -62 -16q-86 -8 -133 -8q-15 0 -32 9 t-17 23z" />
<glyph unicode="~" horiz-adv-x="1216" d="M123 567q0 79 34 154t100 126.5t146 51.5q52 0 102 -27t90 -65t79 -76t84.5 -65t91.5 -27q19 0 33.5 7.5t22.5 16.5t14 28t8 29t4.5 34.5t3.5 29.5q4 39 22.5 51.5t61.5 12.5q46 0 60 -13t14 -57q0 -49 -19 -104q-3 -7 -11 -29.5t-11 -30.5t-11 -27t-13 -27t-15 -23.5 t-18.5 -22t-21.5 -16.5t-26.5 -14t-31 -7.5t-37.5 -3.5q-71 0 -135.5 24t-109 58.5t-82 69t-71 58.5t-59.5 24q-33 0 -59.5 -29t-40.5 -64.5t-31.5 -64.5t-34.5 -29q-36 0 -84.5 12t-48.5 35z" />
<glyph unicode="&#xa1;" horiz-adv-x="595" d="M164 1300q0 46 44.5 89t90.5 43q55 0 94 -32.5t39 -86.5q0 -68 -38 -112t-105 -44q-53 0 -89 44.5t-36 98.5zM178 897q0 41 18.5 68.5t57.5 27.5q152 0 152 -57q0 -9 -4.5 -28.5t-4.5 -28.5q0 -22 4.5 -67.5t4.5 -68.5q0 -67 -5.5 -199.5t-5.5 -199.5q0 -7 3 -21.5 t3 -21.5v-143q0 -16 -1.5 -67t-0.5 -79q0 -23 -16 -28q-30 -15 -51 -15q-10 0 -31 1t-33 1q-54 0 -70 15t-16 69q0 13 4 36t4 36q0 22 -3.5 64t-4.5 55q-2 61 -2 188q0 9 4 26.5t4 26.5q0 49 1 147.5t1 147.5q0 20 -6 58.5t-6 56.5z" />
<glyph unicode="&#xa2;" horiz-adv-x="1249" d="M123 537q0 80 2 123.5t11 102.5t31 108.5t58 101.5q48 68 105 104q119 71 184 86q15 5 19.5 9.5t5.5 21.5q2 35 2 104q0 21 9.5 34t28 18t32 6.5t36.5 1.5q27 0 43.5 -1t29 -7t18 -10.5t8.5 -20.5t3.5 -27.5t0.5 -40.5q0 -21 4 -61q3 -18 22 -21q113 -24 178 -75 q59 -43 108.5 -129.5t49.5 -157.5q0 -8 -3.5 -14.5t-10 -11t-13.5 -7.5t-18 -5t-19.5 -3t-21 -1.5t-19 -0.5h-18h-14.5q-33 0 -49 2q-20 2 -32.5 18t-22 39t-22 47.5t-39.5 46.5t-67 33v-151q0 -43 -2 -130t-2 -130v-181q0 -2 -0.5 -21.5t-0.5 -34t1.5 -32.5t6 -28.5 t12.5 -10.5q14 0 26.5 4.5t23 14.5t19.5 20t17 27t13.5 28.5t11.5 31t9 29.5t8.5 28.5t6.5 23.5q6 19 20 21q35 2 105 2q13 0 28 -1.5t34.5 -4.5t32.5 -11t13 -20q0 -21 -8 -53q-6 -23 -12 -42t-10.5 -34t-13 -31t-11.5 -25t-14 -24.5t-14.5 -21t-18.5 -23t-19.5 -22.5 t-25 -27.5t-27.5 -30.5q-21 -24 -85 -48.5t-105 -29.5q-17 -3 -17 -18v-117q0 -24 -13.5 -37.5t-37.5 -13.5q-2 0 -23 -0.5t-28 0t-26 2t-27.5 5.5t-20 10.5t-16 17t-4.5 24.5q-4 95 -2 142q-23 10 -69 26.5t-68 26.5q-88 37 -152 109t-90 163q-45 138 -45 185zM365 612 q0 -57 15.5 -131t43.5 -104q25 -31 82 -84q15 -18 33 -21l-2 660q-54 -14 -95 -73t-59 -125t-18 -122z" />
<glyph unicode="&#xa3;" horiz-adv-x="1155" d="M123 592q1 25 1 54t-0.5 63.5t-0.5 52.5q0 16 8 26t24.5 13t29 4t33.5 -0.5t26 -1.5q6 0 18 1t17 1q-35 103 -35 162q0 8 -5.5 23t-5.5 24q0 10 3.5 31.5t3.5 33.5q0 45 34 111q59 114 157 177t224 63q75 0 163 -25.5t132 -71.5q19 -20 72 -108q10 -25 10 -41 q0 -25 -76.5 -75t-105.5 -50q-16 0 -32 18t-29 39.5t-41.5 39.5t-67.5 18q-75 0 -125.5 -69.5t-50.5 -146.5q0 -31 20.5 -97t42.5 -66q13 0 38 1t38 1h168q97 0 113 -4q33 -7 42 -42q7 -29 7 -96q0 -36 -10.5 -60t-25.5 -35t-41 -15t-47 -3.5t-55 3t-53 2.5q-53 0 -94 -8 q1 -11 4.5 -44.5t3.5 -52.5q0 -35 -7.5 -67t-22.5 -72.5t-21 -62.5q10 -2 27 -2q27 0 81 4t81 4q49 0 196 -13q18 -3 25 -9t10 -23q6 -35 6 -72v-16.5v-19t-0.5 -19t-1.5 -20t-3.5 -18t-6 -17t-8.5 -13.5t-11.5 -12t-15.5 -7t-20 -3q-34 0 -101.5 3t-101.5 3q-26 0 -78 2 t-78 2q-10 0 -55.5 -0.5t-78.5 -0.5t-76 1t-75 4.5t-49 9.5q-32 11 -32 109v84q1 19 17.5 35t40 31t47 35.5t40 57t16.5 86.5q0 12 -3 36t-3 36q0 15 -12.5 23t-24 9t-30.5 1q-24 0 -71 -5t-71 -5q-31 0 -46 11.5t-15 39.5z" />
<glyph unicode="&#xa4;" horiz-adv-x="1325" d="M102 397q0 15 65.5 59.5t65.5 55.5q0 4 -6 16q-77 126 -77 267q0 36 8 71t13.5 49.5t28 59t27.5 55.5q-2 2 -19 18.5t-32 31.5t-32 32.5t-27.5 30.5t-10.5 18q0 18 48 70.5t65 52.5q25 0 82 -53t66 -53q2 0 40.5 18t41.5 21q22 16 53 24t50.5 9t59.5 1h119q47 0 107 -18 t92 -45q23 -17 28 -17q7 0 72 57.5t92 57.5q17 0 59 -50t42 -69q0 -9 -9.5 -22.5t-27.5 -30.5t-31.5 -29t-34 -28.5t-22.5 -18.5q44 -69 62 -116t18 -115t-19 -139q-4 -13 -19.5 -49.5t-29.5 -66.5l-14 -30q0 -10 32 -38.5t63.5 -61.5t31.5 -53q0 -25 -46.5 -65t-70.5 -40 q-17 0 -67.5 59.5t-63.5 59.5q-1 0 -79 -27.5t-114 -27.5q-109 0 -187 7t-153 32q-1 0 -18.5 9t-28.5 9q-23 0 -94 -53t-86 -53q-13 0 -63 53t-50 65zM377 768q0 -107 82 -177.5t192 -70.5q128 0 207.5 58t79.5 182q0 132 -78.5 200t-212.5 68q-120 0 -195 -70t-75 -190z " />
<glyph unicode="&#xa5;" horiz-adv-x="1267" d="M82 1391q0 9 12 12q39 5 88 24l19 5q9 1 40 4.5t48 3.5q16 0 30 -17q16 -21 31.5 -47t32 -59t27.5 -51q19 -33 66.5 -115t72.5 -127q61 -115 84 -150q7 -9 24 -22q18 12 21 20q58 134 94 211q2 4 10.5 20.5t10.5 24.5q20 63 61 142q8 15 26 63.5t35 71.5q8 11 43 18t56 7 q14 0 40 -4.5t40 -4.5q92 0 92 -18v-33q-14 -15 -31.5 -43.5t-27 -46.5t-28.5 -56.5t-20 -39.5l-82 -156q-34 -64 -91.5 -181.5t-78.5 -158.5q74 4 115 4q46 0 66 -4q7 0 10 -10q2 -16 2 -100l-2 -5q-18 -9 -87 -11.5t-110 -0.5h-49q-2 -29 -2 -82q0 -5 -0.5 -16t-0.5 -17.5 t1.5 -16t5 -14t10.5 -8.5t17 -4q23 0 67 2.5t66 2.5q34 0 59 -5q5 0 9 -35.5t4 -52.5q0 -20 -25 -24q-52 -10 -98 -10q-8 0 -24 2t-23 2q-6 0 -18.5 -2t-18.5 -2q-23 -2 -32 -11t-9 -32v-91q0 -8 1 -45.5t1 -65.5t-2 -34q-7 -3 -63.5 -6.5t-73.5 -3.5q-84 0 -84 26 q0 18 1 51.5t1 49.5q0 98 -9 155q-33 2 -117.5 -0.5t-115.5 2.5q-16 2 -19.5 5t-3.5 18l-2 23q0 9 5 67q0 19 18 19q47 4 143 4q8 0 24.5 -1t24.5 -1q20 0 31 6.5t10 25.5l-2 125q-110 -4 -163 -4q-78 0 -80 10q-2 6 -2 39q0 2 -0.5 12t-0.5 17t1 16t4.5 13.5t9.5 5.5h4 q109 0 164 2q-88 145 -182 319q-18 31 -50 93l-69 116q-22 40 -52 103t-30 82z" />
<glyph unicode="&#xa6;" horiz-adv-x="548" d="M164 1198q0 44 4 131.5t4 130.5q0 16 0.5 22.5t3 21t10 20.5t19.5 6q18 0 52 -1t50 -1q5 0 14 1t13 1q41 0 41 -57l8 -332q0 -35 1 -103t1 -102q0 -125 -35 -127q-27 -2 -78 -2q-38 0 -65 8q-21 6 -26 14.5t-7 32.5q-1 21 -4.5 88t-3.5 103q0 23 -1 71.5t-1 73.5z M170 -109q0 330 4 494q0 59 39 61h55q51 0 78 -2q31 -2 31 -43v-149l6 -264v-119q0 -10 0.5 -27t0 -23.5t-1 -19t-2 -17t-4.5 -12.5t-8.5 -11t-12.5 -7.5t-17 -6t-23 -2.5t-30 -1q-48 0 -84 8q-29 7 -29 47q-2 33 -2 94z" />
<glyph unicode="&#xa7;" horiz-adv-x="1228" d="M123 -129q0 50 12 74q10 22 39 67t41 45q7 0 130.5 -60t162.5 -67q48 -10 86 -10q19 0 37.5 3t49 10t36.5 8q18 6 20 6q27 3 43 16.5t31 40.5q18 25 18 47q0 13 -5 23.5t-14 22t-13 20.5q-11 28 -31 41q-51 37 -111 55q-7 2 -58.5 16.5t-72 20.5t-67.5 21t-74 25.5 t-60 25.5t-55 30q-13 10 -47 49q-26 34 -37 51.5t-20.5 46.5t-9.5 62q0 40 8.5 73.5t19.5 55.5t34 45.5t40 37t50 38t52 39.5q-4 3 -28.5 17.5t-30 18t-25.5 17t-26.5 20t-21 20.5t-21 25.5t-15 27.5t-14.5 34q-14 54 -14 92q0 148 149 248q20 14 39.5 21t51.5 12t44 8 q91 23 193 23h47q36 -2 131 -27t115 -43l31 -31q13 -11 18 -15t9.5 -14t4.5 -24q0 -16 -5 -35.5t-10 -30.5t-16 -34t-14 -29q-4 -10 -17.5 -15.5t-25.5 -5.5q-18 0 -44 11t-40 24q-17 13 -28 15q-27 6 -70 32q-18 10 -55 18.5t-60 8.5q-56 0 -113 -30.5t-57 -80.5 q0 -52 33 -75q21 -16 46 -26.5t60 -21t50 -16.5q25 -11 75 -30.5t58 -22.5q4 -2 17.5 -10t21.5 -11q14 -7 41.5 -18.5t36.5 -15.5q57 -26 99 -111t42 -154q0 -45 -17.5 -99t-46.5 -81q-45 -38 -61 -74l31 -18q12 -5 22 -11l17.5 -10.5t16 -11t13.5 -10.5t13.5 -13t12.5 -13 t14.5 -16t15.5 -17q55 -61 55 -138q0 -89 -49 -165q-8 -11 -19.5 -30.5t-22 -34.5t-24.5 -28q-87 -73 -194 -114q-16 2 -45 -2t-39 -4q-8 0 -24 3t-23 3q-9 0 -26.5 -2t-25.5 -2q-32 0 -107.5 13t-98.5 15q-4 1 -17 2t-24.5 2.5t-14.5 3.5q-33 20 -67 25q-24 4 -71.5 24.5 t-74.5 36.5q-16 6 -16 21zM399 618q0 -62 41 -90q6 -3 20 -14.5t23 -15.5q102 -54 183 -54q46 0 83 32.5t37 78.5t-30 104q-5 8 -22.5 22t-20.5 17q-60 52 -105 52q-7 0 -20.5 1t-20.5 1q-25 0 -77.5 -24.5t-67.5 -43.5q-23 -26 -23 -66z" />
<glyph unicode="&#xa8;" horiz-adv-x="618" d="M0 1298q0 25 8 41q2 9 3.5 32.5t9.5 34.5t32 17q4 1 29 10t39 9q43 0 81 -19.5t48 -56.5q12 -54 12 -66q0 -52 -36.5 -90.5t-86.5 -38.5q-41 0 -108 50q-31 18 -31 77zM346 1329q0 45 35.5 79t81.5 34q11 0 31.5 -3.5t27.5 -4.5q42 -4 69 -41.5t27 -81.5q0 -38 -21 -66.5 t-58 -40.5q-42 -14 -62 -14q-46 0 -92 24q-17 8 -28 48t-11 67z" />
<glyph unicode="&#xa9;" horiz-adv-x="1685" d="M143 705q0 76 29 186q32 116 74 194q27 51 67 94t97 91q94 77 218 118.5t251 41.5q161 0 354 -89q115 -54 233 -241q39 -63 57.5 -161t18.5 -191q0 -76 -1.5 -115t-12.5 -98.5t-33 -112.5q-8 -20 -18 -39.5t-25 -42l-23 -34.5t-28 -39.5t-25 -35.5q-55 -81 -123 -127 q-24 -16 -34 -26q-24 -21 -63 -38t-63.5 -23.5t-72.5 -18.5q-56 -16 -109 -16q-374 0 -551 186l-14 14l-16 16t-14.5 15t-15.5 16.5t-14 16t-14 17.5t-12 17t-12.5 19t-9.5 18q-10 25 -60 152q-35 91 -35 236zM307 688q0 -59 29 -141q31 -91 57 -144.5t67 -101.5t98 -79 t144 -58q66 -17 123 -17q111 0 174 17t158 72q142 83 201 266q26 79 26 223q0 108 -49 224t-123 204q-29 34 -100.5 68.5t-120.5 42.5q-111 18 -145 18q-128 0 -191 -39q-16 -10 -49.5 -26.5t-48.5 -26.5q-43 -32 -64.5 -49t-53 -50t-48.5 -65q-33 -61 -58.5 -164 t-25.5 -174zM471 725q0 76 49 176q25 51 107 129q104 96 278 96q72 0 127 -28q33 -16 33 -99l1 -11q0 -11 -0.5 -15t-2 -12.5t-5 -13t-9.5 -7.5q-5 2 -24.5 10t-25.5 10l-22.5 7.5t-26.5 7.5t-24.5 4t-28.5 2q-138 0 -207 -86q-61 -73 -61 -143v-37q0 -51 2 -76 q6 -53 45.5 -107t87.5 -71q74 -29 131 -29q82 0 135 41q6 6 17 6q16 0 23 -21t7 -42q0 -15 -1.5 -27t-7 -21.5t-8 -16.5t-13 -13.5t-14.5 -9.5t-19 -7.5t-18.5 -6t-22.5 -6t-23 -5.5q-20 -4 -32 -4q-8 0 -25.5 2t-26.5 2t-26.5 -1t-26.5 -1q-25 0 -37.5 2.5t-28.5 10.5 t-30 12q-58 21 -109 67q-90 84 -110 172q-27 119 -27 160z" />
<glyph unicode="&#xaa;" horiz-adv-x="1003" d="M123 938q0 73 38 132t103 87l51 19q30 12 66 12q10 0 31.5 -2t31.5 -2q38 0 71.5 -6.5t50 -12.5t67.5 -26l6 -2l8 2v12q3 74 -39.5 111.5t-118.5 37.5q-43 0 -106 -18q-3 -1 -37 -18q-69 -27 -90 -39q-1 0 -3 -1t-3 -1q-15 0 -39.5 39.5t-24.5 52.5q0 22 33.5 46t61.5 32 q22 6 67.5 22.5t69.5 22.5q61 18 151 18h9q35 -3 77 -12q6 -1 19 -1t20 -1q43 -7 76.5 -36.5t51.5 -68.5t30 -91t15.5 -92.5t4.5 -84.5q0 -43 4.5 -130t4.5 -130v-41q0 -22 -7 -30.5t-30 -14.5q-25 -6 -170 -6q-11 0 -18 2.5t-10.5 9t-5 11.5t-3 16.5t-2.5 17.5 q-24 -3 -51 -16q-80 -45 -172 -45q-53 0 -103 13.5t-92.5 40t-68 71t-25.5 100.5zM348 940q0 -36 38 -51t81 -15q127 0 127 78v13q0 74 -78 77q-14 0 -20 2q-4 0 -11.5 1.5t-11.5 1.5q-9 0 -27 -3.5t-22 -3.5q-28 -3 -52 -37t-24 -63z" />
<glyph unicode="&#xab;" horiz-adv-x="868" d="M-10 680q0 8 143 151q4 5 21 24.5t32.5 36.5t34 36t34 30t24.5 11q12 0 42 -5.5t46 -5.5q21 0 36 -22q-18 -21 -62 -66t-65 -73q-7 -8 -22.5 -22t-20.5 -19q-3 -4 -30 -33.5t-39 -46.5q9 -13 67.5 -82.5t107 -131t48.5 -73.5q0 -8 -12 -8q-72 -14 -103 -14q-23 0 -36 16 q-17 15 -131.5 153t-114.5 144zM332 680q0 8 143 151q4 5 21 24.5t32.5 36.5t34 36t34 30t24.5 11q11 0 40.5 -5.5t47.5 -5.5q21 0 36 -22q-16 -20 -61 -65.5t-66 -73.5q-7 -8 -22.5 -22t-20.5 -19q-3 -4 -30 -33.5t-39 -46.5q9 -13 67.5 -82.5t107 -131t48.5 -73.5 q0 -8 -12 -8q-72 -14 -103 -14q-23 0 -39 16q-17 17 -130 154t-113 143z" />
<glyph unicode="&#xac;" horiz-adv-x="1073" d="M123 666v116q0 11 4 15.5t14 5.5q9 3 49 3.5t97 -0.5t59 -1q14 0 41 2t41 2q4 0 12.5 -1t12.5 -1q44 -2 210.5 -4.5t256.5 -9.5q26 -3 28 -23q2 -29 2 -90q0 -14 -1 -28.5t-2.5 -32.5t-2.5 -29q0 -62 -2 -74q-3 -27 -15 -37t-40 -10q-17 0 -49 1t-47 1q-29 2 -43.5 13.5 t-14.5 39.5q0 17 0.5 35t1.5 27t0 19t-1 13.5t-4.5 8.5t-8 5.5t-14 1.5t-19.5 0.5t-27.5 -0.5t-35.5 1l-2 -2q-183 6 -189 6q-44 0 -132.5 -3t-133.5 -3t-45 33z" />
<glyph unicode="&#xad;" horiz-adv-x="911" d="M125 618v32t2 23t3 16.5t7 10t10 6.5t15.5 2t20 0.5t27.5 -1t34 -0.5h114q30 0 89.5 -1t89.5 -1h182q19 0 49 -17q20 -10 20 -82q0 -21 -2 -31q-6 -23 -17.5 -31.5t-35.5 -8.5q-23 0 -66.5 1t-64.5 1h-221q-37 0 -110.5 -4.5t-110.5 -4.5q-13 0 -21 9t-10.5 27.5t-3 26.5 t-0.5 27z" />
<glyph unicode="&#xae;" horiz-adv-x="1685" d="M143 705q0 72 29 186q28 109 74 194q27 51 67 94t97 91q94 77 218 118.5t251 41.5q38 0 129 -17q158 -23 264 -98t194 -215q39 -63 57.5 -161t18.5 -191q0 -76 -1.5 -115t-12.5 -98.5t-33 -112.5q-8 -20 -18 -39.5t-25 -42l-23 -34.5t-28 -39.5t-25 -35.5 q-62 -85 -123 -127q-24 -16 -34 -26q-24 -21 -63 -38t-63.5 -23.5t-72.5 -18.5q-56 -16 -109 -16q-374 0 -551 186q-7 7 -26 26.5t-28.5 30t-24.5 27.5t-25 33t-18 32q-10 25 -60 152q-35 84 -35 236zM307 688q0 -59 29 -141q31 -91 57 -144.5t67 -101.5t98 -79t144 -58 q66 -17 123 -17q111 0 174 17t158 72q142 83 201 266q26 79 26 223q0 108 -49 224t-123 204q-29 34 -100.5 68.5t-120.5 42.5q-13 2 -44.5 7t-56 8t-44.5 3q-132 0 -191 -39q-16 -10 -49.5 -26.5t-48.5 -26.5q-43 -32 -64.5 -49t-53 -50t-48.5 -65q-33 -61 -58.5 -164 t-25.5 -174zM598 635v133q0 51 2 153t2 152q0 26 9 35t34 12q19 3 41 3.5t52.5 -0.5t41.5 -1q103 0 174 -16q68 -15 126.5 -77.5t64.5 -131.5q4 -58 4 -88q0 -31 -5.5 -56.5t-10 -41t-22 -38t-24 -30t-35 -34t-36.5 -34.5q10 -17 41 -61q3 -5 26 -34.5t36 -48t26.5 -44 t13.5 -41.5q0 -5 -2.5 -9.5t-7.5 -7.5t-10.5 -5t-13.5 -3.5t-14.5 -2.5t-15.5 -1h-14h-13h-9q-40 0 -62 39q-12 19 -40 74.5t-48 83.5q-4 7 -9.5 11t-13.5 5.5t-12.5 2t-16 0t-13.5 -0.5h-58q-4 0 -13.5 0.5t-14.5 0.5t-11 -1.5t-9 -6.5t-3 -13q0 -11 2.5 -72.5t-0.5 -72.5 q-3 -17 -11.5 -25.5t-25.5 -9.5q-28 -4 -43 -4q-31 0 -44 9t-13 38q-2 86 -2 260zM745 776q0 -58 5 -102q2 -11 5 -14t13 -3q50 0 91.5 9t78 29t57.5 57.5t21 89.5q0 63 -39 106t-103 49q-35 4 -106 4q-11 0 -15 -1t-6 -5t-2 -14v-205z" />
<glyph unicode="&#xaf;" horiz-adv-x="464" d="M0 1331q0 22 4 62q0 19 23 22q14 2 88 2v-2l270 10q25 5 29 5q51 0 51 -56q0 -43 -4 -63q-6 -40 -51 -43q-160 -4 -240 -4h-82h-20.5h-17.5t-13.5 0.5t-12.5 2.5t-9 5t-7.5 8t-4 12t-3 16.5t-0.5 22.5z" />
<glyph unicode="&#xb0;" horiz-adv-x="800" d="M123 1135q0 78 30.5 145t92.5 102q89 54 143 54q3 0 10.5 -1t10.5 -1h20q29 0 58 -11t47.5 -23t48.5 -34q94 -68 94 -201q0 -70 -51 -174q-24 -49 -76.5 -77.5t-110.5 -28.5q-96 0 -159 27.5t-113 101.5q-17 26 -24.5 39t-14 35t-6.5 47zM313 1180q0 -133 84 -133 q55 0 84 34t29 90q0 42 -27.5 85.5t-66.5 43.5q-44 0 -73.5 -37t-29.5 -83z" />
<glyph unicode="&#xb1;" horiz-adv-x="1193" d="M123 18q0 61 39 68q11 1 39.5 5.5t42.5 4.5q8 0 24 -3t25 -3q106 0 219.5 -2.5t177.5 -5.5t62 -4q45 0 135 3t135 3q17 0 27.5 -9.5t14.5 -28t4.5 -30.5t0.5 -33v-8q0 -14 -2 -38.5t-2 -36.5q-3 -28 -27 -33q-107 -19 -139 -19q-105 0 -205 4t-162 7.5t-75 3.5 q-33 0 -98.5 -5t-98.5 -5q-17 0 -48 1t-46 1q-21 1 -27 7t-8 27q-8 86 -8 129zM123 705q0 60 39 67q11 1 39.5 5.5t42.5 4.5q8 0 24 -3t25 -3q20 0 62.5 2t64.5 2q35 0 53 2q6 29 6 86q0 22 -2 66t-2 67q0 62 2 93q4 39 156 39q96 0 96 -78q0 -144 -6 -285q12 -6 22 -6 q46 0 138.5 3t138.5 3q17 0 27.5 -9t14.5 -28t4.5 -30.5t0.5 -32.5v-8q0 -14 -2 -39t-2 -37q-3 -28 -27 -33q-101 -18 -139 -18q-20 0 -58 3t-57 3l-63 -2q-6 -85 -6 -170v-21t-0.5 -23t-2.5 -26.5t-5 -24t-8.5 -24t-12.5 -18t-17.5 -13.5t-23.5 -4q-47 0 -141 8 q-7 1 -12 2.5t-8 5.5t-5 5.5t-3 8.5t-1 8.5v10.5v10q0 22 -2 67t-2 67q0 20 2 61t2 61q0 19 -18 19q-33 0 -98.5 -5t-98.5 -5q-17 0 -48 1t-46 1q-21 1 -27 7t-8 27q-8 86 -8 130z" />
<glyph unicode="&#xb2;" horiz-adv-x="839" d="M143 639q0 23 4.5 46.5t14 58t12.5 44.5q17 60 199 195q36 28 53 47q2 3 18 26.5t25 35.5t20.5 24t14.5 16.5t5.5 16t2.5 33.5q0 3 1 9t1 9q0 35 -24.5 52.5t-59.5 17.5q-37 0 -60 -17.5t-29 -38t-15 -38t-21 -17.5q-94 0 -123 6q-20 3 -20 21q0 66 22 96q27 41 52 74 q27 33 75 54.5t92 21.5q171 0 238 -84q55 -66 55 -129q0 -5 -1 -15.5t-1 -15.5q0 -67 -25 -130.5t-71 -105.5q-94 -89 -115 -108q-9 -9 -43 -31.5t-43 -36.5q20 -8 185 -8q12 0 33.5 2t31.5 2q6 0 11 -3t7.5 -9.5t4 -12.5t2 -15t1 -15t0 -14.5t-0.5 -10.5q0 -58 -13.5 -70 t-74.5 -12q-16 0 -46 1t-46 1q-20 0 -60 -4q-25 -4 -119 -4q-10 0 -30.5 1t-30.5 1q-12 0 -34 -1t-32 -1q-43 0 -43 35z" />
<glyph unicode="&#xb3;" horiz-adv-x="843" d="M143 858q0 37 12 49.5t50 12.5q81 0 112 -7q12 -4 16.5 -23.5t6 -44t8.5 -49t31.5 -41t66.5 -16.5t65.5 37t23.5 82q0 27 -9 46t-20.5 29.5t-34 18t-38 10t-44.5 5.5q-7 1 -37.5 1t-46.5 3q-14 3 -18 8.5t-4 21.5v21q0 6 -0.5 21.5t0 18t2 12t5 10.5t10 5t16.5 4.5 t24 0.5h8q29 0 44.5 0.5t41.5 5.5t40 14t25 27.5t11 44.5q0 24 -16.5 50t-38.5 26q-39 0 -60 -8t-26.5 -19.5t-8.5 -23.5t-14.5 -21.5t-36.5 -11.5q-9 0 -26.5 -1t-26.5 -1q-4 0 -18 -0.5t-17 0t-10 4t-8.5 10.5t-1.5 20q0 100 69.5 162t169.5 62q91 0 152 -61t61 -152 q0 -34 -8 -60t-17 -41t-32 -49l16 -16q45 -30 66.5 -83.5t21.5 -113.5q0 -131 -80.5 -207t-213.5 -76q-60 0 -120.5 28.5t-95.5 74.5q-20 29 -33.5 84t-13.5 96z" />
<glyph unicode="&#xb4;" horiz-adv-x="430" d="M0 1145q0 48 143 248q17 23 45 26q31 4 142 4q100 0 100 -22q0 -14 -31 -45q-56 -48 -145 -166q-19 -28 -64 -55q-8 -5 -63 -5q-15 0 -43 -3t-41 -3t-28 5t-15 16z" />
<glyph unicode="&#xb5;" horiz-adv-x="1329" d="M166 829v33.5v39.5t1.5 36.5t4.5 40.5t9 33t14 30q5 11 32 15q86 4 131 4q17 0 36.5 -14t19.5 -31q0 -4 -2 -14t-2 -15q0 -7 3 -19t3 -18q4 -58 4 -88q0 -24 -3 -72t-3 -71q0 -20 4 -57.5t4 -55.5q0 -12 -2 -34t-2 -35q0 -21 9 -62t9 -61v-15q-1 -55 24 -85t81 -58 q50 -27 116 -27q81 0 146.5 38t105.5 108q6 12 6 35t-2 67.5t-2 65.5q0 10 1 29.5t1 29.5q0 33 -1 99t-1 100q0 32 -8 114v7q0 16 1 35t2.5 42.5t2.5 36.5q0 35 35 35q48 0 146 -4q2 0 7.5 1t8.5 1q8 0 14.5 -3t11 -8t7.5 -10.5t5 -14t3 -15t1.5 -17t0.5 -15.5v-15v-13 q0 -15 -2 -42.5t-2 -41.5t1 -40t1 -39v-41q0 -47 10 -105v-20l2 -76q0 -31 -3 -92t-3 -92q0 -37 5 -109t5 -108q0 -103 -12 -142q-10 -28 -121 -28q-32 0 -98 4q-18 3 -22.5 9.5t-4.5 27.5q0 51 -6 92q-2 -1 -34 -25t-43.5 -31t-38 -22.5t-48 -21t-43.5 -5.5q-5 0 -16.5 2 t-16.5 2q-7 0 -21.5 -2t-21.5 -2q-17 0 -34.5 2.5t-27.5 4t-30.5 8.5t-25.5 8.5t-31 12t-29 11.5q-1 -24 -4 -100t-6 -117v-30q0 -16 4 -48t4 -49q0 -15 -10 -65q-7 -10 -31.5 -17.5t-40.5 -7.5q-10 0 -22 1t-26 2.5t-23 2.5q-45 2 -66.5 17t-21.5 59q0 29 -2.5 88t-2.5 88 l-6 387q-4 50 -4 76q0 17 1 52.5t1 52.5q0 63 -8 190t-8 190z" />
<glyph unicode="&#xb6;" horiz-adv-x="1396" d="M123 1077q0 65 35 131t88 105l8 8q42 51 134 77.5t173 26.5q9 0 26.5 -3t26.5 -3q28 0 86 8h56q19 0 56.5 1.5t55.5 1.5q170 0 293 -5q31 -2 46 -15.5t16 -43.5v-106q1 -15 5.5 -55.5t4.5 -63.5v-54q0 -147 -2 -221q0 -16 -4.5 -44t-5.5 -40q-1 -25 -1.5 -105.5 t-2.5 -123.5q-11 -168 -11 -182q0 -35 3 -105.5t3 -105.5q0 -14 -3 -40t-3 -38q0 -14 3 -42t3 -42q0 -12 -1 -36.5t-1 -37.5q0 -146 -2 -176q0 -52 -2 -61q-3 -18 -11 -24.5t-26 -6.5q-5 0 -24 -0.5t-30.5 -0.5t-30.5 1.5t-31 5.5t-24.5 10.5t-18.5 18t-6 26.5q0 19 3 60 t3 61q2 63 2 187q0 15 -2 43t-2 41q0 81 4 237q0 135 6 203q6 74 6 151q0 16 -4 46t-4 45q0 21 3 65.5t3 67.5q0 20 -2 58t-2 58v236q-118 12 -180 12q-8 0 -24 -1t-23 -1q-10 -1 -13.5 -2t-6.5 -5t-3 -13q0 -19 1 -59.5t1 -61.5q0 -14 -2 -44t-2 -46q0 -73 4 -220t4 -219 q0 -13 -1 -36.5t-1 -34.5q0 -37 5 -110t5 -109q0 -34 -6 -72v-55q-2 -43 -2 -127q0 -248 -4 -373q-1 -26 -13.5 -35.5t-39.5 -9.5q-13 0 -41 2t-41 2q-23 0 -37 15.5t-14 39.5q0 40 2 120t2 120q0 35 -4 105.5t-4 105.5q0 26 2 77t2 76q0 237 -9 265q-3 14 -16 14 q-16 4 -27 4q-70 5 -159 45q-59 28 -126.5 112.5t-90.5 151.5q-2 6 -11 25q-10 21 -16 66.5t-6 76.5z" />
<glyph unicode="&#xb7;" horiz-adv-x="518" d="M123 766q0 53 37 88t90 35q68 0 106.5 -36.5t38.5 -104.5q0 -54 -40 -89.5t-95 -35.5q-52 0 -94.5 45t-42.5 98z" />
<glyph unicode="&#xb8;" horiz-adv-x="382" d="M0 -276q0 16 11 40.5t24 24.5q15 0 42 -7t42 -7q98 0 98 69q0 28 -18 47t-45 19q-8 0 -24 -4t-24 -4q-19 0 -37 9t-18 26q0 9 7.5 24t13.5 21q9 10 17.5 23t13.5 23t13.5 26t12.5 24q21 35 53 35q8 0 25 -1t26 -1q19 0 19 -13q0 -14 -41 -82q6 -2 31.5 -10t32 -10.5 t25.5 -10t26 -14.5t19.5 -18.5t20 -26t13.5 -32.5q4 -16 4 -23q0 -9 -4 -25q-22 -103 -75 -137.5t-159 -34.5q-22 0 -52 3.5t-61.5 15.5t-31.5 31z" />
<glyph unicode="&#xb9;" horiz-adv-x="610" d="M143 1190q0 30 4 92q3 17 17 31q48 43 94 98q23 27 47 29q72 14 101 14q34 0 40 -37q5 -23 8 -56.5t4 -77t1.5 -74.5t0 -79t-0.5 -61q0 -27 -1 -80t-1 -78q0 -41 4 -122.5t4 -122.5q0 -22 -0.5 -30.5t-5 -22.5t-15.5 -19.5t-30 -5.5q-1 0 -35 -3t-51 -3l-17 2 q-18 0 -29.5 10.5t-15 26.5t-5.5 35t-1 37t0 32h2q-6 189 -6 195q0 26 -4 78t-4 77q0 3 1 10.5t1 10.5q0 17 -4 41q-1 7 -4.5 11t-10.5 5.5t-10.5 2t-13 0t-10.5 -0.5h-11.5h-10.5t-8.5 0.5t-8 1.5t-6.5 3.5t-5.5 6.5t-2.5 9.5t-1 13.5z" />
<glyph unicode="&#xba;" horiz-adv-x="917" d="M123 1079q0 63 10 107q12 50 44 104.5t81.5 97t99.5 48.5q11 1 31 4.5t36.5 5.5t31.5 2q95 0 182 -43.5t119 -124.5q14 -35 25.5 -103.5t11.5 -111.5q0 -9 -11 -64q-4 -43 -14 -65q-41 -95 -109 -155t-161 -60q-18 0 -111 10q-37 5 -88 29q-178 96 -178 319zM319 1092 q0 -79 39.5 -136t116.5 -57q47 0 80 32.5t46 75.5t13 89q0 72 -44.5 129t-114.5 57q-50 0 -89 -44.5t-44 -94.5q-3 -27 -3 -51z" />
<glyph unicode="&#xbb;" horiz-adv-x="868" d="M123 936q15 22 37 22q16 0 46 5.5t42 5.5q9 0 24 -11.5t33.5 -30t34 -36t32 -36.5t21.5 -24q144 -144 144 -151q0 -6 -114.5 -144t-131.5 -153q-13 -16 -37 -16q-30 0 -102 14q-13 0 -13 8q0 12 48.5 73.5t107 131t67.5 82.5q-12 17 -39 46.5t-30 33.5q-5 5 -20.5 19 t-22.5 22q-21 28 -65 73t-62 66zM465 936q15 22 35 22q18 0 48 5.5t42 5.5q9 0 24 -11.5t33.5 -30t34 -36t32 -36.5t21.5 -24q144 -144 144 -151q0 -5 -114 -142t-132 -155q-16 -16 -37 -16q-30 0 -102 14q-15 0 -15 8q0 12 49.5 73.5t108 130.5t68.5 83q-12 17 -38.5 45.5 t-31.5 34.5q-5 5 -20.5 19t-22.5 22q-20 27 -64.5 71.5t-62.5 67.5z" />
<glyph unicode="&#xbc;" horiz-adv-x="1665" d="M143 1190q0 30 4 92q3 17 17 31q41 34 94 98q23 27 47 29q3 0 42 7t59 7q34 0 40 -37q5 -23 8 -56.5t4 -77t1.5 -74.5t0 -79t-0.5 -61q0 -27 -1 -80t-1 -78q0 -41 4 -122.5t4 -122.5q0 -22 -0.5 -30.5t-5 -22.5t-15.5 -19.5t-30 -5.5q-1 0 -35 -3t-51 -3l-17 2 q-18 0 -29.5 10.5t-15 26.5t-5.5 35t-1 37t0 32h2q-6 189 -6 195q0 26 -4 78t-4 77q0 3 1 10.5t1 10.5q0 17 -4 41q-1 7 -4.5 11t-10.5 5.5t-10.5 2t-13 0t-10.5 -0.5h-11.5h-10.5t-8.5 0.5t-8 1.5t-6.5 3.5t-5.5 6.5t-2.5 9.5t-1 13.5zM303 12q0 35 178 299q4 7 41 71 t58 95q40 61 84 123q106 156 174 277q8 15 26 41.5t25 37.5q4 5 10 18.5t10 18.5q83 124 199 340q14 24 26.5 34.5t36.5 10.5q45 0 111 -16q16 -6 16 -19q0 -18 -10 -28q-15 -19 -29 -41t-30.5 -49.5t-26.5 -42.5q-37 -55 -96 -152q-2 -4 -5.5 -13t-7.5 -16.5t-8 -11.5 q-15 -19 -29 -41t-30.5 -49.5t-26.5 -42.5l-98 -154q-177 -277 -283 -454q-16 -26 -44.5 -78.5t-54 -94t-52.5 -73.5q-16 -16 -39 -16q-59 0 -100 8q-25 0 -25 18zM946 340q0 46 25 88q7 12 110 182q15 25 42 70.5t50 83t44 70.5q17 25 49 28q74 0 131 8h8q41 0 41 -82 q0 -49 -5 -147t-5 -147v-68q1 -12 11.5 -16.5t23 -3.5t22.5 0q24 -3 31.5 -8.5t11.5 -26.5q6 -24 6 -52q0 -18 -3 -30t-6 -19t-12.5 -10.5t-16 -4t-23.5 -1.5t-27 -2q-10 -192 -14 -229q-1 -18 -7.5 -23.5t-25.5 -7.5q-3 0 -33 -3t-45 -3q-35 0 -46 21.5t-11 60.5 q0 27 4 83.5t4 84.5q0 15 -5 20.5t-20 5.5q-89 6 -182 6q-15 0 -47 -2t-47 -2q-14 0 -18 5t-7 20q-8 32 -8 51zM1133 408h22q13 0 38 2t38 2q3 0 14 0.5t16 1.5t10.5 6t6.5 14q2 0 1 58l-1 59v47q0 21 -2 33h-6q-18 -25 -37.5 -55.5t-32.5 -52.5t-34.5 -59t-32.5 -56z" />
<glyph unicode="&#xbd;" horiz-adv-x="1738" d="M143 1190q0 30 4 92q3 17 17 31q48 43 94 98q23 27 47 29q72 14 101 14q34 0 40 -37q5 -23 8 -56.5t4 -77t1.5 -74.5t0 -79t-0.5 -61q0 -27 -1 -80t-1 -78q0 -41 4 -122.5t4 -122.5q0 -22 -0.5 -30.5t-5 -22.5t-15.5 -19.5t-30 -5.5q-1 0 -35 -3t-51 -3l-17 2 q-18 0 -29.5 10.5t-15 26.5t-5.5 35t-1 37t0 32h2q-6 189 -6 195q0 26 -4 78t-4 77q0 3 1 10.5t1 10.5q0 17 -4 41q-1 7 -4.5 11t-10.5 5.5t-10.5 2t-13 0t-10.5 -0.5h-11.5h-10.5t-8.5 0.5t-8 1.5t-6.5 3.5t-5.5 6.5t-2.5 9.5t-1 13.5zM303 12q0 35 178 299q4 7 41 71 t58 95q40 61 84 123q106 156 174 277q8 15 26 41.5t25 37.5q4 5 10 18.5t10 18.5q83 124 199 340q14 24 26.5 34.5t36.5 10.5q45 0 111 -16q16 -6 16 -19q0 -18 -10 -28q-15 -19 -29 -41t-30.5 -49.5t-26.5 -42.5q-37 -55 -96 -152q-2 -4 -5.5 -13t-7.5 -16.5t-8 -11.5 q-15 -19 -29 -41t-30.5 -49.5t-26.5 -42.5l-98 -154q-177 -277 -283 -454q-16 -26 -44.5 -78.5t-54 -94t-52.5 -73.5q-16 -16 -39 -16q-59 0 -100 8q-25 0 -25 18zM1042 37q0 24 4.5 47.5t14 57t12.5 44.5q17 60 199 195q48 42 53 49q6 8 20 28t23 31q10 13 21 25t14 16.5 t5.5 16t2.5 33.5q0 3 1 9t1 9q0 35 -24.5 53.5t-59.5 18.5q-37 0 -60 -17.5t-29 -38t-15 -38t-21 -17.5q-6 0 -36.5 -1t-49.5 0t-37 5q-11 3 -15.5 7t-4.5 14q0 66 22 96q27 41 52 74q27 33 75.5 54t92.5 21q171 0 237 -81q55 -70 55 -132q0 -5 -1 -15t-1 -15 q0 -67 -25 -130.5t-71 -105.5q-20 -18 -58 -54.5t-57 -53.5q-9 -9 -43 -31.5t-43 -36.5q15 -6 185 -6q12 0 33.5 1t31.5 1q6 0 11 -3t7.5 -9.5t4 -12.5t2 -15t1 -15t0 -14.5t-0.5 -10.5q0 -57 -14 -69.5t-74 -12.5q-15 0 -46 1t-46 1q-40 0 -60 -4q-25 -4 -119 -4 q-10 0 -30.5 1t-30.5 1q-12 0 -34 -1t-32 -1q-43 0 -43 35z" />
<glyph unicode="&#xbe;" horiz-adv-x="1814" d="M143 858q0 38 11.5 50t50.5 12q81 0 112 -7q12 -4 16.5 -23.5t6 -44t8.5 -49t31.5 -41t66.5 -16.5t65.5 37t23.5 82q0 27 -9 46t-20.5 29.5t-34 18t-38 10t-44.5 5.5q-7 1 -37.5 1t-46.5 3q-11 2 -16.5 8t-6.5 9.5t0 16.5t1 17v30.5t3.5 20t5 12.5t11 5.5t14.5 2.5 t23.5 -0.5t30.5 -0.5q18 0 26 2l56 10q26 4 41.5 28.5t15.5 53.5q0 24 -16.5 50t-38.5 26q-39 0 -60 -8t-26.5 -19.5t-8.5 -23.5t-14.5 -21.5t-36.5 -11.5q-9 0 -26.5 -1t-26.5 -1q-4 0 -18 -0.5t-17 0t-10 4t-8.5 10.5t-1.5 20q0 100 69.5 162t169.5 62q91 0 152 -61 t61 -152q0 -34 -8 -60t-17 -41t-32 -49l16 -16q45 -30 66.5 -83.5t21.5 -113.5q0 -131 -80.5 -207t-213.5 -76q-60 0 -120.5 28.5t-95.5 74.5q-20 27 -33.5 83t-13.5 97zM451 12q0 15 36.5 76.5t86.5 138t55 84.5q16 26 48 82t50 84l86 123q113 172 172 277l51 79 q4 5 10.5 18.5t10.5 18.5q88 132 200 340q23 45 62 45q47 0 113 -16q16 -6 16 -19q0 -15 -10 -28q-80 -110 -183 -285q-4 -6 -10 -21t-10 -20q-15 -19 -29 -41t-30.5 -49.5t-26.5 -42.5q-6 -9 -100 -154q-147 -230 -281 -454q-15 -24 -44.5 -78t-55.5 -95t-54 -73 q-16 -16 -36 -16q-59 0 -103 8q-24 0 -24 18zM1096 340q0 46 22 88q21 36 62.5 103t48.5 79q12 20 60 100.5t75 123.5q17 25 49 28q88 0 133 8h8q23 0 32 -26t9 -56q0 -45 -5.5 -143.5t-4.5 -150.5v-68q0 -12 11 -16.5t23.5 -3.5t22.5 0q23 -3 30.5 -8.5t13.5 -26.5 q6 -24 6 -52q0 -18 -3 -30t-6.5 -19t-13 -10.5t-16 -4t-23 -1.5t-26.5 -2q-9 -173 -15 -229q-3 -18 -9.5 -23.5t-25.5 -7.5q-8 -1 -23.5 -2.5t-28 -2.5t-23.5 -1q-60 0 -60 82q0 28 5.5 84t5.5 84q0 15 -5 20.5t-20 5.5q-92 6 -182 6q-17 0 -49 -2t-48 -2h-5.5t-4.5 1 l-3 1.5t-2.5 2t-2 2.5t-1.5 3.5t-1.5 4t-1.5 5t-2 5.5q-6 24 -6 51zM1282 408h23q13 0 37 2t36 2q5 1 14.5 1t14.5 1q18 3 18 20q1 16 1 34t-0.5 39.5t-0.5 33.5v90h-8q-22 -32 -43.5 -66.5t-51 -86t-40.5 -70.5z" />
<glyph unicode="&#xbf;" horiz-adv-x="1208" d="M123 367q0 131 76 256q40 71 161 133q5 3 17 6t18 6q3 1 62.5 30.5t83.5 35.5q23 7 37 22t19.5 38t7 43t2 48t1.5 41q1 14 11.5 21.5t20 8.5t26.5 1q12 0 51.5 1t67 0t51.5 -5q43 -9 43 -92q0 -35 -17 -97q-11 -42 -30 -75.5t-39.5 -56t-54.5 -43.5t-62 -34t-74 -32 q-74 -30 -168 -107q-32 -28 -41.5 -58t-9.5 -81q0 -19 20 -43q47 -63 79 -78.5t112 -15.5q10 0 29.5 3t29.5 3q28 0 82 24q42 18 67.5 50.5t32.5 61t17.5 50t26.5 21.5q68 0 165 -19q16 -2 28.5 -13.5t12.5 -27.5q0 -10 -4.5 -31t-5.5 -28q-5 -36 -11.5 -53t-18 -38 t-21.5 -44q-22 -51 -74 -93t-115.5 -67.5t-128.5 -39t-120 -13.5q-56 0 -112 8t-115.5 26t-105 54.5t-63.5 87.5q-11 31 -30.5 63.5t-28 61t-8.5 80.5zM606 1288v15q2 51 33 91t82 40q65 0 116.5 -34.5t51.5 -96.5q0 -54 -45 -98t-99 -44q-41 0 -90 44t-49 83z" />
<glyph unicode="&#xc0;" horiz-adv-x="1110" d="M82 31q0 26 15 74t18 69q3 46 33 137t36 119q12 53 30.5 118t32.5 111.5t37.5 121.5t34.5 110q15 51 42 154.5t42 154.5q4 15 23 71.5t27 88.5q10 39 24 53t51 14l23 -2q47 0 58.5 -10.5t25.5 -58.5q20 -67 55.5 -204t54.5 -204q4 -16 21 -62.5t22 -74.5q5 -27 30.5 -77 t29.5 -81q3 -28 8 -57.5t14.5 -66.5t16 -61t20.5 -69t19 -60.5t22 -65.5t19 -56q5 -18 22 -58t28 -75t11 -59q0 -37 -121 -37q-9 0 -28.5 2t-28.5 2q-28 1 -42.5 21.5t-19.5 49.5t-10.5 57.5t-23 49.5t-49.5 23q-14 0 -40 1t-38 1q-27 0 -76 -6t-70 -7q-7 0 -21 2t-20 2 q-14 0 -43 -2t-43 -2q-13 0 -20 -29.5t-9.5 -65.5t-17.5 -65.5t-43 -29.5q-182 0 -182 39zM217 1770q0 22 100 22q112 0 142 -4q31 -3 45 -26q143 -200 143 -248q0 -11 -15 -16t-28 -5q-14 0 -41 3t-41 3q-58 0 -65 5q-45 28 -62 55q-98 124 -147 166q-31 31 -31 45z M418 397q108 -6 215 -6q22 0 55 10q-6 20 -23 63.5t-24 67.5q-37 149 -92 326q-23 -28 -45.5 -116t-34.5 -160q-6 -28 -6 -29q-9 -23 -45 -156z" />
<glyph unicode="&#xc1;" horiz-adv-x="1110" d="M82 31q0 26 15 74t18 69q3 46 33 137t36 119q12 53 30.5 118t32.5 111.5t37.5 121.5t34.5 110q15 51 42 154.5t42 154.5q4 15 23 71.5t27 88.5q10 39 24 53t51 14l23 -2q47 0 58.5 -10.5t25.5 -58.5q20 -67 55.5 -204t54.5 -204q4 -16 21 -62.5t22 -74.5q5 -27 30.5 -77 t29.5 -81q3 -28 8 -57.5t14.5 -66.5t16 -61t20.5 -69t19 -60.5t22 -65.5t19 -56q5 -18 22 -58t28 -75t11 -59q0 -37 -121 -37q-9 0 -28.5 2t-28.5 2q-28 1 -42.5 21.5t-19.5 49.5t-10.5 57.5t-23 49.5t-49.5 23q-14 0 -40 1t-38 1q-27 0 -76 -6t-70 -7q-7 0 -21 2t-20 2 q-14 0 -43 -2t-43 -2q-13 0 -20 -29.5t-9.5 -65.5t-17.5 -65.5t-43 -29.5q-182 0 -182 39zM418 397q108 -6 215 -6q22 0 55 10q-6 20 -23 63.5t-24 67.5q-37 149 -92 326q-23 -28 -45.5 -116t-34.5 -160q-6 -28 -6 -29q-9 -23 -45 -156zM463 1514q0 48 143 248q17 23 45 26 q31 4 142 4q100 0 100 -22q0 -14 -31 -45q-56 -48 -145 -166q-19 -28 -64 -55q-8 -5 -63 -5q-15 0 -43 -3t-41 -3t-28 5t-15 16z" />
<glyph unicode="&#xc2;" horiz-adv-x="1110" d="M82 31q0 26 15 74t18 69q3 46 33 137t36 119q12 53 30.5 118t32.5 111.5t37.5 121.5t34.5 110q15 51 42 154.5t42 154.5q4 15 23 71.5t27 88.5q10 39 24 53t51 14l23 -2q47 0 58.5 -10.5t25.5 -58.5q20 -67 55.5 -204t54.5 -204q4 -16 21 -62.5t22 -74.5q5 -27 30.5 -77 t29.5 -81q3 -28 8 -57.5t14.5 -66.5t16 -61t20.5 -69t19 -60.5t22 -65.5t19 -56q5 -18 22 -58t28 -75t11 -59q0 -37 -121 -37q-9 0 -28.5 2t-28.5 2q-28 1 -42.5 21.5t-19.5 49.5t-10.5 57.5t-23 49.5t-49.5 23q-14 0 -40 1t-38 1q-27 0 -76 -6t-70 -7q-7 0 -21 2t-20 2 q-14 0 -43 -2t-43 -2q-13 0 -20 -29.5t-9.5 -65.5t-17.5 -65.5t-43 -29.5q-182 0 -182 39zM250 1508q0 4 35 62t77.5 126t45.5 74q24 43 118 43q29 0 91 -4q33 -3 59 -35q29 -36 85.5 -109.5t84.5 -109.5q6 -7 8 -15t1.5 -15t0.5 -17q-7 -11 -28 -11h-150q-40 0 -63 33 q-15 17 -39.5 52t-36.5 49l-62 -107q-15 -31 -47 -31q-132 0 -157 2q-23 0 -23 13zM418 397q108 -6 215 -6q22 0 55 10q-6 20 -23 63.5t-24 67.5q-37 149 -92 326q-23 -28 -45.5 -116t-34.5 -160q-6 -28 -6 -29q-9 -23 -45 -156z" />
<glyph unicode="&#xc3;" horiz-adv-x="1110" d="M82 31q0 26 15 74t18 69q3 46 33 137t36 119q12 53 30.5 118t32.5 111.5t37.5 121.5t34.5 110q15 51 42 154.5t42 154.5q4 15 23 71.5t27 88.5q10 39 24 53t51 14l23 -2q47 0 58.5 -10.5t25.5 -58.5q20 -67 55.5 -204t54.5 -204q4 -16 21 -62.5t22 -74.5q5 -27 30.5 -77 t29.5 -81q3 -28 8 -57.5t14.5 -66.5t16 -61t20.5 -69t19 -60.5t22 -65.5t19 -56q5 -18 22 -58t28 -75t11 -59q0 -37 -121 -37q-9 0 -28.5 2t-28.5 2q-28 1 -42.5 21.5t-19.5 49.5t-10.5 57.5t-23 49.5t-49.5 23q-14 0 -40 1t-38 1q-27 0 -76 -6t-70 -7q-7 0 -21 2t-20 2 q-14 0 -43 -2t-43 -2q-13 0 -20 -29.5t-9.5 -65.5t-17.5 -65.5t-43 -29.5q-182 0 -182 39zM190 1538q0 88 34 160t109 96q7 2 22 7.5t21 7.5t18 5t22.5 4t23.5 1q33 0 61 -14.5t48.5 -35t40 -40.5t45 -34.5t55.5 -14.5q25 0 41 32.5t18 61.5q0 19 16 22q31 5 74 5 q78 0 78 -29q0 -74 -39 -162q-53 -111 -192 -111q-47 0 -82 15t-53.5 36.5t-33.5 43t-31.5 36.5t-37.5 15q-43 0 -63.5 -36.5t-20.5 -82.5q0 -20 -10 -27.5t-31 -7.5q-15 0 -45 1t-45 1q-43 3 -43 45zM418 397q108 -6 215 -6q22 0 55 10q-6 20 -23 63.5t-24 67.5 q-37 149 -92 326q-23 -28 -45.5 -116t-34.5 -160q-6 -28 -6 -29q-9 -23 -45 -156z" />
<glyph unicode="&#xc4;" horiz-adv-x="1110" d="M82 31q0 26 15 74t18 69q3 46 33 137t36 119q12 53 30.5 118t32.5 111.5t37.5 121.5t34.5 110q15 51 42 154.5t42 154.5q4 15 23 71.5t27 88.5q10 39 24 53t51 14l23 -2q47 0 58.5 -10.5t25.5 -58.5q20 -67 55.5 -204t54.5 -204q4 -16 21 -62.5t22 -74.5q5 -27 30.5 -77 t29.5 -81q3 -28 8 -57.5t14.5 -66.5t16 -61t20.5 -69t19 -60.5t22 -65.5t19 -56q5 -18 22 -58t28 -75t11 -59q0 -37 -121 -37q-9 0 -28.5 2t-28.5 2q-28 1 -42.5 21.5t-19.5 49.5t-10.5 57.5t-23 49.5t-49.5 23q-14 0 -40 1t-38 1q-27 0 -76 -6t-70 -7q-7 0 -21 2t-20 2 q-14 0 -43 -2t-43 -2q-13 0 -20 -29.5t-9.5 -65.5t-17.5 -65.5t-43 -29.5q-182 0 -182 39zM246 1626q0 25 8 41q2 9 3.5 32.5t9.5 34.5t32 17q4 1 29 10t39 9q43 0 81 -19.5t48 -56.5q12 -54 12 -66q0 -52 -36.5 -90.5t-86.5 -38.5q-41 0 -108 50q-31 18 -31 77zM418 397 q108 -6 215 -6q22 0 55 10q-6 20 -23 63.5t-24 67.5q-37 149 -92 326q-23 -28 -45.5 -116t-34.5 -160q-6 -28 -6 -29q-9 -23 -45 -156zM592 1657q0 45 35.5 79t81.5 34q11 0 31.5 -3.5t27.5 -4.5q42 -4 69 -41.5t27 -81.5q0 -38 -21 -66.5t-58 -40.5q-42 -14 -62 -14 q-46 0 -92 24q-17 8 -28 48t-11 67z" />
<glyph unicode="&#xc5;" horiz-adv-x="1110" d="M82 31q0 26 15 74t18 69q3 46 33 137t36 119q12 53 30.5 118t32.5 111.5t37.5 121.5t34.5 110q15 51 42 154.5t42 154.5q4 15 23 71.5t27 88.5q10 39 24 53t51 14l23 -2q47 0 58.5 -10.5t25.5 -58.5q20 -67 55.5 -204t54.5 -204q4 -16 21 -62.5t22 -74.5q5 -27 30.5 -77 t29.5 -81q3 -28 8 -57.5t14.5 -66.5t16 -61t20.5 -69t19 -60.5t22 -65.5t19 -56q5 -18 22 -58t28 -75t11 -59q0 -37 -121 -37q-9 0 -28.5 2t-28.5 2q-28 1 -42.5 21.5t-19.5 49.5t-10.5 57.5t-23 49.5t-49.5 23q-14 0 -40 1t-38 1q-27 0 -76 -6t-70 -7q-7 0 -21 2t-20 2 q-14 0 -43 -2t-43 -2q-13 0 -20 -29.5t-9.5 -65.5t-17.5 -65.5t-43 -29.5q-182 0 -182 39zM315 1672q0 12 2 18q2 8 2.5 24t1.5 21q5 69 55 126.5t117 66.5q40 4 64 4q155 0 223 -158q14 -32 14 -68q0 -88 -82 -167q-28 -27 -44.5 -40t-44 -24.5t-58.5 -11.5q-94 0 -182 71 q-31 27 -60 99q-8 24 -8 39zM418 397q108 -6 215 -6q22 0 55 10q-6 20 -23 63.5t-24 67.5q-37 149 -92 326q-23 -28 -45.5 -116t-34.5 -160q-6 -28 -6 -29q-9 -23 -45 -156zM454 1706q0 -37 27 -68.5t63 -31.5q42 0 74.5 29t32.5 71q0 46 -33 73.5t-80 27.5q-34 0 -59 -32.5 t-25 -68.5z" />
<glyph unicode="&#xc6;" horiz-adv-x="1943" d="M82 14q28 55 88.5 152t79.5 131q5 10 16.5 35.5t21 44t19.5 33.5q16 23 60 100q7 12 26.5 42.5t28.5 47.5q7 12 19.5 35t19.5 35q28 48 85.5 145t139 233t144.5 235t73 103q12 5 25 8.5t21.5 5.5t25.5 3.5t21.5 1.5t26.5 1t24 1v2q11 0 34.5 3t36.5 3q9 0 29.5 -1 t30.5 -1q41 0 121 2t120 2q111 0 168 2q24 0 72 3t70 3q59 0 75.5 -14.5t16.5 -69.5q0 -12 -1 -24.5t-2.5 -28t-2.5 -24.5q-2 -17 -8 -23t-23 -6q-18 0 -56 1t-57 1q-31 0 -89.5 -3.5t-76.5 -4.5q-186 -8 -274 -10q-41 0 -41 -41l-8 -162q0 -7 -1 -21.5t-1 -21.5 q0 -51 43 -51q5 0 15.5 1t16.5 1q19 0 58 -5.5t59 -5.5q53 0 158.5 5.5t157.5 5.5q12 0 34 -9v-6q2 -26 -0.5 -82.5t-7.5 -70.5q-3 -8 -14 -11q-63 -8 -144 -8q-16 0 -48 1t-48 1q-12 0 -38 -1t-38 -1q-10 0 -29.5 1t-29.5 1h-19.5h-23t-21 -1t-23 -3.5t-18.5 -7 t-18.5 -11.5t-13.5 -16q-10 -13 -10 -28t2 -47.5t2 -49.5q0 -10 -2 -30.5t-2 -32.5q0 -15 10 -82q-7 -28 -8 -80t-4 -74q-2 -4 -2 -14q0 -41 47 -41q41 0 122.5 3t122.5 3q5 0 15.5 -1t15.5 -1q102 -4 150 -4q12 0 37 1t38 1q1 0 17 0.5t26 0t23.5 -2t21 -6t7.5 -12.5v-43 q0 -74 -7 -119q-3 -13 -8 -18t-18 -5h-72q-90 -4 -135 -4q-57 0 -169 1t-169 1q-22 0 -63.5 3.5t-61.5 3.5q-19 0 -37 -3v-2q-6 0 -18.5 -1t-18.5 -1q-18 0 -39 7q-4 112 -12 151h-84q-13 1 -51 4.5t-59 3.5q-42 0 -125 -4t-125 -4h-56q-23 1 -44 -20t-34 -47.5t-31.5 -55 t-35.5 -39.5q-5 -3 -75.5 -5.5t-94.5 -2.5q-84 0 -92 10zM575 385q16 0 50.5 -1t52.5 -1h57q13 0 45 -0.5t50.5 -0.5t45 2t46.5 7q38 9 41 45q3 26 8 230q0 66 4 195.5t4 193.5v84l-53 -103q-10 -18 -31 -49t-29 -45l-55 -94q-63 -115 -137 -260q-6 -12 -33.5 -58.5 t-47 -85.5t-18.5 -55v-4z" />
<glyph unicode="&#xc7;" horiz-adv-x="1312" d="M143 735q0 121 31 221t100 195q6 8 27 37t32 42.5t30 34t36 33.5q80 59 205 93q8 2 39.5 10.5t45 12t38.5 9t45.5 7.5t40.5 2q10 0 30.5 2t30.5 2q196 0 302 -82q34 -25 34 -119q0 -127 -41 -127q-26 0 -57 31q-21 17 -113.5 36t-130.5 19q-129 0 -233.5 -64.5 t-161.5 -172.5t-57 -236q0 -117 37 -221q6 -19 39 -66q85 -115 179 -163t234 -48q98 0 207 39q8 2 24.5 10.5t30.5 8.5q43 0 43 -97q0 -61 -4 -90q-3 -30 -43 -52t-96 -31.5t-102.5 -13.5t-77.5 -3l-27 -49q31 -10 46.5 -15.5t44 -19t43 -27.5t26.5 -36.5t12 -49.5 q0 -16 -2 -24q-22 -101 -75.5 -135.5t-159.5 -34.5q-41 0 -93.5 11t-52.5 36q0 17 11.5 42t25.5 25q13 0 40 -7t42 -7q100 0 100 68q0 28 -18.5 47.5t-46.5 19.5q-8 0 -22.5 -4t-22.5 -4q-19 0 -37.5 9t-18.5 26q0 7 15 34.5t36.5 62.5t24.5 40q-134 26 -184 45 q-222 84 -336.5 265t-114.5 423z" />
<glyph unicode="&#xc8;" horiz-adv-x="1236" d="M164 238q0 101 1 304t1 306q0 8 5 26t5 29q0 25 -3 77t-3 77q0 20 2 62.5t2 64.5q0 26 -4 76t-4 75q0 31 2 47q1 17 8 22t25 7q18 1 58.5 1t70.5 1.5t57 5.5q34 6 139 6q39 0 118 3.5t118 3.5q16 0 46 -4.5t46 -4.5q10 0 31 4.5t33 4.5h34q30 0 43 0.5t31.5 -2.5t24 -3.5 t14.5 -10t10 -14t4 -23t2.5 -30t-0.5 -41.5v-18q0 -22 -5.5 -36t-13 -20t-22 -8t-27 -1t-33.5 2.5t-36 1.5q-24 0 -71 -5t-70 -5q-19 0 -60 4t-61 4q-24 0 -69 -8.5t-68 -8.5q-8 0 -24.5 1t-24.5 1q-12 0 -34 -1t-32 -1q-20 -3 -20 -22q-7 -140 -7 -244q0 -1 5 -16h186 q9 0 27 -4t26 -4q9 0 26.5 4t26.5 4q18 0 55 -3t56 -3q10 0 28.5 4t28.5 4q11 0 30.5 -4.5t27.5 -5.5q66 -1 78 -15.5t10 -85.5v-74q-3 -26 -23 -28q-51 -8 -166 -8q-10 0 -31.5 4t-31.5 4q-25 0 -75 4t-73 4q-70 0 -206 -16q-9 -308 -9 -416q0 -23 13 -62q6 -24 145 -24 q31 0 96.5 3t98.5 3h118q16 0 50.5 -5t52.5 -5q13 0 41 1t43 1q57 0 57 -90q0 -33 -2 -54.5t-8.5 -35.5t-12.5 -20t-22 -8t-28.5 -1t-39 2.5t-47.5 1.5t-59 -3.5t-51 -4.5q-19 0 -55.5 1t-53.5 1q-12 0 -31.5 -5t-29.5 -5q-13 0 -40 3t-42 3h-60q-34 0 -104 8q-8 1 -25 6.5 t-26 5.5q-6 0 -21 -4t-22 -4h-68h-41.5t-27.5 4.5t-16.5 7t-7.5 14.5t-2.5 19.5t1 30.5t0.5 39q0 21 -4 61.5t-4 59.5zM281 1792q0 22 100 22q112 0 142 -4q31 -3 45 -26q143 -200 143 -248q0 -11 -15 -16t-28 -5q-14 0 -41 3t-41 3q-58 0 -65 5q-45 28 -62 55 q-98 124 -147 166q-31 31 -31 45z" />
<glyph unicode="&#xc9;" horiz-adv-x="1236" d="M164 238q0 101 1 304t1 306q0 8 5 26t5 29q0 25 -3 77t-3 77q0 20 2 62.5t2 64.5q0 26 -4 76t-4 75q0 31 2 47q1 17 8 22t25 7q18 1 58.5 1t70.5 1.5t57 5.5q34 6 139 6q39 0 118 3.5t118 3.5q16 0 46 -4.5t46 -4.5q10 0 31 4.5t33 4.5h34q30 0 43 0.5t31.5 -2.5t24 -3.5 t14.5 -10t10 -14t4 -23t2.5 -30t-0.5 -41.5v-18q0 -22 -5.5 -36t-13 -20t-22 -8t-27 -1t-33.5 2.5t-36 1.5q-24 0 -71 -5t-70 -5q-19 0 -60 4t-61 4q-24 0 -69 -8.5t-68 -8.5q-8 0 -24.5 1t-24.5 1q-12 0 -34 -1t-32 -1q-20 -3 -20 -22q-7 -140 -7 -244q0 -1 5 -16h186 q9 0 27 -4t26 -4q9 0 26.5 4t26.5 4q18 0 55 -3t56 -3q10 0 28.5 4t28.5 4q11 0 30.5 -4.5t27.5 -5.5q66 -1 78 -15.5t10 -85.5v-74q-3 -26 -23 -28q-51 -8 -166 -8q-10 0 -31.5 4t-31.5 4q-25 0 -75 4t-73 4q-70 0 -206 -16q-9 -308 -9 -416q0 -23 13 -62q6 -24 145 -24 q31 0 96.5 3t98.5 3h118q16 0 50.5 -5t52.5 -5q13 0 41 1t43 1q57 0 57 -90q0 -33 -2 -54.5t-8.5 -35.5t-12.5 -20t-22 -8t-28.5 -1t-39 2.5t-47.5 1.5t-59 -3.5t-51 -4.5q-19 0 -55.5 1t-53.5 1q-12 0 -31.5 -5t-29.5 -5q-13 0 -40 3t-42 3h-60q-34 0 -104 8q-8 1 -25 6.5 t-26 5.5q-6 0 -21 -4t-22 -4h-68h-41.5t-27.5 4.5t-16.5 7t-7.5 14.5t-2.5 19.5t1 30.5t0.5 39q0 21 -4 61.5t-4 59.5zM592 1528q0 48 143 248q17 23 45 26q31 4 142 4q100 0 100 -22q0 -14 -31 -45q-56 -48 -145 -166q-19 -28 -64 -55q-8 -5 -63 -5q-15 0 -43 -3t-41 -3 t-28 5t-15 16z" />
<glyph unicode="&#xca;" horiz-adv-x="1236" d="M164 238q0 101 1 304t1 306q0 8 5 26t5 29q0 25 -3 77t-3 77q0 20 2 62.5t2 64.5q0 26 -4 76t-4 75q0 31 2 47q1 17 8 22t25 7q18 1 58.5 1t70.5 1.5t57 5.5q34 6 139 6q39 0 118 3.5t118 3.5q16 0 46 -4.5t46 -4.5q10 0 31 4.5t33 4.5h34q30 0 43 0.5t31.5 -2.5t24 -3.5 t14.5 -10t10 -14t4 -23t2.5 -30t-0.5 -41.5v-18q0 -22 -5.5 -36t-13 -20t-22 -8t-27 -1t-33.5 2.5t-36 1.5q-24 0 -71 -5t-70 -5q-19 0 -60 4t-61 4q-24 0 -69 -8.5t-68 -8.5q-8 0 -24.5 1t-24.5 1q-12 0 -34 -1t-32 -1q-20 -3 -20 -22q-7 -140 -7 -244q0 -1 5 -16h186 q9 0 27 -4t26 -4q9 0 26.5 4t26.5 4q18 0 55 -3t56 -3q10 0 28.5 4t28.5 4q11 0 30.5 -4.5t27.5 -5.5q66 -1 78 -15.5t10 -85.5v-74q-3 -26 -23 -28q-51 -8 -166 -8q-10 0 -31.5 4t-31.5 4q-25 0 -75 4t-73 4q-70 0 -206 -16q-9 -308 -9 -416q0 -23 13 -62q6 -24 145 -24 q31 0 96.5 3t98.5 3h118q16 0 50.5 -5t52.5 -5q13 0 41 1t43 1q57 0 57 -90q0 -33 -2 -54.5t-8.5 -35.5t-12.5 -20t-22 -8t-28.5 -1t-39 2.5t-47.5 1.5t-59 -3.5t-51 -4.5q-19 0 -55.5 1t-53.5 1q-12 0 -31.5 -5t-29.5 -5q-13 0 -40 3t-42 3h-60q-34 0 -104 8q-8 1 -25 6.5 t-26 5.5q-6 0 -21 -4t-22 -4h-68h-41.5t-27.5 4.5t-16.5 7t-7.5 14.5t-2.5 19.5t1 30.5t0.5 39q0 21 -4 61.5t-4 59.5zM313 1510q0 4 35 62t77.5 126t45.5 74q24 43 118 43q29 0 91 -4q33 -3 59 -35q28 -36 85 -109.5t85 -109.5q6 -7 8 -15t1.5 -15t0.5 -17q-7 -11 -28 -11 h-150q-40 0 -63 33q-15 17 -39.5 52t-36.5 49l-62 -107q-16 -31 -47 -31q-131 0 -157 2q-23 0 -23 13z" />
<glyph unicode="&#xcb;" horiz-adv-x="1236" d="M164 238q0 101 1 304t1 306q0 8 5 26t5 29q0 25 -3 77t-3 77q0 20 2 62.5t2 64.5q0 26 -4 76t-4 75q0 31 2 47q1 17 8 22t25 7q18 1 58.5 1t70.5 1.5t57 5.5q34 6 139 6q39 0 118 3.5t118 3.5q16 0 46 -4.5t46 -4.5q10 0 31 4.5t33 4.5h34q30 0 43 0.5t31.5 -2.5t24 -3.5 t14.5 -10t10 -14t4 -23t2.5 -30t-0.5 -41.5v-18q0 -22 -5.5 -36t-13 -20t-22 -8t-27 -1t-33.5 2.5t-36 1.5q-24 0 -71 -5t-70 -5q-19 0 -60 4t-61 4q-24 0 -69 -8.5t-68 -8.5q-8 0 -24.5 1t-24.5 1q-12 0 -34 -1t-32 -1q-20 -3 -20 -22q-7 -140 -7 -244q0 -1 5 -16h186 q9 0 27 -4t26 -4q9 0 26.5 4t26.5 4q18 0 55 -3t56 -3q10 0 28.5 4t28.5 4q11 0 30.5 -4.5t27.5 -5.5q66 -1 78 -15.5t10 -85.5v-74q-3 -26 -23 -28q-51 -8 -166 -8q-10 0 -31.5 4t-31.5 4q-25 0 -75 4t-73 4q-70 0 -206 -16q-9 -308 -9 -416q0 -23 13 -62q6 -24 145 -24 q31 0 96.5 3t98.5 3h118q16 0 50.5 -5t52.5 -5q13 0 41 1t43 1q57 0 57 -90q0 -33 -2 -54.5t-8.5 -35.5t-12.5 -20t-22 -8t-28.5 -1t-39 2.5t-47.5 1.5t-59 -3.5t-51 -4.5q-19 0 -55.5 1t-53.5 1q-12 0 -31.5 -5t-29.5 -5q-13 0 -40 3t-42 3h-60q-34 0 -104 8q-8 1 -25 6.5 t-26 5.5q-6 0 -21 -4t-22 -4h-68h-41.5t-27.5 4.5t-16.5 7t-7.5 14.5t-2.5 19.5t1 30.5t0.5 39q0 21 -4 61.5t-4 59.5zM309 1611q0 25 8 41q2 9 3.5 32.5t9.5 34.5t32 17q4 1 29 10t39 9q43 0 81 -19.5t48 -56.5q12 -54 12 -66q0 -52 -36.5 -90.5t-86.5 -38.5q-40 0 -108 50 q-31 18 -31 77zM655 1642q0 45 35.5 79t81.5 34q11 0 31.5 -3.5t27.5 -4.5q42 -4 69 -41.5t27 -81.5q0 -38 -21 -66.5t-58 -40.5q-42 -14 -62 -14q-46 0 -92 24q-17 8 -28 48t-11 67z" />
<glyph unicode="&#xcc;" horiz-adv-x="585" d="M-55 1770q0 22 100 22q112 0 142 -4q31 -3 45 -26q143 -200 143 -248q0 -11 -15 -16t-28 -5q-14 0 -41 3t-41 3q-58 0 -65 5q-45 28 -62 55q-98 124 -147 166q-31 31 -31 45zM164 1155q0 35 3 105t3 106q0 29 17.5 39t48.5 10q8 0 24.5 4t24.5 4q7 0 20.5 -2t20.5 -2 t25.5 1t24 0t15.5 -5t13 -14.5t4 -28.5q3 -41 0.5 -251t-2.5 -251q0 -94 5 -282.5t5 -282.5q0 -23 2 -71t2 -72q0 -100 -3 -116q-8 -39 -46 -50q-29 -8 -92 -8q-65 0 -83 27.5t-18 95.5v155q0 16 -2 49t-2 50q0 49 1 148.5t1 148.5v71q0 8 -3 22t-3 21q0 33 1 99.5t1 99.5 q0 12 -6 24q4 16 4 31q0 20 -3 61.5t-3 63.5z" />
<glyph unicode="&#xcd;" horiz-adv-x="585" d="M164 1155q0 35 3 105t3 106q0 29 17.5 39t48.5 10q8 0 24.5 4t24.5 4q7 0 20.5 -2t20.5 -2t25.5 1t24 0t15.5 -5t13 -14.5t4 -28.5q3 -41 0.5 -251t-2.5 -251q0 -94 5 -282.5t5 -282.5q0 -23 2 -71t2 -72q0 -100 -3 -116q-8 -39 -46 -50q-29 -8 -92 -8q-65 0 -83 27.5 t-18 95.5v155q0 16 -2 49t-2 50q0 49 1 148.5t1 148.5v71q0 8 -3 22t-3 21q0 33 1 99.5t1 99.5q0 12 -6 24q4 16 4 31q0 20 -3 61.5t-3 63.5zM215 1514q0 48 143 248q17 23 45 26q31 4 142 4q100 0 100 -22q0 -14 -31 -45q-56 -48 -145 -166q-19 -28 -64 -55q-7 -5 -63 -5 q-15 0 -43 -3t-41 -3t-28 5t-15 16z" />
<glyph unicode="&#xce;" horiz-adv-x="585" d="M-12 1499q0 4 35 62t77.5 126t45.5 74q24 43 118 43q29 0 91 -4q33 -3 59 -35q29 -36 85 -109.5t85 -109.5q6 -7 8 -15t1.5 -15t0.5 -17q-7 -11 -28 -11h-150q-40 0 -63 33q-15 17 -39.5 52t-36.5 49l-62 -107q-15 -31 -47 -31q-132 0 -157 2q-23 0 -23 13zM164 1155 q0 35 3 105t3 106q0 29 17.5 39t48.5 10q8 0 24.5 4t24.5 4q7 0 20.5 -2t20.5 -2t25.5 1t24 0t15.5 -5t13 -14.5t4 -28.5q3 -41 0.5 -251t-2.5 -251q0 -94 5 -282.5t5 -282.5q0 -23 2 -71t2 -72q0 -100 -3 -116q-8 -39 -46 -50q-29 -8 -92 -8q-65 0 -83 27.5t-18 95.5v155 q0 16 -2 49t-2 50q0 49 1 148.5t1 148.5v71q0 8 -3 22t-3 21q0 33 1 99.5t1 99.5q0 12 -6 24q4 16 4 31q0 20 -3 61.5t-3 63.5z" />
<glyph unicode="&#xcf;" horiz-adv-x="585" d="M-16 1609q0 25 8 41q2 9 3.5 32.5t9.5 34.5t32 17q4 1 29 10t39 9q43 0 81 -19.5t48 -56.5q12 -54 12 -66q0 -52 -36.5 -90.5t-86.5 -38.5q-40 0 -108 50q-31 18 -31 77zM164 1155q0 35 3 105t3 106q0 29 17.5 39t48.5 10q8 0 24.5 4t24.5 4q7 0 20.5 -2t20.5 -2t25.5 1 t24 0t15.5 -5t13 -14.5t4 -28.5q3 -41 0.5 -251t-2.5 -251q0 -94 5 -282.5t5 -282.5q0 -23 2 -71t2 -72q0 -100 -3 -116q-8 -39 -46 -50q-29 -8 -92 -8q-65 0 -83 27.5t-18 95.5v155q0 16 -2 49t-2 50q0 49 1 148.5t1 148.5v71q0 8 -3 22t-3 21q0 33 1 99.5t1 99.5 q0 12 -6 24q4 16 4 31q0 20 -3 61.5t-3 63.5zM330 1640q0 45 35.5 79t81.5 34q11 0 31.5 -3.5t27.5 -4.5q42 -4 69 -41.5t27 -81.5q0 -38 -21 -66.5t-58 -40.5q-42 -14 -62 -14q-46 0 -92 24q-17 8 -28 48t-11 67z" />
<glyph unicode="&#xd0;" horiz-adv-x="1492" d="M83.5 748q-0.5 11 0 14t1.5 10t3.5 8t7.5 4t12.5 3.5t18.5 0.5q57 0 143 7l2 10q-1 12 -1 25.5t0.5 30.5t0.5 26q0 13 -2 36.5t-2 34.5q0 20 1 61t1 62q0 37 -2 110t-2 109q0 2 6 62q1 3 7 39q8 33 139 33q35 0 104.5 -4.5t104.5 -4.5h39q67 0 151 -24l60 -12 q196 -60 266 -146q72 -83 86 -100q14 -16 25 -37t17 -37t15 -43t14 -39q50 -144 50 -256q0 -5 -1 -15.5t-1 -15.5q0 -50 -19 -139q-22 -111 -65 -188t-125 -168q-16 -18 -43.5 -37t-62.5 -40t-50 -32q-22 -15 -65 -34t-66 -23q-10 -2 -31.5 -3.5t-38.5 -4.5q-10 -2 -51 -12 t-60 -14t-51.5 -8.5t-58.5 -4.5q-15 0 -42 3t-42 3q-7 0 -22 -2t-23 -2q-14 0 -43 4t-43 4q-7 0 -18.5 -1t-18.5 -1t-16.5 1.5t-14.5 5t-8.5 12t-3.5 20.5q0 15 2 43.5t2 42.5v98q0 158 -2 236q-5 141 -8 170q-52 0 -154 4q-10 0 -12 1.5t-4 12.5q-6 41 -6 84q0 6 -0.5 17z M489 1030q0 -31 5 -201q0 -9 2 -15.5t4 -11t7 -7.5t8 -4.5t11 -2t11.5 -0.5h13.5h14q16 0 36.5 1.5t29.5 2t19.5 -2t14.5 -11t6.5 -24t2.5 -41.5q0 -68 -13 -80t-77 -12h-11q-62 0 -67 -5q-2 -4 -2 -28q0 -3 6 -180q4 -130 12 -175h62q28 0 54.5 4.5t42.5 10t44.5 16.5 t46.5 17q44 13 94 45.5t86 68.5q7 7 20.5 19.5t19.5 19.5t15 18t15.5 23t11.5 27q56 161 56 229q0 24 -4 54t-8 49.5t-12.5 56.5t-10.5 49q-10 42 -72 108.5t-109 94.5q-10 5 -26 9.5t-35.5 9t-28.5 7.5q-11 2 -41 14.5t-34 12.5q-13 1 -65 7.5t-81 6.5h-71q0 -8 -1.5 -23 t-1.5 -22v-135z" />
<glyph unicode="&#xd1;" horiz-adv-x="1445" d="M164 1255q0 21 3 61t3 60q0 14 5 24t15 15.5t20 9.5t25.5 5t25.5 1t26.5 -0.5t21.5 -0.5q37 0 56 -37q95 -161 371.5 -563t328.5 -424v14q1 19 -3.5 54t-4.5 52q0 16 2 48t2 47q0 33 -8 57q-6 21 -6 151q0 26 4 77t4 75q0 37 -7.5 109.5t-7.5 109.5l-2 182q0 15 5 26 t17.5 17.5t20.5 10t29 5t26 1.5h27q13 0 40 -2t40 -2q39 0 39 -52q0 -26 -3 -78t-3 -77q0 -17 3 -51t3 -50q0 -107 -4 -311q0 -17 -4 -52t-4 -52q0 -12 4 -39t4 -41q0 -31 -4 -91t-4 -91q0 -27 3 -83t3 -83q0 -15 -4 -46t-4 -48q0 -21 2 -65t2 -67q0 -18 -6.5 -30.5 t-14 -18.5t-24.5 -9t-25.5 -3h-30.5q-6 0 -35.5 -1t-43 0t-36.5 4.5t-38.5 13t-26.5 24.5q-36 49 -113.5 139t-113.5 139q-31 43 -104 153.5t-117 166.5q-20 25 -60 85.5t-65 90.5l-6 -2q0 -45 2 -135t2 -135q0 -21 -3 -64t-3 -65q0 -13 4 -36t4 -34q8 -93 8 -211 q0 -10 -3.5 -27t-4.5 -24q-1 -3 0.5 -17t1.5 -16q0 -16 -2 -24q-4 -18 -44 -27.5t-69 -9.5q-23 0 -38.5 1.5t-36.5 6.5t-32.5 18t-11.5 33q0 57 3.5 169t3.5 167q0 41 -5.5 123t-5.5 123q0 29 -3 86t-3 86q0 76 -6 227t-6 227zM358 1564q0 88 34 160t109 96q7 2 22 7.5 t21 7.5t18 5t22.5 4t23.5 1q33 0 61 -14.5t48.5 -35t40 -40.5t45 -34.5t55.5 -14.5q25 0 41 32.5t18 61.5q0 19 16 22q31 5 74 5q78 0 78 -29q0 -74 -39 -162q-53 -111 -192 -111q-47 0 -82 15t-53.5 36.5t-33.5 43t-31.5 36.5t-37.5 15q-43 0 -63.5 -36.5t-20.5 -82.5 q0 -20 -10 -27.5t-31 -7.5q-16 0 -45.5 1t-44.5 1q-43 3 -43 45z" />
<glyph unicode="&#xd2;" horiz-adv-x="1757" d="M143 715q0 37 15.5 105t15.5 102q0 13 18 46.5t21 45.5q15 53 79.5 124t127.5 124q9 7 23 21.5t20 19.5q30 26 105 59.5t134 54.5q57 17 181 17q237 0 419.5 -126.5t260.5 -346.5q2 -7 11 -32.5t10.5 -31t7 -24.5t7 -27.5t4 -25.5t3 -32.5t0.5 -35.5q0 -9 4 -28t4 -28 q0 -8 -2 -23.5t-2 -23.5q0 -57 -14.5 -118t-41.5 -105q-24 -44 -45 -90q-8 -17 -42.5 -62.5t-45.5 -52.5q-13 -8 -30.5 -27.5t-22.5 -23.5q-90 -78 -216.5 -129t-242.5 -51q-22 0 -58.5 7.5t-49.5 8.5q-6 1 -17.5 -0.5t-15.5 -1.5q-18 0 -66 19q-22 7 -62 14.5t-56 11.5 q-23 7 -41.5 19t-39.5 29t-36 26q-60 35 -119 81t-82 87q-9 16 -31 57.5t-36 63.5q-12 19 -17.5 51t-7.5 39q-20 82 -20 112q0 16 -5.5 49.5t-5.5 51.5zM383 780q0 -11 6 -20q3 -9 2.5 -18.5t-2.5 -25.5t-2 -20q0 -87 43 -182t109 -152q67 -53 75 -61q36 -30 121 -47.5 t150 -17.5q72 0 198 36q3 1 43 25q4 2 22 12.5t25 14.5t19 14t20 20q6 8 29 35.5t31.5 38.5t26.5 36t26 41.5t18.5 40t14.5 46.5t4 47q0 13 4 37t4 37q0 46 -29 155q-50 159 -170 240.5t-290 81.5q-12 0 -33 -3t-31 -3q-91 0 -162 -47q-5 -3 -42.5 -24t-53.5 -36 q-71 -68 -102 -114.5t-60 -132.5q-14 -37 -14 -54zM502 1792q0 22 100 22q112 0 142 -4q31 -3 45 -26q143 -200 143 -248q0 -11 -15 -16t-28 -5t-41 3t-41 3q-57 0 -65 5q-45 28 -62 55q-98 124 -147 166q-31 31 -31 45z" />
<glyph unicode="&#xd3;" horiz-adv-x="1757" d="M143 715q0 37 15.5 105t15.5 102q0 13 18 46.5t21 45.5q15 53 79.5 124t127.5 124q9 7 23 21.5t20 19.5q30 26 105 59.5t134 54.5q57 17 181 17q237 0 419.5 -126.5t260.5 -346.5q2 -7 11 -32.5t10.5 -31t7 -24.5t7 -27.5t4 -25.5t3 -32.5t0.5 -35.5q0 -9 4 -28t4 -28 q0 -8 -2 -23.5t-2 -23.5q0 -57 -14.5 -118t-41.5 -105q-24 -44 -45 -90q-8 -17 -42.5 -62.5t-45.5 -52.5q-13 -8 -30.5 -27.5t-22.5 -23.5q-90 -78 -216.5 -129t-242.5 -51q-22 0 -58.5 7.5t-49.5 8.5q-6 1 -17.5 -0.5t-15.5 -1.5q-18 0 -66 19q-22 7 -62 14.5t-56 11.5 q-23 7 -41.5 19t-39.5 29t-36 26q-60 35 -119 81t-82 87q-9 16 -31 57.5t-36 63.5q-12 19 -17.5 51t-7.5 39q-20 82 -20 112q0 16 -5.5 49.5t-5.5 51.5zM383 780q0 -11 6 -20q3 -9 2.5 -18.5t-2.5 -25.5t-2 -20q0 -87 43 -182t109 -152q67 -53 75 -61q36 -30 121 -47.5 t150 -17.5q72 0 198 36q3 1 43 25q4 2 22 12.5t25 14.5t19 14t20 20q6 8 29 35.5t31.5 38.5t26.5 36t26 41.5t18.5 40t14.5 46.5t4 47q0 13 4 37t4 37q0 46 -29 155q-50 159 -170 240.5t-290 81.5q-12 0 -33 -3t-31 -3q-91 0 -162 -47q-5 -3 -42.5 -24t-53.5 -36 q-71 -68 -102 -114.5t-60 -132.5q-14 -37 -14 -54zM801 1536q0 48 143 248q17 23 45 26q31 4 142 4q100 0 100 -22q0 -14 -31 -45q-56 -48 -145 -166q-19 -28 -64 -55q-7 -5 -63 -5q-15 0 -43 -3t-41 -3t-28 5t-15 16z" />
<glyph unicode="&#xd4;" horiz-adv-x="1757" d="M143 715q0 37 15.5 105t15.5 102q0 13 18 46.5t21 45.5q15 53 79.5 124t127.5 124q9 7 23 21.5t20 19.5q30 26 105 59.5t134 54.5q57 17 181 17q237 0 419.5 -126.5t260.5 -346.5q2 -7 11 -32.5t10.5 -31t7 -24.5t7 -27.5t4 -25.5t3 -32.5t0.5 -35.5q0 -9 4 -28t4 -28 q0 -8 -2 -23.5t-2 -23.5q0 -57 -14.5 -118t-41.5 -105q-24 -44 -45 -90q-8 -17 -42.5 -62.5t-45.5 -52.5q-13 -8 -30.5 -27.5t-22.5 -23.5q-90 -78 -216.5 -129t-242.5 -51q-22 0 -58.5 7.5t-49.5 8.5q-6 1 -17.5 -0.5t-15.5 -1.5q-18 0 -66 19q-22 7 -62 14.5t-56 11.5 q-23 7 -41.5 19t-39.5 29t-36 26q-60 35 -119 81t-82 87q-9 16 -31 57.5t-36 63.5q-12 19 -17.5 51t-7.5 39q-20 82 -20 112q0 16 -5.5 49.5t-5.5 51.5zM383 780q0 -11 6 -20q3 -9 2.5 -18.5t-2.5 -25.5t-2 -20q0 -87 43 -182t109 -152q67 -53 75 -61q36 -30 121 -47.5 t150 -17.5q72 0 198 36q3 1 43 25q4 2 22 12.5t25 14.5t19 14t20 20q6 8 29 35.5t31.5 38.5t26.5 36t26 41.5t18.5 40t14.5 46.5t4 47q0 13 4 37t4 37q0 46 -29 155q-50 159 -170 240.5t-290 81.5q-12 0 -33 -3t-31 -3q-91 0 -162 -47q-5 -3 -42.5 -24t-53.5 -36 q-71 -68 -102 -114.5t-60 -132.5q-14 -37 -14 -54zM573 1518q0 4 35 62t77.5 126t45.5 74q24 43 118 43q29 0 91 -4q33 -3 59 -35q29 -36 85.5 -109.5t84.5 -109.5q6 -7 8 -15t1.5 -15t0.5 -17q-7 -11 -28 -11h-150q-40 0 -63 33q-15 17 -39.5 52t-36.5 49l-62 -107 q-16 -31 -47 -31q-131 0 -157 2q-23 0 -23 13z" />
<glyph unicode="&#xd5;" horiz-adv-x="1757" d="M143 715q0 37 15.5 105t15.5 102q0 13 18 46.5t21 45.5q15 53 79.5 124t127.5 124q9 7 23 21.5t20 19.5q30 26 105 59.5t134 54.5q57 17 181 17q237 0 419.5 -126.5t260.5 -346.5q2 -7 11 -32.5t10.5 -31t7 -24.5t7 -27.5t4 -25.5t3 -32.5t0.5 -35.5q0 -9 4 -28t4 -28 q0 -8 -2 -23.5t-2 -23.5q0 -57 -14.5 -118t-41.5 -105q-24 -44 -45 -90q-8 -17 -42.5 -62.5t-45.5 -52.5q-13 -8 -30.5 -27.5t-22.5 -23.5q-90 -78 -216.5 -129t-242.5 -51q-22 0 -58.5 7.5t-49.5 8.5q-6 1 -17.5 -0.5t-15.5 -1.5q-18 0 -66 19q-22 7 -62 14.5t-56 11.5 q-23 7 -41.5 19t-39.5 29t-36 26q-60 35 -119 81t-82 87q-9 16 -31 57.5t-36 63.5q-12 19 -17.5 51t-7.5 39q-20 82 -20 112q0 16 -5.5 49.5t-5.5 51.5zM383 780q0 -11 6 -20q3 -9 2.5 -18.5t-2.5 -25.5t-2 -20q0 -87 43 -182t109 -152q67 -53 75 -61q36 -30 121 -47.5 t150 -17.5q72 0 198 36q3 1 43 25q4 2 22 12.5t25 14.5t19 14t20 20q6 8 29 35.5t31.5 38.5t26.5 36t26 41.5t18.5 40t14.5 46.5t4 47q0 13 4 37t4 37q0 46 -29 155q-50 159 -170 240.5t-290 81.5q-12 0 -33 -3t-31 -3q-91 0 -162 -47q-5 -3 -42.5 -24t-53.5 -36 q-71 -68 -102 -114.5t-60 -132.5q-14 -37 -14 -54zM514 1529q0 88 34 160t109 96q7 2 22 7.5t21 7.5t18 5t22.5 4t23.5 1q33 0 61 -14.5t48.5 -35t40 -40.5t45 -34.5t55.5 -14.5q25 0 41 32.5t18 61.5q0 19 16 22q31 5 74 5q78 0 78 -29q0 -74 -39 -162q-53 -111 -192 -111 q-47 0 -82 15t-53.5 36.5t-33.5 43t-31.5 36.5t-37.5 15q-43 0 -63.5 -36.5t-20.5 -82.5q0 -20 -10 -27.5t-31 -7.5q-15 0 -45 1t-45 1q-43 3 -43 45z" />
<glyph unicode="&#xd6;" horiz-adv-x="1757" d="M143 715q0 37 15.5 105t15.5 102q0 13 18 46.5t21 45.5q15 53 79.5 124t127.5 124q9 7 23 21.5t20 19.5q30 26 105 59.5t134 54.5q57 17 181 17q237 0 419.5 -126.5t260.5 -346.5q2 -7 11 -32.5t10.5 -31t7 -24.5t7 -27.5t4 -25.5t3 -32.5t0.5 -35.5q0 -9 4 -28t4 -28 q0 -8 -2 -23.5t-2 -23.5q0 -57 -14.5 -118t-41.5 -105q-24 -44 -45 -90q-8 -17 -42.5 -62.5t-45.5 -52.5q-13 -8 -30.5 -27.5t-22.5 -23.5q-90 -78 -216.5 -129t-242.5 -51q-22 0 -58.5 7.5t-49.5 8.5q-6 1 -17.5 -0.5t-15.5 -1.5q-18 0 -66 19q-22 7 -62 14.5t-56 11.5 q-23 7 -41.5 19t-39.5 29t-36 26q-60 35 -119 81t-82 87q-9 16 -31 57.5t-36 63.5q-12 19 -17.5 51t-7.5 39q-20 82 -20 112q0 16 -5.5 49.5t-5.5 51.5zM383 780q0 -11 6 -20q3 -9 2.5 -18.5t-2.5 -25.5t-2 -20q0 -87 43 -182t109 -152q67 -53 75 -61q36 -30 121 -47.5 t150 -17.5q72 0 198 36q3 1 43 25q4 2 22 12.5t25 14.5t19 14t20 20q6 8 29 35.5t31.5 38.5t26.5 36t26 41.5t18.5 40t14.5 46.5t4 47q0 13 4 37t4 37q0 46 -29 155q-50 159 -170 240.5t-290 81.5q-12 0 -33 -3t-31 -3q-91 0 -162 -47q-5 -3 -42.5 -24t-53.5 -36 q-71 -68 -102 -114.5t-60 -132.5q-14 -37 -14 -54zM569 1611q0 25 8 41q2 9 3.5 32.5t9.5 34.5t32 17q4 1 29 10t39 9q43 0 81 -19.5t48 -56.5q12 -54 12 -66q0 -52 -36.5 -90.5t-86.5 -38.5q-40 0 -108 50q-31 18 -31 77zM915 1642q0 45 35.5 79t81.5 34q11 0 31.5 -3.5 t27.5 -4.5q42 -4 69 -41.5t27 -81.5q0 -38 -21 -66.5t-58 -40.5q-42 -14 -62 -14q-46 0 -92 24q-17 8 -28 48t-11 67z" />
<glyph unicode="&#xd7;" horiz-adv-x="868" d="M123 483q0 21 12 38.5t37.5 37.5t30.5 25l76 78l-7 8q-15 6 -82 71.5t-67 81.5q0 27 84 111q31 31 72 31q11 0 33.5 -19t41.5 -40.5t43 -49t29 -33.5q18 11 53 47t67 63.5t54 27.5q32 0 88.5 -43.5t56.5 -71.5q0 -20 -80.5 -98.5t-80.5 -85.5q0 -2 33.5 -40.5t71.5 -82 t46 -54.5q-2 -2 -13.5 -17.5t-17.5 -23t-18.5 -22.5t-21.5 -23.5t-21 -18t-22.5 -14t-20.5 -4.5q-17 0 -53.5 31.5t-76.5 73.5t-52 51q-21 -12 -82.5 -79.5t-85.5 -67.5q-22 0 -74.5 46.5t-52.5 65.5z" />
<glyph unicode="&#xd8;" horiz-adv-x="1730" d="M143 727q0 13 0.5 25.5t1.5 22.5t3 22.5t3 19.5t4.5 21t5 19t6.5 21t6 20t7.5 23t7.5 23q41 122 109 223q15 22 46.5 47.5t43.5 38.5q9 10 20.5 20.5t19 15.5l24 16t20.5 14q104 71 213 96l10 4q55 25 221 25h11q29 -9 83.5 -19t94.5 -23t76 -38q6 -5 16.5 -16.5 t11.5 -12.5q10 15 24.5 35.5t43.5 52t43 31.5q12 0 56 -32t44 -42q0 -6 -16.5 -26.5t-40.5 -47.5l-25 -26q20 -26 58 -72.5t51.5 -65.5t36.5 -55.5t38.5 -75t32.5 -91.5q4 -15 18.5 -32t14.5 -48v-105q0 -128 -31 -219q-4 -9 -6 -19t-3.5 -22.5t-2.5 -19.5q-7 -25 -31 -60 l-18 -28q-33 -52 -94 -117q-53 -57 -87.5 -91t-91.5 -76.5t-110 -62.5q-38 -13 -111 -23.5t-118 -10.5q-140 0 -297 41q-22 6 -44.5 19.5t-55 37t-40.5 29.5q-1 -1 -17.5 -18.5t-31.5 -33t-30.5 -29.5t-20.5 -14q-11 0 -50.5 31.5t-39.5 42.5q0 8 17 33t41 56t26 34 q-48 56 -72 88q-35 51 -88 172q-6 13 -9 29t-5 36.5t-4 30.5q-19 81 -19 156zM391 721q0 -223 92 -322q33 28 63.5 65t70 93.5t53.5 75.5q10 14 32.5 40.5t32.5 41.5q33 42 97.5 128t97.5 128q76 91 114 147q8 11 13 35q-4 2 -12 5q-99 37 -155 41q-12 1 -24 1q-23 0 -73 -8 q-32 -8 -50 -8q-29 -3 -108 -33q-19 -8 -57 -37l-23 -16q-75 -54 -119.5 -164.5t-44.5 -212.5zM612 305q68 -34 114.5 -46.5t117.5 -12.5q39 0 100 14q132 24 203 100l82 84q33 38 61.5 115t28.5 127q0 22 -6 43q-2 15 -3 47t-3 47q-15 90 -36.5 141.5t-78.5 94.5 q-31 -22 -298 -365.5t-278 -374.5z" />
<glyph unicode="&#xd9;" horiz-adv-x="1210" d="M145 1184q0 16 2.5 49t2.5 49q0 13 -3 44.5t-2 49.5q3 45 48 45q16 2 51 2q5 0 26 1t36 0.5t33 -2.5t28 -9.5t10 -19.5q0 -7 8 -11q0 -14 -1 -38t-1 -37q0 -9 3 -28t3 -28q0 -6 -3 -19.5t-3 -19.5q0 -12 1 -33t1 -32t5 -33t5 -33q0 -12 -3 -37.5t-3 -39.5v-72v-246v-23 v-57.5t2 -59.5t5.5 -62.5t10.5 -58t17.5 -56t27 -46.5t37 -38.5t49.5 -23t64 -9.5q60 0 102 25t62.5 53t32.5 89.5t14 90.5t3 100q1 22 1 33q1 16 4.5 65t3.5 76q0 10 -3 31t-3 33q0 87 2 261t2 261q0 16 4.5 27t10.5 16.5t19 8t21.5 3t26.5 0.5q64 0 113 -8q13 -2 21.5 -21 t12.5 -50.5t6 -57.5t2.5 -58.5t0.5 -35.5l-2 -2q0 -14 -1 -44t-1 -44q0 -24 5 -76t5 -78q0 -32 -6 -103t-6 -106q0 -13 2 -38t2 -37q0 -44 -8.5 -132.5t-8.5 -132.5q0 -96 -61.5 -196.5t-144.5 -157.5q-23 -15 -50 -21.5t-62 -10t-52 -7.5q-8 -1 -30 -7.5t-38 -6.5 q-129 0 -258 100.5t-160 224.5q-20 78 -20 234q0 76 -6 227.5t-6 227.5q0 30 -4.5 88t-4.5 88zM268 1718q0 22 100 22q112 0 142 -4q31 -3 45 -26q143 -200 143 -248q0 -11 -15 -16t-28 -5t-41 3t-41 3q-57 0 -65 5q-45 28 -62 55q-98 124 -147 166q-31 31 -31 45z" />
<glyph unicode="&#xda;" horiz-adv-x="1210" d="M145 1184q0 16 2.5 49t2.5 49q0 13 -3 44.5t-2 49.5q3 45 48 45q16 2 51 2q5 0 26 1t36 0.5t33 -2.5t28 -9.5t10 -19.5q0 -7 8 -11q0 -14 -1 -38t-1 -37q0 -9 3 -28t3 -28q0 -6 -3 -19.5t-3 -19.5q0 -12 1 -33t1 -32t5 -33t5 -33q0 -12 -3 -37.5t-3 -39.5v-72v-246v-23 v-57.5t2 -59.5t5.5 -62.5t10.5 -58t17.5 -56t27 -46.5t37 -38.5t49.5 -23t64 -9.5q60 0 102 25t62.5 53t32.5 89.5t14 90.5t3 100q1 22 1 33q1 16 4.5 65t3.5 76q0 10 -3 31t-3 33q0 87 2 261t2 261q0 16 4.5 27t10.5 16.5t19 8t21.5 3t26.5 0.5q64 0 113 -8q13 -2 21.5 -21 t12.5 -50.5t6 -57.5t2.5 -58.5t0.5 -35.5l-2 -2q0 -14 -1 -44t-1 -44q0 -24 5 -76t5 -78q0 -32 -6 -103t-6 -106q0 -13 2 -38t2 -37q0 -44 -8.5 -132.5t-8.5 -132.5q0 -96 -61.5 -196.5t-144.5 -157.5q-23 -15 -50 -21.5t-62 -10t-52 -7.5q-8 -1 -30 -7.5t-38 -6.5 q-129 0 -258 100.5t-160 224.5q-20 78 -20 234q0 76 -6 227.5t-6 227.5q0 30 -4.5 88t-4.5 88zM522 1462q0 48 143 248q17 23 45 26q31 4 142 4q100 0 100 -22q0 -14 -31 -45q-56 -48 -145 -166q-19 -28 -64 -55q-8 -5 -63 -5q-15 0 -43 -3t-41 -3t-28 5t-15 16z" />
<glyph unicode="&#xdb;" horiz-adv-x="1210" d="M145 1184q0 16 2.5 49t2.5 49q0 13 -3 44.5t-2 49.5q3 45 48 45q16 2 51 2q5 0 26 1t36 0.5t33 -2.5t28 -9.5t10 -19.5q0 -7 8 -11q0 -14 -1 -38t-1 -37q0 -9 3 -28t3 -28q0 -6 -3 -19.5t-3 -19.5q0 -12 1 -33t1 -32t5 -33t5 -33q0 -12 -3 -37.5t-3 -39.5v-72v-246v-23 v-57.5t2 -59.5t5.5 -62.5t10.5 -58t17.5 -56t27 -46.5t37 -38.5t49.5 -23t64 -9.5q60 0 102 25t62.5 53t32.5 89.5t14 90.5t3 100q1 22 1 33q1 16 4.5 65t3.5 76q0 10 -3 31t-3 33q0 87 2 261t2 261q0 16 4.5 27t10.5 16.5t19 8t21.5 3t26.5 0.5q64 0 113 -8q13 -2 21.5 -21 t12.5 -50.5t6 -57.5t2.5 -58.5t0.5 -35.5l-2 -2q0 -14 -1 -44t-1 -44q0 -24 5 -76t5 -78q0 -32 -6 -103t-6 -106q0 -13 2 -38t2 -37q0 -44 -8.5 -132.5t-8.5 -132.5q0 -96 -61.5 -196.5t-144.5 -157.5q-23 -15 -50 -21.5t-62 -10t-52 -7.5q-8 -1 -30 -7.5t-38 -6.5 q-129 0 -258 100.5t-160 224.5q-20 78 -20 234q0 76 -6 227.5t-6 227.5q0 30 -4.5 88t-4.5 88zM299 1528q0 4 35 62t77.5 126t45.5 74q24 43 118 43q29 0 91 -4q33 -3 59 -35q28 -36 85 -109.5t85 -109.5q6 -7 8 -15t1.5 -15t0.5 -17q-7 -11 -28 -11h-150q-40 0 -63 33 q-15 17 -39.5 52t-36.5 49l-62 -107q-16 -31 -47 -31q-131 0 -157 2q-23 0 -23 13z" />
<glyph unicode="&#xdc;" horiz-adv-x="1210" d="M145 1184q0 16 2.5 49t2.5 49q0 13 -3 44.5t-2 49.5q3 45 48 45q16 2 51 2q5 0 26 1t36 0.5t33 -2.5t28 -9.5t10 -19.5q0 -7 8 -11q0 -14 -1 -38t-1 -37q0 -9 3 -28t3 -28q0 -6 -3 -19.5t-3 -19.5q0 -12 1 -33t1 -32t5 -33t5 -33q0 -12 -3 -37.5t-3 -39.5v-72v-246v-23 v-57.5t2 -59.5t5.5 -62.5t10.5 -58t17.5 -56t27 -46.5t37 -38.5t49.5 -23t64 -9.5q60 0 102 25t62.5 53t32.5 89.5t14 90.5t3 100q1 22 1 33q1 16 4.5 65t3.5 76q0 10 -3 31t-3 33q0 87 2 261t2 261q0 16 4.5 27t10.5 16.5t19 8t21.5 3t26.5 0.5q64 0 113 -8q13 -2 21.5 -21 t12.5 -50.5t6 -57.5t2.5 -58.5t0.5 -35.5l-2 -2q0 -14 -1 -44t-1 -44q0 -24 5 -76t5 -78q0 -32 -6 -103t-6 -106q0 -13 2 -38t2 -37q0 -44 -8.5 -132.5t-8.5 -132.5q0 -96 -61.5 -196.5t-144.5 -157.5q-23 -15 -50 -21.5t-62 -10t-52 -7.5q-8 -1 -30 -7.5t-38 -6.5 q-129 0 -258 100.5t-160 224.5q-20 78 -20 234q0 76 -6 227.5t-6 227.5q0 30 -4.5 88t-4.5 88zM295 1611q0 25 8 41q2 9 3.5 32.5t9.5 34.5t32 17q4 1 29 10t39 9q43 0 81 -19.5t48 -56.5q12 -54 12 -66q0 -52 -36.5 -90.5t-86.5 -38.5q-40 0 -108 50q-31 18 -31 77z M641 1642q0 45 35.5 79t81.5 34q11 0 31.5 -3.5t27.5 -4.5q42 -4 69 -41.5t27 -81.5q0 -38 -21 -66.5t-58 -40.5q-42 -14 -62 -14q-46 0 -92 24q-17 8 -28 48t-11 67z" />
<glyph unicode="&#xdd;" horiz-adv-x="1308" d="M84 1415q8 8 87.5 12.5t121.5 4.5q26 0 37 -17q25 -40 149.5 -274.5t194.5 -319.5q17 30 92 179t141.5 279.5t69.5 133.5q68 25 227 25q23 0 23 -13q0 -18 -95 -199t-210.5 -392.5t-126.5 -233.5q-5 -11 -9 -30t-6 -36.5t-3 -46.5t-1 -43v-43v-32q0 -36 1 -76t2.5 -88.5 t2.5 -75.5q0 -13 3 -37t3 -35q0 -10 -2 -14q-13 -38 -20.5 -42.5t-50.5 -4.5q-85 0 -164 6q-23 0 -23 21q-2 22 -2 47t1 56t1 48q0 9 -3 28t-3 29q0 34 5 102.5t5 102.5q0 73 -14 162q-9 39 -112 205q-32 47 -177.5 317.5t-144.5 294.5zM590 1458q0 48 143 248q17 23 45 26 q31 4 142 4q100 0 100 -22q0 -14 -31 -45q-56 -48 -145 -166q-19 -28 -64 -55q-8 -5 -63 -5q-15 0 -43 -3t-41 -3t-28 5t-15 16z" />
<glyph unicode="&#xde;" horiz-adv-x="1486" d="M166 1329q0 87 29 98q6 2 14 2t17 -1t14 -1q6 0 17 1.5t17 1.5q23 0 70 -6.5t51 -6.5q8 -19 8 -102q0 -9 -2.5 -32t-1.5 -36v-49q27 1 75.5 1.5t88.5 1.5t76 3q13 1 55 4.5t64 3.5q16 0 48.5 -3t49.5 -3q5 0 73 -3.5t113 -8t66 -12.5q43 -18 61.5 -26.5t46.5 -29 t44 -47.5q81 -128 81 -272q0 -100 -12 -135q-31 -102 -57 -160q-16 -37 -45 -57q-21 -14 -82 -70q-13 -13 -94 -43q-17 -7 -75.5 -18t-74.5 -21q-30 2 -94 -2q-140 -4 -209 -4q-24 0 -72 4t-73 4q-7 0 -24.5 -1t-25.5 -1q0 -33 -1 -98.5t-1 -98.5q0 -4 0.5 -15t0.5 -19.5 t-0.5 -20t-3 -20t-6 -17t-10 -12.5t-15.5 -4q-120 0 -177 4q-18 0 -18 14q0 93 4 273q6 159 6 160q0 7 -6 20.5t-6 19.5q0 9 2 28t2 28q2 41 2 121q0 22 -3 67t-3 68q0 37 1 111.5t1 111.5v240q0 4 -3 27.5t-3 37.5zM406 616q0 -16 8 -36q-1 -21 -2 -39.5t9 -33t32 -18.5 q22 -3 46 -4t53.5 -1t45.5 -1q14 0 43 -1t43 -1q39 0 59 2q14 1 46.5 1.5t42.5 1.5t32 5t41 12t45 21q46 3 89 46.5t67 99.5t24 100q0 12 -2.5 24.5t-4.5 19t-8.5 22t-8.5 20.5v4q-4 19 -9 31.5t-8 18t-14 21t-16 23.5q-27 42 -66 50q-72 16 -137 16q-16 0 -49 -1t-49 -1 q-12 0 -37 1t-37 1v4q-14 -1 -67 -3t-92.5 -5.5t-63.5 -9.5q-26 -6 -35.5 -18t-11.5 -40q-1 -14 -2.5 -39t-2.5 -45t-1 -37t1 -49t1 -49v-67q0 -7 -2 -23t-2 -23z" />
<glyph unicode="&#xdf;" horiz-adv-x="1398" d="M143 446q0 14 8 23.5t25 12.5t28 4t33 0t25 -1v-2h74q18 -1 29.5 -23t20 -59t11.5 -45q29 -72 105 -108.5t164 -36.5q116 0 165 51q7 7 12 15.5t10.5 20.5t8.5 17q27 43 27 93q0 42 -8 73q-9 46 -54 66q-69 34 -258 96q-9 3 -31.5 8.5t-38 10.5t-30.5 12q-2 1 -33 6 q-69 11 -139 55q-35 24 -72.5 96t-40.5 117q-2 18 -2 53q0 168 94.5 278t260.5 136q70 12 102 12q31 0 119 -18q127 -25 198.5 -77.5t104.5 -166.5q26 -107 26 -125q0 -34 -10 -51t-41 -16q-74 0 -141 12q-19 4 -32 23.5t-24.5 52.5t-15.5 41q-12 24 -27 41t-37 27 t-38.5 16.5t-46.5 8.5t-44.5 2.5t-48.5 0.5h-20q-149 0 -149 -180q0 -49 49.5 -90.5t108 -62t108.5 -25.5q25 -2 73 -16.5t70 -18.5q15 -3 28.5 -8.5t36 -19t25.5 -15.5q12 -6 38 -18t37.5 -19t27.5 -22t28 -35q29 -48 41 -77.5t13 -45t3 -50t9 -73.5q4 -24 4 -39 q0 -75 -76 -229q-24 -50 -136.5 -108t-174.5 -58q-119 0 -210.5 27t-207.5 89q-68 37 -116 146t-48 196zM1399 475q0 10 8 16.5t18 8.5q34 6 152 6q21 0 33 -6.5t18 -26.5q7 -18 10 -35q31 -209 285 -209q60 0 104 24.5t91 72.5q34 83 34 120q0 42 -22 77.5t-59 54.5 q-54 26 -127 40q-88 17 -195.5 55t-167.5 79q-75 55 -94 104q-11 35 -22 91.5t-11 88.5q0 138 62.5 230t189.5 147q84 33 162 33q95 0 184 -21q42 -11 99.5 -48t80.5 -70q7 -12 29.5 -35.5t28.5 -38.5q1 -2 10.5 -21.5t12 -24.5t10 -22t10 -25.5t7 -22.5t6 -26t1.5 -24 q0 -18 -3 -28.5t-11.5 -14.5t-14 -5t-22.5 0t-23 1q-17 0 -48 -2t-48 -2q-41 0 -53 33q-20 52 -46.5 84t-74.5 63q-14 9 -29.5 13.5t-38 8t-32.5 5.5q-32 8 -50 8q-41 0 -100 -23q-30 -13 -65 -70.5t-35 -93.5q0 -49 49.5 -88t125.5 -64.5t155 -46.5t152.5 -45.5 t102.5 -49.5q76 -66 113 -125t37 -144q0 -7 4 -22.5t4 -22.5q0 -49 -39 -174q-25 -66 -117 -148.5t-155 -82.5q-2 0 -74.5 -21.5t-109.5 -21.5q-54 0 -132 16q-15 3 -24 10q-9 6 -66 31q-168 89 -194 145q-5 10 -18.5 29t-18.5 29q-19 41 -34 111.5t-15 115.5z" />
<glyph unicode="&#xe0;" d="M82 23q0 13 82 310.5t92 313.5q9 18 12.5 48.5t5.5 39.5q5 21 24.5 76.5t25.5 85.5q6 43 40 169t48 155q11 24 19 50t16.5 59t13.5 50q3 10 8 18.5t10 13.5t15 9t15.5 5.5t18.5 2.5t18.5 1h21.5h20q20 0 30 -19q26 -37 31 -70q6 -32 36.5 -133.5t57.5 -191t27 -98.5 q0 -3 9.5 -37t20 -72t11.5 -43q12 -41 33.5 -120t25.5 -93q162 -480 162 -533q0 -9 -3.5 -13.5t-8.5 -6t-16 -2.5l-113 -6v2h-33q-36 -1 -54.5 16t-21.5 38t-6 56t-8 54q-6 24 -33 24q-129 6 -133 6q-23 0 -49 -2t-58 -5.5t-49 -4.5q-11 -1 -31.5 0.5t-27.5 1.5 q-28 0 -40 -26.5t-11.5 -59t-8 -62t-30.5 -34.5q-46 -8 -70 -8q-14 0 -34 1.5t-47 4.5t-45.5 10.5t-18.5 18.5zM217 1769q0 23 100 23q112 0 142 -4q30 -3 45 -27q143 -200 143 -248q0 -10 -14.5 -15t-28.5 -5t-41 3t-41 3q-3 0 -14.5 -0.5t-19.5 -0.5t-17.5 1t-13.5 4 q-44 27 -62 56q-96 121 -147 165q-31 31 -31 45zM414 403l2 -4q70 -4 213 -4q28 0 55 8q-6 19 -23 63t-24 69q-31 128 -92 329q-13 -17 -26.5 -57t-22 -74.5t-19.5 -85.5t-14 -63q-3 -15 -26 -84t-23 -97z" />
<glyph unicode="&#xe1;" d="M82 23q0 13 82 310.5t92 313.5q9 18 12.5 48.5t5.5 39.5q5 21 24.5 76.5t25.5 85.5q6 43 40 169t48 155q11 24 19 50t16.5 59t13.5 50q3 10 8 18.5t10 13.5t15 9t15.5 5.5t18.5 2.5t18.5 1h21.5h20q20 0 30 -19q26 -37 31 -70q6 -32 36.5 -133.5t57.5 -191t27 -98.5 q0 -3 9.5 -37t20 -72t11.5 -43q12 -41 33.5 -120t25.5 -93q162 -480 162 -533q0 -9 -3.5 -13.5t-8.5 -6t-16 -2.5l-113 -6v2h-33q-36 -1 -54.5 16t-21.5 38t-6 56t-8 54q-6 24 -33 24q-129 6 -133 6q-23 0 -49 -2t-58 -5.5t-49 -4.5q-11 -1 -31.5 0.5t-27.5 1.5 q-28 0 -40 -26.5t-11.5 -59t-8 -62t-30.5 -34.5q-46 -8 -70 -8q-14 0 -34 1.5t-47 4.5t-45.5 10.5t-18.5 18.5zM414 403l2 -4q70 -4 213 -4q28 0 55 8q-6 19 -23 63t-24 69q-31 128 -92 329q-13 -17 -26.5 -57t-22 -74.5t-19.5 -85.5t-14 -63q-3 -15 -26 -84t-23 -97z M463 1513q0 48 143 248q18 24 45 27q31 4 142 4q100 0 100 -23q0 -14 -31 -45q-58 -49 -145 -165q-21 -30 -64 -56q-5 -4 -16 -5t-28.5 0t-18.5 1q-15 0 -43 -3t-41 -3q-14 0 -28.5 5t-14.5 15z" />
<glyph unicode="&#xe2;" d="M82 23q0 13 82 310.5t92 313.5q9 18 12.5 48.5t5.5 39.5q5 21 24.5 76.5t25.5 85.5q6 43 40 169t48 155q11 24 19 50t16.5 59t13.5 50q3 10 8 18.5t10 13.5t15 9t15.5 5.5t18.5 2.5t18.5 1h21.5h20q20 0 30 -19q26 -37 31 -70q6 -32 36.5 -133.5t57.5 -191t27 -98.5 q0 -3 9.5 -37t20 -72t11.5 -43q12 -41 33.5 -120t25.5 -93q162 -480 162 -533q0 -9 -3.5 -13.5t-8.5 -6t-16 -2.5l-113 -6v2h-33q-36 -1 -54.5 16t-21.5 38t-6 56t-8 54q-6 24 -33 24q-129 6 -133 6q-23 0 -49 -2t-58 -5.5t-49 -4.5q-11 -1 -31.5 0.5t-27.5 1.5 q-28 0 -40 -26.5t-11.5 -59t-8 -62t-30.5 -34.5q-46 -8 -70 -8q-14 0 -34 1.5t-47 4.5t-45.5 10.5t-18.5 18.5zM250 1507q0 4 35 62t77.5 126t45.5 74q24 43 118 43q28 0 90 -4q35 -3 60 -34q29 -36 85.5 -110t84.5 -110q6 -7 8 -15t1.5 -15t0.5 -17q-2 -3 -3.5 -4.5 t-3.5 -2.5t-3.5 -2t-4 -1h-4h-5h-5.5h-149q-41 0 -64 33q-15 16 -39 51t-36 49l-62 -106q-15 -31 -47 -31q-132 0 -158 2q-22 0 -22 12zM414 403l2 -4q70 -4 213 -4q28 0 55 8q-6 19 -23 63t-24 69q-31 128 -92 329q-13 -17 -26.5 -57t-22 -74.5t-19.5 -85.5t-14 -63 q-3 -15 -26 -84t-23 -97z" />
<glyph unicode="&#xe3;" d="M82 23q0 13 82 310.5t92 313.5q9 18 12.5 48.5t5.5 39.5q5 21 24.5 76.5t25.5 85.5q6 43 40 169t48 155q11 24 19 50t16.5 59t13.5 50q3 10 8 18.5t10 13.5t15 9t15.5 5.5t18.5 2.5t18.5 1h21.5h20q20 0 30 -19q26 -37 31 -70q6 -32 36.5 -133.5t57.5 -191t27 -98.5 q0 -3 9.5 -37t20 -72t11.5 -43q12 -41 33.5 -120t25.5 -93q162 -480 162 -533q0 -9 -3.5 -13.5t-8.5 -6t-16 -2.5l-113 -6v2h-33q-36 -1 -54.5 16t-21.5 38t-6 56t-8 54q-6 24 -33 24q-129 6 -133 6q-23 0 -49 -2t-58 -5.5t-49 -4.5q-11 -1 -31.5 0.5t-27.5 1.5 q-28 0 -40 -26.5t-11.5 -59t-8 -62t-30.5 -34.5q-46 -8 -70 -8q-14 0 -34 1.5t-47 4.5t-45.5 10.5t-18.5 18.5zM190 1538q0 88 34.5 160t109.5 96q8 3 22 8t20.5 7t18 5t22 4t23.5 1q40 0 74.5 -22t55 -48t52.5 -48t68 -22q25 0 41.5 33t18.5 62q0 19 16 22q25 4 74 4 q61 0 73 -14q5 -7 5 -14q0 -74 -39 -162q-53 -111 -193 -111q-47 0 -81.5 15t-53.5 36.5t-33.5 43t-31 36.5t-37.5 15q-43 0 -63.5 -36.5t-20.5 -82.5q0 -20 -10 -27.5t-31 -7.5q-16 0 -46 1t-45 1q-43 3 -43 45zM414 403l2 -4q70 -4 213 -4q28 0 55 8q-6 19 -23 63t-24 69 q-31 128 -92 329q-13 -17 -26.5 -57t-22 -74.5t-19.5 -85.5t-14 -63q-3 -15 -26 -84t-23 -97z" />
<glyph unicode="&#xe4;" d="M82 23q0 13 82 310.5t92 313.5q9 18 12.5 48.5t5.5 39.5q5 21 24.5 76.5t25.5 85.5q6 43 40 169t48 155q11 24 19 50t16.5 59t13.5 50q3 10 8 18.5t10 13.5t15 9t15.5 5.5t18.5 2.5t18.5 1h21.5h20q20 0 30 -19q26 -37 31 -70q6 -32 36.5 -133.5t57.5 -191t27 -98.5 q0 -3 9.5 -37t20 -72t11.5 -43q12 -41 33.5 -120t25.5 -93q162 -480 162 -533q0 -9 -3.5 -13.5t-8.5 -6t-16 -2.5l-113 -6v2h-33q-36 -1 -54.5 16t-21.5 38t-6 56t-8 54q-6 24 -33 24q-129 6 -133 6q-23 0 -49 -2t-58 -5.5t-49 -4.5q-11 -1 -31.5 0.5t-27.5 1.5 q-28 0 -40 -26.5t-11.5 -59t-8 -62t-30.5 -34.5q-46 -8 -70 -8q-14 0 -34 1.5t-47 4.5t-45.5 10.5t-18.5 18.5zM246 1626q0 25 8 41q2 9 3.5 32.5t9.5 34.5t32 17q8 2 21.5 7t25 8t21.5 3q43 0 81 -19t48 -56q12 -54 12 -66q0 -52 -36.5 -90.5t-86.5 -38.5q-43 0 -109 49 q-30 18 -30 78zM414 403l2 -4q70 -4 213 -4q28 0 55 8q-6 19 -23 63t-24 69q-31 128 -92 329q-13 -17 -26.5 -57t-22 -74.5t-19.5 -85.5t-14 -63q-3 -15 -26 -84t-23 -97zM592 1657q0 45 35.5 78.5t81.5 33.5q11 0 31.5 -3.5t27.5 -4.5q42 -4 69 -41.5t27 -81.5 q0 -38 -21.5 -66t-58.5 -40q-42 -14 -61 -14q-46 0 -92 24q-17 8 -28 48t-11 67z" />
<glyph unicode="&#xe5;" d="M82 23q0 13 82 310.5t92 313.5q9 18 12.5 48.5t5.5 39.5q5 21 24.5 76.5t25.5 85.5q6 43 40 169t48 155q11 24 19 50t16.5 59t13.5 50q3 10 8 18.5t10 13.5t15 9t15.5 5.5t18.5 2.5t18.5 1h21.5h20q20 0 30 -19q26 -37 31 -70q6 -32 36.5 -133.5t57.5 -191t27 -98.5 q0 -3 9.5 -37t20 -72t11.5 -43q12 -41 33.5 -120t25.5 -93q162 -480 162 -533q0 -9 -3.5 -13.5t-8.5 -6t-16 -2.5l-113 -6v2h-33q-36 -1 -54.5 16t-21.5 38t-6 56t-8 54q-6 24 -33 24q-129 6 -133 6q-23 0 -49 -2t-58 -5.5t-49 -4.5q-11 -1 -31.5 0.5t-27.5 1.5 q-28 0 -40 -26.5t-11.5 -59t-8 -62t-30.5 -34.5q-46 -8 -70 -8q-14 0 -34 1.5t-47 4.5t-45.5 10.5t-18.5 18.5zM315 1671q0 13 2 19q2 8 3 24.5t2 20.5q5 68 55 125.5t117 66.5q40 4 63 4q82 0 136 -39.5t87 -117.5q15 -34 15 -68q0 -89 -82 -168q-41 -40 -72 -58t-76 -18 q-92 0 -182 72q-30 26 -59 98q-9 27 -9 39zM414 403l2 -4q70 -4 213 -4q28 0 55 8q-6 19 -23 63t-24 69q-31 128 -92 329q-13 -17 -26.5 -57t-22 -74.5t-19.5 -85.5t-14 -63q-3 -15 -26 -84t-23 -97zM455 1706q0 -37 27 -68.5t63 -31.5q42 0 74 29t32 71q0 46 -32.5 73 t-79.5 27q-34 0 -59 -32t-25 -68z" />
<glyph unicode="&#xe6;" horiz-adv-x="1943" d="M82 14q28 55 88.5 152t79.5 131q5 10 16.5 35.5t21 44t19.5 33.5q16 23 60 100q7 12 26.5 42.5t28.5 47.5q7 12 19.5 35t19.5 35q28 48 85.5 145t139 233t144.5 235t73 103q12 5 25 8.5t21.5 5.5t25.5 3.5t21.5 1.5t26.5 1t24 1v2q11 0 34.5 3t36.5 3q9 0 29.5 -1 t30.5 -1q41 0 121 2t120 2q111 0 168 2q24 0 72 3t70 3q59 0 75.5 -14.5t16.5 -69.5q0 -12 -1 -24.5t-2.5 -28t-2.5 -24.5q-2 -17 -8 -23t-23 -6q-18 0 -56 1t-57 1q-31 0 -89.5 -3.5t-76.5 -4.5q-186 -8 -274 -10q-41 0 -41 -41l-8 -162q0 -7 -1 -21.5t-1 -21.5 q0 -51 43 -51q5 0 15.5 1t16.5 1q19 0 58 -5.5t59 -5.5q53 0 158.5 5.5t157.5 5.5q12 0 34 -9v-6q2 -26 -0.5 -82.5t-7.5 -70.5q-3 -8 -14 -11q-63 -8 -144 -8q-16 0 -48 1t-48 1q-12 0 -38 -1t-38 -1q-10 0 -29.5 1t-29.5 1h-19.5h-23t-21 -1t-23 -3.5t-18.5 -7 t-18.5 -11.5t-13.5 -16q-10 -13 -10 -28t2 -47.5t2 -49.5q0 -10 -2 -30.5t-2 -32.5q0 -15 10 -82q-7 -28 -8 -80t-4 -74q-2 -4 -2 -14q0 -41 47 -41q41 0 122.5 3t122.5 3q5 0 15.5 -1t15.5 -1q102 -4 150 -4q12 0 37 1t38 1q1 0 17 0.5t26 0t23.5 -2t21 -6t7.5 -12.5v-43 q0 -74 -7 -119q-3 -13 -8 -18t-18 -5h-72q-90 -4 -135 -4q-57 0 -169 1t-169 1q-22 0 -63.5 3.5t-61.5 3.5q-19 0 -37 -3v-2q-6 0 -18.5 -1t-18.5 -1q-18 0 -39 7q-4 112 -12 151h-84q-13 1 -51 4.5t-59 3.5q-42 0 -125 -4t-125 -4h-56q-23 1 -44 -20t-34 -47.5t-31.5 -55 t-35.5 -39.5q-5 -3 -75.5 -5.5t-94.5 -2.5q-84 0 -92 10zM575 385q16 0 50.5 -1t52.5 -1h57q13 0 45 -0.5t50.5 -0.5t45 2t46.5 7q38 9 41 45q3 26 8 230q0 66 4 195.5t4 193.5v84l-53 -103q-10 -18 -31 -49t-29 -45l-55 -94q-63 -115 -137 -260q-6 -12 -33.5 -58.5 t-47 -85.5t-18.5 -55v-4z" />
<glyph unicode="&#xe7;" horiz-adv-x="1320" d="M143 723q0 112 38.5 219.5t107 194t158.5 152.5t198 102t219 36q179 0 316 -88q15 -10 22.5 -30t8.5 -33.5t0 -44.5t-1 -35h2v-39q0 -3 0.5 -13t0 -15.5t-1.5 -14.5t-4 -14t-9 -9t-14 -4q-23 0 -70 33q-87 62 -235 62q-226 0 -351 -130.5t-125 -357.5q0 -122 79 -249.5 t188 -178.5q9 -3 28.5 -12t34 -14t29.5 -7q49 -6 160 -6q42 0 123 32t114 32q17 0 28.5 -11t17.5 -24t8.5 -36t3 -34.5t0.5 -31.5q0 -13 -3.5 -39t-3.5 -31l-8 -10q-46 -34 -74.5 -47t-83.5 -25q-50 -11 -59 -12q-11 -1 -33 1t-34 1h-3l-34 -64q35 -11 47 -15t43 -18.5 t44 -27t25.5 -35t12.5 -49.5q0 -17 -2 -25q-22 -102 -75.5 -137t-160.5 -35q-43 0 -94 11.5t-51 37.5q0 15 12 40.5t25 25.5t39.5 -6t41.5 -6q101 0 101 67q0 28 -19 48t-47 20q-8 0 -22.5 -5t-22.5 -5q-19 0 -37 8.5t-18 25.5q0 9 33 68.5t47 79.5q-115 20 -199 45h6 q-118 33 -233.5 126t-159.5 200l-45 108q-29 82 -29 248z" />
<glyph unicode="&#xe8;" horiz-adv-x="1251" d="M165 1296.5q0 10.5 1 27.5t3.5 26.5t6.5 22t12 19.5t18.5 14t25.5 10t34 3q20 0 59 3t58 3h328q25 0 73.5 3.5t71.5 3.5q14 0 43 -3.5t43 -3.5h102q23 0 32 -9t9 -32q0 -10 -2 -30.5t-2 -30.5q0 -35 -5 -54.5t-21.5 -28t-31.5 -10t-51 -1.5h-14q-54 0 -162 3t-163 3 q-131 0 -197 -10q-13 -1 -16.5 -5t-3.5 -18q-2 -27 -4 -81t-4 -81h2q0 -3 -1 -22t-0.5 -34t1.5 -33t5.5 -28t12.5 -10q82 0 248 7.5t248 7.5q66 0 86 -25q6 -18 6 -108q0 -28 -12 -50q-4 -8 -28 -13t-60 -6t-67.5 -1t-66 1t-39.5 1q-54 0 -153.5 -3.5t-130.5 -4.5 q-25 -2 -33 -8.5t-8 -28.5q0 -30 2 -88t2 -86q0 -36 -4 -108.5t-4 -108.5q0 -5 -1 -19.5t-1 -26t1 -24.5t6 -20.5t13 -7.5q18 0 54 2t53 2q15 0 43 -2t43 -2q69 0 208 7t209 7q55 0 70.5 -20t15.5 -78q0 -26 -0.5 -37t-4 -28t-10.5 -24t-21 -12.5t-35 -5.5q-15 0 -46 -5 t-46 -5q-14 0 -43 4t-45 4q-42 0 -127.5 -2t-128.5 -2q-64 0 -195 -4t-197 -4q-51 0 -51 45q0 15 4 45t4 45t-4 46t-4 46q0 8 5 23t5 22q0 38 -2 113.5t-2 113.5q0 72 -4 215t-4 213q0 19 2 58.5t2 60.5q0 34 -7 101.5t-7 101.5q0 10 -0.5 29.5t-0.5 30zM281 1792 q0 23 100 23q103 0 141 -5q31 -3 45 -26q144 -202 144 -248q0 -10 -14.5 -15t-28.5 -5t-41 3t-41 3q-3 0 -15 -0.5t-20 -0.5t-17.5 1t-13.5 4q-44 27 -61 55q-96 121 -148 166q-30 30 -30 45z" />
<glyph unicode="&#xe9;" horiz-adv-x="1251" d="M165 1296.5q0 10.5 1 27.5t3.5 26.5t6.5 22t12 19.5t18.5 14t25.5 10t34 3q20 0 59 3t58 3h328q25 0 73.5 3.5t71.5 3.5q14 0 43 -3.5t43 -3.5h102q23 0 32 -9t9 -32q0 -10 -2 -30.5t-2 -30.5q0 -35 -5 -54.5t-21.5 -28t-31.5 -10t-51 -1.5h-14q-54 0 -162 3t-163 3 q-131 0 -197 -10q-13 -1 -16.5 -5t-3.5 -18q-2 -27 -4 -81t-4 -81h2q0 -3 -1 -22t-0.5 -34t1.5 -33t5.5 -28t12.5 -10q82 0 248 7.5t248 7.5q66 0 86 -25q6 -18 6 -108q0 -28 -12 -50q-4 -8 -28 -13t-60 -6t-67.5 -1t-66 1t-39.5 1q-54 0 -153.5 -3.5t-130.5 -4.5 q-25 -2 -33 -8.5t-8 -28.5q0 -30 2 -88t2 -86q0 -36 -4 -108.5t-4 -108.5q0 -5 -1 -19.5t-1 -26t1 -24.5t6 -20.5t13 -7.5q18 0 54 2t53 2q15 0 43 -2t43 -2q69 0 208 7t209 7q55 0 70.5 -20t15.5 -78q0 -26 -0.5 -37t-4 -28t-10.5 -24t-21 -12.5t-35 -5.5q-15 0 -46 -5 t-46 -5q-14 0 -43 4t-45 4q-42 0 -127.5 -2t-128.5 -2q-64 0 -195 -4t-197 -4q-51 0 -51 45q0 15 4 45t4 45t-4 46t-4 46q0 8 5 23t5 22q0 38 -2 113.5t-2 113.5q0 72 -4 215t-4 213q0 19 2 58.5t2 60.5q0 34 -7 101.5t-7 101.5q0 10 -0.5 29.5t-0.5 30zM592 1528 q0 48 143 248q17 23 45 26q31 4 142 4q100 0 100 -22q0 -14 -31 -45q-56 -48 -145 -166q-19 -28 -64 -55q-8 -5 -63 -5q-15 0 -43 -3t-41 -3t-28 5t-15 16z" />
<glyph unicode="&#xea;" horiz-adv-x="1251" d="M165 1296.5q0 10.5 1 27.5t3.5 26.5t6.5 22t12 19.5t18.5 14t25.5 10t34 3q20 0 59 3t58 3h328q25 0 73.5 3.5t71.5 3.5q14 0 43 -3.5t43 -3.5h102q23 0 32 -9t9 -32q0 -10 -2 -30.5t-2 -30.5q0 -35 -5 -54.5t-21.5 -28t-31.5 -10t-51 -1.5h-14q-54 0 -162 3t-163 3 q-131 0 -197 -10q-13 -1 -16.5 -5t-3.5 -18q-2 -27 -4 -81t-4 -81h2q0 -3 -1 -22t-0.5 -34t1.5 -33t5.5 -28t12.5 -10q82 0 248 7.5t248 7.5q66 0 86 -25q6 -18 6 -108q0 -28 -12 -50q-4 -8 -28 -13t-60 -6t-67.5 -1t-66 1t-39.5 1q-54 0 -153.5 -3.5t-130.5 -4.5 q-25 -2 -33 -8.5t-8 -28.5q0 -30 2 -88t2 -86q0 -36 -4 -108.5t-4 -108.5q0 -5 -1 -19.5t-1 -26t1 -24.5t6 -20.5t13 -7.5q18 0 54 2t53 2q15 0 43 -2t43 -2q69 0 208 7t209 7q55 0 70.5 -20t15.5 -78q0 -26 -0.5 -37t-4 -28t-10.5 -24t-21 -12.5t-35 -5.5q-15 0 -46 -5 t-46 -5q-14 0 -43 4t-45 4q-42 0 -127.5 -2t-128.5 -2q-64 0 -195 -4t-197 -4q-51 0 -51 45q0 15 4 45t4 45t-4 46t-4 46q0 8 5 23t5 22q0 38 -2 113.5t-2 113.5q0 72 -4 215t-4 213q0 19 2 58.5t2 60.5q0 34 -7 101.5t-7 101.5q0 10 -0.5 29.5t-0.5 30zM313 1509 q0 4 35 62.5t77.5 127t45.5 73.5q24 43 119 43q12 0 90 -5q34 -3 59 -34q29 -36 85.5 -110t84.5 -110q6 -7 8.5 -14t2.5 -18v-15q-2 -3 -3.5 -4.5t-3.5 -2.5t-3.5 -2t-4 -1h-4h-5h-5.5h-150q-40 0 -63 33q-15 17 -39.5 51.5t-36.5 48.5l-61 -106q-15 -31 -47 -31 q-132 0 -158 2q-23 0 -23 12z" />
<glyph unicode="&#xeb;" horiz-adv-x="1251" d="M165 1296.5q0 10.5 1 27.5t3.5 26.5t6.5 22t12 19.5t18.5 14t25.5 10t34 3q20 0 59 3t58 3h328q25 0 73.5 3.5t71.5 3.5q14 0 43 -3.5t43 -3.5h102q23 0 32 -9t9 -32q0 -10 -2 -30.5t-2 -30.5q0 -35 -5 -54.5t-21.5 -28t-31.5 -10t-51 -1.5h-14q-54 0 -162 3t-163 3 q-131 0 -197 -10q-13 -1 -16.5 -5t-3.5 -18q-2 -27 -4 -81t-4 -81h2q0 -3 -1 -22t-0.5 -34t1.5 -33t5.5 -28t12.5 -10q82 0 248 7.5t248 7.5q66 0 86 -25q6 -18 6 -108q0 -28 -12 -50q-4 -8 -28 -13t-60 -6t-67.5 -1t-66 1t-39.5 1q-54 0 -153.5 -3.5t-130.5 -4.5 q-25 -2 -33 -8.5t-8 -28.5q0 -30 2 -88t2 -86q0 -36 -4 -108.5t-4 -108.5q0 -5 -1 -19.5t-1 -26t1 -24.5t6 -20.5t13 -7.5q18 0 54 2t53 2q15 0 43 -2t43 -2q69 0 208 7t209 7q55 0 70.5 -20t15.5 -78q0 -26 -0.5 -37t-4 -28t-10.5 -24t-21 -12.5t-35 -5.5q-15 0 -46 -5 t-46 -5q-14 0 -43 4t-45 4q-42 0 -127.5 -2t-128.5 -2q-64 0 -195 -4t-197 -4q-51 0 -51 45q0 15 4 45t4 45t-4 46t-4 46q0 8 5 23t5 22q0 38 -2 113.5t-2 113.5q0 72 -4 215t-4 213q0 19 2 58.5t2 60.5q0 34 -7 101.5t-7 101.5q0 10 -0.5 29.5t-0.5 30zM309 1612q0 25 8 41 q2 9 3.5 32.5t9.5 34.5t32 17q8 2 21.5 7t25 8t21.5 3q43 0 81 -19.5t48 -56.5q12 -54 12 -65q0 -52 -36 -90.5t-86 -38.5q-43 0 -109 49q-31 18 -31 78zM655 1642q0 45 35.5 79t81.5 34q11 0 31.5 -3.5t27.5 -4.5q42 -4 69.5 -41.5t27.5 -81.5q0 -38 -21.5 -66t-58.5 -40 q-45 -15 -62 -15q-44 0 -92 25q-17 8 -28 47.5t-11 66.5z" />
<glyph unicode="&#xec;" horiz-adv-x="583" d="M-55 1769q0 23 100 23q111 0 141 -4q30 -3 45 -27q144 -202 144 -248q0 -10 -14.5 -15t-28.5 -5t-41 3t-41 3q-3 0 -15 -0.5t-20 -0.5t-17.5 1t-13.5 4q-43 26 -61 56q-93 118 -148 165q-30 30 -30 45zM164 700q0 40 4 119t4 119q0 24 -3 72t-3 71v299q0 10 7 17.5 t20 11.5t26.5 6.5t32 3.5t31 1t29 -0.5t20.5 -0.5q67 0 67 -59l-2 -193q0 -24 3 -74.5t3 -76.5q0 -34 -4 -101t-4 -100q0 -37 5.5 -109t5.5 -108q0 -16 5 -44t5 -42q0 -10 -5 -25t-5 -22q0 -23 5 -70t5 -73q0 -24 2 -71t2 -69t-2 -32q-2 -11 -3 -43.5t-3 -55.5t-14.5 -43 t-35.5 -20h-129q-40 4 -50 29q-7 28 -7 128q-1 61 -4.5 174.5t-5.5 206t-2 174.5z" />
<glyph unicode="&#xed;" horiz-adv-x="583" d="M164 700q0 40 4 119t4 119q0 24 -3 72t-3 71v299q0 10 7 17.5t20 11.5t26.5 6.5t32 3.5t31 1t29 -0.5t20.5 -0.5q67 0 67 -59l-2 -193q0 -24 3 -74.5t3 -76.5q0 -34 -4 -101t-4 -100q0 -37 5.5 -109t5.5 -108q0 -16 5 -44t5 -42q0 -10 -5 -25t-5 -22q0 -23 5 -70t5 -73 q0 -24 2 -71t2 -69t-2 -32q-2 -11 -3 -43.5t-3 -55.5t-14.5 -43t-35.5 -20h-129q-40 4 -50 29q-7 28 -7 128q-1 61 -4.5 174.5t-5.5 206t-2 174.5zM215 1513q0 48 143 248q18 24 45 27q31 4 142 4q100 0 100 -23q0 -14 -31 -45q-58 -49 -145 -165q-21 -31 -63 -56 q-5 -4 -16 -5t-29 0t-19 1q-15 0 -43 -3t-41 -3q-14 0 -28.5 5t-14.5 15z" />
<glyph unicode="&#xee;" horiz-adv-x="583" d="M-12 1499q0 4 34.5 62t77 126.5t45.5 73.5q24 43 119 43q28 0 90 -4q34 -3 60 -35q29 -36 85 -109.5t85 -109.5q6 -7 8 -15t1.5 -15t0.5 -17q-2 -3 -3.5 -4.5t-3.5 -2.5t-3.5 -2t-4 -1h-4h-5h-5.5h-149q-41 0 -64 33q-15 17 -39.5 51.5t-36.5 48.5l-61 -106 q-15 -31 -47 -31q-132 0 -158 2q-22 0 -22 12zM164 700q0 40 4 119t4 119q0 24 -3 72t-3 71v299q0 10 7 17.5t20 11.5t26.5 6.5t32 3.5t31 1t29 -0.5t20.5 -0.5q67 0 67 -59l-2 -193q0 -24 3 -74.5t3 -76.5q0 -34 -4 -101t-4 -100q0 -37 5.5 -109t5.5 -108q0 -16 5 -44 t5 -42q0 -10 -5 -25t-5 -22q0 -23 5 -70t5 -73q0 -24 2 -71t2 -69t-2 -32q-2 -11 -3 -43.5t-3 -55.5t-14.5 -43t-35.5 -20h-129q-40 4 -50 29q-7 28 -7 128q-1 61 -4.5 174.5t-5.5 206t-2 174.5z" />
<glyph unicode="&#xef;" horiz-adv-x="583" d="M-16 1610q0 25 8 41q2 9 3.5 32.5t9.5 34.5t32 17q8 2 21.5 7t24.5 8t21 3q43 0 81 -19.5t48 -56.5q13 -59 13 -65q0 -52 -36.5 -90.5t-86.5 -38.5q-43 0 -109 49q-30 18 -30 78zM164 700q0 40 4 119t4 119q0 24 -3 72t-3 71v299q0 10 7 17.5t20 11.5t26.5 6.5t32 3.5 t31 1t29 -0.5t20.5 -0.5q67 0 67 -59l-2 -193q0 -24 3 -74.5t3 -76.5q0 -34 -4 -101t-4 -100q0 -37 5.5 -109t5.5 -108q0 -16 5 -44t5 -42q0 -10 -5 -25t-5 -22q0 -23 5 -70t5 -73q0 -24 2 -71t2 -69t-2 -32q-2 -11 -3 -43.5t-3 -55.5t-14.5 -43t-35.5 -20h-129 q-40 4 -50 29q-7 28 -7 128q-1 61 -4.5 174.5t-5.5 206t-2 174.5zM330 1640q0 45 35 79t81 34q11 0 32 -3.5t28 -4.5q42 -4 69 -41.5t27 -81.5q0 -38 -21.5 -66t-58.5 -40q-45 -15 -61 -15q-44 0 -92 25q-17 8 -28 47.5t-11 66.5z" />
<glyph unicode="&#xf0;" horiz-adv-x="1492" d="M83.5 748q-0.5 11 0 14t1.5 10t3.5 8t7.5 4t12.5 3.5t18.5 0.5q57 0 143 7l2 10q-1 12 -1 25.5t0.5 30.5t0.5 26q0 13 -2 36.5t-2 34.5q0 20 1 61t1 62q0 37 -2 110t-2 109q0 2 6 62q1 3 7 39q8 33 139 33q35 0 104.5 -4.5t104.5 -4.5h39q67 0 151 -24l60 -12 q196 -60 266 -146q72 -83 86 -100q14 -16 25 -37t17 -37t15 -43t14 -39q50 -144 50 -256q0 -5 -1 -15.5t-1 -15.5q0 -50 -19 -139q-22 -111 -65 -188t-125 -168q-16 -18 -43.5 -37t-62.5 -40t-50 -32q-22 -15 -65 -34t-66 -23q-10 -2 -31.5 -3.5t-38.5 -4.5q-10 -2 -51 -12 t-60 -14t-51.5 -8.5t-58.5 -4.5q-15 0 -42 3t-42 3q-7 0 -22 -2t-23 -2q-14 0 -43 4t-43 4q-7 0 -18.5 -1t-18.5 -1t-16.5 1.5t-14.5 5t-8.5 12t-3.5 20.5q0 15 2 43.5t2 42.5v98q0 158 -2 236q-5 141 -8 170q-52 0 -154 4q-10 0 -12 1.5t-4 12.5q-6 41 -6 84q0 6 -0.5 17z M489 1030q0 -31 5 -201q0 -9 2 -15.5t4 -11t7 -7.5t8 -4.5t11 -2t11.5 -0.5h13.5h14q16 0 36.5 1.5t29.5 2t19.5 -2t14.5 -11t6.5 -24t2.5 -41.5q0 -68 -13 -80t-77 -12h-11q-62 0 -67 -5q-2 -4 -2 -28q0 -3 6 -180q4 -130 12 -175h62q28 0 54.5 4.5t42.5 10t44.5 16.5 t46.5 17q44 13 94 45.5t86 68.5q7 7 20.5 19.5t19.5 19.5t15 18t15.5 23t11.5 27q56 161 56 229q0 24 -4 54t-8 49.5t-12.5 56.5t-10.5 49q-10 42 -72 108.5t-109 94.5q-10 5 -26 9.5t-35.5 9t-28.5 7.5q-11 2 -41 14.5t-34 12.5q-13 1 -65 7.5t-81 6.5h-71q0 -8 -1.5 -23 t-1.5 -22v-135z" />
<glyph unicode="&#xf1;" horiz-adv-x="1466" d="M164 1331q0 45 15.5 64.5t58.5 19.5h17h21.5t21.5 -0.5t23.5 -2.5t20 -4.5t18 -7.5t11.5 -11q21 -32 59 -95.5t59 -95.5q6 -9 19.5 -25.5t17.5 -21.5q52 -64 138.5 -190.5t113.5 -182.5q19 -40 129.5 -188t136.5 -164q3 12 3 23q0 35 -2.5 103.5t-2.5 102.5q0 13 2.5 40 t2.5 42v135q0 31 -5.5 96.5t-5.5 98.5q0 8 3 23.5t3 23.5q0 7 -3 22.5t-3 22.5q0 127 11 232q5 45 83 45q10 0 30 -3t30 -3q9 0 26.5 4t26.5 4q13 0 25.5 -8.5t13.5 -22.5q5 -35 7 -74.5t3 -88t2 -75.5q1 -19 5 -71.5t4 -81.5q0 -173 -13 -303q-4 -26 -4 -59t2 -73.5 t2 -60.5q0 -41 1 -121t1 -120q0 -4 0.5 -47t0 -57t-2.5 -47t-6.5 -57t-11.5 -46q-10 -33 -45 -33q-89 0 -160 8q-65 6 -90 61q-17 33 -38.5 52.5t-25.5 25.5q-43 72 -110 156q-34 43 -90.5 126t-73.5 107q-14 19 -41.5 55t-32.5 42q-20 29 -71 104t-80 115l-6 -4 q-5 -20 -5 -29q0 -50 3.5 -151.5t3.5 -151.5q0 -16 -5.5 -49.5t-5.5 -50.5q0 -42 7.5 -127t7.5 -127q0 -13 0.5 -37t0.5 -34t-1.5 -27.5t-5.5 -24.5t-12 -17.5t-20.5 -14.5t-30.5 -7.5t-42 -3.5q-37 0 -78 6q-41 3 -41 45q-8 109 -8 250q0 63 3 187.5t3 185.5q0 62 -7 184 t-7 182q0 13 2 37t2 35q0 39 -4 116t-4 115zM358 1565q0 88 34.5 160t109.5 96q6 2 18.5 6.5t17.5 6l15 4.5t17 4t17 2t21 1q33 0 61 -14.5t48.5 -35t40 -40.5t45 -34.5t55.5 -14.5q25 0 41.5 32.5t18.5 61.5q0 20 16 23q25 4 74 4q77 0 77 -29q0 -76 -38 -162 q-52 -110 -193 -110q-47 0 -82 15t-53.5 36t-33.5 42.5t-31.5 36.5t-37.5 15q-43 0 -63.5 -36.5t-20.5 -82.5q0 -20 -9.5 -27t-30.5 -7q-16 0 -46 1t-45 1q-43 3 -43 45z" />
<glyph unicode="&#xf2;" horiz-adv-x="1763" d="M143 682q0 182 89.5 350t242.5 260q134 81 226.5 113.5t224.5 32.5q62 0 121 -19h6q19 0 52 -16t44 -19q14 -3 32 -14t27 -14q38 -11 80 -35.5t66 -50.5l78 -94l6 -9q70 -88 126 -199t56 -198q0 -59 -1 -99t-7 -78t-9.5 -58t-18.5 -56t-23.5 -53t-35 -68t-42.5 -84 q-15 -30 -37.5 -53t-55 -47.5t-49.5 -40.5q-7 -15 -45 -39q-36 -17 -67 -39q-42 -26 -142.5 -45t-156.5 -16v-2h-6q-14 0 -42 3.5t-38 4.5q-10 -4 -33 -4q-19 0 -34.5 1.5t-24.5 3.5t-26 6t-30 7q-9 2 -43 8.5t-48.5 10.5t-40.5 12t-45 18.5t-36 24.5q-15 12 -30 21 q-42 23 -74 63q-7 8 -47 43q-68 65 -112.5 168.5t-59.5 208.5q-1 10 -9 41.5t-8 48.5zM393 657q0 -66 38 -149t87 -141q11 -14 45 -38t45 -34q24 -21 153.5 -44.5t182.5 -23.5q21 0 46.5 4.5t61 13.5t46.5 11q15 3 21.5 7.5t10.5 17.5q3 9 26.5 18t27.5 12q75 56 102 99 q2 5 7.5 13t9 15.5t2.5 14.5q3 7 36 63.5t33 87.5q0 74 -13 158t-49.5 172.5t-88.5 126.5q-5 4 -13.5 21t-17.5 22q-15 11 -35 22.5t-34 18t-39 18.5t-35 17q-59 26 -142 26q-184 0 -303 -98q-58 -49 -100 -102q0 -2 -2 -2q-8 -4 -13 -13t-9 -22t-7 -17q-8 -15 -23.5 -42 t-22 -39.5t-15 -34.5t-12.5 -44.5t-5 -50.5q-2 -27 -2 -84zM502 1792q0 23 100 23q104 0 141 -5q31 -3 45 -26q144 -202 144 -248q0 -10 -14.5 -15t-28.5 -5q-13 0 -41 3t-41 3q-3 0 -15 -0.5t-20 -0.5t-17.5 1t-13.5 4q-44 27 -61 55q-96 121 -148 166q-30 30 -30 45z" />
<glyph unicode="&#xf3;" horiz-adv-x="1763" d="M143 682q0 182 89.5 350t242.5 260q134 81 226.5 113.5t224.5 32.5q62 0 121 -19h6q19 0 52 -16t44 -19q14 -3 32 -14t27 -14q38 -11 80 -35.5t66 -50.5l78 -94l6 -9q70 -88 126 -199t56 -198q0 -59 -1 -99t-7 -78t-9.5 -58t-18.5 -56t-23.5 -53t-35 -68t-42.5 -84 q-15 -30 -37.5 -53t-55 -47.5t-49.5 -40.5q-7 -15 -45 -39q-36 -17 -67 -39q-42 -26 -142.5 -45t-156.5 -16v-2h-6q-14 0 -42 3.5t-38 4.5q-10 -4 -33 -4q-19 0 -34.5 1.5t-24.5 3.5t-26 6t-30 7q-9 2 -43 8.5t-48.5 10.5t-40.5 12t-45 18.5t-36 24.5q-15 12 -30 21 q-42 23 -74 63q-7 8 -47 43q-68 65 -112.5 168.5t-59.5 208.5q-1 10 -9 41.5t-8 48.5zM393 657q0 -66 38 -149t87 -141q11 -14 45 -38t45 -34q24 -21 153.5 -44.5t182.5 -23.5q21 0 46.5 4.5t61 13.5t46.5 11q15 3 21.5 7.5t10.5 17.5q3 9 26.5 18t27.5 12q75 56 102 99 q2 5 7.5 13t9 15.5t2.5 14.5q3 7 36 63.5t33 87.5q0 74 -13 158t-49.5 172.5t-88.5 126.5q-5 4 -13.5 21t-17.5 22q-15 11 -35 22.5t-34 18t-39 18.5t-35 17q-59 26 -142 26q-184 0 -303 -98q-58 -49 -100 -102q0 -2 -2 -2q-8 -4 -13 -13t-9 -22t-7 -17q-8 -15 -23.5 -42 t-22 -39.5t-15 -34.5t-12.5 -44.5t-5 -50.5q-2 -27 -2 -84zM801 1536q0 48 143 248q17 23 45 26q39 5 141 5q101 0 101 -23q0 -14 -31 -45q-56 -48 -145 -166q-19 -28 -64 -55q-5 -4 -16 -5t-28.5 0t-18.5 1q-15 0 -43 -3t-41 -3q-14 0 -28.5 5t-14.5 15z" />
<glyph unicode="&#xf4;" horiz-adv-x="1763" d="M143 682q0 182 89.5 350t242.5 260q134 81 226.5 113.5t224.5 32.5q62 0 121 -19h6q19 0 52 -16t44 -19q14 -3 32 -14t27 -14q38 -11 80 -35.5t66 -50.5l78 -94l6 -9q70 -88 126 -199t56 -198q0 -59 -1 -99t-7 -78t-9.5 -58t-18.5 -56t-23.5 -53t-35 -68t-42.5 -84 q-15 -30 -37.5 -53t-55 -47.5t-49.5 -40.5q-7 -15 -45 -39q-36 -17 -67 -39q-42 -26 -142.5 -45t-156.5 -16v-2h-6q-14 0 -42 3.5t-38 4.5q-10 -4 -33 -4q-19 0 -34.5 1.5t-24.5 3.5t-26 6t-30 7q-9 2 -43 8.5t-48.5 10.5t-40.5 12t-45 18.5t-36 24.5q-15 12 -30 21 q-42 23 -74 63q-7 8 -47 43q-68 65 -112.5 168.5t-59.5 208.5q-1 10 -9 41.5t-8 48.5zM393 657q0 -66 38 -149t87 -141q11 -14 45 -38t45 -34q24 -21 153.5 -44.5t182.5 -23.5q21 0 46.5 4.5t61 13.5t46.5 11q15 3 21.5 7.5t10.5 17.5q3 9 26.5 18t27.5 12q75 56 102 99 q2 5 7.5 13t9 15.5t2.5 14.5q3 7 36 63.5t33 87.5q0 74 -13 158t-49.5 172.5t-88.5 126.5q-5 4 -13.5 21t-17.5 22q-15 11 -35 22.5t-34 18t-39 18.5t-35 17q-59 26 -142 26q-184 0 -303 -98q-58 -49 -100 -102q0 -2 -2 -2q-8 -4 -13 -13t-9 -22t-7 -17q-8 -15 -23.5 -42 t-22 -39.5t-15 -34.5t-12.5 -44.5t-5 -50.5q-2 -27 -2 -84zM573 1518q0 4 35 62t77.5 126t45.5 74q24 43 119 43q28 0 90 -4q33 -3 59 -35q29 -36 85.5 -109.5t84.5 -109.5q6 -7 8.5 -14t2.5 -18v-15q-7 -11 -29 -11h-150q-40 0 -63 33q-15 17 -39.5 51.5t-36.5 48.5 l-61 -106q-15 -31 -47 -31q-132 0 -158 2q-23 0 -23 13z" />
<glyph unicode="&#xf5;" horiz-adv-x="1763" d="M143 682q0 182 89.5 350t242.5 260q134 81 226.5 113.5t224.5 32.5q62 0 121 -19h6q19 0 52 -16t44 -19q14 -3 32 -14t27 -14q38 -11 80 -35.5t66 -50.5l78 -94l6 -9q70 -88 126 -199t56 -198q0 -59 -1 -99t-7 -78t-9.5 -58t-18.5 -56t-23.5 -53t-35 -68t-42.5 -84 q-15 -30 -37.5 -53t-55 -47.5t-49.5 -40.5q-7 -15 -45 -39q-36 -17 -67 -39q-42 -26 -142.5 -45t-156.5 -16v-2h-6q-14 0 -42 3.5t-38 4.5q-10 -4 -33 -4q-19 0 -34.5 1.5t-24.5 3.5t-26 6t-30 7q-9 2 -43 8.5t-48.5 10.5t-40.5 12t-45 18.5t-36 24.5q-15 12 -30 21 q-42 23 -74 63q-7 8 -47 43q-68 65 -112.5 168.5t-59.5 208.5q-1 10 -9 41.5t-8 48.5zM393 657q0 -66 38 -149t87 -141q11 -14 45 -38t45 -34q24 -21 153.5 -44.5t182.5 -23.5q21 0 46.5 4.5t61 13.5t46.5 11q15 3 21.5 7.5t10.5 17.5q3 9 26.5 18t27.5 12q75 56 102 99 q2 5 7.5 13t9 15.5t2.5 14.5q3 7 36 63.5t33 87.5q0 74 -13 158t-49.5 172.5t-88.5 126.5q-5 4 -13.5 21t-17.5 22q-15 11 -35 22.5t-34 18t-39 18.5t-35 17q-59 26 -142 26q-184 0 -303 -98q-58 -49 -100 -102q0 -2 -2 -2q-8 -4 -13 -13t-9 -22t-7 -17q-8 -15 -23.5 -42 t-22 -39.5t-15 -34.5t-12.5 -44.5t-5 -50.5q-2 -27 -2 -84zM514 1530q0 88 34 160t109 96q5 2 18.5 6.5l18 6t15 4.5t17.5 4t17 2t21 1q33 0 61 -14.5t48.5 -35t40 -40.5t45 -34.5t55.5 -14.5q25 0 41 32.5t18 61.5q0 20 17 23q25 4 73 4q78 0 78 -29q0 -73 -39 -161 q-53 -111 -192 -111q-47 0 -82 15t-53.5 36.5t-33.5 42.5t-31.5 36t-37.5 15q-43 0 -63.5 -36t-20.5 -82q0 -20 -10 -27.5t-31 -7.5q-15 0 -45 1t-45 1q-43 3 -43 45z" />
<glyph unicode="&#xf6;" horiz-adv-x="1763" d="M143 682q0 182 89.5 350t242.5 260q134 81 226.5 113.5t224.5 32.5q62 0 121 -19h6q19 0 52 -16t44 -19q14 -3 32 -14t27 -14q38 -11 80 -35.5t66 -50.5l78 -94l6 -9q70 -88 126 -199t56 -198q0 -59 -1 -99t-7 -78t-9.5 -58t-18.5 -56t-23.5 -53t-35 -68t-42.5 -84 q-15 -30 -37.5 -53t-55 -47.5t-49.5 -40.5q-7 -15 -45 -39q-36 -17 -67 -39q-42 -26 -142.5 -45t-156.5 -16v-2h-6q-14 0 -42 3.5t-38 4.5q-10 -4 -33 -4q-19 0 -34.5 1.5t-24.5 3.5t-26 6t-30 7q-9 2 -43 8.5t-48.5 10.5t-40.5 12t-45 18.5t-36 24.5q-15 12 -30 21 q-42 23 -74 63q-7 8 -47 43q-68 65 -112.5 168.5t-59.5 208.5q-1 10 -9 41.5t-8 48.5zM393 657q0 -66 38 -149t87 -141q11 -14 45 -38t45 -34q24 -21 153.5 -44.5t182.5 -23.5q21 0 46.5 4.5t61 13.5t46.5 11q15 3 21.5 7.5t10.5 17.5q3 9 26.5 18t27.5 12q75 56 102 99 q2 5 7.5 13t9 15.5t2.5 14.5q3 7 36 63.5t33 87.5q0 74 -13 158t-49.5 172.5t-88.5 126.5q-5 4 -13.5 21t-17.5 22q-15 11 -35 22.5t-34 18t-39 18.5t-35 17q-59 26 -142 26q-184 0 -303 -98q-58 -49 -100 -102q0 -2 -2 -2q-8 -4 -13 -13t-9 -22t-7 -17q-8 -15 -23.5 -42 t-22 -39.5t-15 -34.5t-12.5 -44.5t-5 -50.5q-2 -27 -2 -84zM569 1612q0 23 9 41q2 9 3.5 32.5t9.5 34.5t32 17q8 2 21.5 7t24.5 8t21 3q43 0 81 -19.5t48 -56.5q12 -54 12 -65q0 -52 -36 -90.5t-86 -38.5q-43 0 -109 49q-31 18 -31 78zM915 1642q0 45 35.5 79t81.5 34 q11 0 32 -3.5t28 -4.5q42 -4 69 -41.5t27 -81.5q0 -38 -21.5 -66t-58.5 -40q-45 -15 -61 -15q-45 0 -93 25q-17 8 -28 47.5t-11 66.5z" />
<glyph unicode="&#xf7;" horiz-adv-x="1044" d="M123 637v37q0 41 61 41h107v2h123q24 0 73 -3t74 -3q37 0 110.5 1t110.5 1l86 2q54 0 54 -35v-43q0 -20 -8 -33.5t-17 -20.5t-28 -10t-30 -3.5t-34 -0.5h-12q-34 0 -102 2t-103 2q-36 0 -109 -1t-110 -1q-31 0 -95 1t-96 1q-19 0 -28 1t-16.5 9t-8.5 25q-2 10 -2 29z M373 954q0 51 32.5 85t83.5 34q54 0 99 -28.5t45 -79.5q0 -125 -111 -125q-19 0 -57 7t-47 15q-45 36 -45 92zM391 344q0 17 6 35q8 29 21.5 46.5t34.5 25.5t40 10t52 2q43 0 98 -47q31 -24 31 -72q0 -62 -38 -97.5t-101 -35.5q-57 0 -100.5 38t-43.5 95z" />
<glyph unicode="&#xf8;" horiz-adv-x="1730" d="M143 727q0 13 0.5 25.5t1.5 22.5t3 22.5t3 19.5t4.5 21t5 19t6.5 21t6 20t7.5 23t7.5 23q41 122 109 223q15 22 46.5 47.5t43.5 38.5q9 10 20.5 20.5t19 15.5l24 16t20.5 14q104 71 213 96l10 4q55 25 221 25h11q29 -9 83.5 -19t94.5 -23t76 -38q6 -5 16.5 -16.5 t11.5 -12.5q10 15 24.5 35.5t43.5 52t43 31.5q12 0 56 -32t44 -42q0 -6 -16.5 -26.5t-40.5 -47.5l-25 -26q20 -26 58 -72.5t51.5 -65.5t36.5 -55.5t38.5 -75t32.5 -91.5q4 -15 18.5 -32t14.5 -48v-105q0 -128 -31 -219q-4 -9 -6 -19t-3.5 -22.5t-2.5 -19.5q-7 -25 -31 -60 l-18 -28q-33 -52 -94 -117q-53 -57 -87.5 -91t-91.5 -76.5t-110 -62.5q-38 -13 -111 -23.5t-118 -10.5q-140 0 -297 41q-22 6 -44.5 19.5t-55 37t-40.5 29.5q-1 -1 -17.5 -18.5t-31.5 -33t-30.5 -29.5t-20.5 -14q-11 0 -50.5 31.5t-39.5 42.5q0 8 17 33t41 56t26 34 q-48 56 -72 88q-35 51 -88 172q-6 13 -9 29t-5 36.5t-4 30.5q-19 81 -19 156zM391 721q0 -223 92 -322q33 28 63.5 65t70 93.5t53.5 75.5q10 14 32.5 40.5t32.5 41.5q22 29 89.5 118.5t105.5 137.5q76 91 114 147q8 11 13 35q-4 2 -12 5q-99 37 -155 41q-12 1 -24 1 q-23 0 -73 -8q-32 -8 -50 -8q-29 -3 -108 -33q-19 -8 -57 -37l-23 -16q-75 -54 -119.5 -164.5t-44.5 -212.5zM612 305q68 -34 114.5 -46.5t117.5 -12.5q39 0 100 14q132 24 203 100l82 84q33 38 61.5 115t28.5 127q0 22 -6 43q-2 15 -3 47t-3 47q-15 90 -36.5 141.5 t-78.5 94.5q-31 -22 -298 -365.5t-278 -374.5z" />
<glyph unicode="&#xf9;" horiz-adv-x="1179" d="M143 1329q0 25 0.5 40t5.5 26.5t8 16.5t17 8t22.5 3h34.5h19q6 0 24 0.5t28.5 0.5t24.5 -2t23 -5q21 -6 21 -28q14 -179 14 -310q0 -17 -2 -51t-2 -51q0 -10 3 -30t3 -29q0 -10 -3 -30t-3 -30q0 -46 3 -138t3 -138q0 -57 3 -99.5t16 -96t35 -87.5t64.5 -58t100.5 -24 q19 0 56.5 7t50.5 14q23 15 30 30q33 72 48.5 143.5t17.5 118.5t2 145v36q0 65 -7 197t-7 198q0 10 -0.5 50t-0.5 71t1 69.5t4 67.5t8 43q2 6 6 10.5t11 7t12 4.5t15 2.5t14 0.5h14.5h11.5q37 0 61 -2.5t39 -11t21.5 -16.5t8.5 -26t0.5 -33.5t-3.5 -44.5t-2 -53q0 -38 8 -69 q10 -37 10 -291q0 -16 -1 -49.5t-1 -51.5v-209q0 -21 -10 -118q-2 -14 -4 -55t-6.5 -71t-14.5 -52l-4 -9l-34 -84q-5 -14 -12.5 -26.5t-19.5 -25t-19 -20t-25 -20.5t-23 -16.5t-26 -17.5t-23 -15q-49 -32 -98 -37q-19 -1 -57 -8.5t-60 -7.5q-187 0 -287.5 94.5t-138.5 280.5 q-7 36 -9 82t-1 107.5t0 84.5q-1 54 -4.5 220.5t-3.5 256.5q0 36 -5.5 106t-5.5 105zM268 1718q0 23 101 23q111 0 141 -4q30 -3 45 -27q143 -200 143 -248q0 -10 -14.5 -15t-28.5 -5q-13 0 -41 3t-41 3q-3 0 -14.5 -0.5t-19.5 -0.5t-17.5 1t-13.5 4q-45 28 -62 55 q-98 124 -147 166q-31 31 -31 45z" />
<glyph unicode="&#xfa;" horiz-adv-x="1179" d="M143 1329q0 25 0.5 40t5.5 26.5t8 16.5t17 8t22.5 3h34.5h19q6 0 24 0.5t28.5 0.5t24.5 -2t23 -5q21 -6 21 -28q14 -179 14 -310q0 -17 -2 -51t-2 -51q0 -10 3 -30t3 -29q0 -10 -3 -30t-3 -30q0 -46 3 -138t3 -138q0 -57 3 -99.5t16 -96t35 -87.5t64.5 -58t100.5 -24 q19 0 56.5 7t50.5 14q23 15 30 30q33 72 48.5 143.5t17.5 118.5t2 145v36q0 65 -7 197t-7 198q0 10 -0.5 50t-0.5 71t1 69.5t4 67.5t8 43q2 6 6 10.5t11 7t12 4.5t15 2.5t14 0.5h14.5h11.5q37 0 61 -2.5t39 -11t21.5 -16.5t8.5 -26t0.5 -33.5t-3.5 -44.5t-2 -53q0 -38 8 -69 q10 -37 10 -291q0 -16 -1 -49.5t-1 -51.5v-209q0 -21 -10 -118q-2 -14 -4 -55t-6.5 -71t-14.5 -52l-4 -9l-34 -84q-5 -14 -12.5 -26.5t-19.5 -25t-19 -20t-25 -20.5t-23 -16.5t-26 -17.5t-23 -15q-49 -32 -98 -37q-19 -1 -57 -8.5t-60 -7.5q-187 0 -287.5 94.5t-138.5 280.5 q-7 36 -9 82t-1 107.5t0 84.5q-1 54 -4.5 220.5t-3.5 256.5q0 36 -5.5 106t-5.5 105zM522 1462q0 46 144 248q18 24 45 27q31 4 141 4q100 0 100 -23q0 -15 -30 -45q-58 -50 -146 -166q-20 -29 -63 -55q-5 -4 -16 -5t-29 0t-19 1q-15 0 -43 -3t-41 -3q-14 0 -28.5 5 t-14.5 15z" />
<glyph unicode="&#xfb;" horiz-adv-x="1179" d="M143 1329q0 25 0.5 40t5.5 26.5t8 16.5t17 8t22.5 3h34.5h19q6 0 24 0.5t28.5 0.5t24.5 -2t23 -5q21 -6 21 -28q14 -179 14 -310q0 -17 -2 -51t-2 -51q0 -10 3 -30t3 -29q0 -10 -3 -30t-3 -30q0 -46 3 -138t3 -138q0 -57 3 -99.5t16 -96t35 -87.5t64.5 -58t100.5 -24 q19 0 56.5 7t50.5 14q23 15 30 30q33 72 48.5 143.5t17.5 118.5t2 145v36q0 65 -7 197t-7 198q0 10 -0.5 50t-0.5 71t1 69.5t4 67.5t8 43q2 6 6 10.5t11 7t12 4.5t15 2.5t14 0.5h14.5h11.5q37 0 61 -2.5t39 -11t21.5 -16.5t8.5 -26t0.5 -33.5t-3.5 -44.5t-2 -53q0 -38 8 -69 q10 -37 10 -291q0 -16 -1 -49.5t-1 -51.5v-209q0 -21 -10 -118q-2 -14 -4 -55t-6.5 -71t-14.5 -52l-4 -9l-34 -84q-5 -14 -12.5 -26.5t-19.5 -25t-19 -20t-25 -20.5t-23 -16.5t-26 -17.5t-23 -15q-49 -32 -98 -37q-19 -1 -57 -8.5t-60 -7.5q-187 0 -287.5 94.5t-138.5 280.5 q-7 36 -9 82t-1 107.5t0 84.5q-1 54 -4.5 220.5t-3.5 256.5q0 36 -5.5 106t-5.5 105zM299 1528q0 4 35 62t77.5 126t45.5 74q24 43 118 43q29 0 91 -4q33 -3 59 -35q28 -36 85 -109.5t85 -109.5q6 -7 8 -15t1.5 -15t0.5 -17q-2 -3 -4 -5t-3.5 -3t-4.5 -1.5t-4 -0.5h-5.5 h-6.5h-150q-41 0 -63 32q-15 17 -39.5 52t-36.5 49l-62 -107q-16 -31 -47 -31q-119 0 -157 3q-23 0 -23 12z" />
<glyph unicode="&#xfc;" horiz-adv-x="1179" d="M143 1329q0 25 0.5 40t5.5 26.5t8 16.5t17 8t22.5 3h34.5h19q6 0 24 0.5t28.5 0.5t24.5 -2t23 -5q21 -6 21 -28q14 -179 14 -310q0 -17 -2 -51t-2 -51q0 -10 3 -30t3 -29q0 -10 -3 -30t-3 -30q0 -46 3 -138t3 -138q0 -57 3 -99.5t16 -96t35 -87.5t64.5 -58t100.5 -24 q19 0 56.5 7t50.5 14q23 15 30 30q33 72 48.5 143.5t17.5 118.5t2 145v36q0 65 -7 197t-7 198q0 10 -0.5 50t-0.5 71t1 69.5t4 67.5t8 43q2 6 6 10.5t11 7t12 4.5t15 2.5t14 0.5h14.5h11.5q37 0 61 -2.5t39 -11t21.5 -16.5t8.5 -26t0.5 -33.5t-3.5 -44.5t-2 -53q0 -38 8 -69 q10 -37 10 -291q0 -16 -1 -49.5t-1 -51.5v-209q0 -21 -10 -118q-2 -14 -4 -55t-6.5 -71t-14.5 -52l-4 -9l-34 -84q-5 -14 -12.5 -26.5t-19.5 -25t-19 -20t-25 -20.5t-23 -16.5t-26 -17.5t-23 -15q-49 -32 -98 -37q-19 -1 -57 -8.5t-60 -7.5q-187 0 -287.5 94.5t-138.5 280.5 q-7 36 -9 82t-1 107.5t0 84.5q-1 54 -4.5 220.5t-3.5 256.5q0 36 -5.5 106t-5.5 105zM295 1612q0 25 8 41q2 9 3.5 32.5t9.5 34.5t32 17q8 2 21.5 7t25 8t21.5 3q43 0 81 -19.5t48 -56.5q12 -54 12 -65q0 -52 -36.5 -90.5t-86.5 -38.5q-42 0 -108 49q-31 18 -31 78z M641 1642q0 45 35.5 79t81.5 34q11 0 31.5 -3.5t27.5 -4.5q42 -4 69 -41.5t27 -81.5q0 -38 -21 -66t-58 -40q-45 -15 -62 -15q-44 0 -92 25q-17 8 -28 47.5t-11 66.5z" />
<glyph unicode="&#xfd;" horiz-adv-x="1347" d="M82 1405v2q9 10 21 12.5t31 0t24 -2.5q24 0 69 8.5t68 8.5q20 0 29.5 -0.5t22.5 -4t22 -12t16 -22.5q142 -270 195 -387q1 -3 15.5 -32.5t19.5 -39t17 -32t22.5 -37t21.5 -27.5q67 102 145 250q13 26 35 78t35 77q44 90 78 154q7 12 10.5 17.5t11.5 10.5t19 5 q93 0 219 -7q37 0 37 -20q0 -19 -39 -74q-50 -82 -102 -176.5t-114 -212.5t-96 -180q-11 -20 -50 -83t-56 -101q-14 -33 -14 -287q0 -37 6 -110t6 -109q0 -29 -14 -64q-2 -5 -16 -8t-36 -4t-40.5 -1t-40.5 0.5t-25 0.5q-48 0 -61 12.5t-13 59.5q0 487 -14 516 q-17 34 -136 237t-224 386.5t-105 197.5zM590 1458q0 48 143 248q18 24 45 27q31 4 142 4q100 0 100 -23q0 -14 -31 -45q-56 -48 -145 -166q-19 -28 -64 -55q-5 -4 -16 -5t-28.5 0t-18.5 1q-15 0 -43 -3t-41 -3q-14 0 -28.5 5t-14.5 15z" />
<glyph unicode="&#xfe;" horiz-adv-x="1486" d="M166 1329q0 87 29 98q6 2 14 2t17 -1t14 -1q6 0 17 1.5t17 1.5q23 0 70 -6.5t51 -6.5q8 -19 8 -102q0 -9 -2.5 -32t-1.5 -36v-49q27 1 75.5 1.5t88.5 1.5t76 3q13 1 55 4.5t64 3.5q16 0 48.5 -3t49.5 -3q5 0 73 -3.5t113 -8t66 -12.5q43 -18 61.5 -26.5t46.5 -29 t44 -47.5q81 -128 81 -272q0 -100 -12 -135q-31 -102 -57 -160q-16 -37 -45 -57q-21 -14 -82 -70q-13 -13 -94 -43q-17 -7 -75.5 -18t-74.5 -21q-30 2 -94 -2q-140 -4 -209 -4q-24 0 -72 4t-73 4q-7 0 -24.5 -1t-25.5 -1q0 -33 -1 -98.5t-1 -98.5q0 -4 0.5 -15t0.5 -19.5 t-0.5 -20t-3 -20t-6 -17t-10 -12.5t-15.5 -4q-120 0 -177 4q-18 0 -18 14q0 93 4 273q6 159 6 160q0 7 -6 20.5t-6 19.5q0 9 2 28t2 28q2 41 2 121q0 22 -3 67t-3 68q0 37 1 111.5t1 111.5v240q0 4 -3 27.5t-3 37.5zM406 616q0 -16 8 -36q-1 -21 -2 -39.5t9 -33t32 -18.5 q22 -3 46 -4t53.5 -1t45.5 -1q14 0 43 -1t43 -1q39 0 59 2q14 1 46.5 1.5t42.5 1.5t32 5t41 12t45 21q46 3 89 46.5t67 99.5t24 100q0 12 -2.5 24.5t-4.5 19t-8.5 22t-8.5 20.5v4q-4 19 -9 31.5t-8 18t-14 21t-16 23.5q-27 42 -66 50q-72 16 -137 16q-16 0 -49 -1t-49 -1 q-12 0 -37 1t-37 1v4q-14 -1 -67 -3t-92.5 -5.5t-63.5 -9.5q-26 -6 -35.5 -18t-11.5 -40q-1 -14 -2.5 -39t-2.5 -45t-1 -37t1 -49t1 -49v-67q0 -7 -2 -23t-2 -23z" />
<glyph unicode="&#xff;" horiz-adv-x="1347" d="M82 1405v2q9 10 21 12.5t31 0t24 -2.5q24 0 69 8.5t68 8.5q20 0 29.5 -0.5t22.5 -4t22 -12t16 -22.5q142 -270 195 -387q1 -3 15.5 -32.5t19.5 -39t17 -32t22.5 -37t21.5 -27.5q67 102 145 250q13 26 35 78t35 77q44 90 78 154q7 12 10.5 17.5t11.5 10.5t19 5 q93 0 219 -7q37 0 37 -20q0 -19 -39 -74q-50 -82 -102 -176.5t-114 -212.5t-96 -180q-11 -20 -50 -83t-56 -101q-14 -33 -14 -287q0 -37 6 -110t6 -109q0 -29 -14 -64q-2 -5 -16 -8t-36 -4t-40.5 -1t-40.5 0.5t-25 0.5q-48 0 -61 12.5t-13 59.5q0 487 -14 516 q-17 34 -136 237t-224 386.5t-105 197.5zM344 1602q0 24 8 40q2 9 3.5 32.5t9.5 34.5t32 17q4 1 29 10t39 9q43 0 81 -19.5t48 -56.5q12 -54 12 -65q0 -52 -36.5 -90.5t-86.5 -38.5q-42 0 -108 49q-31 18 -31 78zM690 1632q0 45 35.5 79t81.5 34q11 0 31.5 -3.5t27.5 -4.5 q42 -4 69.5 -41.5t27.5 -81.5q0 -38 -21.5 -66.5t-58.5 -40.5q-42 -14 -62 -14q-44 0 -92 25q-17 8 -28 47.5t-11 66.5z" />
<glyph unicode="&#x152;" horiz-adv-x="2363" d="M143 719q0 131 72 282q0 3 4 11q18 61 78 127q6 7 32.5 38t43.5 46q90 75 190.5 113.5t227.5 54.5q97 10 114 10q43 0 102.5 -14t94.5 -35q7 -4 24 -5t23 -4q54 -25 154 -100q2 14 5 41t6 48.5t7 39.5q7 30 31 35q32 4 45 4q10 1 51.5 7.5t64.5 6.5q19 0 55 -3t54 -3 t54 2t53 2q24 0 69.5 -6t67.5 -6q16 0 46 2t46 2q171 6 174 6q73 0 80 -49q6 -48 6 -53q0 -32 -12 -78q-5 -22 -14.5 -29.5t-32.5 -7.5q-6 0 -20 1t-21 1q-14 0 -40 -2t-38 -2q-30 0 -89 -1t-89 -1q-22 0 -66 2t-65 2q-30 0 -85 -5.5t-79 -6.5q-19 -1 -24.5 -6.5t-8.5 -24.5 q-4 -62 -4 -94q0 -19 1 -59t1 -60t7.5 -27.5t27.5 -7.5q36 0 108.5 4.5t108.5 4.5q12 0 34 -3.5t33 -3.5q17 0 51 3.5t52 3.5q8 0 24.5 -2t24.5 -2q13 0 36 2t34 2q38 0 45 -43q8 -74 8 -113q0 -13 -11.5 -25t-25.5 -14q-110 -14 -143 -14q-32 0 -95 6t-94 6q-12 0 -35 -2 t-34 -2q-23 0 -52.5 1t-39.5 2t-25 -4t-17.5 -9.5t-7 -23t-4.5 -36.5v-57q0 -4 6 -193q0 -98 2 -145q2 -22 10 -31t29 -10h56q13 0 41 1t43 1q27 0 82 -3t83 -3q49 0 146 5t145 5q17 0 28 -6.5t15.5 -22t5.5 -23.5t2 -30q5 -30 5 -41q0 -63 -18 -77t-76 -15h-15 q-70 -4 -109 -4q-17 0 -49 2t-49 2q-55 0 -166 -6t-166 -6q-27 0 -84 8t-84 8t-45.5 3.5t-30 10.5t-18 18t-9 24.5t-3.5 31t0 37.5v23q-10 -6 -37 -22.5t-39.5 -23.5t-36.5 -20.5t-40.5 -20.5t-38.5 -15.5t-42 -14.5q-113 -25 -194 -25q-210 0 -330 60q-9 4 -39 20t-47 23 q-21 5 -22 6q-22 13 -59 38t-52 34l-27 30q-54 60 -92 129q-17 30 -45 97t-28 86q0 4 1 11t1 11q0 7 -5 37q-4 82 -4 121zM365 739q0 -26 3.5 -73t4.5 -60q0 -38 22 -88q52 -112 121 -162l25 -22q67 -59 132.5 -83t157.5 -24q170 0 299 97q58 43 99 133q2 4 4 13.5t4 14.5 q16 35 29.5 85t13.5 83q0 22 -4 62h2q-1 8 -2 25q-10 134 -30 191q-33 90 -124 148q-47 33 -57 43q-9 9 -20 16t-18.5 11t-24 7t-21 3.5t-25.5 2t-24 1.5q-50 8 -74 8q-36 0 -102 -12q-6 -1 -19.5 -5.5t-21.5 -4.5q-4 0 -10.5 2t-10.5 2q-41 0 -145 -84q-17 -17 -35 -29 q-55 -43 -102 -137.5t-47 -163.5z" />
<glyph unicode="&#x153;" horiz-adv-x="2363" d="M143 719q0 131 72 282q0 3 4 11q18 61 78 127q6 7 32.5 38t43.5 46q90 75 190.5 113.5t227.5 54.5q97 10 114 10q43 0 102.5 -14t94.5 -35q7 -4 24 -5t23 -4q54 -25 154 -100q2 14 5 41t6 48.5t7 39.5q7 30 31 35q32 4 45 4q10 1 51.5 7.5t64.5 6.5q19 0 55 -3t54 -3 t54 2t53 2q24 0 69.5 -6t67.5 -6q16 0 46 2t46 2q171 6 174 6q73 0 80 -49q6 -48 6 -53q0 -32 -12 -78q-5 -22 -14.5 -29.5t-32.5 -7.5q-6 0 -20 1t-21 1q-14 0 -40 -2t-38 -2q-30 0 -89 -1t-89 -1q-22 0 -66 2t-65 2q-30 0 -85 -5.5t-79 -6.5q-19 -1 -24.5 -6.5t-8.5 -24.5 q-4 -62 -4 -94q0 -19 1 -59t1 -60t7.5 -27.5t27.5 -7.5q36 0 108.5 4.5t108.5 4.5q12 0 34 -3.5t33 -3.5q17 0 51 3.5t52 3.5q8 0 24.5 -2t24.5 -2q13 0 36 2t34 2q38 0 45 -43q8 -74 8 -113q0 -13 -11.5 -25t-25.5 -14q-110 -14 -143 -14q-32 0 -95 6t-94 6q-12 0 -35 -2 t-34 -2q-23 0 -52.5 1t-39.5 2t-25 -4t-17.5 -9.5t-7 -23t-4.5 -36.5v-57q0 -4 6 -193q0 -98 2 -145q2 -22 10 -31t29 -10h56q13 0 41 1t43 1q27 0 82 -3t83 -3q49 0 146 5t145 5q17 0 28 -6.5t15.5 -22t5.5 -23.5t2 -30q5 -30 5 -41q0 -63 -18 -77t-76 -15h-15 q-70 -4 -109 -4q-17 0 -49 2t-49 2q-55 0 -166 -6t-166 -6q-27 0 -84 8t-84 8t-45.5 3.5t-30 10.5t-18 18t-9 24.5t-3.5 31t0 37.5v23q-10 -6 -37 -22.5t-39.5 -23.5t-36.5 -20.5t-40.5 -20.5t-38.5 -15.5t-42 -14.5q-113 -25 -194 -25q-210 0 -330 60q-9 4 -39 20t-47 23 q-21 5 -22 6q-22 13 -59 38t-52 34l-27 30q-54 60 -92 129q-17 30 -45 97t-28 86q0 4 1 11t1 11q0 7 -5 37q-4 82 -4 121zM365 739q0 -26 3.5 -73t4.5 -60q0 -38 22 -88q52 -112 121 -162l25 -22q67 -59 132.5 -83t157.5 -24q170 0 299 97q58 43 99 133q2 4 4 13.5t4 14.5 q16 35 29.5 85t13.5 83q0 22 -4 62h2q-1 8 -2 25q-10 134 -30 191q-33 90 -124 148q-47 33 -57 43q-9 9 -20 16t-18.5 11t-24 7t-21 3.5t-25.5 2t-24 1.5q-50 8 -74 8q-36 0 -102 -12q-6 -1 -19.5 -5.5t-21.5 -4.5q-4 0 -10.5 2t-10.5 2q-41 0 -145 -84q-17 -17 -35 -29 q-55 -43 -102 -137.5t-47 -163.5z" />
<glyph unicode="&#x178;" horiz-adv-x="1308" d="M84 1415q8 8 87.5 12.5t121.5 4.5q26 0 37 -17q25 -40 149.5 -274.5t194.5 -319.5q17 30 92 179t141.5 279.5t69.5 133.5q68 25 227 25q23 0 23 -13q0 -18 -95 -199t-210.5 -392.5t-126.5 -233.5q-5 -11 -9 -30t-6 -36.5t-3 -46.5t-1 -43v-43v-32q0 -36 1 -76t2.5 -88.5 t2.5 -75.5q0 -13 3 -37t3 -35q0 -10 -2 -14q-13 -38 -20.5 -42.5t-50.5 -4.5q-85 0 -164 6q-23 0 -23 21q-2 22 -2 47t1 56t1 48q0 9 -3 28t-3 29q0 34 5 102.5t5 102.5q0 73 -14 162q-9 39 -112 205q-32 47 -177.5 317.5t-144.5 294.5zM344 1601q0 25 8 41q2 9 3.5 32.5 t9.5 34.5t32 17q4 1 29 10t39 9q43 0 81 -19.5t48 -56.5q12 -54 12 -66q0 -52 -36.5 -90.5t-86.5 -38.5q-41 0 -108 50q-31 18 -31 77zM690 1632q0 45 35.5 79t81.5 34q11 0 31.5 -3.5t27.5 -4.5q42 -4 69 -41.5t27 -81.5q0 -38 -21 -66.5t-58 -40.5q-42 -14 -62 -14 q-46 0 -92 24q-17 8 -28 48t-11 67z" />
<glyph unicode="&#x2c6;" horiz-adv-x="606" d="M0 1139q0 4 35 62t77.5 126t45.5 74q24 43 118 43q29 0 91 -4q33 -3 59 -35q29 -36 85 -109.5t85 -109.5q6 -7 8 -15t1.5 -15t0.5 -17q-7 -11 -28 -11h-150q-40 0 -63 33q-15 17 -39.5 52t-36.5 49l-62 -107q-15 -31 -47 -31q-132 0 -157 2q-23 0 -23 13z" />
<glyph unicode="&#x2dc;" horiz-adv-x="727" d="M0 1169q0 88 34 160t109 96q7 2 22 7.5t21 7.5t18 5t22.5 4t23.5 1q33 0 61 -14.5t48.5 -35t40 -40.5t45 -34.5t55.5 -14.5q25 0 41 32.5t18 61.5q0 19 16 22q31 5 74 5q78 0 78 -29q0 -74 -39 -162q-53 -111 -192 -111q-47 0 -82 15t-53.5 36.5t-33.5 43t-31.5 36.5 t-37.5 15q-43 0 -63.5 -36.5t-20.5 -82.5q0 -20 -10 -27.5t-31 -7.5q-15 0 -45 1t-45 1q-43 3 -43 45z" />
<glyph unicode="&#x2000;" horiz-adv-x="966" />
<glyph unicode="&#x2001;" horiz-adv-x="1932" />
<glyph unicode="&#x2002;" horiz-adv-x="966" />
<glyph unicode="&#x2003;" horiz-adv-x="1932" />
<glyph unicode="&#x2004;" horiz-adv-x="644" />
<glyph unicode="&#x2005;" horiz-adv-x="483" />
<glyph unicode="&#x2006;" horiz-adv-x="322" />
<glyph unicode="&#x2007;" horiz-adv-x="322" />
<glyph unicode="&#x2008;" horiz-adv-x="241" />
<glyph unicode="&#x2009;" horiz-adv-x="386" />
<glyph unicode="&#x200a;" horiz-adv-x="107" />
<glyph unicode="&#x2010;" horiz-adv-x="937" d="M123 596v38t2 29.5t2 23.5t6.5 17t8 13t14 7.5t17 5t25 2t30 1.5h38.5q15 0 42 -2t40 -2q12 0 37 3t39 3t42 -6t42 -6q32 0 95 5t95 5q73 0 86 -5q25 -8 29 -53q2 -16 2 -42q0 -23 -16 -55q-11 -19 -35 -19q-147 -6 -297 -6q-20 0 -62.5 1t-64.5 1q-21 1 -59.5 -0.5 t-71 -1t-59.5 5.5q-19 4 -23 10.5t-4 26.5z" />
<glyph unicode="&#x2011;" horiz-adv-x="937" d="M123 596v38t2 29.5t2 23.5t6.5 17t8 13t14 7.5t17 5t25 2t30 1.5h38.5q15 0 42 -2t40 -2q12 0 37 3t39 3t42 -6t42 -6q32 0 95 5t95 5q73 0 86 -5q25 -8 29 -53q2 -16 2 -42q0 -23 -16 -55q-11 -19 -35 -19q-147 -6 -297 -6q-20 0 -62.5 1t-64.5 1q-21 1 -59.5 -0.5 t-71 -1t-59.5 5.5q-19 4 -23 10.5t-4 26.5z" />
<glyph unicode="&#x2012;" horiz-adv-x="937" d="M123 596v38t2 29.5t2 23.5t6.5 17t8 13t14 7.5t17 5t25 2t30 1.5h38.5q15 0 42 -2t40 -2q12 0 37 3t39 3t42 -6t42 -6q32 0 95 5t95 5q73 0 86 -5q25 -8 29 -53q2 -16 2 -42q0 -23 -16 -55q-11 -19 -35 -19q-147 -6 -297 -6q-20 0 -62.5 1t-64.5 1q-21 1 -59.5 -0.5 t-71 -1t-59.5 5.5q-19 4 -23 10.5t-4 26.5z" />
<glyph unicode="&#x2013;" horiz-adv-x="665" d="M2 618v32t2 23t3 16.5t7 10t10 6.5t15.5 2t20 0.5t27.5 -1t34 -0.5h115q30 0 89 -1t89 -1h182q19 0 49 -17q21 -10 21 -82q0 -21 -2 -31q-6 -23 -18 -31.5t-36 -8.5q-23 0 -66.5 1t-64.5 1h-221q-37 0 -110.5 -4.5t-110.5 -4.5q-13 0 -21 9t-10.5 27.5t-3 26.5t-0.5 27z " />
<glyph unicode="&#x2014;" horiz-adv-x="870" d="M2 618v32t2 23t3 16.5t7 10t10 6.5t15.5 2t20 0.5t27.5 -1t34 -0.5h115q30 0 89 -1t89 -1q43 0 122 1.5t143.5 1.5t121.5 -3q19 0 49 -17q20 -10 20 -82q0 -21 -2 -31q-6 -23 -17.5 -31.5t-35.5 -8.5q-23 0 -66.5 1t-64.5 1h-426q-37 0 -110.5 -4.5t-110.5 -4.5 q-13 0 -21 9t-10.5 27.5t-3 26.5t-0.5 27z" />
<glyph unicode="&#x2018;" horiz-adv-x="595" d="M123 1116q0 44 30 119.5t80 139t95 63.5q30 0 65 -26t35 -54q0 -10 -19 -30t-42.5 -40.5t-42.5 -50t-19 -57.5q0 -3 19.5 -10t46 -15t37.5 -14q65 -41 65 -121q0 -61 -54 -98t-118 -37q-61 0 -102.5 35.5t-58.5 85.5t-17 110z" />
<glyph unicode="&#x2019;" horiz-adv-x="595" d="M123 1300q0 62 54 99t118 37q46 0 81.5 -20.5t56 -54.5t30.5 -73.5t10 -83.5t-30 -119.5t-80 -138.5t-95 -63q-30 0 -65 26t-35 54q0 12 30.5 40t61.5 65t31 73q0 3 -19.5 10t-46 15t-37.5 14q-65 41 -65 120z" />
<glyph unicode="&#x201a;" horiz-adv-x="595" d="M123 150q0 61 54 98t118 37q46 0 81.5 -20.5t56 -54.5t30.5 -73.5t10 -83.5t-30 -119.5t-80 -138.5t-95 -63q-30 0 -65 26t-35 54q0 12 30.5 40t61.5 65t31 73q0 3 -19.5 10t-46 15t-37.5 14q-65 41 -65 121z" />
<glyph unicode="&#x201c;" horiz-adv-x="1005" d="M123 1116q0 44 30 119.5t80 139t95 63.5q30 0 65 -26t35 -54q0 -10 -19 -30t-42.5 -40.5t-42.5 -50t-19 -57.5q0 -3 19.5 -10t46 -15t37.5 -14q65 -41 65 -121q0 -61 -54 -98t-118 -37q-61 0 -102.5 35.5t-58.5 85.5t-17 110zM532 1116q0 44 30 119.5t80 139t95 63.5 q30 0 65.5 -26t35.5 -54q0 -10 -19 -30t-42.5 -40.5t-42.5 -50t-19 -57.5q0 -3 19 -10t45.5 -15t37.5 -14q66 -41 66 -121q0 -61 -54 -98t-118 -37q-61 0 -103 35.5t-59 86t-17 109.5z" />
<glyph unicode="&#x201d;" horiz-adv-x="1005" d="M123 1300q0 62 54 99t118 37q46 0 81.5 -20.5t56 -54.5t30.5 -73.5t10 -83.5t-30 -119.5t-80 -138.5t-95 -63q-30 0 -65 26t-35 54q0 12 30.5 40t61.5 65t31 73q0 3 -19.5 10t-46 15t-37.5 14q-65 41 -65 120zM532 1300q0 61 54.5 98.5t118.5 37.5q46 0 81.5 -20.5 t56 -54.5t30.5 -73.5t10 -83.5t-30 -119.5t-80 -138.5t-95 -63q-30 0 -65 26t-35 54q0 10 19 30t42 40.5t42 50t19 57.5q0 3 -19 10t-45.5 15t-37.5 14q-66 41 -66 120z" />
<glyph unicode="&#x201e;" horiz-adv-x="1005" d="M123 150q0 61 54 98t118 37q46 0 81.5 -20.5t56 -54.5t30.5 -73.5t10 -83.5t-30 -119.5t-80 -138.5t-95 -63q-30 0 -65 26t-35 54q0 12 30.5 40t61.5 65t31 73q0 3 -19.5 10t-46 15t-37.5 14q-65 41 -65 121zM532 150q0 61 54.5 98t118.5 37q46 0 81.5 -20.5t56 -54.5 t30.5 -73.5t10 -83.5t-30 -119.5t-80 -138.5t-95 -63q-30 0 -65 26t-35 54q0 10 19 30t42 40.5t42 50t19 57.5q0 3 -19 10t-45.5 15t-37.5 14q-66 41 -66 121z" />
<glyph unicode="&#x2022;" horiz-adv-x="841" d="M143 684q0 78 30.5 145.5t92.5 102.5q87 53 144 53q3 0 10 -1t10 -1h21q29 0 58 -11t46.5 -22.5t48.5 -34.5q94 -68 94 -200q0 -70 -51 -174q-24 -49 -76 -78t-110 -29q-96 0 -159.5 27.5t-113.5 101.5q-17 26 -24.5 39t-14 35t-6.5 47z" />
<glyph unicode="&#x2026;" horiz-adv-x="1419" d="M102 106q0 54 36 99t89 45q67 0 105.5 -44t38.5 -112q0 -54 -39 -86.5t-94 -32.5q-47 0 -91.5 42.5t-44.5 88.5zM575 106q0 54 36 99t89 45q67 0 105.5 -44t38.5 -112q0 -54 -39 -86.5t-94 -32.5q-47 0 -91.5 42.5t-44.5 88.5zM1049 106q0 54 36 99t89 45q67 0 105 -44 t38 -112q0 -54 -39 -86.5t-94 -32.5q-47 0 -91 42.5t-44 88.5z" />
<glyph unicode="&#x202f;" horiz-adv-x="386" />
<glyph unicode="&#x2039;" horiz-adv-x="526" d="M-10 680q0 8 143 151q4 5 21 24.5t32.5 36.5t34 36t34 30t24.5 11q12 0 42 -5.5t46 -5.5q21 0 36 -22q-18 -21 -62 -66t-65 -73q-7 -8 -22.5 -22t-20.5 -19q-3 -4 -30 -33.5t-39 -46.5q9 -13 67.5 -82.5t107 -131t48.5 -73.5q0 -8 -12 -8q-72 -14 -103 -14q-23 0 -36 16 q-17 15 -131.5 153t-114.5 144z" />
<glyph unicode="&#x203a;" horiz-adv-x="526" d="M123 936q15 22 37 22q16 0 46 5.5t42 5.5q9 0 24 -11.5t33.5 -30t34 -36t32 -36.5t21.5 -24q144 -144 144 -151q0 -6 -114.5 -144t-131.5 -153q-13 -16 -37 -16q-30 0 -102 14q-13 0 -13 8q0 12 48.5 73.5t107 131t67.5 82.5q-12 17 -39 46.5t-30 33.5q-5 5 -20.5 19 t-22.5 22q-21 28 -65 73t-62 66z" />
<glyph unicode="&#x205f;" horiz-adv-x="483" />
<glyph unicode="&#x20ac;" horiz-adv-x="1447" d="M-10 748q0 7 18.5 67t24.5 76q8 20 22 22q16 2 51 2q22 0 64.5 -2t62.5 -2q4 0 12.5 1t12.5 1q5 14 14 42.5t17 50.5t18 41q30 53 60 102q13 19 41 47t36 37q19 26 72 65l35 25q82 62 214.5 91.5t258.5 29.5q60 0 141.5 -17t134.5 -41q16 -8 19 -26q6 -111 6 -113 q0 -104 -25 -104q-4 0 -20 9.5t-34.5 22t-22.5 15.5q-91 55 -238 55q-85 0 -149.5 -17.5t-141.5 -60.5q-31 -18 -60.5 -51t-44 -54.5t-42.5 -66.5q-5 -1 -17.5 -29t-17.5 -44h47q6 0 18.5 -2t18.5 -2h59q51 0 144.5 -5t130.5 -6q17 -1 46.5 0.5t39.5 1.5q6 0 14 -4v-8 q1 -18 -13.5 -65t-25.5 -68q-10 -16 -26 -19q-49 -12 -129 -12q-40 0 -118.5 5t-117.5 5q-3 0 -14.5 0.5t-21 0.5t-23 -0.5t-24 -2.5t-20 -4.5t-15 -7.5t-5.5 -12q0 -58 8 -99q6 -22 29 -22q19 0 54.5 2t52.5 2q30 0 92 -1t94 -1q31 0 93.5 3t94.5 3q11 0 15 -2q2 -6 2 -16 q0 -40 -41 -146q-10 -24 -60 -24q-8 0 -24.5 3t-24.5 3q-10 0 -29 -4t-28 -4h-74q-19 0 -55 4t-55 4q-20 0 -56 -4q-4 -8 -4 -17q0 -11 17 -28q164 -191 411 -191q51 0 152 29q12 3 69 26t78 23q16 0 22.5 -29.5t6.5 -54.5q0 -65 -8 -98q-9 -35 -41 -45q-4 -1 -30.5 -8.5 t-34 -9.5t-30.5 -8t-35 -8t-31 -5.5t-35 -4.5t-32 -1q-19 0 -54.5 4.5t-49.5 5.5q-49 4 -76 7t-66.5 13.5t-70.5 26.5l-16 6q-12 3 -26 8t-21 8.5t-24.5 13t-21.5 11.5q-10 5 -36.5 16.5t-44 22t-31.5 25.5q-13 14 -49 43t-52 49q-44 66 -57 80q-14 15 -32 43t-21 32 q-13 19 -33 19q-35 0 -105 -2t-106 -2q-43 0 -43 22q0 9 11 51t12 46t3.5 18t5 20t9 13t16.5 8q33 2 61.5 0.5t63 0.5t58.5 11l-8 133q-7 0 -23 1t-23 1q-26 0 -80 -4t-81 -4q-39 0 -39 13z" />
<glyph unicode="&#x2122;" horiz-adv-x="1298" d="M102 1341q0 37 4 56t19.5 28.5t32 11t55.5 1.5q13 0 37 -1t37 -1t36.5 1t34.5 1q39 0 117 -4q25 -3 32 -15t7 -39q0 -16 -2.5 -28.5t-6 -20.5t-11.5 -13t-13.5 -7.5t-17.5 -3t-19.5 -0.5t-23 1t-23.5 1q-2 -35 -2 -207q0 -11 -4 -39v-47q0 -55 -72 -55q-40 0 -67 8 q-14 2 -14 26q0 49 4 147.5t4 147.5q0 12 -11 14h-5l-5 1q-10 0 -30.5 -1t-30.5 -1q-21 0 -41.5 10t-20.5 28zM616 1393q0 5 5 30q6 19 24 19q15 1 31.5 1t37 -0.5t31.5 -0.5q19 0 33 -21q80 -144 99 -192l14 -29q21 33 53.5 108t44.5 99q11 23 37 29q62 8 92 8q40 0 43 -41 q4 -55 6.5 -115.5t4 -138t2.5 -115.5q0 -8 1 -23.5t1 -23.5q0 -43 -72 -43q-15 0 -43 4q-18 3 -23.5 9t-5.5 24q-1 15 -3 51.5t-4.5 63t-6.5 51.5q-30 -44 -70 -154q-10 -35 -41 -35q-17 0 -35 7q-21 7 -32 39q-42 113 -72 149q-4 -9 -4.5 -35t1 -60.5t1.5 -39.5v-12 q1 -13 0.5 -19t-2 -16t-5.5 -14.5t-11 -4.5h-97q-21 3 -24 21q-9 46 -9 246q0 10 1.5 30.5t1.5 32.5q0 18 -2.5 55t-2.5 56z" />
<glyph unicode="&#x25fc;" horiz-adv-x="1433" d="M0 0v1434h1434v-1434h-1434z" />
</font>
</defs>
</svg>
