<?xml version="1.0" standalone="no"?>
<!DOCTYPE svg PUBLIC "-//W3C//DTD SVG 1.1//EN" "http://www.w3.org/Graphics/SVG/1.1/DTD/svg11.dtd" >
<svg xmlns="http://www.w3.org/2000/svg" xmlns:xlink="http://www.w3.org/1999/xlink" version="1.1">
<metadata></metadata>
<defs>
<font id="true_north_rough_blackregular" horiz-adv-x="1185" >
<font-face units-per-em="2048" ascent="1638" descent="-410" />
<missing-glyph horiz-adv-x="655" />
<glyph unicode="&#xfb01;" horiz-adv-x="1812" d="M1067 1343q0 -24 -4.5 -68t-5.5 -61q-2 -77 -139 -77q-7 0 -22 -2t-22 -2t-22 4t-23 4q-7 0 -21.5 -1t-21.5 -1q-12 0 -34 2t-33 2q-10 0 -31 -2t-31 -2q-7 0 -22.5 2t-22.5 2q-80 0 -129 -10q-6 -1 -10 -6t-6.5 -13t-3.5 -16t-1.5 -19t-0.5 -18v-17v-12q0 -44 4 -67 q0 -13 14 -13q8 -1 21 -2.5t24 -2.5t21 -1h14q15 2 43 -2t39 -4q51 0 152.5 4t152.5 4q15 0 26.5 -3t19.5 -6.5t13 -12.5t8 -13.5t4 -18.5t1 -19.5v-23v-22.5q0 -38 -4 -116q0 -30 -8.5 -41.5t-36.5 -24.5q-12 -5 -27 -7.5t-25.5 -3t-28 -1t-26.5 -0.5l-160 -4 q-117 -6 -120 -6q-9 0 -27 1t-27 1q-37 0 -39 -21q-4 -74 -4 -108q0 -66 3.5 -199.5t3.5 -200.5q0 -32 -3 -59q-3 -15 -14.5 -26.5t-25.5 -14.5q-38 -8 -218 -8q-44 0 -71 53q-8 14 -8 49q0 12 2 38t2 38q0 18 -3 56t-3 57q0 9 1 26t1 25q-1 15 -5 58.5t-4 66.5t4.5 70 t4.5 71q0 21 -2.5 65.5t-2.5 67.5q0 7 1.5 23t1.5 24q0 7 -2.5 23t-2.5 24q0 12 1.5 48.5t0.5 56.5q0 25 -2 77.5t-2 79.5q0 13 2 40t2 40q0 17 -1 52.5t-1 54.5q0 58 23 119q5 15 34 22.5t54 7.5q5 0 15.5 -1t15.5 -1q11 0 34.5 2t36.5 2q12 0 36.5 -2t37.5 -2t37 5.5 t35 5.5q5 0 15.5 -2.5t15.5 -2.5q9 0 26.5 4.5t26.5 4.5q14 0 44 -2t46 -2q90 0 250 8q6 0 20 2t21 2q52 0 75 -24t23 -77zM373 379q0 6 0.5 40.5t0.5 57t-2 49.5t-5 39l-9 13q-6 -50 -6 -97q0 -99 10 -121q11 6 11 19zM735 733q-12 6 -14 6h-22.5h-33t-36 -0.5t-39 -2 t-33.5 -4t-28.5 -7t-16.5 -10.5q8 -4 14 -4q18 0 54 4t55 4q18 0 33 2t34.5 6t32.5 6zM764 1329q-1 1 -5.5 3.5t-8 4.5t-5.5 2q-66 0 -124 -22q6 -6 10 -6q44 0 114 8q3 1 9.5 5t9.5 5zM256 139q0 24 -18 33q-11 -22 -11 -43q0 -18 6 -33q23 16 23 43zM299 870q0 18 -23 29 q-2 -6 -2 -22v-11q0 -23 2 -35q16 3 19.5 11.5t3.5 27.5zM352 1264q-16 8 -24 8t-18.5 -5t-10.5 -12q0 -8 14 -8q25 0 39 17zM897 860q-24 8 -33 8q-14 0 -14 -12q0 -10 22 -10q17 0 25 14zM940 1206l2 6l-4 5h-10v2l-17 -5l-4 -4l4 -6q1 0 5 -1t6 -1q6 0 18 4zM1669 455 q0 -16 -2 -45t-2 -43v-299q0 -74 -55 -74h-58q-25 0 -71.5 3t-69.5 3q-35 0 -63.5 27.5t-28.5 62.5q0 12 -2 33t-2 31q0 12 4 32.5t4 30.5q0 15 -5 44t-5 44q0 13 2 41t2 43q8 234 8 350q0 19 -2 57t-2 58q0 12 1 34t1 32v26q0 7 2 20.5t2 20.5q0 9 -2 26t-2 25v90 q0 186 8 252q3 24 15.5 31.5t39.5 7.5h25q62 4 92 4q68 0 101 -2q28 -3 37.5 -11.5t13.5 -35.5q2 -8 2 -26q0 -59 4 -177q1 -15 2.5 -42.5t2.5 -49.5t1 -41q0 -21 -4 -71q0 -10 0.5 -29.5t0.5 -35.5t-1 -30q0 -18 -3 -52t-3 -52q0 -12 4 -37t4 -37t1 -34t1 -33t-3 -34 t-3 -34q0 -17 4 -52t4 -52zM1448 637v53q0 51 -2 78l-4 6q-3 0 -5.5 -4.5t-2.5 -7.5q0 -4 2 -14t2 -15q0 -4 -3 -12.5t-3 -13.5q0 -8 2 -24.5t2 -23.5q0 -19 -4.5 -58t-4.5 -58q0 -2 3 -8q4 -9 6.5 -20t4.5 -26.5t3 -21.5q4 8 4 14t-2 18t-2 17q0 20 2 60t2 61zM1602 190v17 q0 65 -15 67l-2 -2l4 -141q0 -6 6 -6q2 0 2 2q5 50 5 63zM1413 1268q0 4 -1 13t-1 13l-6 6q-16 -27 -16 -43q0 -18 6 -20q7 0 12.5 11.5t5.5 19.5zM1581 1014q0 24 -12 24q-13 0 -13 -22q0 -24 19 -31q6 15 6 29z" />
<glyph unicode="&#xfb02;" horiz-adv-x="2131" d="M1067 1343q0 -24 -4.5 -68t-5.5 -61q-2 -77 -139 -77q-7 0 -22 -2t-22 -2t-22 4t-23 4q-7 0 -21.5 -1t-21.5 -1q-12 0 -34 2t-33 2q-10 0 -31 -2t-31 -2q-7 0 -22.5 2t-22.5 2q-80 0 -129 -10q-6 -1 -10 -6t-6.5 -13t-3.5 -16t-1.5 -19t-0.5 -18v-17v-12q0 -44 4 -67 q0 -13 14 -13q8 -1 21 -2.5t24 -2.5t21 -1h14q15 2 43 -2t39 -4q51 0 152.5 4t152.5 4q15 0 26.5 -3t19.5 -6.5t13 -12.5t8 -13.5t4 -18.5t1 -19.5v-23v-22.5q0 -38 -4 -116q0 -30 -8.5 -41.5t-36.5 -24.5q-12 -5 -27 -7.5t-25.5 -3t-28 -1t-26.5 -0.5l-160 -4 q-117 -6 -120 -6q-9 0 -27 1t-27 1q-37 0 -39 -21q-4 -74 -4 -108q0 -66 3.5 -199.5t3.5 -200.5q0 -32 -3 -59q-3 -15 -14.5 -26.5t-25.5 -14.5q-38 -8 -218 -8q-44 0 -71 53q-8 14 -8 49q0 12 2 38t2 38q0 18 -3 56t-3 57q0 9 1 26t1 25q-1 15 -5 58.5t-4 66.5t4.5 70 t4.5 71q0 21 -2.5 65.5t-2.5 67.5q0 7 1.5 23t1.5 24q0 7 -2.5 23t-2.5 24q0 12 1.5 48.5t0.5 56.5q0 25 -2 77.5t-2 79.5q0 13 2 40t2 40q0 17 -1 52.5t-1 54.5q0 58 23 119q5 15 34 22.5t54 7.5q5 0 15.5 -1t15.5 -1q11 0 34.5 2t36.5 2q12 0 36.5 -2t37.5 -2t37 5.5 t35 5.5q5 0 15.5 -2.5t15.5 -2.5q9 0 26.5 4.5t26.5 4.5q14 0 44 -2t46 -2q90 0 250 8q6 0 20 2t21 2q52 0 75 -24t23 -77zM373 379q0 6 0.5 40.5t0.5 57t-2 49.5t-5 39l-9 13q-6 -50 -6 -97q0 -99 10 -121q11 6 11 19zM735 733q-12 6 -14 6h-22.5h-33t-36 -0.5t-39 -2 t-33.5 -4t-28.5 -7t-16.5 -10.5q8 -4 14 -4q18 0 54 4t55 4q18 0 33 2t34.5 6t32.5 6zM764 1329q-1 1 -5.5 3.5t-8 4.5t-5.5 2q-66 0 -124 -22q6 -6 10 -6q44 0 114 8q3 1 9.5 5t9.5 5zM256 139q0 24 -18 33q-11 -22 -11 -43q0 -18 6 -33q23 16 23 43zM299 870q0 18 -23 29 q-2 -6 -2 -22v-11q0 -23 2 -35q16 3 19.5 11.5t3.5 27.5zM352 1264q-16 8 -24 8t-18.5 -5t-10.5 -12q0 -8 14 -8q25 0 39 17zM897 860q-24 8 -33 8q-14 0 -14 -12q0 -10 22 -10q17 0 25 14zM940 1206l2 6l-4 5h-10v2l-17 -5l-4 -4l4 -6q1 0 5 -1t6 -1q6 0 18 4zM2030 47 q0 -53 -99 -53q-31 0 -100 4t-102 4q-18 0 -56.5 -2t-58.5 -2q-34 0 -100 1t-99 1q-43 0 -74 10q-9 4 -16.5 27t-7.5 37v61h2q-4 54 -4 82q0 15 4 47t4 47q0 20 -5 61.5t-5 63.5q0 33 7 97.5t7 97.5q0 15 -2 46t-2 46q0 20 -2 58.5t-2 56.5q0 14 1 43t1 43q0 26 -1 76t-1 75 q0 59 2 90q0 2 4 11.5t4 15.5q0 25 -1 78t-1 80v47q1 15 13.5 26t27.5 11q57 2 176 2q29 0 66.5 -6t42.5 -21q10 -38 10 -137q0 -8 -3 -23.5t-3 -23.5q0 -3 1 -10.5t1 -10.5q0 -10 -2 -30.5t-2 -32.5q0 -31 3 -94t3 -93q0 -14 -3 -45t-3 -45q2 -14 2 -45q0 -18 -1 -55 t-1 -57q0 -15 3 -43t3 -43t-4 -46t-4 -47q0 -8 5 -23.5t5 -23.5q0 -22 -5 -68.5t-5 -70.5q0 -25 24 -25q23 0 69.5 1t70.5 1q5 0 15.5 -1t16.5 -1q18 0 55.5 1t57.5 1q68 0 68 -81q0 -13 -3.5 -41t-3.5 -43q0 -19 3.5 -54.5t3.5 -52.5zM1458 688q0 8 -4.5 18.5t-11.5 10.5 q-6 0 -6 -15q0 -4 -6.5 -52.5t-6.5 -74.5q0 -22 11 -55q2 -6 4 -20.5t2 -16.5h4q6 25 6 95q0 18 4 54.5t4 55.5zM1817 199q-4 13 -28.5 13.5t-31.5 6.5h-37q-17 0 -31.5 -3.5t-20 -6t-28.5 -12.5q29 -2 82 -2q64 0 95 4zM1604 1339q0 14 -9 23h-28q-4 -32 -4 -47 q0 -10 8 -10q13 0 23 11t10 23zM1931 111q0 13 -6 22l-33 -22q0 -1 2 -5.5t3.5 -7t4 -6t6 -5t7.5 -1.5q16 0 16 25zM1475 162q0 10 -9 10q-5 0 -9.5 -9t-4.5 -16q0 -8 8 -8q1 0 3 1t3 1q9 9 9 21zM1524 950l4 29q-2 0 -5 1t-5 1q-13 0 -13 -16q0 -15 19 -15z" />
<glyph unicode="&#xfb03;" horiz-adv-x="2981" d="M1067 1343q0 -24 -4.5 -68t-5.5 -61q-2 -77 -139 -77q-7 0 -22 -2t-22 -2t-22 4t-23 4q-7 0 -21.5 -1t-21.5 -1q-12 0 -34 2t-33 2q-10 0 -31 -2t-31 -2q-7 0 -22.5 2t-22.5 2q-80 0 -129 -10q-6 -1 -10 -6t-6.5 -13t-3.5 -16t-1.5 -19t-0.5 -18v-17v-12q0 -44 4 -67 q0 -13 14 -13q8 -1 21 -2.5t24 -2.5t21 -1h14q15 2 43 -2t39 -4q51 0 152.5 4t152.5 4q15 0 26.5 -3t19.5 -6.5t13 -12.5t8 -13.5t4 -18.5t1 -19.5v-23v-22.5q0 -38 -4 -116q0 -30 -8.5 -41.5t-36.5 -24.5q-12 -5 -27 -7.5t-25.5 -3t-28 -1t-26.5 -0.5l-160 -4 q-117 -6 -120 -6q-9 0 -27 1t-27 1q-37 0 -39 -21q-4 -74 -4 -108q0 -66 3.5 -199.5t3.5 -200.5q0 -32 -3 -59q-3 -15 -14.5 -26.5t-25.5 -14.5q-38 -8 -218 -8q-44 0 -71 53q-8 14 -8 49q0 12 2 38t2 38q0 18 -3 56t-3 57q0 9 1 26t1 25q-1 15 -5 58.5t-4 66.5t4.5 70 t4.5 71q0 21 -2.5 65.5t-2.5 67.5q0 7 1.5 23t1.5 24q0 7 -2.5 23t-2.5 24q0 12 1.5 48.5t0.5 56.5q0 25 -2 77.5t-2 79.5q0 13 2 40t2 40q0 17 -1 52.5t-1 54.5q0 58 23 119q5 15 34 22.5t54 7.5q5 0 15.5 -1t15.5 -1q11 0 34.5 2t36.5 2q12 0 36.5 -2t37.5 -2t37 5.5 t35 5.5q5 0 15.5 -2.5t15.5 -2.5q9 0 26.5 4.5t26.5 4.5q14 0 44 -2t46 -2q90 0 250 8q6 0 20 2t21 2q52 0 75 -24t23 -77zM373 379q0 6 0.5 40.5t0.5 57t-2 49.5t-5 39l-9 13q-6 -50 -6 -97q0 -99 10 -121q11 6 11 19zM735 733q-12 6 -14 6h-22.5h-33t-36 -0.5t-39 -2 t-33.5 -4t-28.5 -7t-16.5 -10.5q8 -4 14 -4q18 0 54 4t55 4q18 0 33 2t34.5 6t32.5 6zM764 1329q-1 1 -5.5 3.5t-8 4.5t-5.5 2q-66 0 -124 -22q6 -6 10 -6q44 0 114 8q3 1 9.5 5t9.5 5zM256 139q0 24 -18 33q-11 -22 -11 -43q0 -18 6 -33q23 16 23 43zM299 870q0 18 -23 29 q-2 -6 -2 -22v-11q0 -23 2 -35q16 3 19.5 11.5t3.5 27.5zM352 1264q-16 8 -24 8t-18.5 -5t-10.5 -12q0 -8 14 -8q25 0 39 17zM897 860q-24 8 -33 8q-14 0 -14 -12q0 -10 22 -10q17 0 25 14zM940 1206l2 6l-4 5h-10v2l-17 -5l-4 -4l4 -6q1 0 5 -1t6 -1q6 0 18 4zM2236 1343 q0 -24 -4.5 -68t-5.5 -61q-2 -77 -139 -77q-7 0 -21.5 -2t-21.5 -2t-22 4t-23 4q-7 0 -21.5 -1t-21.5 -1q-11 0 -33.5 2t-34.5 2q-10 0 -30.5 -2t-30.5 -2q-7 0 -22.5 2t-22.5 2q-80 0 -129 -10q-6 -1 -10 -6t-6.5 -13t-4 -15.5t-2 -19.5t-0.5 -18v-17v-12q0 -44 4 -67 q0 -13 15 -13q4 0 27.5 -3t37.5 -3h15q15 2 42.5 -2t38.5 -4q51 0 153 4t153 4q15 0 26.5 -3t19 -6.5t13 -12t8 -14t3.5 -18.5l1.5 -19.5t0 -23t-0.5 -22.5q0 -38 -4 -116q0 -30 -8.5 -41.5t-36.5 -24.5q-16 -6 -31.5 -8.5t-42 -3t-32.5 -0.5l-160 -4q-117 -6 -121 -6 q-9 0 -26.5 1t-26.5 1q-37 0 -39 -21q-4 -74 -4 -108q0 -66 3 -200t3 -200q0 -41 -2 -59q-3 -15 -15 -26.5t-26 -14.5q-38 -8 -217 -8q-22 0 -41.5 15.5t-30.5 37.5q-8 14 -8 49q0 12 2 38t2 38q0 18 -3 56t-3 57q0 9 1 26t1 25q-1 13 -4.5 57.5t-3.5 67.5q0 24 4 70.5 t4 70.5q0 21 -2 65.5t-2 67.5q0 7 1 23t1 24q0 7 -2 23t-2 24q0 12 1.5 48.5t0.5 56.5q0 25 -2 77.5t-2 79.5q0 13 2 40t2 40q0 17 -1 52.5t-1 54.5q0 61 22 119q5 15 34 22.5t54 7.5q5 0 15.5 -1t15.5 -1q11 0 35 2t37 2q12 0 37 -2t37 -2q13 0 36.5 5.5t34.5 5.5 q5 0 15.5 -2.5t15.5 -2.5q9 0 26.5 4.5t26.5 4.5q14 0 44 -2t46 -2q90 0 250 8q6 0 20 2t21 2q52 0 75 -24t23 -77zM1542 379q0 6 0.5 40.5t0.5 57t-2 49.5t-5 39l-8 13q-6 -50 -6 -97q0 -99 10 -121q10 5 10 19zM1905 733q-12 6 -15 6h-22.5h-33t-36 -0.5t-39 -2t-33.5 -4 t-28.5 -7t-16.5 -10.5q8 -4 15 -4q18 0 54 4t54 4t33.5 2t35.5 6t32 6zM1933 1329q-1 1 -5 3.5t-7.5 4.5t-5.5 2q-67 0 -125 -22q6 -6 10 -6q45 0 115 8q3 1 9 5t9 5zM1425 139q0 24 -18 33q-10 -20 -10 -43q0 -18 6 -33q22 16 22 43zM1468 870q0 11 -4.5 17t-17.5 12 q-2 -6 -2 -22v-11q0 -23 2 -35q11 2 16 8.5t5.5 11.5t0.5 19zM1522 1264q-16 8 -25 8q-8 0 -18.5 -5t-10.5 -12q0 -8 15 -8q25 0 39 17zM2066 860q-24 8 -32 8q-15 0 -15 -12q0 -10 23 -10q16 0 24 14zM2109 1206l2 6l-4 5h-10v2l-16 -5l-4 -4l4 -6q1 0 4.5 -1t5.5 -1 q6 0 18 4zM2839 455q0 -16 -2.5 -45t-2.5 -43v-299q0 -74 -55 -74h-57q-25 0 -72 3t-70 3q-35 0 -63.5 27.5t-28.5 62.5q0 12 -2 33t-2 31q0 12 4 32.5t4 30.5q0 15 -5 44t-5 44q0 13 2 41t2 43q8 234 8 350q0 19 -2 57t-2 58q0 12 1 34t1 32v26q0 7 2.5 20.5t2.5 20.5 q0 9 -2.5 26t-2.5 25v90q0 178 9 252q3 24 15.5 31.5t39.5 7.5h24q62 4 93 4q67 0 100 -2q28 -3 37.5 -11.5t13.5 -35.5q2 -8 2 -26q0 -59 4 -177q1 -15 2.5 -42.5t2.5 -49.5t1 -41q0 -21 -4 -71v-95q0 -18 -3 -52t-3 -52q0 -12 4 -37t4 -37t1 -34t1 -33t-3 -34t-3 -34 q0 -17 4.5 -52t4.5 -52zM2617 637v53q0 51 -2 78l-4 6q-3 0 -5.5 -4.5t-2.5 -7.5q0 -4 2 -14t2 -15q0 -4 -3 -12.5t-3 -13.5q0 -8 2 -24.5t2 -23.5q0 -19 -4 -58t-4 -58q0 -4 2 -8q4 -9 6.5 -20t4.5 -26.5t3 -21.5q4 8 4 14t-2 18t-2 17q0 20 2 60t2 61zM2771 190v17 q0 65 -14 67l-2 -2l4 -141q0 -6 6 -6q2 0 2 2q4 40 4 63zM2583 1268q0 4 -1.5 13t-1.5 13l-6 6q-16 -27 -16 -43q0 -18 6 -20q7 0 13 12t6 19zM2750 1014q0 24 -12 24t-12 -22q0 -14 3.5 -20.5t14.5 -10.5q6 15 6 29z" />
<glyph unicode="&#xfb04;" horiz-adv-x="3301" d="M1067 1343q0 -24 -4.5 -68t-5.5 -61q-2 -77 -139 -77q-7 0 -22 -2t-22 -2t-22 4t-23 4q-7 0 -21.5 -1t-21.5 -1q-12 0 -34 2t-33 2q-10 0 -31 -2t-31 -2q-7 0 -22.5 2t-22.5 2q-80 0 -129 -10q-6 -1 -10 -6t-6.5 -13t-3.5 -16t-1.5 -19t-0.5 -18v-17v-12q0 -44 4 -67 q0 -13 14 -13q8 -1 21 -2.5t24 -2.5t21 -1h14q15 2 43 -2t39 -4q51 0 152.5 4t152.5 4q15 0 26.5 -3t19.5 -6.5t13 -12.5t8 -13.5t4 -18.5t1 -19.5v-23v-22.5q0 -38 -4 -116q0 -30 -8.5 -41.5t-36.5 -24.5q-12 -5 -27 -7.5t-25.5 -3t-28 -1t-26.5 -0.5l-160 -4 q-117 -6 -120 -6q-9 0 -27 1t-27 1q-37 0 -39 -21q-4 -74 -4 -108q0 -66 3.5 -199.5t3.5 -200.5q0 -32 -3 -59q-3 -15 -14.5 -26.5t-25.5 -14.5q-38 -8 -218 -8q-44 0 -71 53q-8 14 -8 49q0 12 2 38t2 38q0 18 -3 56t-3 57q0 9 1 26t1 25q-1 15 -5 58.5t-4 66.5t4.5 70 t4.5 71q0 21 -2.5 65.5t-2.5 67.5q0 7 1.5 23t1.5 24q0 7 -2.5 23t-2.5 24q0 12 1.5 48.5t0.5 56.5q0 25 -2 77.5t-2 79.5q0 13 2 40t2 40q0 17 -1 52.5t-1 54.5q0 58 23 119q5 15 34 22.5t54 7.5q5 0 15.5 -1t15.5 -1q11 0 34.5 2t36.5 2q12 0 36.5 -2t37.5 -2t37 5.5 t35 5.5q5 0 15.5 -2.5t15.5 -2.5q9 0 26.5 4.5t26.5 4.5q14 0 44 -2t46 -2q90 0 250 8q6 0 20 2t21 2q52 0 75 -24t23 -77zM373 379q0 6 0.5 40.5t0.5 57t-2 49.5t-5 39l-9 13q-6 -50 -6 -97q0 -99 10 -121q11 6 11 19zM735 733q-12 6 -14 6h-22.5h-33t-36 -0.5t-39 -2 t-33.5 -4t-28.5 -7t-16.5 -10.5q8 -4 14 -4q18 0 54 4t55 4q18 0 33 2t34.5 6t32.5 6zM764 1329q-1 1 -5.5 3.5t-8 4.5t-5.5 2q-66 0 -124 -22q6 -6 10 -6q44 0 114 8q3 1 9.5 5t9.5 5zM256 139q0 24 -18 33q-11 -22 -11 -43q0 -18 6 -33q23 16 23 43zM299 870q0 18 -23 29 q-2 -6 -2 -22v-11q0 -23 2 -35q16 3 19.5 11.5t3.5 27.5zM352 1264q-16 8 -24 8t-18.5 -5t-10.5 -12q0 -8 14 -8q25 0 39 17zM897 860q-24 8 -33 8q-14 0 -14 -12q0 -10 22 -10q17 0 25 14zM940 1206l2 6l-4 5h-10v2l-17 -5l-4 -4l4 -6q1 0 5 -1t6 -1q6 0 18 4zM2236 1343 q0 -24 -4.5 -68t-5.5 -61q-2 -77 -139 -77q-7 0 -21.5 -2t-21.5 -2t-22 4t-23 4q-7 0 -21.5 -1t-21.5 -1q-11 0 -33.5 2t-34.5 2q-10 0 -30.5 -2t-30.5 -2q-7 0 -22.5 2t-22.5 2q-80 0 -129 -10q-6 -1 -10 -6t-6.5 -13t-4 -15.5t-2 -19.5t-0.5 -18v-17v-12q0 -44 4 -67 q0 -13 15 -13q4 0 27.5 -3t37.5 -3h15q15 2 42.5 -2t38.5 -4q51 0 153 4t153 4q15 0 26.5 -3t19 -6.5t13 -12t8 -14t3.5 -18.5l1.5 -19.5t0 -23t-0.5 -22.5q0 -38 -4 -116q0 -30 -8.5 -41.5t-36.5 -24.5q-16 -6 -31.5 -8.5t-42 -3t-32.5 -0.5l-160 -4q-117 -6 -121 -6 q-9 0 -26.5 1t-26.5 1q-37 0 -39 -21q-4 -74 -4 -108q0 -66 3 -200t3 -200q0 -41 -2 -59q-3 -15 -15 -26.5t-26 -14.5q-38 -8 -217 -8q-22 0 -41.5 15.5t-30.5 37.5q-8 14 -8 49q0 12 2 38t2 38q0 18 -3 56t-3 57q0 9 1 26t1 25q-1 13 -4.5 57.5t-3.5 67.5q0 24 4 70.5 t4 70.5q0 21 -2 65.5t-2 67.5q0 7 1 23t1 24q0 7 -2 23t-2 24q0 12 1.5 48.5t0.5 56.5q0 25 -2 77.5t-2 79.5q0 13 2 40t2 40q0 17 -1 52.5t-1 54.5q0 61 22 119q5 15 34 22.5t54 7.5q5 0 15.5 -1t15.5 -1q11 0 35 2t37 2q12 0 37 -2t37 -2q13 0 36.5 5.5t34.5 5.5 q5 0 15.5 -2.5t15.5 -2.5q9 0 26.5 4.5t26.5 4.5q14 0 44 -2t46 -2q90 0 250 8q6 0 20 2t21 2q52 0 75 -24t23 -77zM1542 379q0 6 0.5 40.5t0.5 57t-2 49.5t-5 39l-8 13q-6 -50 -6 -97q0 -99 10 -121q10 5 10 19zM1905 733q-12 6 -15 6h-22.5h-33t-36 -0.5t-39 -2t-33.5 -4 t-28.5 -7t-16.5 -10.5q8 -4 15 -4q18 0 54 4t54 4t33.5 2t35.5 6t32 6zM1933 1329q-1 1 -5 3.5t-7.5 4.5t-5.5 2q-67 0 -125 -22q6 -6 10 -6q45 0 115 8q3 1 9 5t9 5zM1425 139q0 24 -18 33q-10 -20 -10 -43q0 -18 6 -33q22 16 22 43zM1468 870q0 11 -4.5 17t-17.5 12 q-2 -6 -2 -22v-11q0 -23 2 -35q11 2 16 8.5t5.5 11.5t0.5 19zM1522 1264q-16 8 -25 8q-8 0 -18.5 -5t-10.5 -12q0 -8 15 -8q25 0 39 17zM2066 860q-24 8 -32 8q-15 0 -15 -12q0 -10 23 -10q16 0 24 14zM2109 1206l2 6l-4 5h-10v2l-16 -5l-4 -4l4 -6q1 0 4.5 -1t5.5 -1 q6 0 18 4zM3199 47q0 -53 -98 -53q-31 0 -100.5 4t-102.5 4q-18 0 -56.5 -2t-58.5 -2q-34 0 -99.5 1t-98.5 1q-43 0 -74 10q-9 4 -17 27.5t-8 36.5v61h2q-4 54 -4 82q0 15 4 47t4 47q0 20 -5 61.5t-5 63.5q0 33 7.5 97.5t7.5 97.5q0 15 -2.5 46t-2.5 46q0 20 -2 58.5 t-2 56.5q0 14 1 43t1 43q0 26 -1 76t-1 75q0 59 2 90q1 2 5 11.5t4 15.5q0 25 -1 78t-1 80v47q2 15 13.5 26t26.5 11q57 2 177 2q29 0 66 -6t42 -21q10 -38 10 -137q0 -8 -3 -23.5t-3 -23.5q0 -3 1 -10.5t1 -10.5q0 -10 -2 -30.5t-2 -32.5q0 -31 3 -94t3 -93q0 -14 -3 -45 t-3 -45q2 -14 2 -45q0 -18 -1 -55t-1 -57q0 -15 3 -43t3 -43t-4 -46t-4 -47q0 -8 5 -23.5t5 -23.5q0 -22 -5 -68.5t-5 -70.5q0 -25 25 -25q23 0 69 1t70 1q5 0 16 -1t17 -1q18 0 55 1t57 1q68 0 68 -81q0 -13 -3 -41t-3 -43q0 -19 3 -54.5t3 -52.5zM2628 688q0 8 -5 18.5 t-12 10.5q-6 0 -6 -15q-1 -13 -4.5 -39t-5.5 -47.5t-2 -40.5q0 -25 10 -55q2 -6 4 -20.5t2 -16.5h4q6 25 6 95q0 18 4.5 55t4.5 55zM2986 199q-4 13 -28 13.5t-31 6.5h-37q-17 0 -31.5 -3.5t-20 -6t-28.5 -12.5q29 -2 82 -2q63 0 94 4zM2773 1339q0 15 -8 23h-29 q-4 -32 -4 -47q0 -10 8 -10q13 0 23 11t10 23zM3101 111q0 13 -6 22l-33 -22q0 -1 3 -7l4.5 -9t5.5 -6t9 -3q17 0 17 25zM2644 162q0 10 -8 10q-6 0 -10.5 -9t-4.5 -16q0 -8 9 -8q1 0 3 1t3 1q8 8 8 21zM2693 950l4 29q-2 0 -5 1t-5 1q-12 0 -12 -16q0 -15 18 -15z" />
<glyph horiz-adv-x="0" />
<glyph horiz-adv-x="682" />
<glyph unicode=" "  horiz-adv-x="655" />
<glyph unicode="&#x09;" horiz-adv-x="655" />
<glyph unicode="&#xa0;" horiz-adv-x="655" />
<glyph unicode="!" horiz-adv-x="626" d="M479 1126q0 -15 -7 -46.5t-7 -49.5v-55q0 -15 -2 -42.5t-2 -41.5q0 -9 1 -27.5t1 -27.5q0 -6 -1 -17t-1 -16q0 -15 3 -44.5t3 -45.5v-41q0 -6 2 -19.5t2 -19.5q0 -13 1 -39t1 -39q0 -19 -2 -29q-4 -23 -4 -65q0 -41 -123 -41q-6 0 -18 1t-17 1q-4 0 -30.5 -3t-40.5 -3 q-55 0 -84 43q-7 12 -7 63q0 8 3.5 24.5t3.5 24.5q0 70 -2 105q-1 4 -4 18.5t-3 22.5q0 25 -1 72.5t-1 70.5q0 12 2 34t2 34q2 45 2.5 136t2.5 136q0 8 3 23t3 22q0 13 -6.5 35t-6.5 33q0 25 4 43.5t9 30.5t17 20.5t20.5 12.5t27.5 6t29.5 2t35 -0.5t36.5 -0.5t34 -2t33 -2 q38 0 57.5 -13.5t22.5 -49.5q0 -8 2 -24t2 -23q0 -13 -1 -37t-1 -35q0 -8 -1 -24.5t-1 -24.5q0 -12 4 -34t4 -32zM483 137q0 -15 -8 -28q-4 -5 -8 -23q-47 -92 -137 -92q-14 0 -54 10q-65 22 -94.5 62.5t-29.5 107.5q0 38 26 74t62 59q16 10 55 10q16 0 26.5 -2.5t23.5 -7.5 t24 -8q44 -13 79 -64t35 -98zM281 799q0 52 -9 104q-6 -102 -6 -203q0 -17 3 -50t3 -38l4 2q5 153 5 185zM272 1335v23q-14 -5 -14 -25v-110q0 -19 6 -31q8 45 8 143zM256 168q0 14 -2 22q-16 -10 -16 -43v-20q18 13 18 41zM354 1049q0 14 -16 22q-8 -16 -8 -22q0 -9 8 -25 q16 12 16 25zM438 489v25h-20q0 -3 6 -27q3 -6 6 -6q5 3 8 8zM393 145q0 13 -8 13q-10 0 -10 -8v-3q0 -14 10 -14q8 0 8 12z" />
<glyph unicode="&#x22;" horiz-adv-x="1017" d="M463 1350q0 -47 -8.5 -134.5t-10.5 -119.5q0 -2 -6 -127q0 -7 -1.5 -12.5t-2 -10t-4 -7.5t-5 -5.5t-6.5 -4t-6.5 -2t-9 -1t-9 -0.5h-10.5h-11h-178q-12 0 -17.5 3t-9.5 15l-10 62l-25 204q-10 98 -10 117t8 43q3 15 8.5 19t20.5 6l71 4q15 1 44.5 4.5t53.5 5.5t46 2 q19 0 65 -4q9 -1 14 -6.5t7 -17.5t2 -15.5v-17.5zM893 1350q0 -47 -8.5 -134.5t-10.5 -119.5q0 -2 -6 -127q0 -7 -1.5 -12.5t-2 -10t-4 -7.5t-5 -5.5t-6.5 -4t-6.5 -2t-9 -1t-9 -0.5h-10.5h-11h-178q-12 0 -17.5 3t-9.5 15l-10 62l-25 204q-10 98 -10 117t8 43q3 15 8.5 19 t20.5 6l72 4q15 1 44 4.5t53 5.5t46 2q19 0 65 -4q9 -1 14 -6.5t7 -17.5t2 -15.5v-17.5zM391 1180q0 37 -2 57q-14 -2 -14 -16q-10 -157 -10 -189q0 -10 2 -14l10 -2q14 128 14 164zM821 1180q0 37 -2 57q-14 -2 -14 -16q-10 -157 -10 -189q0 -10 2 -14l10 -2q14 128 14 164 zM217 1051q0 3 -1 9t-1 9q-1 0 -4 -1.5t-4.5 -2t-3.5 -1.5t-3 -2l-2.5 -2.5t-2 -3.5t-0.5 -5q0 -9 3.5 -28.5t4.5 -25.5q14 28 14 54zM647 1051q0 3 -1 9t-1 9q-1 0 -4 -1.5t-4.5 -2t-3.5 -1.5t-3 -2l-2.5 -2.5t-2 -3.5t-0.5 -5q0 -9 3.5 -28.5t4.5 -25.5q14 28 14 54z" />
<glyph unicode="#" horiz-adv-x="1832" d="M1751 1030q0 -24 -19.5 -76.5t-35.5 -79.5q-27 -38 -70 -38q-17 0 -48 -1t-46 -1q-24 0 -69.5 1t-67.5 1q-8 0 -12.5 -2.5t-6 -4.5t-4.5 -10q-1 -1 -1.5 -2t-0.5 -2l-31 -88q-4 -10 -21.5 -55.5t-25.5 -69.5q24 -6 27 -6q10 0 30 3t29 3q103 0 150 -6q19 -3 35 -16 q10 -8 10 -29q0 -20 -17 -82.5t-28 -87.5q-20 -50 -109 -41q-14 1 -43 -0.5t-37 -1.5h-96q-3 0 -8 1t-8 1q-13 0 -21 -33q-16 -46 -45.5 -138t-46.5 -138q-16 -43 -57 -43q-11 0 -35 -1t-35 -1q-46 0 -96.5 14t-50.5 47q0 30 44.5 145.5t49.5 135.5q-264 6 -266 6 q-15 0 -21 -15l-18 -59q-33 -135 -66 -215q-11 -28 -25.5 -38.5t-43.5 -10.5q-58 -4 -86 -4h-19t-20.5 0.5t-23.5 2t-21 4t-21 7.5t-15.5 11t-12 15.5t-3.5 20.5q0 12 19 67.5t47.5 130t28.5 75.5q-11 1 -105 6t-143 16q-37 5 -37 47q0 43 45 150q7 16 19.5 25t24.5 10.5 t32 1.5q15 0 43 -1t43 -1q7 0 20.5 1t20.5 1q20 0 58 -2t58 -2t27 20q6 18 22 66.5t26.5 82.5t17.5 66q-15 0 -43 -2t-41 -2q-8 0 -24.5 3t-24.5 3q-6 0 -18.5 -2t-18.5 -2q-31 0 -80 18q-27 12 -27 48q0 105 35 174q13 26 41 26q0 3 116 1l117 -1h9h9.5t7.5 0.5t7.5 2t6 4 t6 6.5t4.5 10q17 43 49 144t55 153q16 39 111 39q59 0 137 -19q20 -6 20 -41q0 -45 -92 -289q4 0 13.5 -1t13.5 -1q17 0 52.5 2.5t53.5 2.5q16 0 46 -2.5t46 -2.5h9.5h12.5t11.5 1t11.5 3t8 5.5t5 9.5q4 12 32.5 127.5t57.5 167.5q17 31 44.5 41t70.5 10q55 0 127 -14 q26 -6 26 -31q0 -23 -72 -244q-1 -5 -8.5 -32t-7.5 -31q0 -11 16 -11q47 -4 146 -4q10 0 30.5 1t30.5 1q29 0 51.5 -13.5t22.5 -41.5zM1081 831h-57q-32 0 -94 -1t-92 -1q-21 0 -31 -26q-2 -6 -18 -57t-28.5 -93t-12.5 -47q0 -10 18 -10q35 -4 106 -4q7 0 21.5 1t21.5 1 q13 0 37 -2t37 -2q12 0 19 18q5 16 23 64.5t32 91.5t18 67zM1262 784q0 10 -5 15q-4 -4 -24.5 -71.5t-20.5 -76.5v-6q6 2 8 3t5 3t4 5t2 8q2 18 16.5 59t14.5 61zM844 1323q-11 -12 -27 -66.5t-20 -80.5l10 4q13 19 25 68t12 75zM1006 287v4l-5 4l-12 -6q-3 -10 -20 -62.5 t-19 -83.5q9 16 32.5 75t23.5 69zM1104 494q-52 14 -119 14q-12 0 -33 -3t-32 -3q-3 0 -7.5 0.5t-7.5 0.5t-6 -1q54 -8 76 -8q21 0 62 -1t61 -1q4 0 6 2zM1096 1008q-22 8 -125 8h-39q-39 0 -53 -6q86 -4 127 -4h65q4 0 12.5 1t12.5 1zM743 823q0 6 -2 8h-2q-3 -8 -17.5 -69 t-14.5 -70v-12h2q13 21 23.5 68t10.5 75zM586 438q-9 11 -68 11h-24q-10 0 -31 -1.5t-31 -1.5q1 -3 29 -6.5t35 -3.5q9 0 27.5 1t27.5 1h35zM440 860q-22 10 -98 10q-15 0 -23 -8q6 -6 11 -6h12q94 0 98 4zM1292 1155q-6 -3 -21.5 -42.5t-15.5 -49.5q0 -2 1 -5.5t1 -4.5 q6 3 20.5 46.5t14.5 55.5zM209 498q0 5 -6.5 11.5t-12.5 6.5q-10 0 -10 -16q0 -10 13 -23q16 11 16 21zM606 965q0 10 -16 10q-12 0 -17 -8q15 -15 21 -15h10q2 4 2 13zM1460 481q0 11 -16 11q-10 0 -17 -7q8 -16 19 -16h4q6 0 8 2q0 1 1 4.5t1 5.5zM1462 1362q0 10 -16 10 q-10 0 -16 -6q8 -16 18 -16h4q6 0 8 2q0 1 1 4.5t1 5.5zM1651 915l2 3q0 12 -19 12q-14 0 -24 -10q10 -7 20 -7q3 0 10.5 1t10.5 1zM477 121q0 7 -10 12l-4 -2q-1 -2 -3.5 -7.5t-2.5 -8.5q0 -5 4 -9q16 5 16 15z" />
<glyph unicode="$" horiz-adv-x="1312" d="M1190 451q0 -77 -32 -166.5t-83 -143.5q-24 -28 -67 -65q-33 -28 -91 -49.5t-110 -30.5q-10 -1 -13 -4.5t-3 -14.5v-25.5t-1.5 -33t-5.5 -28.5t-14.5 -24.5t-26.5 -8.5q-124 0 -155 16q-9 4 -14.5 15.5t-6.5 21.5t-1.5 27.5t-0.5 21.5q-1 11 -2 14.5t-5 6.5t-13 4 q-306 62 -385 249q-15 35 -33 134q-2 10 -2 32v11.5v12.5t0.5 11.5t2 12t3.5 10t5.5 10t8.5 7.5t11 7q43 15 73 15h82q36 4 58 4q25 0 51 -13q22 -11 22 -43q0 -51 17 -99t53 -69q6 -5 27 -10q2 36 2 217q0 2 -6 107q-6 1 -35 6.5t-39.5 8t-30.5 9t-37 15.5q-9 4 -26.5 10.5 t-31.5 12.5t-24 14q-64 49 -94.5 83.5t-50.5 96.5q-25 91 -25 160q0 119 64 219q3 3 8.5 13t9.5 15q12 17 29.5 32t41.5 29.5t40.5 23t47 23t40.5 19.5q41 22 88 31q8 3 12 21q4 42 8 59q4 21 16.5 33.5t36 17t36.5 5.5t40 1h15.5h17.5t17 -1t17.5 -2.5t14.5 -4.5t14 -7.5 t9.5 -11.5t5.5 -16l10 -69q0 -12 17 -15q16 -4 47.5 -10t46.5 -10q4 0 12 -4q21 -13 74.5 -33.5t79.5 -40.5q46 -41 57 -63q5 -10 13.5 -32t13.5 -32q14 -40 14 -72q0 -15 3 -35t3 -28q0 -15 -8 -33.5t-20 -28.5q-14 -14 -74 -14q-9 0 -27.5 2t-27.5 2q-18 0 -52.5 -5 t-50.5 -5q-24 0 -45 15t-27 38q-1 5 -4.5 21.5t-6 22t-8 15.5t-15 15t-23.5 8q-4 -39 -4 -117v-104q0 -14 14 -19q130 -40 176 -63l52 -23q180 -76 180 -337zM909 424q0 77 -127 111q-2 -15 -2.5 -43t-1.5 -37q0 -26 -3 -77.5t-3 -76.5q0 -9 4 -29h10q49 0 86 51t37 101z M557 930q0 15 -1 30.5t-2.5 35t-2.5 30.5h2l-4 94q0 1 -0.5 4t-1 4.5t-1.5 4t-2.5 3.5t-3.5 2t-5 1q-11 0 -15 -2q-29 -11 -46 -20t-31.5 -29t-14.5 -48q0 -42 38.5 -83.5t80.5 -41.5q10 0 10 15zM991 705v2q-21 26 -35 30q-99 33 -110 33q-4 0 -8 -4q12 -7 75.5 -35.5 t67.5 -28.5q7 0 10 3zM655 1083v41q0 26 -4 80h-4q0 -10 -2 -29.5t-2 -29.5q0 -13 1 -37t1 -37q0 -1 -0.5 -14t-0.5 -24.5t1 -24.5t3 -21.5t5 -9.5q0 19 1 54t1 52zM467 670v2q0 9 -14 14q-38 10 -86 33l-15 4q0 -1 -1 -3.5t-1 -4.5q0 -10 47 -28.5t64 -20.5zM698 399v47 q0 4 -2.5 14.5t-5.5 10.5q-6 0 -6 -55v-23q0 -48 8 -84q0 3 6 90zM279 997q0 12 -11 19q-4 -4 -8 -35t-4 -43q0 -8 2 -12l12 8q9 40 9 63zM1073 475q0 14 -16 14v-18q0 -4 2 -13t2 -14q0 -10 -8.5 -29t-8.5 -20t1.5 -2t1.5 -2q26 16 26 84zM938 1245l6 10q-4 2 -19 10 t-28 15.5t-16 7.5q-7 0 -7 -2q1 -9 12 -16.5t31 -16t21 -8.5zM979 143q-51 -7 -74 -39h8q27 0 66 39zM602 1427v11q0 21 -8 37l-6 -11l-2 -12v-12q0 -23 6 -41q3 2 5 4t3 3.5t1.5 4.5t0.5 4v5.5v6.5zM1004 1047q-15 10 -41 10q-31 0 -48 -10q30 -5 39 -5h13q27 0 37 5z M674 727q0 6 -5.5 12t-11.5 6h-16q0 -32 16 -32q6 0 11.5 4t5.5 10zM721 -86q-25 10 -29 10q-23 0 -43 -12q24 -4 37 -4q25 0 35 6zM217 289v6q0 3 -7.5 22t-8.5 29q0 8 -6 8q-5 -10 -5 -16q0 -11 8.5 -28.5t18.5 -20.5zM655 102q0 3 -14 17q-12 -6 -12 -10q0 -5 3 -13t7 -8 q5 0 10.5 5t5.5 9zM467 252q0 6 -7.5 13t-13.5 7q-8 0 -8 -10q0 -4 8 -10t13 -6q4 0 6 2t2 4zM424 1245q0 8 -8 8q-3 0 -10 -14l6 -2q12 0 12 8z" />
<glyph unicode="%" horiz-adv-x="2174" d="M936 1104q0 -66 -21 -131l-12 -41q-7 -39 -43 -88q-100 -124 -215 -139q-91 -11 -104 -11h-9v-2l-94 17l-53 20q-11 4 -33.5 10.5t-39.5 13.5t-33 19q-42 30 -91 90q-65 79 -65 207q0 85 39.5 164.5t107.5 120.5q6 3 22.5 14t24 15t21 9.5t27.5 8.5t51.5 11.5t65.5 13 t53 4.5q78 0 159 -27.5t144 -75.5q12 -8 41 -47q33 -42 45 -80.5t12 -95.5zM2052 389q0 -71 -7.5 -105t-37.5 -108q-16 -39 -55 -70q-59 -52 -103 -77q-86 -47 -153 -47q-91 0 -186.5 31t-161.5 85q-88 74 -88 250q0 155 90 248q10 11 20.5 19t25 18t23.5 16q59 46 150 56 q78 8 119 8q136 0 245 -70q23 -14 74 -74q17 -21 31 -82t14 -98zM1640 1403q0 -17 -12 -37q-23 -40 -71.5 -113.5t-67.5 -105.5q-20 -33 -143 -242q-34 -57 -71 -121.5t-81.5 -143.5t-69.5 -122q-13 -22 -41.5 -78t-46.5 -84q-170 -280 -182 -299q-15 -26 -30 -39.5 t-40 -13.5h-161q-50 0 -50 29q0 9 12 34.5t26 49.5t31 53.5t20 34.5q7 10 20 41q20 38 62 113.5t61 113.5q14 29 26 45q23 29 48 74q37 56 100 162.5t78 130.5q14 23 40.5 62.5t35.5 53.5q9 15 24.5 48t24.5 49q28 51 65 108q2 4 5 8t7.5 9t6.5 8q21 31 55.5 89.5t48.5 80.5 q7 11 16.5 18t24.5 9.5t22.5 3.5t28 0.5t23.5 -0.5q83 0 129 -9q26 -4 26 -20zM629 1092q0 45 -44 89t-89 44q-47 0 -72 -51t-25 -103q0 -49 33.5 -89t81.5 -40q60 0 87.5 43.5t27.5 106.5zM1743 336v29q0 54 -37.5 92.5t-91.5 38.5q-27 0 -45 -28t-23.5 -58t-5.5 -58 q0 -59 26.5 -99t80.5 -40q41 0 67.5 38.5t28.5 84.5zM1835 131h-4q-9 1 -29.5 -20t-36.5 -23q-2 0 -24 -2t-35.5 -4t-13.5 -6q0 -2 6 -8l6 -2q35 2 83 20.5t48 44.5zM674 831q0 7 -6 7t-17.5 -3t-15.5 -4q-28 -4 -88 -8l-15 -4v-2q23 -10 39 -10q8 0 49 7.5t48 10.5 q1 1 2.5 2t2.5 2t1 2zM539 1325v2q-2 5 -9 8h-10q-7 0 -20.5 -2t-20.5 -2q-18 0 -44.5 -16.5t-37.5 -32.5h9q4 2 37 20.5t51 18.5q6 -2 24 -0.5t21 4.5zM1024 676q0 1 -1 3t-1 3q-6 -5 -36 -52.5t-30 -54.5q0 -2 1.5 -3.5t4 -2.5t3.5 -2q59 103 59 109zM1784 616 q0 9 -22.5 17t-35.5 8h-53q6 -4 8 -6q49 -14 60 -14q30 0 43 -5zM1374 266q0 9 -3 29.5t-3 30.5v10q0 8 -2 10v2q-2 -2 -4 -2q0 -4 -1 -12t-1 -12q0 -7 -3 -17t-3 -16q0 -7 5 -22.5t9 -18.5q6 9 6 18zM1290 1130q-4 0 -19.5 -22t-17.5 -29q-2 -9 -12.5 -30.5t-11.5 -34.5 q7 6 34 58t27 58zM248 1198q0 20 -12 25q-4 -1 -9.5 -15.5t-5.5 -21.5q0 -12 15 -17q12 3 12 29zM905 344v6q-4 -5 -12 -13l-13 -13t-10 -13t-8 -16h2q13 0 27 17.5t14 31.5zM1538 1327q0 4 -8 12q-17 -17 -17 -30q0 -4 5 -9l2 -2q5 0 11.5 11.5t6.5 17.5zM307 895 q-13 20 -20 20h-4l-4 -8q0 -7 7.5 -14.5t14.5 -7.5q6 0 6 10zM672 84q0 2 -2 4l-6 2q-6 0 -13.5 -6.5t-7.5 -13.5q0 -3 3.5 -6t6.5 -3q5 0 12 8.5t7 14.5zM825 1122q0 15 -18 15q-10 0 -10 -9q0 -14 20 -18q1 1 4.5 5.5t3.5 6.5zM1923 336q0 7 -7.5 12.5t-14.5 5.5 q-6 0 -9 -10q-1 -5 8 -9.5t15 -4.5q8 0 8 6zM1219 821q0 10 -7 10q-14 0 -14 -22q0 -8 8 -8q13 0 13 20zM1434 563q0 9 -7 12q-14 -7 -14 -14q0 -11 12 -14q9 13 9 16z" />
<glyph unicode="&#x26;" horiz-adv-x="1421" d="M1319 113q0 -5 -3 -13t-3 -12v-8.5v-8t-0.5 -6.5t-1 -6t-2 -5t-4.5 -5t-6.5 -4t-8.5 -4q-24 -7 -85 -12.5t-95 -5.5q-45 0 -87 22t-66 44t-27 22q-6 0 -16.5 -6t-12.5 -7q-61 -39 -80 -47q-9 -5 -10 -6q-43 -27 -110 -42t-126 -15q-42 0 -110 13.5t-98 31.5 q-21 13 -54 24q-49 21 -84 56q-36 36 -69 84q-19 30 -19 53q-7 72 -16 112q-2 8 -2 27q0 13 3 36t3 36q2 59 13.5 104t38.5 85.5t51 67.5t73 75q10 10 10 14q0 2 -6 14q-39 68 -49 107q-4 12 -14 40.5t-14.5 48.5t-4.5 42q0 13 3 38t3 38q0 66 50 133q32 41 49 61t50.5 44.5 t70.5 35.5h2q78 41 196 41q136 0 249.5 -99t113.5 -233q0 -21 -8 -57q-24 -83 -31 -103q-11 -31 -73 -95.5t-95 -84.5q-5 -2 -12 -8.5t-9 -7.5q13 -17 42.5 -58t53 -70t48.5 -54l33 47q3 4 12.5 19t14 21.5t14.5 18t18 17t19.5 10t23.5 4.5q22 0 96.5 -42.5t93.5 -62.5 q13 -16 13 -32q0 -11 -8 -30t-21 -43.5t-16 -31.5q-5 -13 -46.5 -68t-41.5 -65t69.5 -90t98.5 -109q16 -16 16 -30zM735 350q-16 22 -47.5 60t-44.5 55q-68 83 -117 123q-43 -21 -68.5 -65.5t-25.5 -94.5q0 -48 30 -90.5t77 -42.5h51q32 0 82.5 16.5t62.5 38.5zM668 1081 q0 28 -14 54t-38 26q-63 0 -79 -35q0 -1 -5 -6q-14 -14 -14 -35q0 -36 8.5 -65t17.5 -45t36 -55q3 3 21 23t22 25.5t16.5 22.5t16 28t8 28t4.5 34zM748 483v6q-20 33 -59.5 80t-65.5 66l-2 -2q37 -69 84 -107q9 -7 22 -22t21 -21zM936 1040q-1 11 -4 11q-7 -38 -30.5 -76.5 t-53.5 -63.5q-8 -7 -27 -30h2q16 0 38.5 27t27.5 30q15 6 26 33q21 48 21 69zM1038 352q-6 12 -39.5 47.5t-46.5 42.5q-4 -8 -4 -14q0 -4 18.5 -22.5t41.5 -39.5l24 -22h4q3 1 3 2zM592 145q-31 10 -98 23q-5 0 -7 -2l5 -12q27 -11 96 -11q2 2 4 2zM453 872l6 5l-41 84 l-6 -3q3 -7 9 -28.5t13 -34.5t19 -23zM348 594h-6q-12 1 -19.5 -9t-11.5 -24q4 -2 15 -2q3 0 6 2.5t5.5 7t4.5 8.5t3.5 9.5t2.5 7.5zM352 1270q-8 -3 -18 -15.5t-10 -21.5q0 -7 4 -19q24 32 24 56zM725 1190l49 -53q-3 22 -15.5 37t-33.5 16zM643 1348q-11 8 -29 8 q-8 0 -28 -4q26 -13 37 -13q7 0 20 9zM889 166q-8 -3 -16 -8t-18 -13t-13 -10q2 -2 10 -2q14 0 25 10t12 23zM1081 631q0 12 -6 12q-7 0 -10.5 -8t-3.5 -14q0 -11 6 -11h4q10 0 10 21zM244 260q0 4 -4.5 11.5t-8.5 7.5h-4v-25l6 -6h3q8 4 8 12zM1255 90q0 5 -4 10.5t-8 5.5 h-2l-2 -6q0 -4 3 -10t7 -6q1 0 3.5 2t2.5 4z" />
<glyph unicode="'" horiz-adv-x="587" d="M463 1350q0 -47 -8.5 -134.5t-10.5 -119.5q0 -2 -6 -127q0 -7 -1.5 -12.5t-2 -10t-4 -7.5t-5 -5.5t-6.5 -4t-6.5 -2t-9 -1t-9 -0.5h-10.5h-11h-178q-12 0 -17.5 3t-9.5 15l-10 62l-25 204q-10 98 -10 117t8 43q3 15 8.5 19t20.5 6l71 4q15 1 44.5 4.5t53.5 5.5t46 2 q19 0 65 -4q9 -1 14 -6.5t7 -17.5t2 -15.5v-17.5zM391 1180q0 37 -2 57q-14 -2 -14 -16q-10 -157 -10 -189q0 -10 2 -14l10 -2q14 128 14 164zM217 1051q0 3 -1 9t-1 9q-1 0 -4 -1.5t-4.5 -2t-3.5 -1.5t-3 -2l-2.5 -2.5t-2 -3.5t-0.5 -5q0 -9 3.5 -28.5t4.5 -25.5 q14 28 14 54z" />
<glyph unicode="(" horiz-adv-x="776" d="M694 -12q0 -38 -78 -93t-120 -55q-8 0 -17 6t-19 17t-17.5 20t-16.5 21.5t-12 15.5q-68 83 -141.5 208t-96.5 210q-17 60 -41 172q-12 47 -12 111q0 124 6 167q26 183 103 360t196 300q2 2 10 11t11 12l11 11t13.5 11t13 7.5t14.5 6.5t15 2q25 0 67 -21t68 -42 q23 -14 35 -64q-13 -31 -59 -94q-42 -56 -80 -133q-3 -7 -26.5 -51.5t-31.5 -69.5q-55 -159 -55 -344q0 -52 14 -124.5t23.5 -108t34.5 -119.5q29 -91 76 -164q5 -7 36 -52.5t53.5 -82.5t22.5 -51zM541 1389q0 12 -11 12t-19.5 -14.5t-6.5 -24.5v-4h2q12 -2 23.5 8t11.5 23z M268 932l4 29q-2 0 -5.5 1t-4.5 1q-12 0 -12 -17q0 -14 18 -14zM373 295q-39 134 -68 180l-4 -2q0 -8 7.5 -46t10.5 -44q2 -3 7.5 -14t12 -23.5t13.5 -24.5t12.5 -19.5t8.5 -6.5zM616 -14q0 10 -6.5 19t-15.5 9q-8 0 -8 -4q0 -7 10.5 -22.5t17.5 -20.5q2 6 2 19z" />
<glyph unicode=")" horiz-adv-x="776" d="M236 1389q0 -13 11 -23t23 -8h2v4q2 10 -6.5 24.5t-19.5 14.5q-10 0 -10 -12zM504 961l4 -29q18 0 18 14q0 17 -12 17q-1 0 -4.5 -1t-5.5 -1zM403 295q3 -1 8.5 6.5t12.5 19.5t13.5 24.5t12 23.5t7.5 14q3 6 10.5 44t7.5 46l-4 2q-29 -46 -68 -180zM160 -14q0 -13 2 -19 q7 5 17.5 20.5t10.5 22.5q0 4 -8 4q-9 0 -15.5 -9t-6.5 -19zM82 -12q0 14 23 51.5t54 82t36 52.5q45 70 75 164q25 84 34.5 119.5t23.5 108t14 124.5q0 185 -55 344q-8 25 -31.5 69.5t-26.5 51.5q-40 81 -79 133q-49 66 -60 94q12 50 35 64q26 21 68 42t67 21q8 0 15 -2 t14.5 -6.5t13 -7.5t13.5 -11l11 -11t11 -12t10 -11q119 -123 196 -300t103 -360q6 -43 6 -167q0 -65 -12 -111q-24 -112 -41 -172q-23 -85 -96.5 -210t-141.5 -208q-2 -2 -15 -20t-22 -28.5t-22 -21t-22 -10.5q-43 0 -121 55t-78 93z" />
<glyph unicode="*" horiz-adv-x="929" d="M807 1083q0 -13 -30.5 -65.5t-45.5 -71.5q-14 -24 -31 -24q-15 0 -64.5 29t-64.5 32q-6 -15 -6 -31q0 -4 1 -21.5t1 -30.5t-2 -29t-9 -24.5t-19 -8.5q-14 0 -40 1t-38 1q-6 0 -18 -1t-17 -1q-29 0 -41 2q-22 3 -25 24q-2 25 -2 76q0 3 0.5 9.5t0.5 9.5t-1.5 7.5t-5.5 8.5 q-118 -70 -141 -70q-11 0 -21 19q-12 17 -38.5 80t-26.5 79q0 13 27.5 29t62 33.5t45.5 28.5l-108 57q-25 13 -25 29q0 18 26 71t46 86q10 15 20 15q9 0 62.5 -34.5t68.5 -39.5v16q0 16 -2 50t-2 51q0 36 57 36q9 0 27 -1t27 -1q10 0 30.5 1t30.5 1q31 0 37 -26 q8 -25 8 -127q9 4 38.5 20.5t55.5 30.5t31 14q13 0 56.5 -72.5t43.5 -90.5q0 -16 -18 -27q-15 -9 -47 -25.5t-47 -25.5q133 -64 133 -99zM481 1198q0 15 -8 51l-4 -2q-5 -117 -8 -131q-2 -2 -2 -8q0 -18 10 -31q12 59 12 121zM670 1034q-12 10 -33.5 22.5t-30.5 12.5 q-8 0 -10 -2q2 -1 12 -10t18.5 -15t12.5 -6q2 0 4.5 2t3.5 2q3 0 8.5 -4t8.5 -4q1 0 3 1t3 1zM346 1262l6 4q-6 6 -22 17t-21 11q-4 0 -8 -4q4 -19 45 -28zM426 1405v8q0 19 -2 29q-8 -2 -8 -21v-8q0 -15 4 -35l2 -4q4 3 4 31zM684 1356q0 7 -16 12q-11 -11 -11 -16 q0 -7 19 -13q8 16 8 17zM414 887q0 5 -4.5 10.5t-8.5 5.5q-10 0 -10 -12q0 -10 12 -10q11 0 11 6zM262 1038q0 2 -4 6q-18 -9 -25 -18q1 0 3.5 -1t3.5 -1q15 0 22 14z" />
<glyph unicode="+" horiz-adv-x="1118" d="M1014 719q0 -149 -6 -162q-4 -13 -8 -18t-9 -6.5t-20 -2.5q-13 0 -37.5 -1t-36.5 -1q-26 0 -77.5 2t-76.5 2h-34l-2 -34q0 -38 4 -115t4 -115q0 -23 -9.5 -34.5t-31.5 -12.5q-51 -6 -154 -6q-54 0 -76 10q-31 14 -34 47q-1 25 -1.5 105t-2.5 123q0 13 -4 18.5t-17 5.5 q-16 0 -44.5 -4t-41.5 -4q-74 -4 -109 -4q-23 0 -37.5 2.5t-28 14t-15.5 32.5q-5 54 -5 127q0 68 2 82q1 20 8.5 26.5t28.5 6.5q57 2 176 2q60 0 75.5 11.5t15.5 68.5q0 23 -3.5 66.5t-3.5 64.5q0 31 9 61q6 20 10.5 28.5t15 14.5t29.5 6h121q55 0 84 -2q21 -1 30 -11.5 t11 -31.5q2 -45 2 -131q0 -10 -1 -41t-0.5 -52.5t5.5 -39.5q41 -8 96 -8q14 0 48 1t58 0.5t46 -3.5q23 -3 33.5 -13t11.5 -32q2 -14 2 -43zM528 563q0 156 -4 172q-5 -5 -10 -24q0 -25 -3 -77t-3 -77q0 -14 12 -14q8 0 8 20zM645 1030q0 18 -6 33q-14 -9 -14 -47 q0 -28 4 -83t4 -83v-6q5 3 8.5 77t3.5 109zM911 662q-35 12 -112 12q-27 0 -37 -4l4 -13q14 0 39 -1t37 -1h32q28 0 37 7zM188 664l33 -2q-1 2 -3.5 13.5t-6.5 18t-10 6.5q-7 0 -13 -6t-6 -14q0 -10 6 -16zM631 313q0 4 -10 19q-15 -15 -15 -25q0 -6 8 -14q17 11 17 20z" />
<glyph unicode="," horiz-adv-x="593" d="M512 209q0 -10 -16 -58.5t-35.5 -102.5t-22.5 -66q-3 -10 -25 -86t-34 -115q-14 -41 -53 -41q-34 0 -100.5 2t-100.5 2q-32 0 -39 10q-4 7 -4 17q0 7 12 45t26 81.5t17 53.5q13 46 21 86q7 28 24.5 84.5t24.5 85.5q4 12 10.5 19.5t20 10t19.5 3t24 0.5t51 -3t43 -4 q12 -1 51.5 -1.5t60.5 -2.5q25 -4 25 -20zM365 -10q0 8 -11 8q-8 0 -24 -31q6 -12 10 -12q7 0 16 13.5t9 21.5zM172 -188q-5 10 -8 10q-8 0 -15.5 -6t-7.5 -13q0 -16 13 -16q5 0 8.5 4t6 12t3.5 9zM242 137l16 41l-2 4h-8q-13 -15 -17 -49z" />
<glyph unicode="-" horiz-adv-x="1003" d="M901 639q0 -70 -35 -72q-11 -1 -31 -2.5t-36 -2.5t-31 -1q-27 0 -84 2t-86 2q-74 0 -222 -1t-222 -1q-21 0 -36.5 10.5t-15.5 30.5q0 24 3.5 70t3.5 55q2 24 16 36.5t28.5 14.5t39.5 2q12 0 32.5 -1t30.5 -1q20 0 61 1t62 1q9 0 27.5 -1t27.5 -1q40 0 120 3t120 3 q14 0 38.5 -3t35.5 -3q7 0 21.5 2t21.5 2q33 0 63 -6q12 -1 16.5 -2.5t8.5 -7t6 -16.5q1 -9 6 -34.5t7.5 -43.5t2.5 -35zM727 713l-2 4q-6 2 -18 2h-84q-146 0 -156 -8l4 -6q4 0 12.5 -1.5t12.5 -1.5q173 0 231 11zM272 635q-8 4 -14 4q-10 0 -22 -8q12 -8 18 -8q10 0 18 12 z" />
<glyph unicode="." horiz-adv-x="495" d="M414 137q0 -15 -8 -28q-2 -3 -6 -12t-5 -11q-47 -92 -137 -92q-8 0 -53 10q-65 22 -94 62.5t-29 107.5q0 38 26 74t62 59q16 10 53 10q16 0 26.5 -2.5t23.5 -7.5t24 -8q45 -13 81 -64t36 -98zM324 145q0 13 -11 13q-8 0 -8 -8v-3q0 -14 8 -14q11 0 11 12zM186 168 q0 6 -4 22q-3 -2 -5 -4t-3.5 -4t-2.5 -5t-2 -4.5t-1 -5.5v-6v-7v-7v-20q18 15 18 41z" />
<glyph unicode="/" horiz-adv-x="1009" d="M948 1397q0 -27 -30 -94q-9 -22 -34.5 -67.5t-35.5 -70.5q-8 -21 -53 -123l-123 -290q-10 -25 -33.5 -86t-42 -105t-37.5 -84q-59 -125 -84 -190q-18 -51 -26 -70q-1 -1 -9 -15t-10 -22q-3 -8 -11 -28t-12.5 -30.5t-12 -26.5t-15.5 -29t-17 -25q-38 -49 -102 -49 q-18 0 -42 4.5t-40 9t-45.5 14t-36.5 11.5q-22 6 -28.5 14.5t-6.5 30.5q0 28 17 59q21 41 51 119.5t43 107.5q14 31 37.5 87.5t30.5 72.5l51 111q90 204 115 252q15 30 46.5 99t51.5 106q23 44 33 69q76 165 106 225q11 24 19 36.5t25 23t40 10.5q221 0 221 -57zM737 1051 q-6 -5 -15.5 -19.5t-16 -28t-16 -32t-11.5 -23.5h20q4 16 20 49.5t19 53.5zM283 391l-4 -2q-47 -65 -56 -113q33 35 60 115zM504 598q-3 -6 -21 -41.5t-26 -54.5q1 1 6.5 2.5t10 3.5t5.5 4q8 7 15.5 36.5t9.5 49.5zM147 119v6h-8q-16 0 -16 -16q0 -11 8 -19q19 11 16 29z M750 1348l-21 6q-8 -4 -8 -23v-2q2 -4 8 -4q16 0 21 23zM508 823l-21 -2v-8q0 -9 9 -18q12 7 12 28z" />
<glyph unicode="0" horiz-adv-x="1222" d="M1100 664q0 -22 -3 -64t-3 -63q0 -54 -35 -179q-2 -10 -9.5 -27t-9.5 -24q-13 -55 -43 -100q-8 -12 -15.5 -29.5t-15.5 -29t-26 -25.5l-20 -20t-27 -23q-49 -36 -96 -62q-10 -6 -28.5 -11.5t-42 -10.5t-42 -8t-44 -7.5t-32.5 -5.5q-10 -2 -28 -2q-11 0 -47.5 9.5 t-43.5 15.5q-23 18 -53 27q-59 21 -116.5 87.5t-94 141.5t-49.5 139q-53 253 -53 389q0 205 57 365q2 6 29 49q59 85 88 111q3 3 18 16.5t21 18.5t19.5 17t22 17.5t20.5 14t23.5 13.5t22.5 9q56 21 138 21q106 0 200 -52q12 -9 25 -12q39 -14 68 -36.5t63 -59.5 q87 -94 124.5 -266t37.5 -344zM762 852v8q-2 34 -2.5 43t-4.5 42t-8 47t-13 40t-20 40t-28 28.5t-39 21.5q-15 6 -29 6q-39 0 -80 -41.5t-49 -80.5q-36 -174 -36 -338q0 -62 10 -136t31 -112q2 -5 15.5 -31t21 -37t21.5 -28.5t30.5 -25t35.5 -7.5q20 0 33 8q15 7 27 17 t20 24t14 25t10.5 30.5t6.5 29t5.5 32.5t4.5 30q11 74 11 82q0 5 -1 16.5t-1 16.5q0 24 6 73t6 73q0 9 -1 27.5t-1 27.5q0 6 2.5 23t1.5 26zM311 563q0 23 -5 71t-5 71q0 18 2 26q0 1 -1 3t-1 3q-18 -6 -18 -24q0 -42 6.5 -115.5t17.5 -91.5q0 4 2 4q0 9 1 26.5t1 26.5z M539 141q-8 9 -33 15t-35 12q-79 49 -92 51q6 -10 39.5 -37t40.5 -35q16 -16 37 -16q8 0 43 10zM885 1092v2q0 17 -20.5 47t-37.5 45l-22 -17q4 -3 16.5 -10.5t16.5 -11.5q1 -2 8.5 -14t11.5 -18.5t11.5 -14.5t13.5 -10zM567 1290h-6q-24 0 -54.5 -10.5t-35.5 -28.5 q8 -8 14 -8q11 0 43.5 18.5t38.5 28.5zM987 682q0 6 -4 18q-9 0 -14.5 -11.5t-5.5 -22.5q0 -5 4 -17h4q16 0 16 33zM272 1049q0 6 -2 8h-4q-8 0 -15 -14t-7 -25v-6q2 -2 8 -2q7 0 13.5 15t6.5 24zM874 289v12q-10 -5 -20 -17.5t-10 -21.5v-2l6 -4q11 0 17.5 10.5t6.5 22.5z " />
<glyph unicode="1" horiz-adv-x="796" d="M653 166q0 -98 -10 -137q-3 -17 -22 -23q-22 -5 -95.5 -9.5t-111.5 -4.5q-35 0 -71 21t-36 53q0 29 5 89t5 91q0 12 -4 33t-4 32q0 10 1 32t1 32q0 21 -3 63t-3 64q0 30 6 89t6 89q0 7 -1 21.5t-1 21.5q0 10 3.5 30.5t3.5 30.5q0 14 -3.5 43t-3.5 43q0 19 3 53.5t4 43.5 l-27 -11q-8 -3 -25.5 -12.5t-32.5 -15.5t-28 -6q-27 0 -43 17t-21.5 36t-10.5 47q-1 5 -1 8q-1 10 -5.5 36t-4.5 40q0 53 51 86q15 11 30.5 25t34.5 31t29 26q93 85 150 129q45 31 92 31q119 0 127 -99q10 -103 10 -245q0 -56 -3 -167t-3 -167q0 -98 6 -295t6 -295zM500 633 q0 36 -2 108.5t-2 108.5q0 15 -4 18q-2 -3 -3.5 -19t-9.5 -24q-2 -18 -2 -41t1 -51.5t1 -42.5q0 -16 10 -84l3 -2q8 12 8 29zM434 438v4h-20q0 -12 -2 -32.5t-2 -30.5q0 -23 10 -41q14 58 14 100zM311 1163l62 49l-11 23q-3 -3 -15.5 -15t-18.5 -18.5t-13.5 -17.5t-9.5 -21 h6zM502 1130l26 -4v21q0 4 -4 12.5t-4 9.5q-20 -10 -20 -28q0 -2 1 -5.5t1 -5.5zM532 96q0 15 -12 21q-10 -4 -10 -23v-6q0 -14 12 -14q10 0 10 22z" />
<glyph unicode="2" horiz-adv-x="1148" d="M1026 1090q0 -60 -18.5 -140t-22.5 -108q0 -7 -4 -15q-7 -13 -22.5 -36t-20.5 -31q-59 -97 -88 -154q-20 -38 -57 -67q-14 -11 -25.5 -26t-24.5 -34t-22 -30q-12 -16 -37.5 -45.5t-44.5 -54t-35 -48.5l4 -4q36 -4 56 -4q28 0 83 4t82 4q37 0 111 -8q59 -4 59 -123 q0 -65 -10 -143q-6 -30 -37 -33q-7 0 -20 -1t-19 -1q-19 0 -57 6t-57 6q-21 0 -61 -5t-60 -5h-2q-111 12 -240 12q-6 0 -17.5 -2t-17.5 -2q-5 0 -16.5 1t-17.5 1q-12 0 -37 -1t-39 -1q-7 0 -28 -0.5t-33.5 -0.5t-32.5 2t-32 7t-23.5 15.5t-16.5 25.5q-2 2 -2 8q0 21 10 66 q-4 16 -4 27q0 79 37 124q28 32 33 43q10 18 25.5 35.5t40 39.5t32.5 30q69 69 176 213q9 12 42 55.5t49.5 66.5t39.5 58.5t37 63.5q22 15 25 34q16 19 16 41q14 20 14 48q0 102 -145 102q-16 0 -29 -10q-68 -15 -108 -39q-39 -21 -54 -33q-7 -6 -41 -38.5t-62 -54.5 t-44 -22q-13 0 -30.5 11t-20.5 24q-12 73 -12 154q0 92 24 147q19 38 31 43q11 5 71 49q16 14 50.5 28.5t44.5 20.5q20 14 41 19.5t48.5 8.5t43.5 7q27 9 112 9q15 0 43 -1.5t41 -1.5q20 -1 54 -15.5t39 -16.5q67 -19 118 -56q51 -41 66 -88q8 -16 12 -20q12 -22 24.5 -69 t12.5 -72zM535 1331q-6 2 -19 2q-10 0 -23.5 -7.5t-19.5 -8.5q-19 -4 -57.5 -23.5t-38.5 -31.5q2 -2 6 -2q2 0 5 1t5 1q45 30 113 47q24 3 29 22zM778 788h-2q-96 -120 -100 -133l2 -2q39 16 100 135zM670 102q-14 11 -35 11q-17 0 -57 -5t-48 -10v-2q12 -4 21 -4 q94 0 119 10zM494 479q0 2 -2.5 6.5t-2.5 6.5q-8 -8 -34.5 -42t-26.5 -38q0 -3 3.5 -7t6.5 -4q10 0 33 37t23 41zM725 1272q-3 22 -33 22q-16 0 -16 -14q0 -10 9.5 -17.5t19.5 -7.5q13 0 20 17zM233 84q0 42 -12 47q-3 -2 -5 -6t-3.5 -10.5t-2.5 -11.5t-2 -12t-1 -9 q5 -8 18 -8q8 0 8 10zM322 1112h-9q-9 0 -27 -15t-18 -24q0 -4 2 -6q15 3 32 17t20 28zM909 1114v10q0 6 -10 6q-4 0 -7 -11t-3 -17q0 -18 8 -23q0 -4 6 -4l4 6q2 10 2 33zM889 63q0 5 -4.5 11t-10.5 6q-8 -3 -8 -10q0 -19 13 -19l2 2v2l2 -2q6 0 6 10z" />
<glyph unicode="3" horiz-adv-x="1153" d="M1030 377q0 -65 -26.5 -132.5t-71.5 -105.5q-9 -7 -23.5 -27.5t-21.5 -25.5q-79 -53 -152.5 -77.5t-163.5 -24.5q-23 0 -67 5.5t-62 6.5q-44 4 -130 24.5t-117 38.5q-4 3 -10 5t-13 4.5t-10 3.5q-17 7 -28 25t-11 38q0 44 14 191q2 22 15.5 44.5t33.5 22.5q11 0 17 -4 q22 -9 58.5 -26t66.5 -29.5t61 -20.5q15 -4 31 -5t43.5 0t32.5 1q45 0 70 6t65 27q28 14 42 39t17 27q12 9 12 20q0 5 -12 47q-18 76 -190 76q-14 0 -42 -3t-42 -3q-7 0 -21.5 1t-21.5 1h-24.5t-29.5 1.5t-24.5 5.5t-21.5 13.5t-9 24.5q-12 106 -12 162q0 60 18 93.5 t72 33.5q5 0 16 -2t17 -2q3 0 8 1t8 1q19 6 58.5 9t74 6.5t69 12t55 31t20.5 57.5q0 43 -31 66.5t-76 23.5q-8 0 -22.5 4.5t-22.5 4.5h-21.5h-25t-25 -0.5t-28 -1t-26.5 -2t-28 -4t-25 -5.5t-24.5 -7.5t-20 -10t-18.5 -12.5q-22 -17 -73 -43q-11 -7 -25 -7q-34 0 -54 28.5 t-20 64.5q0 24 2 71.5t2 69.5v53q3 29 25 41q153 96 391 96q42 0 62 -4q18 -2 53.5 -4t52.5 -4q64 -9 140 -50.5t114 -90.5q15 -18 23.5 -47t13.5 -39q7 -12 15 -41.5t8 -44.5q0 -7 -3.5 -20.5t-3.5 -20.5t3.5 -20.5t3.5 -20.5q0 -40 -16.5 -89t-43.5 -71q-8 -8 -10 -14 q-26 -47 -57 -66q-21 -13 -21 -28q0 -12 61.5 -74t69.5 -84q13 -10 17 -22.5t5.5 -29t4.5 -26.5q16 -43 16 -137zM528 1264l-6 6q-29 4 -90 4q-68 0 -88 -14v-5h16q15 0 42 2.5t40 2.5h74q12 0 12 4zM848 223q-66 -49 -76 -63l8 -10q22 6 42.5 28.5t25.5 44.5zM868 1241v10 q-9 12 -63 49q0 3 -4 3q-8 0 -10.5 -2t-2.5 -9h3q11 -5 33.5 -25.5t43.5 -25.5zM584 774l4 6q-6 1 -21.5 4.5t-23.5 3.5q-12 0 -33 -1t-31 -1l-2 -2q17 -12 53 -12h17q25 0 37 2zM918 420q0 7 -3.5 20.5t-3.5 20.5v16h-18q4 -13 14 -82h4q7 14 7 25zM549 188q-26 11 -43 11 q-10 0 -33 -9q4 -1 24 -7.5t31 -6.5q9 0 21 12zM360 668l-53 6v-31q4 1 14.5 3.5t15 4.5t11.5 6.5t12 10.5zM172 1067q0 2 -9.5 20.5t-10.5 22.5q-9 -18 -9 -29v-4q0 -9 7 -20q18 6 22 10zM229 109l7 8q-16 -4 -27 -4q-8 0 -19.5 8.5t-13.5 9.5v-29q6 -2 17 -2q9 0 36 9z M772 643q0 12 -12 12q-6 0 -10.5 -5t-4.5 -11q0 -10 11 -10q6 0 11 4t5 10zM829 1042q0 4 -1 11.5t-1 11.5q-14 -7 -14 -23q0 -6 4 -8q2 -2 4 -2q8 0 8 10z" />
<glyph unicode="4" horiz-adv-x="1161" d="M1059 375q0 -4 -6 -121q0 -28 -37 -35l-66 -4q-19 -1 -23.5 -6.5t-4.5 -24.5q0 -7 1 -21t1 -20q0 -55 -9 -102q-5 -26 -36 -33q-12 -4 -48 -8q-31 -8 -67 -8q-16 0 -49 5t-51 5q-1 0 -4.5 -1t-4.5 -1q-19 -1 -40 20t-23 41v37q0 8 1 24.5t1 30.5t-2 25q-3 22 -25 25h-69 q-15 0 -44.5 2t-43.5 2q-46 0 -137.5 -2t-137.5 -2q-15 0 -21.5 5.5t-7.5 20.5q-4 62 -4 97q0 133 9 153l43 80q9 16 22 55q10 23 21 37q19 29 59 121q44 98 158 332q5 10 26.5 55.5t32 67.5t29.5 59t35 65.5t32 51.5q15 18 35 18q102 11 111 11t27 -2.5t26 -2.5 q14 0 40 2.5t38 2.5q36 0 45 -33q7 -33 9.5 -72t3 -88.5t1.5 -73.5h-2l-1 -40q0 -40 1 -40q1 -12 6.5 -37t5.5 -40q0 -9 -1 -27t-1 -27q0 -12 5.5 -34t5.5 -33q0 -10 -3 -30t-3 -30q0 -113 20 -227q2 -10 14 -15.5t33 -9t25 -4.5q40 -15 43 -59q6 -135 6 -137zM600 547 q0 15 -1 43t-1 43q-1 16 -1.5 64.5t-2.5 74.5l-6 2q-2 -4 -21.5 -34t-30.5 -47t-30 -48.5t-30 -52t-21.5 -42.5t-12.5 -34h41q35 0 97 8q14 2 17 5t3 18zM805 739v39q0 149 -12 203q-13 -38 -13 -125q0 -6 6.5 -34t6.5 -44q0 -3 1 -43.5t5 -52.5h2q4 36 4 57zM807 395 q-12 6 -35 6q-119 0 -176 -6q-8 -1 -21.5 -2.5t-25 -2.5t-21.5 -1h-22q31 -8 184 -8q89 0 117 14zM492 819q0 3 -5 8q-7 -2 -10 -8q0 -12 -12 -24q-11 -11 -41 -71.5t-33 -76.5q9 0 12 10q6 9 23.5 37.5t26 43t20.5 38t19 43.5zM690 104q0 16 -1 49t-1 50q0 12 -6 12l-2 -2 q-4 -82 -4 -123q0 -10 4 -18q10 8 10 32zM500 1102q-4 6 -6 6q-8 0 -25.5 -35.5t-19.5 -48.5l10 6q6 6 23.5 36t17.5 36zM193 276q0 6 -9 22.5t-10 25.5l-4 8l-4 -6q-2 -6 -2 -19q0 -5 6 -47h4q6 -2 12.5 3.5t6.5 12.5zM668 1253q-1 0 -4.5 -1t-4.5 -1l-24 -49q8 -4 10 -4 q12 0 23 55zM969 289q0 8 -2 10l-6 2q-7 0 -12 -5.5t-5 -10.5q0 -15 12 -15q6 0 9.5 6t3.5 13zM817 1325q0 16 -16 16q-1 0 -5.5 -6t-4.5 -8q0 -6 5.5 -10t10.5 -4q10 0 10 12zM319 475l3 4l-3 6q-5 2 -30 2v-12q3 0 7.5 -2t6.5 -2q4 0 16 4z" />
<glyph unicode="5" horiz-adv-x="1206" d="M1083 530q0 -12 -2 -36t-2 -37q0 -16 -2.5 -31t-9 -38.5t-8.5 -29.5q-40 -159 -113 -243q-8 -10 -50.5 -37.5t-59.5 -36.5q-29 -15 -150 -37q-72 -10 -84 -10q-118 0 -196 18q-57 13 -146 64t-115 92q-18 32 -20 47q-2 2 -2 6q0 27 22 45q68 51 152 109q19 16 43 16 q5 0 10.5 -1.5t9.5 -3t9.5 -5.5t8 -5.5t8.5 -7.5l7 -7t7 -8l6 -7q13 -16 31.5 -25.5t29.5 -12.5t39 -6.5t35 -4.5q8 -2 20 -2t62 10q14 3 27 10t18 10.5t21 19t18 17.5q38 40 38 111q0 59 -12 108.5t-47.5 92t-91.5 49.5q-20 4 -57 4q-45 0 -75.5 -16.5t-43.5 -16.5 q-7 0 -22 1t-23 1q-72 0 -107 -4q-4 -2 -10 -2q-66 0 -66 53q0 42 1.5 126.5t1.5 127.5q0 83 -7 205q-6 93 -6 94q0 26 7.5 55t27 53.5t45.5 27.5q48 4 76 8q24 2 151 2q25 0 75 -4t75 -4q21 0 64.5 4t66.5 4q9 0 26 -0.5t30.5 -0.5t25.5 1q22 0 100 -19q39 -9 39 -47 q4 -74 4 -108q0 -8 -1 -23t-1 -22t2 -21.5t2 -21.5v-6q-13 -52 -108 -52q-39 0 -116 4t-116 4q-19 0 -59 -4t-61 -4h-4q-17 0 -21 -12q-2 -17 -1.5 -48t-0.5 -48q28 -3 100 -4.5t103 -5.5q217 -31 286 -140q12 -19 30.5 -55.5t23.5 -46.5q14 -29 14 -80q1 -24 9.5 -74.5 t8.5 -77.5zM299 874v97q0 8 0.5 36.5t0 42.5t-2.5 35.5t-6 38.5q-1 -8 -1.5 -37t-2.5 -43q-4 -36 -4 -59v-29v-75zM733 1264q-6 10 -127 10q-19 0 -37 -12h21q43 0 72 -5q24 -4 34 -4q20 0 37 11zM625 827q-1 4 -4.5 6.5t-8.5 4t-9.5 2.5t-11 1.5t-9.5 0.5q-28 4 -45 4 t-25 -4l-4 -4q0 -5 4 -9q20 -4 70 -4q12 0 28 4l13 -6q2 0 2 4zM907 377v26q0 4 0.5 16.5t0 17.5t-3.5 13t-9 13q0 -5 -2 -15.5t-2 -15.5q0 -8 1 -23t1 -22v-47h6q8 0 8 37zM379 229q-33 11 -35 11q-10 0 -10 -7t6 -12.5t14 -5.5q11 0 25 14zM666 102q0 7 -8 11t-15 4 q-8 0 -12 -4l-2 -7q0 -14 18 -14q19 0 19 10zM891 793q0 13 -19 18q-8 -12 -8 -23q0 -2 1 -6t1 -6q3 2 10.5 3t11 4t3.5 10zM907 1341v9q0 5 -0.5 8t-1 4t-3.5 4.5t-5 5.5l-14 -29l18 -6zM322 1321q0 3 -2.5 4.5t-7 2t-5.5 1.5q-8 -5 -8 -14q0 -8 8 -8q5 0 10 5t5 9z" />
<glyph unicode="6" horiz-adv-x="1239" d="M1114 561q0 -128 -6 -143q-41 -142 -72 -205q-14 -32 -84 -107q-15 -15 -18 -22q-14 -23 -51 -35q-13 -4 -45.5 -20t-51.5 -19q-11 -2 -58.5 -16t-80.5 -14q-133 0 -180 32q-9 6 -28.5 12t-26.5 11q-15 8 -42 28.5t-30 22.5q-29 24 -56 60.5t-41 62t-38 72.5 q-22 50 -23 65q-1 11 -7 29t-7 22q-2 7 -9 36.5t-9 40t-7.5 36.5t-8 41t-6 37t-4.5 41t-1 37v127q0 12 2 18q15 56 29 135q17 115 43 178q70 147 176 217q32 25 35 27q14 7 86 37q66 27 153 27q45 0 76 -5q76 -6 151 -57q51 -33 81 -56.5t59 -65t37 -89.5q6 -42 6 -43 q0 -20 -13 -39q-29 -40 -43.5 -49.5t-56.5 -18.5q-5 -1 -8.5 -1.5t-7.5 -1.5q-9 -2 -27.5 -7t-33 -7.5t-27.5 -2.5q-48 0 -80.5 35.5t-59.5 91.5q-13 27 -57 27q-65 0 -106 -60q-36 -53 -43 -82q-16 -71 -17 -79q-4 -12 -4 -21q0 -13 6 -22q14 4 42.5 13t46 14t42 9.5 t45.5 4.5q40 0 99 -7.5t84 -19.5l100 -53q12 -8 35 -31q6 -5 24 -21t24.5 -22.5t18.5 -19.5t20 -26.5t15 -29.5q3 -6 10 -21t9.5 -21.5l7.5 -19.5t7 -21.5t3.5 -21t1.5 -24.5zM782 457q0 33 -18 82q-36 98 -168 98q-41 0 -70.5 -30.5t-41 -69t-11.5 -78.5q0 -70 46 -113 t116 -43q63 0 105 45t42 109zM322 842q0 4 -3 10q-18 -70 -18 -113t6 -63q15 55 15 166zM668 150q-55 -11 -62 -11q-12 0 -28 6.5t-19 6.5q-6 0 -10 -13q3 -3 32 -10.5t35 -7.5q23 0 52 29zM707 766q-3 15 -25.5 23t-42.5 8q-19 0 -27 -2l-4 -2l4 -9h4q39 0 91 -18zM967 328 l-6 2q-7 -1 -14 -8.5t-14.5 -21.5t-8.5 -15q1 0 3 -1t3 -1q17 0 26 14t11 31zM655 1298q-20 5 -24 5q-38 0 -64 -23q15 0 47 5.5t41 12.5zM965 1167q0 9 -8 17t-17 10q-4 -4 -4 -10t5.5 -18.5t10.5 -12.5q3 0 8 5t5 9zM369 1147q-2 0 -6.5 1t-6.5 1q-10 0 -30 -49 q35 23 43 47zM840 1042q0 10 -15 25q-12 -8 -12 -16q0 -9 14 -23q13 6 13 14zM377 293q0 5 -3.5 15.5t-8.5 10.5q-1 0 -7.5 -1t-7.5 -1q0 -7 6 -19.5t13 -12.5q8 0 8 8zM891 643q0 23 -12 23q-3 0 -6 -5t-3 -8v-4q0 -4 3.5 -10t7.5 -6q10 0 10 10z" />
<glyph unicode="7" horiz-adv-x="1058" d="M977 1133q0 -9 -20.5 -47.5t-24.5 -61.5q-3 -17 -13 -47.5t-12 -38.5q-103 -322 -104 -324q-59 -175 -74 -243q-4 -19 -17.5 -52.5t-17.5 -48.5q-6 -18 -22.5 -81t-33.5 -109.5t-36 -71.5q-14 -14 -33 -14q-10 0 -29 3t-28 3q-5 0 -14.5 -1t-14.5 -1q-19 0 -59 3t-59 3 q-6 0 -18.5 -1t-18.5 -1q-52 0 -52 72q0 14 8 47t15 41q17 22 23 55q2 7 7 25t9 28q14 33 25 86t16 70q9 30 31 86t30 82q3 9 25 76q3 8 15 54t28 69q3 4 8 20q7 40 33 107.5t33 95.5q3 14 6 38.5t4 32.5q-20 5 -25 5q-13 0 -39.5 -1t-40.5 -1q-15 0 -46 2t-46 2 q-8 0 -24.5 -1t-24.5 -1q-47 0 -72 2q-6 0 -18.5 2t-19.5 2q-16 0 -47 -4t-46 -4q-24 0 -41.5 28t-17.5 53q0 13 -1 40t-1 42q0 10 3 30t3 32q0 8 -1 26t0 25.5t4 19.5t11.5 20.5t22.5 16.5q31 17 59 17q32 0 94.5 -3t94.5 -3q11 0 32 3t33 3q19 0 56.5 -7.5t58.5 -7.5 t123 5q10 1 43.5 1.5t52.5 2.5q10 2 35 2q82 0 115 -15q6 -2 16 -4t14.5 -4t10 -7t8.5 -15q6 -29 6 -82q0 -23 -2 -70t-2 -70q0 -6 2 -18t2 -18zM770 1272v2h-2q-16 4 -27 4q-29 2 -88 2q-5 0 -17 1t-18 1q-19 0 -34 -10q41 -6 121 -6q45 0 65 6zM653 786q-13 -23 -30 -67 t-17 -62q0 -8 4 -16q14 18 28.5 68.5t14.5 76.5zM516 78v4q-12 2 -33 2h-22q-2 0 -12 0.5t-15.5 0t-13.5 -1.5t-13 -3.5t-8 -7.5h21v-2l2 2q46 -4 72 -4q12 0 18 2q4 4 4 8zM301 1372q-21 8 -53 8q-42 0 -64 -12q12 -2 39 -2h15q10 -2 33 0t30 6zM561 379q0 6 -4 22 q-27 -8 -27 -30q0 -15 13 -25q18 0 18 33zM807 1114q0 16 -10 16q-5 0 -14 -6t-9 -10q0 -14 14 -14q5 0 12 5t7 9z" />
<glyph unicode="8" horiz-adv-x="1259" d="M1137 465q0 -54 -19 -143q-2 -9 -6.5 -25.5t-7.5 -30t-4 -26.5q0 -17 -8 -25q-65 -102 -189 -184q-7 -4 -61 -21.5t-64 -19.5q-90 -8 -139 -8q-51 0 -100 6q-85 11 -132.5 27.5t-132.5 58.5q-32 14 -51 41q-3 5 -12 14t-12 14q-50 91 -66 168q-10 30 -10 39q0 73 14 166 q5 39 33 86q3 6 15 26t18 31q15 31 71 91q-7 11 -29.5 42.5t-38.5 58t-20 42.5q-20 82 -20 149q0 80 35 142.5t102 128.5q15 15 46.5 30t43.5 25q9 8 19 15t23.5 12.5t21.5 9.5t25 8.5t23 6l26 6.5l24 6q16 4 27 4q3 0 9 -1t9 -1q18 0 55 5t56 5q69 0 114 -17q53 -21 74 -34 q13 -6 25 -16t26 -24t21 -20q52 -42 82 -122t30 -154q0 -167 -59 -269q-2 -5 -13.5 -20t-11.5 -23q0 -7 9 -16q27 -16 43 -47q4 -6 17.5 -29t18 -31t15 -28t15 -32t10.5 -29.5t8 -34t2 -33.5zM825 401q0 69 -59.5 121.5t-128.5 52.5q-73 0 -135 -40t-62 -109 q0 -77 71 -122.5t153 -45.5q61 0 111 41t50 102zM762 1040q0 44 -44.5 71.5t-92.5 27.5q-56 0 -100 -25.5t-44 -77.5q0 -61 46.5 -95t109.5 -34q50 0 87.5 40.5t37.5 92.5zM920 252l-2 2q-9 -5 -29 -32t-45 -42q-8 -4 -28.5 -8t-31.5 -12q-5 -3 -35.5 -5t-35.5 -5 q15 -11 28 -11q4 0 12.5 1t12.5 1q53 9 82.5 28t60.5 64l5 7q6 8 6 12zM367 909l6 -4l-19 80q-10 -5 -10 -22v-43q0 -18 10 -41zM903 621q-9 16 -38 37.5t-48 25.5q0 -19 21 -33q4 -2 19.5 -10.5t26 -13t19.5 -6.5zM967 1210q2 22 -22 48t-46 26q7 -14 18.5 -26t26.5 -26 t23 -22zM272 244l-14 16q-21 44 -29 82l-2 -2q-4 -16 -4 -25q0 -13 16.5 -43t28.5 -30q2 0 4 2zM350 625l-6 6q-2 0 -10 -4q-17 -38 -19 -60q7 2 12.5 6t8.5 7t5.5 10t3 10t2.5 12.5t3 12.5zM633 1294q-1 4 -12.5 10.5t-16.5 6.5t-13 -8.5t-9 -8.5l-4 -4q16 -8 28 -8 q25 0 27 12zM913 1008q0 14 -2 20q-18 -4 -18 -16q0 -10 3.5 -30t4.5 -26q12 32 12 52zM307 1188l-12 -2q-3 -7 -8 -14t-8 -13.5t-3 -17.5q0 -17 7 -17q1 0 6 13.5t11 30.5t7 20zM604 782v4q0 23 -12 23t-12 -21l2 -6q2 -4 10 -12zM1040 434q0 11 -8 19q-12 -6 -12 -21v-4 q0 -14 12 -14q8 0 8 20zM516 125v4l-45 10q12 -24 33 -24q12 0 12 10z" />
<glyph unicode="9" horiz-adv-x="1282" d="M1159 752q0 -58 -22 -197q-1 -11 -7 -31t-8 -28l-16 -70q-15 -50 -46 -117t-59 -102l-69 -80q-15 -15 -19 -16q-20 -7 -46.5 -32t-37.5 -32q-66 -42 -163 -45q-18 0 -52 -2t-51 -2q-13 0 -57.5 14.5t-52.5 16.5q-49 11 -95 43q-72 49 -106 97t-51 132q-2 4 -2 14 q0 32 21 50t65 31t49 16q44 24 96 24q31 0 46.5 -15t18.5 -34t15 -40t35 -30q45 -20 71 -20q50 0 91.5 45t44.5 96q0 7 2 11q9 12 16.5 37.5t7.5 41.5q0 7 -4 23q-11 -5 -38 -17.5t-36.5 -16.5t-30.5 -12t-35 -10.5t-35.5 -5t-45.5 -2.5q-56 0 -125 18t-109 48l-12 8 q-85 42 -134.5 146t-49.5 208q0 18 4 54q1 7 1.5 29.5t2.5 33.5q22 129 86 214.5t180 135.5q92 39 127 47.5t125 8.5q83 0 213 -29q54 -12 88 -49q45 -45 78 -109q0 -4 4 -8q38 -42 67.5 -110t35.5 -125q2 -20 11 -72t9 -82q0 -18 2 -51t2 -51zM799 985q0 125 -172 158 q-6 2 -17 2q-65 0 -114.5 -51.5t-49.5 -118.5q0 -10 13 -62q18 -64 60.5 -98.5t107.5 -34.5q117 0 164 162q8 28 8 43zM606 1323v4q-66 4 -98 4q-7 0 -42 -13t-46 -18q-24 -8 -29 -26q2 0 6 -1t6 -1t61.5 25.5t90.5 25.5h51zM963 926q0 30 -15 84q-6 -9 -6 -19q0 -7 2 -21.5 t2 -21.5q0 -14 -3 -43t-3 -43q0 -13 8 -18q15 51 15 82zM946 360q-3 -4 -22.5 -29.5t-36 -47t-17.5 -25.5l4 -4q23 13 47.5 47t24.5 59zM649 106q-5 5 -6 5q-6 1 -17 2.5t-20 2.5t-16 1q-3 0 -13.5 -1t-17.5 -0.5t-12 5.5q-2 -2 -2 -8q6 -17 86 -17q8 0 18 10zM391 676 q-48 23 -76 74q-4 -4 -4 -11q0 -21 27.5 -44t48.5 -23zM287 987q0 7 -4 23q-23 -12 -23 -27q0 -16 8 -27q19 0 19 31zM844 1196h4q-1 6 -5.5 13t-8 11.5t-10.5 12t-9 10.5h-31q11 -11 33.5 -27.5t26.5 -19.5zM399 281q0 13 -14 16q0 -1 -10.5 -12t-9.5 -19v-2q12 -6 16 -6 q8 0 13 7t5 16zM705 651q0 3 -11 19q-21 -15 -24 -39q35 7 35 20zM1083 655q0 5 -4 17q-14 -14 -14 -33q0 -8 4 -12h2q4 0 6 2q6 18 6 26z" />
<glyph unicode=":" horiz-adv-x="495" d="M414 895q0 -16 -8 -29l-11 -22q-47 -92 -137 -92q-17 0 -53 12q-64 20 -93.5 61t-29.5 109q0 37 26 73t62 58q16 10 53 10q16 0 26.5 -2.5t23.5 -7.5t24 -8q45 -13 81 -63.5t36 -98.5zM324 903q0 12 -11 12q-8 0 -8 -8v-2q0 -14 8 -14q11 0 11 12zM186 926q0 6 -4 22 q-3 -2 -5.5 -4t-4 -5.5t-2.5 -5t-1.5 -6t-0.5 -6v-7.5v-7v-22q18 15 18 41zM414 137q0 -15 -8 -28q-2 -3 -6 -12t-5 -11q-47 -92 -137 -92q-8 0 -53 10q-65 22 -94 62.5t-29 107.5q0 38 26 74t62 59q16 10 53 10q16 0 26.5 -2.5t23.5 -7.5t24 -8q45 -13 81 -64t36 -98z M324 145q0 13 -11 13q-8 0 -8 -8v-3q0 -14 8 -14q11 0 11 12zM186 168q0 6 -4 22q-3 -2 -5 -4t-3.5 -4t-2.5 -5t-2 -4.5t-1 -5.5v-6v-7v-7v-20q18 15 18 41z" />
<glyph unicode=";" horiz-adv-x="657" d="M512 203q0 -9 -16 -57.5t-35 -103.5t-23 -67q-6 -20 -59 -200q-13 -39 -53 -39q-34 0 -100.5 1t-100.5 1h-5q-13 0 -19 0.5t-12.5 7t-6.5 18.5q0 7 11.5 45t26.5 83.5t17 52.5q11 40 21 88q7 30 24.5 86t24.5 82q2 8 5 13.5t9 9t9.5 5.5t12 3t11.5 1h14h13q15 0 46 -2 t48 -2q12 -1 35 -1.5t42 -1.5t35 -3q25 0 25 -20zM575 895q0 -16 -8 -29q-2 -3 -5.5 -11t-4.5 -11q-47 -92 -137 -92q-19 0 -51 12q-66 20 -95.5 61t-29.5 109q0 37 26 73t62 58q16 10 53 10q16 0 27 -2.5t24.5 -7.5t22.5 -8q45 -13 80.5 -63.5t35.5 -98.5zM260 98l23 56 l-4 8h-3q-18 0 -28 -70zM332 -162q-2 -1 -5.5 -1t-5.5 -0.5t-3.5 -2t-2.5 -4.5q-12 -36 -12 -43q0 -4 4 -12q5 5 8 10.5t6 13t4 12t3.5 14.5t3.5 13zM348 926q0 6 -4 22q-3 -2 -5.5 -4t-4 -5.5t-2.5 -5t-1.5 -6t-0.5 -6v-7.5v-7v-22q18 15 18 41zM227 -92q-5 10 -8 10 q-8 0 -15 -5.5t-7 -12.5q0 -17 12 -17q5 0 8 3.5t7 12.5zM485 903q0 12 -10 12q-8 0 -8 -8v-2q0 -14 8 -14q10 0 10 12zM381 41l6 14v6h-8l-10 -14l6 -8z" />
<glyph unicode="&#x3c;" horiz-adv-x="995" d="M102 555q0 27 1 79t1 77q0 75 25 90q62 34 104 53q71 26 158 82q39 24 142 85.5t157 96.5q88 51 123 51q20 0 33 -8t18 -24.5t6.5 -29.5t1.5 -34q0 -17 -2 -49t-2 -49v-45q0 -40 -32 -62q-27 -19 -113 -69q-154 -100 -197 -125q-24 -16 -28 -29q30 -24 97.5 -57t98.5 -56 q77 -56 111 -71q24 -8 24 -39q0 -41 -2 -122t-2 -122q0 -2 0.5 -13.5t0 -17t-2.5 -14t-7.5 -12.5t-14.5 -4q-4 0 -29.5 12t-34.5 18q-11 6 -60 32t-75 42l-63 39q-7 4 -19 10.5t-16 8.5l-92 57q-35 23 -109 63q-6 3 -29.5 11t-33.5 16q-17 13 -58 37t-61 41q-19 17 -19 51z M473 877q0 -2 2.5 -4.5t5.5 -2.5q6 0 13 7q6 6 14 6q18 5 46 23.5t44 23.5q8 4 8 8q6 9 27 18q-5 5 -10 5q-6 0 -9 -3q-6 -4 -24.5 -16t-32.5 -19t-29 -12q-17 -3 -26 -10l-25 -18q0 -1 -2 -3t-2 -3zM549 461q5 -12 36 -29.5t33 -19.5q6 -4 23 -8.5t18 -4.5q0 8 -42.5 31.5 t-63.5 32.5zM240 567q37 -32 51 -35q3 -1 8.5 -6.5t7.5 -5.5q6 3 6 6v2q-1 1 -10 9.5t-13.5 11.5t-13 9t-15 8.5t-13.5 2.5q-1 0 -4 -1t-4 -1zM346 721q0 -8 6 -16.5t13 -8.5q12 0 12 23q-6 18 -15 18q-6 0 -11 -5t-5 -11zM745 193q0 -4 7 -8.5t12 -4.5q10 0 10 10 q0 15 -20 15q-9 -9 -9 -12zM762 1092v-9q17 4 20 29h-4q-16 0 -16 -20z" />
<glyph unicode="=" horiz-adv-x="1003" d="M901 723q0 -70 -35 -72q-49 -6 -98 -6q-27 0 -84 2t-86 2q-74 0 -222 -1t-222 -1q-21 0 -36.5 10t-15.5 29q0 24 3.5 71t3.5 56q2 24 16 36.5t28.5 14.5t39.5 2q12 0 32.5 -1t30.5 -1q20 0 61 1t62 1q9 0 27.5 -1t27.5 -1q40 0 120 2t120 2q14 0 38.5 -2t35.5 -2 q7 0 21.5 2t21.5 2q3 0 63 -6q12 -1 16.5 -2.5t8.5 -7t6 -16.5q1 -9 6 -34.5t7.5 -43.5t2.5 -35zM901 367q0 -25 -8 -48t-27 -24q-66 -4 -98 -4q-27 0 -84 2t-86 2q-74 0 -222 -2t-222 -2q-20 0 -36 11t-16 30q0 24 3.5 71t3.5 56q3 33 24.5 42t59.5 9h63v-2q82 4 123 4 q9 0 27.5 -2t27.5 -2q40 0 120 3t120 3q14 0 38.5 -3t35.5 -3q7 0 21.5 2t21.5 2q23 0 63 -4q17 -3 22.5 -7t8.5 -20q1 -9 6 -34.5t7.5 -43.5t2.5 -36zM727 442l-2 4q-3 0 -9 1.5t-9 1.5h-80q-149 0 -160 -9l4 -6q8 -2 25 -2q15 0 56 -0.5t62.5 -0.5t54 2.5t58.5 8.5z M727 797l-2 4q-6 2 -18 2h-80q-150 0 -160 -8l4 -7q4 0 12.5 -1t12.5 -1q173 0 231 11zM272 719q-8 4 -14 4q-12 0 -22 -10l18 -6q10 0 18 12zM272 362q-7 7 -14 7q-6 0 -22 -11q9 -6 18 -6q8 0 18 10z" />
<glyph unicode="&#x3e;" horiz-adv-x="995" d="M893 555q0 -34 -19 -51q-20 -17 -60.5 -41.5t-57.5 -36.5q-10 -8 -34 -16t-30 -11q-68 -37 -108 -63l-92 -57q-4 -2 -16 -8.5t-19 -10.5l-64 -39q-26 -16 -75 -42t-60 -32q-10 -6 -34.5 -18t-28.5 -12q-7 0 -12.5 3.5t-8 7.5t-3.5 12t-1.5 13t0 14t0.5 11q0 41 -2 122 t-2 122q0 31 24 39q34 15 111 71q31 23 99 56t98 57q-3 12 -29 29q-43 25 -197 125q-78 46 -112 69q-33 23 -33 62v45q0 17 -2 49t-2 49q0 21 1.5 34t6.5 29.5t18 24.5t33 8q35 0 123 -51q54 -35 157 -96.5t142 -85.5q87 -56 158 -82q42 -19 104 -53q25 -15 25 -90 q0 -25 1 -77t1 -79zM522 877q0 1 -2 3t-2 3l-24 18q-8 6 -27 10q-15 5 -29 12t-32.5 19t-24.5 16q-3 3 -8 3q-6 0 -11 -5q21 -9 27 -18q0 -4 8 -8q16 -5 44 -23.5t46 -23.5q9 0 15 -6q7 -7 12 -7q3 0 5.5 2.5t2.5 4.5zM446 461l-4 2q-21 -9 -63.5 -32.5t-42.5 -31.5 q1 0 18 4.5t23 8.5q2 2 33 19.5t36 29.5zM756 567q-1 0 -4 1t-4 1q-19 0 -66 -41v-2q0 -3 6 -6q2 0 8 5.5t9 6.5q14 3 51 35zM649 721q0 6 -5 11t-11 5q-9 0 -15 -18q0 -3 1 -8t4 -10t8 -5q7 0 12.5 8.5t5.5 16.5zM250 193q0 4 -8 12q-7 0 -14 -4t-7 -11q0 -10 10 -10 q5 0 12 4.5t7 8.5zM233 1083v9q0 20 -16 20h-4q3 -25 20 -29z" />
<glyph unicode="?" d="M1083 969q0 -76 -59 -160q-108 -144 -313 -191q-20 -5 -34.5 -20.5t-14.5 -34.5q0 -8 1 -24.5t1 -24.5q0 -26 -10.5 -37.5t-35.5 -13.5q-17 -1 -48 -4.5t-56 -5.5t-47 -2q-14 0 -39 2t-37 2q-47 0 -63.5 29t-16.5 79q0 41 17.5 111.5t38.5 93.5q70 73 147 94 q66 17 113 41q18 11 41 17q36 11 60 37t24 61q0 48 -36 71t-87 23h-43q-20 0 -45 -14q-5 -3 -14 -7t-14.5 -7t-12.5 -8t-11 -11q-37 -47 -43 -102q-8 -48 -63 -48q-17 0 -49 2.5t-49 2.5q-13 0 -37 -2.5t-35 -2.5q-87 0 -109 48q0 1 -1 4t-1 4q0 16 2.5 34t8 44t6.5 34 q14 92 87.5 177t166.5 135q28 16 105.5 26.5t123.5 10.5q57 0 99.5 -9t107.5 -30q50 -17 72 -39q4 -6 18 -11q49 -25 98 -81q3 -4 16.5 -16.5t18.5 -20.5q23 -36 37 -118t14 -138zM651 152q0 -59 -44.5 -108.5t-102.5 -49.5h-35q-64 2 -115 49.5t-51 112.5q0 29 20 77t42 62 q62 41 120 41q49 0 92 -30.5t64 -76.5q10 -23 10 -77zM428 1247h-2l-4 2q-38 -14 -49 -22q-1 -1 -8.5 -7t-12.5 -8q-10 -5 -17 -13t-9.5 -14t-6.5 -19t-6 -19v-4q2 -2 9 -2q3 4 9 17t9 16q40 38 86 67q0 1 1 3t1 3zM631 657v2h-2q-3 -2 -13.5 -8.5t-14 -9t-12 -9t-12.5 -11 t-9 -11.5t-7.5 -15t-3.5 -17l6 -7q1 0 8 7q13 26 17 30q5 5 24 26.5t19 22.5zM760 852l4 6q-6 6 -12 6q-15 0 -54 -39v-2q2 -2 4 -2q6 0 58 31zM883 1227q-8 41 -41 41q-13 0 -25 -6q34 -12 66 -35zM563 190l-6 7q-3 -7 -11 -21.5t-12.5 -26.5t-5.5 -24l7 2q16 18 28 63z M176 979l12 29q-1 1 -2 3.5t-2.5 4.5t-3.5 2q-14 -4 -18 -35l6 -6q2 0 4.5 1t3.5 1zM416 96q0 3 -6 27l-11 4q-4 -8 -4 -16q0 -25 13 -25q8 0 8 10zM406 569q0 10 -3 19q-16 -12 -16 -27q0 -13 12 -22q7 17 7 30zM604 1331q0 3 -4 6.5t-8 3.5h-2q-5 0 -10 -4t-5 -8 q0 -5 5.5 -10.5t9.5 -5.5q14 3 14 18zM852 1030q0 19 -14 25q-4 -8 -4 -13q0 -22 8 -22q10 0 10 10z" />
<glyph unicode="@" horiz-adv-x="1871" d="M1749 700q0 -9 -3 -27t-3 -26q0 -26 -8 -47q-34 -129 -47 -149q-94 -135 -199 -199q-21 -12 -77.5 -22.5t-88.5 -10.5q-56 0 -133 25q-50 17 -98 45q-12 6 -15 6q-4 0 -14 -10q-93 -101 -236 -101q-8 0 -24.5 1t-24.5 1q-6 0 -17.5 -1t-17.5 -1q-20 0 -38 6 q-11 4 -36.5 12.5t-42 14.5t-36.5 17t-33 24q-32 30 -67.5 99t-43.5 114q-6 38 -6 76q0 144 72 270q51 91 74 117q13 13 48.5 41t49.5 47q5 6 11.5 12.5t12 10.5t15.5 9.5t14 7.5t16.5 8t14.5 7q4 1 17.5 4t19.5 6q19 10 50 12.5t40 4.5q18 6 41 6q31 0 79 -15.5t77 -33.5 q35 -23 82 -86q2 4 6 15t6 16t7 13.5t10 12.5t13 8t17 4q17 0 54 3.5t52 3.5q93 0 93 -54q0 -12 -11 -86q-5 -27 -29.5 -132t-36.5 -176.5t-12 -131.5q0 -31 31 -31q29 0 51 25q23 24 39.5 49.5t25.5 42.5t15.5 50t8.5 45.5t5.5 56t4.5 57.5q2 8 2 29q0 27 -19 129 q-14 67 -51.5 120.5t-99.5 114.5q-9 10 -19 16.5t-25 13.5t-22 11q-74 42 -174 68q-46 12 -96 12q-92 0 -190 -28t-179 -76q-56 -33 -117.5 -101t-91.5 -127q-40 -72 -47 -88q-12 -26 -23.5 -78.5t-11.5 -81.5q0 -22 -1 -65t-1 -64q0 -125 52 -221q94 -166 208 -233 q111 -64 261 -64q212 0 319 82q4 3 10 9.5t10.5 10.5t11 7.5t13.5 3.5q15 0 29 -14q11 -12 36 -75.5t25 -80.5q0 -16 -23 -38.5t-40 -29.5q-11 -5 -43.5 -20.5t-59.5 -27t-43 -15.5q-144 -35 -297 -35q-62 0 -190 31q-33 9 -102 37q-25 10 -58 32q-114 82 -182 161t-113 198 q-18 47 -37.5 125t-19.5 114q0 209 14 295q10 70 49 156q2 4 4.5 12.5t4.5 12.5q5 16 26 53q45 85 74.5 125.5t93.5 91.5q2 2 7 8t9.5 9.5t8.5 6.5q40 40 57 52q9 7 27 14q7 4 44.5 24.5t61.5 30.5t49 15q22 5 83.5 24t95.5 25q10 2 21.5 3t25.5 1.5t22 1.5q16 1 55.5 5.5 t61.5 4.5q11 0 47 -6t55 -6q5 0 14 2t13 2q18 0 147 -45q76 -23 109 -45q30 -15 35 -21q17 -17 55 -43.5t55 -42.5q9 -8 27 -26.5t27 -26.5q43 -38 69 -108l31 -89q9 -24 16 -50t10.5 -58.5t5.5 -52t4 -59t3 -52.5q0 -3 3 -30.5t3 -41.5zM1065 676q0 40 -33 82t-74 49 q-3 0 -21 4t-26 4q-13 0 -34.5 -13.5t-28.5 -15.5q-17 -4 -41 -24q-35 -29 -41 -43q-37 -79 -37 -158q0 -106 115 -106q6 0 46 9.5t50 12.5q39 11 82 83t43 116zM967 -109q-22 5 -83 6.5t-75 2.5q-10 1 -36.5 7t-41.5 5q-12 0 -24.5 2.5t-28.5 7t-23 6.5q3 -6 65 -25.5 t73 -19.5q4 0 11 2t11 2q13 0 37 -4q87 -6 88 -6q16 0 27 14zM1311 705q0 8 -8 20q-9 -23 -18 -88.5t-9 -93.5q0 -24 8 -74q4 6 4 20q0 9 10 91v38q1 9 5 26.5t6 32.5t2 28zM942 918l-2 2q-10 6 -37 6q-57 0 -108 -39q-4 -4 -4 -6q18 12 38 12q9 0 13 -2q45 16 92 22z M1636 1014l4 -2q-3 24 -21.5 77.5t-33.5 49.5q1 -26 17.5 -63t33.5 -62zM1094 1305l4 12q-58 16 -90 16q-7 0 -19 -4l-2 -4q2 -7 24 -11t50 -6t33 -3zM1208 285q-6 9 -23 25t-22 26q-2 4 -6.5 17t-9.5 18v-31q0 -23 15 -40t38 -17h4q2 2 4 2zM1642 698q0 15 -2 21h-4 q-10 0 -12 -10q-6 -60 -6 -64q0 -12 12 -24q1 8 4.5 23.5t5.5 28.5t2 25zM643 1368q-41 -4 -57 -16q-4 -3 -14 -9t-16 -9.5t-13 -10t-11 -12.5q53 15 111 57zM317 928l-18 6q-23 -51 -29 -82l4 -2q20 35 43 78zM381 141l10 6q-3 11 -14 26.5t-21 21.5q-10 -2 -18 8t-10 10 q3 -22 53 -72zM565 811q0 1 -1 3.5t-1 4.5q-31 -21 -31 -51q0 -9 3 -18q6 3 18 28.5t12 32.5zM887 293q-29 18 -80 26q22 -28 65 -28q11 0 15 2zM1352 938q0 14 -6 23q-19 -11 -19 -29q0 -12 6 -21q19 6 19 27zM621 510q0 5 -4.5 9.5t-8.5 4.5q-10 0 -10 -12q0 -8 8 -16 q15 0 15 14zM188 438q0 7 -7.5 11t-14.5 4q-1 0 -2 -1.5l-2 -3t-2 -2.5q2 -5 8 -11.5t12 -6.5q2 0 5 3.5t3 6.5zM1331 1327q-2 2 -5 4.5t-5 4t-5 4t-5.5 3.5t-6 2t-6.5 1h-6v-3q0 -8 11 -13t20 -5q6 0 8 2zM1516 383h-13q-2 0 -5.5 -1t-4.5 -1l-8 -10q6 -6 12 -9q19 3 19 21 zM1264 10v6q-1 0 -5 1t-6 1q-8 0 -8 -12v-4q0 -6 2 -8q17 4 17 16zM373 1108l-2 6h-2l-4 -2q-2 -2 -17 -22q2 0 4.5 -1.5t3.5 -1.5q13 0 17 21z" />
<glyph unicode="A" horiz-adv-x="1202" d="M1141 37q0 -20 -18 -32.5t-40 -12.5q-11 0 -23 1t-26.5 2.5t-23.5 2.5h-127q-5 0 -16 -1t-17 -1q-13 0 -45 4q-19 3 -25 23l-2 6q-22 68 -24 84q-1 9 -7.5 27.5t-7.5 27.5q-1 17 -4 19.5t-20 2.5q-11 0 -33 1.5t-33 1.5q-95 0 -190 -3h-8q-14 0 -18 -2.5t-7 -15.5 q-10 -29 -23 -117q-6 -28 -19 -40t-40 -13h-16q-18 0 -53 1t-52 1t-50 -2t-50 -2q-62 0 -62 39q0 10 13 52t14 48q7 24 19 80.5t22 85.5q2 8 8.5 24.5t10 30t4.5 27.5q0 3 3 9t3 7q11 22 22 68q25 100 121 393q4 11 8 37q14 69 60 215q11 34 36 119.5t41 132.5q10 23 25 41 q7 8 16.5 13t22.5 7t22 3t25 1.5t21 0.5v4q8 -1 29.5 -2.5t31 -2.5t26.5 -5.5t26.5 -11.5t19.5 -19.5t16 -30.5q91 -272 113 -354q2 -7 2.5 -21t1.5 -18q1 -9 5 -20.5t9.5 -24.5t7.5 -19q24 -73 29 -94q3 -10 12.5 -38.5t12.5 -45.5q5 -19 13 -55t13 -55l43 -140 q33 -106 78 -239q8 -21 23 -58.5t26.5 -68.5t20.5 -58q4 -12 4 -20zM573 449h111q-4 20 -20.5 53t-20.5 49q-5 18 -30 85.5t-29 72.5q-15 -43 -82 -258q12 -2 71 -2zM475 866q0 13 -4 17q-2 -1 -10 -17l-4 -16q-3 -18 -22 -83t-19 -77q0 -8 2 -10q18 31 37.5 92.5t19.5 93.5 zM713 301q-6 6 -23 6q-9 0 -27.5 -1t-27.5 -1h-29q-12 0 -37 1t-37 1q-20 0 -30 -6q47 -12 121 -12q76 0 90 12zM932 444q0 22 -35 127l-16 -4l41 -149l8 2q0 4 1 12t1 12zM543 1298q0 9 -21 25q-6 -11 -9 -23t-4.5 -30.5t-2.5 -24.5h10l10 15t12.5 21.5t4.5 16.5zM729 967 q0 37 -18 67q-17 -17 -17 -22q0 -10 33 -68q2 8 2 23zM295 410v12q-2 -2 -7.5 -4t-6.5 -4q-4 -4 -7.5 -16t-7 -27.5t-4.5 -18.5h21q1 3 4 17t5.5 25.5t2.5 15.5zM1034 98q0 8 -5 16.5t-13 8.5t-8 -6q0 -31 14 -45q12 9 12 26zM182 90q0 4 -4.5 8t-7.5 4q-8 0 -31 -30 q2 -2 8 -2q11 0 23 6t12 14z" />
<glyph unicode="B" horiz-adv-x="1257" d="M1155 477q0 -93 -27 -188q-14 -56 -73 -127q-11 -16 -39.5 -41t-32.5 -31q-11 -13 -23.5 -23t-20.5 -14.5t-26 -13t-26 -12.5q-11 -5 -24.5 -15t-25.5 -15t-30 -5q-28 0 -82.5 -3t-81.5 -3q-13 0 -41 1t-41 1q-159 -6 -162 -6q-29 0 -67 10q-13 3 -61.5 3.5t-80.5 11 t-38 40.5q-5 15 -5 39q0 14 2.5 44t2.5 44v113q0 13 2 38t2 37q0 7 -1 22t-1 22q0 30 1 91t1 91q0 10 -2 30t-2 29q0 7 2 20.5t2 20.5q0 18 -3 55t-3 56q0 10 3 30.5t3 30.5t-5.5 29.5t-5.5 28.5t5.5 26.5t5.5 26.5q0 8 -2.5 23.5t-3.5 19.5q0 10 -3.5 54.5t-3.5 68.5v190 q0 51 25 70.5t78 19.5q6 0 18.5 -1t18.5 -1q7 0 20.5 4t20.5 4h43q33 0 97 7.5t97 7.5q34 0 99 -8.5t90 -10.5q80 -7 135 -30q72 -48 86 -62q10 -10 29.5 -32.5t29.5 -32.5q15 -15 41 -74q43 -97 43 -150q0 -22 -6.5 -60t-7.5 -46q-13 -84 -64 -135q-12 -12 -12 -23 q0 -10 12 -22q3 -4 6.5 -7.5t8 -7.5t6.5 -6q47 -72 72.5 -131t25.5 -123zM836 430q0 41 -1 58.5t-11.5 46.5t-32.5 51q-11 13 -97 35q-58 12 -94 12q-18 0 -111 -10q-6 0 -9 -0.5t-5 -4t-2.5 -6t-1.5 -10.5v-119q0 -89 6 -178q1 -16 7.5 -20t23.5 -4q187 0 233 20 q46 21 82 80q13 23 13 49zM778 1016q0 19 -8 51l-8 10q-27 25 -47.5 34t-55.5 9q-125 0 -161 -8q-12 -6 -13 -10q-4 -9 -6.5 -24t-3 -34t-1 -33.5t0 -35.5t0.5 -27v-18q0 -14 5 -20t20 -7q44 -8 98 -8q38 0 65.5 4t56 15.5t43.5 37t15 64.5zM664 70q-5 5 -12 6.5t-19.5 0.5 t-14.5 -1q-5 0 -14 2t-14 2q-6 0 -18.5 -1t-18.5 -1q-13 0 -40 2t-40 2q-9 0 -26 -5.5t-23 -10.5q23 -9 37 -9h2q59 6 110 6q4 0 12.5 1.5t12.5 1.5q7 0 21 -1.5t20 -1.5q11 0 25 7zM262 608q0 22 -4 68q0 20 -4 20q-6 0 -6 -20q0 -17 -2 -49t-2 -47q0 -81 8 -99 q10 23 10 127zM909 492q0 14 -14 14h-4v-131q1 1 5.5 6t4.5 8q8 41 8 103zM336 1010q0 50 -14 88q-3 -18 -3 -37q0 -82 9 -109q8 24 8 58zM786 1362q0 8 -14 8q-19 0 -41 -8t-22 -23v-2q13 1 35 7.5t28 7.5q13 6 14 10zM1047 936q0 2 -3 8l-8 4q-1 -13 -6.5 -26.5t-8.5 -19 t-16 -22t-14 -18.5l8 -4q21 11 34.5 32.5t13.5 45.5zM252 1303q0 26 -12 26q-13 0 -13 -65q0 -1 4 -5t5 -6q16 22 16 50zM985 625q-21 41 -31 41q-12 0 -12 -13q0 -9 11 -24t20 -15q7 0 12 11zM965 205q0 22 -15 22q-8 0 -12 -12.5t-4 -21.5q0 -13 10 -13q8 0 14.5 8.5 t6.5 16.5zM647 768q0 6 -4 14q-11 0 -16.5 -10.5t-5.5 -23.5q0 -10 10 -17q16 27 16 37zM946 1110q0 16 -10 29q-12 -6 -12 -17q0 -35 20 -37q0 4 1 12.5t1 12.5zM639 1184v4q-12 6 -27 6q-27 0 -37 -4l-4 -4l7 -2h61zM373 283l-2 6q-1 0 -2 1t-2 1q-6 0 -13.5 -8.5 t-7.5 -14.5l2 -4l8 -4q5 0 11 9t6 14z" />
<glyph unicode="C" horiz-adv-x="1292" d="M1210 1178q0 -17 -6.5 -81.5t-9.5 -78.5q-8 -25 -29 -25q-10 0 -40 20.5t-66 48t-43 32.5q-17 10 -83.5 25.5t-90.5 15.5q-26 0 -68 -11q-58 -14 -72 -20q-102 -39 -196 -186q-30 -48 -33 -130q0 -16 -4 -48t-4 -48q0 -63 37 -168q2 -6 10 -15t10 -13q6 -8 15.5 -29 t15.5 -29q42 -49 74 -61q23 -11 68.5 -27.5t54.5 -19.5q61 -23 114 -23q42 0 96.5 13.5t90.5 33.5q9 6 31 24t41 30t34 12q4 0 12.5 -1t12.5 -1q6 -1 11 -6t7.5 -14t4.5 -17t2.5 -20.5t0.5 -19.5v-18.5v-13.5q0 -135 -10 -203q-3 -37 -41 -55q-54 -29 -110.5 -42t-87 -14 t-117.5 -1q-7 0 -28 -0.5t-31.5 0t-27 1.5t-31 3.5t-28.5 7.5q-16 5 -46 12.5t-46 12.5q-36 10 -113.5 56.5t-107.5 74.5l-49 47q-14 14 -17 20q-21 32 -65 88q-85 120 -107 250q-22 121 -22 133q0 6 2 19.5t2 19.5q0 50 10 115q2 14 6.5 28.5t12 32.5t10.5 27 q29 88 85.5 171t127.5 144q16 14 47 37t45 35q16 14 38.5 24.5t51.5 20.5t43 17q39 19 95 33t98 14q8 0 24 -1t23 -1q12 0 33.5 1t31.5 1q2 0 95 -6q13 -1 36 -9t29 -10q47 -9 107 -65q26 -21 26 -66q0 -18 4 -53t4 -51zM350 737q0 42 -8 74q-4 2 -6 4q-7 -5 -10.5 -34 t-3.5 -46q0 -12 3 -27t8 -34.5t7 -26.5q6 12 6 21q0 4 -1 12.5t-1 13.5q0 7 3 21t3 22zM961 1286l-3 4q-6 1 -43.5 11t-54.5 10t-37 -17l2 -4q3 0 59 -5t60 -5q11 0 17 6zM731 201q-2 5 -31 28q-3 -8 -8 -12t-12.5 -7t-11.5 -7q19 -15 37 -15t26 13zM356 1057q0 4 -5.5 9 t-8.5 5q-5 0 -11 -4.5t-9.5 -9t-9.5 -12.5t-7 -9q8 -4 14 -4q11 0 24 7.5t13 17.5zM1055 131q0 8 -15 8q-24 0 -32 -37h4q12 0 27.5 9t15.5 20zM403 328h5q0 3 -19.5 34.5t-21.5 38.5l-5 2q-1 0 -3.5 -5t-2.5 -7q0 -23 47 -63zM623 1262q0 12 -21 12q-6 0 -12 -2.5 t-13.5 -7.5t-11.5 -7q11 -8 23 -8l33 4zM1139 1145q0 6 -6 16t-11 10q-3 0 -7.5 -4.5t-4.5 -7.5q0 -7 4.5 -20t9.5 -13q6 0 10.5 6.5t4.5 12.5z" />
<glyph unicode="D" horiz-adv-x="1353" d="M1231 770q0 -169 -81 -334.5t-214 -271.5q-44 -35 -195.5 -95.5t-208.5 -66.5q-40 -4 -108 -8v2q-19 0 -58 2t-59 2q-5 0 -15.5 -2t-15.5 -2q-10 0 -26 4q-7 2 -27 7t-28.5 8.5t-18.5 15t-12 28.5q-4 30 -6 68.5t-2.5 61.5t0 73t0.5 64q0 10 -2 30.5t-2 30.5q0 13 4 40 t4 40q0 28 -2 84.5t-2 83.5q0 20 2 60t2 61q0 20 -2 59t-2 59t-2 61t-2 62q0 10 2 31t2 31q0 63 -6 84q-7 21 -7 35q0 12 6.5 33.5t6.5 31.5q0 19 -5.5 55.5t-5.5 53.5q0 22 6.5 36.5t14.5 22.5t25 11.5t26.5 4t33 -0.5t30.5 -1q102 0 141 7q28 4 45 4q18 0 39.5 -3 t32.5 -5.5t41 -10l34 -8.5q48 -7 78 -16q107 -31 191 -82q3 -2 19.5 -14.5t25.5 -18.5q139 -84 221 -217.5t82 -290.5zM887 766q0 14 -7 44.5t-8 33.5q-19 85 -122 160q-7 5 -26 19t-33 23t-29 15l-48 20q-76 39 -127 39q-12 0 -12 -22q0 -38 2 -115.5t2 -116.5 q0 -40 -3 -118.5t-3 -118.5q0 -41 4 -119q0 -18 4.5 -51.5t5.5 -48.5q2 -20 9.5 -27.5t29.5 -7.5q3 0 45 6q5 1 18.5 2t19.5 2t17.5 2.5t19 4t17 6t17.5 8.5q5 3 19.5 12t23 14.5t19.5 14t18 16.5q6 5 15.5 17.5t15.5 17.5q27 25 53 86q16 36 29.5 91.5t13.5 90.5zM322 813 q0 159 -5 166q-5 -8 -7.5 -23.5t-6.5 -19.5q-6 -8 -6 -35q0 -17 1 -48t1 -48q0 -16 -3 -48t-3 -50q0 -7 8 -23q6 15 6 29v14l2 6q5 6 6 13t-0.5 17.5t-1.5 14.5q0 6 4.5 17t4.5 18zM629 199q-11 -5 -44 -13t-60.5 -15.5t-30.5 -14.5q0 -4 5.5 -8.5t10.5 -4.5q19 0 66 21 t53 35zM803 1030l94 -90q0 14 -2 16q-8 11 -40.5 46.5t-37.5 35.5q-6 0 -14 -8zM1133 600q0 12 -15 12l-41 -123q15 7 15 11q5 8 23 52t18 48zM248 193q0 23 -4 63q0 1 -11 12l-6 -4q2 -8 2 -53v-12q0 -25 9 -43l6 4q4 20 4 33zM1122 862v8q0 1 -6 31l-4 4q-23 -8 -27 -47 q1 0 2.5 -2t2.5 -2q9 7 14.5 8.5t17.5 -0.5zM717 1233q0 15 -21 31q-6 -9 -6 -19q0 -9 6 -15.5t15 -6.5l4 2q2 2 2 8zM887 373h-17q-14 0 -14 -15q0 -5 4 -9.5t10 -4.5q2 0 17 29zM313 1272h29l-6 26l-6 2z" />
<glyph unicode="E" horiz-adv-x="1228" d="M1126 117q0 -82 -49 -101q-9 -3 -24 -8.5t-19 -6.5t-13 -3.5t-16 -2.5t-17 -0.5t-27 -0.5q-59 0 -178.5 6t-180.5 6q-14 0 -43 -2t-45 -2q-20 0 -59 3t-58 3q-11 0 -33.5 -4t-35.5 -4h-92q-30 0 -47.5 17.5t-21.5 38t-7.5 42t-7.5 25.5v8q0 56 2 167.5t2 166.5 q0 13 -1 40t-1 40q0 23 4 66.5t4 64.5q0 18 -5 55t-5 57q0 16 2 48t2 49q0 25 -3 75t-3 74q0 16 2 48t2 48q0 12 -5.5 36t-5.5 38q0 22 1 68.5t1 70.5q0 33 25.5 62t58.5 29q15 0 42 -4.5t40 -4.5q10 0 29.5 2.5t28.5 2.5q17 0 48 5t46 5q13 0 37 1t37 1q8 0 24.5 -1 t24.5 -1q24 0 73 4t74 4q8 0 24.5 -2t24.5 -2q12 0 33 -2t31 -2q86 -4 125 -4q14 0 40 1t38 1q24 0 42.5 -17.5t18.5 -40.5q0 -133 -2 -196q-5 -58 -43 -58q-8 0 -25.5 2t-25.5 2q-11 0 -34 -2t-36 -2q-18 0 -52 1t-52 1q-123 0 -369 -8v-49q0 -7 -0.5 -22t-0.5 -22 t1.5 -19.5t4 -18.5t7.5 -14t12.5 -11.5t19 -6.5t26.5 -3q17 0 49 5.5t49 5.5q11 0 33 -2t33 -2q13 0 39.5 1t41.5 1q9 0 29.5 -1t30.5 -1q6 0 20 1t21 1q15 0 46 -1t46 -1q18 0 31 -13l14 -6q26 -10 29 -41q12 -66 12 -96q0 -12 -1 -35.5t-1 -34.5q0 -38 -10.5 -55 t-46.5 -21q-16 -1 -47 -4.5t-56.5 -5.5t-48.5 -2q-26 0 -77 3t-77 3q-145 0 -202 -10q-17 -2 -17 -33q-10 -117 -10 -211v-75q3 -15 16 -15q45 -4 136 -4q15 0 43 1t43 1q17 0 48 -1t48 -1q5 0 20 1.5t23 0.5q133 0 199 -4q5 0 16.5 -1t17.5 -1q22 0 32.5 -21.5t10.5 -46.5 q0 -13 -2 -38t-2 -37q0 -6 3 -20t3 -21zM782 743q-9 14 -16 15q-16 2 -35 2t-43 -1t-35 -1q-29 0 -92 -15l2 -2l8 -4v-2l2 2q10 -1 50 -4.5t61 -3.5q71 0 98 14zM690 152q0 3 -5 5t-14 3t-16 1t-16 -0.5t-10 -0.5q-6 0 -17.5 1t-17.5 1q-25 0 -55 -15v-2q86 -4 127 -4 q24 0 24 11zM674 1309l-6 2q-2 0 -119 6h-6q-23 0 -31 -14q4 0 24 -3.5t31 -3.5q66 0 99 4q5 2 8 9zM270 770v39q0 38 -10 45l-4 -6q2 -14 2 -58t8 -67q4 9 4 47zM1030 129q-12 4 -18 4q-20 0 -35 -27q16 -8 27 -8q22 0 26 31zM283 1317q0 6 -5.5 10t-11.5 4 q-7 0 -11.5 -5.5t-4.5 -12.5q0 -6 5 -12.5t11 -6.5q5 0 11 9t6 14zM328 375q-4 2 -17 2q-20 0 -20 -17q0 -2 10 -12q3 1 7 3t5.5 2.5t4 2t3.5 3t2.5 4t2.5 5.5t2 7zM979 852q-2 0 -7.5 1t-8.5 1q-7 0 -14 -4.5t-7 -11.5q0 -3 10 -13q9 3 11.5 4t6.5 4t5.5 7t3.5 12z M1059 1245l-8 6q-5 0 -14 -7t-9 -13l2 -6q2 -2 4 -2q6 0 15.5 8t9.5 14z" />
<glyph unicode="F" d="M1081 1364q0 -92 -12 -180q-3 -23 -27 -29q-38 -10 -67 -10q-8 0 -24.5 2t-24.5 2q-14 0 -43 -4t-43 -4q-18 0 -54 -2t-53 -2q-9 0 -27.5 2t-27.5 2q-8 0 -23.5 -2t-23.5 -2q-13 0 -36 1t-36 1q-47 0 -70 -2q-16 -3 -16 -19q0 -60 6 -119q0 -12 13 -12h36q18 0 53 3t52 3 q16 0 46.5 -3t45.5 -3q20 0 61.5 2t63.5 2q12 0 37 -2t37 -2q10 0 30 3t29 3q30 0 44.5 -31t14.5 -65q0 -95 -10 -190q0 -17 -14 -23q-39 -16 -78 -16q-15 0 -47 1t-49 1q-26 0 -77 -3t-77 -3q-113 0 -184 -7q-16 0 -19 -16v-96q0 -33 5 -203v-106q6 -117 6 -119 q0 -24 -4 -78q0 -27 -27 -33q-54 -12 -197 -12q-58 0 -90 14q-16 7 -20 35q-8 62 -8 92q0 15 1 46t1 46q0 63 -4 181q0 13 -1.5 72t-3.5 91q-2 10 -2 33q0 22 3.5 66t3.5 67q0 29 1 85t1 83q0 21 -1 63t-1 62q0 5 1 16.5t1 16.5q0 10 -1 29.5t-1 29.5q0 26 4 80t4 80 q0 14 -2 40t-2 40q0 24 10 51q6 17 37 21q114 4 168 4q10 0 28 -2t27 -2q38 0 113 2t112 2q262 0 393 -4q7 0 12.5 -1.5t9.5 -4.5t7 -5t5 -8t3 -8.5t1.5 -10.5t0.5 -10v-11.5v-10.5zM299 299q0 90 -10 129l-8 12q-5 -20 -5 -22q0 -138 9 -195h6q8 13 8 76zM303 1225 q0 40 -14 45q0 -47 -2 -72q0 -8 -4 -20v-131q0 -64 8 -72q6 57 6 176q0 13 3 37t3 37zM733 872q-4 11 -37 11q-10 0 -28 -4.5t-27 -4.5q-51 0 -76 -2q-14 0 -22 -8q11 -8 28 -8q46 0 82 8q13 4 40.5 4.5t39.5 3.5zM664 1305q-21 8 -68 8q-52 0 -72 -10q22 -11 66 -11 q51 0 74 13zM975 1231h-6q-37 4 -49 -23l36 -6q19 0 19 29zM354 717q0 22 -16 35q-6 -14 -6 -39q0 -21 6 -29q16 13 16 33zM883 795l-2 8q-8 4 -15 4q-6 0 -14 -4.5t-8 -9.5q0 -8 20 -13q12 8 19 15zM414 86q0 14 -13 23q-10 -20 -10 -25q0 -1 1 -4t1 -4l17 -4q4 8 4 14z " />
<glyph unicode="G" horiz-adv-x="1398" d="M1255 430q0 -5 -1 -17t-1 -18q0 -35 1 -105.5t1 -105.5q0 -44 -10 -69q-6 -12 -33 -39q-46 -50 -113.5 -66t-156.5 -16q-183 0 -289 39q-57 22 -90 26q-16 2 -54.5 26t-86.5 58.5t-57 40.5q-32 20 -78 74q-36 41 -54 72q-8 13 -22 47.5t-25 50.5q-42 70 -47 137 q-1 7 -6.5 24t-5.5 25q0 16 -2 48t-2 49q0 15 5.5 36.5t6.5 28.5q4 22 6.5 46t4 36t8.5 32.5t20 47.5q44 98 74 152q14 27 48 66.5t60 62.5q35 31 70 51l12 6q33 29 94 55q15 6 46 21t56 25t48 14q6 2 17 3t16 3q49 12 130 20t136 8q87 0 211 -65q14 -8 14 -27l8 -127h-4 q4 -70 4 -106q0 -42 -2 -62q-2 -10 -6 -14t-14 -6q-4 -2 -14 -2q-18 0 -35 10q-60 32 -99 41l-16 6q-10 6 -22 10t-20.5 6.5t-24.5 3.5t-22 1h-25.5h-22.5q-90 0 -183 -41.5t-159 -120t-66 -170.5q0 -48 15 -129q11 -57 55 -117.5t94 -79.5q23 -10 115 -43q46 -16 90 -16 q6 0 19.5 1t19.5 1h18.5t11 1.5t7.5 2.5t2.5 6t1 9.5t-1.5 16v21.5q0 11 0.5 25.5t1 20.5t-1 15t-5 12t-10.5 7t-18 5t-27 1q-8 0 -25 -1t-26 -1q-26 0 -47 6q-21 5 -31 39t-10 64q0 90 14 164q4 22 17.5 29t38.5 7q10 0 29.5 -1t29.5 -1q4 0 12.5 1t12.5 1q10 0 29.5 -3 t29.5 -3q9 0 27 3t26 3h84q6 0 30.5 1t37.5 0.5t31.5 -4t30 -13t16.5 -25.5q12 -32 12 -53q0 -15 4 -47q12 -160 12 -258zM319 379q-2 19 -22.5 55.5t-24.5 52.5q-7 24 -20 82q0 1 -1 6.5t-2 9.5t-2.5 9t-4.5 7.5t-6 2.5q-5 -15 -5 -20q0 -42 35 -140q11 -26 22 -41.5 t31 -23.5zM825 1296v2q-12 7 -61 7q-12 0 -33 -3.5t-33 -3.5q-14 -1 -30 -7.5t-22.5 -10.5t-27 -19t-22.5 -16q4 -4 8 -4q10 0 76 33q29 16 102 16q2 0 10 -0.5t12.5 -0.5t11 2t9.5 5zM1147 287q0 108 -10 131q-7 -7 -7 -17v-77q0 -32 9 -66h4q4 20 4 29zM1085 684 q-33 10 -106 10q-9 0 -29 -4q40 -16 72 -16q33 0 63 10zM1073 1221q0 28 -18 28q-8 0 -14.5 -5.5t-6.5 -12.5q0 -10 7.5 -19.5t17.5 -9.5q14 0 14 19zM616 199h50l-11 47l-8 2zM424 918q0 14 -10 14q-9 0 -20 -12t-11 -21q0 -10 10 -10q8 0 19.5 11t11.5 18zM831 754 q0 6 -4 14q-11 0 -16.5 -11t-5.5 -24q0 -9 10 -16q16 32 16 37zM1137 106q0 6 -7 9l-38 -23q12 -4 20 -4q9 0 17 5t8 13z" />
<glyph unicode="H" horiz-adv-x="1486" d="M1343 842q0 -15 -3 -42t-3 -40q0 -7 1 -21.5t1 -21.5q0 -5 -1 -15.5t-1 -15.5q0 -9 1 -27.5t1 -27.5q0 -26 1 -76t1 -74q0 -10 -3 -30.5t-3 -30.5q0 -9 2 -27.5t2 -27.5v-121q0 -9 -1 -26t-1 -31t2 -25q2 -10 2 -29q0 -13 -2 -40t-2 -40q0 -18 -4.5 -25.5t-19.5 -13.5 q-27 -10 -115 -10q-14 0 -40 1t-40 1h-88q-16 1 -22 7t-9 22q-6 34 -6 65q0 14 1 39t1 39q0 30 -2 88t-2 88q0 32 1 95t1 94q0 59 -2 71q-4 17 -16 17q-6 0 -19.5 -1t-19.5 -1q-11 0 -34.5 1t-35.5 1q-10 0 -30.5 -2t-30.5 -2q-29 0 -86 3t-86 3q-19 0 -55 -1t-54 -1 q-22 -3 -24 -23q-1 -13 -1 -41t-1 -43q0 -14 -1 -43t-1 -45q0 -13 4 -36t4 -35q0 -11 -3 -34t-3 -36q0 -25 1.5 -80.5t1 -98.5t-4.5 -81q-1 -16 -7.5 -22t-23.5 -11q-27 -8 -82 -8q-52 0 -150 4q-45 3 -59 49q-1 6 -5 21t-6.5 27.5t-2.5 21.5q0 17 2 48t2 48q0 30 -4 84 q-4 98 -4 145q0 12 5 32t5 32q0 10 -3 30.5t-3 30.5q-1 19 -1 58t-1 57q0 7 -1 22.5t-1 22.5q0 6 2 19.5t2 19.5q0 53 -4.5 152t-5.5 137q0 12 0.5 35t0.5 42t-1 35q0 4 -2.5 13t-2.5 14q0 17 -1 53.5t-1 55.5q0 12 3 33t4 26q1 20 15.5 34t30 20.5t44 10t40.5 3.5h37 q79 0 129 -11q35 -6 41 -43q13 -60 15 -82q1 -18 0 -56t0 -58q0 -26 5.5 -76t6.5 -72q0 -6 2 -18.5t2 -18.5q0 -8 -2 -12q-1 -7 3.5 -12.5t15 -8.5t21.5 -5t26 -2.5t24.5 -1t22.5 0t14 0.5q17 0 46.5 4t41.5 5q33 3 99 3t100 3q33 0 33 22q2 39 2 115q0 26 -3.5 80t-3.5 82 q0 48 7 116q3 19 20 31t37 12q14 0 39 -4t37 -4q14 0 42 1t42 1q9 0 28.5 -2t28.5 -2q6 0 17.5 2t17.5 2q59 0 59 -71q0 -10 -1 -32t-1 -32q0 -38 2 -112.5t2 -112.5q0 -8 -2 -25.5t-2 -25.5q0 -27 6 -83.5t6 -84.5zM1247 1085q0 23 -8 31q-10 -8 -10 -22q-1 -6 -3.5 -23 t-4.5 -30.5t-2 -16.5q0 -26 4 -84t8 -74q10 5 10 19v33q0 8 2 24.5t2 24.5q0 21 1 60t1 58zM303 575v43q0 72 -10 89l-4 -2q-10 -67 -10 -80v-148q0 -10 6 -16q0 16 4 24q14 20 14 90zM1141 346q0 53 -21 156l-2 -2q0 -18 -1 -55t-1 -56v-31q0 -108 12 -118q7 4 7 14v31 q0 10 3 30.5t3 30.5zM829 805q-28 8 -45 8q-19 0 -81 -3.5t-66 -6.5l-2 -2q5 -1 24.5 -9t34.5 -8q16 0 45 6.5t43 6.5q3 0 12 -0.5t13.5 0t11 2.5t10.5 6zM428 989q0 17 -4 49q-23 -38 -23 -84v-12q8 -4 13 -4q14 0 14 51zM1124 1231q0 14 -24 24q-8 -8 -8 -20 q0 -8 4.5 -19.5t11.5 -11.5q6 0 11 10t5 17zM289 1298q0 37 -17 37h-6v-28q0 -21 8 -37q15 15 15 28zM1274 63q0 13 -12 25q-17 -21 -17 -35q0 -12 8 -20q21 17 21 30zM1227 713q0 14 -21 14h-22q1 -10 2.5 -15t6.5 -9.5t13 -4.5q21 0 21 15zM322 154q0 18 -9 18 q-5 0 -8.5 -2t-5 -6t-2.5 -7t-1.5 -8.5t-0.5 -7.5q2 -2 8 -2h2q17 0 17 15z" />
<glyph unicode="I" horiz-adv-x="645" d="M502 266q0 -20 -6.5 -61.5t-6.5 -63.5q0 -8 3.5 -25t3.5 -26q0 -39 -12.5 -61.5t-47.5 -26.5q-58 -8 -86 -8q-97 0 -157 18q-34 8 -37 47q-2 20 -2 66q0 20 2 61.5t2 63.5q0 20 -1 60t-1 61q0 5 1 15t1 15q0 25 -2 77t-2 77v68q0 15 -1 47t-1 49q0 48 1 144t1 143 q0 30 -2 88t-2 86l2 39q0 19 -4.5 55t-4.5 55q0 31 2 45q1 19 25 33t45 14h170q22 0 32 -2.5t25 -10.5t27 -13q20 -7 20 -37q3 -20 3 -80q0 -13 1 -41t1 -43q0 -26 -1 -80t-1 -80v-143q1 -23 4.5 -92.5t3.5 -108.5q0 -12 -11 -119v-6q-1 -11 5 -30t6 -27q0 -20 -4 -62.5 t-4 -62.5q0 -19 5 -58t5 -59zM362 846q0 9 -3 18.5t-8.5 21t-6.5 15.5h-2q-4 -20 -4 -29q0 -7 1 -20.5t1 -20.5q0 -21 -3 -60t-3 -58v-17.5v-21.5t1 -20.5t3.5 -21.5t7 -16.5t10.5 -13.5v19q0 19 2 58t2 60q0 10 -1 32t-1 34q0 7 2 20.5t2 20.5zM285 1294q0 25 -15 25 q-24 0 -24 -27q0 -30 8 -30q13 0 22 10t9 22zM391 100q0 40 -18 58q-11 -39 -11 -43q0 -10 5 -19.5t14 -9.5q3 0 6.5 5t3.5 9z" />
<glyph unicode="J" horiz-adv-x="1087" d="M965 760q0 -12 -4.5 -36t-4.5 -36l-2 -129q0 -10 2 -30t2 -29q0 -17 -6 -49.5t-6 -47.5q0 -6 0.5 -18t0 -18t-1 -15.5t-3 -17.5t-6.5 -17l-4 -12q-13 -66 -51 -104q-10 -10 -11 -13q-8 -23 -23.5 -43.5t-25 -30t-37.5 -34.5q-6 -6 -13 -11.5t-16.5 -11t-14 -8.5t-17.5 -8 t-15 -6t-18 -7l-16 -5q-63 -19 -78 -19q-90 0 -133 2q-31 3 -86 21.5t-90 35.5q-18 8 -48 29t-36 25q-40 26 -51 41q-44 47 -52 86q0 1 -9 17t-9 30q0 22 20 39q23 20 91 63t86 43q49 0 79 -35q49 -58 119 -82q1 0 4.5 -1t5.5 -1q3 0 35 13q64 21 78 139q8 78 8 119 q0 26 -3 78t-3 77q0 34 1 100.5t1 100.5q0 20 -3 61.5t-3 63.5q0 44 3 133t3 133v31q13 57 90 57q3 0 10.5 -1t10.5 -1q21 0 61 1t60 1q87 0 96 -49q0 -2 7 -26t7 -33q0 -46 1 -137t1 -136q0 -7 -1 -21.5t-1 -21.5q0 -17 5 -52t5 -54q0 -8 -2 -25t-2 -26q0 -15 6.5 -42 t6.5 -40zM815 950q0 17 -8 33q-10 -55 -10 -96v-23q0 -85 10 -90q6 6 6 25q0 26 1 76t1 75zM563 100l6 9q-4 8 -8 8q-12 0 -34.5 -4t-32.5 -4q-6 0 -17 4t-18 4h-31q-1 0 -5.5 -3t-6.5 -3q11 -8 34 -16.5t35 -8.5q9 0 13 2q11 6 35 8t30 4zM813 346q0 18 -8 31 q-10 -10 -20.5 -44.5t-10.5 -49.5v-7q19 6 29 27t10 43zM817 1270q0 22 -16 22q-6 0 -9.5 -4t-5 -11t-2.5 -13t-1.5 -14t-0.5 -11q14 0 24.5 9t10.5 22zM203 252l6 2l-2 12q0 6 -3.5 9t-7 4t-11 1.5t-9.5 0.5q5 -8 14.5 -16.5t12.5 -12.5z" />
<glyph unicode="K" horiz-adv-x="1296" d="M1194 1403q0 -10 -6 -23t-12.5 -22t-17 -22.5t-13.5 -18.5q-96 -137 -160 -234q-18 -25 -45.5 -75.5t-38.5 -67.5l-55 -82q6 -18 18 -56t22 -66.5t21 -53.5q56 -126 150 -363.5t94 -289.5q0 -29 -80 -29q-8 0 -25.5 1t-25.5 1q-20 0 -58 -1t-57 -1q-9 0 -26.5 1t-26.5 1 q-13 -1 -21 0.5t-14 8.5t-8 10t-7 16.5t-7 17.5l-74 187q-17 44 -55 131t-56 131q-4 -6 -49 -77.5t-69 -107.5q0 -43 -1.5 -129t-1.5 -129q0 -4 1.5 -12t1.5 -12q0 -22 -15 -28.5t-41 -6.5q-5 0 -15 -2t-15 -2q-35 -2 -109 -2q-39 0 -80 6q-40 6 -50 16t-13 50q-4 49 -4 147 q0 13 2 37t2 37q0 73 -2 221t-2 221l1 99q1 98 -1 98q0 26 -3.5 80t-3.5 82q0 16 2 48t2 48q0 8 -2 24t-2 23q0 20 1 57.5t1 55.5q1 56 12 66t64 13q82 7 146 7q5 0 16 -1t16 -1h17q38 -3 54.5 -15t16.5 -49t-2 -110.5t-2 -110.5q0 -51 9 -209q39 55 106 159.5t98 149.5 l31 47q37 47 59 92q19 40 64 46q12 2 78 2h155q9 0 28 1t28 1q55 0 55 -31zM918 293q0 1 -18.5 44t-39.5 93.5t-26 63.5q-1 2 -19 26q0 -4 -4 -8q9 -39 44 -117t58 -110q5 5 5 8zM784 1108q-6 0 -10 -2q-27 -25 -77 -94.5t-68 -104.5l4 -2q3 0 5 1.5t4 4.5t3 4 q120 154 139 193zM328 410v65q0 40 -9 49q-8 -5 -8 -39q0 -6 1 -18t1 -18t-3 -18t-3 -17q0 -81 4 -103q10 -5 13 -22q2 6 2 18t-2 37t-2 39q0 4 3 13t3 14zM934 88q-1 15 -11.5 36t-21.5 32l-10 -31l22 -55q9 18 21 18zM266 1319q0 3 -3.5 9.5t-4.5 8.5l-8 4q-4 -4 -4 -22 v-21v-7v-7t0.5 -5.5t2.5 -5.5t5 -4.5t8 -4.5q4 36 4 55zM582 709q0 6 -11 14t-18 10q0 -5 -1 -14.5t-1 -13.5q0 -13 8 -21l9 5q8 5 11 9.5t3 10.5zM887 1370q-15 -7 -24 -22.5t-9 -30.5v-2q23 13 27.5 20t5.5 35zM227 57l2 29q-4 4 -10 4q-12 0 -12 -16q0 -13 20 -17z M313 950l4 29q-2 0 -6 1t-6 1q-10 0 -10 -16q0 -15 18 -15z" />
<glyph unicode="L" horiz-adv-x="976" d="M872 113q0 -91 -28 -101q-54 -14 -72 -14q-6 0 -17.5 2t-17.5 2q-26 0 -81 -2t-83 -2q-13 0 -37 -2t-36 -2q-37 0 -111 4q-9 0 -51 0.5t-61 2t-50 7t-53 15.5q-11 4 -21 31.5t-10 43.5q0 46 2 66l2 2v141q0 9 3.5 29t3.5 29t-3.5 26t-3.5 25q0 7 3.5 22t3.5 23 q0 25 -4.5 73t-4.5 72q0 8 4.5 25t4.5 26q0 8 -1 25.5t-1 26.5t2 27.5t2 27.5q0 131 -2 197q0 13 -1 37t-1 36q0 8 2 23.5t2 23.5q0 15 -3 46.5t-3 48.5q0 14 4 42t4 42q0 18 -2 53t-2 53q0 43 20.5 58.5t65.5 15.5q16 0 48 -5t48 -5q12 0 33.5 1t31.5 1h18.5h18.5t15.5 -1 t15.5 -3.5t11.5 -7t10 -10.5t5 -16t2.5 -22q0 -24 -5.5 -70t-5.5 -69q0 -8 2.5 -24.5t2.5 -24.5q0 -20 -1.5 -59t-1.5 -58q0 -17 4.5 -50.5t4.5 -49.5q0 -17 -4.5 -49t-4.5 -48q0 -18 4.5 -53t4.5 -53q0 -20 -4.5 -57.5t-4.5 -55.5q0 -21 4.5 -63t4.5 -64q0 -18 -3 -51 t-3 -51q0 -26 4 -76q0 -11 4.5 -14.5t17.5 -3.5q16 0 50.5 2t52.5 2q29 0 86 -2t86 -2q5 0 16 1t16 1q13 0 24.5 -9t16.5 -22q3 -11 5 -38.5t2 -51t-0.5 -58t-0.5 -38.5zM270 375q0 49 -2 74q0 10 -8 10q-1 0 -4 -1t-4 -1q-1 -14 -2.5 -38t-2.5 -44t-1 -37q0 -42 6 -82 q8 12 13 52.5t5 66.5zM270 946v23q0 68 -8 82h-2q-10 -49 -10 -119q0 -26 8 -80l6 -6q6 50 6 100zM676 127q0 14 -43 14q-8 0 -23.5 -4t-23.5 -4q-7 0 -20.5 1t-20.5 1q-10 0 -10 -6q0 -12 14 -12h125q0 1 1 4.5t1 5.5zM305 1307q0 19 -26 30q-15 -15 -15 -30q0 -13 8 -25 q3 1 11.5 2t11.5 2.5t6.5 6.5t3.5 14zM387 680q0 39 -10 39q-15 0 -15 -27v-24h13q12 0 12 12zM369 145q0 14 -13 27q-12 -2 -12 -27q0 -22 10 -22q6 0 10.5 7.5t4.5 14.5zM782 260q0 14 -10 14q-18 0 -18 -26q0 -10 10 -10q7 0 12.5 7t5.5 15z" />
<glyph unicode="M" horiz-adv-x="1644" d="M1522 31q0 -16 -17 -23q-27 -6 -61.5 -9t-55.5 -3.5t-65.5 0t-56.5 0.5q-68 0 -99 18q-6 3 -10 36t-4 52q0 3 1 10.5t1 10.5v86q0 16 -2 33t-5.5 38t-4.5 33q-2 13 -19 183q0 3 -6 37.5t-6 52.5t-14 49q-25 -35 -31 -47q-5 -8 -13 -25.5t-10 -21.5q-21 -53 -63 -119 q-4 -4 -8 -12q-26 -57 -53 -84q-9 -14 -11 -21q-20 -40 -51 -98q-7 -11 -45 -35q-4 -1 -13.5 11t-20 30.5t-20 36.5t-17.5 33.5t-9 17.5q-26 48 -125 215q-12 21 -36.5 68t-39.5 71q-14 -5 -20 -11.5t-6 -20.5l-6 -80q-1 -4 -4.5 -16t-3.5 -19q0 -21 -9 -109l-12 -200 q-1 -12 -5.5 -46t-4.5 -51q0 -12 1 -35t1 -34v-17q-2 -8 -8 -12.5t-16.5 -6t-18.5 -2t-21 0t-16 0.5q-10 0 -30 1t-29 1q-14 0 -40 -2t-38 -2q-5 0 -14.5 1t-14.5 1q-9 0 -27.5 -4t-27.5 -4q-17 0 -27 10.5t-12 28.5q8 21 8 53q0 87 6 170q1 11 4.5 42.5t3.5 47.5 q0 25 9.5 76t9.5 78q0 8 -2 23.5t-2 23.5q0 23 8 89t8 70q2 28 8.5 82t8.5 80q0 37 4 53q24 127 24 166q0 5 -1 14.5t-1 14.5q0 68 14 117q2 9 3 27t2 22q7 62 14 100q3 23 29 33q43 16 88 16q50 0 78.5 -9.5t52.5 -43.5q10 -14 20 -30t21 -36.5t18 -31.5q56 -85 176 -316 q60 -118 78 -145l57 96q10 19 36 56t36 57q63 125 199 367q24 45 98 45q5 0 16 -1t17 -1q4 0 17.5 0.5t19.5 0t16 -2t17 -6t14 -11.5q26 -26 26 -65q1 -40 12.5 -115t12.5 -86q9 -91 35 -244v-8q0 -47 12 -143t12 -142q0 -30 6 -84.5t7 -62.5q4 -41 8.5 -87t8.5 -100.5 t7 -85.5q1 -13 8 -41t7 -45q0 -12 2 -36t2 -37zM385 606q0 15 -10 15q-2 -14 -8.5 -61.5t-9 -78t-1.5 -61.5v-23q21 7 21 23q8 122 8 186zM696 727v6q0 20 -8 33q-7 10 -76 113h-28q20 -32 59.5 -87.5t52.5 -64.5zM352 1305q0 13 -10 16q-27 -32 -27 -119q0 -10 7 -20 q30 19 30 123zM1307 961q0 12 -3.5 35.5t-3.5 27.5h-22q1 -10 4 -50.5t6.5 -73t7.5 -38.5h2q9 44 9 99zM1307 106q0 18 -2.5 38.5t-8 48.5t-6.5 38l-16 -2l16 -151h8q9 23 9 28zM905 494q0 4 -2 6q-21 -18 -45 -63t-27 -72q18 12 46 60.5t28 68.5zM213 104q0 33 -12 33 q-15 0 -15 -28q0 -27 11 -27q7 0 11.5 7.5t4.5 14.5zM1264 1294q-3 1 -2 6q0 16 -9 19q-6 0 -10 -4q-8 -16 -8 -35q0 -4 4 -12q18 5 20 10q2 3 5 16zM1075 840q0 10 -16 34l-10 7q-5 -5 -5 -15v-6q0 -17 9 -26l10 -5q12 0 12 11zM344 918q-9 -1 -12.5 -2.5t-6 -5t-3.5 -11.5 q-1 -3 -7 -47q29 33 29 66zM1327 532l4 29q-4 2 -12 2q-12 0 -12 -14q0 -13 20 -17z" />
<glyph unicode="N" horiz-adv-x="1400" d="M1257 1376q0 -25 -3 -76.5t-3 -78.5q0 -11 1 -34t1 -34q0 -15 -3 -45t-3 -45q0 -21 2 -65t2 -66q0 -9 -4 -36.5t-4 -41.5q0 -9 2 -26.5t2 -26.5q0 -57 -1 -173t-1 -175q0 -18 3 -52.5t3 -50.5q0 -9 -1 -27.5t-1 -27.5q0 -17 1 -62.5t1.5 -73.5t-3.5 -65.5t-13 -64.5 q-9 -23 -37 -27q-26 -4 -154 -4q-83 0 -120 20q-54 28 -74 66q-55 93 -145 217q-16 20 -38 62t-34 59q-7 10 -28.5 41t-31.5 49q-9 12 -24 39t-29.5 47t-30.5 33q-8 -16 -8 -64q0 -13 2 -38.5t2 -39.5q0 -90 2 -137q0 -12 3.5 -38t3.5 -40q0 -67 -2 -100q0 -5 -1.5 -15.5 t-1.5 -15.5q0 -13 1.5 -37t1.5 -36q0 -20 -19 -47q-9 -15 -39 -15q-41 0 -133.5 3t-105.5 7q-43 14 -43 62q0 35 3 104.5t3 104.5q0 95 -4 291q-1 55 -6 188t-5 205q0 19 1 54t1 52q0 220 17 303q13 58 135 58q6 0 18.5 -3t18.5 -3q4 0 12 2t12 2q29 0 56 -35 q33 -49 89.5 -145.5t69.5 -116.5l70 -103l23 -37q7 -11 23.5 -31t23.5 -32q25 -37 84 -131t94 -143h6q8 51 8 155q0 19 -1 54.5t-1 52.5q0 64 5 193t5 194q0 12 -2 33.5t-2 31.5q0 11 3 20.5t6.5 15.5t11.5 10.5t13 6.5t17 3.5t16.5 2t18.5 1t17 0.5q8 0 24.5 1t24.5 1h2 q47 -15 100 -15h13h14t13.5 -0.5t14 -2t12 -3.5t11.5 -6t8 -9t6 -12t2 -16zM1008 1264q0 52 -13 61q-12 -56 -12 -174q0 -26 8 -76l6 -8h2q9 148 9 197zM293 762q0 65 -12 84l-5 -2q-6 -99 -6 -101q0 -16 2 -49t2 -51q0 -3 -0.5 -11t-0.5 -13.5t1 -11.5t5.5 -9.5t11.5 -3.5 q0 9 1 27.5t1 27.5q0 13 -1 37t-1 35q0 7 1 20.5t1 20.5zM1096 621q0 16 -4 20q-7 -10 -12 -109.5t-5 -144.5q0 -20 8 -20q13 0 13 61v193zM700 788q0 3 -4 7q-43 81 -90 114q2 -6 11.5 -21.5t9.5 -25.5q6 -7 20.5 -26t27.5 -34t21 -20q4 4 4 6zM874 272h3q0 14 -11 29 q-4 7 -18.5 33.5t-27 47t-17.5 24.5l-15 6q6 -19 23.5 -49t22.5 -41q5 -8 20 -23.5t20 -26.5zM295 141q0 12 -14 33.5t-25 26.5v-47q0 -17 2 -25l33 -2q4 8 4 14zM332 1194q0 20 -13 20q-7 0 -12.5 -8.5t-5.5 -15.5q0 -8 4 -10q2 -2 8 -2q7 0 13 4.5t6 11.5zM1100 131 q0 16 -10 21q-5 0 -9 -6.5t-4 -12.5v-16q23 0 23 14zM1096 905l4 29q-2 0 -6.5 1t-6.5 1q-12 0 -12 -16q0 -15 21 -15z" />
<glyph unicode="O" horiz-adv-x="1720" d="M1597 772q0 -70 -14 -180q-1 -5 -6.5 -21t-5.5 -18q0 -18 -15 -58.5t-26 -56.5q-35 -54 -45 -90l-6 -14q-106 -157 -252 -236q-3 -2 -44 -25t-69 -37.5t-41 -17.5q-146 -24 -188 -24q-59 0 -84 6q-23 4 -49.5 10.5t-58 14.5t-48.5 12q-104 25 -172 67t-170 129 q-47 43 -63 74q-6 12 -21 31t-18 24q-18 29 -34.5 90.5t-21.5 73.5q-4 13 -13 74.5t-9 77.5q0 22 2 46.5t5.5 54.5t4.5 46q0 17 12.5 43t14.5 31q25 71 36 102t41.5 87.5t63.5 87.5l105 94q2 2 10 11.5t14 14.5q65 45 92 58q11 6 33.5 12.5t30.5 9.5q10 4 33.5 14.5t35.5 15 t31.5 10.5t37.5 9.5t38 4.5q33 2 100 2q9 0 29 -1t29 -1q6 0 19.5 1t19.5 1q39 0 83 -13q13 -3 44 -10.5t53.5 -13.5t42.5 -13q19 -6 86 -43q71 -41 116 -102q9 -9 11 -10q12 -11 24 -25.5t19.5 -25t19 -29t17.5 -27.5q10 -16 39 -76q1 -2 10.5 -19.5t10.5 -20t8.5 -17.5 t9 -19t7 -17t7.5 -20t5.5 -18.5t5 -22t3.5 -22.5q1 -7 7.5 -43t6.5 -53zM1227 733q0 50 -39 150q-20 59 -98 133q-19 19 -91 42t-104 23h-66q-39 1 -75.5 -13t-48.5 -15q-24 -2 -56 -27q-1 -1 -30 -19.5t-41 -29.5q-29 -25 -72 -100q-20 -34 -34.5 -97t-14.5 -106 q0 -82 30 -129q37 -65 148 -130t186 -65q3 0 45 6l109 11q24 3 64.5 24t60.5 39q11 9 25 29t22 28q3 4 14 13t15 16q24 41 37.5 102t13.5 115zM674 1186q0 3 -10 8q-4 -1 -11 -2t-11.5 -3t-8.5 -7q-4 -4 -10 -4q-11 -2 -19.5 -6t-16.5 -11.5t-12 -11.5t-13.5 -15.5 t-12.5 -15.5v-6q0 -8 8 -8q5 0 12 6t9 10q9 13 26 23t32 14.5t26.5 12t11.5 16.5zM307 834v6l-4 2q-33 -44 -33 -150q0 -18 15 -30q6 21 6 36v31q0 21 8 56.5t8 48.5zM1352 416v6q-2 -2 -11 -17t-16.5 -25.5t-11.5 -14.5q-16 -10 -32 -30t-19 -36q29 6 61 47t29 70zM414 362 l26 11q-26 50 -53 67q-4 -4 -4 -16q0 -18 9 -36.5t22 -25.5zM928 139l6 6l-10 3q-11 4 -17 4t-17 -5.5t-18 -5.5q-50 0 -94 17h-8q0 -2 0.5 -6t1 -5.5t1.5 -3.5t3 -2.5l6 -1.5q27 -8 64 -8q28 0 82 8zM1442 844v22q0 10 -10 17q-20 -10 -23 -17q-8 -21 -8 -51v-8 q3 3 14 10.5t19 15t8 11.5zM922 1343h8q-1 7 -2 10t-4 5.5t-9 3.5q-16 4 -47 4q-48 0 -98 -12l-4 -6q15 -5 25 -5q7 0 18 6.5t18 6.5q52 0 95 -13zM1139 1196l82 -37v17q-53 32 -64 32q-10 0 -18 -12zM365 1040q0 6 -5.5 11.5t-11.5 5.5q-4 0 -10 -13.5t-6 -17.5q0 -8 6 -14 q10 0 18.5 8.5t8.5 19.5z" />
<glyph unicode="P" horiz-adv-x="1296" d="M1194 862q0 -17 -4 -53q-24 -125 -59.5 -186.5t-129.5 -126.5l-16 -13q-4 -5 -9 -10l-8.5 -8.5t-10 -7t-10 -5.5t-11 -5.5t-10.5 -4.5t-12.5 -5t-12.5 -5q-99 -40 -272 -59q-31 -2 -94 -2q-15 -1 -20 -7.5t-7 -21.5q-4 -90 -4 -135q0 -94 4 -141q2 -6 2 -21t-7 -32 t-20 -17q-30 0 -80 4q-6 1 -16.5 2.5t-19.5 2.5t-17 1q-22 0 -64.5 -3t-62.5 -3q-26 0 -44.5 19.5t-18.5 46.5q0 115 -4 172q0 5 -1 15.5t-1 16.5q0 12 6 36t6 36q0 15 -3 46t-3 48q0 25 1 74.5t1 73.5q0 18 -4 52.5t-4 49.5q0 9 0.5 23t0.5 25.5t-1 21.5q-1 15 -6 52.5 t-5 57.5q0 17 5.5 47t5.5 45q0 18 -3.5 54.5t-3.5 42.5h3q0 15 -2.5 43t-2.5 43q0 13 2.5 39t2.5 39q0 10 -1.5 30t-1.5 29q0 21 6 55t7 41q9 39 47 39q10 1 57 2t88 2.5t47 3.5q46 15 119 15q17 0 49 -4q34 -4 97 -6t113 -7.5t93 -21.5q8 -2 24 -7t26.5 -8t24 -9t22.5 -13 q7 -5 30 -22t33.5 -25t26.5 -23.5t28 -29.5q109 -128 109 -398zM850 938q0 63 -40 109t-96 66t-118 20q-13 0 -41 -1.5t-43 -1.5q-14 -2 -19.5 -6.5t-5.5 -17.5q0 -62 4.5 -186t4.5 -185q0 -9 -1 -23.5t-0.5 -19.5t4 -11.5t12 -8.5t24.5 -2q13 0 36 3t35 3q69 0 142 51 q8 5 15 11t14.5 15.5t11 14t12.5 17t10 14.5q29 36 35 82q4 36 4 57zM311 541q0 45 -10 108h-4q-8 -76 -8 -168q0 -11 8 -24q14 68 14 84zM633 498v4q-6 2 -17 2q-5 0 -15 -1t-15 -1q-10 0 -29.5 3t-28.5 3q-19 0 -26 -14q26 -13 51 -13q23 0 80 17zM1040 831v23 q0 34 -10 41q-6 -72 -31 -143q7 -1 17 15.5t17 36t7 27.5zM420 1012q0 9 -1 27.5t-1 27.5q0 2 -10 12l-7 -4q2 -8 2 -24q0 -7 -0.5 -21t-0.5 -22t2 -20t6 -21l4 4q6 18 6 41zM895 596q0 11 -27 27q-12 -15 -12 -35q0 -11 4 -27q2 1 9.5 6.5t12 9.5t9 9.5t4.5 9.5zM291 1298 q0 4 -3.5 8.5t-7 7t-9 6.5t-7.5 5q-12 -15 -12 -35q0 -10 4 -26q2 2 12 9t16.5 13.5t6.5 11.5zM313 147q0 18 -18 29q-14 -18 -14 -37v-6q0 -14 8 -14q9 0 16.5 9.5t7.5 18.5zM629 1290q-12 4 -19 4h-6q-24 0 -24 -12t16 -12q19 0 23 2.5t10 17.5zM952 1174l4 28 q-2 0 -5.5 1t-4.5 1q-12 0 -12 -16q0 -14 18 -14z" />
<glyph unicode="Q" horiz-adv-x="1808" d="M1686 -16q0 -6 -4.5 -9.5t-12.5 -4.5t-14 -1.5t-16 0t-11 0.5q-33 0 -97 2t-97 2q-12 0 -37 -2t-37 -2q-36 0 -66 6q-21 2 -57.5 46.5t-46.5 44.5q-4 0 -15 -5t-14 -8q-21 -14 -67 -20q-18 -4 -29 -8q-76 -25 -205 -25q-4 0 -20 4q-18 10 -52 10q-79 3 -195 34t-175 69 q-74 47 -150 133q-15 17 -27 38.5t-26 52.5t-20 44l-25 37q-15 26 -28 71.5t-13 73.5q0 6 1 17.5t1 17.5q0 14 -4 43t-4 43t2 41t2 41v21q0 12 9 44.5t18 59t23.5 67t15.5 44.5q49 133 172 256q25 25 77 56t93 48q125 55 208 64q41 6 140 6q17 0 51 -2t51 -2t34 -3t41 -9.5 t34 -8.5q102 -26 172 -65q9 -5 26.5 -18.5t26.5 -18.5q14 -8 30 -22t34 -34.5t29 -34t30 -38.5t24 -31q60 -80 83 -142.5t44 -175.5q19 -89 19 -139q0 -60 -17 -110q-4 -17 -10.5 -49t-13.5 -57t-19 -48q-11 -21 -92 -166q13 -26 119.5 -138.5t106.5 -139.5zM1255 729 q0 46 -41 160q-10 28 -51 81.5t-69 80.5q-41 36 -78 43q-90 22 -150 22q-30 0 -100 -16q-115 -20 -254 -176q-20 -24 -39.5 -84t-19.5 -92q0 -20 4.5 -54t5.5 -47q0 -68 37 -123q3 -3 8.5 -14t9.5 -16q79 -84 155 -129.5t173 -45.5q104 0 137 35q-117 139 -162 189 q-5 7 -37 39q-6 9 -6 20q0 16 21 23q26 6 62 8t65.5 1.5t62.5 0.5q14 1 50.5 5.5t54.5 4.5q22 0 42 -11t29 -20.5t28 -35t24 -31.5q16 22 21.5 45t7.5 55t5 49q4 24 4 33zM1309 1174l10 -5q-10 32 -33 58q-18 16 -25 22.5t-21 13.5t-32 11q0 -17 17 -27q16 -11 44 -37.5 t40 -35.5zM1231 297q0 6 -32 54t-44 48q-2 0 -14 -6l2 -6l82 -100q6 3 6 10zM958 547q-36 6 -38 6q-15 0 -15 -12q0 -14 14.5 -34t28.5 -28q8 8 8 13q0 6 -3 16.5t-3 15.5q0 15 8 23zM1487 680q0 9 -4 25q-3 -4 -8 -26.5t-11.5 -50.5t-9.5 -38q-2 -4 -2 -15v-22 q35 61 35 127zM662 1149l-5 2q-4 -1 -15.5 -4t-17.5 -4.5t-16.5 -5t-17 -7t-14 -9t-13.5 -11.5q-10 -15 -10 -20v-5l10 2q3 2 25.5 20.5t34.5 22.5q28 8 39 19zM309 332q0 9 -12 22t-21 13q-6 0 -8 -2q7 -38 37 -48q4 8 4 15zM311 786q0 23 -10 43q-14 -9 -14 -16 q0 -5 20 -55q4 20 4 28zM1401 881q0 15 -6 30q-17 -6 -17 -16q0 -6 7 -28t8 -27q8 24 8 41zM801 154q-14 0 -25 8q-3 1 -23 4.5t-24 3.5q-1 0 -4 -1t-4 -1q15 -21 51 -21q15 0 29 7zM731 1350q-8 8 -14 8q-9 0 -22 -8t-13 -17v-4q40 4 49 21zM1444 74v2q0 9 -9 15.5t-18 6.5 q-6 0 -12 -6q14 -18 35 -18h4z" />
<glyph unicode="R" horiz-adv-x="1433" d="M1169 -4q-21 0 -63 -2t-64 -2q-50 0 -82 14t-55 53q-16 28 -131 172q-9 10 -29.5 32t-35 38.5t-25.5 34.5q-24 34 -49 49q-18 6 -19 6q-69 0 -106 -2q-4 -152 -4 -227q0 -18 1 -56t1 -57q0 -18 -13.5 -35.5t-31.5 -17.5q-8 0 -25 1t-26 1h-60q-10 0 -30.5 -2t-30.5 -2 q-30 0 -84 8q-33 5 -37 55q-10 92 -10 109q0 6 1 19t1 20q0 19 -4 54t-4 54q0 31 -1 94t-1 93q0 16 6 46t6 44q0 16 -5 56t-5 63q0 21 2 63t2 62t-3.5 55t-4.5 47v256q0 24 -3.5 70t-3.5 69q0 44 2 64q6 23 29 30q21 5 45.5 7.5t41 3.5t46.5 1.5t43 0.5q42 6 45 6 q11 0 34 -2t34 -2q14 0 41.5 1t40.5 1q27 0 79 -2t78 -2q18 0 48.5 -8.5t42.5 -10.5q24 -5 63 -7t65 -11t62 -37q6 -5 18.5 -13t19 -13t14.5 -14t14 -21q11 -21 39 -47t38 -74q6 -32 23 -54q5 -5 8.5 -12.5t5.5 -15t4 -19t2.5 -19t1 -21t0.5 -19v-18.5v-15q0 -8 2.5 -24.5 t2.5 -24.5q0 -69 -2 -104q0 -10 -6 -28t-7 -24q-4 -34 -26 -86q-3 -6 -8 -23t-10.5 -30t-10.5 -20l-92 -107q-2 -2 -10.5 -9t-14.5 -13t-6 -9q0 -7 141.5 -198.5t173.5 -227.5q13 -17 13 -26q0 -16 -10.5 -26t-29.5 -12.5t-35 -3t-38.5 1t-28.5 1.5zM539 1145h-10h-10.5 t-8.5 -0.5t-8 -1.5l-6 -3t-5 -5.5t-2.5 -8t-1.5 -10.5q0 -49 3.5 -141.5t3.5 -112.5q0 -29 2 -41q1 -16 5 -46t5 -44q1 -8 2.5 -14l2.5 -10t5 -6.5t6 -4t8.5 -2t10 -0.5h13.5h15q24 0 78 8q13 3 24 9t25.5 18t20.5 16q39 25 78 66t39 74q0 6 -3.5 17t-3.5 16q0 6 4.5 18.5 t4.5 19.5q0 34 -15 62t-34.5 45t-54 32.5t-56.5 22.5t-60 17q-45 10 -77 10zM1067 1008q0 24 -10 39q-2 -3 -4 -3q-1 -7 -6 -21.5t-5 -23.5q0 -3 1 -9t1 -9q0 -8 -2 -12q-4 -14 -4 -47q0 -30 -12 -64q15 8 23 21.5t9.5 23t4.5 31.5q4 50 4 74zM961 176v8q0 5 -7 16t-18 26 t-21.5 28t-21.5 26t-14 17q-9 9 -25 12q0 -2 -1 -5.5t-1 -4.5q8 -16 17 -29.5t21.5 -27t19.5 -20.5t25.5 -23t25.5 -23zM291 631v41q0 15 -4 43h-2q-6 -21 -6 -174q0 -27 2 -39h2q4 0 10 12q4 19 3.5 58.5t-5.5 58.5zM731 1296q-6 9 -18 9q-21 0 -65 -1t-66 -1q-8 0 -13 -9 l6 -6h19q9 0 27 -3t26 -3q37 0 84 14zM807 608q-4 2 -10 2q-2 0 -44 -17t-46 -20q20 -12 32 -12q16 0 38 16t30 31zM260 1317q0 9 -3.5 21t-10.5 12q-10 0 -10 -15v-6q0 -29 12 -29t12 17zM281 119q0 22 -9 37q-14 -5 -14 -17q0 -13 18 -55q5 30 5 35zM367 1024q0 16 -21 29 q-6 -24 -6 -29q0 -12 14 -12q13 0 13 12zM1139 113q0 7 -8 11.5t-15 4.5l-6 -6v-2q0 -7 5 -13t11 -6v-2l2 2q11 6 11 11z" />
<glyph unicode="S" horiz-adv-x="1306" d="M1184 504q0 -12 -3 -34t-3 -34q0 -14 2 -39t2 -37q0 -33 -14.5 -59.5t-18.5 -42.5q-17 -55 -70 -115q-57 -62 -69 -73q-4 -5 -15 -11q-92 -40 -108 -45q-22 -8 -83.5 -14t-96.5 -6q-67 0 -197 33q-49 11 -100 39l-58 28q-53 34 -84.5 63.5t-58.5 75.5q-5 8 -15 25t-16 27 t-13 25t-11 28q-31 90 -31 121q0 71 143 71q109 0 162 -2q12 -1 21.5 -8.5t16.5 -22t11 -25t9 -29t6 -21.5q16 -51 81 -83t125 -32q72 0 113 34t41 105q0 45 -41 70q-20 14 -56.5 30t-91 33.5t-88.5 28t-96 28.5t-67 19q-39 9 -58 15q-21 7 -35 18q-10 9 -32.5 32t-36.5 34 q-35 32 -60.5 106.5t-25.5 128.5q0 24 7 68t15 63q1 2 12.5 32t16.5 46q2 7 5 13.5t5.5 12t7.5 12.5l7.5 10.5t9.5 11.5t9 10.5t10 11t10 10.5q16 18 48 49t42 35q85 35 148.5 50.5t144.5 15.5q33 0 63 -6q15 -3 80 -13q40 -8 101 -36t93 -54q16 -14 27 -35q14 -31 43 -73 q47 -70 47 -203q0 -4 -1 -14t-1 -15q0 -59 -57 -67q-37 -6 -80 -6q-126 0 -174 28q-18 9 -21 29q-6 47 -26 92t-54 57q-59 19 -75 19q-40 0 -82 -25q-7 -4 -12.5 -9t-12 -14t-8.5 -12q-18 -24 -18 -47q0 -22 7 -39t23 -29t27.5 -18.5t36.5 -16t33 -13.5q44 -19 122 -41 t133 -38.5t115 -53.5t94 -89q7 -10 33 -36t31 -37q35 -81 35 -121zM1065 440q0 28 -16 47q-11 -28 -11 -63q0 -9 1 -26.5t1 -26.5q25 20 25 69zM451 1268l6 8q-3 0 -8.5 2t-8.5 2q-15 0 -43.5 -51.5t-38.5 -79.5l2 -8q22 17 23.5 33.5t5.5 21.5q30 48 62 72zM883 129 q0 6 -2 8l-127 -31q2 -1 8 -3.5t8 -2.5q26 0 102 17q11 4 11 12zM815 657q-16 24 -33 31q-78 31 -84 31q-9 0 -6 -10q23 -4 63.5 -25.5t59.5 -26.5zM379 391q-7 43 -31 51v-8q0 -23 5.5 -32.5t25.5 -10.5zM1010 1077q0 37 -19 56q-2 -4 -2 -13q0 -39 15 -65q6 4 6 22z M707 1305l-29 12l-4 -6v-2q0 -9 6.5 -17t15.5 -8q4 0 6.5 1t3.5 4t1 4.5v6v5.5zM303 868l-16 27l-8 -4q-5 -3 -5 -14q0 -21 17 -21q2 0 4.5 2.5t4.5 5.5zM455 106l4 29q-4 2 -13 2q-12 0 -12 -14q0 -13 21 -17z" />
<glyph unicode="T" horiz-adv-x="1261" d="M1159 1321q0 -45 -4 -143q-2 -44 -14 -57.5t-54 -14.5q-11 0 -34 -4t-25 -4q-8 0 -24.5 2t-24.5 2q-9 0 -26.5 -2t-26.5 -2t-27.5 0.5t-30 0.5t-27 -1t-28.5 -4q-10 -55 -10 -101q0 -32 5 -94t5 -92q0 -16 -2 -46t-2 -44q0 -107 8 -158q0 -2 1 -6.5t1 -7.5 q0 -12 -5 -38.5t-5 -41.5q0 -20 3 -62.5t3 -64.5q0 -16 -1 -50t-1 -50q0 -9 0.5 -51t0 -59t-4 -47.5t-10.5 -55.5q-3 -14 -14.5 -19.5t-14.5 -9.5q-7 -12 -22 -12q-8 0 -24 2t-24 2q-135 5 -170 10q-32 4 -49 31q-1 7 -5.5 27t-4.5 30q0 18 3 54t3 55q0 26 -6 75.5t-6 75.5 q0 12 3 33t3 33q0 29 -5 89.5t-5 90.5q0 14 5 43t5 45q0 12 -2 37t-2 37v114q0 2 -6 179q0 40 -35 40q-10 0 -30.5 -2t-30.5 -2q-27 0 -80.5 4.5t-79.5 4.5q-8 0 -24.5 -2.5t-24.5 -2.5q-15 0 -26 11t-13 26q-5 84 -8 101q-5 23 -5 59v11q0 24 0.5 36.5t4.5 32.5t11.5 30.5 t23 18.5t38.5 8q16 0 47 -2t47 -2q14 0 43 2t43 2q24 0 73 -1t73 -1q16 0 49 3t49 3q33 0 49 -2q15 -2 42.5 -2.5t35.5 -1.5q20 0 57.5 -3t55.5 -3q35 0 103.5 4t103.5 4q1 0 18.5 0.5t25 0t21 -3t21 -8.5t10.5 -15q10 -42 10 -74zM590 328q0 64 -4 190q0 18 -8 31 q-7 -21 -7 -55v-39q0 -29 1 -89t1 -90q0 -16 9 -28q3 2 5 9t3 18t1 20t-0.5 20t-0.5 13zM682 1079q0 25 -12 43q-11 -22 -11 -37q0 -114 9 -141l12 -10v20q0 6 -1 17t-1 16q0 15 2 46t2 46zM625 1292l2 4q-25 11 -95 11q-9 0 -26.5 -1t-26.5 -1q-7 -1 -10 -2t-4.5 -4 t-1.5 -9v-4h86q3 0 14 4t19 4q7 0 21.5 -1t21.5 -1zM977 1264q-1 2 -2 5.5t-2 5t-3.5 4t-6.5 3.5q-6 0 -15.5 -11.5t-9.5 -17.5q0 -16 12 -16q14 0 19.5 6.5t7.5 20.5zM227 1305q0 14 -18 18q-14 -14 -14 -29q0 -18 10 -18q8 0 15 10t7 19zM719 686q0 21 -14 29 q-7 -17 -7 -29v-12q0 -3 0.5 -9.5t0.5 -12t-1 -9.5q21 9 21 43zM727 86q0 20 -8 20t-8 -12t2 -18l6 -4q8 2 8 14z" />
<glyph unicode="U" horiz-adv-x="1247" d="M1124 938q0 -12 -2 -33t-2 -31q0 -20 2 -60t2 -60q0 -24 -6 -71t-6 -71q0 -243 -39 -340q-117 -274 -407 -274q-300 0 -404 145q-71 100 -94 211q-2 9 -11.5 40.5t-9.5 49.5q0 70 -12 119q0 4 -1 12.5t-1 12.5q0 9 1 27.5t1 27.5q0 25 -4 73.5t-4 71.5q0 18 4 54t4 53 q0 65 -8 117q-2 10 -2 28q0 8 2 26t2 26q0 15 -3 42t-3 40q0 68 8 194q3 49 43 57q36 7 90 7q20 0 59 -1t58 -1q24 0 35 -17q12 -10 26 -33q9 -18 9 -96q0 -10 -2.5 -30.5t-2.5 -30.5q0 -35 5.5 -103t5.5 -102q0 -26 1 -76t1 -74q0 -16 -1 -49t-1 -49q0 -112 10 -195 q13 -116 32 -160q38 -87 136 -87q78 0 115.5 46.5t37.5 127.5q0 14 -1 41t-1 41q1 19 4 92.5t3 114.5q0 10 -1 30.5t-1 32.5q0 15 2 47t2 49q0 7 -2 22.5t-2 22.5q0 8 2 26t2 26q0 38 -5.5 114.5t-5.5 114.5q0 18 1 52t1 52q3 58 86 58q140 0 189 -8q34 -5 43 -44 q12 -41 12 -231h-2v-70q0 -31 2 -47q0 -16 4 -50t4 -50zM313 993q0 111 -10 140q-10 -17 -10 -48q0 -122 14 -186q6 31 6 94zM969 1243q0 10 -8 10q-13 0 -13 -41v-153q0 -13 10 -17q9 7 9 31q0 8 -2 24.5t-2 24.5v84h4v19q0 3 1 9t1 9zM332 180h8q-7 8 -11 22t-7 19l-60 92 q-6 9 -14 11q4 -22 36 -83t48 -61zM889 408l10 131l-2 2q-18 -13 -18 -41q0 -68 -13 -121v-23h2q1 2 10.5 21.5t10.5 30.5zM262 645q0 10 -2 14q-1 2 -10 11q-6 -10 -6 -27q0 -43 12 -53q6 24 6 55zM1049 758q0 8 -19 55q-4 -20 -4 -35q0 -21 8 -37q15 10 15 17zM629 160 q0 6 -4 14q-11 0 -17 -11.5t-6 -23.5q0 -11 10 -14q17 28 17 35zM858 1311q0 12 -6 24q-10 -7 -10 -18q0 -29 12 -31q4 16 4 25zM367 1333q0 18 -13 31q-4 -8 -4 -18v-21l6 -8q11 3 11 16z" />
<glyph unicode="V" horiz-adv-x="1298" d="M1237 1409q0 -33 -11.5 -75.5t-36.5 -110.5t-28 -76q-8 -25 -43 -152q-2 -5 -19 -53t-24 -72q-7 -21 -55 -184q-29 -88 -88.5 -252t-83.5 -237q-4 -11 -10.5 -35.5t-10.5 -36.5q-8 -20 -22 -49q-2 -5 -6.5 -21.5t-7.5 -23.5t-11.5 -15.5t-21.5 -11.5q-18 -6 -37 -6 q-4 0 -11.5 1t-11.5 1q-18 0 -54 -3t-54 -3q-66 0 -84 45q-31 74 -57.5 152t-63.5 201.5t-47 154.5q-20 61 -68 200.5t-71 213.5q-35 113 -43 135q-2 9 -9.5 25.5t-9.5 21.5q-11 28 -30 81t-23 64l-8 24t-11 36t-4 24q0 13 2 19q1 12 25 22t39 10q31 0 75 9.5t70 9.5 q27 0 39.5 -1t32 -5.5t31.5 -17t18 -32.5t20.5 -54.5t16.5 -39.5q24 -66 64 -189t51 -155l63 -178q27 -79 33 -90l6 4q16 45 45 130t43 124q4 10 18 59.5t27 75.5q11 20 21 51t21.5 74t15.5 57q17 51 61 142q11 25 43 28q39 5 98 5q8 0 25 -1.5t25 -1.5q12 0 34 1.5t33 1.5 q12 0 33.5 -3t26.5 -4q20 0 20 -14zM453 856v6l-39 86q-9 31 -35 103q-3 12 -17 12h-4q21 -49 21 -59q2 -31 22 -80q4 -12 17.5 -33t17.5 -35q0 -8 8 -8q9 0 9 8zM965 997q-5 0 -9 -4q-9 -12 -44 -96t-35 -96v-8q9 2 16 16q4 12 22.5 56t33.5 82.5t16 49.5zM662 109 q0 5 -12 12t-28 14t-18 8q-4 -6 -4 -18t6 -22.5t17 -10.5q10 0 24.5 4.5t14.5 12.5zM1106 1309q0 16 -12 16q-11 0 -20 -15.5t-9 -27.5q0 -2 1 -6t1 -6q15 2 27 13t12 26zM489 506q0 11 -16 43q-4 4 -12 4q-6 -6 -6 -10q0 -39 30 -51q0 2 2 7t2 7zM225 1303q-1 3 -4 10.5 t-5 11.5t-6.5 8t-10.5 4q-4 0 -8.5 -4.5t-4.5 -9.5q0 -8 9 -21.5t16 -13.5q4 0 6 2t4.5 7t3.5 6zM801 479q0 19 -13 19q-12 -16 -12 -31q0 -12 2 -18q14 5 18.5 11t4.5 19z" />
<glyph unicode="W" horiz-adv-x="1589" d="M1528 1354q0 -13 -17 -101q-2 -10 -9.5 -31.5t-8.5 -47.5q-5 -91 -8 -109q-4 -40 -20.5 -108.5t-30.5 -108.5q-17 -51 -29 -146q-7 -52 -23 -86q-12 -22 -20.5 -82t-9.5 -65q-4 -18 -14.5 -51.5t-14.5 -48.5q-4 -20 -10 -60t-10 -59l-52 -209q-14 -59 -90 -59 q-19 0 -55 5t-55 5q-73 0 -111 55q-6 9 -35 107q-1 4 -10.5 30.5t-13.5 42.5q-1 5 -5.5 36.5t-11.5 45.5q-13 26 -30 99q-18 103 -37 147q-16 -8 -19 -27q-28 -128 -39 -166q-7 -23 -14.5 -66t-11.5 -60q-6 -18 -11 -51.5t-8 -47.5q-36 -149 -76 -149q-7 0 -28 6t-35 6 q-21 0 -64 -5t-65 -5q-60 0 -78 30q-8 12 -8 21q-2 27 -18.5 89t-16.5 89q0 10 -4.5 29.5t-11.5 46t-8 31.5q-30 106 -39 174q-13 98 -35 178q-4 17 -8.5 60t-12.5 65q-13 43 -18 84q-4 22 -8 35q-16 50 -31 129q-5 35 -36.5 146t-31.5 153q0 24 16 43t40 20q29 1 88.5 13 t89.5 12q74 0 88 -37q13 -31 23 -90.5t14 -73.5l33 -135q2 -7 9.5 -57.5t12.5 -59.5q14 -30 17 -88q0 -28 16 -82q4 10 11 46t7 48v13q0 54 31 155q4 15 8 45q4 21 19.5 82t21.5 94q10 47 29 84q9 18 31 27.5t46.5 11t50.5 2.5t44 0h14q26 0 76 -8q21 -3 27 -22 q29 -71 45 -150q6 -29 20.5 -81.5t18.5 -71.5q49 -204 79 -285q13 21 13 53q8 86 35 199q2 7 18 102q35 149 45 207q4 23 13 36.5t26.5 19t31 7t38.5 1.5q17 0 49 -2.5t47 -2.5q4 0 12 1t12 1q37 0 69 -19.5t32 -53.5zM1272 795q0 14 -8 22q-20 -17 -35 -112q-1 -5 -8 -18 t-7 -19q0 -16 -1 -34.5t-2.5 -40t-2.5 -34.5q9 0 9 12l16 62q1 2 6 15t6 20q17 63 25 112q0 2 1 7.5t1 7.5zM422 401l2 7q-4 14 -8 39t-8 38q-3 11 -11 39t-12.5 42t-12 36.5t-15.5 41t-17 36.5h-2q3 -46 51 -203l17 -63l8 -13q1 0 4 -1t4 -1v2zM963 776v6l-68 205 q-3 10 -16 17q0 -1 -1 -5t-1 -6q0 -42 34 -108q10 -17 25 -54.5t25 -54.5h2zM690 803q0 6 -4 8l-4 2q-7 -16 -24.5 -86t-16.5 -90v-8l4 2q45 108 45 172zM340 1288q-13 65 -23 82q-10 -20 -10 -29q0 -4 4.5 -16t11 -25.5t7.5 -15.5q4 -4 6 -4q4 4 4 8zM1102 195q0 24 -23 43 q-4 -12 -4 -21q0 -29 19 -45q8 12 8 23zM528 98q0 5 -8 13t-12 8q-6 0 -13.5 -6.5t-7.5 -12.5q0 -7 5.5 -11.5t11.5 -4.5t15 4.5t9 9.5zM1329 1151q0 6 -6 18q-16 -19 -16 -49q0 -6 4 -12q2 1 5.5 2t4.5 2q8 24 8 39zM287 1032v4q0 10 -6 26.5t-13 16.5q-1 0 -3 -1t-3 -1 v-10q0 -37 21 -37zM737 1325v8l-10 10q-12 -7 -12 -24q0 -8 4 -12q1 0 3 -1t3 -1q12 0 12 20z" />
<glyph unicode="X" horiz-adv-x="1419" d="M1358 72q0 -3 -1 -8t-1 -7q-7 -18 -12.5 -27.5t-13 -14t-13.5 -5.5t-20.5 -2.5t-26.5 -3.5q-21 -6 -43 -6q-10 0 -31 2t-33 2q-21 0 -64 -3t-65 -3q-20 0 -30 2q-46 9 -78 78q-21 39 -62.5 109t-56.5 98q-5 9 -21 39.5t-28 50t-25 35.5q-3 -3 -20.5 -26.5t-28.5 -35.5 q-18 -18 -39 -55q-29 -60 -79 -139.5t-93 -133.5q-24 -30 -76 -30q-11 0 -33 1t-34 1q-165 5 -211 10q-53 5 -53 39q0 24 22 55q12 16 33 58l45 65q117 177 258 426q51 82 51 96q0 7 -10 27q-71 99 -193 281q-20 31 -68.5 108.5t-76.5 118.5q-35 50 -43 59q-1 2 -6.5 8.5 t-9.5 12.5t-5 10q-2 2 -2 8q0 17 19 25q55 18 207 18q144 0 162 -16q10 -9 26.5 -37.5t22.5 -36.5q43 -52 102 -145q48 -83 68 -103q5 -10 12 -10q2 0 4 2t3.5 4.5t2.5 3.5q11 18 33.5 49.5t30.5 44.5q28 41 72 119.5t63 108.5q9 19 33 22q29 6 88 6h231q47 0 47 -22 q0 -8 -2 -10q-7 -17 -26 -44t-23 -34q-29 -48 -85.5 -146.5t-86.5 -146.5q-1 -2 -45.5 -74t-78.5 -131t-34 -69q0 -12 11 -23q48 -65 114 -166q4 -6 30.5 -41.5t37.5 -54.5q16 -28 52 -73.5t50 -67.5q4 -7 47.5 -70t76 -115t32.5 -67zM561 446h-4q-9 0 -12 -8 q-7 -14 -35.5 -56t-51 -78.5t-22.5 -49.5q0 -10 2 -16h4q7 0 7 8q6 10 36 55.5t41 71.5q4 13 17.5 36t17.5 37zM1114 328l2 4l-29 47q-35 60 -61 86q-1 2 -10.5 17t-18 26.5t-12.5 11.5q-2 0 -4.5 -1t-3.5 -1q4 -10 11 -21t16.5 -24t13.5 -18q6 -10 27.5 -45.5t31.5 -55.5 q6 -6 8 -6q12 -5 23 -16zM965 1176v6l-4 2q-6 -8 -16.5 -26t-12.5 -21q-35 -54 -49 -95q-2 -5 -16.5 -29t-14.5 -30q0 -5 6 -8q7 8 14 19t14 25.5t11 20.5l59 99l5 10q0 15 4 27zM557 1102v4q-6 7 -25.5 35t-36 48t-30.5 28v-5q35 -63 86 -108zM188 1329q-2 3 -6 13t-8.5 16 t-9.5 6q-23 0 -23 -14q0 -8 14 -22.5t23 -14.5q10 0 10 16zM991 195q0 19 -12 51q-18 -18 -18 -35t10 -37q11 3 15.5 7t4.5 14zM227 145v7l-8 2q-1 -2 -9 -16t-14 -25.5t-6 -14.5q0 -1 1.5 -4t1.5 -4q14 -1 24 19t10 36zM688 731q0 18 -12 27q-10 -3 -10 -17q0 -32 18 -34 q4 16 4 24zM1190 1337q0 5 -4 9t-8 4q-8 0 -31 -31q4 -2 10 -2q9 0 21 6t12 14z" />
<glyph unicode="Y" horiz-adv-x="1366" d="M1305 1399v-4q0 -15 -11 -37q-13 -24 -41 -69t-41 -68l-51 -91q-63 -111 -100 -190q-11 -27 -24.5 -53.5t-34.5 -64.5t-27 -50q-5 -9 -26 -47t-29 -61q-5 -15 -28 -48t-24 -65v-23q0 -22 3 -67t3 -68q0 -19 1.5 -54t1.5 -54q0 -13 -2.5 -41t-2.5 -41q0 -6 2.5 -19.5 t2.5 -19.5q0 -20 -5 -56.5t-6 -52.5q-2 -61 -121 -61q-17 0 -35 2.5t-41.5 7t-33.5 6.5q-23 3 -32.5 4t-24.5 5t-20 9.5t-11.5 15t-8 23.5t-1.5 35q0 61 -3.5 175t-3.5 137v90q0 1 -2 8.5t-4 11.5q-18 25 -40 75t-29 63l-97 176q-4 9 -19.5 33.5t-21.5 41.5 q-8 22 -31.5 59.5t-31.5 55.5q-24 51 -78 145t-59 103q-11 17 -33.5 61t-22.5 52q0 19 20 33t40 14h143q2 0 31.5 0.5t43 0t37.5 -3t39.5 -9t24.5 -17.5q37 -48 68 -115l117 -231q44 -90 65 -123q17 22 33 52.5t33 70t26 57.5q103 205 140 285q9 16 26 24q28 17 70 17 q30 0 90 -5t90 -5q61 0 86 -7q13 -4 16 -9t5 -19zM1024 1186q0 2 -6 8q-9 -11 -51.5 -85.5t-42.5 -82.5q0 -6 8 -10l5 4q5 4 7 8q80 144 80 158zM471 1114v6l-45 90l-14 17l-2 -2q1 -3 7 -18t7 -21q1 -12 6 -22.5t9 -16t13 -16t13 -15.5zM1200 1354l-4 8q-13 -4 -24 -20.5 t-11 -30.5q0 -13 10 -13q4 0 8 4.5t7.5 12.5t5.5 14l5 15t3 10zM557 735l6 -4q-16 42 -31 57q-4 4 -4 9q-2 10 -11.5 29.5t-16.5 19.5h-4v-8q4 -16 9 -24.5t11.5 -16.5t11.5 -17zM672 307v17q0 25 -6 49h-4q-5 -39 -5 -94q0 -11 13 -11q0 6 1 19.5t1 19.5zM186 1346 q0 13 -8.5 24t-21.5 12q0 -2 -1 -7t-1 -7q0 -14 28 -33q4 4 4 11zM793 750q0 8 -7 8q-6 0 -13 -8.5t-7 -14.5q0 -8 10 -8q6 0 11.5 8.5t5.5 14.5zM786 94q0 8 -6 8t-13 -8t-7 -14q0 -8 10 -8q5 0 10.5 8.5t5.5 13.5z" />
<glyph unicode="Z" horiz-adv-x="1146" d="M1024 129q0 -29 -10.5 -69.5t-30.5 -43.5q-22 -3 -143 -8q-10 0 -30 -2t-30 -2q-22 0 -65 2t-64 2q-25 0 -72.5 -4t-70.5 -4q-18 0 -53 1t-52 1q-9 0 -28.5 -2t-28.5 -2q-8 0 -23.5 4t-23.5 4l-70 2q-10 0 -30.5 -3t-30.5 -3q-19 0 -32 11.5t-13 29.5q0 49 8 135 q2 4 2 12q0 16 -4 48t-4 49q0 57 88 202q1 2 10 16t13 21q14 44 61 113q13 17 16 25l37 86q5 10 18 29t19 34q18 53 41 100q4 7 14 21.5t11 15.5q65 125 65 150q0 16 -26 16q-20 0 -56.5 -0.5t-66.5 -0.5t-56 1q-9 0 -27.5 2t-27.5 2q-13 0 -37 -3t-35 -3q-15 0 -24 5 t-12 16t-4 19t-1 24q0 12 2.5 32.5t2.5 30.5q0 21 -4.5 64t-4.5 65q0 37 24.5 48.5t65.5 11.5q7 0 20 -1.5t19 -1.5q14 0 40 2.5t40 2.5h107q16 0 46 2t44 2q9 0 27.5 -1t27.5 -1q18 0 53 2t52 2q32 0 95 -1t93 -1q64 0 78.5 -15.5t23.5 -76.5q1 -7 2 -11q1 -6 4 -27.5 t3 -31.5q0 -12 -1 -37t-1 -37q0 -30 -13 -41q-31 -57 -37 -67q-20 -31 -38.5 -65t-42.5 -82t-35 -68q-12 -21 -41 -68t-43 -74q-34 -70 -68 -98q-7 -7 -22 -41t-21 -43q-10 -16 -35 -61t-41 -68q-21 -29 -30 -72q4 0 30 -3t41 -3q14 0 39 1t39 1q12 0 34 -2t34 -2 q10 0 29.5 2t29.5 2q80 6 166 6q43 0 43 -65q0 -27 1 -80t1 -80zM778 137q0 4 -4 4q-51 -5 -143.5 -5t-130.5 -3q45 -10 82 -10q60 0 178 8q18 2 18 6zM768 1038q0 1 -1 3t-1 3q-5 -3 -38.5 -50.5t-33.5 -49.5q0 -6 3 -18t3 -15q25 25 31 54q2 13 19.5 40t17.5 33zM535 741 q0 2 -1.5 4t-3 5t-2.5 4q-10 -11 -35.5 -58.5t-25.5 -56.5q0 -1 1 -4t1 -4q9 9 37.5 56t28.5 54zM395 1182l-2 4q-35 -6 -99 -6t-89 -2q33 -11 55 -11q31 0 123 9q1 1 6.5 2.5t5.5 3.5zM623 1329q-21 8 -54 8q-41 0 -65 -12q14 -2 41 -2h12q12 -2 35.5 0t30.5 6zM342 391 q0 12 -12 12q-8 0 -15.5 -5.5t-7.5 -12.5q0 -6 5.5 -11t11.5 -5q18 0 18 22zM874 1253q0 12 -3.5 16.5t-14.5 4.5q-12 0 -12 -6q0 -9 3.5 -20t10.5 -11q16 0 16 16zM942 272q-4 13 -16 13q-8 0 -21 -13q8 -12 19 -12q12 0 18 12z" />
<glyph unicode="[" horiz-adv-x="929" d="M825 -236q0 -71 -2 -106q0 -27 -18 -29h-37q-52 0 -157 -5t-158 -5h-11q-16 -4 -24 -4h-68q-28 0 -78 7.5t-67 8.5q-23 1 -31 8.5t-14 30.5q-5 25 -5.5 73.5t-4.5 70.5q0 2 -1.5 5t-1.5 5q0 22 -2 64.5t-2 64.5q0 15 6.5 44t6.5 44q0 17 1 53.5t1 55.5q0 76 2 92 q0 5 1 15t1 15q0 6 -2 18t-2 17q0 16 3 49t3 50q0 13 -2 38t-2 37q0 7 1 22.5t1 22.5q0 9 -1 28t-1 28q0 15 2 42t2 40q0 5 -2 15t-2 15q0 16 2 50t2 51q0 3 -6 168v172q-6 189 -6 194q0 21 4.5 37.5t9.5 27t18.5 18t21 11t27 5.5t27.5 2.5t32.5 0t31.5 -0.5h100 q25 0 43 -11q36 8 59 8q14 0 43 -3t45 -3q17 0 52.5 3t54.5 3q45 0 78 -8q10 -2 16 -9.5t8 -20.5t2.5 -22.5t0 -26t-0.5 -19.5q0 -69 -2 -104q0 -10 -0.5 -15t-5 -10t-12.5 -6h-37q-119 3 -225 -8h-21q-5 0 -14 0.5t-17 0.5t-14 -1q-2 -12 -2 -37q0 -84 2 -125q0 -4 2 -14 t2 -15q0 -82 -4 -250q-1 -17 -2.5 -47.5t-2.5 -55.5t-1 -48q0 -22 1 -63.5t1 -61.5q0 -13 -1 -37t-1 -35q0 -30 2 -89t2 -87q0 -50 -4.5 -163.5t-3.5 -174.5l2 -12q5 1 25 4.5t32 3.5q14 0 43 -3t45 -3q17 0 52.5 3t54.5 3q28 0 78 -8q10 -2 16 -10t8 -21.5t2.5 -23.5 t0 -25.5t-0.5 -18.5zM391 1028q0 98 -10 123q-4 -12 -4 -16q0 -15 -1 -45t-1 -46q0 -14 1 -39t1 -38t-2 -37t-2 -37q0 -10 1 -32t1 -34q0 -8 4 -8q8 0 8 19q0 12 -1 37.5t-1 39.5q0 18 3 55.5t3 57.5zM322 260q0 15 -9 80q-8 -79 -8 -178v-45q0 -74 6 -113q11 92 11 256z M737 -283l11 7q-54 6 -56 6q-62 -4 -94 -4q-3 0 -9 1t-9 1q-8 0 -22 -4.5t-21 -4.5l-2 -4q12 -2 36 -2h107q39 0 59 4zM641 1249q-12 4 -26.5 5t-35 0t-26.5 -1q-15 0 -29 -14q4 0 12.5 -1t12.5 -1q49 0 92 12zM250 -313q-6 8 -21 8q-14 0 -26 -8q15 -11 28 -11t19 11z M256 1325q0 11 -6 23q-12 -21 -12 -43v-11q18 9 18 31zM750 1380q0 5 -4.5 10t-8.5 5q-6 0 -10 -6t-4 -11q0 -10 10 -10q5 0 11 4t6 8zM291 633v18q0 10 -6 19q-13 -20 -13 -25q0 -6 19 -12z" />
<glyph unicode="\" horiz-adv-x="1050" d="M969 55q0 -57 -221 -57q-33 0 -50.5 17t-33.5 53q-43 86 -107 225q-10 25 -33 69q-20 37 -51.5 106t-46.5 99q-25 48 -115 252l-51 111q-8 19 -30.5 74.5t-36.5 85.5q-12 28 -43 106.5t-52 120.5q-16 29 -16 59q0 22 6.5 30.5t28.5 14.5q7 2 36.5 11.5t45.5 14t40 9 t42 4.5q64 0 102 -49q9 -12 17 -25t15.5 -29t12 -26.5t12.5 -30.5t11 -28q1 -2 18 -37q13 -31 27 -70q25 -65 84 -190q19 -39 37.5 -84t41 -104t33.5 -87l123 -290q45 -102 53 -123q10 -25 35.5 -70t34.5 -67q31 -70 31 -95zM758 401q-3 20 -19 53.5t-20 49.5h-21 q2 -3 11.5 -23t16.5 -33t16.5 -27.5t15.5 -19.5zM299 1063l4 -2q-28 82 -59 115q10 -50 55 -113zM524 854q-8 73 -24 86q-1 2 -5.5 4t-10.5 3.5t-7 2.5q8 -19 26 -54.5t21 -41.5zM168 1327v6q3 18 -16 29q-9 -9 -9 -19q0 -6 5 -11t12 -5h8zM750 98l20 6q-5 23 -20 23 q-7 0 -9 -4v-2q0 -19 9 -23zM508 631l20 -2q0 21 -12 28q-8 -8 -8 -18v-8z" />
<glyph unicode="]" horiz-adv-x="929" d="M104 -236q0 1 -0.5 18t0 26t3 23t8.5 22t16 10q50 8 78 8q19 0 54 -3t52 -3q16 0 45 3t43 3q12 0 32.5 -3.5t25.5 -4.5l2 12q1 61 -3.5 174.5t-4.5 163.5q0 28 2 87t2 89q0 11 -1 35t-1 37q0 20 1 61.5t1 63.5q0 23 -1 48t-2.5 55.5t-2.5 47.5q-4 168 -4 250q0 5 2 15 t2 14q2 41 2 125q0 25 -2 37q-6 1 -14 1t-17 -0.5t-14 -0.5h-21q-106 11 -225 8h-37q-19 2 -19 31q-2 35 -2 104q0 2 -0.5 19.5t0 26t3 22.5t8.5 21t16 9q33 8 78 8q19 0 54 -3t52 -3q16 0 45 3t43 3q24 0 60 -8q18 11 43 11h100q7 0 31.5 0.5t32.5 0t27.5 -2.5t27 -5.5 t21 -11t18.5 -18t9.5 -27t4.5 -37.5q0 -5 -6 -194v-172q-6 -165 -6 -168q0 -17 2 -51t2 -50q0 -5 -2 -15t-2 -15q0 -13 2 -40t2 -42q0 -9 -1 -28t-1 -28q0 -7 1 -22.5t1 -22.5q0 -12 -2 -37t-2 -38q0 -17 3 -50t3 -49q0 -5 -2 -17t-2 -18q0 -5 1 -15t1 -15q2 -15 2 -92 q0 -19 1 -55.5t1 -53.5q0 -15 6 -44t6 -44q0 -22 -2 -64.5t-2 -64.5q0 -2 -1 -5t-1 -5q-4 -22 -4.5 -70.5t-5.5 -73.5q-6 -23 -14 -30.5t-31 -8.5q-17 -1 -67 -8.5t-78 -7.5h-68q-9 0 -25 4h-10q-53 0 -158 5t-157 5h-37q-19 2 -19 29q-2 35 -2 106zM539 1028q0 -20 3 -57.5 t3 -55.5q0 -14 -1 -39.5t-1 -37.5q0 -19 8 -19q4 0 4 8q0 12 1 34t1 32q0 13 -2 37t-2 37t1 38t1 39q0 16 -1 46t-1 45q0 4 -4 16q-10 -25 -10 -123zM608 260q0 -172 10 -256q7 46 7 113v45q0 92 -9 180q-8 -58 -8 -82zM182 -276l11 -7q20 -4 59 -4h106q25 0 37 2l-2 4 q-7 0 -21 4.5t-22 4.5q-3 0 -9 -1t-9 -1q-32 0 -94 4q-2 0 -56 -6zM289 1249q43 -12 92 -12q4 0 12.5 1t12.5 1q-14 14 -29 14q-6 0 -26.5 1t-35 0t-26.5 -5zM680 -313q6 -11 18 -11q14 0 29 11q-12 8 -27 8q-14 0 -20 -8zM674 1325q0 -22 18 -31v11q0 22 -12 43 q-6 -12 -6 -23zM180 1380q0 -4 6 -8t11 -4q10 0 10 10q0 5 -4 11t-10 6q-4 0 -8.5 -5t-4.5 -10zM639 651v-18q18 6 18 12q0 7 -12 25q-6 -9 -6 -19z" />
<glyph unicode="^" horiz-adv-x="1257" d="M1155 735q0 -6 -2 -10.5t-6.5 -7t-9 -4t-11.5 -2t-11 -0.5h-11.5h-9.5q-40 0 -121.5 -2t-122.5 -2q-31 0 -39 24q-14 34 -72 113q-23 31 -55.5 98t-56.5 98q-14 -6 -29 -28q-7 -13 -123 -199l-72 -113q-22 -32 -61 -32q-7 0 -22.5 1t-22.5 1q-17 0 -49 -2t-49 -2 q-21 0 -34 1.5t-29.5 6.5t-25 17t-8.5 32q0 39 52 123q33 53 93.5 154.5t88.5 146.5q46 68 84 156q15 39 53 106q14 23 88 23q25 0 77 2t79 2q20 0 30 -3.5t21 -17.5q29 -35 64.5 -102.5t41.5 -77.5q10 -21 32.5 -60t29.5 -51l57 -90l19 -35l39 -65q16 -25 41 -73.5 t32 -61.5q5 -7 18 -33t13 -31zM401 1057q0 6 -6 6q-2 0 -6 -4l-16 -23q-10 -13 -13 -26q-4 -15 -11.5 -29.5t-19 -32t-16.5 -26.5q0 -1 -1 -4t-1 -5q0 -4 4 -8q10 20 19 27q5 -2 7 4q1 1 1 2q5 18 23.5 46t23.5 44q5 14 6 16q6 6 6 13zM872 879q-7 34 -12 39q-2 2 -19 33.5 t-28 37.5l-4 -4q7 -19 31 -62.5t32 -43.5zM745 1223l7 6q0 2 -5.5 8.5t-5.5 9.5q-5 15 -36 51v-8q0 -22 38 -65zM578 1171q0 8 -9.5 14.5t-17.5 6.5q-6 0 -11 -6t-5 -12q0 -7 18 -13q25 0 25 10zM1092 774q0 5 -4.5 12t-8.5 7q-1 0 -10 -9q0 -22 12 -22q11 0 11 12zM188 774 l-8 2q-7 0 -12.5 -4.5t-5.5 -11.5v-6q21 3 26 20z" />
<glyph unicode="_" horiz-adv-x="720" d="M895 -233v-21q-5 -26 -39 -29q-56 -6 -117 -6q-41 0 -124.5 4t-125.5 4q-43 0 -130 -3t-130 -3h-209q-24 0 -70.5 -3t-68.5 -3q-19 0 -31 5t-16.5 17.5t-6 23t-1.5 30.5q0 11 1 35t1 35q0 73 37 77q74 9 106 9q13 0 40 -5.5t42 -5.5q21 0 63 3t62 3q6 0 18.5 -1t18.5 -1 q25 0 73 1t72 1q26 0 76 -1t76 -1q101 0 152 2q9 0 28.5 1.5t28.5 1.5q5 0 15.5 -1.5t15.5 -1.5q10 0 30 2.5t29 2.5q30 0 41 -15q3 -4 20.5 -12t18.5 -23q4 -82 4 -122zM754 -233q-28 10 -195 10q-7 0 -20 -1t-19 -1q34 -15 74 -15h27q54 0 133 7zM80 -172q-16 8 -82 8 q-64 0 -80 -8q6 -6 23 -6q105 0 139 6zM369 -186q-2 1 -9 6t-12.5 7.5t-11.5 2.5q-23 0 -23 -14v-4q6 -2 17 -2h6q13 0 33 4z" />
<glyph unicode="`" horiz-adv-x="468" d="M469 1094q0 -25 -127 -25q-9 0 -26.5 2t-26.5 2q-29 0 -45 21q-32 36 -138 172t-106 145q0 6 9 10t25.5 6t34 3.5t39.5 2t37.5 0.5t32.5 -0.5t19 -0.5q69 0 90 -33q2 -3 33 -52t63 -98.5t59 -97.5t27 -57zM377 1139l4 4v8q-1 1 -6 10t-9.5 16.5t-10 16t-10 13.5t-7.5 5 q-10 0 -10 -8q0 -3 24 -51q3 -3 25 -14zM125 1337v4q0 20 -29 31q0 -2 -1 -6.5t-1 -7.5q0 -10 7 -16.5t18 -6.5z" />
<glyph unicode="a" d="M1124 43q0 -42 -99 -41h-7q-33 0 -97.5 4t-95.5 4q-34 0 -48.5 14t-20.5 46q-19 111 -29 123l-4 2q-21 4 -92 4q-7 0 -20 2t-19 2q-16 0 -50.5 -4.5t-52.5 -3.5h-43q-10 0 -14 -2q-3 -4 -14 -60q-1 -5 -6.5 -30t-8 -33.5t-10.5 -27t-16.5 -26.5t-24 -15t-35.5 -7 q-10 0 -29.5 2t-29.5 2l-141 4q-7 0 -19 4q-37 10 -37 43q0 18 23.5 97t57 184t36.5 114q8 26 30 114t40 134q7 20 14 53q3 24 26 95.5t23 91.5q0 4 -2 13t-2 13t12 58q1 6 11 45t14 61q3 22 16 61t17 58q5 20 37 127q8 31 43 37q29 27 110 27v4l88 -9q31 -3 43 -30 q10 -22 19.5 -51t15 -48t14.5 -56t13 -50q12 -45 39 -134t39 -134q22 -79 39 -131l14 -35q20 -50 63 -172q105 -306 150 -461q1 -4 6.5 -23t9.5 -35t4 -24zM662 451h8q-2 7 -12.5 43t-14.5 49.5t-13.5 44.5t-16 49t-16.5 41.5t-19 42.5q-48 -156 -76 -266q106 -4 160 -4z M477 1014l-18 -2v6q-6 -20 -19 -78.5t-12 -65.5v-10q6 5 12 19t12 33.5t10 35.5t9 36.5t6 25.5zM354 166h-20q-21 -66 -21 -86q0 -4 4 -12q6 3 12 16.5t10 27t9 32.5t6 22zM666 291q-11 6 -24 9t-22 4.5t-25 2.5t-24 2v-26h13q4 0 20 -0.5t23.5 0t19 2.5t19.5 6zM584 1235 q0 9 -9.5 24t-17.5 15q-4 0 -5.5 -2t-3.5 -6l-3 -6q0 -1 1 -6l1.5 -7.5l1.5 -7.5t2 -8t3 -6t5 -4.5t6 -1.5q7 0 13 5t6 11zM938 324q0 8 -17.5 50t-21.5 42q-2 0 -2 -2q0 -1 3 -11.5t3 -17.5q0 -9 12 -37.5t19 -28.5q4 0 4 5zM721 782l35 -120q0 18 -9.5 72t-17.5 54 q-2 0 -5 -2.5t-3 -3.5zM1049 82q0 10 -27 37q-6 -9 -6 -21q0 -6 2 -16t2 -16q29 7 29 16zM324 496q0 6 -2.5 18t-2.5 18q-18 -36 -18 -43q0 -11 10 -18q13 10 13 25z" />
<glyph unicode="b" horiz-adv-x="1253" d="M1151 500q0 -20 -3 -46t-6.5 -45t-9.5 -50t-8 -44q-1 -3 -18 -49q-22 -57 -57 -104q-6 -9 -35 -33q-55 -51 -159.5 -83t-194.5 -41t-183 -9q-36 0 -110 4q-34 2 -98.5 2.5t-84.5 1.5q-10 0 -14.5 2t-6 5t-5.5 14q-13 40 -13 297q0 52 4.5 157.5t4.5 157.5q0 15 -2 45 t-2 45q0 8 2 24.5t2 24.5q0 9 -1 27t-1 26q0 13 2 39t2 39q0 4 -2 13.5t-2 13.5q-9 137 -9 184q0 39 2 117t2 117q0 10 17 61q3 8 16 13t32 6.5t34.5 1.5t35 -1t23.5 -1q31 0 47 2q78 6 236 6q25 0 70 -4.5t63 -5.5q76 -5 92 -7q1 0 45 -12t45 -12q79 -38 113 -72 l11.5 -11.5l14.5 -14.5t12.5 -13.5t12.5 -16.5t8 -16q39 -137 39 -208q0 -60 -27 -128t-67 -120q-3 -2 -8 -11q8 -12 14 -16q52 -46 88.5 -125t36.5 -147zM893 1243q-16 27 -62 41l-6 -2l2 -4q4 -4 32.5 -20.5t31.5 -16.5zM1008 1036q0 8 -7 8q-3 0 -6.5 -11t-6.5 -24.5 t-5 -17.5q-25 -34 -29 -45q8 -4 11 -4q13 0 28 38t15 56zM541 1360q-9 6 -23 6q-29 0 -29 -12q0 -5 8 -9t15 -4q18 0 29 19zM819 1053q0 32 -33 58t-67 26q-13 0 -40 4t-42 4q-5 0 -164 -6q-1 -7 -2.5 -19t-2.5 -22t-1 -19q0 -45 4 -135q0 -20 33 -20q26 0 76 4q9 0 43 1 t47 2t40.5 6.5t42 14t31.5 25t27 39.5q8 24 8 37zM938 694l2 8q-17 38 -35 46q-54 23 -59 24l-2 -2q13 -19 39 -37q4 -3 16 -6t16 -10q9 -14 23 -23zM285 1284q0 9 -4 25h-5q0 -1 -5 -31t-5 -31q0 -9 2 -27t2 -26q0 -5 -1 -14t-1 -13q0 -27 2 -39q15 22 15 156zM651 807 q0 4 -4 7t-11.5 5t-13.5 3t-14 2t-10 1q4 -4 4 -10q0 -5 -8.5 -11.5t-9.5 -12.5q3 0 9 -1.5t9 -1.5q10 0 29.5 5.5t19.5 13.5zM1036 457q0 35 -4 51q-20 -32 -20 -96q-4 -42 -13 -64q-3 -6 -14 -57l4 -12q19 21 33 81.5t14 96.5zM846 467q0 53 -31 113q-31 63 -151 63 q-161 0 -187 -6q-8 -94 -8 -143q0 -16 1 -48t1 -49v-31q-1 -49 9 -57t71 -8h12q75 0 152 6q59 4 95 52t36 108zM319 733q0 17 -14 17q-12 0 -12 -15q0 -20 14 -20q12 0 12 18zM739 176q0 4 -2.5 7t-6.5 6t-5 4q-13 -2 -23 -10t-10 -19q0 -10 10 -10q9 0 23 7t14 15zM340 145 q0 5 -2 14.5t-2 14.5q0 16 -1 47t-1 47q0 12 3 33t3 33v41l-6 10q-8 -28 -12 -102q0 -8 -3.5 -52.5t-3.5 -68.5q0 -44 7 -58q18 27 18 41z" />
<glyph unicode="c" horiz-adv-x="1308" d="M1227 1067q0 -25 -23 -39q-4 -2 -14 -12t-19 -10q-10 0 -81 51q-34 25 -66 30t-45 11q-44 20 -102 20q-32 0 -78.5 -7.5t-73.5 -18.5q-8 -3 -28 -8t-34 -10.5t-24 -14.5q-31 -29 -48.5 -46t-39 -44.5t-35.5 -55.5q-5 -10 -8 -32t-8 -31q-23 -40 -23 -111q0 -63 2 -73 l15 -56q7 -48 22 -79.5t49 -81.5q6 -9 13 -16.5t16.5 -14.5t16 -11.5t19.5 -11l18 -9t20 -9.5t18 -8q83 -39 168 -39q20 0 47.5 9t30.5 9q33 0 75.5 20t73.5 46q27 24 66 24q4 0 12 -1t12 -1q12 -2 20.5 -15.5t12 -36.5t5.5 -40t2.5 -43.5t0.5 -28.5l4 -24t3 -27 q0 -101 -56 -135q-6 -4 -16 -12.5t-12 -10.5q-76 -69 -258 -69q-64 0 -232 31q-29 6 -116 50t-95 48q-12 5 -125 106q-53 49 -67 76l-45 80q-7 14 -17.5 43t-17.5 43q-6 12 -10 26t-5.5 24t-4 27.5t-3.5 26.5q-16 88 -16 105q0 114 14 188q2 11 10.5 36t8.5 40q4 35 18 57 q12 17 29 58q27 63 47 98q15 25 51 70.5t53 56.5l82 53q9 6 34 13.5t38 17.5q7 5 22 9.5t19 6.5q89 33 201 52q42 6 45 6q7 0 22.5 -1t22.5 -1q14 0 44 2t44 2q18 0 51 -9.5t47 -9.5q3 0 9 1t9 1q21 0 70.5 -18t75.5 -31q33 -17 33 -51q0 -13 -1 -41t-1 -43v-98q0 -3 3 -33 t3 -45zM369 483l4 2q-8 48 -19 62l-8 16q0 9 -2 27t-2 26q0 6 2 17t2 16q0 20 -8 31l-6 2q-6 0 -6 -10v-92q0 -42 43 -97zM332 1075v4l-6 2l-4 -2q-16 -16 -17 -20q-51 -106 -51 -137v-2q8 0 8 4q8 14 26 58t31 65q1 2 7 13.5t6 14.5zM920 117q0 10 -27 10q-6 0 -22.5 -1 t-25.5 -1t-21 4.5t-19 13.5l-33 -12q14 -22 47 -22q8 0 25.5 2t25.5 2q6 0 19 -2t20 -2q11 0 11 8zM561 236l-2 4q-18 9 -37 12q-2 0 -6 -3.5t-4 -4.5q0 -4 4 -8q7 -7 19 -11q6 0 15.5 3.5t10.5 7.5zM647 1202l-6 6q-6 -1 -15 -10.5t-12 -15.5l-2 -4q1 -3 7.5 -7t9.5 -4 q4 0 11 15.5t7 19.5zM1126 1159q0 9 -12 33h-4q-6 -6 -6 -23q0 -5 3 -13.5t7 -8.5t8 4.5t4 7.5zM1108 315q0 7 -4 7q-10 -2 -37 -23q8 -8 10 -8q7 0 19 8.5t12 15.5zM874 1339h33l-6 29l-6 2z" />
<glyph unicode="d" horiz-adv-x="1347" d="M1225 709q0 -4 -6 -58q-9 -52 -22 -98t-23 -72t-37 -92q-8 -19 -22 -37t-39.5 -44.5t-31.5 -33.5q-9 -9 -27 -29t-28 -30q-53 -53 -96 -74l-23 -18q-66 -46 -129 -68q-131 -49 -331 -49q-12 0 -37 -2t-37 -2q-3 0 -84 6l-27 2q-22 1 -36 12t-20 30.5t-8 34t-3 38.5l2 2 q-8 139 -8 313q0 17 5 50.5t5 50.5q0 8 -2 12q-4 9 -4 43q0 27 -2 83t-2 85q0 14 2 43t2 45q0 14 -3 43t-3 43v27q0 12 -3.5 35.5t-3.5 37.5t2 43t2 43q0 13 -2 37t-2 35q0 14 9 32.5t10 28.5q0 47 22 111q4 10 10.5 18.5t13 14.5t17 10.5t18 7.5t21.5 5.5t20.5 3.5t22 1.5 t21 0.5h21.5h18q8 0 24.5 -2.5t24.5 -2.5q5 0 14.5 1t13.5 1q26 0 74.5 -6.5t67.5 -7.5q25 -13 77.5 -24.5t71.5 -18.5q71 -26 156 -82q102 -67 151 -108q26 -20 47 -50t44 -74.5t32 -60.5q26 -41 43 -132.5t17 -153.5zM891 711q0 12 -1 24.5t-2.5 28t-2.5 24.5 q-6 103 -80 177l-27 22q-41 45 -88 66.5t-125 42.5q-20 4 -59 4q-12 -72 -12 -78q-7 -98 -7 -250q0 -6 -1 -20t-1 -21q0 -54 4 -164q0 -15 -1 -46t-1 -48q0 -10 3 -33.5t2 -36.5v-36q0 -33 16 -33q28 0 50.5 3t48 13t36 14.5t44.5 23.5t44 24q6 3 37 34q48 57 75.5 104.5 t37.5 104.5q1 8 5.5 26.5t4.5 29.5zM254 451v6q0 3 -6 102l-2 2q-10 -30 -10 -39q0 -3 1 -8.5t1 -9.5q0 -11 -3.5 -36t-3.5 -38q0 -59 9 -80q3 3 4 6t1 7.5t1 7.5q5 71 8 80zM748 1241q0 5 -28 13t-68.5 16.5t-43.5 9.5l-10 -4q123 -49 135 -49q15 0 15 14zM1112 762 q0 49 -12 61q-4 -6 -4.5 -11.5t1 -12.5t1.5 -11q0 -1 -1 -3t-1 -3q-13 -67 -13 -100v-6l7 -6q6 6 14 43t8 49zM911 287v4h-6q0 -1 -5 -3.5t-10.5 -5t-6.5 -3.5q-36 -15 -70 -35q4 -4 10 -4q13 0 41 16.5t47 30.5zM279 1309q0 7 -5.5 15.5t-13.5 8.5q-6 0 -9 -6t-4 -18 t-1 -13l30 -6q0 3 1.5 9.5t1.5 9.5zM389 125q0 8 -5.5 11.5t-17 4t-12.5 0.5l-16 -24l4 -4q47 0 47 12zM948 1051q0 4 -11.5 11t-16.5 7q-3 0 -23 -10q28 -21 39 -21q1 0 4 1t4 1q4 4 4 11zM338 926q0 12 -8 16q-17 -6 -17 -33q0 -6 4 -18q21 21 21 35z" />
<glyph unicode="e" horiz-adv-x="1232" d="M1130 131q0 -137 -71 -137q-19 0 -59.5 3t-59.5 3q-1 0 -172 -6q-22 -1 -62 -2.5t-73 -2.5t-62 -1q-23 0 -87 6t-83 10q-4 2 -12 2t-24.5 -3t-24.5 -3q-34 0 -104 4q-49 6 -64 51q-14 44 -14 78q0 11 -1 34t-1 34q0 36 -6.5 106t-6.5 105q0 7 3.5 20.5t3.5 20.5 q0 17 1 48t1 48v49q0 18 2 51t2 51v5q-6 18 -6 40q0 19 2 57t2 56q0 6 -2 18.5t-2 18.5q0 13 2 36t2 36q0 20 -3.5 62.5t-3.5 62.5q0 16 2.5 45t2.5 45q0 4 -2.5 12t-2.5 12t1.5 12.5t1.5 12.5q1 10 2 41t3.5 49.5t9 43t20.5 39t36 19.5l49 13l6 -11q20 0 60 -1t61 -1 q11 0 34.5 2t35.5 2q148 9 195 9q8 0 22.5 -5.5t22.5 -5.5q11 0 33 2.5t34 2.5t34 -2.5t32 -2.5q32 0 94 5.5t94 5.5q25 0 47 -10.5t23 -34.5q4 -70 4 -103q0 -98 -8 -129q-7 -23 -18.5 -31t-35.5 -10q-82 -2 -249 -2q-15 0 -46 2t-47 2q-18 0 -53 -4t-53 -4q-12 0 -36 2 t-36 2q-25 0 -31.5 -5.5t-7.5 -31.5v-65q0 -7 -1 -20.5t-1 -20.5q0 -21 21 -21q8 0 24.5 2t24.5 2q33 2 100 2q53 0 159 1.5t159 1.5q86 0 86 -56q0 -13 -2 -40t-2 -40q0 -73 2 -86q-6 -27 -13 -45.5t-17 -30t-18.5 -17.5t-25.5 -8t-29 -2t-37 0.5t-43 0.5q-13 0 -37 -1 t-36 -1q-17 0 -50 5t-49 5q-13 0 -35.5 -2t-33.5 -2q-12 0 -38 2t-40 2q-2 0 -12.5 0.5t-14 0t-11 -2t-10.5 -4.5t-6 -9t-3 -14v-241q0 -22 8 -76q41 -2 123 -2q14 0 43 -1t45 -1q34 0 101 1t101 1q137 0 174 -10t41 -62q0 -15 1 -46t1 -48zM258 903q0 13 -3 40t-3 40 q0 7 1.5 16t1 13t-4 10t-12.5 12q-5 -122 -5 -147q0 -1 1.5 -4t1.5 -4q10 -20 10 -37q4 -6 6 -6q4 4 4 6q0 10 1 30.5t1 30.5zM414 451q0 107 -6 116q-11 -72 -11 -121v-24q0 -30 4 -92q13 19 13 121zM535 129v2q-18 6 -21 6q-6 0 -17.5 -2t-17.5 -2h-39q-1 0 -14 0.5 t-22 0.5t-20 -2t-15 -5l53 -14q43 5 113 16zM815 1235q-40 10 -53 10q-22 0 -115 -10v-2q16 -4 23 -4q12 0 36 1t37 1q1 0 13 -0.5t22 -0.5t21 1t16 4zM700 778q-18 4 -50.5 4.5t-47.5 3.5q-25 -5 -37 -14q24 -6 47 -6q30 0 88 12zM907 750q-16 4 -24 4q-10 0 -21 -19 q9 -6 19 -6q18 0 26 21zM336 1327q-2 2 -8 2q-11 0 -29 -18l7 -5q7 -6 11 -6q10 0 19 27zM1038 1376q-9 6 -22 6q-17 0 -31 -18h12q17 0 41 12zM969 170q-8 4 -11 4q-4 0 -11.5 -2.5t-13.5 -6t-5 -7.5v-2q2 0 6 -1t6 -1q19 0 29 16z" />
<glyph unicode="f" horiz-adv-x="1169" d="M1067 1343q0 -24 -4.5 -68t-5.5 -61q-2 -77 -139 -77q-7 0 -22 -2t-22 -2t-22 4t-23 4q-7 0 -21.5 -1t-21.5 -1q-12 0 -34 2t-33 2q-10 0 -31 -2t-31 -2q-7 0 -22.5 2t-22.5 2q-80 0 -129 -10q-6 -1 -10 -6t-6.5 -13t-3.5 -16t-1.5 -19t-0.5 -18v-17v-12q0 -44 4 -67 q0 -13 14 -13q8 -1 21 -2.5t24 -2.5t21 -1h14q15 2 43 -2t39 -4q51 0 152.5 4t152.5 4q15 0 26.5 -3t19.5 -6.5t13 -12.5t8 -13.5t4 -18.5t1 -19.5v-23v-22.5q0 -38 -4 -116q0 -30 -8.5 -41.5t-36.5 -24.5q-12 -5 -27 -7.5t-25.5 -3t-28 -1t-26.5 -0.5l-160 -4 q-117 -6 -120 -6q-9 0 -27 1t-27 1q-37 0 -39 -21q-4 -74 -4 -108q0 -66 3.5 -199.5t3.5 -200.5q0 -32 -3 -59q-3 -15 -14.5 -26.5t-25.5 -14.5q-38 -8 -218 -8q-44 0 -71 53q-8 14 -8 49q0 12 2 38t2 38q0 18 -3 56t-3 57q0 9 1 26t1 25q-1 15 -5 58.5t-4 66.5t4.5 70 t4.5 71q0 21 -2.5 65.5t-2.5 67.5q0 7 1.5 23t1.5 24q0 7 -2.5 23t-2.5 24q0 12 1.5 48.5t0.5 56.5q0 25 -2 77.5t-2 79.5q0 13 2 40t2 40q0 17 -1 52.5t-1 54.5q0 58 23 119q5 15 34 22.5t54 7.5q5 0 15.5 -1t15.5 -1q11 0 34.5 2t36.5 2q12 0 36.5 -2t37.5 -2t37 5.5 t35 5.5q5 0 15.5 -2.5t15.5 -2.5q9 0 26.5 4.5t26.5 4.5q14 0 44 -2t46 -2q90 0 250 8q6 0 20 2t21 2q52 0 75 -24t23 -77zM373 379q0 6 0.5 40.5t0.5 57t-2 49.5t-5 39l-9 13q-6 -50 -6 -97q0 -99 10 -121q11 6 11 19zM735 733q-12 6 -14 6h-22.5h-33t-36 -0.5t-39 -2 t-33.5 -4t-28.5 -7t-16.5 -10.5q8 -4 14 -4q18 0 54 4t55 4q18 0 33 2t34.5 6t32.5 6zM764 1329q-1 1 -5.5 3.5t-8 4.5t-5.5 2q-66 0 -124 -22q6 -6 10 -6q44 0 114 8q3 1 9.5 5t9.5 5zM256 139q0 24 -18 33q-11 -22 -11 -43q0 -18 6 -33q23 16 23 43zM299 870q0 18 -23 29 q-2 -6 -2 -22v-11q0 -23 2 -35q16 3 19.5 11.5t3.5 27.5zM352 1264q-16 8 -24 8t-18.5 -5t-10.5 -12q0 -8 14 -8q25 0 39 17zM897 860q-24 8 -33 8q-14 0 -14 -12q0 -10 22 -10q17 0 25 14zM940 1206l2 6l-4 5h-10v2l-17 -5l-4 -4l4 -6q1 0 5 -1t6 -1q6 0 18 4z" />
<glyph unicode="g" horiz-adv-x="1374" d="M1229 129q0 -29 -6 -41q-23 -46 -134.5 -69t-195.5 -23q-99 0 -182 24q-8 2 -24.5 8.5t-24.5 8.5q-41 7 -95 32.5t-96 53.5q-98 62 -158.5 116t-103.5 134q-42 80 -62 190l-4 17q-3 7 -5.5 14.5t-4.5 16t-3.5 14.5t-2.5 15.5t-1.5 14.5t-0.5 16v14.5v16v15.5q0 74 8 131 q1 14 10 41t11 37q31 129 128 250t216 174q124 55 168 59q24 2 76 13.5t83 11.5q21 0 64 2t65 2q11 0 15 -2q25 -6 70.5 -14.5t82.5 -17.5t68 -22q20 -8 20 -20q0 -4 -3 -12.5t-3 -12.5q0 -8 2 -24.5t2 -24.5q0 -40 -24 -198q-4 -24 -12 -36t-31 -12q-15 0 -21 2 q-35 7 -100 23.5t-119 26.5t-102 10q-22 0 -115 -19q-9 -2 -19.5 -7t-16.5 -9.5t-17.5 -13t-16.5 -11.5q-70 -55 -104 -104q-21 -29 -36 -71t-15 -76q0 -26 7.5 -72.5t8.5 -61.5q3 -32 37 -106q26 -50 61 -78l21 -22q14 -19 34 -34t36.5 -22t43.5 -17.5t42 -17.5 q55 -28 141 -28q12 0 15 2.5t5 13.5q4 39 4 119l-2 8q0 11 -1 14.5t-5 6.5t-14 4q-23 4 -72 4v-2q-7 0 -27 1t-25.5 1.5t-19.5 2.5t-18 5.5t-12.5 10t-11 16t-5 23.5t-2.5 32q0 76 19 199q4 31 17 40t46 9q22 0 66 -2t65 -2q39 0 116.5 1t115.5 1q27 0 51 -16.5t27 -41.5 q6 -38 6 -75q0 -13 -2 -39t-2 -39v-336q0 -27 2 -83t2 -83zM940 1307q-12 12 -33 12q-74 4 -110 4q-17 0 -25 -8q-8 -6 -53 -6q-16 0 -19 -11q10 -14 23 -14q9 0 38 7.5t40 8.5q15 0 22 5q12 6 27 6q12 0 37 -3t37 -3t16 2zM592 266h6q-2 12 -16 19q-4 2 -17.5 8t-20.5 10 l-17.5 10t-17 12.5t-11.5 14.5q-5 9 -13 16t-13 10t-17.5 9t-16.5 8q0 -21 13 -31q4 -4 15.5 -14t17 -14.5t15.5 -11.5t19 -11t19 -6q8 -4 12 -8q2 -1 12 -7t18.5 -10t12.5 -4zM281 809v6q-21 -21 -21 -31t-1 -30.5t-1 -30.5q0 -46 14 -84q7 3 7 8q0 4 -1.5 13.5t-1.5 13.5 q0 22 2.5 67t2.5 68zM991 682l-4 2q-13 0 -41 -2t-41 -2q-5 0 -16 1t-17 1l-2 -2q5 -21 17 -21q75 0 104 23zM948 117q-7 30 -30 41q-10 -24 -23 -31q5 -25 18 -25q10 0 35 15zM485 1124q0 5 -4 13h-12q-11 0 -39 -47q6 -3 12 -3q12 0 27.5 12.5t15.5 24.5zM1106 1151 q0 6 -4.5 10t-9 5t-13 2t-10.5 1q-16 0 -20 -4v-10q3 -1 13 -6.5t19 -9.5t13 -4q12 0 12 16zM1100 406q0 16 -25 24q-6 -4 -8 -10.5t-2.5 -15t-1.5 -13.5q3 -10 14 -10q10 0 16.5 7t6.5 18z" />
<glyph unicode="h" horiz-adv-x="1458" d="M1315 1051q0 -17 -1 -53.5t-1 -55.5q0 -21 1 -64.5t1 -66.5q0 -3 -1 -10t-1 -10q-6 -61 -6 -187q0 -7 2 -22.5t2 -22.5q0 -33 -4 -98.5t-4 -98.5q0 -16 2 -49t2 -49q0 -7 -1 -20.5t-1 -20.5q0 -13 1 -38t1 -38q0 -26 -9 -100q-6 -40 -51 -43q-15 0 -46 -1t-46 -1t-42 3 t-42 3q-30 0 -44.5 1.5t-30 9t-21.5 24t-6 45.5q0 39 3.5 108.5t4.5 90.5q2 68 2 198q0 127 -6 146q-4 18 -23 18q-46 0 -136.5 -5t-135.5 -5q-13 0 -37 2t-35 2q-5 0 -15.5 -1t-15.5 -1q-11 0 -33 4t-34 4q-8 0 -13.5 -2t-9 -7t-5.5 -9.5t-2.5 -12.5t-0.5 -12.5v-13.5v-12 q0 -16 1 -46.5t1 -46.5t3 -40t3 -37q0 -10 -2 -30t-2 -30q0 -9 1 -28t1 -29q0 -197 -12 -262q-2 -13 -10 -21t-22.5 -11.5t-24 -4t-25.5 -0.5q-18 0 -51 4t-49 4q-79 0 -105 6q-29 5 -32 39q0 16 -3.5 94t-3.5 119q0 16 3.5 47t3.5 47v27q-2 63 -7 375q0 12 -1 36t-1 37 q0 11 1 33.5t1 34.5q0 248 2 371q0 60 9 121q1 16 8 22.5t12.5 7t26.5 0.5l108 -2h125q13 0 21.5 -10t11 -29t3.5 -33t0 -37t-1 -26q0 -24 -2 -73t-2 -74q0 -50 4 -148q2 -12 5 -15t16 -3h137q5 0 16.5 -2t16.5 -2q10 0 20.5 1t23.5 2.5t21 2.5h61q20 0 62.5 1t64.5 1h12h10 t7.5 0.5t7 2.5t4 5t3.5 8t2 12q8 78 8 238q0 22 -1 67.5t-1 69.5q0 12 3 20.5t6 14.5t11.5 10.5t12.5 6.5t16 3t16 1h18.5h16.5q188 0 219 -17q10 -5 14 -20q6 -19 8.5 -56.5t3 -63t0 -76t-0.5 -54.5q0 -15 2 -46t2 -48zM295 317v205q0 24 -10 31q-4 -29 -4 -170 q0 -43 6 -86q8 2 8 20zM1231 1018q-4 66 -4 96v184l-2 -2q-2 -22 -15 -51v-2q0 -57 2 -86q0 -16 3.5 -46t3.5 -44q0 -43 12 -49zM733 834q-12 6 -74 6q-7 0 -20.5 -1t-20.5 -1t-20 4t-20 4q-11 0 -51.5 -6.5t-45.5 -10.5q8 -4 15 -4q22 0 64 1t63 1q15 0 46 -1t48 -1 q11 0 16 9zM389 1022v16q0 53 -4 64q-18 -40 -18 -82q0 -9 4 -29q18 9 18 31zM952 737q-12 8 -45 8q-57 0 -65 -8q5 -12 22 -12q61 0 88 12zM1128 735q0 44 -12 66q-10 0 -10 -10q0 -64 16 -91q6 15 6 35zM272 1315q0 19 -18 33q-10 -8 -10 -23q0 -23 10 -33q18 7 18 23z M416 68q0 11 -13 24q-16 -20 -16 -35q0 -11 6 -20q23 18 23 31zM1110 106q0 14 -16 35q-7 -7 -7 -18q0 -4 1.5 -13t1.5 -14v-4l8 -6q12 12 12 20zM1083 1333q0 19 -8 19t-11.5 -4t-6 -15t-2.5 -12h12q16 0 16 12zM1239 383q0 6 -3.5 14.5t-8.5 8.5q-1 0 -2 -1.5t-2 -1.5 q0 -2 -1 -6t-1 -6v-6q0 -11 10 -18q8 8 8 16z" />
<glyph unicode="i" horiz-adv-x="643" d="M500 455q0 -16 -2 -45t-2 -43v-299q0 -74 -56 -74h-57q-25 0 -71.5 3t-69.5 3q-35 0 -63.5 27.5t-28.5 62.5q0 12 -2.5 33t-2.5 31q0 12 4.5 32.5t4.5 30.5q0 15 -5.5 44t-5.5 44q0 13 2 41t2 43q9 263 9 350q0 19 -2 57t-2 58q0 12 1 34t1 32v26q0 7 2 20.5t2 20.5 q0 9 -2 26t-2 25v90q0 186 8 252q3 24 15.5 31.5t39.5 7.5h25q62 4 92 4q67 0 100 -2q28 -3 37.5 -11.5t13.5 -35.5q2 -8 2 -26q0 -30 5 -177q1 -15 2.5 -42.5t2.5 -49.5t1 -41q0 -21 -4 -71q0 -10 0.5 -29.5t0.5 -35.5t-1 -30q0 -18 -3.5 -52t-3.5 -52q0 -13 4.5 -37.5 t4.5 -36.5t1 -34t1 -33t-3 -34t-3 -34q0 -17 4 -52t4 -52zM279 637v53q0 38 -3 78l-4 6q-3 0 -5.5 -4.5t-2.5 -7.5q0 -4 2 -14t2 -15q0 -4 -3 -12.5t-3 -13.5q0 -8 2 -24.5t2 -23.5q0 -19 -4 -58t-4 -58q0 -4 2 -8q4 -9 6.5 -20t4.5 -26.5t3 -21.5q5 10 5 14q0 6 -2.5 18 t-2.5 17q0 20 2.5 60t2.5 61zM432 190v17q0 65 -14 67l-2 -2l4 -141q0 -6 6 -6q2 0 2 2q4 40 4 63zM244 1268q0 4 -1 13t-1 13l-6 6q-17 -28 -17 -43q0 -18 6 -20q7 0 13 12t6 19zM412 1014q0 24 -13 24q-12 0 -12 -22q0 -24 19 -31q6 15 6 29z" />
<glyph unicode="j" horiz-adv-x="1062" d="M940 696q0 -12 -2 -32.5t-2 -30.5q0 -6 2 -17.5t2 -17.5q0 -22 -4 -67t-4 -68q0 -19 -5 -50t-13.5 -69.5t-10.5 -52.5q-8 -43 -29 -86q-4 -7 -15.5 -39t-33.5 -51q-6 -6 -16 -19.5t-16 -19.5q-36 -36 -111 -61t-133 -25q-180 0 -268 53q-43 25 -62 37t-49 36t-48.5 50.5 t-31.5 60.5q-8 24 -8 39q0 39 41 68q153 102 174 102q19 0 31 -8.5t20 -22t16.5 -28t27.5 -29.5t48 -24q18 -7 31 -7q12 0 41 4.5t37 8.5q23 9 31 47q26 127 26 174q0 27 -5 84t-5 86q0 6 1 19t1 20q0 8 -4 28q0 14 0.5 41t0.5 49t-1 42q0 14 -2 44t-2 46q0 26 -1 77t-1 76 q0 163 8 213q2 21 15 34t34 13t61 4.5t60 4.5q12 0 37 -5.5t39 -5.5q7 0 22.5 1t22.5 1q33 0 35 -28q10 -72 10 -88h-2q6 -87 6 -88q0 -18 -2 -55.5t-2 -55.5q0 -32 2 -95t2 -95q0 -8 1 -24t1 -24q0 -7 -2 -21.5t-2 -21.5q0 -5 2 -15t2 -15q0 -15 1 -50t1 -51zM674 1280 q0 19 -4 55l-6 8q-13 -19 -13 -24q0 -2 6 -107q0 -12 9 -14q4 2 4 10q0 12 2 36t2 36zM858 1038q0 15 -0.5 20.5t-6 11t-17.5 7.5q0 -9 -5.5 -25t-5.5 -24q0 -13 11 -24q24 12 24 34zM735 694v47q0 59 -2 70q-14 -8 -14 -27q0 -4 1 -11t1 -11q0 -16 -4 -49t-4 -49 q0 -9 6 -21q2 -3 3 -18.5t1.5 -33.5t1.5 -22q10 13 10 29q0 5 -1 17t-1 18q0 10 1 30.5t1 30.5zM688 209q0 10 -10 10q-12 0 -19.5 -12.5t-7.5 -24.5q0 -8 11 -8q7 0 16.5 14t9.5 21zM221 195q0 9 -39 38q-3 2 -11 4.5t-11 4.5v-6q0 -14 18 -33t33 -19q10 0 10 11z" />
<glyph unicode="k" horiz-adv-x="1271" d="M1169 1393q0 -30 -43 -101q-23 -36 -78.5 -120.5t-84.5 -131.5q-9 -14 -48 -79.5t-63 -100.5q2 -7 41 -121q21 -66 66 -182.5t61 -161.5q13 -13 18 -28q24 -51 76.5 -183t52.5 -151q0 -31 -45 -31q-11 0 -34.5 2t-36.5 2q-30 0 -90 -2t-89 -2q-18 0 -30 6q-20 8 -43 60 q-19 47 -57 133.5t-48 109.5q-9 24 -26.5 71t-20.5 56l-33 78q-9 -13 -37.5 -53t-46.5 -68t-32 -55q8 -106 8 -158q0 -11 -4 -39q-2 -11 -2 -24.5t1 -30t1 -25.5v-26q0 -8 -3 -14t-9 -9.5t-11.5 -6t-15.5 -3t-15 -0.5h-15.5h-12.5q-6 0 -18.5 -1t-18.5 -1q-9 0 -28.5 1 t-28.5 1q-19 0 -54.5 -1t-52.5 -1q-35 0 -46 15.5t-11 50.5q0 9 -1 26.5t-1 26.5q-8 208 -8 313q0 56 1 159.5t1 188t-2 160.5q-5 260 -5 313q-4 46 -4 72q0 7 2 21t2 20q1 44 15 53t57 9q13 0 40 1t40 1q11 0 33.5 1t41 1t32.5 -2q3 0 8 1t8 1q46 0 58 -17.5t12 -66.5 q0 -47 -2.5 -143t-2.5 -144q0 -22 3.5 -67.5t3.5 -69.5q46 62 91 133t104.5 169t84.5 138q3 5 10 17.5t11 19t12.5 15t17.5 12.5q13 8 35 8q15 0 39 -4q47 -4 143 -4h16.5h23t23 -1t24.5 -3.5t19.5 -6.5t15.5 -10.5t5 -15.5zM283 1266v30q0 12 -1 34t-1 34h-5 q-10 -27 -10 -49q0 -26 -2 -31q-6 -15 -6 -35q0 -35 14 -67q11 3 11 84zM887 340q-5 16 -22 54.5t-21 60.5q-2 15 -14 54.5t-19 43.5l-2 -2q1 -4 1.5 -15.5t1.5 -20t5 -15.5q13 -19 19 -41l10 -47q4 -17 19 -44.5t18 -33.5zM866 1339v2l-8 11q-20 -17 -43.5 -52t-26.5 -57 q12 2 19 17q9 17 30 41.5t29 37.5zM367 393q0 13 -3.5 43t-7.5 37q0 -19 -3 -56t-3 -55q0 -28 6 -55q4 2 6 6q-2 15 1.5 42.5t3.5 37.5zM285 92q0 16 -21 19l-26 -19q0 -1 -1 -3t-1 -3q0 -13 16 -25l31 15q2 6 2 16zM942 82q0 11 -8 37t-16 26q-3 0 -11 -8l4 -2v-8v-10.5 t0.5 -11t2 -12t4 -9.5t6.5 -7.5t10 -2.5q8 0 8 8zM520 688q0 7 -10 12q-2 -4 -14 -20l-22.5 -30t-10.5 -17l4 -2l2 -2q13 0 32 23t19 36zM356 907q0 7 -4.5 16t-11.5 9t-11.5 -9t-4.5 -16q0 -26 14 -26q8 0 13 8.5t5 17.5zM1020 1282q0 8 -4 10q-2 2 -6 2q-11 0 -19 -16 t-8 -29v-6q13 5 25 16.5t12 22.5zM737 848l4 29q-4 2 -10 2q-12 0 -12 -17q0 -14 18 -14z" />
<glyph unicode="l" horiz-adv-x="962" d="M860 47q0 -53 -98 -53q-31 0 -100.5 4t-102.5 4q-18 0 -56.5 -2t-58.5 -2q-34 0 -99.5 1t-98.5 1q-43 0 -74 10q-9 4 -17 27.5t-8 36.5v61h3q-5 67 -5 82q0 16 4.5 47.5t4.5 46.5q0 20 -5.5 61.5t-5.5 63.5q0 33 7.5 97.5t7.5 97.5q0 15 -2 46t-2 46q0 20 -2 58.5 t-2 56.5q0 14 1 43t1 43q0 26 -1 76t-1 75q0 59 2 90q0 2 4 11.5t4 15.5q0 25 -1 78t-1 80v47q1 15 13.5 26t27.5 11q57 2 176 2q29 0 66 -6t42 -21q11 -42 11 -137q0 -8 -3.5 -23.5t-3.5 -23.5q0 -3 1 -10.5t1 -10.5q0 -10 -2 -30.5t-2 -32.5q0 -31 3.5 -94t3.5 -93 q0 -14 -3.5 -45t-3.5 -45q2 -14 2 -45q0 -18 -1 -55t-1 -57q0 -15 3.5 -43t3.5 -43t-4.5 -46t-4.5 -47q0 -8 5.5 -23.5t5.5 -23.5q0 -22 -5.5 -68.5t-5.5 -70.5q0 -25 25 -25q24 0 70 1t69 1q5 0 16 -1t17 -1q18 0 55.5 1t57.5 1q67 0 67 -81q0 -13 -3 -41t-3 -43 q0 -19 3 -54.5t3 -52.5zM289 688q0 8 -5 18.5t-12 10.5q-6 0 -6 -15q-1 -13 -4.5 -39t-5.5 -47.5t-2 -40.5q0 -25 10 -55q2 -6 4 -20.5t2 -16.5h4q7 29 7 95q0 18 4 54.5t4 55.5zM647 199q-4 13 -28 13.5t-31 6.5h-37q-17 0 -31.5 -3.5t-20 -6t-28.5 -12.5q29 -2 82 -2 q63 0 94 4zM434 1339q0 15 -8 23h-29q-4 -32 -4 -47q0 -10 8 -10q13 0 23 11t10 23zM762 111q0 13 -6 22l-33 -22q0 -1 3 -7l4.5 -9t5.5 -6t9 -3q17 0 17 25zM305 162q0 10 -8 10q-5 0 -9.5 -9t-4.5 -16q0 -8 8 -8q1 0 3 1t3 1q8 8 8 21zM354 950l4 29q-2 0 -5 1t-5 1 q-12 0 -12 -16q0 -15 18 -15z" />
<glyph unicode="m" horiz-adv-x="1630" d="M1507 29q0 -16 -27.5 -24.5t-49.5 -8.5q-14 0 -40 -1t-38 -1q-67 0 -119 8q-47 8 -53 61q-1 10 -2 34.5t-4 41t-9 33.5q-4 8 -4 25q0 77 -14 184q-2 6 -2 18q0 5 2 15.5t2 15.5q0 11 -4 31q-27 135 -35 207q0 1 -1 4t-1 4l-6 -2q-72 -105 -105 -201q-5 -18 -25 -43.5 t-26 -38.5q-11 -26 -31 -76t-37.5 -89t-37.5 -70q-17 -25 -43 -25q-14 0 -31 21q-35 41 -55 102q-7 24 -33.5 67.5t-34.5 67.5q-9 27 -35 60q-14 17 -27.5 55t-25.5 55q-8 10 -15 23t-15 32t-11 25q-8 -3 -12 -23q-12 -123 -21 -249q-1 -12 -4.5 -33t-5.5 -38.5t-2 -33.5 q0 -55 -5 -134t-15 -99q-8 -19 -35 -23q-106 -8 -162 -8q-4 0 -22.5 -0.5t-26 0t-23 2t-23 5.5t-17 11t-13.5 18.5t-4 26.5q0 19 2 58.5t2 60.5q2 55 18 156q5 30 5 37q0 9 -1 33.5t-0.5 41t5.5 33.5q6 18 6 39q0 8 -3 24t-3 23q0 28 14 94.5t16 92.5q6 58 6 120v82 q1 16 7 51.5t6 53.5q0 20 3.5 55t4.5 47q1 21 4 85.5t6 99.5q7 60 53 82q30 12 150 12q28 0 49 -21q30 -29 67.5 -99t79 -162t54.5 -118q8 -17 25.5 -46.5t23.5 -41.5q10 -18 34.5 -78.5t45.5 -87.5q21 38 53 117q8 18 25 42.5t22 39.5q8 17 20.5 49.5t18.5 46.5q5 15 23 40 t24 40q67 174 129 242q34 41 123 41q28 0 90 -4q22 0 25 -21q9 -40 14 -82t10 -110t6 -84q25 -223 27 -273q5 -73 19 -172q2 -18 7 -52.5t8 -63t3 -52.5q0 -54 4 -83q13 -68 16 -125q0 -27 11 -64q12 -68 12 -135q1 -13 7.5 -45.5t6.5 -50.5zM1298 592l-2 6 q-2 51 -18.5 143.5t-20.5 124.5h-22q2 -11 14 -85.5t24 -138t17 -73.5h6q0 4 1 12t1 11zM307 901v41q0 43 -4 55h-4l-4 -6q-1 -16 -2 -64.5t-6 -74.5q-4 -26 -5 -54t-1.5 -67t-1.5 -55l2 -4l4 32t6 37q16 71 16 160zM698 684q0 11 -13 34.5t-34 55t-22 33.5h-19q1 -1 19 -34 t36.5 -64t22.5 -31q10 0 10 6zM1004 719l-19 -2q-7 -10 -21.5 -31.5t-22.5 -34t-17 -31.5t-13 -38q6 -3 11 6q76 122 82 131zM438 1178q0 14 -14 51l-4 2q-4 -8 -5.5 -17t-2 -15.5t-1.5 -17t-1 -16.5v-10q0 -7 6 -16h2q9 3 14.5 15.5t5.5 23.5zM1208 1300q0 9 -10 9 q-8 0 -22.5 -22.5t-14.5 -31.5q0 -6 5 -10t10 -4q13 7 22.5 25t9.5 34zM1411 115q0 21 -14 28q-4 -24 -4 -37q0 -29 14 -51q4 40 4 60zM317 391q0 9 -2 15q-11 0 -17.5 -12t-6.5 -25q0 -12 10 -15q16 20 16 37zM412 90q0 4 -5 8t-8 4q-4 0 -9 -4t-8 -8t-7.5 -10.5t-5.5 -7.5 q2 -2 8 -2q9 0 22 6t13 14zM815 297q0 8 -8 8q-6 0 -12.5 -8t-6.5 -14q0 -3 3 -6t6 -3q6 0 12 9t6 14zM1044 989h29l-6 27l-6 2z" />
<glyph unicode="n" horiz-adv-x="1394" d="M1251 1102q0 -5 -2 -14.5t-2 -14.5q-6 -30 -6 -63q0 -10 1 -32t1 -34q0 -7 -2 -21.5t-2 -21.5q0 -12 2 -38t2 -40q0 -9 -1 -27t-1 -26q0 -4 1 -13.5t1 -13.5q0 -7 -1 -22t-1 -23q0 -7 4 -22.5t4 -22.5q0 -6 -4 -34t-4 -44q0 -27 2 -79t2 -78q0 -11 -3 -34t-3 -36 q0 -9 1 -27.5t1 -27.5q0 -4 -1 -14t-1 -15q0 -16 3 -49t3 -49v-62q0 -7 2 -23t2 -24q0 -24 -11.5 -40.5t-33.5 -16.5q-35 -2 -104 -2q-41 0 -127 12q-44 6 -70 47q-50 61 -96 136q-15 23 -44.5 61.5t-35.5 46.5q-17 21 -52 69.5t-57 75.5q-14 16 -49.5 72t-42.5 66 q-12 18 -53 71l-6 -2q0 -5 -1 -17t-1 -18q0 -11 2 -33.5t2 -35.5q0 -12 -1 -34t-1 -32q0 -16 2 -45t2 -43q0 -55 4 -163t4 -162v-29q-4 -42 -105 -41h-7q-10 0 -28.5 3t-27.5 3q-11 0 -34.5 -3t-34.5 -3q-35 0 -60.5 15.5t-25.5 47.5q0 5 1 15.5t1 15.5q0 16 -1 46t-1 46 t1 50t1 51q0 25 -2 76t-2 77q0 12 1 34t1 34q0 4 -2 13.5t-2 13.5t2 13.5t2 14.5q0 7 -2 22.5t-2 22.5q0 4 1 12.5t1 12.5q0 17 -3.5 48t-3.5 48q0 6 1.5 19t1.5 20q0 12 -2.5 34t-2.5 34q0 10 2.5 29t2.5 28q0 10 -2.5 30.5t-2.5 32.5q0 5 1 15.5t1 15.5q0 14 -2 40.5 t-2 39.5v111q0 17 9 73q4 23 4 66.5v52.5q0 30 24 39q59 25 103 25q33 0 79 -17q36 -16 60 -59q7 -12 47 -82.5t63 -106.5q33 -55 198 -278.5t194 -243.5q4 36 4 58v415q0 29 -4 41q-6 33 -6 103q0 116 4 141q4 29 30 29q38 0 114 -2t114 -2q30 0 49 -19q18 -11 18 -41 q0 -18 -1 -51t-1 -49t2 -45t2 -45q0 -14 1 -40t1 -38zM858 479q-10 19 -20.5 36t-17 26t-22 29t-22.5 30q-3 5 -15 23t-18 28q-26 48 -100 107v-4q0 -2 5 -9.5t12 -17t8 -10.5q59 -79 67 -92q43 -66 64 -86q6 -7 23 -32.5t28 -33.5l6 -2q2 0 2 8zM1118 907q0 76 -2 115l-6 8 q-5 -3 -8 -8q-2 -5 -2 -88q0 -33 -3 -97.5t-3 -97.5q0 -14 8 -18q8 13 12 80t4 106zM338 647v41q0 6 -4 10q-17 -47 -17 -153q0 -82 13 -109q8 6 8 66q0 14 -3 40.5t-3 39.5q0 12 3 33t3 32zM451 932l26 45q-1 2 -4.5 9.5t-6.5 12.5t-7 5q-17 0 -17 -46v-8q0 -4 3 -10l4 -8 h2zM1030 1327v10q0 8 -10 25q-16 -24 -16 -41q0 -27 12 -27q14 0 14 33zM289 1282q0 25 -15 25q-12 0 -12 -19q0 -33 12 -33q8 0 15 27zM281 125q0 15 -13 22q-3 0 -5 -2t-3.5 -6t-2.5 -7.5t-2 -8.5t-1 -6h2v-11q4 -8 8 -10q17 7 17 29zM1071 178q0 7 -4 15q-11 0 -17 -11.5 t-6 -23.5q0 -10 11 -17q16 27 16 37z" />
<glyph unicode="o" horiz-adv-x="1683" d="M1561 840q0 -101 -9 -158v-8q0 -7 1 -21.5t1 -21.5q0 -78 -20 -142l-21 -61q-22 -84 -149 -227q-34 -42 -61 -64q-3 -2 -30 -18.5t-36 -26.5q-28 -30 -86 -54.5t-100 -27.5q-10 -1 -29.5 -6t-28.5 -6q-54 -4 -82 -4q-17 0 -45.5 6t-34.5 6q-18 0 -38.5 2t-45 5.5 t-38.5 4.5q-29 2 -80 17t-66 18q-14 3 -31 10.5t-29 14.5t-31.5 19t-27.5 16t-104 59q-16 10 -29 29q-7 9 -48.5 50.5t-53.5 72.5q-4 16 -18.5 43.5t-18.5 38.5q-29 80 -33 96q-14 60 -14 221q0 124 22 199q4 15 17 40.5t14 28.5q49 104 84 158q11 20 58.5 62t78.5 63 q8 6 23 16q56 39 84.5 57t74 40.5t92 31t103.5 8.5q19 0 58 3.5t59 3.5q80 0 203 -35q79 -23 136.5 -53.5t104 -79t77 -92.5t79.5 -125q11 -19 33 -97q35 -101 35 -112zM1223 762q0 38 -15 90.5t-37 77.5q-12 14 -29.5 43.5t-35 50t-41.5 29.5q-18 7 -62 24.5t-69 26.5 q-40 14 -68 14t-79 -16.5t-60 -18.5q-13 -3 -26.5 -7.5t-29 -12.5t-25 -13t-28.5 -16t-24 -14q-20 -11 -31 -31q-5 -8 -21 -24t-22 -27q-67 -116 -67 -205q0 -39 0.5 -56.5t6 -46.5t17.5 -52q20 -42 80 -109q30 -38 71 -60.5t105 -46.5q30 -10 39 -10q5 0 13 2t12 2 q8 0 31 -6t38 -6q32 0 74 10q8 2 27 10.5t30 8.5h7q30 12 100 61.5t70 67.5t14.5 45t17.5 41q17 81 17 174zM305 907q0 1 -2.5 3.5t-3.5 2.5l-4 -2q-25 -56 -34 -96.5t-9 -99.5q0 -19 16 -35q4 16 4 25q0 74 13 118q1 5 10.5 42.5t9.5 41.5zM969 166l-2 6h-31.5t-38.5 4 q-16 4 -25 4q-21 0 -57 -12q23 -18 37 -18q80 0 117 16zM461 215h6q0 9 -5.5 19t-17.5 21t-19.5 17.5t-22.5 18t-17 12.5q0 -28 23.5 -58t52.5 -30zM1128 1272q0 12 -16 16q-3 1 -26.5 10t-30.5 9q-11 0 -21 -7q9 -9 21 -16t21 -10t26 -7.5t24 -6.5q0 2 1 6t1 6zM1389 760 q0 24 -15 102q0 10 -12 10q-4 0 -8 -2l26 -127q9 9 9 17zM457 1178q0 7 -5 15.5t-12 8.5t-19.5 -19.5t-12.5 -27.5q0 -10 16 -10h6q11 0 19 11t8 22zM1296 367q0 2 -1 6.5t-1 7.5q-12 0 -18 -12t-6 -25q0 -11 10 -14q16 20 16 37zM791 1262q-6 14 -21 14h-4q-25 0 -29 -14 q22 -9 31 -9t23 9zM1276 1098q0 13 -10 26q-13 -6 -13 -18q0 -33 19 -35q4 20 4 27zM414 557q0 11 -8 23q-15 -4 -15 -35q0 -16 15 -19q1 3 4.5 14t3.5 17z" />
<glyph unicode="p" horiz-adv-x="1288" d="M1186 856q0 -25 -11 -71t-22 -72q-5 -9 -20 -68q-6 -23 -28.5 -45.5t-29.5 -36.5q-28 -45 -67 -71q-1 -1 -22 -16t-27 -19.5t-24.5 -17t-29 -18t-25 -12.5t-26.5 -10q-18 -5 -49.5 -16.5t-42.5 -15.5q-89 -29 -180 -29q-10 0 -31 1t-31 1q-15 0 -20 -4t-6 -19 q-7 -31 -7 -61q0 -12 2.5 -38t2.5 -40q0 -79 -5 -135q-3 -25 -13 -34.5t-36 -10.5q-12 0 -38 -2t-40 -2q-45 0 -135 8q-24 2 -39 12.5t-21.5 29t-8.5 35t-2 40.5q0 10 2 29t2 28q0 28 -6.5 83t-6.5 83q0 13 2.5 37t2.5 35q0 23 -1.5 66.5t-1.5 64.5q0 107 -2 160 q-1 17 2 49.5t3 46.5q0 39 1 118t1 119q0 12 -2.5 35t-2.5 35q0 16 6.5 46t6.5 46q0 17 -6 35q-7 32 -7 88q0 49 19.5 68.5t69.5 19.5q8 0 25.5 -1t25.5 -1q13 0 42.5 7.5t43.5 8.5q87 5 106 5q34 0 99 -6t92 -7q107 -4 212 -53t181 -127q11 -9 22 -31q23 -35 33 -51t24 -47 t19 -57q9 -46 15 -86q10 -88 10 -109zM844 911q0 85 -70 148q-5 5 -24 10q-54 24 -66 27q-62 10 -115 10h-10.5h-13.5t-13 -0.5t-13 -2.5t-10 -5t-7 -8q-19 -37 -19 -281q0 -24 4 -82v-53q1 -24 11.5 -29.5t38.5 -5.5q53 0 143 20q61 12 106 52q11 8 18 20.5t14 30.5t11 26 q15 31 15 123zM383 901q0 79 -8 105q-13 -22 -13 -72q0 -94 5 -160q6 8 9.5 19.5t5 29t2 25.5t0 30t-0.5 23zM389 317v21q0 18 -2 55t-2 56l-8 -7q-15 -81 -15 -127q0 -49 15 -57q12 54 12 59zM1038 1083q0 11 -7 24t-17 19q-5 3 -12 14t-18.5 21t-27.5 13q0 -1 -1 -4.5 t-1 -4.5q0 -6 8 -17.5t13 -14.5q16 -12 41 -50l12 -14q10 3 10 14zM705 1284q0 4 -2 6.5t-4 3t-6.5 1.5t-6.5 1q-17 2 -38 2t-47 -1t-40 -1l-10 -4q97 -18 137 -18q17 0 17 10zM1006 670q-15 10 -17 10q-13 0 -29 -12.5t-16 -24.5q0 -10 8 -10q14 0 43 22q2 1 5.5 7t5.5 8z M297 1270q0 16 -12 16q-10 0 -16.5 -10.5t-6.5 -20.5q0 -16 10 -16q25 0 25 31zM659 500l5 28q-4 4 -11 4q-12 0 -12 -16q0 -12 18 -16zM225 72h29l-6 24l-6 2z" />
<glyph unicode="q" horiz-adv-x="1808" d="M1686 10q0 -14 -10 -24.5t-25 -10.5q-43 -6 -88 -6q-7 0 -20 1t-19 1q-18 0 -53 -4t-52 -4q-7 0 -21.5 3t-21.5 3h-43q-29 3 -55 28t-44.5 48t-27.5 23q-5 0 -110 -35q-104 -35 -226 -35q-81 0 -151 20q-3 1 -39 7q-71 8 -148 49l-24 12q-29 11 -73.5 43t-59.5 41 q-21 13 -31.5 27.5t-15.5 19.5q-40 38 -71.5 86t-47.5 83.5t-42 100.5q-6 15 -9 23l-4 12q-31 147 -31 232q0 35 11 100t22 100l6 11q14 12 24 43q18 47 56 101.5t75 90.5q9 8 23.5 26.5t17.5 22.5q39 39 78 70q9 7 30 16.5t26 12.5q32 19 47 24q135 64 266 64 q69 0 109 -1.5t102.5 -11t105.5 -28.5q18 -8 50.5 -26t41.5 -23l37 -15q53 -18 142 -102q17 -17 35 -41t28 -39.5t30.5 -48.5t26.5 -43q3 -5 12.5 -19t15 -25t9.5 -22q11 -26 30 -79t19 -66q0 -33 9.5 -98.5t9.5 -98.5q0 -16 -2.5 -36t-6 -33.5t-9 -36.5t-7.5 -33 q-6 -29 -22 -55q-15 -24 -55.5 -102t-40.5 -87q0 -13 63.5 -83.5t101.5 -108.5q7 -9 23 -17q23 -14 23 -47zM1247 664q0 8 -1 23.5t-1 23.5q0 22 -3 41.5t-6 30.5t-11.5 34.5t-12.5 36.5q-22 64 -51 98q-24 30 -26 33q-30 46 -74 72q-36 19 -67 29t-50 13t-58.5 6t-66.5 7 q-4 2 -14 2q-13 0 -25 -6q-17 -9 -51 -19t-43 -14q-6 -3 -31 -18q-116 -65 -147 -150q-3 -9 -12 -26t-14 -31t-5 -27q0 -3 2 -10.5t2 -11.5q0 -16 -8 -50.5t-8 -52.5q0 -16 7.5 -42.5t8.5 -37.5q6 -33 26 -74t42 -63q41 -36 51 -47q21 -23 75.5 -49t86.5 -31q86 -12 131 -12 q17 0 50.5 11.5t33.5 23.5q0 8 -92 113t-92 124q0 13 11 22t25 9q26 1 81.5 1t82.5 1q123 6 125 6q22 0 40 -15t38 -44t29 -39q22 42 22 109zM1264 246l8 4q-4 22 -8 29q-9 13 -76 96l-14 -10zM381 1118l2 8q-2 2 -10 2q-9 -4 -21.5 -17.5t-17.5 -16.5q-22 0 -41 -76l2 -2 q5 2 8 5t6 7.5t6 7.5q11 2 15 19q4 13 11.5 23.5t21 22.5t18.5 17zM1477 686q0 6 -4.5 9.5t-10.5 2.5h-4v-129q10 10 10 13q9 47 9 104zM1001 1305l113 -66q0 1 -2 8t-4 8q-12 10 -50.5 36t-43.5 26q-9 0 -13 -12zM319 362l-59 117q-4 -12 -4 -16q0 -2 19.5 -46.5 t23.5 -49.5q5 -9 10 -9q6 0 10 4zM1024 492q0 15 -15 22.5t-32 7.5q0 -13 10 -28t23 -15q4 0 12 4q0 1 1 4t1 5zM313 752q0 10 -10 10t-20.5 -11t-10.5 -20q0 -4 5 -8t10 -4q8 0 17 12.5t9 20.5zM717 1180q0 6 -8 6q-11 0 -26 -10.5t-19 -20.5q8 -8 16 -8t22.5 13t14.5 20z M1335 930q-8 37 -28 43q-7 -3 -7 -12q0 -8 10 -20.5t17 -12.5q6 0 8 2zM1522 76l2 28q-2 2 -11 2q-12 0 -12 -16q0 -14 21 -14zM627 250l4 29q-4 2 -10 2q-13 0 -13 -15q0 -11 19 -16zM870 115h29l-6 26h-4z" />
<glyph unicode="r" horiz-adv-x="1406" d="M1284 29q0 -25 -45 -25h-4q-15 0 -42 1t-42 1q-6 0 -19.5 -1t-19.5 -1q-111 0 -166 8q-40 3 -65 39q-14 16 -82 115l-123 178q-20 27 -47 27q-78 0 -101 -4q-13 -1 -17.5 -6t-4.5 -19q0 -45 4 -131q0 -21 1 -64t1 -65v-8q0 -16 -0.5 -24.5t-3 -21.5t-7.5 -19.5t-15 -11.5 t-25 -5q-17 0 -49 -1t-47 -1q-6 0 -19 2t-20 2q-11 0 -34 -2t-36 -2q-47 0 -72 37q-10 16 -15 128t-5 183q0 16 4 48t4 48q0 5 -2 15.5t-2 15.5q-2 45 -2 135q0 126 -11.5 377t-11.5 377q0 76 52 76q6 0 18 -1.5t18 -1.5q9 0 29 2.5t29 2.5q8 0 24.5 -2.5t24.5 -2.5 q42 -1 159 -1t181 -5q40 -2 203 -32q28 -6 59 -23.5t45 -22.5q44 -18 73.5 -45.5t57.5 -72.5q52 -78 70 -142q3 -10 6 -29.5t4 -25.5q2 -9 8.5 -36t9.5 -46t3 -37q0 -30 -5.5 -61t-16.5 -74t-15 -61q-4 -17 -12.5 -36t-15 -30t-20.5 -34.5t-18 -30.5q-20 -30 -43 -39 q-10 -5 -40.5 -33.5t-35.5 -32.5q-14 -14 -14 -20t17.5 -26t41.5 -43.5t27 -27.5q23 -26 43 -59q20 -34 59 -80t69 -89t44 -89q2 -4 2 -14zM844 885q0 51 -11.5 83.5t-41.5 80.5q-56 90 -228 90q-19 0 -80 -9l-4 -6v-30q0 -26 1 -76t1 -74q0 -9 -1 -27.5t-1 -27.5 q0 -35 10 -215q0 -17 6 -24.5t23 -8.5q7 0 22 -1t23 -1q69 0 164 43q65 28 88 88q17 50 25 61q4 6 4 54zM979 1178v8q0 20 -45 60t-60 40q-10 0 -16 -2v-4q0 -14 37 -33q20 -10 29.5 -16t21.5 -17t21 -26zM293 381v57q0 3 -6 45q-1 10 -0.5 38t-1.5 42h-2q-3 -9 -6 -79 t-3 -97q0 -6 1 -18.5t1 -18.5h5q5 0 8.5 11.5t3.5 19.5zM821 532q-12 9 -22 9q-80 0 -115 -35h10q52 0 119 18zM393 885q0 69 -12 92q-10 -10 -10 -23v-49q0 -40 10 -69q12 12 12 49zM1008 162q0 3 -5 10.5l-11 16.5t-7 12l-33 55q-1 2 -9 17t-15.5 28t-9.5 14 q1 -6 5.5 -15.5t4.5 -14.5q0 -7 -4 -15q11 -27 22.5 -44.5t27.5 -36t27 -33.5q2 0 4.5 2.5t2.5 3.5zM297 1339q0 6 -5.5 9.5t-10.5 3.5q-9 0 -14 -12t-5 -23q0 -17 8 -49h6q1 4 11 36t10 35zM438 82v10q0 23 -28 43q-2 -8 -2 -22q0 -16 6 -31h24zM1030 868q0 21 -20 29 q-6 -18 -6 -27q0 -14 12 -14q14 0 14 12zM618 1237q0 8 -10 18q-18 -7 -18 -20q0 -10 2 -16q26 9 26 18zM1180 100q0 13 -11 13q-12 0 -12 -21q0 -12 8 -20q15 9 15 28z" />
<glyph unicode="s" horiz-adv-x="1269" d="M1147 459q0 -45 -19 -115q-4 -14 -10.5 -30t-11.5 -25.5t-16 -28t-15 -24.5q-33 -59 -96.5 -120.5t-122.5 -88.5q-28 -12 -91 -22.5t-97 -10.5q-79 0 -164 16l-86 27q-69 18 -160 94q-23 18 -39 43.5t-33 66.5t-24 54q-14 29 -26.5 75.5t-12.5 75.5q0 27 18 56 q17 25 74 20h39l2 -2q16 1 47 4.5t56.5 5.5t48.5 2q39 0 67 -22q11 -9 39 -117q8 -27 26 -42t19 -17q14 -20 49 -29q68 -14 86 -14q60 0 102 32.5t42 90.5q0 66 -64 104q-123 74 -199 74q-8 0 -20 4q-2 0 -30 9t-33 10.5t-31 10t-34 12t-30.5 12.5t-32.5 15t-29 16t-30 18.5 t-24.5 20t-24.5 23.5q-39 44 -52 61.5t-25 48.5t-19 79q-4 32 -4 47q0 32 16.5 113.5t30.5 101.5l33 43q13 15 28 45q7 14 20.5 27.5t23 20t31 20t26.5 16.5q94 66 249 66q18 0 51.5 -3t41.5 -4q10 0 30 -6t29 -6q22 0 38 -6.5t33.5 -17t32.5 -15.5q61 -23 118 -75t77 -109 q2 -6 8 -16.5t8 -16.5q41 -126 41 -164q0 -30 -26.5 -47.5t-59.5 -17.5q-22 0 -205 20q-20 3 -31 18t-14.5 33t-11.5 40t-22 34q-78 70 -138 70q-33 0 -73.5 -25t-40.5 -55q0 -9 4.5 -28t5.5 -25q10 -54 49 -68q164 -62 195 -72q66 -23 125 -39q41 -10 92 -45q62 -41 93 -79 t54 -105q29 -93 29 -143zM600 760q0 1 -1 2t-1 2q-31 9 -88.5 37t-85.5 37q29 -25 51 -35q110 -47 121 -47q4 0 4 4zM922 170q0 1 -1 4.5t-1 5.5l-20 -11q-20 -11 -34 -19.5t-14 -12.5q0 -10 12 -10q14 0 36 15t22 28zM1077 1032q0 7 -7.5 18.5t-14.5 16.5q-11 -33 -11 -45 q0 -10 13 -10q7 0 13.5 6t6.5 14zM934 1239q-27 45 -57 53q2 -11 20 -34t27 -23q2 0 5 2t5 2zM297 1047q0 11 -6 20q-3 -1 -5.5 -6.5t-6.5 -5.5h-5q-6 -12 -6 -23q0 -16 13 -16q16 0 16 31zM901 631v4q0 13 -47 29l-6 -2q0 -1 -1 -2.5t-1 -2.5q0 -7 21 -16.5t30 -9.5h4z M289 393q0 3 -5 6.5t-8 3.5q-4 0 -9 -4t-8 -8t-7.5 -10.5t-5.5 -7.5q2 -2 8 -2q10 0 22.5 6.5t12.5 15.5zM502 160q0 3 -2 9t-2 9l-31 -6q1 -2 4.5 -8t5.5 -9.5t6 -6.5t9 -3q10 0 10 15zM616 1317q-10 10 -18 10q-11 0 -25 -14q12 -8 23 -8q14 0 20 12zM1010 410l4 28 q-4 2 -13 2q-10 0 -10 -14q0 -12 19 -16z" />
<glyph unicode="t" horiz-adv-x="1212" d="M1108 1311q0 -146 -12 -178q-14 -35 -78 -35q-18 0 -53 -2t-52 -2h-86q-46 -2 -45 -149v-7q0 -33 3 -99t3 -100q0 -21 -2 -65.5t-2 -67.5q0 -7 1 -23t1 -24q0 -7 -3 -24t-3 -25q0 -14 2 -40t2 -40q0 -19 5.5 -59.5t5.5 -61.5q0 -7 -2 -22t-2 -23q0 -20 4 -61.5t4 -63.5 q0 -30 -4 -92q-1 -17 -13 -28t-28 -13q-144 -16 -215 -16q-35 0 -68 20q-10 5 -16.5 13t-9 20t-3 20t-0.5 23q0 14 2 39t2 39q0 30 -5 92t-5 92q0 15 1 43t1 41q0 5 -1 14t-1 13q0 8 4 22t4 21q0 14 2.5 39t2.5 39t-2.5 44t-2.5 46v248q0 52 -2 77q-1 11 -6.5 31t-5.5 31 t-0.5 19t-4 13t-5 8t-9 4t-11 1.5t-15.5 0t-18 -0.5q-30 0 -89.5 -2t-87.5 -2q-24 0 -49 7.5t-28 24.5q-11 57 -11 95v18h2q0 121 5 150q0 9 6.5 15.5t15.5 6.5q42 3 74 10l6 2q10 0 30.5 -2t30.5 -2q53 0 125 7q36 -13 113 -13q22 0 64.5 5t62.5 5q5 0 15.5 -1t15.5 -1 q10 0 30.5 3.5t30.5 3.5h123q22 0 75.5 -4t82.5 -3h30q20 0 33.5 -6.5t20.5 -14t10 -24.5t3.5 -26.5t0.5 -30.5v-6.5v-5.5zM565 449v92q0 27 -1 79t-1 78h-16v-313l8 -2q10 57 10 66zM668 1262q-14 6 -97 6h-24q-80 0 -96 -6q17 -15 49 -15h26q82 0 123 2q16 0 19 13z M686 96q0 34 -20 45q-7 -14 -7 -28v-9v-28q27 14 27 20zM182 1333q0 15 -24 33q-6 -10 -6 -25v-8q0 -16 8 -16q2 0 20 6q0 2 1 5t1 5zM717 989l-4 8l-33 -6q-4 -8 -4 -10q4 -16 16 -16q22 0 25 24zM1024 1348q-4 4 -10 4q-8 0 -20.5 -10t-12.5 -19q0 -6 2 -8q37 12 41 33z " />
<glyph unicode="u" horiz-adv-x="1245" d="M1122 623q0 -7 -3 -22t-3 -23q0 -46 -18 -156q-2 -9 -9 -58.5t-14 -74.5q-5 -15 -21 -42.5t-20 -37.5q-24 -50 -49 -79t-70 -64q-71 -60 -137 -60q-47 0 -86 -8q-4 -4 -12 -4h-105v2h-65q-15 1 -40.5 8.5t-37.5 9.5q-25 3 -60.5 15.5t-49.5 25.5q-60 52 -89 86 q-80 93 -92 426q0 23 -3.5 66.5t-4.5 58.5q0 1 -3 32.5t-3 47.5q0 15 2 42t2 40q0 24 -4 70.5t-4 68.5q0 31 3 93t3 92q0 14 -1 43t-1 43q0 81 14 129q8 20 31 26q66 17 121 17q14 0 40 -2t38 -2h12.5h14t13 -0.5t14 -2t12 -4t12.5 -6.5q5 -3 8.5 -9t5.5 -15.5t3 -14.5 t2 -17t1 -13q0 -50 4 -148q1 -13 4.5 -51t3.5 -59v-37h-2q0 -23 -1 -71t-1 -71q0 -67 -4 -88q-2 -4 -2 -16q0 -23 6 -70.5t6 -72.5v-39.5v-51t1 -51t3.5 -57.5t6.5 -50t10.5 -48.5t15.5 -34.5q30 -45 109 -45q78 0 116.5 63t38.5 146v16q9 18 9 92q0 88 -11 133q0 3 1 9.5 t1 9.5q0 12 -2 35t-2 34q0 129 -4 195q0 6 -2 19.5t-2 19.5q0 4 3 12.5t3 13.5q0 7 1 20.5t1 20.5q0 32 -4 95t-4 94q0 54 4 69q3 22 27 29q26 7 81.5 13t88.5 6q14 0 59 -9q41 -6 55.5 -21.5t24.5 -55.5q6 -27 6 -54q0 -18 -3 -56t-3 -58q0 -14 2 -40t2 -40q0 -18 -1 -55 t-1 -56q4 -78 4 -117q0 -7 -3 -19.5t-3 -18.5q0 -14 2 -41t2 -41q0 -8 -2 -23t-2 -22q0 -15 5 -42t5 -42zM336 840q0 40 -4 118q0 3 -2 5q0 -1 -6.5 -18.5t-6.5 -18.5q0 -7 2.5 -22.5t2.5 -22.5q0 -9 -4.5 -16t-4.5 -13v-29q0 -5 -2 -14t-2 -14l10 -50q9 3 9 13q0 9 -1 27.5 t-1 27.5t5 15t5 12zM1020 922q0 60 -10 96l-2 4l-2 -2q6 -41 -9 -92q-4 -12 -4 -17q0 -64 23 -84v15q-6 9 -6 18q0 10 5 31t5 31zM539 53l6 6l-4 7q-16 8 -25 8q-19 0 -44 10t-30 10q-8 0 -8 -10q0 -9 21.5 -15.5t52 -11t31.5 -4.5zM1006 453q0 2 -4 6.5t-5 5.5l-6 -2 q1 -15 -4.5 -43t-5.5 -41q0 -11 4 -27l6 4q15 40 15 97zM199 1280l24 20q-4 36 -16 50q-17 -40 -17 -50q0 -11 9 -20zM901 1274q0 14 -8 22q-14 -4 -14 -18q0 -31 16 -35q6 15 6 31zM332 389q0 13 -10 23l-21 -25q5 -18 14 -18q7 0 12 6.5t5 13.5zM815 137v6q0 11 -8 11h-4 q-5 0 -11 -4t-6 -9q0 -6 7.5 -11t13.5 -5q8 0 8 12z" />
<glyph unicode="v" horiz-adv-x="1308" d="M1247 1403q0 -26 -24 -90q-53 -146 -68 -228q-4 -15 -9 -31t-12 -35.5t-10 -29.5q-11 -27 -14 -63q-2 -21 -9.5 -53.5t-19 -75t-14.5 -54.5l-4 -8q-25 -49 -53 -155q-4 -16 -9.5 -50t-9.5 -51q-3 -20 -24 -61q-11 -19 -18.5 -48t-14.5 -68.5t-10 -53.5q-2 -7 -8.5 -20.5 t-8.5 -20.5q-3 -8 -23.5 -69t-35.5 -91q-36 -63 -150 -63q-48 0 -100 10q-51 6 -68 51q-55 137 -69 164q-20 49 -25 88q-2 26 -24 70t-27 63q-11 38 -57 170q-9 22 -21 70q-19 51 -28 84q-5 16 -21 44t-22 42t-12 40t-9 35q-1 2 -14 45t-23 64q-7 16 -16.5 50t-16.5 50 q-3 9 -27 66.5t-40.5 102.5t-16.5 61q0 21 11 38.5t30 20.5q25 5 77 13.5t77 13.5q67 10 76 10q62 0 76 -35q4 -12 14 -31.5t12 -23.5q10 -22 36.5 -97.5t27.5 -88.5q9 -52 28 -93q23 -56 35 -118q4 -22 12.5 -46t20 -52t16.5 -44l45 -143q1 -1 3.5 -7.5t4.5 -11t6 -8.5 t7 -4q11 0 16.5 13t5.5 26q2 36 19 88q10 28 20.5 61t17 54t17.5 63.5t14 55t15.5 65t13.5 57.5q4 13 8 35q1 24 22.5 104t31.5 107q13 31 27 43.5t44 12.5q86 0 172 -9q2 -2 10 -2q10 0 31 1t31 1h8.5h10.5h10t10 -1.5t8 -3.5t6 -6t2 -9zM973 979q0 2 -6 8q-6 -7 -32 -77 t-26 -76q0 -8 9 -17q10 3 10 14q2 11 10.5 35t9.5 37q0 6 4 10q5 8 13 32.5t8 33.5zM530 545q0 4 -15.5 50.5t-20.5 55.5q-3 14 -19 23v-4q-1 -10 8.5 -30t10.5 -26q3 -20 24 -77q5 -5 6 -5h2q4 8 4 13zM231 1257q-2 19 -10 50t-16 36q-2 2 -9 6t-8 5q2 -24 8 -37t9 -25 q7 -4 11 -18.5t15 -16.5zM639 147h-2q0 17 -6 17q-7 0 -15 -23t-8 -32q0 -11 10 -11q11 0 21 49zM393 1065q-1 2 -4.5 10t-6 12.5t-7 8.5t-10.5 4q-11 0 -11 -13q0 -9 8.5 -21.5t16.5 -12.5q4 0 6 2t4.5 5.5t3.5 4.5zM995 1286q0 19 -16 19l-14 -21q0 -1 2 -7t4 -10.5 t6 -4.5q8 0 12 8q6 6 6 16zM836 526q0 7 -6 18t-13 11q-6 0 -8 -2v-14q0 -17 16 -33q11 16 11 20z" />
<glyph unicode="w" horiz-adv-x="1574" d="M1513 1384q0 -30 -12 -88q-3 -14 -53 -243q-18 -82 -45.5 -236t-40.5 -219q-13 -61 -39.5 -180t-38.5 -180q-3 -13 -9.5 -59t-14 -80.5t-17.5 -53.5q-12 -24 -51 -31l-111 -6q-57 0 -96 10q-51 16 -67 74q-8 26 -14 56t-12.5 67.5t-10.5 56.5q-40 196 -52 236 q-3 10 -9.5 48t-15 68.5t-18.5 39.5q-8 -23 -14 -71t-8 -58q-19 -103 -35 -162q-22 -86 -22 -117q0 -16 -23 -110.5t-31 -114.5q-8 -21 -19 -29t-32 -8q-130 0 -201 18q-33 7 -49 26t-24 54q-1 3 -17 72q-5 21 -13 60t-15.5 72t-14.5 62q-5 19 -14 52.5t-16.5 62t-12.5 53.5 q-21 86 -22 95q-1 17 -8 46t-9 42q-12 71 -30 141q-27 72 -27 98q0 48 -18.5 138.5t-20.5 105.5q-8 41 -16 131q-1 4 -7 31t-6 39q0 9 4.5 16t14.5 11.5t18 7t23.5 3.5t22 1h22.5h16q20 0 57.5 -3.5t55.5 -3.5q62 0 77.5 -10t30.5 -65q6 -18 15 -76q7 -83 55 -270 q7 -30 18 -97.5t21 -103.5h4q11 22 23 86.5t12 95.5q0 3 1 8t1 8q4 24 16 89t19 112t10 92q1 11 7.5 36t6.5 38q0 28 29 51q39 25 98 25q65 0 154 -14q35 -6 45 -46q22 -86 27 -120q3 -16 14 -74.5t15.5 -81t15 -72.5t18 -80.5t19.5 -71t24 -75.5q7 17 14 51.5t13.5 76.5 t9.5 58q5 25 17.5 76t17.5 76q5 24 13.5 77.5t17 94t20.5 76.5q11 37 53 37q31 3 65.5 3.5t82 -0.5t65.5 -1q53 0 53 -50zM348 823l-72 289h-2q0 -4 1 -13.5t1 -13.5q1 -2 -1.5 -7.5t-2.5 -8.5q0 -13 6.5 -37.5t6.5 -36.5q0 -4 -1 -11.5t-1 -10.5q0 -14 10 -44.5t20 -35.5 q5 -5 9 -16q2 -6 5.5 -21t7.5 -27.5t9 -19.5q4 8 4 14zM1151 383q0 7 -6 10l-4 -4q-30 -107 -39 -205q-4 -24 -4 -39q0 -8 6 -14q4 4 10 27q22 128 23 137q1 7 7.5 39.5t6.5 48.5zM604 418q0 10 -2 14h-2q-2 -9 -5 -25.5t-6 -30t-7 -24.5q-8 -23 -25.5 -98.5t-17.5 -95.5 q0 -4 4 -8q12 3 36.5 120t24.5 148zM1354 1266q0 15 -8 26q-10 -15 -11 -18q-3 -10 -6 -32t-6 -32q-21 -80 -23 -139q3 6 7 30t16 34q3 13 11 42t14 52.5t6 36.5zM836 1153q0 7 -8 41.5t-11 44.5t-16 31v-2q-3 -19 7 -67t19 -68q9 13 9 20zM725 891h-6q-4 0 -6.5 -1t-3.5 -2 t-2 -5t-2 -6q-2 -6 -6 -19t-6.5 -20.5t-4.5 -19t-2 -21.5l2 -15q14 4 37 109zM387 496q-8 56 -27 75q-4 -12 -4 -20v-27q0 -5 1.5 -8.5t3 -6t5.5 -5t6 -3t7.5 -2.5t7.5 -3zM145 1325q0 14 -7 29t-19 14h-2q0 -2 -4 -10q0 -2 1 -8t2.5 -12t3 -12.5t4 -10.5t5.5 -4q6 0 11 4 t5 10zM1262 745q0 4 -5 19q-22 -16 -22 -55q0 -9 2 -13q25 18 25 49zM979 653q0 15 -25 25q-6 -9 -6 -19q0 -3 1 -7.5t1 -6.5q6 -2 19 -2q10 0 10 10z" />
<glyph unicode="x" horiz-adv-x="1452" d="M1391 41q0 -11 -8.5 -19t-23.5 -12.5t-31 -7t-36 -3t-34 -0.5t-29 0.5t-17 0.5v-2l-120 6q-4 0 -14 -2t-15 -2q-3 0 -51 6q-40 8 -66 49q-108 159 -213 318q-1 1 -6.5 9t-9.5 13.5t-10 11t-9 5.5q-4 0 -10 -6q-5 -5 -11 -14t-7 -11q-80 -123 -201 -313q-3 -4 -12.5 -19.5 t-16.5 -23.5q-27 -31 -57 -31q-10 0 -32 3t-32 3q-18 0 -52 -2t-50 -2q-13 0 -38 2t-38 2q-53 0 -67 4q-13 3 -13 21q0 7 11 51q2 24 22 47q38 42 137 205q28 45 133 237.5t105 204.5q0 17 -72 125q-7 10 -35.5 45t-35.5 49q-14 28 -48.5 71.5t-44.5 59.5q-58 93 -71 109 q-18 22 -38.5 69t-33.5 66q-10 13 -10 27q0 17 12.5 27t30.5 12q62 4 94 4q34 0 102.5 -6.5t102.5 -6.5q27 0 41.5 -4.5t28.5 -23.5q28 -32 77.5 -107t81.5 -110q3 -3 17 -22.5t27 -35.5t18 -16q8 0 52 71.5t93 152.5t64 95q21 21 47 21q13 0 40 -1t40 -1q25 -1 101 -1.5 t118 -2.5q15 -2 34 -22.5t19 -35.5q0 -6 -10 -26l-17 -21q-41 -41 -94 -141q-8 -15 -29 -37.5t-26 -30.5q-10 -19 -33 -48.5t-31 -43.5l-65 -112q-5 -9 -33 -54.5t-35 -60.5q-4 -8 -4 -15q0 -16 14.5 -43.5t26.5 -39.5q8 -10 53.5 -87.5t53.5 -89.5q15 -23 46 -68.5 t46 -68.5q55 -90 73 -139q9 -22 21.5 -42.5t33 -48t27.5 -38.5q52 -69 52 -82zM1047 1223l2 8q-22 -9 -47.5 -50t-28.5 -42q-31 -11 -45 -39q-5 -12 -17.5 -33t-17.5 -33h4q16 0 46 38.5t63.5 90t40.5 60.5zM1059 352l6 4q0 21 -4 31q-12 25 -66 107l-14 -9zM434 1038v13 q0 21 -13.5 45.5t-24.5 37t-34 37.5v-8q0 -10 31 -62.5t41 -62.5zM1108 92q-14 24 -21 29q-15 10 -16 14h-4q-19 0 -28 8l-3 3t-3.5 2.5t-4.5 3.5q4 -21 14 -29q6 -3 22.5 -21t20.5 -18q3 0 7 1.5t9 3.5t7 3zM440 543q0 4 -4 12q-5 -5 -26 -38.5t-21 -37.5q0 -1 1 -4t1 -4 q19 6 34 28.5t15 43.5zM342 145q-23 0 -33.5 -12t-17.5 -37q1 0 7 -3t9 -3q17 0 35 55zM807 868q0 4 -4 4q-2 -2 -8.5 -11t-12 -16t-8.5 -7h-4l-6 -4q-28 -42 -31 -52l6 -2q3 0 12 13.5t19 15.5q37 46 37 59zM758 580q0 6 -5 11t-12 5q-6 0 -14 -7t-8 -14q0 -12 18 -12 q21 0 21 17zM446 1360l9 4l-17 31q-1 0 -6.5 -1t-9 -2t-8 -2.5t-6.5 -4t-2 -5.5v-4q8 2 14.5 -0.5t13.5 -8t12 -7.5zM1171 1315l3 28q-3 3 -11 3q-12 0 -12 -17q0 -14 20 -14z" />
<glyph unicode="y" horiz-adv-x="1372" d="M1311 1399q0 -11 -2 -21.5t-7 -23t-8 -19t-10.5 -22t-9.5 -19.5q-61 -107 -88 -141q-11 -15 -25.5 -52t-23.5 -52q-65 -105 -80 -144q-7 -14 -15 -22q-74 -108 -106 -183q-3 -6 -7 -20.5t-9.5 -23t-16.5 -15.5q-4 -10 -13 -27t-13.5 -31t-4.5 -30q0 -24 -3 -74t-3 -76 q0 -19 3 -55t3 -55q0 -33 1 -98.5t1 -98.5q0 -38 -8 -65q-4 -18 -10 -22.5t-25 -6.5h-30q-23 0 -72 2t-72 2q-5 0 -14 -2t-14 -2q-62 0 -79 8q-30 14 -30 60q0 19 3.5 55.5t4.5 48.5q4 80 4 244q0 26 -8 80q0 2 1 6t1 6q0 22 -22 55l-80 142q-36 60 -106.5 169t-84.5 132 q-2 2 -8 14q-7 20 -18 43.5t-19.5 39.5t-23 43t-21.5 40q-3 7 -19.5 40t-28.5 58t-22.5 54.5t-9.5 43.5v5q1 2 5.5 7t6.5 7.5t6.5 6.5t7.5 6.5t7.5 5t9.5 3.5q38 9 177 9q10 0 30.5 -1.5t36.5 -1.5t29 3q16 4 22 4q35 0 72 -33q9 -9 42.5 -75.5t47.5 -98.5 q10 -19 32.5 -52.5t31.5 -48.5q6 -7 18 -36q14 -38 55 -90l72 112q35 48 66 115q9 24 22.5 50t32 57t27.5 48q11 21 26 29q14 8 22 12t17.5 7.5t13 5t13.5 2.5t14.5 0.5t20 -0.5h26.5q32 0 76 -1.5t97 -7t59 -14.5t6 -20zM772 383q0 2 0.5 14t0 21t-1 20.5t-3 19t-6.5 9.5 q-10 -38 -10 -55q0 -6 1 -17t1 -16q0 -8 -2 -23.5t-2 -23.5q0 -13 2 -17q0 -3 -1 -9t-1 -9q0 -7 3 -21.5t3 -21.5l4 -6l6 8q4 20 4 29q0 7 -1 21t-1 20q0 10 2 29t2 28zM969 967q0 2 -2 4l-2 2q-7 0 -11 -8q-40 -77 -73 -115q-13 -13 -13 -29q0 -1 1 -4t1 -4l7 2 q12 12 52 77t40 75zM1020 1329q0 2 -4 2h-4q-14 -30 -49.5 -82.5t-49.5 -79.5q26 23 43 48q10 15 37 61t27 51zM475 885q-4 27 -24 51q-2 2 -9.5 11t-14 17t-7.5 7h-2v-10q0 -7 23 -44.5t28 -37.5q6 0 6 6zM618 72q0 3 -7.5 26t-8.5 27h-4q-8 -10 -8 -43q0 -5 6 -12t12 -7 q3 0 6.5 3t3.5 6zM188 1300q-1 2 -4 13t-6.5 19.5t-8.5 16t-11 7.5t-6 -4q0 -7 12.5 -31.5t19.5 -24.5q4 0 4 4zM715 756q0 8 -8 8q-7 0 -16 -9.5t-9 -17.5q0 -10 10 -10q7 0 15 10.5t8 18.5zM446 1206q0 25 -12 25q-7 0 -10 -6l-2 -6q0 -3 16 -35q8 8 8 22z" />
<glyph unicode="z" horiz-adv-x="1130" d="M1008 227q0 -41 -4.5 -107.5t-12.5 -86.5q-4 -11 -10 -13q-24 -6 -47 -6q-15 0 -46 1t-48 1q-8 0 -33 -5.5t-41 -4.5q-16 0 -46 -1t-46 -1q-10 0 -28 6t-25 6q-13 0 -38 -2t-38 -2q-71 0 -92 -4q-10 -2 -20.5 -3t-22.5 -1.5t-19 -1.5q-16 6 -47 6q-10 0 -29.5 -1 t-29.5 -1q-50 4 -72 4h-29q-17 -2 -39 15q-6 5 -10 16.5t-6 22.5t-3 28t-1 27v27v20q0 78 6 115q0 7 10 22q11 14 20.5 30t20.5 37.5t17 32.5l22 44t31 53q14 25 22 43q5 10 39.5 79.5t67.5 137t69.5 144t59 130t22.5 66.5q0 18 -32 18q-12 0 -38 1t-38 1q-5 0 -15.5 -1 t-15.5 -1q-63 -2 -190 -2h-9.5h-10.5t-10 0.5t-10 1t-9 2t-9 3.5t-7 5t-6 6.5t-3.5 9t-1.5 11.5q0 7 2 20.5t2 20.5q0 13 -4 37t-4 35q0 5 2 14t2 14q0 66 10 101q7 20 23 20q49 2 149 2q126 4 191 4q18 0 55 -3t55 -3q47 0 142.5 6.5t142.5 6.5q38 0 60 -20.5t22 -57.5 q0 -81 -10 -176q0 -8 -11 -35q-8 -20 -23.5 -56t-21.5 -51l-22 -41q-21 -38 -73 -127.5t-79 -138.5q-66 -123 -147 -287q-5 -12 -17.5 -38t-21 -46t-14.5 -39q76 -10 180 -10q35 0 103 4t102 4q86 0 86 -88zM856 1276q-13 8 -59 8q-4 0 -12.5 -1t-12.5 -1q-6 0 -19 4t-20 4 q-33 0 -49 -6q3 -12 18 -12q5 0 16 1t17 1q5 0 17 -4t20 -4t12 2q20 -4 29 -4q29 0 43 12zM455 1362l-2 4q-35 -6 -100 -6t-91 -2q30 -10 57 -10q43 0 121 8q15 0 15 6zM715 164l-2 4q-33 -5 -95 -4.5t-94 -3.5q30 -10 56 -10q20 0 122 10q13 0 13 4zM754 1040q-4 4 -6 4 q-6 0 -32 -44.5t-26 -53.5h4q18 12 26.5 34.5t10.5 25.5q12 12 23 34zM471 537q0 6 -6 6h-4l-47 -117q11 15 34 57.5t23 53.5zM541 801q0 14 -13 14q-8 0 -15 -5.5t-7 -14.5q0 -6 5 -11.5t11 -5.5q19 0 19 23zM918 86l-7 4l-10 2q-30 0 -43 -10q12 -12 33 -12q24 0 27 16z M248 1214q0 11 -19 11q-6 0 -14 -5t-8 -12q0 -12 16 -12q7 0 16 5.5t9 12.5zM258 156q0 6 -6 6q-7 0 -14 -7.5t-7 -13.5q0 -8 9 -8q6 0 12 8.5t6 14.5z" />
<glyph unicode="{" horiz-adv-x="761" d="M659 -174q0 -53 -149 -53q-241 0 -326 143l-16 29q-37 63 -37 141q0 8 2 14q12 54 12 115q0 5 -2 14.5t-2 14.5q0 7 6.5 23t6.5 24q0 6 -2 19t-2 20q0 46 -15 90t-49 61q-34 20 -66 23q-47 8 -47 41q-4 102 -4 155q0 17 1 25.5t8.5 17.5t21.5 11q60 7 89.5 55t29.5 113 q0 12 -4 36.5t-4 38.5v31q-5 15 -5 23q0 21 8 61.5t9 54.5q3 19 7 56t7 55q3 9 11.5 29t11.5 32q4 14 13.5 26t23.5 26t20 22q30 34 94 49q40 9 74 15q13 2 49 10t61 12t50 4q12 0 24 -6q8 -4 25.5 -7t26.5 -10.5t10 -27.5q6 -86 6 -176q0 -23 -18 -36.5t-37.5 -17t-51.5 -6 t-41 -4.5q-17 -3 -34.5 -21.5t-20.5 -35.5q-6 -27 -6 -59q0 -9 3 -27.5t3 -26.5t-2 -24.5t-2 -24.5q0 -16 5 -49t5 -51q0 -19 -2 -27q0 -8 3 -25.5t3 -25.5q0 -25 -14 -45q-3 -5 -14 -31q-5 -14 -10 -24.5t-13 -22t-11.5 -16t-16 -19.5t-17.5 -20q71 -46 80 -125 q1 -11 7.5 -66t6.5 -84q0 -14 -2 -41t-2 -40q0 -7 2 -21.5t2 -21.5q0 -16 -7 -48t-7 -49q0 -39 30.5 -69.5t69.5 -30.5q49 0 74 -2q34 -3 43 -41q5 -26 6 -75.5t2 -65.5q0 -5 3 -15.5t3 -15.5zM283 954q0 17 -11 21q-10 -10 -10 -19q0 -105 10 -163q11 8 11 161zM369 434 q0 11 -10 39t-17 31q-12 6 -27 6h-12q1 -6 20.5 -17t22.5 -36q6 -58 16 -74h3q4 32 4 51zM547 -80q0 6 -4 10q-23 -5 -23 -20q0 -10 4.5 -20.5t12.5 -10.5q10 0 10 41zM43 584q0 31 -16 47q-9 -12 -9 -25q0 -24 23 -43q2 6 2 21zM262 1239q0 6 -2 8h-4q-5 0 -9.5 -4t-4.5 -8 q0 -3 6 -45l4 -2q10 27 10 51zM553 1415q0 6 -4 11.5t-10 5.5t-13 -7v-4q4 -19 15 -26q12 12 12 20zM305 63q0 14 -8 25q-14 -14 -14 -20q0 -14 14 -21q8 0 8 16z" />
<glyph unicode="|" horiz-adv-x="626" d="M483 1485q0 -10 -1 -30t-1 -30q0 -27 -3 -84t-3 -84q0 -83 2 -124q0 -5 2 -14.5t2 -14.5q0 -86 -4 -250q-6 -153 -6 -154q0 -22 1 -63.5t1 -61.5q0 -13 -1 -36.5t-1 -34.5q0 -30 2 -89t2 -89q0 -56 -4 -168.5t-4 -169.5q0 -15 2 -43t2 -41q0 -90 -4 -133q-6 -45 -49 -45 q-12 0 -34 1t-34 1q-26 0 -74.5 6.5t-70.5 7.5q-23 3 -31 10.5t-14 30.5q-5 24 -5.5 72.5t-4.5 70.5q0 2 -1.5 5.5t-1.5 5.5q0 21 -2 64t-2 65q0 16 6.5 44t6.5 44q0 18 1 54t1 54q0 78 2 94q0 5 1 15.5t1 15.5q0 6 -2 17.5t-2 17.5q0 16 3 49t3 49q0 12 -2 38t-2 38 q0 7 1 22.5t1 22.5q0 9 -1 28t-1 29q0 14 2 40t2 40q0 5 -2 15.5t-2 15.5q0 18 2 51.5t2 50.5q0 24 -1 52t-2.5 62.5t-2.5 53.5v172q-1 22 -2.5 61.5t-2.5 72t-1 61.5q0 19 2.5 34t9.5 25.5t12.5 18t18.5 12t20.5 7.5t25 4t25.5 1.5t29.5 0t28.5 -0.5h100q35 0 47 -14 t12 -49zM266 1231q0 7 -3.5 20t-4.5 17l-2 4q-4 -31 -4 -96l-6 -93q0 -14 -3 -39.5t-3 -37.5q0 -70 10 -93q8 16 8 25t-2 26.5t-2 26.5t4 26t4 25q0 18 -3 51.5t-3 49.5q0 10 4 30.5t4 30.5q0 5 1 14t1 13zM354 260q0 61 -8 88l-4 8q-1 0 -3.5 -5t-2.5 -7v-63q0 -11 1 -33 t1 -33q0 -8 -2 -24.5t-2 -24.5q0 -60 8 -60t8 15q0 39 -2 57q0 15 3 42t3 40zM240 -123q0 15 -21 23q-4 -8 -4 -15q0 -45 14 -57q11 13 11 49zM375 1354q-1 8 -1.5 38t-6.5 46q-5 -20 -5 -27q0 -8 2.5 -24.5t2.5 -24.5q0 -14 6 -16q2 2 2 8zM272 637v18q0 10 -6 19 q-12 -18 -12 -25q0 -6 18 -12z" />
<glyph unicode="}" horiz-adv-x="761" d="M102 -174q0 5 3.5 15.5t3.5 15.5q1 16 2 65.5t6 75.5q9 38 43 41q25 2 73 2q39 0 70 30.5t31 69.5q0 17 -7.5 49t-7.5 48q0 7 2.5 21.5t2.5 21.5q0 13 -2.5 40t-2.5 41q0 28 7 82t8 68q9 79 80 125q-5 6 -15 17t-14 16t-10.5 14t-10.5 16t-9 17t-9 22q-11 26 -14 31 q-15 21 -15 45q0 8 3.5 25.5t3.5 25.5q-2 8 -2 27q0 18 5 51t5 49q0 8 -2 24.5t-2 24.5t3 26.5t3 27.5q0 32 -6 59q-3 17 -21 35.5t-35 21.5q-9 2 -32 3.5t-40 4t-35.5 8t-29 17.5t-10.5 31q0 90 6 176q1 20 10 27.5t26.5 10.5t25.5 7q12 6 24 6q25 0 50 -4t61 -12t49 -10 q35 -6 74 -15q64 -15 94 -49q6 -8 20 -22t23.5 -26t13.5 -26q3 -12 11.5 -32t11.5 -29q3 -19 7 -56t7 -55q1 -14 8.5 -54.5t7.5 -61.5q0 -11 -4 -23v-31q0 -14 -4 -38.5t-4 -36.5q0 -65 29.5 -113t89.5 -55q14 -2 21.5 -11t8.5 -17.5t1 -25.5q0 -28 -5 -155q0 -33 -47 -41 q-31 -2 -65 -23q-34 -17 -49 -61t-15 -90q0 -7 -2 -20t-2 -19q0 -8 6.5 -24t6.5 -23q0 -5 -2.5 -14.5t-2.5 -14.5q0 -57 13 -115q2 -6 2 -14q0 -78 -37 -141l-16 -29q-85 -143 -326 -143q-150 0 -150 53zM479 954q0 -154 10 -161q11 64 11 163q0 8 -11 19q-10 -4 -10 -21z M393 434q0 -19 4 -51h2q11 18 17 74q3 25 22.5 36t20.5 17h-13q-14 0 -26 -6q-7 -3 -17 -31t-10 -39zM215 -80q0 -41 10 -41q8 0 12.5 10.5t4.5 20.5q0 15 -23 20q-4 -4 -4 -10zM719 584q0 -15 2 -21q22 18 22 43q0 14 -8 25q-16 -16 -16 -47zM500 1239q0 -24 10 -51l4 2 q6 42 6 45q0 4 -4.5 8t-9.5 4h-4q-2 -2 -2 -8zM209 1415q0 -8 12 -20q11 7 15 26v4q-7 7 -13 7t-10 -5.5t-4 -11.5zM457 63q0 -16 8 -16q14 7 14 21q0 6 -14 20q-8 -11 -8 -25z" />
<glyph unicode="~" horiz-adv-x="1249" d="M1145 764q0 -68 -23 -137t-63 -117q-15 -17 -47 -41q-58 -47 -99 -55q-39 -8 -84 -8q-50 0 -101.5 25t-93 60.5t-77.5 71.5t-68 61t-53 25q-64 0 -90 -151q-6 -52 -61 -52q-12 0 -74 12t-74 17q-17 5 -26 13t-9 24q0 15 3 35t6.5 34.5t9.5 38.5t8 33q17 82 80 152t143 98 l19 6q14 2 45 2q56 0 109 -25.5t93.5 -61.5t77.5 -72.5t73.5 -62t68.5 -25.5q20 0 32.5 10t16.5 30t5.5 34.5t0 41.5t-1.5 31q3 30 27 41q15 7 73 11.5t90 4.5q19 0 32 -7t19 -14.5t9 -25.5t3.5 -26.5t0.5 -30.5zM414 809v6q0 8 -21 8q-12 0 -39.5 -15t-27.5 -26l-2 -6l2 -2 q43 31 57 31q9 0 16 3l7 3q6 0 8 -2zM1006 741v11q-20 -14 -39 -58h2q16 0 26.5 15.5t10.5 31.5zM750 547q0 8 -9.5 13t-17.5 5t-12 -4v-8q0 -7 10.5 -10.5t19.5 -3.5q1 1 3 2.5l4 3t2 2.5zM213 569v11l-4 2q0 -1 -6 -13t-6 -16t4 -12q12 12 12 28z" />
<glyph unicode="&#xa1;" horiz-adv-x="628" d="M485 707q0 -15 -7 -47t-7 -50v-55q0 -15 -2 -42.5t-2 -41.5q0 -9 1 -27.5t1 -27.5q0 -6 -1 -17t-1 -16q0 -15 3 -45t3 -45v-41q0 -6 2 -19.5t2 -19.5q0 -13 1 -39t1 -39q0 -19 -2 -29q-4 -23 -4 -65q0 -41 -123 -41q-6 0 -18 1t-17 1q-4 0 -30.5 -3t-40.5 -3 q-55 0 -84 43q-6 10 -6 63q0 8 3 25t3 25q0 69 -2 104q0 1 -3 17t-3 24q0 25 -1 72.5t-1 70.5q0 12 2 34t2 34q2 45 2 136t2 136q0 8 3 23t3 22q0 13 -6 35t-6 33q0 25 4 43.5t9 31t17 20.5t20 12.5t27.5 6.5t29 2t35 -0.5t36.5 -0.5q12 0 34 -2t33 -2q38 0 57.5 -14 t22.5 -50q0 -8 2 -24t2 -23q0 -13 -1 -37t-1 -35q0 -8 -1 -24.5t-1 -24.5q0 -12 4 -33.5t4 -31.5zM475 1266q0 -16 -8 -29q-4 -5 -8 -23q-47 -92 -137 -92q-10 0 -54 11q-65 22 -95 62.5t-30 107.5q0 38 26 74t62 59q16 10 56 10q16 0 26.5 -3t23 -8t23.5 -8 q44 -13 79.5 -64t35.5 -97zM287 379q0 57 -8 104q-7 -119 -7 -202q0 -17 3 -47.5t4 -40.5l4 2q4 122 4 184zM279 915v23q-15 -5 -15 -25v-110q0 -19 6 -31q9 51 9 143zM248 1296q0 15 -2 23q-17 -11 -17 -43v-21q19 14 19 41zM360 629q0 14 -16 22q-8 -16 -8 -22q0 -9 8 -25 q16 12 16 25zM444 70v24h-20q0 -2 6 -26q4 -7 6 -7q5 2 8 9zM385 1274q0 12 -8 12q-10 0 -10 -8v-2q0 -14 10 -14q8 0 8 12z" />
<glyph unicode="&#xa2;" horiz-adv-x="1224" d="M1122 412q0 -13 -2 -17q-32 -167 -176 -289q-39 -33 -166 -88q-6 -3 -19 -5.5t-18.5 -8t-5.5 -18.5q0 -14 1 -43t1 -45q0 -23 -15 -38.5t-38 -15.5q-2 0 -119 6q-29 0 -40 15t-11 45q0 8 2 25.5t2 25.5q0 39 -18 39q-24 0 -41 10q-99 56 -166 96q-17 10 -42.5 41 t-33.5 50l-6 10q-41 49 -75 132t-34 144q0 17 4.5 52t4.5 53q0 86 40.5 196.5t98.5 165.5q19 17 34 30.5t34 26t27.5 18.5t32.5 17.5t29 14t38 16.5t40 17q1 1 5 2.5t4.5 2t3 2.5t3 3.5t1 4.5t0.5 7v102q0 19 4.5 24.5t23.5 6.5l125 4q6 0 17.5 1t17.5 1q39 0 41 -28l4 -97 q0 -13 3.5 -17t15.5 -7q11 -3 34.5 -7.5t40 -9.5t33.5 -14q115 -60 172 -141t56 -203v-8q0 -23 -8 -32.5t-31 -12.5q-31 -4 -97 -4q-83 0 -120 4q-24 3 -35 19.5t-13 36t-13.5 45.5t-33.5 44l-6 -2q5 -89 8.5 -267t8.5 -267q1 1 5 2.5t5 3.5q21 21 30.5 48t12 48.5t10.5 41 t32 30t70 10.5q13 0 37 -1t37 -1q11 0 35 1t37 1q27 0 44 -14.5t17 -40.5zM520 557q0 32 -1 67.5t-2.5 78.5t-2.5 67q0 27 -8 39q-49 -23 -74.5 -116t-25.5 -167q0 -81 15 -126t64 -103q12 -16 27 -16h4q2 6 2 16q0 15 -1 43t-1 43q0 30 2 88t2 86zM616 594v76q0 12 -1 25.5 t-2.5 29.5t-2.5 25q-1 8 -1.5 31t-2.5 36q-8 -41 -8 -133q0 -20 2.5 -104t3.5 -88q3 -12 4 -27t1 -32.5t1 -26.5q6 6 6 188zM940 236l-6 4q-7 -17 -37.5 -44t-54.5 -44q-8 -5 -8 -17q37 10 70 38t36 63zM305 412v24q1 2 -2.5 14.5t-7.5 28.5t-4 25q0 12 5 34t5 33q0 4 -4 4 l-6 -14q-12 -2 -12 -67q0 -16 8 -49t18 -33zM936 850q-13 32 -37 57t-53 25l-2 -4q31 -14 78 -72q6 -6 14 -6zM647 29q0 15 -4 39q0 18 -4 18q-3 0 -5.5 -8.5t-2.5 -11.5v-25q0 -68 8 -76q4 4 4 10q4 32 4 54zM627 1110q0 19 -4 47q-13 -6 -16 -12.5t-3 -24.5q0 -17 6 -35 q17 7 17 25zM311 852l-2 4q-11 -1 -25 -19.5t-14 -29.5v-6q14 5 27.5 21.5t13.5 29.5zM1079 387q0 9 -16 25q-8 -12 -8 -25q0 -9 6 -18q18 9 18 18zM428 166q0 8 -5.5 17t-12.5 12h-9q0 -1 -1 -3.5t-1 -3.5l9 -18q10 -10 14 -10h4q2 2 2 6z" />
<glyph unicode="&#xa3;" horiz-adv-x="1159" d="M1057 162q0 -10 -1 -32t-1 -32q0 -43 -12.5 -67t-51.5 -27q-93 -10 -114 -10q-27 0 -77.5 5.5t-72.5 6.5q-33 0 -98.5 1t-98.5 1q-28 0 -83 -6t-82 -6q-40 0 -84.5 12.5t-44.5 40.5q0 17 4 52t4 53q0 14 -3 43.5t-3 44.5q0 28 12.5 47t30 30.5t35 23.5t30 33.5t12.5 53.5 q0 26 -14 57q-12 28 -53 36.5t-82 5.5t-74 12t-33 55q0 9 2 28t2 29q0 17 -2 52.5t-2 54.5t2.5 37t13.5 35.5t29 17.5q6 0 18.5 -2t18.5 -2q15 0 15 16q0 19 -2 29q-17 44 -17 94q0 13 2 40t2 40q0 67 6 90q23 81 58 123l37 47q27 33 85.5 63.5t102.5 36.5l102 17q14 2 46 2 q116 0 215.5 -60.5t164.5 -162.5q3 -6 11.5 -20t12.5 -21.5t7.5 -20t3.5 -24.5q0 -16 -33 -44.5t-53 -35.5q-28 -16 -41 -29q-19 -15 -52 -33t-50 -18q-18 0 -39 21.5t-38.5 48t-43.5 48t-53 21.5q-39 0 -80 -18q-35 -17 -35 -86q0 -81 29 -138q7 -13 44.5 -21.5t63.5 -8.5 q3 0 11 1t12 1q9 0 27.5 -1t27.5 -1q23 0 69 4t68 4q21 0 36 -4.5t24 -16.5t14 -21t7 -29.5t2.5 -30t0.5 -33.5q0 -134 -14 -148q-21 -24 -51 -24q-168 0 -215 -4q6 -44 6 -84q0 -67 -25 -131q1 -1 4 -2.5t5 -3t4 -1.5h53q46 -4 70 -4q25 -1 70.5 -1t82.5 -1t70 -4 q21 -2 29.5 -9.5t9.5 -27.5q4 -74 4 -108zM631 117v4q0 8 -13 8q-3 0 -10.5 -2t-11.5 -2q-12 0 -38 -1t-38 -1q-10 0 -30.5 2t-32.5 2q-92 0 -121 -6q-1 -2 2 -3.5t8.5 -2t8.5 -0.5h7q66 -4 99 -4q19 0 58 -1t59 -1q48 0 53 8zM844 715q-6 2 -19 2q-40 0 -114 -3.5t-97 -4.5 q-90 0 -108 -2q15 -5 16 -5q6 0 18.5 1.5t18.5 1.5q8 0 23.5 -2.5t23.5 -2.5q4 0 14 0.5t15.5 0.5t13 -1.5t13.5 -5.5q103 0 112 11q11 5 37.5 7t32.5 3zM791 1153v10q1 31 -53.5 67t-88.5 36q-5 0 -10 -9q14 -8 43 -12q15 -3 51 -26q27 -18 31 -35q2 -7 11.5 -19t15.5 -12z M375 907v17q0 15 -4 39l-15 4q2 -4 2 -10t-1 -13t-1 -10q0 -16 9 -72h4q6 21 6 45zM575 360h-22q-6 -15 -21 -40t-18 -31q8 0 18 9t16.5 19t15.5 25t11 18zM266 606q-18 12 -43 12q-26 0 -47 -12q24 -4 41 -4h10q31 0 39 4zM471 1298l-6 15h-2q-8 0 -14.5 -8.5t-6.5 -16.5 v-4q0 -9 7 -14h2q5 -1 8.5 2.5t5 7t3.5 10t3 8.5zM877 152v6q-7 18 -21 18q-10 0 -18 -8l12 -16l10 -5q2 0 17 5z" />
<glyph unicode="&#xa4;" horiz-adv-x="1329" d="M1247 264q0 -22 -26 -41q-123 -106 -162 -106q-17 0 -35 14q-22 17 -59.5 50.5t-51.5 45.5q-128 -55 -262 -55q-87 0 -176 25q-6 3 -25.5 7.5t-25.5 4.5q-9 0 -16 -10q-19 -24 -64 -64.5t-63 -40.5q-9 0 -29 15q-7 6 -30 27.5t-36 31.5q-67 53 -75 61q-21 13 -21 29 q0 5 2.5 10t4.5 7.5t7.5 7.5t6.5 6q51 38 102 102q-57 103 -57 230q0 79 22 141q31 62 31 69q0 6 -31.5 30.5t-63.5 53.5t-32 46q0 11 18 34q17 19 87.5 83.5t78.5 64.5q22 0 80 -55.5t68 -55.5q3 0 14.5 5t25 11t17.5 7q103 28 201 28q13 0 41 -2t43 -2q5 0 17 2t18 2 q13 0 58.5 -21.5t53.5 -21.5q11 0 42.5 31t67.5 61.5t56 30.5q30 0 100 -81t70 -113q0 -17 -22 -35q-13 -12 -49 -40.5t-54 -45.5q37 -65 53.5 -109.5t16.5 -103.5q0 -17 -0.5 -32t-1 -26.5t-2.5 -25t-2.5 -20.5t-4 -21.5t-4.5 -19.5t-6 -21.5t-6.5 -21.5t-8.5 -26t-9 -28 q5 -5 27 -24.5t37.5 -34.5t29.5 -35.5t14 -34.5zM868 633q0 75 -38.5 106.5t-120.5 51.5q-21 6 -50 6q-64 0 -106 -26.5t-72 -84.5q-16 -29 -16 -63q0 -37 31 -93q51 -86 155 -86q51 0 103.5 16.5t74.5 51.5q39 55 39 121zM860 352h-2l-12 -6q-15 -8 -25 -10 q-79 -24 -145 -29l4 -10q18 5 63.5 8.5t59.5 7.5q5 1 18.5 10t25.5 18.5t13 10.5zM481 369h2l-88 41l-2 -4q3 -13 27 -27t37 -14q8 0 24 4zM346 772l19 39l-9 12h-2q-4 -1 -7 -3.5t-4.5 -6t-3 -6.5t-2.5 -8t-1.5 -8t-1 -9t-0.5 -8l6 -6zM188 971q-7 14 -14 14t-12.5 -11.5 t-5.5 -17.5q0 -3 2.5 -7.5t5.5 -4.5q9 0 16.5 9.5t7.5 17.5zM1053 616q0 8 -4 18.5t-9 10.5q-7 0 -10.5 -8t-3.5 -14q0 -15 10 -25q13 3 17 18zM653 938l43 2q-25 10 -65 10q-29 0 -41 -6q30 -6 63 -6zM1090 946l43 43l-3 4v2q-1 0 -3 -1t-3 -1q-2 -2 -21 -16.5t-26 -22.5 v-8l6 -2q1 0 3.5 1t3.5 1zM201 272l-2 7l-4 2q-6 -1 -14.5 -12t-10.5 -19q10 1 15.5 2.5t10.5 6.5t5 13zM1077 256v2q0 6 -6 13.5t-12 7.5q-3 0 -5.5 -3.5t-2.5 -5.5q0 -7 7 -13.5t15 -6.5z" />
<glyph unicode="&#xa5;" horiz-adv-x="1329" d="M1268 1401q0 -22 -67 -150.5t-146 -276t-97 -194.5q14 -2 53 -3.5t58 -4.5q24 -5 27 -31q2 -43 2 -131q0 -31 -10.5 -41t-40.5 -10q-19 0 -56 -2t-55 -2q-8 0 -24.5 1t-24.5 1q-17 0 -21 -4t-4 -21v-14q-5 -31 -0.5 -44t33.5 -13q9 0 42.5 0.5t57.5 1t51.5 -1.5t38.5 -6 q18 -6 21 -25q4 -36 4 -57q0 -76 -15 -93.5t-87 -17.5q-22 0 -63.5 2t-61.5 2q-15 0 -15 -14t3 -43t3 -43q0 -62 -8 -111q-6 -42 -49 -45q-122 -8 -188 -8q-40 0 -72 14q-27 15 -27 45q0 149 -4 191q-12 4 -18 4q-28 0 -87 -2t-87 -2q-47 0 -47 35q0 19 -2 59.5t-2 61.5 q0 15 4 25t8 15.5t16.5 9t16.5 4t22.5 1t22.5 0.5q28 4 45 4q15 0 43.5 -3t42.5 -3q7 0 11 5.5t5.5 15.5t1.5 19t-1 20t-1 14q0 11 -12 14q-31 2 -92 2q-10 0 -31 -1t-31 -1q-19 0 -51 4q-9 1 -15.5 6.5t-10 15t-6 19t-3 22.5t-1 22t0 21.5t0.5 16.5v14.5v15t1 12.5t2.5 12 t5 9t8 8t12 4.5t16.5 2.5q95 0 95 14l-5 10q-86 163 -141 248l-69 102q-39 63 -123 226q-9 12 -9 24q0 54 123 54q6 0 18.5 -1t18.5 -1q17 0 51 2t50 2q42 0 65 -2q25 -3 39 -27q37 -56 73.5 -122t78 -147.5t65.5 -125.5q11 -17 19 -17t40.5 50t47.5 77q80 136 114 213 q50 88 60 92q26 11 45 11q22 0 63.5 3t61.5 3q105 0 137 -6q37 -7 37 -35zM700 383q0 51 -6 51q-14 0 -14 -59q0 -205 8 -246q12 98 12 254zM422 948v6q-8 18 -38.5 71t-63.5 104.5t-39 50.5q14 -47 24 -62t37 -61t43 -66q7 -3 11.5 -7t11.5 -15l6 -11zM1055 313 q-12 9 -29 9q-16 0 -45 2t-45 2q-21 0 -47 -11l-19 -6q4 -2 11 -2q6 0 19 2t20 2q8 0 25 -3t26 -3q73 0 84 8zM705 725q0 11 -5 22t-14 11q-12 0 -12 -23q0 -29 14 -51q17 17 17 41zM973 1081l-6 2q-6 0 -9 -6q-31 -45 -34 -51l-19 -59v-2q29 39 68 116zM455 641l-2 2h-25 q-15 0 -44 -3t-32 -7l2 -6q12 -4 19 -4t20 2t19 2h10h8t5 0.5t5.5 2t6 4t8.5 7.5zM430 1280q-10 54 -51 82q4 -24 18.5 -50.5t32.5 -31.5zM1165 1352q0 12 -20 12h-8q-3 0 -10 -5.5t-7 -8.5q0 -7 7 -12t14 -5q8 0 16 6t8 13zM393 317q0 11 -18 11h-8q-3 0 -10 -5.5t-7 -9.5 q0 -6 7.5 -11t13.5 -5q8 0 15 6.5t7 13.5zM1042 629q-2 1 -6.5 5t-8 6.5t-7.5 2.5q-6 0 -11 -5t-5 -11q0 -5 4 -9t8 -4q5 0 14.5 7t11.5 8z" />
<glyph unicode="&#xa6;" horiz-adv-x="632" d="M489 418q0 -16 -2 -46t-2 -46v-267q0 -13 -1 -37t-1 -36q0 -23 2 -71t2 -73v-30t-3 -24.5t-9 -24t-17.5 -14.5t-29.5 -9q-90 -8 -149 -8q-61 0 -111 32q-25 17 -25 76q0 49 2 149t2 150q0 40 -2 120t-2 120q0 63 15 162q3 25 12.5 36t32.5 11q3 0 9 -1t9 -1v-4q19 0 56 6 t55 6q12 0 33 -4t32 -4q39 0 62 -4q14 -2 22 -23q8 -28 8 -141zM489 1442q0 -18 -2 -51.5t-2 -49.5v-208q0 -10 -1 -31t-1 -33q0 -19 2 -59.5t2 -61.5v-24q-2 -33 -14 -48t-45 -18q-147 -6 -149 -6q-66 0 -111 29q-25 15 -25 63q0 43 2 128.5t2 127.5q0 35 -2 103.5 t-2 103.5q0 55 15 139q3 22 13 30.5t32 8.5h18v-4q19 0 56 5t55 5q12 0 33 -4t32 -4q52 0 62 -2q14 -3 22 -18q3 -8 5.5 -56t2.5 -65zM428 205q0 13 -3 41t-3 41q0 20 3 62.5t3 64.5v69h-2q-20 -17 -20 -57q0 -20 3 -60t3 -59q0 -62 8 -114q8 3 8 12zM428 1257q0 13 -3 36 t-3 34q0 19 3 56t3 55v57l-2 2q-20 -17 -20 -49q0 -18 3 -52t3 -50q0 -52 8 -99q2 0 6 4q2 2 2 6zM256 -131v20q0 19 -10 29q-8 -4 -8 -22v-37l2 -2zM256 969v18q0 17 -10 25q-8 -4 -8 -19v-32l2 -3z" />
<glyph unicode="&#xa7;" horiz-adv-x="1212" d="M1110 250q0 -85 -37 -154q-5 -9 -10.5 -36t-32.5 -52q-7 -6 -25.5 -27.5t-37.5 -29.5q-27 -8 -41 -17q-31 -19 -128.5 -38t-140.5 -19q-19 0 -41.5 2t-50 5.5t-41.5 4.5q-80 9 -195.5 51.5t-158.5 90.5q-6 8 -24.5 21t-31 26t-12.5 28q0 16 49.5 85t67.5 85q21 17 35 17 q12 0 31 -14q55 -44 134.5 -79.5t139.5 -35.5q51 0 83 12t67 45q4 4 4 10q0 7 -5 23t-6 22q-6 36 -36 43q-57 18 -95 23q-7 0 -19.5 3.5t-16.5 4.5q-20 5 -63 14t-75.5 17t-62.5 18q-4 2 -8 2q-62 9 -123 70q-3 3 -12 11.5t-15 15t-10 12.5q-37 60 -37 123q0 48 10 110 q6 35 32 74t48.5 65t22.5 31q0 6 -23 29q-39 38 -63.5 98.5t-24.5 116.5q0 90 52 155t141 99q28 11 106 29q3 0 8 1t8 1q45 2 136 2q136 0 364 -66q63 -20 92 -71q4 -8 4 -17q0 -10 -6 -16q-17 -21 -32.5 -54.5t-25.5 -52.5t-34.5 -34t-64.5 -15q-33 0 -68 21 q-51 31 -102 39q-112 22 -152 22q-88 0 -88 -51q0 -27 18 -35q16 -11 36 -19t34.5 -11.5t39.5 -9.5t38 -9q5 -1 51 -13t66.5 -18.5t65.5 -21t71 -28t58 -32t51 -40t28 -46.5q29 -85 29 -151q0 -8 -4 -25t-4 -26q-1 -28 -8.5 -51.5t-14 -35t-24.5 -37.5t-25 -38l8 -8 q44 -24 68 -60q59 -80 59 -184zM729 678q0 39 -45.5 71.5t-85.5 32.5q-41 0 -89 -23.5t-48 -60.5q0 -25 28 -39q106 -49 158 -49q28 0 55 20t27 48zM623 469h8v2q-24 14 -29 16q-9 2 -37 9.5t-51.5 13t-34.5 4.5h-4q7 -25 57 -25q16 0 46 -10.5t45 -9.5zM659 1315 q-5 26 -120 35l-7 -7l7 -10q18 -5 65 -11t55 -7zM991 158q0 49 -10 65q-8 -47 -10 -65q-1 -15 -8 -37t-9 -31l4 -2h3q10 10 20 33t10 37zM289 1288q-18 -14 -29.5 -36.5t-11.5 -43.5v-22q0 -26 14 -43q0 1 3 7t3 9q0 8 -3 24.5t-3 24.5q0 18 13 43.5t14 36.5zM772 877v2 q-126 43 -158 43h-4q23 -16 52.5 -21.5t31.5 -7.5q21 -16 56 -16h22zM596 -12v2l-4 4q-6 2 -27.5 8.5t-36.5 10t-28 3.5q-2 -1 -7 -2t-8.5 -2.5t-3.5 -5.5q0 -3 2.5 -4.5t7 -2t5.5 -1.5q12 -1 41.5 -5.5t44.5 -4.5h14zM297 668q0 6 -5.5 11t-10.5 5q-13 0 -13 -12 q0 -7 5 -14t12 -7q4 0 8 5.5t4 11.5zM932 1237q0 6 -7 11t-12 5q-12 0 -12 -12q0 -18 10 -18q4 0 12.5 5.5t8.5 8.5zM199 127q0 14 -13 14q-8 0 -8 -8v-4q0 -16 10 -16l7 2q4 4 4 12zM862 383q0 5 -4 9.5t-10 4.5t-6 -10v-4q0 -14 8 -14h2l6 2q4 8 4 12zM938 758q0 6 -4 11 t-8 5q-8 0 -8 -10v-4q0 -15 8 -15h2l6 3q4 4 4 10zM444 946q-4 18 -12 23q-10 -3 -10 -13q0 -14 14 -14q4 0 8 4z" />
<glyph unicode="&#xa8;" horiz-adv-x="722" d="M723 1276q0 -63 -39 -103t-102 -40q-64 0 -106 40t-42 103t39.5 107t101.5 44t105 -44.5t43 -106.5zM616 1249q-1 1 -3.5 5t-5 6t-5.5 2q-9 0 -19 -14.5t-10 -24.5q0 -11 11 -11q4 0 10.5 6.5t13.5 18.5zM299 1262q0 -64 -36.5 -103t-100.5 -39q-15 0 -27.5 3t-30.5 10 t-26 10q-37 12 -57.5 42.5t-20.5 71.5q0 59 46.5 111.5t103.5 52.5q66 0 107.5 -46t41.5 -113zM184 1343q-15 0 -18 -16q-10 -73 -10 -92q0 -6 2 -10l6 -2q16 32 20 120z" />
<glyph unicode="&#xa9;" horiz-adv-x="1693" d="M1571 745q0 -19 -10 -102q-6 -55 -15 -106q-20 -100 -88 -212t-149 -198q-11 -13 -70 -59q-41 -36 -117 -54q-159 -30 -227 -30q-23 0 -35 2q-14 2 -39 3t-39 3q-61 8 -215 47q-81 23 -177.5 90t-149.5 135q-33 41 -54.5 99.5t-28.5 94.5t-18 111q-16 94 -16 144 q0 104 51 231q5 12 15 43t18 47q42 81 74 133q24 38 59 68q71 61 130 98t132 58q27 7 79 13.5t64 8.5q75 10 173 10q40 0 100 -11.5t102 -25.5q8 -3 26.5 -9.5t33 -12.5t24.5 -12q148 -103 221 -201q80 -104 129 -297q17 -60 17 -109zM1311 702q0 98 -40 232.5t-104 177.5 l-88 59q-14 9 -29 15.5t-34 10.5t-32 6.5t-36.5 3.5t-33 1h-36h-32.5q-48 0 -101 -16q-100 -27 -153 -59q-59 -41 -84 -70q-12 -20 -21 -29q-65 -68 -86 -215q-10 -68 -10 -129q0 -84 37 -217q29 -92 112.5 -154.5t188.5 -87.5q70 -18 119 -18q41 0 160 18q93 14 143 78 l20 23q14 11 27.5 29t28 49t21 46.5t21.5 55.5l15 39q27 73 27 151zM1061 516q0 -17 -4 -49q-5 -37 -58.5 -60.5t-97.5 -23.5q-108 0 -172 39q-18 11 -36 18.5t-25.5 11.5t-19.5 17t-27 39l-21 35q-35 88 -35 141q0 132 51 205q5 7 18 25.5t23 31.5t21 23q2 1 8 4.5t8 5.5 q34 24 95.5 38.5t109.5 14.5q25 0 49 -6q8 -2 23 -6q45 -11 59 -20t19.5 -29.5t5.5 -77.5q0 -24 -6.5 -50t-22.5 -26q-9 0 -51 28.5t-70 28.5q-69 0 -115.5 -45.5t-46.5 -115.5q0 -27 9 -54q12 -42 57.5 -74t89.5 -32q39 0 77 19.5t52 19.5q24 0 27 -23q6 -24 6 -53zM743 96 l-2 21l-49 4q-80 12 -157 51q-4 4 -11 4q-1 0 -3 -1t-3 -1q7 -8 12 -12.5t8.5 -7.5t9 -5.5t8.5 -4t13 -5t17 -6.5q9 -3 38 -15.5t51 -19t42 -6.5q10 0 26 4zM1468 522q0 7 -8 10q-12 -12 -23 -52t-14 -46l-43 -86q0 -1 3.5 -3.5t5.5 -2.5q3 0 14 18t23 38.5t14 23.5 q28 58 28 100zM936 1327v4l-4 4q-6 0 -17.5 1t-17.5 1q-61 0 -131 -26l-6 -6h8q86 0 98 12q2 10 19 10h51zM885 924q-5 8 -17 8h-4q-15 0 -23.5 -0.5t-22 -3t-21 -9.5t-9.5 -18l3 -4q58 25 69 25q21 0 25 2zM260 627q0 35 -4 39q-4 12 -4 20q0 15 -6 25h-2q-2 -8 -2 -21 q0 -40 10 -78l2 -6l2 -2q4 16 4 23zM813 496l2 4q-13 10 -27 10q-15 2 -38 16.5t-35 18.5v-2q5 -7 25.5 -23.5t27.5 -17.5zM1358 1120v15q0 20 -12 20q-3 0 -27 -16q11 -23 22 -23q5 0 17 4zM379 1040l-2 7q-23 -13 -27 -21t-4 -20v-9q15 3 24 15.5t9 27.5zM1233 129 q0 4 -4 8l-8 2q-17 -3 -27 -28q2 -2 8 -2q9 0 20 6t11 14zM678 762q0 10 -6 16q-7 -2 -13 -8.5t-6 -13.5q0 -11 13 -11q12 0 12 17zM989 477q-8 4 -10 4q-21 0 -21 -12t15 -12q12 0 16 20zM1004 969q-5 16 -15 16t-10 -10q0 -9 10 -19l4 -2q3 0 11 15z" />
<glyph unicode="&#xaa;" horiz-adv-x="952" d="M850 846q0 -26 -4 -72q0 -26 -29 -29q-43 -2 -131 -2q-4 0 -15.5 -0.5t-18 0t-17.5 1t-17.5 3t-13.5 6.5t-11 11t-5 16v19l-4 6q-12 -5 -36 -16.5t-43.5 -19t-37.5 -11.5q-22 -3 -57.5 -10.5t-64 -11t-60.5 -3.5q-66 0 -120 53.5t-54 120.5q0 26 -7 66q-2 6 -2 14 q0 19 17 57q36 85 192 144q8 3 59 7.5t66 4.5q25 0 72.5 -11t58.5 -11q9 0 13 2q-3 47 -44 67.5t-94 20.5t-127 -29q-54 -27 -75 -27q-24 0 -35 25q-31 93 -31 109q0 39 97.5 70.5t150.5 31.5q11 0 34 -2t36 -2q115 0 188 -31q12 -5 25.5 -13.5t21 -15t23 -20.5t20.5 -18 q19 -16 30 -38t14 -39.5t7 -47t8 -45.5q17 -67 17 -142q0 -32 2 -95t2 -93zM758 967q0 49 -8 147q-13 -7 -13 -57q0 -104 19 -135q0 7 1 22.5t1 22.5zM256 1362q-1 0 -4 1t-4 1q-7 0 -15 -5.5t-8 -12.5q0 -8 11 -19q18 17 20 35zM487 1130l2 3l-26 14h-4q-12 0 -36.5 -3 t-50 -10t-24.5 -16q46 12 72 12q8 0 23.5 -1t23.5 -1q3 0 10 1t10 1zM573 977q0 19 -6.5 29.5t-22.5 19.5t-22 14q-8 11 -22 11q-12 0 -37 -2t-39 -2q-40 -2 -78.5 -26.5t-38.5 -62.5q0 -47 105 -47q19 0 42.5 3t52 9.5t47.5 20.5t19 33zM231 805q0 17 -18 31h-8v-9 q10 -17 26 -22z" />
<glyph unicode="&#xab;" horiz-adv-x="1062" d="M-10 725q0 20 64.5 92t88.5 86l76 84q17 17 53 17q22 0 66 -2.5t65 -2.5q56 0 56 -12q0 -5 -4 -12t-4 -8q-5 -20 -23 -33q-10 -6 -33.5 -33.5t-51.5 -63.5t-34 -42l-78 -86q29 -31 126.5 -149.5t97.5 -127.5q0 -4 -11 -10q-9 -3 -31.5 -4.5t-33.5 -5.5q-28 -9 -105 -9 h-12h-13.5t-11.5 0.5t-12 2.5t-10 4.5t-9.5 7t-6.5 10.5q-2 4 -9.5 11t-9.5 10q-13 17 -34.5 50t-34.5 50q-32 38 -76.5 98.5t-44.5 77.5zM471 725q0 20 65 92t89 86l75 84q17 17 54 17q22 0 66 -2.5t65 -2.5q55 0 55 -12q0 -5 -4 -12t-4 -8q-5 -20 -23 -33 q-10 -6 -33.5 -33.5t-51 -63t-33.5 -42.5l-78 -86q28 -31 125.5 -149.5t97.5 -127.5q0 -5 -10 -10q-9 -3 -32 -4.5t-34 -5.5q-28 -9 -104 -9h-12h-13.5t-12 0.5t-12.5 2.5t-9.5 4.5t-9.5 7t-7 10.5q-2 4 -9 11t-9 10q-13 16 -35.5 49.5t-34.5 50.5q-32 38 -76.5 98.5 t-44.5 77.5zM78 694q5 -17 24 -44t35 -34v5q0 14 -39 63q-5 10 -20 10zM559 694q5 -17 24 -44t35 -34v5q0 15 -38 63q-5 10 -21 10zM737 946q0 -6 6 -13t13 -7q12 0 12 18q0 19 -14 19q-6 0 -11.5 -5.5t-5.5 -11.5zM256 946q0 -7 5.5 -13.5t12.5 -6.5q13 0 13 18 q0 19 -15 19q-6 0 -11 -5.5t-5 -11.5zM240 483q0 -16 12 -16q16 0 16 12q0 5 -6 11t-10 6q-12 0 -12 -13zM721 483q0 -16 12 -16q17 0 17 12q0 5 -6 11t-11 6q-12 0 -12 -13z" />
<glyph unicode="&#xac;" horiz-adv-x="1161" d="M1057 604q0 -21 -2 -33q-1 -7 -1.5 -22.5t-1.5 -23.5t-4.5 -18.5t-12.5 -17t-23 -10.5q-46 -12 -72 -12q-7 0 -21.5 2t-21.5 2h-102q-5 0 -14 -1t-13 -1q-35 0 -45.5 22.5t-9.5 60t-4 50.5q-4 8 -13 8q-25 8 -133 8q-5 0 -17 -2t-18 -2q-10 0 -30.5 2t-30.5 2 q-19 0 -57 2.5t-56 2.5q-8 0 -23.5 -1t-23.5 -1q-55 0 -92 -9h-12q-34 0 -66.5 14.5t-32.5 43.5q0 12 2.5 33t2.5 32t-3.5 34t-3.5 34q0 17 10.5 29.5t26.5 17.5q10 2 34 11.5t40 10.5q15 0 43 2.5t43 2.5q13 0 37 -2.5t37 -2.5q8 0 24.5 1t24.5 1q41 0 123.5 -3t124.5 -3 q8 0 24.5 1t24.5 1q159 0 239 -2q44 0 84 -32q11 -11 11 -68q0 -9 -3 -27.5t-3 -27.5q0 -4 2 -6q8 -26 8 -103zM811 788q-13 9 -133 9q-14 0 -55.5 -5.5t-51.5 -9.5q1 0 9.5 -3t13.5 -3q8 0 25 2t26 2q15 0 43 -2t43 -2q70 0 80 12zM997 545q0 1 -1 3q-10 18 -21 19 q-8 0 -20.5 -4.5t-12.5 -9.5q0 -12 16 -12q15 0 39 4zM231 803q-16 12 -30 12t-27 -10q8 -14 29 -14q19 0 28 12z" />
<glyph unicode="&#xad;" horiz-adv-x="907" d="M784 639q0 -70 -34 -72q-99 -6 -103 -6q-27 0 -89 2t-91 2q-73 0 -146.5 -1t-146.5 -1q-21 0 -36 10.5t-15 30.5q0 2 6 125q2 24 16 36.5t28.5 14.5t39.5 2q19 0 48 -1t42 -1q40 0 123 3t123 3q14 0 40.5 -3t37.5 -3q7 0 23.5 2t23.5 2q33 0 63 -6q12 -1 16.5 -2.5 t8.5 -7t6 -16.5q1 -9 6 -34.5t7.5 -43.5t2.5 -35zM602 713l-2 4q-6 2 -18 2h-90q-146 0 -156 -8l4 -6q4 0 12.5 -1.5t12.5 -1.5q179 0 237 11zM293 635q-8 4 -14 4q-11 0 -23 -8q12 -8 18 -8q11 0 19 12z" />
<glyph unicode="&#xae;" horiz-adv-x="1693" d="M1571 745q0 -19 -10 -102q-6 -55 -15 -106q-20 -100 -88 -212t-149 -198q-11 -13 -70 -59q-41 -36 -117 -54q-159 -30 -227 -30q-23 0 -35 2q-14 2 -39 3t-39 3q-61 8 -215 47q-81 23 -177.5 90t-149.5 135q-33 41 -54.5 99.5t-28.5 94.5t-18 111q-16 94 -16 144 q0 104 51 231q5 12 15 43t18 47q42 81 74 133q24 38 59 68q71 61 130 98t132 58q27 7 79 13.5t64 8.5q75 10 173 10q40 0 100 -11.5t102 -25.5q8 -3 26.5 -9.5t33 -12.5t24.5 -12q148 -103 221 -201q80 -104 129 -297q17 -60 17 -109zM1311 702q0 98 -40 232.5t-104 177.5 l-88 59q-14 9 -29 15.5t-34 10.5t-32 6.5t-36.5 3.5t-33 1h-36h-32.5q-48 0 -101 -16q-100 -27 -153 -59q-59 -41 -84 -70q-12 -20 -21 -29q-65 -68 -86 -215q-10 -68 -10 -129q0 -84 37 -217q29 -92 112.5 -154.5t188.5 -87.5q70 -18 119 -18q41 0 160 18q93 14 143 78 l20 23q14 11 27.5 29t28 49t21 46.5t21.5 55.5l15 39q27 73 27 151zM1102 414q0 -17 -41 -17q-67 0 -100 4q-26 3 -48 27t-35.5 50.5t-33 48.5t-41.5 22q-5 0 -15.5 1t-15.5 1q-10 0 -10 -19q0 -18 2 -53t2 -53q0 -19 -7.5 -27.5t-16 -10t-29.5 -1.5q-18 0 -64 4 q-14 0 -19.5 5t-6.5 20q-7 65 -7 131q0 25 -2 72.5t-2 70.5q0 42 -1 127.5t-1 128.5q0 8 -1 25t-1 26q0 31 137 31q54 0 104.5 -8t102 -27.5t86.5 -58.5t43 -94q6 -42 6 -43v-2q-3 -9 -7 -34t-11 -38q-2 -4 -8 -15.5t-7.5 -15t-7 -13t-8 -13t-8 -11t-10 -11.5t-10.5 -10 t-13.5 -10.5t-15.5 -9.5q7 -19 64 -95.5t57 -104.5zM897 797q0 18 -6 30q-9 18 -21 29t-30 15t-29.5 5t-36.5 1q-8 0 -8 -23l2 -100v-2q0 -2 -0.5 -10t-0.5 -13.5t1 -12.5t4.5 -10.5t9.5 -3.5q50 0 82.5 23.5t32.5 71.5zM743 96l-2 21l-49 4q-80 12 -157 51q-4 4 -11 4 q-1 0 -3 -1t-3 -1q7 -8 12 -12.5t8.5 -7.5t9 -5.5t8.5 -4t13 -5t17 -6.5q9 -3 38 -15.5t51 -19t42 -6.5q10 0 26 4zM1468 522q0 7 -8 10q-12 -12 -23 -52t-14 -46l-43 -86q0 -1 3.5 -3.5t5.5 -2.5q3 0 14 18t23 38.5t14 23.5q28 58 28 100zM936 1327v4l-4 4q-6 0 -17.5 1 t-17.5 1q-61 0 -131 -26l-6 -6h8q86 0 98 12q2 10 19 10h51zM690 776v15q0 6 0.5 20.5t0.5 26t-1 20.5l-4 4q-4 -4 -6 -4q-2 -10 -2 -31q0 -5 -0.5 -22t-0.5 -27.5t2 -24t5 -22.5l4 4q0 7 1 20.5t1 20.5zM260 627q0 35 -4 39q-4 12 -4 20q0 15 -6 25h-2q-2 -8 -2 -21 q0 -40 10 -78l2 -6l2 -2q4 16 4 23zM1358 1120v15q0 20 -12 20q-3 0 -27 -16q11 -23 22 -23q5 0 17 4zM379 1040l-2 7q-23 -13 -27 -21t-4 -20v-9q15 3 24 15.5t9 27.5zM879 653q-1 0 -3.5 1t-3.5 1q-5 0 -13.5 -3t-12.5 -3q-15 0 -39 -16q4 -2 27 -2q7 0 24.5 8t20.5 14z M1233 129q0 4 -4 8l-8 2q-17 -3 -27 -28q2 -2 8 -2q9 0 20 6t11 14zM842 963q-10 10 -43 10q-14 0 -23 -6q18 -9 53 -9q8 0 13 5zM1020 805q0 7 -6 16q-6 -2 -12.5 -9t-6.5 -13q0 -11 13 -11q4 0 8 5.5t4 11.5zM944 451v8l-18 33q-4 4 -6 4q-3 0 -7 -4v-7l25 -32q1 0 3 -1 t3 -1zM692 442q-2 5 -9 12t-11 7l-4 -4q0 -6 8 -13.5t14 -7.5q0 1 1 3t1 3z" />
<glyph unicode="&#xaf;" horiz-adv-x="497" d="M498 1366q0 -24 -4 -70q-1 -21 -3 -31.5t-11.5 -22.5t-26.5 -15q-66 -8 -103 -8h-10q-34 0 -100.5 2t-100.5 2q-11 0 -33 -2t-34 -2q-72 0 -72 47q0 117 4 133q2 12 7.5 19t17 9t17 2.5t22.5 0.5q8 0 22.5 -1t26.5 -1t22 2q29 6 88 6q22 0 68 -2t70 -2q13 0 38 1t37 1 q9 0 54 -17q0 -9 2 -26t2 -25zM414 1272q-33 10 -101 10q-11 0 -22.5 -1t-25.5 -2.5t-23 -2.5q18 -10 63 -10h29q55 0 80 6zM88 1341q0 2 -2 3.5t-4.5 3t-3.5 2.5q-1 -1 -5.5 -3t-6 -3t-5.5 -3t-6 -4t-4 -4.5t-3 -5.5t-1 -6l23 -8q18 18 18 28z" />
<glyph unicode="&#xb0;" horiz-adv-x="733" d="M629 1180v-41q0 -75 -56 -164q-35 -53 -91 -81t-122 -28q-5 0 -15.5 1t-16.5 1q-5 0 -14.5 -1t-14.5 -1q-49 0 -99 53.5t-73 108.5q-25 60 -25 135q0 33 2 47q5 92 111 183q18 15 80 43q21 12 45 12q8 0 26 1t27 1q47 0 105.5 -34.5t85.5 -76.5q48 -76 45 -159zM485 1339 v4q0 17 -12 17t-12 -14q0 -4 4 -9.5t8 -5.5q2 0 6.5 3.5t5.5 4.5zM451 1169q0 35 -26.5 58.5t-62.5 23.5q-25 0 -54 -29.5t-29 -54.5q0 -32 21.5 -50.5t53.5 -18.5h29q30 0 49 20t19 51zM436 950l4 6q-5 5 -8 5l-22 -11q6 -6 12 -6q2 0 14 6zM201 1087v15q0 18 -1 54t-1 54 l-4 2q-13 -17 -13 -55q0 -15 1 -26.5t2.5 -17.5t4.5 -18.5t5 -23.5l4 -2q0 3 1 9t1 9z" />
<glyph unicode="&#xb1;" horiz-adv-x="1118" d="M1014 719q0 -149 -6 -162q-4 -13 -8 -18t-9 -6.5t-20 -2.5q-13 0 -37.5 -1t-36.5 -1q-26 0 -77.5 2t-76.5 2h-34l-2 -34q0 -38 4 -115t4 -115q0 -23 -9.5 -34.5t-31.5 -12.5q-51 -6 -154 -6q-54 0 -76 10q-31 14 -34 47q-1 25 -1.5 105t-2.5 123q0 13 -4 18.5t-17 5.5 q-16 0 -44.5 -4t-41.5 -4q-74 -4 -109 -4q-23 0 -37.5 2.5t-28 14t-15.5 32.5q-5 54 -5 127q0 68 2 82q1 20 8.5 26.5t28.5 6.5q57 2 176 2q60 0 75.5 11.5t15.5 68.5q0 23 -3.5 66.5t-3.5 64.5q0 31 9 61q6 20 10.5 28.5t15 14.5t29.5 6h121q55 0 84 -2q21 -1 30 -11.5 t11 -31.5q2 -45 2 -131q0 -10 -1 -41t-0.5 -52.5t5.5 -39.5q41 -8 96 -8q14 0 48 1t58 0.5t46 -3.5q23 -3 33.5 -13t11.5 -32q2 -14 2 -43zM1014 -76q0 -148 -6 -162q-6 -18 -11.5 -21t-25.5 -5q-13 0 -37.5 -1t-36.5 -1q-26 0 -77.5 2t-76.5 2q-85 0 -242.5 -8.5 t-201.5 -8.5q-74 -4 -109 -4q-77 0 -81 50q-5 54 -5 127q0 68 2 81q1 20 8.5 26.5t28.5 6.5q69 0 358.5 3t313.5 3q14 0 48 1t58 0.5t46 -3.5q23 -3 33.5 -13t11.5 -32q2 -14 2 -43zM528 563q0 156 -4 172q-5 -5 -10 -24q0 -25 -3 -77t-3 -77q0 -14 12 -14q8 0 8 20z M444 -98q156 0 172 4q-5 5 -24 10q-26 0 -77 3t-77 3q-14 0 -14 -12q0 -8 20 -8zM645 1030q0 18 -6 33q-14 -9 -14 -47q0 -28 4 -83t4 -83v-6q5 3 8.5 77t3.5 109zM911 -133q-35 12 -112 12q-27 0 -37 -4l4 -12q14 0 39 -1t37 -1h32q29 0 37 6zM911 662q-35 12 -112 12 q-27 0 -37 -4l4 -13q14 0 39 -1t37 -1h32q28 0 37 7zM188 664l33 -2q-1 2 -3.5 13.5t-6.5 18t-10 6.5q-7 0 -13 -6t-6 -14q0 -10 6 -16zM188 -131l33 -2q-1 2 -3.5 13.5t-6.5 18.5t-10 7q-7 0 -13 -6.5t-6 -14.5q0 -10 6 -16zM631 313q0 4 -10 19q-15 -15 -15 -25 q0 -6 8 -14q17 11 17 20z" />
<glyph unicode="&#xb2;" horiz-adv-x="825" d="M702 1190q0 -46 -26 -107q-44 -95 -123 -151l-14 -10q-10 -9 -21 -19.5t-24 -24.5t-21 -22q-26 -21 -37 -35q68 -6 133 -6q11 0 35 1t37 1q31 0 42 -9t15 -40q4 -78 4 -117t-38 -39q-56 0 -169 -6t-169 -6q-24 0 -73.5 2t-74.5 2q-17 0 -23 6t-8 23q-2 10 -2 33 q0 165 80 254q16 18 78 55q9 6 39 25t42.5 28t36 29t34 36t19.5 40t9 49q0 24 -19.5 42.5t-43.5 18.5q-19 0 -31 -16t-18 -35t-25 -36t-49 -19h-12q-21 -7 -37 -7q-10 0 -31 2.5t-31 2.5q-63 0 -63 49q0 28 45 114q24 45 69 89t87 51q72 10 135 10q51 0 78 -6 q80 -13 122.5 -88.5t42.5 -163.5zM580 680q-30 12 -78 12h-31q-27 0 -43 -8q7 -10 14 -10q16 0 45 2t45 2q1 0 14 -1t22 -0.5t12 3.5zM559 1055h-4q-6 0 -6 -4q-6 -12 -28.5 -33t-26.5 -33l2 -4q2 1 5 4.5t6 5.5t7 2l6 -2q35 39 39 64zM276 1262q0 1 -1 4.5t-1 5.5 q-1 -1 -8.5 -9.5t-10 -12t-6 -10.5t-3.5 -13q0 -7 4 -15q26 16 26 50zM233 670v22l-8 2h-2q-10 0 -10 -14v-6q0 -12 8 -12h4q8 0 8 8zM500 1366q-6 25 -15 25q-3 0 -7.5 -4t-4.5 -7q0 -7 7 -13.5t14 -8.5h2q4 4 4 8z" />
<glyph unicode="&#xb3;" horiz-adv-x="845" d="M723 866q0 -94 -56.5 -171.5t-144.5 -98.5q-57 -14 -127 -14q-62 0 -115.5 14.5t-96.5 54.5t-50 101q-10 82 -10 96q0 41 10.5 51t50.5 10q14 0 41 -1t41 -1q8 0 23 -2t22 -2q4 0 11.5 1t11.5 1q13 0 20.5 -21.5t10.5 -48t19.5 -48t45.5 -21.5q11 0 27 8q30 14 40.5 30 t10.5 48q0 33 -11.5 53.5t-35 29t-44 11t-55.5 2.5q-8 0 -26 -0.5t-25.5 0t-21.5 2t-20 6t-13.5 12.5t-10.5 21t-3 31q0 86 43 86q200 0 200 57q0 26 -21.5 48t-47.5 22q-28 0 -44 -10.5t-21 -23.5t-14.5 -23.5t-25.5 -10.5q-13 0 -40 3t-42 3q-7 0 -21.5 -1t-21.5 -1 q-47 0 -47 27q0 17 23 78q26 67 84.5 114.5t126.5 47.5q10 0 31.5 2t33.5 2q68 0 142 -23q21 -6 38 -25.5t24 -33t20 -43.5q22 -52 22 -105q0 -32 -10 -60t-19 -42t-34 -49q35 -35 53 -57t33.5 -58t15.5 -78zM610 1305q0 20 -16 30h-6l20 -47v2q2 4 2 15zM295 1360 q-1 0 -3.5 1t-4.5 1q-12 0 -22.5 -11.5t-10.5 -23.5q0 -6 2 -8q7 5 13 11t15 17t11 13zM645 864v10q0 15 -8.5 36.5t-18.5 31.5l-4 -8q0 -3 9.5 -21t9.5 -32q0 -5 -1 -15.5t-1 -15.5l10 -8q4 6 4 22zM406 981l6 4l-9 4q-4 2 -12 2h-20q-16 0 -25 -6q12 -6 27 -6h14 q3 0 9.5 1t9.5 1zM375 639q-7 10 -29 10q-12 0 -12 -6q0 -12 14 -12h12q12 0 15 8z" />
<glyph unicode="&#xb4;" horiz-adv-x="468" d="M469 1411q0 -9 -102.5 -141t-139.5 -176q-18 -21 -47 -21q-8 0 -26 -2t-27 -2q-127 0 -127 25q0 17 77 140t107 165q21 33 88 33q2 0 19 0.5t32.5 0.5t37.5 -0.5t39.5 -2t34 -3.5t25.5 -6t9 -10zM375 1358q0 3 -1 7.5t-1 6.5q-29 -12 -29 -31v-4l6 -2q11 0 18 6.5t7 16.5 zM141 1204q0 8 -8 8q-3 0 -8 -5t-10.5 -13.5t-10 -16.5l-9 -16t-5.5 -10l-2 -8l4 -4q24 12 25 14q5 6 14.5 26.5t9.5 24.5z" />
<glyph unicode="&#xb5;" horiz-adv-x="1298" d="M1155 1001q0 -13 -2 -37t-2 -36q0 -14 2 -40.5t2 -39.5q0 -43 -6 -127.5t-6 -126.5q0 -30 4 -93t4 -93q0 -68 -6 -101v-20q0 -14 3 -39.5t3 -38.5q0 -14 -3.5 -41t-4.5 -39q0 -57 -2 -86q0 -10 -4 -17.5t-11.5 -13t-14.5 -9.5t-20 -6.5t-21 -4t-23 -2t-20.5 -0.5h-20 h-15.5q-7 0 -15 1t-17.5 2.5t-14.5 2.5q-83 0 -106 4q-25 3 -25 27q0 34 -2 57q-15 -7 -38.5 -19t-35 -17t-30 -11.5t-37.5 -9t-43 -2.5q-44 0 -99 10q-10 -20 -10 -33q0 -7 2 -20.5t2 -20.5q0 -13 -2 -40t-2 -40q0 -1 6 -61q2 -31 2 -90v-10v-10.5t-0.5 -10t-1 -10.5t-2 -9 t-3.5 -9t-5 -7t-7 -5.5t-9.5 -3t-12.5 -1.5q-19 0 -55 4t-55 4h-39q-14 0 -40 -1t-40 -1q-88 0 -88 104q0 7 2 20t2 19q0 12 -5 46.5t-9 39.5q-3 5 -5 14t-3 21t-1 22t0.5 22.5t0.5 15.5q0 63 4 94q4 14 4 45q0 19 -5.5 58t-5.5 59q0 7 3.5 20t3.5 19q0 13 1 40.5t1 42.5 q0 1 -6 82q0 8 -3.5 24t-3.5 24q0 72 3.5 217.5t3.5 218.5q0 12 -3.5 34t-3.5 33q0 30 37 62q7 7 78 12.5t100 5.5q20 0 58 -4t43 -10q22 -19 22 -51q0 -24 -4 -74t-4 -74q0 -12 2 -38t2 -40q1 -14 1 -39t1 -38q0 -10 2 -30.5t2 -29.5q0 -25 4 -69t5 -60q1 -11 5.5 -47 t4.5 -47q0 -87 29.5 -121.5t117.5 -34.5q56 0 97 29.5t45 85.5q3 54 12 106q8 58 8 86q0 29 -2 87t-2 86q0 45 -6 136t-6 136q0 25 12 34.5t39 14.5q40 10 49 10q13 0 36 -5t36 -5q16 0 50 -3t52 -3q5 0 14.5 2t14.5 2q6 0 10.5 -3t9 -8t8.5 -7q29 -15 29 -48zM991 684 q0 17 -4 45q0 1 -1 4t-1 4l-2 2v-2l-4 -12q-4 -24 -4 -43v-209q0 -13 4 -37q8 11 8 35q0 11 -1 33t-1 33q0 15 2 42t2 42v32q0 5 1 15.5t1 15.5zM274 -88q0 111 -14 123q-4 -8 -4 -25q0 -10 3 -31.5t3 -31.5q0 -19 -3 -58t-3 -59q0 -49 8 -72q10 42 10 154zM342 645v19 q0 2 0.5 10t0 13.5t-1 12t-3 11t-6.5 6.5l-6 -8v-109q0 -1 -0.5 -11t0 -16t1.5 -14.5t3.5 -13.5t7.5 -6q4 22 4 106zM1034 123q0 27 -8 43q-4 0 -4 -6q-2 -29 -2 -88q0 -5 4 -9q10 18 10 60zM786 143q0 1 -4 9h-4q-5 0 -14.5 -9.5t-19 -22t-11.5 -14.5l6 -2q14 5 20.5 8 t16.5 12t10 19zM256 958q0 25 -8 25q-6 0 -12.5 -7t-6.5 -13q0 -8 6 -15.5t15 -7.5h2q4 12 4 18zM469 190q0 6 -3.5 14.5t-8.5 8.5q-15 0 -15 -12q0 -26 13 -29q14 3 14 18zM883 977v33l-4 6q-11 -11 -11 -27q0 -21 13 -37q2 8 2 25z" />
<glyph unicode="&#xb6;" horiz-adv-x="1454" d="M1311 473q0 -9 -4 -27.5t-4 -27.5q0 -5 2 -14t2 -13q0 -7 -2 -21t-2 -20l-3 -90q0 -8 1.5 -23.5t1.5 -23.5t-3.5 -25.5t-3.5 -25.5q0 -20 3 -58t4 -47q6 -126 6 -258q0 -46 -31 -71q-7 -7 -8 -9q-15 -30 -99 -30q-10 0 -30.5 1t-30.5 1q-11 0 -35 -1t-37 -1q-39 0 -67 35 q-4 7 -8.5 32.5t-4.5 36.5q0 7 6.5 34t6.5 44q0 20 -2.5 72t-1.5 80v53q0 14 -2 40t-2 40v49q0 9 -2.5 25t-2.5 24q0 6 1.5 18t1.5 17q0 17 -3 47.5t-4 38.5v188q0 22 2 67.5t2 69.5q0 31 -2 96.5t-2 98.5q0 13 2 38t2 38q0 2 -6 143q-1 15 -5 18t-19 5q-30 6 -35 6 q-15 0 -19 -19q-6 -27 -6 -116q0 -6 1 -18.5t1 -18.5q0 -5 -1 -15.5t-1 -15.5t1 -15.5t1 -15.5q0 -10 -1 -29.5t-1 -29.5q0 -6 1 -17.5t1 -17.5q0 -15 -3 -42t-3 -42t2 -47t2 -47q0 -9 -3 -26t-3 -25q0 -9 3 -29t3 -29q0 -30 3 -92t3 -92q0 -11 -2 -34t-2 -36 q-10 -245 -10 -297q0 -17 4 -50t4 -50q0 -4 -1 -13t-1 -14q0 -18 4 -52t4 -52q0 -23 -19.5 -39t-43.5 -16q-13 0 -40 2t-40 2q-16 0 -45 -5t-43 -5q-92 0 -92 94q0 25 3 75t3 76q0 44 -5 133t-5 134q0 13 2 37t2 36h-2q6 153 6 154v94q0 15 -16 21q-44 20 -129 65 q-17 9 -53 25.5t-54 25.5q-22 11 -67 61.5t-60 76.5l-61 106q-13 29 -13 62q0 6 1 16.5t1 15.5q0 6 -1 19.5t-1 19.5q0 63 26 131.5t74.5 125.5t106.5 81q8 3 29 11.5t25.5 10t19 7t23.5 7t23.5 4t33.5 5.5q9 1 28 4.5t34 5.5t28 2q163 0 278 5q19 0 57 3t56 3q6 0 19.5 -2 t19.5 -2q5 0 17 1t18 1q24 0 71 -2t70 -2q7 0 22.5 3t22.5 3q12 0 27 -11q44 -31 55.5 -53t11.5 -76q0 -28 2.5 -83t2.5 -82q0 -22 -1.5 -63.5t-1.5 -61.5q0 -45 4.5 -135.5t4.5 -135.5q0 -11 -2 -33t-2 -34t1 -35t1 -35q0 -20 2 -62.5t2 -64.5zM1069 145v215q0 66 -8 121 h-2q-10 -13 -10 -57q0 -98 8 -145q2 -4 2 -17l4 -123q0 -1 1 -4.5t1 -5.5q4 12 4 16zM791 47q0 28 -11 41q-12 -18 -12 -39q0 -163 6 -186h2q5 17 10 85.5t5 98.5zM301 1200q-25 -3 -43 -33t-18 -57q-1 -14 -6.5 -44t-6.5 -46l6 -6q10 5 15 37q1 6 3.5 25t4.5 28.5t8 23.5 t15 23q15 17 22 49zM1202 1090q0 22 -10 28q-10 -13 -10 -26q0 -26 4 -84q1 -13 1.5 -46.5t1.5 -58.5t5 -47q8 13 8 234zM782 862l-8 12q-6 -29 -6 -92v-39q0 -88 8 -129h2q3 14 4 50t1 68.5t-0.5 76t-0.5 53.5zM1053 1378q-4 4 -11 4h-90q-18 0 -18 -10l4 -2q32 -8 49 -8 q64 0 66 16zM1212 -178v8q0 27 -4 37q-14 -1 -17 -8.5t-3 -24.5q0 -24 14 -49q10 17 10 37zM502 895q0 24 -21 33q-8 -12 -8 -23q0 -8 6 -16t13 -8v-2l2 2l6 2q2 4 2 12zM649 125q0 5 -7 10.5t-13 5.5q-5 0 -9 -5t-4 -11q0 -5 15 -12q18 6 18 12zM795 1276q0 4 -8 10t-13 6 q-12 0 -12 -16q0 -5 14 -12q1 0 6.5 2t9 4t3.5 6zM1233 205q0 6 -7.5 12t-13.5 6q-4 0 -8 -5.5t-4 -10.5t14 -12q19 6 19 10z" />
<glyph unicode="&#xb7;" horiz-adv-x="536" d="M434 758q0 -16 -8 -29q-2 -3 -5 -11t-5 -11q-47 -93 -137 -93q-15 0 -54 13q-64 20 -93.5 61t-29.5 109q0 37 26 73t62 58q16 10 54 10q16 0 26.5 -2.5t23 -7.5t23.5 -8q45 -13 81 -63.5t36 -98.5zM344 766q0 12 -10 12q-8 0 -8 -8v-2q0 -14 8 -14q10 0 10 12zM207 788 q0 7 -4 23q-15 -9 -15 -41v-22q19 16 19 40z" />
<glyph unicode="&#xb8;" horiz-adv-x="430" d="M430 -100q0 -34 -16 -74q-50 -137 -226 -137q-116 0 -174 55q-14 10 -14 27q0 10 37 96q14 24 33 24q14 0 48 -15t54 -15q41 0 41 37q0 12 -9 24t-22 12q-5 0 -15 -2t-15 -2q-28 0 -60.5 14.5t-32.5 37.5q0 44 111 188q23 27 125 27q31 0 31 -19q0 -13 -20 -52.5 t-23 -49.5q75 -30 111 -67t36 -109zM299 -113q0 52 -25 56h-2q-2 -2 -2 -11q0 -7 4.5 -21.5t4.5 -21.5q0 -6 -5.5 -13.5t-5.5 -12.5q0 -9 4 -13q2 1 8.5 5t7.5 4.5t4.5 3.5t4 6t1.5 7.5t1 10.5zM98 -172q0 2 -4 6q-1 -1 -4 -2q-12 -5 -13 -11q-1 -4 -1 -9q1 0 3.5 -1t4.5 -1 q5 0 9.5 6t4.5 12z" />
<glyph unicode="&#xb9;" horiz-adv-x="616" d="M494 637q0 -47 -25 -47q-15 0 -46 2t-46 2q-11 0 -35 -1t-37 -1q-16 0 -23.5 1t-15.5 8t-10 22q-4 34 -5.5 77t-0.5 77.5t0 76.5h2q-1 25 -1.5 101t-2.5 118q-1 17 -6 21t-23 6l-63 4q-11 1 -16 3t-8 6.5t-5 14.5q-4 14 -4 48q0 59 8 108q4 24 33 49q119 95 133 97 q41 6 125 6q40 0 52.5 -24.5t12.5 -70.5v-118q0 -25 -1 -73t-1 -73q0 -52 4.5 -156.5t4.5 -156.5q0 -16 -2.5 -46t-2.5 -46q0 -6 2.5 -17.5t2.5 -17.5zM408 1262q0 18 -9 36q-8 -25 -8 -139q0 -15 4 -47v-74q0 -12 4 -18q9 21 9 242zM401 694q0 7 -8 15q-12 -8 -12 -19 q0 -2 1 -7t1 -7q18 12 18 18zM203 1188v4l-6 6q-11 -3 -11 -16v-4q0 -9 7 -9q10 5 10 19z" />
<glyph unicode="&#xba;" horiz-adv-x="880" d="M778 1108q0 -37 -16 -111q-20 -76 -49.5 -129t-83.5 -90q-85 -61 -187 -61q-140 0 -240 89t-100 228q0 200 103 295q37 37 57 53q36 29 94 43.5t113 14.5q66 0 125 -22.5t90 -69.5q38 -54 52.5 -78t28 -67t13.5 -95zM553 1341q-36 23 -78 23q-19 0 -24 -10q12 -8 16 -8 h11h10t8.5 -0.5t9 -1.5t8 -3.5t8.5 -5.5q6 -6 21 -6h2q3 1 8 12zM700 1071q0 3 -6 21q-12 -9 -12 -21q0 -10 6 -16q12 8 12 16zM541 1092q0 72 -43 110q-27 27 -47 27q-48 0 -76.5 -42t-28.5 -91q0 -24 4 -47.5t13.5 -47.5t28.5 -38.5t44 -14.5q56 0 80.5 42t24.5 102z M524 817q0 8 -8 8q-3 0 -28.5 -11t-38.5 -11q-7 0 -21.5 3t-21.5 3q-9 0 -13 -8q8 -1 30.5 -8t35.5 -7q14 0 39.5 10t25.5 21zM188 1053v2q0 4 -4 8l-8 -2q-4 -4 -4 -8v-4q0 -5 6 -17h4q6 18 6 21z" />
<glyph unicode="&#xbb;" horiz-adv-x="1062" d="M592 725q0 -17 -44.5 -77.5t-76.5 -98.5q-13 -17 -35.5 -50.5t-34.5 -49.5q-2 -3 -9 -10t-9 -11q-3 -6 -7 -10.5t-9.5 -7t-9.5 -4.5t-12.5 -2.5t-12 -0.5h-13.5h-12q-76 0 -104 9q-11 4 -34 5.5t-32 4.5q-10 5 -10 10q0 9 97.5 127.5t125.5 149.5l-78 86q-6 7 -33.5 42.5 t-51 63t-33.5 33.5q-18 13 -23 33q0 1 -4 8t-4 12q0 12 55 12q22 0 66 2.5t65 2.5q36 0 53 -17l76 -84q24 -14 89 -86t65 -92zM1073 725q0 -9 -17 -36t-35.5 -51.5t-42 -54.5t-26.5 -34q-10 -14 -33 -48t-38 -52q-2 -4 -8.5 -10.5t-8.5 -10.5q-3 -6 -7.5 -10.5t-10.5 -7 t-10 -4.5t-12 -2.5t-11.5 -0.5h-13h-11.5q-76 0 -106 9q-11 4 -33 5.5t-31 4.5q-10 5 -10 10q0 9 97.5 127.5t125.5 149.5q-57 61 -77 86q-9 9 -36 43t-51 62t-34 34q-19 16 -23 33q0 3 -3 9.5t-3 10.5q0 12 53 12q23 0 66.5 2.5t64.5 2.5q37 0 54 -17q5 -5 23.5 -25.5 t35 -38.5t19.5 -20q24 -14 88.5 -86t64.5 -92zM504 694q-16 0 -21 -10q-39 -49 -39 -63v-5q16 7 35.5 34t24.5 44zM985 694q-15 0 -22 -10q-1 -2 -11.5 -17.5t-18 -28.5t-7.5 -17v-5q15 7 33 33t26 45zM326 946q0 6 -5.5 11.5t-11.5 5.5q-14 0 -14 -19q0 -18 12 -18 q7 0 13 7t6 13zM805 946q0 6 -5.5 11.5t-11.5 5.5q-12 0 -12 -19q0 -18 12 -18q6 0 11.5 7t5.5 13zM342 483q0 13 -12 13q-4 0 -10.5 -6t-6.5 -11q0 -12 17 -12q12 0 12 16zM823 483q0 13 -12 13q-6 0 -11 -6t-5 -11q0 -12 14 -12q6 0 10 5.5t4 10.5z" />
</font>
</defs>
</svg>
