<?xml version="1.0" standalone="no"?>
<!DOCTYPE svg PUBLIC "-//W3C//DTD SVG 1.1//EN" "http://www.w3.org/Graphics/SVG/1.1/DTD/svg11.dtd" >
<svg xmlns="http://www.w3.org/2000/svg" xmlns:xlink="http://www.w3.org/1999/xlink" version="1.1">
<metadata></metadata>
<defs>
<font id="true_north_blackregular" horiz-adv-x="1185" >
<font-face units-per-em="2048" ascent="1638" descent="-410" />
<missing-glyph horiz-adv-x="655" />
<glyph unicode="&#xfb01;" horiz-adv-x="1812" d="M143 457q0 23 4.5 70t4.5 71q0 21 -2.5 65.5t-2.5 67.5q0 7 1.5 23t1.5 24q0 7 -2.5 23t-2.5 24q0 12 1.5 48.5t0.5 56.5q0 25 -2 77.5t-2 79.5q0 13 2 40t2 40q0 17 -1 52.5t-1 54.5q0 58 23 119q5 15 34 22.5t54 7.5q5 0 15.5 -1t15.5 -1q11 0 34.5 2t36.5 2 q12 0 36.5 -2t37.5 -2t37 5.5t35 5.5q5 0 15.5 -2.5t15.5 -2.5q9 0 26.5 4.5t26.5 4.5q14 0 44 -2t46 -2q90 0 250 8q6 0 20 2t21 2q52 0 75 -24t23 -77q0 -24 -4.5 -68t-5.5 -61q-2 -77 -139 -77q-7 0 -22 -2t-22 -2t-22 4t-23 4q-7 0 -21.5 -1t-21.5 -1q-12 0 -34 2t-33 2 q-10 0 -31 -2t-31 -2q-7 0 -22.5 2t-22.5 2q-80 0 -129 -10q-6 -1 -10 -6t-6.5 -13t-3.5 -16t-1.5 -19t-0.5 -18v-17v-12q0 -44 4 -67q0 -13 14 -13q8 -1 21 -2.5t24 -2.5t21 -1h14q15 2 43 -2t39 -4q51 0 152.5 4t152.5 4q15 0 26.5 -3t19.5 -6.5t13 -12.5t8 -13.5t4 -18.5 t1 -19.5v-23v-22.5q0 -38 -4 -116q0 -30 -8.5 -41.5t-36.5 -24.5q-12 -5 -27 -7.5t-25.5 -3t-28 -1t-26.5 -0.5l-160 -4q-117 -6 -120 -6q-9 0 -27 1t-27 1q-37 0 -39 -21q-4 -74 -4 -108q0 -66 3.5 -199.5t3.5 -200.5q0 -32 -3 -59q-3 -15 -14.5 -26.5t-25.5 -14.5 q-38 -8 -218 -8q-44 0 -71 53q-8 14 -8 49q0 12 2 38t2 38q0 18 -3 56t-3 57q0 9 1 26t1 25q-1 15 -5 58.5t-4 66.5zM1313 305q0 13 2 41t2 43q8 234 8 350q0 19 -2 57t-2 58q0 12 1 34t1 32v26q0 7 2 20.5t2 20.5q0 9 -2 26t-2 25v90q0 186 8 252q3 24 15.5 31.5t39.5 7.5 h25q62 4 92 4q68 0 101 -2q28 -3 37.5 -11.5t13.5 -35.5q2 -8 2 -26q0 -59 4 -177q1 -15 2.5 -42.5t2.5 -49.5t1 -41q0 -21 -4 -71q0 -10 0.5 -29.5t0.5 -35.5t-1 -30q0 -18 -3 -52t-3 -52q0 -12 4 -37t4 -37t1 -34t1 -33t-3 -34t-3 -34q0 -17 4 -52t4 -52q0 -16 -2 -45 t-2 -43v-299q0 -74 -55 -74h-58q-25 0 -71.5 3t-69.5 3q-35 0 -63.5 27.5t-28.5 62.5q0 12 -2 33t-2 31q0 12 4 32.5t4 30.5q0 15 -5 44t-5 44z" />
<glyph unicode="&#xfb02;" horiz-adv-x="2131" d="M143 457q0 23 4.5 70t4.5 71q0 21 -2.5 65.5t-2.5 67.5q0 7 1.5 23t1.5 24q0 7 -2.5 23t-2.5 24q0 12 1.5 48.5t0.5 56.5q0 25 -2 77.5t-2 79.5q0 13 2 40t2 40q0 17 -1 52.5t-1 54.5q0 58 23 119q5 15 34 22.5t54 7.5q5 0 15.5 -1t15.5 -1q11 0 34.5 2t36.5 2 q12 0 36.5 -2t37.5 -2t37 5.5t35 5.5q5 0 15.5 -2.5t15.5 -2.5q9 0 26.5 4.5t26.5 4.5q14 0 44 -2t46 -2q90 0 250 8q6 0 20 2t21 2q52 0 75 -24t23 -77q0 -24 -4.5 -68t-5.5 -61q-2 -77 -139 -77q-7 0 -22 -2t-22 -2t-22 4t-23 4q-7 0 -21.5 -1t-21.5 -1q-12 0 -34 2t-33 2 q-10 0 -31 -2t-31 -2q-7 0 -22.5 2t-22.5 2q-80 0 -129 -10q-6 -1 -10 -6t-6.5 -13t-3.5 -16t-1.5 -19t-0.5 -18v-17v-12q0 -44 4 -67q0 -13 14 -13q8 -1 21 -2.5t24 -2.5t21 -1h14q15 2 43 -2t39 -4q51 0 152.5 4t152.5 4q15 0 26.5 -3t19.5 -6.5t13 -12.5t8 -13.5t4 -18.5 t1 -19.5v-23v-22.5q0 -38 -4 -116q0 -30 -8.5 -41.5t-36.5 -24.5q-12 -5 -27 -7.5t-25.5 -3t-28 -1t-26.5 -0.5l-160 -4q-117 -6 -120 -6q-9 0 -27 1t-27 1q-37 0 -39 -21q-4 -74 -4 -108q0 -66 3.5 -199.5t3.5 -200.5q0 -32 -3 -59q-3 -15 -14.5 -26.5t-25.5 -14.5 q-38 -8 -218 -8q-44 0 -71 53q-8 14 -8 49q0 12 2 38t2 38q0 18 -3 56t-3 57q0 9 1 26t1 25q-1 15 -5 58.5t-4 66.5zM1313 436q0 33 7 97.5t7 97.5q0 15 -2 46t-2 46q0 20 -2 58.5t-2 56.5q0 14 1 43t1 43q0 26 -1 76t-1 75q0 59 2 90q0 2 4 11.5t4 15.5q0 25 -1 78t-1 80 v47q1 15 13.5 26t27.5 11q57 2 176 2q29 0 66.5 -6t42.5 -21q10 -38 10 -137q0 -8 -3 -23.5t-3 -23.5q0 -3 1 -10.5t1 -10.5q0 -10 -2 -30.5t-2 -32.5q0 -31 3 -94t3 -93q0 -14 -3 -45t-3 -45q2 -14 2 -45q0 -18 -1 -55t-1 -57q0 -15 3 -43t3 -43t-4 -46t-4 -47 q0 -8 5 -23.5t5 -23.5q0 -22 -5 -68.5t-5 -70.5q0 -25 24 -25q23 0 69.5 1t70.5 1q5 0 15.5 -1t16.5 -1q18 0 55.5 1t57.5 1q68 0 68 -81q0 -13 -3.5 -41t-3.5 -43q0 -19 3.5 -54.5t3.5 -52.5q0 -53 -99 -53q-31 0 -100 4t-102 4q-18 0 -56.5 -2t-58.5 -2q-34 0 -100 1 t-99 1q-43 0 -74 10q-9 4 -16.5 27t-7.5 37v61h2q-4 54 -4 82q0 15 4 47t4 47q0 20 -5 61.5t-5 63.5z" />
<glyph unicode="&#xfb03;" horiz-adv-x="2981" d="M143 457q0 23 4.5 70t4.5 71q0 21 -2.5 65.5t-2.5 67.5q0 7 1.5 23t1.5 24q0 7 -2.5 23t-2.5 24q0 12 1.5 48.5t0.5 56.5q0 25 -2 77.5t-2 79.5q0 13 2 40t2 40q0 17 -1 52.5t-1 54.5q0 58 23 119q5 15 34 22.5t54 7.5q5 0 15.5 -1t15.5 -1q11 0 34.5 2t36.5 2 q12 0 36.5 -2t37.5 -2t37 5.5t35 5.5q5 0 15.5 -2.5t15.5 -2.5q9 0 26.5 4.5t26.5 4.5q14 0 44 -2t46 -2q90 0 250 8q6 0 20 2t21 2q52 0 75 -24t23 -77q0 -24 -4.5 -68t-5.5 -61q-2 -77 -139 -77q-7 0 -22 -2t-22 -2t-22 4t-23 4q-7 0 -21.5 -1t-21.5 -1q-12 0 -34 2t-33 2 q-10 0 -31 -2t-31 -2q-7 0 -22.5 2t-22.5 2q-80 0 -129 -10q-6 -1 -10 -6t-6.5 -13t-3.5 -16t-1.5 -19t-0.5 -18v-17v-12q0 -44 4 -67q0 -13 14 -13q8 -1 21 -2.5t24 -2.5t21 -1h14q15 2 43 -2t39 -4q51 0 152.5 4t152.5 4q15 0 26.5 -3t19.5 -6.5t13 -12.5t8 -13.5t4 -18.5 t1 -19.5v-23v-22.5q0 -38 -4 -116q0 -30 -8.5 -41.5t-36.5 -24.5q-12 -5 -27 -7.5t-25.5 -3t-28 -1t-26.5 -0.5l-160 -4q-117 -6 -120 -6q-9 0 -27 1t-27 1q-37 0 -39 -21q-4 -74 -4 -108q0 -66 3.5 -199.5t3.5 -200.5q0 -32 -3 -59q-3 -15 -14.5 -26.5t-25.5 -14.5 q-38 -8 -218 -8q-44 0 -71 53q-8 14 -8 49q0 12 2 38t2 38q0 18 -3 56t-3 57q0 9 1 26t1 25q-1 15 -5 58.5t-4 66.5zM1313 457q0 24 4 70.5t4 70.5q0 21 -2 65.5t-2 67.5q0 7 1 23t1 24q0 7 -2 23t-2 24q0 12 1.5 48.5t0.5 56.5q0 25 -2 77.5t-2 79.5q0 13 2 40t2 40 q0 17 -1 52.5t-1 54.5q0 61 22 119q5 15 34 22.5t54 7.5q5 0 15.5 -1t15.5 -1q11 0 35 2t37 2q12 0 37 -2t37 -2q13 0 36.5 5.5t34.5 5.5q5 0 15.5 -2.5t15.5 -2.5q9 0 26.5 4.5t26.5 4.5q14 0 44 -2t46 -2q90 0 250 8q6 0 20 2t21 2q52 0 75 -24t23 -77q0 -24 -4.5 -68 t-5.5 -61q-2 -77 -139 -77q-7 0 -21.5 -2t-21.5 -2t-22 4t-23 4q-7 0 -21.5 -1t-21.5 -1q-11 0 -33.5 2t-34.5 2q-10 0 -30.5 -2t-30.5 -2q-7 0 -22.5 2t-22.5 2q-80 0 -129 -10q-6 -1 -10 -6t-6.5 -13t-4 -15.5t-2 -19.5t-0.5 -18v-17v-12q0 -44 4 -67q0 -13 15 -13 q4 0 27.5 -3t37.5 -3h15q15 2 42.5 -2t38.5 -4q51 0 153 4t153 4q15 0 26.5 -3t19 -6.5t13 -12t8 -14t3.5 -18.5l1.5 -19.5t0 -23t-0.5 -22.5q0 -38 -4 -116q0 -30 -8.5 -41.5t-36.5 -24.5q-16 -6 -31.5 -8.5t-42 -3t-32.5 -0.5l-160 -4q-117 -6 -121 -6q-9 0 -26.5 1 t-26.5 1q-37 0 -39 -21q-4 -74 -4 -108q0 -66 3 -200t3 -200q0 -41 -2 -59q-3 -15 -15 -26.5t-26 -14.5q-38 -8 -217 -8q-22 0 -41.5 15.5t-30.5 37.5q-8 14 -8 49q0 12 2 38t2 38q0 18 -3 56t-3 57q0 9 1 26t1 25q-1 13 -4.5 57.5t-3.5 67.5zM2482 305q0 13 2 41t2 43 q8 234 8 350q0 19 -2 57t-2 58q0 12 1 34t1 32v26q0 7 2.5 20.5t2.5 20.5q0 9 -2.5 26t-2.5 25v90q0 178 9 252q3 24 15.5 31.5t39.5 7.5h24q62 4 93 4q67 0 100 -2q28 -3 37.5 -11.5t13.5 -35.5q2 -8 2 -26q0 -59 4 -177q1 -15 2.5 -42.5t2.5 -49.5t1 -41q0 -21 -4 -71v-95 q0 -18 -3 -52t-3 -52q0 -12 4 -37t4 -37t1 -34t1 -33t-3 -34t-3 -34q0 -17 4.5 -52t4.5 -52q0 -16 -2.5 -45t-2.5 -43v-299q0 -74 -55 -74h-57q-25 0 -72 3t-70 3q-35 0 -63.5 27.5t-28.5 62.5q0 12 -2 33t-2 31q0 12 4 32.5t4 30.5q0 15 -5 44t-5 44z" />
<glyph unicode="&#xfb04;" horiz-adv-x="3301" d="M143 457q0 23 4.5 70t4.5 71q0 21 -2.5 65.5t-2.5 67.5q0 7 1.5 23t1.5 24q0 7 -2.5 23t-2.5 24q0 12 1.5 48.5t0.5 56.5q0 25 -2 77.5t-2 79.5q0 13 2 40t2 40q0 17 -1 52.5t-1 54.5q0 58 23 119q5 15 34 22.5t54 7.5q5 0 15.5 -1t15.5 -1q11 0 34.5 2t36.5 2 q12 0 36.5 -2t37.5 -2t37 5.5t35 5.5q5 0 15.5 -2.5t15.5 -2.5q9 0 26.5 4.5t26.5 4.5q14 0 44 -2t46 -2q90 0 250 8q6 0 20 2t21 2q52 0 75 -24t23 -77q0 -24 -4.5 -68t-5.5 -61q-2 -77 -139 -77q-7 0 -22 -2t-22 -2t-22 4t-23 4q-7 0 -21.5 -1t-21.5 -1q-12 0 -34 2t-33 2 q-10 0 -31 -2t-31 -2q-7 0 -22.5 2t-22.5 2q-80 0 -129 -10q-6 -1 -10 -6t-6.5 -13t-3.5 -16t-1.5 -19t-0.5 -18v-17v-12q0 -44 4 -67q0 -13 14 -13q8 -1 21 -2.5t24 -2.5t21 -1h14q15 2 43 -2t39 -4q51 0 152.5 4t152.5 4q15 0 26.5 -3t19.5 -6.5t13 -12.5t8 -13.5t4 -18.5 t1 -19.5v-23v-22.5q0 -38 -4 -116q0 -30 -8.5 -41.5t-36.5 -24.5q-12 -5 -27 -7.5t-25.5 -3t-28 -1t-26.5 -0.5l-160 -4q-117 -6 -120 -6q-9 0 -27 1t-27 1q-37 0 -39 -21q-4 -74 -4 -108q0 -66 3.5 -199.5t3.5 -200.5q0 -32 -3 -59q-3 -15 -14.5 -26.5t-25.5 -14.5 q-38 -8 -218 -8q-44 0 -71 53q-8 14 -8 49q0 12 2 38t2 38q0 18 -3 56t-3 57q0 9 1 26t1 25q-1 15 -5 58.5t-4 66.5zM1313 457q0 24 4 70.5t4 70.5q0 21 -2 65.5t-2 67.5q0 7 1 23t1 24q0 7 -2 23t-2 24q0 12 1.5 48.5t0.5 56.5q0 25 -2 77.5t-2 79.5q0 13 2 40t2 40 q0 17 -1 52.5t-1 54.5q0 61 22 119q5 15 34 22.5t54 7.5q5 0 15.5 -1t15.5 -1q11 0 35 2t37 2q12 0 37 -2t37 -2q13 0 36.5 5.5t34.5 5.5q5 0 15.5 -2.5t15.5 -2.5q9 0 26.5 4.5t26.5 4.5q14 0 44 -2t46 -2q90 0 250 8q6 0 20 2t21 2q52 0 75 -24t23 -77q0 -24 -4.5 -68 t-5.5 -61q-2 -77 -139 -77q-7 0 -21.5 -2t-21.5 -2t-22 4t-23 4q-7 0 -21.5 -1t-21.5 -1q-11 0 -33.5 2t-34.5 2q-10 0 -30.5 -2t-30.5 -2q-7 0 -22.5 2t-22.5 2q-80 0 -129 -10q-6 -1 -10 -6t-6.5 -13t-4 -15.5t-2 -19.5t-0.5 -18v-17v-12q0 -44 4 -67q0 -13 15 -13 q4 0 27.5 -3t37.5 -3h15q15 2 42.5 -2t38.5 -4q51 0 153 4t153 4q15 0 26.5 -3t19 -6.5t13 -12t8 -14t3.5 -18.5l1.5 -19.5t0 -23t-0.5 -22.5q0 -38 -4 -116q0 -30 -8.5 -41.5t-36.5 -24.5q-16 -6 -31.5 -8.5t-42 -3t-32.5 -0.5l-160 -4q-117 -6 -121 -6q-9 0 -26.5 1 t-26.5 1q-37 0 -39 -21q-4 -74 -4 -108q0 -66 3 -200t3 -200q0 -41 -2 -59q-3 -15 -15 -26.5t-26 -14.5q-38 -8 -217 -8q-22 0 -41.5 15.5t-30.5 37.5q-8 14 -8 49q0 12 2 38t2 38q0 18 -3 56t-3 57q0 9 1 26t1 25q-1 13 -4.5 57.5t-3.5 67.5zM2482 436q0 33 7.5 97.5 t7.5 97.5q0 15 -2.5 46t-2.5 46q0 20 -2 58.5t-2 56.5q0 14 1 43t1 43q0 26 -1 76t-1 75q0 59 2 90q1 2 5 11.5t4 15.5q0 25 -1 78t-1 80v47q2 15 13.5 26t26.5 11q57 2 177 2q29 0 66 -6t42 -21q10 -38 10 -137q0 -8 -3 -23.5t-3 -23.5q0 -3 1 -10.5t1 -10.5 q0 -10 -2 -30.5t-2 -32.5q0 -31 3 -94t3 -93q0 -14 -3 -45t-3 -45q2 -14 2 -45q0 -18 -1 -55t-1 -57q0 -15 3 -43t3 -43t-4 -46t-4 -47q0 -8 5 -23.5t5 -23.5q0 -22 -5 -68.5t-5 -70.5q0 -25 25 -25q23 0 69 1t70 1q5 0 16 -1t17 -1q18 0 55 1t57 1q68 0 68 -81 q0 -13 -3 -41t-3 -43q0 -19 3 -54.5t3 -52.5q0 -53 -98 -53q-31 0 -100.5 4t-102.5 4q-18 0 -56.5 -2t-58.5 -2q-34 0 -99.5 1t-98.5 1q-43 0 -74 10q-9 4 -17 27.5t-8 36.5v61h2q-4 54 -4 82q0 15 4 47t4 47q0 20 -5 61.5t-5 63.5z" />
<glyph horiz-adv-x="0" />
<glyph horiz-adv-x="682" />
<glyph unicode=" "  horiz-adv-x="655" />
<glyph unicode="&#x09;" horiz-adv-x="655" />
<glyph unicode="&#xa0;" horiz-adv-x="655" />
<glyph unicode="!" horiz-adv-x="626" d="M143 860q0 12 2 34t2 34q2 45 2.5 136t2.5 136q0 8 3 23t3 22q0 13 -6.5 35t-6.5 33q0 25 4 43.5t9 30.5t17 20.5t20.5 12.5t27.5 6t29.5 2t35 -0.5t36.5 -0.5t34 -2t33 -2q38 0 57.5 -13.5t22.5 -49.5q0 -8 2 -24t2 -23q0 -13 -1 -37t-1 -35q0 -8 -1 -24.5t-1 -24.5 q0 -12 4 -34t4 -32q0 -15 -7 -46.5t-7 -49.5v-55q0 -15 -2 -42.5t-2 -41.5q0 -9 1 -27.5t1 -27.5q0 -6 -1 -17t-1 -16q0 -15 3 -44.5t3 -45.5v-41q0 -6 2 -19.5t2 -19.5q0 -13 1 -39t1 -39q0 -19 -2 -29q-4 -23 -4 -65q0 -41 -123 -41q-6 0 -18 1t-17 1q-4 0 -30.5 -3 t-40.5 -3q-55 0 -84 43q-7 12 -7 63q0 8 3.5 24.5t3.5 24.5q0 70 -2 105q-1 4 -4 18.5t-3 22.5q0 25 -1 72.5t-1 70.5zM152 174q0 38 26 74t62 59q16 10 55 10q16 0 26.5 -2.5t23.5 -7.5t24 -8q44 -13 79 -64t35 -98q0 -15 -8 -28q-4 -5 -8 -23q-47 -92 -137 -92 q-14 0 -54 10q-65 22 -94.5 62.5t-29.5 107.5z" />
<glyph unicode="&#x22;" horiz-adv-x="1017" d="M123 1327q0 19 8 43q3 15 8.5 19t20.5 6l71 4q15 1 44.5 4.5t53.5 5.5t46 2q19 0 65 -4q9 -1 14 -6.5t7 -17.5t2 -15.5v-17.5q0 -47 -8.5 -134.5t-10.5 -119.5q0 -2 -6 -127q0 -7 -1.5 -12.5t-2 -10t-4 -7.5t-5 -5.5t-6.5 -4t-6.5 -2t-9 -1t-9 -0.5h-10.5h-11h-178 q-12 0 -17.5 3t-9.5 15l-10 62l-25 204q-10 98 -10 117zM553 1327q0 19 8 43q3 15 8.5 19t20.5 6l72 4q15 1 44 4.5t53 5.5t46 2q19 0 65 -4q9 -1 14 -6.5t7 -17.5t2 -15.5v-17.5q0 -47 -8.5 -134.5t-10.5 -119.5q0 -2 -6 -127q0 -7 -1.5 -12.5t-2 -10t-4 -7.5t-5 -5.5 t-6.5 -4t-6.5 -2t-9 -1t-9 -0.5h-10.5h-11h-178q-12 0 -17.5 3t-9.5 15l-10 62l-25 204q-10 98 -10 117z" />
<glyph unicode="#" horiz-adv-x="1832" d="M82 395q0 43 45 150q7 16 19.5 25t24.5 10.5t32 1.5q15 0 43 -1t43 -1q7 0 20.5 1t20.5 1q20 0 58 -2t58 -2t27 20q6 18 22 66.5t26.5 82.5t17.5 66q-15 0 -43 -2t-41 -2q-8 0 -24.5 3t-24.5 3q-6 0 -18.5 -2t-18.5 -2q-31 0 -80 18q-27 12 -27 48q0 105 35 174 q13 26 41 26q0 3 116 1l117 -1h9h9.5t7.5 0.5t7.5 2t6 4t6 6.5t4.5 10q17 43 49 144t55 153q16 39 111 39q59 0 137 -19q20 -6 20 -41q0 -45 -92 -289q4 0 13.5 -1t13.5 -1q17 0 52.5 2.5t53.5 2.5q16 0 46 -2.5t46 -2.5h9.5h12.5t11.5 1t11.5 3t8 5.5t5 9.5 q4 12 32.5 127.5t57.5 167.5q17 31 44.5 41t70.5 10q55 0 127 -14q26 -6 26 -31q0 -23 -72 -244q-1 -5 -8.5 -32t-7.5 -31q0 -11 16 -11q47 -4 146 -4q10 0 30.5 1t30.5 1q29 0 51.5 -13.5t22.5 -41.5q0 -24 -19.5 -76.5t-35.5 -79.5q-27 -38 -70 -38q-17 0 -48 -1t-46 -1 q-24 0 -69.5 1t-67.5 1q-8 0 -12.5 -2.5t-6 -4.5t-4.5 -10q-1 -1 -1.5 -2t-0.5 -2l-31 -88q-4 -10 -21.5 -55.5t-25.5 -69.5q24 -6 27 -6q10 0 30 3t29 3q103 0 150 -6q19 -3 35 -16q10 -8 10 -29q0 -20 -17 -82.5t-28 -87.5q-20 -50 -109 -41q-14 1 -43 -0.5t-37 -1.5h-96 q-3 0 -8 1t-8 1q-13 0 -21 -33q-16 -46 -45.5 -138t-46.5 -138q-16 -43 -57 -43q-11 0 -35 -1t-35 -1q-46 0 -96.5 14t-50.5 47q0 30 44.5 145.5t49.5 135.5q-264 6 -266 6q-15 0 -21 -15l-18 -59q-33 -135 -66 -215q-11 -28 -25.5 -38.5t-43.5 -10.5q-58 -4 -86 -4h-19 t-20.5 0.5t-23.5 2t-21 4t-21 7.5t-15.5 11t-12 15.5t-3.5 20.5q0 12 19 67.5t47.5 130t28.5 75.5q-11 1 -105 6t-143 16q-37 5 -37 47zM748 606q0 -10 18 -10q35 -4 106 -4q7 0 21.5 1t21.5 1q13 0 37 -2t37 -2q12 0 19 18q5 16 23 64.5t32 91.5t18 67h-57q-32 0 -94 -1 t-92 -1q-21 0 -31 -26q-2 -6 -18 -57t-28.5 -93t-12.5 -47z" />
<glyph unicode="$" horiz-adv-x="1312" d="M125 399v11.5v12.5t0.5 11.5t2 12t3.5 10t5.5 10t8.5 7.5t11 7q43 15 73 15h82q36 4 58 4q25 0 51 -13q22 -11 22 -43q0 -51 17 -99t53 -69q6 -5 27 -10q2 36 2 217q0 2 -6 107q-6 1 -35 6.5t-39.5 8t-30.5 9t-37 15.5q-9 4 -26.5 10.5t-31.5 12.5t-24 14 q-64 49 -94.5 83.5t-50.5 96.5q-25 91 -25 160q0 119 64 219q3 3 8.5 13t9.5 15q12 17 29.5 32t41.5 29.5t40.5 23t47 23t40.5 19.5q41 22 88 31q8 3 12 21q4 42 8 59q4 21 16.5 33.5t36 17t36.5 5.5t40 1h15.5h17.5t17 -1t17.5 -2.5t14.5 -4.5t14 -7.5t9.5 -11.5t5.5 -16 l10 -69q0 -12 17 -15q16 -4 47.5 -10t46.5 -10q4 0 12 -4q21 -13 74.5 -33.5t79.5 -40.5q46 -41 57 -63q5 -10 13.5 -32t13.5 -32q14 -40 14 -72q0 -15 3 -35t3 -28q0 -15 -8 -33.5t-20 -28.5q-14 -14 -74 -14q-9 0 -27.5 2t-27.5 2q-18 0 -52.5 -5t-50.5 -5q-24 0 -45 15 t-27 38q-1 5 -4.5 21.5t-6 22t-8 15.5t-15 15t-23.5 8q-4 -39 -4 -117v-104q0 -14 14 -19q130 -40 176 -63l52 -23q180 -76 180 -337q0 -77 -32 -166.5t-83 -143.5q-24 -28 -67 -65q-33 -28 -91 -49.5t-110 -30.5q-10 -1 -13 -4.5t-3 -14.5v-25.5t-1.5 -33t-5.5 -28.5 t-14.5 -24.5t-26.5 -8.5q-124 0 -155 16q-9 4 -14.5 15.5t-6.5 21.5t-1.5 27.5t-0.5 21.5q-1 11 -2 14.5t-5 6.5t-13 4q-306 62 -385 249q-15 35 -33 134q-2 10 -2 32zM428 1040q0 -42 38.5 -83.5t80.5 -41.5q10 0 10 15t-1 30.5t-2.5 35t-2.5 30.5h2l-4 94q0 1 -0.5 4 t-1 4.5t-1.5 4t-2.5 3.5t-3.5 2t-5 1q-11 0 -15 -2q-29 -11 -46 -20t-31.5 -29t-14.5 -48zM772 301q0 -9 4 -29h10q49 0 86 51t37 101q0 77 -127 111q-2 -15 -2.5 -43t-1.5 -37q0 -26 -3 -77.5t-3 -76.5z" />
<glyph unicode="%" horiz-adv-x="2174" d="M123 1069q0 85 39.5 164.5t107.5 120.5q6 3 22.5 14t24 15t21 9.5t27.5 8.5t51.5 11.5t65.5 13t53 4.5q78 0 159 -27.5t144 -75.5q12 -8 41 -47q33 -42 45 -80.5t12 -95.5q0 -66 -21 -131l-12 -41q-7 -39 -43 -88q-100 -124 -215 -139q-91 -11 -104 -11h-9v-2l-94 17 l-53 20q-11 4 -33.5 10.5t-39.5 13.5t-33 19q-42 30 -91 90q-65 79 -65 207zM399 1071q0 -49 33.5 -89t81.5 -40q60 0 87.5 43.5t27.5 106.5q0 45 -44 89t-89 44q-47 0 -72 -51t-25 -103zM573 33q0 9 12 34.5t26 49.5t31 53.5t20 34.5q7 10 20 41q20 38 62 113.5t61 113.5 q14 29 26 45q23 29 48 74q37 56 100 162.5t78 130.5q14 23 40.5 62.5t35.5 53.5q9 15 24.5 48t24.5 49q28 51 65 108q2 4 5 8t7.5 9t6.5 8q21 31 55.5 89.5t48.5 80.5q7 11 16.5 18t24.5 9.5t22.5 3.5t28 0.5t23.5 -0.5q83 0 129 -9q26 -4 26 -20q0 -17 -12 -37 q-23 -40 -71.5 -113.5t-67.5 -105.5q-20 -33 -143 -242q-34 -57 -71 -121.5t-81.5 -143.5t-69.5 -122q-13 -22 -41.5 -78t-46.5 -84q-170 -280 -182 -299q-15 -26 -30 -39.5t-40 -13.5h-161q-50 0 -50 29zM1260 348q0 155 90 248q10 11 20.5 19t25 18t23.5 16q59 46 150 56 q78 8 119 8q136 0 245 -70q23 -14 74 -74q17 -21 31 -82t14 -98q0 -71 -7.5 -105t-37.5 -108q-16 -39 -55 -70q-59 -52 -103 -77q-86 -47 -153 -47q-91 0 -186.5 31t-161.5 85q-88 74 -88 250zM1540 352q0 -59 26.5 -99t80.5 -40q41 0 67.5 38.5t28.5 84.5v29 q0 54 -37.5 92.5t-91.5 38.5q-27 0 -45 -28t-23.5 -58t-5.5 -58z" />
<glyph unicode="&#x26;" horiz-adv-x="1421" d="M123 389q0 13 3 36t3 36q2 59 13.5 104t38.5 85.5t51 67.5t73 75q10 10 10 14q0 2 -6 14q-39 68 -49 107q-4 12 -14 40.5t-14.5 48.5t-4.5 42q0 13 3 38t3 38q0 66 50 133q32 41 49 61t50.5 44.5t70.5 35.5h2q78 41 196 41q136 0 249.5 -99t113.5 -233q0 -21 -8 -57 q-24 -83 -31 -103q-11 -31 -73 -95.5t-95 -84.5q-5 -2 -12 -8.5t-9 -7.5q13 -17 42.5 -58t53 -70t48.5 -54l33 47q3 4 12.5 19t14 21.5t14.5 18t18 17t19.5 10t23.5 4.5q22 0 96.5 -42.5t93.5 -62.5q13 -16 13 -32q0 -11 -8 -30t-21 -43.5t-16 -31.5q-5 -13 -46.5 -68 t-41.5 -65t69.5 -90t98.5 -109q16 -16 16 -30q0 -5 -3 -13t-3 -12v-8.5v-8t-0.5 -6.5t-1 -6t-2 -5t-4.5 -5t-6.5 -4t-8.5 -4q-24 -7 -85 -12.5t-95 -5.5q-45 0 -87 22t-66 44t-27 22q-6 0 -16.5 -6t-12.5 -7q-61 -39 -80 -47q-9 -5 -10 -6q-43 -27 -110 -42t-126 -15 q-42 0 -110 13.5t-98 31.5q-21 13 -54 24q-49 21 -84 56q-36 36 -69 84q-19 30 -19 53q-7 72 -16 112q-2 8 -2 27zM432 428q0 -48 30 -90.5t77 -42.5h51q32 0 82.5 16.5t62.5 38.5q-16 22 -47.5 60t-44.5 55q-68 83 -117 123q-43 -21 -68.5 -65.5t-25.5 -94.5zM518 1085 q0 -36 8.5 -65t17.5 -45t36 -55q3 3 21 23t22 25.5t16.5 22.5t16 28t8 28t4.5 34q0 28 -14 54t-38 26q-63 0 -79 -35q0 -1 -5 -6q-14 -14 -14 -35z" />
<glyph unicode="'" horiz-adv-x="587" d="M123 1327q0 19 8 43q3 15 8.5 19t20.5 6l71 4q15 1 44.5 4.5t53.5 5.5t46 2q19 0 65 -4q9 -1 14 -6.5t7 -17.5t2 -15.5v-17.5q0 -47 -8.5 -134.5t-10.5 -119.5q0 -2 -6 -127q0 -7 -1.5 -12.5t-2 -10t-4 -7.5t-5 -5.5t-6.5 -4t-6.5 -2t-9 -1t-9 -0.5h-10.5h-11h-178 q-12 0 -17.5 3t-9.5 15l-10 62l-25 204q-10 98 -10 117z" />
<glyph unicode="(" horiz-adv-x="776" d="M123 621q0 124 6 167q26 183 103 360t196 300q2 2 10 11t11 12l11 11t13.5 11t13 7.5t14.5 6.5t15 2q25 0 67 -21t68 -42q23 -14 35 -64q-13 -31 -59 -94q-42 -56 -80 -133q-3 -7 -26.5 -51.5t-31.5 -69.5q-55 -159 -55 -344q0 -52 14 -124.5t23.5 -108t34.5 -119.5 q29 -91 76 -164q5 -7 36 -52.5t53.5 -82.5t22.5 -51q0 -38 -78 -93t-120 -55q-8 0 -17 6t-19 17t-17.5 20t-16.5 21.5t-12 15.5q-68 83 -141.5 208t-96.5 210q-17 60 -41 172q-12 47 -12 111z" />
<glyph unicode=")" horiz-adv-x="776" d="M82 -12q0 14 23 51.5t54 82t36 52.5q45 70 75 164q25 84 34.5 119.5t23.5 108t14 124.5q0 185 -55 344q-8 25 -31.5 69.5t-26.5 51.5q-40 81 -79 133q-49 66 -60 94q12 50 35 64q26 21 68 42t67 21q8 0 15 -2t14.5 -6.5t13 -7.5t13.5 -11l11 -11t11 -12t10 -11 q119 -123 196 -300t103 -360q6 -43 6 -167q0 -65 -12 -111q-24 -112 -41 -172q-23 -85 -96.5 -210t-141.5 -208q-2 -2 -15 -20t-22 -28.5t-22 -21t-22 -10.5q-43 0 -121 55t-78 93z" />
<glyph unicode="*" horiz-adv-x="929" d="M123 1083q0 13 27.5 29t62 33.5t45.5 28.5l-108 57q-25 13 -25 29q0 18 26 71t46 86q10 15 20 15q9 0 62.5 -34.5t68.5 -39.5v16q0 16 -2 50t-2 51q0 36 57 36q9 0 27 -1t27 -1q10 0 30.5 1t30.5 1q31 0 37 -26q8 -25 8 -127q9 4 38.5 20.5t55.5 30.5t31 14 q13 0 56.5 -72.5t43.5 -90.5q0 -16 -18 -27q-15 -9 -47 -25.5t-47 -25.5q133 -64 133 -99q0 -13 -30.5 -65.5t-45.5 -71.5q-14 -24 -31 -24q-15 0 -64.5 29t-64.5 32q-6 -15 -6 -31q0 -4 1 -21.5t1 -30.5t-2 -29t-9 -24.5t-19 -8.5q-14 0 -40 1t-38 1q-6 0 -18 -1t-17 -1 q-29 0 -41 2q-22 3 -25 24q-2 25 -2 76q0 3 0.5 9.5t0.5 9.5t-1.5 7.5t-5.5 8.5q-118 -70 -141 -70q-11 0 -21 19q-12 17 -38.5 80t-26.5 79z" />
<glyph unicode="+" horiz-adv-x="1118" d="M104 688q0 68 2 82q1 20 8.5 26.5t28.5 6.5q57 2 176 2q60 0 75.5 11.5t15.5 68.5q0 23 -3.5 66.5t-3.5 64.5q0 31 9 61q6 20 10.5 28.5t15 14.5t29.5 6h121q55 0 84 -2q21 -1 30 -11.5t11 -31.5q2 -45 2 -131q0 -10 -1 -41t-0.5 -52.5t5.5 -39.5q41 -8 96 -8q14 0 48 1 t58 0.5t46 -3.5q23 -3 33.5 -13t11.5 -32q2 -14 2 -43q0 -149 -6 -162q-4 -13 -8 -18t-9 -6.5t-20 -2.5q-13 0 -37.5 -1t-36.5 -1q-26 0 -77.5 2t-76.5 2h-34l-2 -34q0 -38 4 -115t4 -115q0 -23 -9.5 -34.5t-31.5 -12.5q-51 -6 -154 -6q-54 0 -76 10q-31 14 -34 47 q-1 25 -1.5 105t-2.5 123q0 13 -4 18.5t-17 5.5q-16 0 -44.5 -4t-41.5 -4q-74 -4 -109 -4q-23 0 -37.5 2.5t-28 14t-15.5 32.5q-5 54 -5 127z" />
<glyph unicode="," horiz-adv-x="593" d="M82 -229q0 7 12 45t26 81.5t17 53.5q13 46 21 86q7 28 24.5 84.5t24.5 85.5q4 12 10.5 19.5t20 10t19.5 3t24 0.5t51 -3t43 -4q12 -1 51.5 -1.5t60.5 -2.5q25 -4 25 -20q0 -10 -16 -58.5t-35.5 -102.5t-22.5 -66q-3 -10 -25 -86t-34 -115q-14 -41 -53 -41q-34 0 -100.5 2 t-100.5 2q-32 0 -39 10q-4 7 -4 17z" />
<glyph unicode="-" horiz-adv-x="1003" d="M102 604q0 24 3.5 70t3.5 55q2 24 16 36.5t28.5 14.5t39.5 2q12 0 32.5 -1t30.5 -1q20 0 61 1t62 1q9 0 27.5 -1t27.5 -1q40 0 120 3t120 3q14 0 38.5 -3t35.5 -3q7 0 21.5 2t21.5 2q33 0 63 -6q12 -1 16.5 -2.5t8.5 -7t6 -16.5q1 -9 6 -34.5t7.5 -43.5t2.5 -35 q0 -70 -35 -72q-11 -1 -31 -2.5t-36 -2.5t-31 -1q-27 0 -84 2t-86 2q-74 0 -222 -1t-222 -1q-21 0 -36.5 10.5t-15.5 30.5z" />
<glyph unicode="." horiz-adv-x="495" d="M82 174q0 38 26 74t62 59q16 10 53 10q16 0 26.5 -2.5t23.5 -7.5t24 -8q45 -13 81 -64t36 -98q0 -15 -8 -28q-2 -3 -6 -12t-5 -11q-47 -92 -137 -92q-8 0 -53 10q-65 22 -94 62.5t-29 107.5z" />
<glyph unicode="/" horiz-adv-x="1009" d="M61 76q0 28 17 59q21 41 51 119.5t43 107.5q14 31 37.5 87.5t30.5 72.5l51 111q90 204 115 252q15 30 46.5 99t51.5 106q23 44 33 69q76 165 106 225q11 24 19 36.5t25 23t40 10.5q221 0 221 -57q0 -27 -30 -94q-9 -22 -34.5 -67.5t-35.5 -70.5q-8 -21 -53 -123 l-123 -290q-10 -25 -33.5 -86t-42 -105t-37.5 -84q-59 -125 -84 -190q-18 -51 -26 -70q-1 -1 -9 -15t-10 -22q-3 -8 -11 -28t-12.5 -30.5t-12 -26.5t-15.5 -29t-17 -25q-38 -49 -102 -49q-18 0 -42 4.5t-40 9t-45.5 14t-36.5 11.5q-22 6 -28.5 14.5t-6.5 30.5z" />
<glyph unicode="0" horiz-adv-x="1222" d="M123 782q0 205 57 365q2 6 29 49q59 85 88 111q3 3 18 16.5t21 18.5t19.5 17t22 17.5t20.5 14t23.5 13.5t22.5 9q56 21 138 21q106 0 200 -52q12 -9 25 -12q39 -14 68 -36.5t63 -59.5q87 -94 124.5 -266t37.5 -344q0 -22 -3 -64t-3 -63q0 -54 -35 -179q-2 -10 -9.5 -27 t-9.5 -24q-13 -55 -43 -100q-8 -12 -15.5 -29.5t-15.5 -29t-26 -25.5l-20 -20t-27 -23q-49 -36 -96 -62q-10 -6 -28.5 -11.5t-42 -10.5t-42 -8t-44 -7.5t-32.5 -5.5q-10 -2 -28 -2q-11 0 -47.5 9.5t-43.5 15.5q-23 18 -53 27q-59 21 -116.5 87.5t-94 141.5t-49.5 139 q-53 253 -53 389zM453 668q0 -62 10 -136t31 -112q2 -5 15.5 -31t21 -37t21.5 -28.5t30.5 -25t35.5 -7.5q20 0 33 8q15 7 27 17t20 24t14 25t10.5 30.5t6.5 29t5.5 32.5t4.5 30q11 74 11 82q0 5 -1 16.5t-1 16.5q0 24 6 73t6 73q0 9 -1 27.5t-1 27.5q0 6 2.5 23t1.5 26v8 q-2 34 -2.5 43t-4.5 42t-8 47t-13 40t-20 40t-28 28.5t-39 21.5q-15 6 -29 6q-39 0 -80 -41.5t-49 -80.5q-36 -174 -36 -338z" />
<glyph unicode="1" horiz-adv-x="796" d="M123 1106q0 53 51 86q15 11 30.5 25t34.5 31t29 26q93 85 150 129q45 31 92 31q119 0 127 -99q10 -103 10 -245q0 -56 -3 -167t-3 -167q0 -98 6 -295t6 -295t-10 -137q-3 -17 -22 -23q-22 -5 -95.5 -9.5t-111.5 -4.5q-35 0 -71 21t-36 53q0 29 5 89t5 91q0 12 -4 33 t-4 32q0 10 1 32t1 32q0 21 -3 63t-3 64q0 30 6 89t6 89q0 7 -1 21.5t-1 21.5q0 10 3.5 30.5t3.5 30.5q0 14 -3.5 43t-3.5 43q0 19 3 53.5t4 43.5l-27 -11q-8 -3 -25.5 -12.5t-32.5 -15.5t-28 -6q-27 0 -43 17t-21.5 36t-10.5 47q-1 5 -1 8q-1 10 -5.5 36t-4.5 40z" />
<glyph unicode="2" horiz-adv-x="1148" d="M123 59q0 21 10 66q-4 16 -4 27q0 79 37 124q28 32 33 43q10 18 25.5 35.5t40 39.5t32.5 30q69 69 176 213q9 12 42 55.5t49.5 66.5t39.5 58.5t37 63.5q22 15 25 34q16 19 16 41q14 20 14 48q0 102 -145 102q-16 0 -29 -10q-68 -15 -108 -39q-39 -21 -54 -33 q-7 -6 -41 -38.5t-62 -54.5t-44 -22q-13 0 -30.5 11t-20.5 24q-12 73 -12 154q0 92 24 147q19 38 31 43q11 5 71 49q16 14 50.5 28.5t44.5 20.5q20 14 41 19.5t48.5 8.5t43.5 7q27 9 112 9q15 0 43 -1.5t41 -1.5q20 -1 54 -15.5t39 -16.5q67 -19 118 -56q51 -41 66 -88 q8 -16 12 -20q12 -22 24.5 -69t12.5 -72q0 -60 -18.5 -140t-22.5 -108q0 -7 -4 -15q-7 -13 -22.5 -36t-20.5 -31q-59 -97 -88 -154q-20 -38 -57 -67q-14 -11 -25.5 -26t-24.5 -34t-22 -30q-12 -16 -37.5 -45.5t-44.5 -54t-35 -48.5l4 -4q36 -4 56 -4q28 0 83 4t82 4 q37 0 111 -8q59 -4 59 -123q0 -65 -10 -143q-6 -30 -37 -33q-7 0 -20 -1t-19 -1q-19 0 -57 6t-57 6q-21 0 -61 -5t-60 -5h-2q-111 12 -240 12q-6 0 -17.5 -2t-17.5 -2q-5 0 -16.5 1t-17.5 1q-12 0 -37 -1t-39 -1q-7 0 -28 -0.5t-33.5 -0.5t-32.5 2t-32 7t-23.5 15.5 t-16.5 25.5q-2 2 -2 8z" />
<glyph unicode="3" horiz-adv-x="1153" d="M102 1094q0 24 2 71.5t2 69.5v53q3 29 25 41q153 96 391 96q42 0 62 -4q18 -2 53.5 -4t52.5 -4q64 -9 140 -50.5t114 -90.5q15 -18 23.5 -47t13.5 -39q7 -12 15 -41.5t8 -44.5q0 -7 -3.5 -20.5t-3.5 -20.5t3.5 -20.5t3.5 -20.5q0 -40 -16.5 -89t-43.5 -71q-8 -8 -10 -14 q-26 -47 -57 -66q-21 -13 -21 -28q0 -12 61.5 -74t69.5 -84q13 -10 17 -22.5t5.5 -29t4.5 -26.5q16 -43 16 -137q0 -65 -26.5 -132.5t-71.5 -105.5q-9 -7 -23.5 -27.5t-21.5 -25.5q-79 -53 -152.5 -77.5t-163.5 -24.5q-23 0 -67 5.5t-62 6.5q-44 4 -130 24.5t-117 38.5 q-4 3 -10 5t-13 4.5t-10 3.5q-17 7 -28 25t-11 38q0 44 14 191q2 22 15.5 44.5t33.5 22.5q11 0 17 -4q22 -9 58.5 -26t66.5 -29.5t61 -20.5q15 -4 31 -5t43.5 0t32.5 1q45 0 70 6t65 27q28 14 42 39t17 27q12 9 12 20q0 5 -12 47q-18 76 -190 76q-14 0 -42 -3t-42 -3 q-7 0 -21.5 1t-21.5 1h-24.5t-29.5 1.5t-24.5 5.5t-21.5 13.5t-9 24.5q-12 106 -12 162q0 60 18 93.5t72 33.5q5 0 16 -2t17 -2q3 0 8 1t8 1q19 6 58.5 9t74 6.5t69 12t55 31t20.5 57.5q0 43 -31 66.5t-76 23.5q-8 0 -22.5 4.5t-22.5 4.5h-21.5h-25t-25 -0.5t-28 -1 t-26.5 -2t-28 -4t-25 -5.5t-24.5 -7.5t-20 -10t-18.5 -12.5q-22 -17 -73 -43q-11 -7 -25 -7q-34 0 -54 28.5t-20 64.5z" />
<glyph unicode="4" horiz-adv-x="1161" d="M102 326q0 133 9 153l43 80q9 16 22 55q10 23 21 37q19 29 59 121q44 98 158 332q5 10 26.5 55.5t32 67.5t29.5 59t35 65.5t32 51.5q15 18 35 18q102 11 111 11t27 -2.5t26 -2.5q14 0 40 2.5t38 2.5q36 0 45 -33q7 -33 9.5 -72t3 -88.5t1.5 -73.5h-2l-1 -40q0 -40 1 -40 q1 -12 6.5 -37t5.5 -40q0 -9 -1 -27t-1 -27q0 -12 5.5 -34t5.5 -33q0 -10 -3 -30t-3 -30q0 -113 20 -227q2 -10 14 -15.5t33 -9t25 -4.5q40 -15 43 -59q6 -135 6 -137q0 -4 -6 -121q0 -28 -37 -35l-66 -4q-19 -1 -23.5 -6.5t-4.5 -24.5q0 -7 1 -21t1 -20q0 -55 -9 -102 q-5 -26 -36 -33q-12 -4 -48 -8q-31 -8 -67 -8q-16 0 -49 5t-51 5q-1 0 -4.5 -1t-4.5 -1q-19 -1 -40 20t-23 41v37q0 8 1 24.5t1 30.5t-2 25q-3 22 -25 25h-69q-15 0 -44.5 2t-43.5 2q-46 0 -137.5 -2t-137.5 -2q-15 0 -21.5 5.5t-7.5 20.5q-4 62 -4 97zM442 516h41 q35 0 97 8q14 2 17 5t3 18t-1 43t-1 43q-1 16 -1.5 64.5t-2.5 74.5l-6 2q-2 -4 -21.5 -34t-30.5 -47t-30 -48.5t-30 -52t-21.5 -42.5t-12.5 -34z" />
<glyph unicode="5" horiz-adv-x="1206" d="M123 221q0 27 22 45q68 51 152 109q19 16 43 16q5 0 10.5 -1.5t9.5 -3t9.5 -5.5t8 -5.5t8.5 -7.5l7 -7t7 -8l6 -7q13 -16 31.5 -25.5t29.5 -12.5t39 -6.5t35 -4.5q8 -2 20 -2t62 10q14 3 27 10t18 10.5t21 19t18 17.5q38 40 38 111q0 59 -12 108.5t-47.5 92t-91.5 49.5 q-20 4 -57 4q-45 0 -75.5 -16.5t-43.5 -16.5q-7 0 -22 1t-23 1q-72 0 -107 -4q-4 -2 -10 -2q-66 0 -66 53q0 42 1.5 126.5t1.5 127.5q0 83 -7 205q-6 93 -6 94q0 26 7.5 55t27 53.5t45.5 27.5q48 4 76 8q24 2 151 2q25 0 75 -4t75 -4q21 0 64.5 4t66.5 4q9 0 26 -0.5 t30.5 -0.5t25.5 1q22 0 100 -19q39 -9 39 -47q4 -74 4 -108q0 -8 -1 -23t-1 -22t2 -21.5t2 -21.5v-6q-13 -52 -108 -52q-39 0 -116 4t-116 4q-19 0 -59 -4t-61 -4h-4q-17 0 -21 -12q-2 -17 -1.5 -48t-0.5 -48q28 -3 100 -4.5t103 -5.5q217 -31 286 -140q12 -19 30.5 -55.5 t23.5 -46.5q14 -29 14 -80q1 -24 9.5 -74.5t8.5 -77.5q0 -12 -2 -36t-2 -37q0 -16 -2.5 -31t-9 -38.5t-8.5 -29.5q-40 -159 -113 -243q-8 -10 -50.5 -37.5t-59.5 -36.5q-29 -15 -150 -37q-72 -10 -84 -10q-118 0 -196 18q-57 13 -146 64t-115 92q-18 32 -20 47q-2 2 -2 6z " />
<glyph unicode="6" horiz-adv-x="1239" d="M123 666v127q0 12 2 18q15 56 29 135q17 115 43 178q70 147 176 217q32 25 35 27q14 7 86 37q66 27 153 27q45 0 76 -5q76 -6 151 -57q51 -33 81 -56.5t59 -65t37 -89.5q6 -42 6 -43q0 -20 -13 -39q-29 -40 -43.5 -49.5t-56.5 -18.5q-5 -1 -8.5 -1.5t-7.5 -1.5 q-9 -2 -27.5 -7t-33 -7.5t-27.5 -2.5q-48 0 -80.5 35.5t-59.5 91.5q-13 27 -57 27q-65 0 -106 -60q-36 -53 -43 -82q-16 -71 -17 -79q-4 -12 -4 -21q0 -13 6 -22q14 4 42.5 13t46 14t42 9.5t45.5 4.5q40 0 99 -7.5t84 -19.5l100 -53q12 -8 35 -31q6 -5 24 -21t24.5 -22.5 t18.5 -19.5t20 -26.5t15 -29.5q3 -6 10 -21t9.5 -21.5l7.5 -19.5t7 -21.5t3.5 -21t1.5 -24.5q0 -128 -6 -143q-41 -142 -72 -205q-14 -32 -84 -107q-15 -15 -18 -22q-14 -23 -51 -35q-13 -4 -45.5 -20t-51.5 -19q-11 -2 -58.5 -16t-80.5 -14q-133 0 -180 32q-9 6 -28.5 12 t-26.5 11q-15 8 -42 28.5t-30 22.5q-29 24 -56 60.5t-41 62t-38 72.5q-22 50 -23 65q-1 11 -7 29t-7 22q-2 7 -9 36.5t-9 40t-7.5 36.5t-8 41t-6 37t-4.5 41t-1 37zM473 459q0 -70 46 -113t116 -43q63 0 105 45t42 109q0 33 -18 82q-36 98 -168 98q-41 0 -70.5 -30.5 t-41 -69t-11.5 -78.5z" />
<glyph unicode="7" horiz-adv-x="1058" d="M82 1253q0 10 3 30t3 32q0 8 -1 26t0 25.5t4 19.5t11.5 20.5t22.5 16.5q31 17 59 17q32 0 94.5 -3t94.5 -3q11 0 32 3t33 3q19 0 56.5 -7.5t58.5 -7.5t123 5q10 1 43.5 1.5t52.5 2.5q10 2 35 2q82 0 115 -15q6 -2 16 -4t14.5 -4t10 -7t8.5 -15q6 -29 6 -82q0 -23 -2 -70 t-2 -70q0 -6 2 -18t2 -18q0 -9 -20.5 -47.5t-24.5 -61.5q-3 -17 -13 -47.5t-12 -38.5q-103 -322 -104 -324q-59 -175 -74 -243q-4 -19 -17.5 -52.5t-17.5 -48.5q-6 -18 -22.5 -81t-33.5 -109.5t-36 -71.5q-14 -14 -33 -14q-10 0 -29 3t-28 3q-5 0 -14.5 -1t-14.5 -1 q-19 0 -59 3t-59 3q-6 0 -18.5 -1t-18.5 -1q-52 0 -52 72q0 14 8 47t15 41q17 22 23 55q2 7 7 25t9 28q14 33 25 86t16 70q9 30 31 86t30 82q3 9 25 76q3 8 15 54t28 69q3 4 8 20q7 40 33 107.5t33 95.5q3 14 6 38.5t4 32.5q-20 5 -25 5q-13 0 -39.5 -1t-40.5 -1 q-15 0 -46 2t-46 2q-8 0 -24.5 -1t-24.5 -1q-47 0 -72 2q-6 0 -18.5 2t-19.5 2q-16 0 -47 -4t-46 -4q-24 0 -41.5 28t-17.5 53q0 13 -1 40t-1 42z" />
<glyph unicode="8" horiz-adv-x="1259" d="M123 350q0 73 14 166q5 39 33 86q3 6 15 26t18 31q15 31 71 91q-7 11 -29.5 42.5t-38.5 58t-20 42.5q-20 82 -20 149q0 80 35 142.5t102 128.5q15 15 46.5 30t43.5 25q9 8 19 15t23.5 12.5t21.5 9.5t25 8.5t23 6l26 6.5l24 6q16 4 27 4q3 0 9 -1t9 -1q18 0 55 5t56 5 q69 0 114 -17q53 -21 74 -34q13 -6 25 -16t26 -24t21 -20q52 -42 82 -122t30 -154q0 -167 -59 -269q-2 -5 -13.5 -20t-11.5 -23q0 -7 9 -16q27 -16 43 -47q4 -6 17.5 -29t18 -31t15 -28t15 -32t10.5 -29.5t8 -34t2 -33.5q0 -54 -19 -143q-2 -9 -6.5 -25.5t-7.5 -30t-4 -26.5 q0 -17 -8 -25q-65 -102 -189 -184q-7 -4 -61 -21.5t-64 -19.5q-90 -8 -139 -8q-51 0 -100 6q-85 11 -132.5 27.5t-132.5 58.5q-32 14 -51 41q-3 5 -12 14t-12 14q-50 91 -66 168q-10 30 -10 39zM440 426q0 -77 71 -122.5t153 -45.5q61 0 111 41t50 102q0 69 -59.5 121.5 t-128.5 52.5q-73 0 -135 -40t-62 -109zM481 1036q0 -61 46.5 -95t109.5 -34q50 0 87.5 40.5t37.5 92.5q0 44 -44.5 71.5t-92.5 27.5q-56 0 -100 -25.5t-44 -77.5z" />
<glyph unicode="9" horiz-adv-x="1282" d="M123 915q0 18 4 54q1 7 1.5 29.5t2.5 33.5q22 129 86 214.5t180 135.5q92 39 127 47.5t125 8.5q83 0 213 -29q54 -12 88 -49q45 -45 78 -109q0 -4 4 -8q38 -42 67.5 -110t35.5 -125q2 -20 11 -72t9 -82q0 -18 2 -51t2 -51q0 -58 -22 -197q-1 -11 -7 -31t-8 -28l-16 -70 q-15 -50 -46 -117t-59 -102l-69 -80q-15 -15 -19 -16q-20 -7 -46.5 -32t-37.5 -32q-66 -42 -163 -45q-18 0 -52 -2t-51 -2q-13 0 -57.5 14.5t-52.5 16.5q-49 11 -95 43q-72 49 -106 97t-51 132q-2 4 -2 14q0 32 21 50t65 31t49 16q44 24 96 24q31 0 46.5 -15t18.5 -34 t15 -40t35 -30q45 -20 71 -20q50 0 91.5 45t44.5 96q0 7 2 11q9 12 16.5 37.5t7.5 41.5q0 7 -4 23q-11 -5 -38 -17.5t-36.5 -16.5t-30.5 -12t-35 -10.5t-35.5 -5t-45.5 -2.5q-56 0 -125 18t-109 48l-12 8q-85 42 -134.5 146t-49.5 208zM446 975q0 -10 13 -62 q18 -64 60.5 -98.5t107.5 -34.5q117 0 164 162q8 28 8 43q0 125 -172 158q-6 2 -17 2q-65 0 -114.5 -51.5t-49.5 -118.5z" />
<glyph unicode=":" horiz-adv-x="495" d="M82 174q0 38 26 74t62 59q16 10 53 10q16 0 26.5 -2.5t23.5 -7.5t24 -8q45 -13 81 -64t36 -98q0 -15 -8 -28q-2 -3 -6 -12t-5 -11q-47 -92 -137 -92q-8 0 -53 10q-65 22 -94 62.5t-29 107.5zM82 934q0 37 26 73t62 58q16 10 53 10q16 0 26.5 -2.5t23.5 -7.5t24 -8 q45 -13 81 -63.5t36 -98.5q0 -16 -8 -29l-11 -22q-47 -92 -137 -92q-17 0 -53 12q-64 20 -93.5 61t-29.5 109z" />
<glyph unicode=";" horiz-adv-x="657" d="M82 -236q0 7 11.5 45t26.5 83.5t17 52.5q11 40 21 88q7 30 24.5 86t24.5 82q2 8 5 13.5t9 9t9.5 5.5t12 3t11.5 1h14h13q15 0 46 -2t48 -2q12 -1 35 -1.5t42 -1.5t35 -3q25 0 25 -20q0 -9 -16 -57.5t-35 -103.5t-23 -67q-6 -20 -59 -200q-13 -39 -53 -39q-34 0 -100.5 1 t-100.5 1h-5q-13 0 -19 0.5t-12.5 7t-6.5 18.5zM244 934q0 37 26 73t62 58q16 10 53 10q16 0 27 -2.5t24.5 -7.5t22.5 -8q45 -13 80.5 -63.5t35.5 -98.5q0 -16 -8 -29q-2 -3 -5.5 -11t-4.5 -11q-47 -92 -137 -92q-19 0 -51 12q-66 20 -95.5 61t-29.5 109z" />
<glyph unicode="&#x3c;" horiz-adv-x="995" d="M102 555q0 27 1 79t1 77q0 75 25 90q62 34 104 53q71 26 158 82q39 24 142 85.5t157 96.5q88 51 123 51q20 0 33 -8t18 -24.5t6.5 -29.5t1.5 -34q0 -17 -2 -49t-2 -49v-45q0 -40 -32 -62q-27 -19 -113 -69q-154 -100 -197 -125q-24 -16 -28 -29q30 -24 97.5 -57t98.5 -56 q77 -56 111 -71q24 -8 24 -39q0 -41 -2 -122t-2 -122q0 -2 0.5 -13.5t0 -17t-2.5 -14t-7.5 -12.5t-14.5 -4q-4 0 -29.5 12t-34.5 18q-11 6 -60 32t-75 42l-63 39q-7 4 -19 10.5t-16 8.5l-92 57q-35 23 -109 63q-6 3 -29.5 11t-33.5 16q-17 13 -58 37t-61 41q-19 17 -19 51z " />
<glyph unicode="=" horiz-adv-x="1003" d="M102 332q0 24 3.5 71t3.5 56q3 33 24.5 42t59.5 9h63v-2q82 4 123 4q9 0 27.5 -2t27.5 -2q40 0 120 3t120 3q14 0 38.5 -3t35.5 -3q7 0 21.5 2t21.5 2q23 0 63 -4q17 -3 22.5 -7t8.5 -20q1 -9 6 -34.5t7.5 -43.5t2.5 -36q0 -25 -8 -48t-27 -24q-66 -4 -98 -4q-27 0 -84 2 t-86 2q-74 0 -222 -2t-222 -2q-20 0 -36 11t-16 30zM102 686q0 24 3.5 71t3.5 56q2 24 16 36.5t28.5 14.5t39.5 2q12 0 32.5 -1t30.5 -1q20 0 61 1t62 1q9 0 27.5 -1t27.5 -1q40 0 120 2t120 2q14 0 38.5 -2t35.5 -2q7 0 21.5 2t21.5 2q3 0 63 -6q12 -1 16.5 -2.5t8.5 -7 t6 -16.5q1 -9 6 -34.5t7.5 -43.5t2.5 -35q0 -70 -35 -72q-49 -6 -98 -6q-27 0 -84 2t-86 2q-74 0 -222 -1t-222 -1q-21 0 -36.5 10t-15.5 29z" />
<glyph unicode="&#x3e;" horiz-adv-x="995" d="M123 1073q0 21 1.5 34t6.5 29.5t18 24.5t33 8q35 0 123 -51q54 -35 157 -96.5t142 -85.5q87 -56 158 -82q42 -19 104 -53q25 -15 25 -90q0 -25 1 -77t1 -79q0 -34 -19 -51q-20 -17 -60.5 -41.5t-57.5 -36.5q-10 -8 -34 -16t-30 -11q-68 -37 -108 -63l-92 -57 q-4 -2 -16 -8.5t-19 -10.5l-64 -39q-26 -16 -75 -42t-60 -32q-10 -6 -34.5 -18t-28.5 -12q-7 0 -12.5 3.5t-8 7.5t-3.5 12t-1.5 13t0 14t0.5 11q0 41 -2 122t-2 122q0 31 24 39q34 15 111 71q31 23 99 56t98 57q-3 12 -29 29q-43 25 -197 125q-78 46 -112 69q-33 23 -33 62 v45q0 17 -2 49t-2 49z" />
<glyph unicode="?" d="M102 971q0 16 2.5 34t8 44t6.5 34q14 92 87.5 177t166.5 135q28 16 105.5 26.5t123.5 10.5q57 0 99.5 -9t107.5 -30q50 -17 72 -39q4 -6 18 -11q49 -25 98 -81q3 -4 16.5 -16.5t18.5 -20.5q23 -36 37 -118t14 -138q0 -76 -59 -160q-108 -144 -313 -191 q-20 -5 -34.5 -20.5t-14.5 -34.5q0 -8 1 -24.5t1 -24.5q0 -26 -10.5 -37.5t-35.5 -13.5q-17 -1 -48 -4.5t-56 -5.5t-47 -2q-14 0 -39 2t-37 2q-47 0 -63.5 29t-16.5 79q0 41 17.5 111.5t38.5 93.5q70 73 147 94q66 17 113 41q18 11 41 17q36 11 60 37t24 61q0 48 -36 71 t-87 23h-43q-20 0 -45 -14q-5 -3 -14 -7t-14.5 -7t-12.5 -8t-11 -11q-37 -47 -43 -102q-8 -48 -63 -48q-17 0 -49 2.5t-49 2.5q-13 0 -37 -2.5t-35 -2.5q-87 0 -109 48q0 1 -1 4t-1 4zM303 156q0 29 20 77t42 62q62 41 120 41q49 0 92 -30.5t64 -76.5q10 -23 10 -77 q0 -59 -44.5 -108.5t-102.5 -49.5h-35q-64 2 -115 49.5t-51 112.5z" />
<glyph unicode="@" horiz-adv-x="1871" d="M125 528q0 209 14 295q10 70 49 156q2 4 4.5 12.5t4.5 12.5q5 16 26 53q45 85 74.5 125.5t93.5 91.5q2 2 7 8t9.5 9.5t8.5 6.5q40 40 57 52q9 7 27 14q7 4 44.5 24.5t61.5 30.5t49 15q22 5 83.5 24t95.5 25q10 2 21.5 3t25.5 1.5t22 1.5q16 1 55.5 5.5t61.5 4.5 q11 0 47 -6t55 -6q5 0 14 2t13 2q18 0 147 -45q76 -23 109 -45q30 -15 35 -21q17 -17 55 -43.5t55 -42.5q9 -8 27 -26.5t27 -26.5q43 -38 69 -108l31 -89q9 -24 16 -50t10.5 -58.5t5.5 -52t4 -59t3 -52.5q0 -3 3 -30.5t3 -41.5q0 -9 -3 -27t-3 -26q0 -26 -8 -47 q-34 -129 -47 -149q-94 -135 -199 -199q-21 -12 -77.5 -22.5t-88.5 -10.5q-56 0 -133 25q-50 17 -98 45q-12 6 -15 6q-4 0 -14 -10q-93 -101 -236 -101q-8 0 -24.5 1t-24.5 1q-6 0 -17.5 -1t-17.5 -1q-20 0 -38 6q-11 4 -36.5 12.5t-42 14.5t-36.5 17t-33 24 q-32 30 -67.5 99t-43.5 114q-6 38 -6 76q0 144 72 270q51 91 74 117q13 13 48.5 41t49.5 47q5 6 11.5 12.5t12 10.5t15.5 9.5t14 7.5t16.5 8t14.5 7q4 1 17.5 4t19.5 6q19 10 50 12.5t40 4.5q18 6 41 6q31 0 79 -15.5t77 -33.5q35 -23 82 -86q2 4 6 15t6 16t7 13.5t10 12.5 t13 8t17 4q17 0 54 3.5t52 3.5q93 0 93 -54q0 -12 -11 -86q-5 -27 -29.5 -132t-36.5 -176.5t-12 -131.5q0 -31 31 -31q29 0 51 25q23 24 39.5 49.5t25.5 42.5t15.5 50t8.5 45.5t5.5 56t4.5 57.5q2 8 2 29q0 27 -19 129q-14 67 -51.5 120.5t-99.5 114.5q-9 10 -19 16.5 t-25 13.5t-22 11q-74 42 -174 68q-46 12 -96 12q-92 0 -190 -28t-179 -76q-56 -33 -117.5 -101t-91.5 -127q-40 -72 -47 -88q-12 -26 -23.5 -78.5t-11.5 -81.5q0 -22 -1 -65t-1 -64q0 -125 52 -221q94 -166 208 -233q111 -64 261 -64q212 0 319 82q4 3 10 9.5t10.5 10.5 t11 7.5t13.5 3.5q15 0 29 -14q11 -12 36 -75.5t25 -80.5q0 -16 -23 -38.5t-40 -29.5q-11 -5 -43.5 -20.5t-59.5 -27t-43 -15.5q-144 -35 -297 -35q-62 0 -190 31q-33 9 -102 37q-25 10 -58 32q-114 82 -182 161t-113 198q-18 47 -37.5 125t-19.5 114zM729 561 q0 -106 115 -106q6 0 46 9.5t50 12.5q39 11 82 83t43 116q0 40 -33 82t-74 49q-3 0 -21 4t-26 4q-13 0 -34.5 -13.5t-28.5 -15.5q-17 -4 -41 -24q-35 -29 -41 -43q-37 -79 -37 -158z" />
<glyph unicode="A" horiz-adv-x="1202" d="M61 39q0 10 13 52t14 48q7 24 19 80.5t22 85.5q2 8 8.5 24.5t10 30t4.5 27.5q0 3 3 9t3 7q11 22 22 68q25 100 121 393q4 11 8 37q14 69 60 215q11 34 36 119.5t41 132.5q10 23 25 41q7 8 16.5 13t22.5 7t22 3t25 1.5t21 0.5v4q8 -1 29.5 -2.5t31 -2.5t26.5 -5.5 t26.5 -11.5t19.5 -19.5t16 -30.5q91 -272 113 -354q2 -7 2.5 -21t1.5 -18q1 -9 5 -20.5t9.5 -24.5t7.5 -19q24 -73 29 -94q3 -10 12.5 -38.5t12.5 -45.5q5 -19 13 -55t13 -55l43 -140q33 -106 78 -239q8 -21 23 -58.5t26.5 -68.5t20.5 -58q4 -12 4 -20q0 -20 -18 -32.5 t-40 -12.5q-11 0 -23 1t-26.5 2.5t-23.5 2.5h-127q-5 0 -16 -1t-17 -1q-13 0 -45 4q-19 3 -25 23l-2 6q-22 68 -24 84q-1 9 -7.5 27.5t-7.5 27.5q-1 17 -4 19.5t-20 2.5q-11 0 -33 1.5t-33 1.5q-95 0 -190 -3h-8q-14 0 -18 -2.5t-7 -15.5q-10 -29 -23 -117q-6 -28 -19 -40 t-40 -13h-16q-18 0 -53 1t-52 1t-50 -2t-50 -2q-62 0 -62 39zM502 451q12 -2 71 -2h111q-4 20 -20.5 53t-20.5 49q-5 18 -30 85.5t-29 72.5q-15 -43 -82 -258z" />
<glyph unicode="B" horiz-adv-x="1257" d="M143 1137v190q0 51 25 70.5t78 19.5q6 0 18.5 -1t18.5 -1q7 0 20.5 4t20.5 4h43q33 0 97 7.5t97 7.5q34 0 99 -8.5t90 -10.5q80 -7 135 -30q72 -48 86 -62q10 -10 29.5 -32.5t29.5 -32.5q15 -15 41 -74q43 -97 43 -150q0 -22 -6.5 -60t-7.5 -46q-13 -84 -64 -135 q-12 -12 -12 -23q0 -10 12 -22q3 -4 6.5 -7.5t8 -7.5t6.5 -6q47 -72 72.5 -131t25.5 -123q0 -93 -27 -188q-14 -56 -73 -127q-11 -16 -39.5 -41t-32.5 -31q-11 -13 -23.5 -23t-20.5 -14.5t-26 -13t-26 -12.5q-11 -5 -24.5 -15t-25.5 -15t-30 -5q-28 0 -82.5 -3t-81.5 -3 q-13 0 -41 1t-41 1q-159 -6 -162 -6q-29 0 -67 10q-13 3 -61.5 3.5t-80.5 11t-38 40.5q-5 15 -5 39q0 14 2.5 44t2.5 44v113q0 13 2 38t2 37q0 7 -1 22t-1 22q0 30 1 91t1 91q0 10 -2 30t-2 29q0 7 2 20.5t2 20.5q0 18 -3 55t-3 56q0 10 3 30.5t3 30.5t-5.5 29.5t-5.5 28.5 t5.5 26.5t5.5 26.5q0 8 -2.5 23.5t-3.5 19.5q0 10 -3.5 54.5t-3.5 68.5zM471 483q0 -89 6 -178q1 -16 7.5 -20t23.5 -4q187 0 233 20q46 21 82 80q13 23 13 49q0 41 -1 58.5t-11.5 46.5t-32.5 51q-11 13 -97 35q-58 12 -94 12q-18 0 -111 -10q-6 0 -9 -0.5t-5 -4t-2.5 -6 t-1.5 -10.5v-119zM474.5 975q0.5 -21 0.5 -27v-18q0 -14 5 -20t20 -7q44 -8 98 -8q38 0 65.5 4t56 15.5t43.5 37t15 64.5q0 19 -8 51l-8 10q-27 25 -47.5 34t-55.5 9q-125 0 -161 -8q-12 -6 -13 -10q-4 -9 -6.5 -24t-3 -34t-1 -33.5t0 -35.5z" />
<glyph unicode="C" horiz-adv-x="1292" d="M123 700q0 6 2 19.5t2 19.5q0 50 10 115q2 14 6.5 28.5t12 32.5t10.5 27q29 88 85.5 171t127.5 144q16 14 47 37t45 35q16 14 38.5 24.5t51.5 20.5t43 17q39 19 95 33t98 14q8 0 24 -1t23 -1q12 0 33.5 1t31.5 1q2 0 95 -6q13 -1 36 -9t29 -10q47 -9 107 -65 q26 -21 26 -66q0 -18 4 -53t4 -51q0 -17 -6.5 -81.5t-9.5 -78.5q-8 -25 -29 -25q-10 0 -40 20.5t-66 48t-43 32.5q-17 10 -83.5 25.5t-90.5 15.5q-26 0 -68 -11q-58 -14 -72 -20q-102 -39 -196 -186q-30 -48 -33 -130q0 -16 -4 -48t-4 -48q0 -63 37 -168q2 -6 10 -15t10 -13 q6 -8 15.5 -29t15.5 -29q42 -49 74 -61q23 -11 68.5 -27.5t54.5 -19.5q61 -23 114 -22q42 0 96.5 13t90.5 33q9 6 31 24t41 30t34 12q4 0 12.5 -1t12.5 -1q6 -1 11 -6t7.5 -14t4.5 -17t2.5 -20.5t0.5 -19.5v-18.5v-13.5q0 -135 -10 -203q-3 -37 -41 -55q-54 -29 -110.5 -42 t-87 -14t-117.5 -1q-7 0 -28 -0.5t-31.5 0t-27 1.5t-31 3.5t-28.5 7.5q-16 5 -46 12.5t-46 12.5q-36 10 -113.5 56.5t-107.5 74.5l-49 47q-14 14 -17 20q-21 32 -65 88q-85 120 -107 250q-22 121 -22 133z" />
<glyph unicode="D" horiz-adv-x="1353" d="M143 1178q0 12 6.5 33.5t6.5 31.5q0 19 -5.5 55.5t-5.5 53.5q0 22 6.5 36.5t14.5 22.5t25 11.5t26.5 4t33 -0.5t30.5 -1q102 0 141 7q28 4 45 4q18 0 39.5 -3t32.5 -5.5t41 -10l34 -8.5q48 -7 78 -16q107 -31 191 -82q3 -2 19.5 -14.5t25.5 -18.5q139 -84 221 -217.5 t82 -290.5q0 -169 -81 -334.5t-214 -271.5q-44 -35 -195.5 -95.5t-208.5 -66.5q-40 -4 -108 -8v2q-19 0 -58 2t-59 2q-5 0 -15.5 -2t-15.5 -2q-10 0 -26 4q-7 2 -27 7t-28.5 8.5t-18.5 15t-12 28.5q-4 30 -6 68.5t-2 61.5v30v43v64q0 10 -2 30.5t-2 30.5q0 13 4 40t4 40 q0 28 -2 84.5t-2 83.5q0 20 2 60t2 61q0 20 -2 59t-2 59t-2 61t-2 62q0 10 2 31t2 31q0 63 -6 84q-7 21 -7 35zM473 629q0 -41 4 -119q0 -18 4.5 -51.5t5.5 -48.5q2 -20 9.5 -27.5t29.5 -7.5q3 0 45 6q5 1 18.5 2t19.5 2t17.5 2.5t19 4t17 6t17.5 8.5q5 3 19.5 12t23 14.5 t19.5 14t18 16.5q6 5 15.5 17.5t15.5 17.5q27 25 53 86q16 36 29.5 91.5t13.5 90.5q0 14 -7 44.5t-8 33.5q-19 85 -122 160q-7 5 -26 19t-33 23t-29 15l-48 20q-76 39 -127 39q-12 0 -12 -22q0 -38 2 -115.5t2 -116.5q0 -40 -3 -118.5t-3 -118.5z" />
<glyph unicode="E" horiz-adv-x="1228" d="M143 1204q0 22 1 68.5t1 70.5q0 33 25.5 62t58.5 29q15 0 42 -4.5t40 -4.5q10 0 29.5 2.5t28.5 2.5q17 0 48 5t46 5q13 0 37 1t37 1q8 0 24.5 -1t24.5 -1q24 0 73 4t74 4q8 0 24.5 -2t24.5 -2q12 0 33 -2t31 -2q86 -4 125 -4q14 0 40 1t38 1q24 0 42.5 -17.5t18.5 -40.5 q0 -133 -2 -196q-5 -58 -43 -58q-8 0 -25.5 2t-25.5 2q-11 0 -34 -2t-36 -2q-18 0 -52 1t-52 1q-123 0 -369 -8v-49q0 -7 -0.5 -22t-0.5 -22t1.5 -19.5t4 -18.5t7.5 -14t12.5 -11.5t19 -6.5t26.5 -3q17 0 49 5.5t49 5.5q11 0 33 -2t33 -2q13 0 39.5 1t41.5 1q9 0 29.5 -1 t30.5 -1q6 0 20 1t21 1q15 0 46 -1t46 -1q18 0 31 -13l14 -6q26 -10 29 -41q12 -66 12 -96q0 -12 -1 -35.5t-1 -34.5q0 -38 -10.5 -55t-46.5 -21q-16 -1 -47 -4.5t-56.5 -5.5t-48.5 -2q-26 0 -77 3t-77 3q-145 0 -202 -10q-17 -2 -17 -33q-10 -117 -10 -211v-75 q3 -15 16 -15q45 -4 136 -4q15 0 43 1t43 1q17 0 48 -1t48 -1q5 0 20 1.5t23 0.5q133 0 199 -4q5 0 16.5 -1t17.5 -1q22 0 32.5 -21.5t10.5 -46.5q0 -13 -2 -38t-2 -37q0 -6 3 -20t3 -21q0 -82 -49 -101q-9 -3 -24 -8.5t-19 -6.5t-13 -3.5t-16 -2.5t-17 -0.5t-27 -0.5 q-59 0 -178.5 6t-180.5 6q-14 0 -43 -2t-45 -2q-20 0 -59 3t-58 3q-11 0 -33.5 -4t-35.5 -4h-92q-30 0 -47.5 17.5t-21.5 38t-7.5 42t-7.5 25.5v8q0 56 2 167.5t2 166.5q0 13 -1 40t-1 40q0 23 4 66.5t4 64.5q0 18 -5 55t-5 57q0 16 2 48t2 49q0 25 -3 75t-3 74q0 16 2 48 t2 48q0 12 -5.5 36t-5.5 38z" />
<glyph unicode="F" d="M143 604q0 22 3.5 66t3.5 67q0 29 1 85t1 83q0 21 -1 63t-1 62q0 5 1 16.5t1 16.5q0 10 -1 29.5t-1 29.5q0 26 4 80t4 80q0 14 -2 40t-2 40q0 24 10 51q6 17 37 21q114 4 168 4q10 0 28 -2t27 -2q38 0 113 2t112 2q262 0 393 -4q7 0 12.5 -1.5t9.5 -4.5t7 -5t5 -8t3 -8.5 t1.5 -10.5t0.5 -10v-11.5v-10.5q0 -92 -12 -180q-3 -23 -27 -29q-38 -10 -67 -10q-8 0 -24.5 2t-24.5 2q-14 0 -43 -4t-43 -4q-18 0 -54 -2t-53 -2q-9 0 -27.5 2t-27.5 2q-8 0 -23.5 -2t-23.5 -2q-13 0 -36 1t-36 1q-47 0 -70 -2q-16 -3 -16 -19q0 -60 6 -119q0 -12 13 -12 h36q18 0 53 3t52 3q16 0 46.5 -3t45.5 -3q20 0 61.5 2t63.5 2q12 0 37 -2t37 -2q10 0 30 3t29 3q30 0 44.5 -31t14.5 -65q0 -95 -10 -190q0 -17 -14 -23q-39 -16 -78 -16q-15 0 -47 1t-49 1q-26 0 -77 -3t-77 -3q-113 0 -184 -7q-16 0 -19 -16v-96q0 -33 5 -203v-106 q6 -117 6 -119q0 -24 -4 -78q0 -27 -27 -33q-54 -12 -197 -12q-58 0 -90 14q-16 7 -20 35q-8 62 -8 92q0 15 1 46t1 46q0 63 -4 181q0 13 -1.5 72t-3.5 91q-2 10 -2 33z" />
<glyph unicode="G" horiz-adv-x="1398" d="M123 711q0 15 5.5 36.5t6.5 28.5q4 22 6.5 46t4 36t8.5 32.5t20 47.5q44 98 74 152q14 27 48 66.5t60 62.5q35 31 70 51l12 6q33 29 94 55q15 6 46 21t56 25t48 14q6 2 17 3t16 3q49 12 130 20t136 8q87 0 211 -65q14 -8 14 -27l8 -127h-4q4 -70 4 -106q0 -42 -2 -62 q-2 -10 -6 -14t-14 -6q-4 -2 -14 -2q-18 0 -35 10q-60 32 -99 41l-16 6q-10 6 -22 10t-20.5 6.5t-24.5 3.5t-22 1h-25.5h-22.5q-90 0 -183 -41.5t-159 -120t-66 -170.5q0 -48 15 -129q11 -57 55 -117.5t94 -79.5q23 -10 115 -43q46 -16 90 -16q6 0 19.5 1t19.5 1h18.5 t11 1.5t7.5 2.5t2.5 6t1 9.5t-1.5 16v21.5q0 11 0.5 25.5t1 20.5t-1 15t-5 12t-10.5 7t-18 5t-27 1q-8 0 -25 -1t-26 -1q-26 0 -47 6q-21 5 -31 39t-10 64q0 90 14 164q4 22 17.5 29t38.5 7q10 0 29.5 -1t29.5 -1q4 0 12.5 1t12.5 1q10 0 29.5 -3t29.5 -3q9 0 27 3t26 3h84 q6 0 30.5 1t37.5 0.5t31.5 -4t30 -13t16.5 -25.5q12 -32 12 -53q0 -15 4 -47q12 -160 12 -258q0 -5 -1 -17t-1 -18q0 -35 1 -105.5t1 -105.5q0 -44 -10 -69q-6 -12 -33 -39q-46 -50 -113.5 -66t-156.5 -16q-183 0 -289 39q-57 22 -90 26q-16 2 -54.5 26t-86.5 58.5t-57 40.5 q-32 20 -78 74q-36 41 -54 72q-8 13 -22 47.5t-25 50.5q-42 70 -47 137q-1 7 -6.5 24t-5.5 25q0 16 -2 48t-2 49z" />
<glyph unicode="H" horiz-adv-x="1486" d="M143 1303q0 12 3 33t4 26q1 20 15.5 34t30 20.5t44 10t40.5 3.5h37q79 0 129 -11q35 -6 41 -43q13 -60 15 -82q1 -18 0 -56t0 -58q0 -26 5.5 -76t6.5 -72q0 -6 2 -18.5t2 -18.5q0 -8 -2 -12q-1 -7 3.5 -12.5t15 -8.5t21.5 -5t26 -2.5t24.5 -1.5t22.5 0t14 1q17 0 46.5 4 t41.5 5q33 3 99 3t100 3q33 0 33 22q2 39 2 115q0 26 -3.5 80t-3.5 82q0 48 7 116q3 19 20 31t37 12q14 0 39 -4t37 -4q14 0 42 1t42 1q9 0 28.5 -2t28.5 -2q6 0 17.5 2t17.5 2q59 0 59 -71q0 -10 -1 -32t-1 -32q0 -38 2 -112.5t2 -112.5q0 -8 -2 -25.5t-2 -25.5 q0 -27 6 -83.5t6 -84.5q0 -15 -3 -42t-3 -40q0 -7 1 -21.5t1 -21.5q0 -5 -1 -15.5t-1 -15.5q0 -9 1 -27.5t1 -27.5q0 -26 1 -76t1 -74q0 -10 -3 -30.5t-3 -30.5q0 -9 2 -27.5t2 -27.5v-121q0 -9 -1 -26t-1 -31t2 -25q2 -10 2 -29q0 -13 -2 -40t-2 -40q0 -18 -4.5 -25.5 t-19.5 -13.5q-27 -10 -115 -10q-14 0 -40 1t-40 1h-88q-16 1 -22 7t-9 22q-6 34 -6 65q0 14 1 39t1 39q0 30 -2 88t-2 88q0 32 1 95t1 94q0 59 -2 71q-4 17 -16 17q-6 0 -19.5 -1t-19.5 -1q-11 0 -34.5 1t-35.5 1q-10 0 -30.5 -2t-30.5 -2q-29 0 -86 3t-86 3q-19 0 -55 -1 t-54 -1q-22 -3 -24 -23q-1 -13 -1 -41t-1 -43q0 -14 -1 -43t-1 -45q0 -13 4 -36t4 -35q0 -11 -3 -34t-3 -36q0 -25 2 -81q1 -42 1 -76q-1 -12 -1 -22q0 -43 -4 -81q-1 -16 -7.5 -22t-23.5 -11q-27 -8 -82 -8q-52 0 -150 4q-45 3 -59 49q-1 6 -5 21t-6.5 27.5t-2.5 21.5 q0 17 2 48t2 48q0 30 -4 84q-4 98 -4 145q0 12 5 32t5 32q0 10 -3 30.5t-3 30.5q-1 19 -1 58t-1 57q0 7 -1 22.5t-1 22.5q0 6 2 19.5t2 19.5q0 53 -4.5 152t-5.5 137q0 12 0.5 35t0.5 42t-1 35q0 4 -2.5 13t-2.5 14q0 17 -1 53.5t-1 55.5z" />
<glyph unicode="I" horiz-adv-x="645" d="M143 1329q0 31 2 45q1 19 25 33t45 14h170q22 0 32 -2.5t25 -10.5t27 -13q20 -7 20 -37q3 -20 3 -80q0 -13 1 -41t1 -43q0 -26 -1 -80t-1 -80v-143q1 -23 4.5 -92.5t3.5 -108.5q0 -12 -11 -119v-6q-1 -11 5 -30t6 -27q0 -20 -4 -62.5t-4 -62.5q0 -19 5 -58t5 -59 t-6.5 -61.5t-6.5 -63.5q0 -8 3.5 -25t3.5 -26q0 -39 -12.5 -61.5t-47.5 -26.5q-58 -8 -86 -8q-97 0 -157 18q-34 8 -37 47q-2 20 -2 66q0 20 2 61.5t2 63.5q0 20 -1 60t-1 61q0 5 1 15t1 15q0 25 -2 77t-2 77v68q0 15 -1 47t-1 49q0 48 1 144t1 143q0 30 -2 88t-2 86l2 39 q0 19 -4.5 55t-4.5 55z" />
<glyph unicode="J" horiz-adv-x="1087" d="M82 291q0 22 20 39q23 20 91 63t86 43q49 0 79 -35q49 -58 119 -82q1 0 4.5 -1t5.5 -1q3 0 35 13q64 21 78 139q8 78 8 119q0 26 -3 78t-3 77q0 34 1 100.5t1 100.5q0 20 -3 61.5t-3 63.5q0 44 3 133t3 133v31q13 57 90 57q3 0 10.5 -1t10.5 -1q21 0 61 1t60 1 q87 0 96 -49q0 -2 7 -26t7 -33q0 -46 1 -137t1 -136q0 -7 -1 -21.5t-1 -21.5q0 -17 5 -52t5 -54q0 -8 -2 -25t-2 -26q0 -15 6.5 -42t6.5 -40q0 -12 -4.5 -36t-4.5 -36l-2 -129q0 -10 2 -30t2 -29q0 -17 -6 -49.5t-6 -47.5q0 -6 0.5 -18t0 -18t-1 -15.5t-3 -17.5t-6.5 -17 l-4 -12q-13 -66 -51 -104q-10 -10 -11 -13q-8 -23 -23.5 -43.5t-25 -30t-37.5 -34.5q-6 -6 -13 -11.5t-16.5 -11t-14 -8.5t-17.5 -8t-15 -6t-18 -7l-16 -5q-63 -19 -78 -19q-90 0 -133 2q-31 3 -86 21.5t-90 35.5q-18 8 -48 29t-36 25q-40 26 -51 41q-44 47 -52 86 q0 1 -9 17t-9 30z" />
<glyph unicode="K" horiz-adv-x="1296" d="M143 1090q0 16 2 48t2 48q0 8 -2 24t-2 23q0 20 1 57.5t1 55.5q1 56 12 66t64 13q82 7 146 7q5 0 16 -1t16 -1h17q38 -3 54.5 -15t16.5 -49t-2 -110.5t-2 -110.5q0 -51 9 -209q39 55 106 159.5t98 149.5l31 47q37 47 59 92q19 40 64 46q12 2 78 2h155q9 0 28 1t28 1 q55 0 55 -31q0 -10 -6 -23t-12.5 -22t-17 -22.5t-13.5 -18.5q-96 -137 -160 -234q-18 -25 -45.5 -75.5t-38.5 -67.5l-55 -82q6 -18 18 -56t22 -66.5t21 -53.5q56 -126 150 -363.5t94 -289.5q0 -29 -80 -29q-8 0 -25.5 1t-25.5 1q-20 0 -58 -1t-57 -1q-9 0 -26.5 1t-26.5 1 q-13 -1 -21 0.5t-14 8.5t-8 10t-7 16.5t-7 17.5l-74 187q-17 44 -55 131t-56 131q-4 -6 -49 -77.5t-69 -107.5q0 -43 -1.5 -129t-1.5 -129q0 -4 1.5 -12t1.5 -12q0 -22 -15 -28.5t-41 -6.5q-5 0 -15 -2t-15 -2q-35 -2 -109 -2q-39 0 -80 6q-40 6 -50 16t-13 50q-4 49 -4 147 q0 13 2 37t2 37q0 73 -2 221t-2 221l1 99v54q0 44 -1 44q0 26 -3.5 80t-3.5 82z" />
<glyph unicode="L" horiz-adv-x="976" d="M143 98q0 46 2 66l2 2v141q0 9 3.5 29t3.5 29t-3.5 26t-3.5 25q0 7 3.5 22t3.5 23q0 25 -4.5 73t-4.5 72q0 8 4.5 25t4.5 26q0 8 -1 25.5t-1 26.5t2 27.5t2 27.5q0 131 -2 197q0 13 -1 37t-1 36q0 8 2 23.5t2 23.5q0 15 -3 46.5t-3 48.5q0 14 4 42t4 42q0 18 -2 53t-2 53 q0 43 20.5 58.5t65.5 15.5q16 0 48 -5t48 -5q12 0 33.5 1t31.5 1h18.5h18.5t15.5 -1t15.5 -3.5t11.5 -7t10 -10.5t5 -16t2.5 -22q0 -24 -5.5 -70t-5.5 -69q0 -8 2.5 -24.5t2.5 -24.5q0 -20 -1.5 -59t-1.5 -58q0 -17 4.5 -50.5t4.5 -49.5q0 -17 -4.5 -49t-4.5 -48 q0 -18 4.5 -53t4.5 -53q0 -20 -4.5 -57.5t-4.5 -55.5q0 -21 4.5 -63t4.5 -64q0 -18 -3 -51t-3 -51q0 -26 4 -76q0 -11 4.5 -14.5t17.5 -3.5q16 0 50.5 2t52.5 2q29 0 86 -2t86 -2q5 0 16 1t16 1q13 0 24.5 -9t16.5 -22q3 -11 5 -38.5t2 -51t-0.5 -58t-0.5 -38.5 q0 -91 -28 -101q-54 -14 -72 -14q-6 0 -17.5 2t-17.5 2q-26 0 -81 -2t-83 -2q-13 0 -37 -2t-36 -2q-37 0 -111 4q-9 0 -51 0.5t-61 2t-50 7t-53 15.5q-11 4 -21 31.5t-10 43.5z" />
<glyph unicode="M" horiz-adv-x="1644" d="M123 27q8 21 8 53q0 87 6 170q1 11 4.5 42.5t3.5 47.5q0 25 9.5 76t9.5 78q0 8 -2 23.5t-2 23.5q0 23 8 89t8 70q2 28 8.5 82t8.5 80q0 37 4 53q24 127 24 166q0 5 -1 14.5t-1 14.5q0 68 14 117q2 9 3 27t2 22q7 62 14 100q3 23 29 33q43 16 88 16q50 0 78.5 -9.5 t52.5 -43.5q10 -14 20 -30t21 -36.5t18 -31.5q56 -85 176 -316q60 -118 78 -145l57 96q10 19 36 56t36 57q63 125 199 367q24 45 98 45q5 0 16 -1t17 -1q4 0 17.5 0.5t19.5 0t16 -2t17 -6t14 -11.5q26 -26 26 -65q1 -40 12.5 -115t12.5 -86q9 -91 35 -244v-8q0 -47 12 -143 t12 -142q0 -30 6 -84.5t7 -62.5q4 -41 8.5 -87t8.5 -100.5t7 -85.5q1 -13 8 -41t7 -45q0 -12 2 -36t2 -37q0 -16 -17 -23q-27 -6 -61.5 -9t-55.5 -3h-26h-40h-56q-68 0 -99 18q-6 3 -10 36t-4 52q0 3 1 10.5t1 10.5v86q0 16 -2 33t-5.5 38t-4.5 33q-2 13 -19 183 q0 3 -6 37.5t-6 52.5t-14 49q-25 -35 -31 -47q-5 -8 -13 -25.5t-10 -21.5q-21 -53 -63 -119q-4 -4 -8 -12q-26 -57 -53 -84q-9 -14 -11 -21q-20 -40 -51 -98q-7 -11 -45 -35q-4 -1 -13.5 11t-20 30.5t-20 36.5t-17.5 33.5t-9 17.5q-26 48 -125 215q-12 21 -36.5 68t-39.5 71 q-14 -5 -20 -11.5t-6 -20.5l-6 -80q-1 -4 -4.5 -16t-3.5 -19q0 -21 -9 -109l-12 -200q-1 -12 -5.5 -46t-4.5 -51q0 -12 1 -35t1 -34v-17q-2 -8 -8 -12.5t-16.5 -6t-18.5 -2t-21 0t-16 0.5q-10 0 -30 1t-29 1q-14 0 -40 -2t-38 -2q-5 0 -14.5 1t-14.5 1q-9 0 -27.5 -4 t-27.5 -4q-17 0 -27 10.5t-12 28.5z" />
<glyph unicode="N" horiz-adv-x="1400" d="M143 973q0 19 1 54t1 52q0 220 17 303q13 58 135 58q6 0 18.5 -3t18.5 -3q4 0 12 2t12 2q29 0 56 -35q33 -49 89.5 -145.5t69.5 -116.5l70 -103l23 -37q7 -11 23.5 -31t23.5 -32q25 -37 84 -131t94 -143h6q8 51 8 155q0 19 -1 54.5t-1 52.5q0 64 5 193t5 194 q0 12 -2 33.5t-2 31.5q0 11 3 20.5t6.5 15.5t11.5 10.5t13 6.5t17 3.5t16.5 2t18.5 1t17 0.5q8 0 24.5 1t24.5 1h2q47 -15 100 -15h13h14t13.5 -0.5t14 -2t12 -3.5t11.5 -6t8 -9t6 -12t2 -16q0 -25 -3 -76.5t-3 -78.5q0 -11 1 -34t1 -34q0 -15 -3 -45t-3 -45q0 -21 2 -65 t2 -66q0 -9 -4 -36.5t-4 -41.5q0 -9 2 -26.5t2 -26.5q0 -57 -1 -173t-1 -175q0 -18 3 -52.5t3 -50.5q0 -9 -1 -27.5t-1 -27.5q0 -17 1 -63q2 -45 2 -73v-6q0 -25 -4 -59q-4 -38 -13 -65q-9 -23 -37 -27q-26 -4 -154 -4q-83 0 -120 20q-54 28 -74 66q-55 93 -145 217 q-16 20 -38 62t-34 59q-7 10 -28.5 41t-31.5 49q-9 12 -24 39t-29.5 47t-30.5 33q-8 -16 -8 -64q0 -13 2 -38.5t2 -39.5q0 -90 2 -137q0 -12 3.5 -38t3.5 -40q0 -67 -2 -100q0 -5 -1.5 -15.5t-1.5 -15.5q0 -13 1.5 -37t1.5 -36q0 -20 -19 -47q-9 -15 -39 -15q-41 0 -133.5 3 t-105.5 7q-43 14 -43 62q0 35 3 104.5t3 104.5q0 95 -4 291q-1 55 -6 188t-5 205z" />
<glyph unicode="O" horiz-adv-x="1720" d="M123 678q0 22 2 46.5t5.5 54.5t4.5 46q0 17 12.5 43t14.5 31q25 71 36 102t41.5 87.5t63.5 87.5l105 94q2 2 10 11.5t14 14.5q65 45 92 58q11 6 33.5 12.5t30.5 9.5q10 4 33.5 14.5t35.5 15t31.5 10.5t37.5 9.5t38 4.5q33 2 100 2q9 0 29 -1t29 -1q6 0 19.5 1t19.5 1 q39 0 83 -13q13 -3 44 -10.5t53.5 -13.5t42.5 -13q19 -6 86 -43q71 -41 116 -102q9 -9 11 -10q12 -11 24 -25.5t19.5 -25t19 -29t17.5 -27.5q10 -16 39 -76q1 -2 10.5 -19.5t10.5 -20t8.5 -17.5t9 -19t7 -17t7.5 -20t5.5 -18.5t5 -22t3.5 -22.5q1 -7 7.5 -43t6.5 -53 q0 -70 -14 -180q-1 -5 -6.5 -21t-5.5 -18q0 -18 -15 -58.5t-26 -56.5q-35 -54 -45 -90l-6 -14q-106 -157 -252 -236q-3 -2 -44 -25t-69 -37.5t-41 -17.5q-146 -24 -188 -24q-59 0 -84 6q-23 4 -49.5 10.5t-58 14.5t-48.5 12q-104 25 -172 67t-170 129q-47 43 -63 74 q-6 12 -21 31t-18 24q-18 29 -34.5 90.5t-21.5 73.5q-4 13 -13 74.5t-9 77.5zM457 674q0 -82 30 -129q37 -65 148 -130t186 -65q3 0 45 6l109 11q24 3 64.5 24t60.5 39q11 9 25 29t22 28q3 4 14 13t15 16q24 41 37.5 102t13.5 115q0 50 -39 150q-20 59 -98 133 q-19 19 -91 42t-104 23h-66h-5q-36 0 -70 -13q-36 -14 -49 -15q-24 -2 -56 -27q-1 -1 -30 -19.5t-41 -29.5q-29 -25 -72 -100q-20 -34 -34.5 -97t-14.5 -106z" />
<glyph unicode="P" horiz-adv-x="1296" d="M143 866q0 17 5.5 47t5.5 45q0 18 -3.5 54.5t-3.5 42.5h3q0 15 -2.5 43t-2.5 43q0 13 2.5 39t2.5 39q0 10 -1.5 30t-1.5 29q0 21 6 55t7 41q9 39 47 39q10 1 57 2t88 2.5t47 3.5q46 15 119 15q17 0 49 -4q34 -4 97 -6t113 -7.5t93 -21.5q8 -2 24 -7t26.5 -8t24 -9 t22.5 -13q7 -5 30 -22t33.5 -25t26.5 -23.5t28 -29.5q109 -128 109 -398q0 -17 -4 -53q-24 -125 -59.5 -186.5t-129.5 -126.5l-16 -13q-4 -5 -9 -10l-8.5 -8.5t-10 -7t-10 -5.5t-11 -5.5t-10.5 -4.5t-12.5 -5t-12.5 -5q-99 -40 -272 -59q-31 -2 -94 -2q-15 -1 -20 -7.5 t-7 -21.5q-4 -90 -4 -135q0 -94 4 -141q2 -6 2 -21t-7 -32t-20 -17q-30 0 -80 4q-6 1 -16.5 2.5t-19.5 2.5t-17 1q-22 0 -64.5 -3t-62.5 -3q-26 0 -44.5 19.5t-18.5 46.5q0 115 -4 172q0 5 -1 15.5t-1 16.5q0 12 6 36t6 36q0 15 -3 46t-3 48q0 25 1 74.5t1 73.5 q0 18 -4 52.5t-4 49.5q0 9 0.5 23t0.5 25.5t-1 21.5q-1 15 -6 52.5t-5 57.5zM487 1106q0 -62 4.5 -186t4.5 -185q0 -9 -1 -23.5t-0.5 -19.5t4 -11.5t12 -8.5t24.5 -2q13 0 36 3t35 3q69 0 142 51q8 5 15 11t14.5 15.5t11 14t12.5 17t10 14.5q29 36 35 82q4 36 4 57 q0 63 -40 109t-96 66t-118 20q-13 0 -41 -1.5t-43 -1.5q-14 -2 -19.5 -6.5t-5.5 -17.5z" />
<glyph unicode="Q" horiz-adv-x="1808" d="M123 688q0 14 2 41t2 41v21q0 12 9 44.5t18 59t23.5 67t15.5 44.5q49 133 172 256q25 25 77 56t93 48q125 55 208 64q41 6 140 6q17 0 51 -2t51 -2t34 -3t41 -9.5t34 -8.5q102 -26 172 -65q9 -5 26.5 -18.5t26.5 -18.5q14 -8 30 -22t34 -34.5t29 -34t30 -38.5t24 -31 q60 -80 83 -142.5t44 -175.5q19 -89 19 -139q0 -60 -17 -110q-4 -17 -10.5 -49t-13.5 -57t-19 -48q-11 -21 -92 -166q13 -26 119.5 -138.5t106.5 -139.5q0 -6 -4.5 -9.5t-12.5 -4.5t-14 -1.5t-16 0t-11 0.5q-33 0 -97 2t-97 2q-12 0 -37 -2t-37 -2q-36 0 -66 6 q-21 2 -57.5 46.5t-46.5 44.5q-4 0 -15 -5t-14 -8q-21 -14 -67 -20q-18 -4 -29 -8q-76 -25 -205 -25q-4 0 -20 4q-18 10 -52 10q-79 3 -195 34t-175 69q-74 47 -150 133q-15 17 -27 38.5t-26 52.5t-20 44l-25 37q-15 26 -28 71.5t-13 73.5q0 6 1 17.5t1 17.5q0 14 -4 43 t-4 43zM453 748q0 -20 4.5 -54t5.5 -47q0 -68 37 -123q3 -3 8.5 -14t9.5 -16q79 -84 155 -129.5t173 -45.5q104 0 137 35q-117 139 -162 189q-5 7 -37 39q-6 9 -6 20q0 16 21 23q26 6 62 8q29 2 53 2q7 0 12 -1q30 0 63 1q14 1 50.5 5.5t54.5 4.5q22 0 42 -11t29 -20.5 t28 -35t24 -31.5q16 22 21.5 45t7.5 55t5 49q4 24 4 33q0 46 -41 160q-10 28 -51 81.5t-69 80.5q-41 36 -78 43q-90 22 -150 22q-30 0 -100 -16q-115 -20 -254 -176q-20 -24 -39.5 -84t-19.5 -92z" />
<glyph unicode="R" horiz-adv-x="1433" d="M143 1331q0 44 2 64q6 23 29 30q21 5 45.5 7.5t41 3.5t46.5 1.5t43 0.5q42 6 45 6q11 0 34 -2t34 -2q14 0 41.5 1t40.5 1q27 0 79 -2t78 -2q18 0 48.5 -8.5t42.5 -10.5q24 -5 63 -7t65 -11t62 -37q6 -5 18.5 -13t19 -13t14.5 -14t14 -21q11 -21 39 -47t38 -74 q6 -32 23 -54q5 -5 8.5 -12.5t5.5 -15t4 -19t2.5 -19t1 -21t0.5 -19v-18.5v-15q0 -8 2.5 -24.5t2.5 -24.5q0 -69 -2 -104q0 -10 -6 -28t-7 -24q-4 -34 -26 -86q-3 -6 -8 -23t-10.5 -30t-10.5 -20l-92 -107q-2 -2 -10.5 -9t-14.5 -13t-6 -9q0 -7 141.5 -198.5t173.5 -227.5 q13 -17 13 -26q0 -16 -10.5 -26t-29.5 -12.5t-35 -3t-38.5 1t-28.5 1.5q-21 0 -63 -2t-64 -2q-50 0 -82 14t-55 53q-16 28 -131 172q-9 10 -29.5 32t-35 38.5t-25.5 34.5q-24 34 -49 49q-18 6 -19 6q-69 0 -106 -2q-4 -152 -4 -227q0 -18 1 -56t1 -57q0 -18 -13.5 -35.5 t-31.5 -17.5q-8 0 -25 1t-26 1h-60q-10 0 -30.5 -2t-30.5 -2q-30 0 -84 8q-33 5 -37 55q-10 92 -10 109q0 6 1 19t1 20q0 19 -4 54t-4 54q0 31 -1 94t-1 93q0 16 6 46t6 44q0 16 -5 56t-5 63q0 21 2 63t2 62t-3.5 55t-4.5 47v256q0 24 -3.5 70t-3.5 69zM487 1116 q0 -49 3.5 -141.5t3.5 -112.5q0 -29 2 -41q1 -16 5 -46t5 -44q1 -8 2.5 -14l2.5 -10t5 -6.5t6 -4t8.5 -2t10 -0.5h13.5h15q24 0 78 8q13 3 24 9t25.5 18t20.5 16q39 25 78 66t39 74q0 6 -3.5 17t-3.5 16q0 6 4.5 18.5t4.5 19.5q0 34 -15 62t-34.5 45t-54 32.5t-56.5 22.5 t-60 17q-45 10 -77 10h-10h-10.5t-8.5 -0.5t-8 -1.5l-6 -3t-5 -5.5t-2.5 -8t-1.5 -10.5z" />
<glyph unicode="S" horiz-adv-x="1306" d="M123 459q0 71 143 71q109 0 162 -2q12 -1 21.5 -8.5t16.5 -22t11 -25t9 -29t6 -21.5q16 -51 81 -83t125 -32q72 0 113 34t41 105q0 45 -41 70q-20 14 -56.5 30t-91 33.5t-88.5 28t-96 28.5t-67 19q-39 9 -58 15q-21 7 -35 18q-10 9 -32.5 32t-36.5 34q-35 32 -60.5 106.5 t-25.5 128.5q0 24 7 68t15 63q1 2 12.5 32t16.5 46q2 7 5 13.5t5.5 12t7.5 12.5l7.5 10.5t9.5 11.5t9 10.5t10 11t10 10.5q16 18 48 49t42 35q85 35 148.5 50.5t144.5 15.5q33 0 63 -6q15 -3 80 -13q40 -8 101 -36t93 -54q16 -14 27 -35q14 -31 43 -73q47 -70 47 -203 q0 -4 -1 -14t-1 -15q0 -59 -57 -67q-37 -6 -80 -6q-126 0 -174 28q-18 9 -21 29q-6 47 -26 92t-54 57q-59 19 -75 19q-40 0 -82 -25q-7 -4 -12.5 -9t-12 -14t-8.5 -12q-18 -24 -18 -47q0 -22 7 -39t23 -29t27.5 -18.5t36.5 -16t33 -13.5q44 -19 122 -41t133 -38.5t115 -53.5 t94 -89q7 -10 33 -36t31 -37q35 -81 35 -121q0 -12 -3 -34t-3 -34q0 -14 2 -39t2 -37q0 -33 -14.5 -59.5t-18.5 -42.5q-17 -55 -70 -115q-57 -62 -69 -73q-4 -5 -15 -11q-92 -40 -108 -45q-22 -8 -83.5 -14t-96.5 -6q-67 0 -197 33q-49 11 -100 39l-58 28q-53 34 -84.5 63.5 t-58.5 75.5q-5 8 -15 25t-16 27t-13 25t-11 28q-31 90 -31 121z" />
<glyph unicode="T" horiz-adv-x="1261" d="M104 1284v11q0 24 0.5 36.5t4.5 32.5t11.5 30.5t23 18.5t38.5 8q16 0 47 -2t47 -2q14 0 43 2t43 2q24 0 73 -1t73 -1q16 0 49 3t49 3q33 0 49 -2q15 -2 42.5 -2.5t35.5 -1.5q20 0 57.5 -3t55.5 -3q35 0 103.5 4t103.5 4q1 0 18.5 0.5t25 0t21 -3t21 -8.5t10.5 -15 q10 -42 10 -74q0 -45 -4 -143q-2 -44 -14 -57.5t-54 -14.5q-11 0 -34 -4t-25 -4q-8 0 -24.5 2t-24.5 2q-9 0 -26.5 -2t-26.5 -2t-27.5 0.5t-30 0.5t-27 -1t-28.5 -4q-10 -55 -10 -101q0 -32 5 -94t5 -92q0 -16 -2 -46t-2 -44q0 -107 8 -158q0 -2 1 -6.5t1 -7.5 q0 -12 -5 -38.5t-5 -41.5q0 -20 3 -62.5t3 -64.5q0 -16 -1 -50t-1 -50q0 -9 0.5 -51t0 -59t-4 -47.5t-10.5 -55.5q-3 -14 -14.5 -19.5t-14.5 -9.5q-7 -12 -22 -12q-8 0 -24 2t-24 2q-135 5 -170 10q-32 4 -49 31q-1 7 -5.5 27t-4.5 30q0 18 3 54t3 55q0 26 -6 75.5t-6 75.5 q0 12 3 33t3 33q0 29 -5 89.5t-5 90.5q0 14 5 43t5 45q0 12 -2 37t-2 37v114q0 2 -6 179q0 40 -35 40q-10 0 -30.5 -2t-30.5 -2q-27 0 -80.5 4.5t-79.5 4.5q-8 0 -24.5 -2.5t-24.5 -2.5q-15 0 -26 11t-13 26q-5 84 -8 101q-5 23 -5 59z" />
<glyph unicode="U" horiz-adv-x="1247" d="M123 1174q0 68 8 194q3 49 43 57q36 7 90 7q20 0 59 -1t58 -1q24 0 35 -17q12 -10 26 -33q9 -18 9 -96q0 -10 -2.5 -30.5t-2.5 -30.5q0 -35 5.5 -103t5.5 -102q0 -26 1 -76t1 -74q0 -16 -1 -49t-1 -49q0 -112 10 -195q13 -116 32 -160q38 -87 136 -87q78 0 115.5 46.5 t37.5 127.5q0 14 -1 41t-1 41q1 19 4 92.5t3 114.5q0 10 -1 30.5t-1 32.5q0 15 2 47t2 49q0 7 -2 22.5t-2 22.5q0 8 2 26t2 26q0 38 -5.5 114.5t-5.5 114.5q0 18 1 52t1 52q3 58 86 58q140 0 189 -8q34 -5 43 -44q12 -41 12 -231h-2v-70q0 -31 2 -47q0 -16 4 -50t4 -50 q0 -12 -2 -33t-2 -31q0 -20 2 -60t2 -60q0 -24 -6 -71t-6 -71q0 -243 -39 -340q-117 -274 -407 -274q-300 0 -404 145q-71 100 -94 211q-2 9 -11.5 40.5t-9.5 49.5q0 70 -12 119q0 4 -1 12.5t-1 12.5q0 9 1 27.5t1 27.5q0 25 -4 73.5t-4 71.5q0 18 4 54t4 53q0 65 -8 117 q-2 10 -2 28q0 8 2 26t2 26q0 15 -3 42t-3 40z" />
<glyph unicode="V" horiz-adv-x="1298" d="M61 1372q0 13 2 19q1 12 25 22t39 10q31 0 75 9.5t70 9.5q27 0 39.5 -1t32 -5.5t31.5 -17t18 -32.5t20.5 -54.5t16.5 -39.5q24 -66 64 -189t51 -155l63 -178q27 -79 33 -90l6 4q16 45 45 130t43 124q4 10 18 59.5t27 75.5q11 20 21 51t21.5 74t15.5 57q17 51 61 142 q11 25 43 28q39 5 98 5q8 0 25 -1.5t25 -1.5q12 0 34 1.5t33 1.5q12 0 33.5 -3t26.5 -4q20 0 20 -14q0 -33 -11.5 -75.5t-36.5 -110.5t-28 -76q-8 -25 -43 -152q-2 -5 -19 -53t-24 -72q-7 -21 -55 -184q-29 -88 -88.5 -252t-83.5 -237q-4 -11 -10.5 -35.5t-10.5 -36.5 q-8 -20 -22 -49q-2 -5 -6.5 -21.5t-7.5 -23.5t-11.5 -15.5t-21.5 -11.5q-18 -6 -37 -6q-4 0 -11.5 1t-11.5 1q-18 0 -54 -3t-54 -3q-66 0 -84 45q-31 74 -57.5 152t-63.5 201.5t-47 154.5q-20 61 -68 200.5t-71 213.5q-35 113 -43 135q-2 9 -9.5 25.5t-9.5 21.5 q-11 28 -30 81t-23 64l-8 24t-11 36t-4 24z" />
<glyph unicode="W" horiz-adv-x="1589" d="M61 1350q0 24 16 43t40 20q29 1 88.5 13t89.5 12q74 0 88 -37q13 -31 23 -90.5t14 -73.5l33 -135q2 -7 9.5 -57.5t12.5 -59.5q14 -30 17 -88q0 -28 16 -82q4 10 11 46t7 48v13q0 54 31 155q4 15 8 45q4 21 19.5 82t21.5 94q10 47 29 84q9 18 31 27.5t46.5 11t50.5 2.5 t44 0h14q26 0 76 -8q21 -3 27 -22q29 -71 45 -150q6 -29 20.5 -81.5t18.5 -71.5q49 -204 79 -285q13 21 13 53q8 86 35 199q2 7 18 102q35 149 45 207q4 23 13 36.5t26.5 19t31 7t38.5 1.5q17 0 49 -2.5t47 -2.5q4 0 12 1t12 1q37 0 69 -19.5t32 -53.5q0 -13 -17 -101 q-2 -10 -9.5 -31.5t-8.5 -47.5q-5 -91 -8 -109q-4 -40 -20.5 -108.5t-30.5 -108.5q-17 -51 -29 -146q-7 -52 -23 -86q-12 -22 -20.5 -82t-9.5 -65q-4 -18 -14.5 -51.5t-14.5 -48.5q-4 -20 -10 -60t-10 -59l-52 -209q-14 -59 -90 -59q-19 0 -55 5t-55 5q-73 0 -111 55 q-6 9 -35 107q-1 4 -10.5 30.5t-13.5 42.5q-1 5 -5.5 36.5t-11.5 45.5q-13 26 -30 99q-18 103 -37 147q-16 -8 -19 -27q-28 -128 -39 -166q-7 -23 -14.5 -66t-11.5 -60q-6 -18 -11 -51.5t-8 -47.5q-36 -149 -76 -149q-7 0 -28 6t-35 6q-21 0 -64 -5t-65 -5q-60 0 -78 30 q-8 12 -8 21q-2 27 -18.5 89t-16.5 89q0 10 -4.5 29.5t-11.5 46t-8 31.5q-30 106 -39 174q-13 98 -35 178q-4 17 -8.5 60t-12.5 65q-13 43 -18 84q-4 22 -8 35q-16 50 -31 129q-5 35 -36.5 146t-31.5 153z" />
<glyph unicode="X" horiz-adv-x="1419" d="M61 1372q0 17 19 25q55 18 207 18q144 0 162 -16q10 -9 26.5 -37.5t22.5 -36.5q43 -52 102 -145q48 -83 68 -103q5 -10 12 -10q2 0 4 2t3.5 4.5t2.5 3.5q11 18 33.5 49.5t30.5 44.5q28 41 72 119.5t63 108.5q9 19 33 22q29 6 88 6h231q47 0 47 -22q0 -8 -2 -10 q-7 -17 -26 -44t-23 -34q-29 -48 -85.5 -146.5t-86.5 -146.5q-1 -2 -45.5 -74t-78.5 -131t-34 -69q0 -12 11 -23q48 -65 114 -166q4 -6 30.5 -41.5t37.5 -54.5q16 -28 52 -73.5t50 -67.5q4 -7 47.5 -70t76 -115t32.5 -67q0 -3 -1 -8t-1 -7q-7 -18 -12.5 -27.5t-13 -14 t-13.5 -5.5t-20.5 -2.5t-26.5 -3.5q-21 -6 -43 -6q-10 0 -31 2t-33 2q-21 0 -64 -3t-65 -3q-20 0 -30 2q-46 9 -78 78q-21 39 -62.5 109t-56.5 98q-5 9 -21 39.5t-28 50t-25 35.5q-3 -3 -20.5 -26.5t-28.5 -35.5q-18 -18 -39 -55q-29 -60 -79 -139.5t-93 -133.5 q-24 -30 -76 -30q-11 0 -33 1t-34 1q-165 5 -211 10q-53 5 -53 39q0 24 22 55q12 16 33 58l45 65q117 177 258 426q51 82 51 96q0 7 -10 27q-71 99 -193 281q-20 31 -68.5 108.5t-76.5 118.5q-35 50 -43 59q-1 2 -6.5 8.5t-9.5 12.5t-5 10q-2 2 -2 8z" />
<glyph unicode="Y" horiz-adv-x="1366" d="M61 1389q0 19 20 33t40 14h143q2 0 31.5 0.5t43 0t37.5 -3t39.5 -9t24.5 -17.5q37 -48 68 -115l117 -231q44 -90 65 -123q17 22 33 52.5t33 70t26 57.5q103 205 140 285q9 16 26 24q28 17 70 17q30 0 90 -5t90 -5q61 0 86 -7q13 -4 16 -9t5 -19v-4q0 -15 -11 -37 q-13 -24 -41 -69t-41 -68l-51 -91q-63 -111 -100 -190q-11 -27 -24.5 -53.5t-34.5 -64.5t-27 -50q-5 -9 -26 -47t-29 -61q-5 -15 -28 -48t-24 -65v-23q0 -22 3 -67t3 -68q0 -19 1.5 -54t1.5 -54q0 -13 -2.5 -41t-2.5 -41q0 -6 2.5 -19.5t2.5 -19.5q0 -20 -5 -56.5t-6 -52.5 q-2 -61 -121 -61q-17 0 -35 2.5t-41.5 7t-33.5 6.5q-23 3 -32.5 4t-24.5 5t-20 9.5t-11.5 15t-8 23.5t-1.5 35q0 61 -3.5 175t-3.5 137v90q0 1 -2 8.5t-4 11.5q-18 25 -40 75t-29 63l-97 176q-4 9 -19.5 33.5t-21.5 41.5q-8 22 -31.5 59.5t-31.5 55.5q-24 51 -78 145 t-59 103q-11 17 -33.5 61t-22.5 52z" />
<glyph unicode="Z" horiz-adv-x="1146" d="M123 43q0 49 8 135q2 4 2 12q0 16 -4 48t-4 49q0 57 88 202q1 2 10 16t13 21q14 44 61 113q13 17 16 25l37 86q5 10 18 29t19 34q18 53 41 100q4 7 14 21.5t11 15.5q65 125 65 150q0 16 -26 16q-20 0 -56.5 -0.5t-66.5 -0.5t-56 1q-9 0 -27.5 2t-27.5 2q-13 0 -37 -3 t-35 -3q-15 0 -24 5t-12 16t-4 19t-1 24q0 12 2.5 32.5t2.5 30.5q0 21 -4.5 64t-4.5 65q0 37 24.5 48.5t65.5 11.5q7 0 20 -1.5t19 -1.5q14 0 40 2.5t40 2.5h107q16 0 46 2t44 2q9 0 27.5 -1t27.5 -1q18 0 53 2t52 2q32 0 95 -1t93 -1q64 0 78.5 -15.5t23.5 -76.5 q1 -7 2 -11q1 -6 4 -27.5t3 -31.5q0 -12 -1 -37t-1 -37q0 -30 -13 -41q-31 -57 -37 -67q-20 -31 -38.5 -65t-42.5 -82t-35 -68q-12 -21 -41 -68t-43 -74q-34 -70 -68 -98q-7 -7 -22 -41t-21 -43q-10 -16 -35 -61t-41 -68q-21 -29 -30 -72q4 0 30 -3t41 -3q14 0 39 1t39 1 q12 0 34 -2t34 -2q10 0 29.5 2t29.5 2q80 6 166 6q43 0 43 -65q0 -27 1 -80t1 -80q0 -29 -10.5 -69.5t-30.5 -43.5q-22 -3 -143 -8q-10 0 -30 -2t-30 -2q-22 0 -65 2t-64 2q-25 0 -72.5 -4t-70.5 -4q-18 0 -53 1t-52 1q-9 0 -28.5 -2t-28.5 -2q-8 0 -23.5 4t-23.5 4l-70 2 q-10 0 -30.5 -3t-30.5 -3q-19 0 -32 11.5t-13 29.5z" />
<glyph unicode="[" horiz-adv-x="929" d="M143 -47q0 15 6.5 44t6.5 44q0 17 1 53.5t1 55.5q0 76 2 92q0 5 1 15t1 15q0 6 -2 18t-2 17q0 16 3 49t3 50q0 13 -2 38t-2 37q0 7 1 22.5t1 22.5q0 9 -1 28t-1 28q0 15 2 42t2 40q0 5 -2 15t-2 15q0 16 2 50t2 51q0 3 -6 168v172q-6 189 -6 194q0 21 4.5 37.5t9.5 27 t18.5 18t21 11t27 5.5t27.5 2.5t32.5 0t31.5 -0.5h100q25 0 43 -11q36 8 59 8q14 0 43 -3t45 -3q17 0 52.5 3t54.5 3q45 0 78 -8q10 -2 16 -9.5t8 -20.5t2.5 -22.5t0 -26t-0.5 -19.5q0 -69 -2 -104q0 -10 -0.5 -15t-5 -10t-12.5 -6h-37q-119 3 -225 -8h-21q-5 0 -14 0.5 t-17 0.5t-14 -1q-2 -12 -2 -37q0 -84 2 -125q0 -4 2 -14t2 -15q0 -82 -4 -250q-1 -17 -2.5 -47.5t-2.5 -55.5t-1 -48q0 -22 1 -63.5t1 -61.5q0 -13 -1 -37t-1 -35q0 -30 2 -89t2 -87q0 -50 -4.5 -163.5t-3.5 -174.5l2 -12q5 1 25 4.5t32 3.5q14 0 43 -3t45 -3q17 0 52.5 3 t54.5 3q28 0 78 -8q10 -2 16 -10t8 -21.5t2.5 -23.5t0 -25.5t-0.5 -18.5q0 -71 -2 -106q0 -27 -18 -29h-37q-52 0 -157 -5t-158 -5h-11q-16 -4 -24 -4h-68q-28 0 -78 7.5t-67 8.5q-23 1 -31 8.5t-14 30.5q-5 25 -5.5 73.5t-4.5 70.5q0 2 -1.5 5t-1.5 5q0 22 -2 64.5t-2 64.5 z" />
<glyph unicode="\" horiz-adv-x="1050" d="M82 1376q0 22 6.5 30.5t28.5 14.5q7 2 36.5 11.5t45.5 14t40 9t42 4.5q64 0 102 -49q9 -12 17 -25t15.5 -29t12 -26.5t12.5 -30.5t11 -28q1 -2 18 -37q13 -31 27 -70q25 -65 84 -190q19 -39 37.5 -84t41 -104t33.5 -87l123 -290q45 -102 53 -123q10 -25 35.5 -70 t34.5 -67q31 -70 31 -95q0 -57 -221 -57q-33 0 -50.5 17t-33.5 53q-43 86 -107 225q-10 25 -33 69q-20 37 -51.5 106t-46.5 99q-25 48 -115 252l-51 111q-8 19 -30.5 74.5t-36.5 85.5q-12 28 -43 106.5t-52 120.5q-16 29 -16 59z" />
<glyph unicode="]" horiz-adv-x="929" d="M103.5 -192q0.5 9 3 23t8.5 22t16 10q50 8 78 8q19 0 54 -3t52 -3q16 0 45 3t43 3q12 0 32.5 -3.5t25.5 -4.5l2 12q1 61 -3.5 174.5t-4.5 163.5q0 28 2 87t2 89q0 11 -1 35t-1 37q0 20 1 61.5t1 63.5q0 23 -1 48t-2.5 55.5t-2.5 47.5q-4 168 -4 250q0 5 2 15t2 14 q2 41 2 125q0 25 -2 37q-6 1 -14 1t-17 -0.5t-14 -0.5h-21q-106 11 -225 8h-37q-19 2 -19 31q-2 35 -2 104q0 2 -0.5 19.5t0 26t3 22.5t8.5 21t16 9q33 8 78 8q19 0 54 -3t52 -3q16 0 45 3t43 3q24 0 60 -8q18 11 43 11h100q7 0 31.5 0.5t32.5 0t27.5 -2.5t27 -5.5t21 -11 t18.5 -18t9.5 -27t4.5 -37.5q0 -5 -6 -194v-172q-6 -165 -6 -168q0 -17 2 -51t2 -50q0 -5 -2 -15t-2 -15q0 -13 2 -40t2 -42q0 -9 -1 -28t-1 -28q0 -7 1 -22.5t1 -22.5q0 -12 -2 -37t-2 -38q0 -17 3 -50t3 -49q0 -5 -2 -17t-2 -18q0 -5 1 -15t1 -15q2 -15 2 -92 q0 -19 1 -55.5t1 -53.5q0 -15 6 -44t6 -44q0 -22 -2 -64.5t-2 -64.5q0 -2 -1 -5t-1 -5q-4 -22 -4.5 -70.5t-5.5 -73.5q-6 -23 -14 -30.5t-31 -8.5q-17 -1 -67 -8.5t-78 -7.5h-68q-9 0 -25 4h-10q-53 0 -158 5t-157 5h-37q-19 2 -19 29q-2 35 -2 106q0 1 -0.5 18t0 26z" />
<glyph unicode="^" horiz-adv-x="1257" d="M102 723q0 39 52 123q33 53 93.5 154.5t88.5 146.5q46 68 84 156q15 39 53 106q14 23 88 23q25 0 77 2t79 2q20 0 30 -3.5t21 -17.5q29 -35 64.5 -102.5t41.5 -77.5q10 -21 32.5 -60t29.5 -51l57 -90l19 -35l39 -65q16 -25 41 -73.5t32 -61.5q5 -7 18 -33t13 -31 q0 -6 -2 -10.5t-6.5 -7t-9 -4t-11.5 -2t-11 -0.5h-11.5h-9.5q-40 0 -121.5 -2t-122.5 -2q-31 0 -39 24q-14 34 -72 113q-23 31 -55.5 98t-56.5 98q-14 -6 -29 -28q-7 -13 -123 -199l-72 -113q-22 -32 -61 -32q-7 0 -22.5 1t-22.5 1q-17 0 -49 -2t-49 -2q-21 0 -34 1.5 t-29.5 6.5t-25 17t-8.5 32z" />
<glyph unicode="_" horiz-adv-x="720" d="M-174 -217q0 11 1 35t1 35q0 73 37 77q74 9 106 9q13 0 40 -5.5t42 -5.5q21 0 63 3t62 3q6 0 18.5 -1t18.5 -1q25 0 73 1t72 1q26 0 76 -1t76 -1q101 0 152 2q9 0 28.5 1.5t28.5 1.5q5 0 15.5 -1.5t15.5 -1.5q10 0 30 2.5t29 2.5q30 0 41 -15q3 -4 20.5 -12t18.5 -23 q4 -82 4 -122v-21q-5 -26 -39 -29q-56 -6 -117 -6q-41 0 -124.5 4t-125.5 4q-43 0 -130 -3t-130 -3h-209q-24 0 -70.5 -3t-68.5 -3q-19 0 -31 5t-16.5 17.5t-6 23t-1.5 30.5z" />
<glyph unicode="`" horiz-adv-x="468" d="M0 1411q0 6 9 10t25.5 6t34 3.5t39.5 2t37.5 0.5t32.5 -0.5t19 -0.5q69 0 90 -33q2 -3 33 -52t63 -98.5t59 -97.5t27 -57q0 -25 -127 -25q-9 0 -26.5 2t-26.5 2q-29 0 -45 21q-32 36 -138 172t-106 145z" />
<glyph unicode="a" d="M61 49q0 18 23.5 97t57 184t36.5 114q8 26 30 114t40 134q7 20 14 53q3 24 26 95.5t23 91.5q0 4 -2 13t-2 13t12 58q1 6 11 45t14 61q3 22 16 61t17 58q5 20 37 127q8 31 43 37q29 27 110 27v4l88 -9q31 -3 43 -30q10 -22 19.5 -51t15 -48t14.5 -56t13 -50 q12 -45 39 -134t39 -134q22 -79 39 -131l14 -35q20 -50 63 -172q105 -306 150 -461q1 -4 6.5 -23t9.5 -35t4 -24q0 -41 -94 -41h-5h-7q-33 0 -97.5 4t-95.5 4q-34 0 -48.5 14t-20.5 46q-19 111 -29 123l-4 2q-21 4 -92 4q-7 0 -20 2t-19 2q-16 0 -50.5 -4.5t-52.5 -3.5h-43 q-10 0 -14 -2q-3 -4 -14 -60q-1 -5 -6.5 -30t-8 -33.5t-10.5 -27t-16.5 -26.5t-24 -15t-35.5 -7q-10 0 -29.5 2t-29.5 2l-141 4q-7 0 -19 4q-37 10 -37 43zM502 455q106 -4 160 -4h8q-2 7 -12.5 43t-14.5 49.5t-13.5 44.5t-16 49t-16.5 41.5t-19 42.5q-48 -156 -76 -266z " />
<glyph unicode="b" horiz-adv-x="1253" d="M143 1118q0 39 2 117t2 117q0 10 17 61q3 8 16 13t32 6.5t34.5 1.5t35 -1t23.5 -1q31 0 47 2q78 6 236 6q25 0 70 -4.5t63 -5.5q76 -5 92 -7q1 0 45 -12t45 -12q79 -38 113 -72l11.5 -11.5l14.5 -14.5t12.5 -13.5t12.5 -16.5t8 -16q39 -137 39 -208q0 -60 -27 -128 t-67 -120q-3 -2 -8 -11q8 -12 14 -16q52 -46 88.5 -125t36.5 -147q0 -20 -3 -46t-6.5 -45t-9.5 -50t-8 -44q-1 -3 -18 -49q-22 -57 -57 -104q-6 -9 -35 -33q-55 -51 -159.5 -83t-194.5 -41t-183 -9q-36 0 -110 4q-34 2 -98.5 2.5t-84.5 1.5q-10 0 -14.5 2t-6 5t-5.5 14 q-13 40 -13 297q0 52 4.5 157.5t4.5 157.5q0 15 -2 45t-2 45q0 8 2 24.5t2 24.5q0 9 -1 27t-1 26q0 13 2 39t2 39q0 4 -2 13.5t-2 13.5q-9 137 -9 184zM467 1079q0 -45 4 -135q0 -20 33 -20q26 0 76 4q9 0 43 1t47 2t40.5 6.5t42 14t31.5 25t27 39.5q8 24 8 37q0 32 -33 58 t-67 26q-13 0 -40 4t-42 4q-5 0 -164 -6q-1 -7 -2.5 -19t-2.5 -22t-1 -19zM469 494q0 -16 1 -48t1 -49v-31q-1 -49 9 -57t71 -8h12q75 0 152 6q59 4 95 52t36 108q0 53 -31 113q-31 63 -151 63q-161 0 -187 -6q-8 -94 -8 -143z" />
<glyph unicode="c" horiz-adv-x="1308" d="M123 680q0 114 14 188q2 11 10.5 36t8.5 40q4 35 18 57q12 17 29 58q27 63 47 98q15 25 51 70.5t53 56.5l82 53q9 6 34 13.5t38 17.5q7 5 22 9.5t19 6.5q89 33 201 52q42 6 45 6q7 0 22.5 -1t22.5 -1q14 0 44 2t44 2q18 0 51 -9.5t47 -9.5q3 0 9 1t9 1q21 0 70.5 -18 t75.5 -31q33 -17 33 -51q0 -13 -1 -41t-1 -43v-98q0 -3 3 -33t3 -45q0 -25 -23 -39q-4 -2 -14 -12t-19 -10q-10 0 -81 51q-34 25 -66 30t-45 11q-44 20 -102 20q-32 0 -78.5 -7.5t-73.5 -18.5q-8 -3 -28 -8t-34 -10.5t-24 -14.5q-31 -29 -48.5 -46t-39 -44.5t-35.5 -55.5 q-5 -10 -8 -32t-8 -31q-23 -40 -23 -111q0 -63 2 -73l15 -56q7 -48 22 -79.5t49 -81.5q6 -9 13 -16.5t16.5 -14.5t16 -11.5t19.5 -11l18 -9t20 -9.5t18 -8q83 -39 168 -39q20 0 47.5 9t30.5 9q33 0 75.5 20t73.5 46q27 24 66 24q4 0 12 -1t12 -1q12 -2 20.5 -15.5t12 -36.5 t5.5 -40t2.5 -43.5t0.5 -28.5l4 -24t3 -27q0 -101 -56 -135q-6 -4 -16 -12.5t-12 -10.5q-76 -69 -258 -69q-64 0 -232 31q-29 6 -116 50t-95 48q-12 5 -125 106q-53 49 -67 76l-45 80q-7 14 -17.5 43t-17.5 43q-6 12 -10 26t-5.5 24t-4 27.5t-3.5 26.5q-16 88 -16 105z" />
<glyph unicode="d" horiz-adv-x="1347" d="M143 1038q0 14 2 43t2 43q0 13 -2 37t-2 35q0 14 9 32.5t10 28.5q0 47 22 111q4 10 10.5 18.5t13 14.5t17 10.5t18 7.5t21.5 5.5t20.5 3.5t22 1.5t21 0.5h21.5h18q8 0 24.5 -2.5t24.5 -2.5q5 0 14.5 1t13.5 1q26 0 74.5 -6.5t67.5 -7.5q25 -13 77.5 -24.5t71.5 -18.5 q71 -26 156 -82q102 -67 151 -108q26 -20 47 -50t44 -74.5t32 -60.5q26 -41 43 -132.5t17 -153.5q0 -4 -6 -58q-9 -52 -22 -98t-23 -72t-37 -92q-8 -19 -22 -37t-39.5 -44.5t-31.5 -33.5q-9 -9 -27 -29t-28 -30q-53 -53 -96 -74l-23 -18q-66 -46 -129 -68q-131 -49 -331 -49 q-12 0 -37 -2t-37 -2q-3 0 -84 6l-27 2q-22 1 -36 12t-20 30.5t-8 34t-3 38.5l2 2q-8 139 -8 313q0 17 5 50.5t5 50.5q0 8 -2 12q-4 9 -4 43q0 27 -2 83t-2 85q0 14 2 43t2 45q0 14 -3 43t-3 43v27q0 12 -3.5 35.5t-3.5 37.5zM485 731q0 -54 4 -164q0 -15 -1 -46t-1 -48 q0 -10 3 -33.5t2 -36.5v-36q0 -33 16 -33q28 0 50.5 3t48 13t36 14.5t44.5 23.5t44 24q6 3 37 34q48 57 75.5 104.5t37.5 104.5q1 8 5.5 26.5t4.5 29.5q0 12 -1 24.5t-2.5 28t-2.5 24.5q-6 103 -80 177l-27 22q-41 45 -88 66.5t-125 42.5q-20 4 -59 4q-12 -72 -12 -78 q-7 -98 -7 -250q0 -6 -1 -20t-1 -21z" />
<glyph unicode="e" horiz-adv-x="1232" d="M143 412q0 7 3.5 20.5t3.5 20.5q0 17 1 48t1 48v49q0 18 2 51t2 51v5q-6 18 -6 40q0 19 2 57t2 56q0 6 -2 18.5t-2 18.5q0 13 2 36t2 36q0 20 -3.5 62.5t-3.5 62.5q0 16 2.5 45t2.5 45q0 4 -2.5 12t-2.5 12t1.5 12.5t1.5 12.5q1 10 2 41t3.5 49.5t9 43t20.5 39t36 19.5 l49 13l6 -11q20 0 60 -1t61 -1q11 0 34.5 2t35.5 2q148 9 195 9q8 0 22.5 -5.5t22.5 -5.5q11 0 33 2.5t34 2.5t34 -2.5t32 -2.5q32 0 94 5.5t94 5.5q25 0 47 -10.5t23 -34.5q4 -70 4 -103q0 -98 -8 -129q-7 -23 -18.5 -31t-35.5 -10q-82 -2 -249 -2q-15 0 -46 2t-47 2 q-18 0 -53 -4t-53 -4q-12 0 -36 2t-36 2q-25 0 -31.5 -5.5t-7.5 -31.5v-65q0 -7 -1 -20.5t-1 -20.5q0 -21 21 -21q8 0 24.5 2t24.5 2q33 2 100 2q53 0 159 1.5t159 1.5q86 0 86 -56q0 -13 -2 -40t-2 -40q0 -73 2 -86q-6 -27 -13 -45.5t-17 -30t-18.5 -17.5t-25.5 -8t-29 -2 t-37 0.5t-43 0.5q-13 0 -37 -1t-36 -1q-17 0 -50 5t-49 5q-13 0 -35.5 -2t-33.5 -2q-12 0 -38 2t-40 2q-2 0 -12.5 0.5t-14 0t-11 -2t-10.5 -4.5t-6 -9t-3 -14v-241q0 -22 8 -76q41 -2 123 -2q14 0 43 -1t45 -1q34 0 101 1t101 1q137 0 174 -10t41 -62q0 -15 1 -46t1 -48 q0 -137 -71 -137q-19 0 -59.5 3t-59.5 3q-1 0 -172 -6q-22 -1 -62 -2.5t-73 -2.5t-62 -1q-23 0 -87 6t-83 10q-4 2 -12 2t-24.5 -3t-24.5 -3q-34 0 -104 4q-49 6 -64 51q-14 44 -14 78q0 11 -1 34t-1 34q0 36 -6.5 106t-6.5 105z" />
<glyph unicode="f" horiz-adv-x="1169" d="M143 457q0 23 4.5 70t4.5 71q0 21 -2.5 65.5t-2.5 67.5q0 7 1.5 23t1.5 24q0 7 -2.5 23t-2.5 24q0 12 1.5 48.5t0.5 56.5q0 25 -2 77.5t-2 79.5q0 13 2 40t2 40q0 17 -1 52.5t-1 54.5q0 58 23 119q5 15 34 22.5t54 7.5q5 0 15.5 -1t15.5 -1q11 0 34.5 2t36.5 2 q12 0 36.5 -2t37.5 -2t37 5.5t35 5.5q5 0 15.5 -2.5t15.5 -2.5q9 0 26.5 4.5t26.5 4.5q14 0 44 -2t46 -2q90 0 250 8q6 0 20 2t21 2q52 0 75 -24t23 -77q0 -24 -4.5 -68t-5.5 -61q-2 -77 -139 -77q-7 0 -22 -2t-22 -2t-22 4t-23 4q-7 0 -21.5 -1t-21.5 -1q-12 0 -34 2t-33 2 q-10 0 -31 -2t-31 -2q-7 0 -22.5 2t-22.5 2q-80 0 -129 -10q-6 -1 -10 -6t-6.5 -13t-3.5 -16t-1.5 -19t-0.5 -18v-17v-12q0 -44 4 -67q0 -13 14 -13q8 -1 21 -2.5t24 -2.5t21 -1h14q15 2 43 -2t39 -4q51 0 152.5 4t152.5 4q15 0 26.5 -3t19.5 -6.5t13 -12.5t8 -13.5t4 -18.5 t1 -19.5v-23v-22.5q0 -38 -4 -116q0 -30 -8.5 -41.5t-36.5 -24.5q-12 -5 -27 -7.5t-25.5 -3t-28 -1t-26.5 -0.5l-160 -4q-117 -6 -120 -6q-9 0 -27 1t-27 1q-37 0 -39 -21q-4 -74 -4 -108q0 -66 3.5 -199.5t3.5 -200.5q0 -32 -3 -59q-3 -15 -14.5 -26.5t-25.5 -14.5 q-38 -8 -218 -8q-44 0 -71 53q-8 14 -8 49q0 12 2 38t2 38q0 18 -3 56t-3 57q0 9 1 26t1 25q-1 15 -5 58.5t-4 66.5z" />
<glyph unicode="g" horiz-adv-x="1374" d="M125 671v14.5v16v15.5q0 74 8 131q1 14 10 41t11 37q31 129 128 250t216 174q124 55 168 59q24 2 76 13.5t83 11.5q21 0 64 2t65 2q11 0 15 -2q25 -6 70.5 -14.5t82.5 -17.5t68 -22q20 -8 20 -20q0 -4 -3 -12.5t-3 -12.5q0 -8 2 -24.5t2 -24.5q0 -40 -24 -198 q-4 -24 -12 -36t-31 -12q-15 0 -21 2q-35 7 -100 23.5t-119 26.5t-102 10q-22 0 -115 -19q-9 -2 -19.5 -7t-16.5 -9.5t-17.5 -13t-16.5 -11.5q-70 -55 -104 -104q-21 -29 -36 -71t-15 -76q0 -26 7.5 -72.5t8.5 -61.5q3 -32 37 -106q26 -50 61 -78l21 -22q14 -19 34 -34 t36.5 -22t43.5 -17.5t42 -17.5q55 -28 141 -28q12 0 15 2.5t5 13.5q4 39 4 119l-2 8q0 11 -1 14.5t-5 6.5t-14 4q-23 4 -72 4v-2q-7 0 -27 1t-25.5 1.5t-19.5 2.5t-18 5.5t-12.5 10t-11 16t-5 23.5t-2.5 32q0 76 19 199q4 31 17 40t46 9q22 0 66 -2t65 -2q39 0 116.5 1 t115.5 1q27 0 51 -16.5t27 -41.5q6 -38 6 -75q0 -13 -2 -39t-2 -39v-336q0 -27 2 -83t2 -83q0 -29 -6 -41q-23 -46 -134.5 -69t-195.5 -23q-99 0 -182 24q-8 2 -24.5 8.5t-24.5 8.5q-41 7 -95 32.5t-96 53.5q-98 62 -158.5 116t-103.5 134q-42 80 -62 190l-4 17 q-3 7 -5.5 14.5t-4.5 16t-3.5 14.5t-2.5 15.5t-1.5 14.5t-0.5 16z" />
<glyph unicode="h" horiz-adv-x="1458" d="M143 829q0 11 1 33.5t1 34.5q0 248 2 371q0 60 9 121q1 16 8 22.5t12.5 7t26.5 0.5l108 -2h125q13 0 21.5 -10t11 -29t3.5 -33t0 -37t-1 -26q0 -24 -2 -73t-2 -74q0 -50 4 -148q2 -12 5 -15t16 -3h137q5 0 16.5 -2t16.5 -2q10 0 20.5 1t23.5 2.5t21 2.5h61q20 0 62.5 1 t64.5 1h12h10t7.5 0.5t7 2.5t4 5t3.5 8t2 12q8 78 8 238q0 22 -1 67.5t-1 69.5q0 12 3 20.5t6 14.5t11.5 10.5t12.5 6.5t16 3t16 1h18.5h16.5q188 0 219 -17q10 -5 14 -20q6 -19 8 -57q4 -36 4 -62v-32v-44q0 -50 -1 -55q0 -15 2 -46t2 -48t-1 -53.5t-1 -55.5q0 -21 1 -64.5 t1 -66.5q0 -3 -1 -10t-1 -10q-6 -61 -6 -187q0 -7 2 -22.5t2 -22.5q0 -33 -4 -98.5t-4 -98.5q0 -16 2 -49t2 -49q0 -7 -1 -20.5t-1 -20.5q0 -13 1 -38t1 -38q0 -26 -9 -100q-6 -40 -51 -43q-15 0 -46 -1t-46 -1t-42 3t-42 3q-30 0 -44.5 1.5t-30 9t-21.5 24t-6 45.5 q0 39 3.5 108.5t4.5 90.5q2 68 2 198q0 127 -6 146q-4 18 -23 18q-46 0 -136.5 -5t-135.5 -5q-13 0 -37 2t-35 2q-5 0 -15.5 -1t-15.5 -1q-11 0 -33 4t-34 4q-8 0 -13.5 -2t-9 -7t-5.5 -9.5t-2.5 -12.5t-0.5 -12.5v-13.5v-12q0 -16 1 -46.5t1 -46.5t3 -40t3 -37 q0 -10 -2 -30t-2 -30q0 -9 1 -28t1 -29q0 -197 -12 -262q-2 -13 -10 -21t-22.5 -11.5t-24 -4t-25.5 -0.5q-18 0 -51 4t-49 4q-79 0 -105 6q-29 5 -32 39q0 16 -3.5 94t-3.5 119q0 16 3.5 47t3.5 47v27q-2 63 -7 375q0 12 -1 36t-1 37z" />
<glyph unicode="i" horiz-adv-x="643" d="M143 305q0 13 2 41t2 43q9 263 9 350q0 19 -2 57t-2 58q0 12 1 34t1 32v26q0 7 2 20.5t2 20.5q0 9 -2 26t-2 25v90q0 186 8 252q3 24 15.5 31.5t39.5 7.5h25q62 4 92 4q67 0 100 -2q28 -3 37.5 -11.5t13.5 -35.5q2 -8 2 -26q0 -30 5 -177q1 -15 2.5 -42.5t2.5 -49.5 t1 -41q0 -21 -4 -71q0 -10 0.5 -29.5t0.5 -35.5t-1 -30q0 -18 -3.5 -52t-3.5 -52q0 -13 4.5 -37.5t4.5 -36.5t1 -34t1 -33t-3 -34t-3 -34q0 -17 4 -52t4 -52q0 -16 -2 -45t-2 -43v-299q0 -74 -56 -74h-57q-25 0 -71.5 3t-69.5 3q-35 0 -63.5 27.5t-28.5 62.5q0 12 -2.5 33 t-2.5 31q0 12 4.5 32.5t4.5 30.5q0 15 -5.5 44t-5.5 44z" />
<glyph unicode="j" horiz-adv-x="1062" d="M82 266q0 39 41 68q153 102 174 102q19 0 31 -8.5t20 -22t16.5 -28t27.5 -29.5t48 -24q18 -7 31 -7q12 0 41 4.5t37 8.5q23 9 31 47q26 127 26 174q0 27 -5 84t-5 86q0 6 1 19t1 20q0 8 -4 28q0 14 0.5 41t0.5 49t-1 42q0 14 -2 44t-2 46q0 26 -1 77t-1 76q0 163 8 213 q2 21 15 34t34 13t61 4.5t60 4.5q12 0 37 -5.5t39 -5.5q7 0 22.5 1t22.5 1q33 0 35 -28q10 -72 10 -88h-2q6 -87 6 -88q0 -18 -2 -55.5t-2 -55.5q0 -32 2 -95t2 -95q0 -8 1 -24t1 -24q0 -7 -2 -21.5t-2 -21.5q0 -5 2 -15t2 -15q0 -15 1 -50t1 -51q0 -12 -2 -32.5t-2 -30.5 q0 -6 2 -17.5t2 -17.5q0 -22 -4 -67t-4 -68q0 -19 -5 -50t-13.5 -69.5t-10.5 -52.5q-8 -43 -29 -86q-4 -7 -15.5 -39t-33.5 -51q-6 -6 -16 -19.5t-16 -19.5q-36 -36 -111 -61t-133 -25q-180 0 -268 53q-43 25 -62 37t-49 36t-48.5 50.5t-31.5 60.5q-8 24 -8 39z" />
<glyph unicode="k" horiz-adv-x="1271" d="M143 1327q0 7 2 21t2 20q1 44 15 53t57 9q13 0 40 1t40 1q11 0 33.5 1t41 1t32.5 -2q3 0 8 1t8 1q46 0 58 -17.5t12 -66.5q0 -47 -2.5 -143t-2.5 -144q0 -22 3.5 -67.5t3.5 -69.5q46 62 91 133t104.5 169t84.5 138q3 5 10 17.5t11 19t12.5 15t17.5 12.5q13 8 35 8 q15 0 39 -4q47 -4 143 -4h16.5h23t23 -1t24.5 -3.5t19.5 -6.5t15.5 -10.5t5 -15.5q0 -30 -43 -101q-23 -36 -78.5 -120.5t-84.5 -131.5q-9 -14 -48 -79.5t-63 -100.5q2 -7 41 -121q21 -66 66 -182.5t61 -161.5q13 -13 18 -28q24 -51 76.5 -183t52.5 -151q0 -31 -45 -31 q-11 0 -34.5 2t-36.5 2q-30 0 -90 -2t-89 -2q-18 0 -30 6q-20 8 -43 60q-19 47 -57 133.5t-48 109.5q-9 24 -26.5 71t-20.5 56l-33 78q-9 -13 -37.5 -53t-46.5 -68t-32 -55q8 -106 8 -158q0 -11 -4 -39q-2 -11 -2 -24.5t1 -30t1 -25.5v-26q0 -8 -3 -14t-9 -9.5t-11.5 -6 t-15.5 -3t-15 -0.5h-15.5h-12.5q-6 0 -18.5 -1t-18.5 -1q-9 0 -28.5 1t-28.5 1q-19 0 -54.5 -1t-52.5 -1q-35 0 -46 15.5t-11 50.5q0 9 -1 26.5t-1 26.5q-8 208 -8 313q0 56 1 159.5t1 188t-2 160.5q-5 260 -5 313q-4 46 -4 72z" />
<glyph unicode="l" horiz-adv-x="962" d="M143 436q0 33 7.5 97.5t7.5 97.5q0 15 -2 46t-2 46q0 20 -2 58.5t-2 56.5q0 14 1 43t1 43q0 26 -1 76t-1 75q0 59 2 90q0 2 4 11.5t4 15.5q0 25 -1 78t-1 80v47q1 15 13.5 26t27.5 11q57 2 176 2q29 0 66 -6t42 -21q11 -42 11 -137q0 -8 -3.5 -23.5t-3.5 -23.5 q0 -3 1 -10.5t1 -10.5q0 -10 -2 -30.5t-2 -32.5q0 -31 3.5 -94t3.5 -93q0 -14 -3.5 -45t-3.5 -45q2 -14 2 -45q0 -18 -1 -55t-1 -57q0 -15 3.5 -43t3.5 -43t-4.5 -46t-4.5 -47q0 -8 5.5 -23.5t5.5 -23.5q0 -22 -5.5 -68.5t-5.5 -70.5q0 -25 25 -25q24 0 70 1t69 1q5 0 16 -1 t17 -1q18 0 55.5 1t57.5 1q67 0 67 -81q0 -13 -3 -41t-3 -43q0 -19 3 -54.5t3 -52.5q0 -53 -98 -53q-31 0 -100.5 4t-102.5 4q-18 0 -56.5 -2t-58.5 -2q-34 0 -99.5 1t-98.5 1q-43 0 -74 10q-9 4 -17 27.5t-8 36.5v61h3q-5 67 -5 82q0 16 4.5 47.5t4.5 46.5q0 20 -5.5 61.5 t-5.5 63.5z" />
<glyph unicode="m" horiz-adv-x="1630" d="M123 61q0 19 2 58.5t2 60.5q2 55 18 156q5 30 5 37q0 9 -1 33.5t-0.5 41t5.5 33.5q6 18 6 39q0 8 -3 24t-3 23q0 28 14 94.5t16 92.5q6 58 6 120v82q1 16 7 51.5t6 53.5q0 20 3.5 55t4.5 47q1 21 4 85.5t6 99.5q7 60 53 82q30 12 150 12q28 0 49 -21q30 -29 67.5 -99 t79 -162t54.5 -118q8 -17 25.5 -46.5t23.5 -41.5q10 -18 34.5 -78.5t45.5 -87.5q21 38 53 117q8 18 25 42.5t22 39.5q8 17 20.5 49.5t18.5 46.5q5 15 23 40t24 40q67 174 129 242q34 41 123 41q28 0 90 -4q22 0 25 -21q9 -40 14 -82t10 -110t6 -84q25 -223 27 -273 q5 -73 19 -172q2 -18 7 -52.5t8 -63t3 -52.5q0 -54 4 -83q13 -68 16 -125q0 -27 11 -64q12 -68 12 -135q1 -13 7.5 -45.5t6.5 -50.5q0 -16 -27.5 -24.5t-49.5 -8.5q-14 0 -40 -1t-38 -1q-67 0 -119 8q-47 8 -53 61q-1 10 -2 34.5t-4 41t-9 33.5q-4 8 -4 25q0 77 -14 184 q-2 6 -2 18q0 5 2 15.5t2 15.5q0 11 -4 31q-27 135 -35 207q0 1 -1 4t-1 4l-6 -2q-72 -105 -105 -201q-5 -18 -25 -43.5t-26 -38.5q-11 -26 -31 -76t-37.5 -89t-37.5 -70q-17 -25 -43 -25q-14 0 -31 21q-35 41 -55 102q-7 24 -33.5 67.5t-34.5 67.5q-9 27 -35 60 q-14 17 -27.5 55t-25.5 55q-8 10 -15 23t-15 32t-11 25q-8 -3 -12 -23q-12 -123 -21 -249q-1 -12 -4.5 -33t-5.5 -38.5t-2 -33.5q0 -55 -5 -134t-15 -99q-8 -19 -35 -23q-106 -8 -162 -8q-4 0 -22.5 -0.5t-26 0t-23 2t-23 5.5t-17 11t-13.5 18.5t-4 26.5z" />
<glyph unicode="n" horiz-adv-x="1394" d="M143 1067v111q0 17 9 73q4 23 4 66.5v52.5q0 30 24 39q59 25 103 25q33 0 79 -17q36 -16 60 -59q7 -12 47 -82.5t63 -106.5q33 -55 198 -278.5t194 -243.5q4 36 4 58v415q0 29 -4 41q-6 33 -6 103q0 116 4 141q4 29 30 29q38 0 114 -2t114 -2q30 0 49 -19q18 -11 18 -41 q0 -18 -1 -51t-1 -49t2 -45t2 -45q0 -14 1 -40t1 -38q0 -5 -2 -14.5t-2 -14.5q-6 -30 -6 -63q0 -10 1 -32t1 -34q0 -7 -2 -21.5t-2 -21.5q0 -12 2 -38t2 -40q0 -9 -1 -27t-1 -26q0 -4 1 -13.5t1 -13.5q0 -7 -1 -22t-1 -23q0 -7 4 -22.5t4 -22.5q0 -6 -4 -34t-4 -44 q0 -27 2 -79t2 -78q0 -11 -3 -34t-3 -36q0 -9 1 -27.5t1 -27.5q0 -4 -1 -14t-1 -15q0 -16 3 -49t3 -49v-62q0 -7 2 -23t2 -24q0 -24 -11.5 -40.5t-33.5 -16.5q-35 -2 -104 -2q-41 0 -127 12q-44 6 -70 47q-50 61 -96 136q-15 23 -44.5 61.5t-35.5 46.5q-17 21 -52 69.5 t-57 75.5q-14 16 -49.5 72t-42.5 66q-12 18 -53 71l-6 -2q0 -5 -1 -17t-1 -18q0 -11 2 -33.5t2 -35.5q0 -12 -1 -34t-1 -32q0 -16 2 -45t2 -43q0 -55 4 -163t4 -162v-29q-4 -41 -100 -41h-5h-7q-10 0 -28.5 3t-27.5 3q-11 0 -34.5 -3t-34.5 -3q-35 0 -60.5 15.5t-25.5 47.5 q0 5 1 15.5t1 15.5q0 16 -1 46t-1 46t1 50t1 51q0 25 -2 76t-2 77q0 12 1 34t1 34q0 4 -2 13.5t-2 13.5t2 13.5t2 14.5q0 7 -2 22.5t-2 22.5q0 4 1 12.5t1 12.5q0 17 -3.5 48t-3.5 48q0 6 1.5 19t1.5 20q0 12 -2.5 34t-2.5 34q0 10 2.5 29t2.5 28q0 10 -2.5 30.5t-2.5 32.5 q0 5 1 15.5t1 15.5q0 14 -2 40.5t-2 39.5z" />
<glyph unicode="o" horiz-adv-x="1683" d="M125 723q0 124 22 199q4 15 17 40.5t14 28.5q49 104 84 158q11 20 58.5 62t78.5 63q8 6 23 16q56 39 84.5 57t74 40.5t92 31t103.5 8.5q19 0 58 3.5t59 3.5q80 0 203 -35q79 -23 136.5 -53.5t104 -79t77 -92.5t79.5 -125q11 -19 33 -97q35 -101 35 -112q0 -101 -9 -158 v-8q0 -7 1 -21.5t1 -21.5q0 -78 -20 -142l-21 -61q-22 -84 -149 -227q-34 -42 -61 -64q-3 -2 -30 -18.5t-36 -26.5q-28 -30 -86 -54.5t-100 -27.5q-10 -1 -29.5 -6t-28.5 -6q-54 -4 -82 -4q-17 0 -45.5 6t-34.5 6q-18 0 -38.5 2t-45 5.5t-38.5 4.5q-29 2 -80 17t-66 18 q-14 3 -31 10.5t-29 14.5t-31.5 19t-27.5 16t-104 59q-16 10 -29 29q-7 9 -48.5 50.5t-53.5 72.5q-4 16 -18.5 43.5t-18.5 38.5q-29 80 -33 96q-14 60 -14 221zM453 733q0 -39 0.5 -56.5t6 -46.5t17.5 -52q20 -42 80 -109q30 -38 71 -60.5t105 -46.5q30 -10 39 -10q5 0 13 2 t12 2q8 0 31 -6t38 -6q32 0 74 10q8 2 27 10.5t30 8.5h7q30 12 100 61.5t70 67.5t14.5 45t17.5 41q17 81 17 174q0 38 -15 90.5t-37 77.5q-12 14 -29.5 43.5t-35 50t-41.5 29.5q-18 7 -62 24.5t-69 26.5q-40 14 -68 14t-79 -16.5t-60 -18.5q-13 -3 -26.5 -7.5t-29 -12.5 t-25 -13t-28.5 -16t-24 -14q-20 -11 -31 -31q-5 -8 -21 -24t-22 -27q-67 -116 -67 -205z" />
<glyph unicode="p" horiz-adv-x="1288" d="M145 342q0 13 2.5 37t2.5 35q0 23 -1.5 66.5t-1.5 64.5q0 107 -2 160q-1 17 2 49.5t3 46.5q0 39 1 118t1 119q0 12 -2.5 35t-2.5 35q0 16 6.5 46t6.5 46q0 17 -6 35q-7 32 -7 88q0 49 19.5 68.5t69.5 19.5q8 0 25.5 -1t25.5 -1q13 0 42.5 7.5t43.5 8.5q87 5 106 5 q34 0 99 -6t92 -7q107 -4 212 -53t181 -127q11 -9 22 -31q23 -35 33 -51t24 -47t19 -57q9 -46 15 -86q10 -88 10 -109q0 -25 -11 -71t-22 -72q-5 -9 -20 -68q-6 -23 -28.5 -45.5t-29.5 -36.5q-28 -45 -67 -71q-1 -1 -22 -16t-27 -19.5t-24.5 -17t-29 -18t-25 -12.5 t-26.5 -10q-18 -5 -49.5 -16.5t-42.5 -15.5q-89 -29 -180 -29q-10 0 -31 1t-31 1q-15 0 -20 -4t-6 -19q-7 -31 -7 -61q0 -12 2.5 -38t2.5 -40q0 -79 -5 -135q-3 -25 -13 -34.5t-36 -10.5q-12 0 -38 -2t-40 -2q-45 0 -135 8q-24 2 -39 12.5t-21.5 29t-8.5 35t-2 40.5 q0 10 2 29t2 28q0 28 -6.5 83t-6.5 83zM483 809q0 -24 4 -82v-53q1 -24 11.5 -29.5t38.5 -5.5q53 0 143 20q61 12 106 52q11 8 18 20.5t14 30.5t11 26q15 31 15 123q0 85 -70 148q-5 5 -24 10q-54 24 -66 27q-62 10 -115 10h-10.5h-13.5t-13 -0.5t-13 -2.5t-10 -5t-7 -8 q-19 -37 -19 -281z" />
<glyph unicode="q" horiz-adv-x="1808" d="M123 754q0 35 11 100t22 100l6 11q14 12 24 43q18 47 56 101.5t75 90.5q9 8 23.5 26.5t17.5 22.5q39 39 78 70q9 7 30 16.5t26 12.5q32 19 47 24q135 64 266 64q69 0 109 -1.5t102.5 -11t105.5 -28.5q18 -8 50.5 -26t41.5 -23l37 -15q53 -18 142 -102q17 -17 35 -41 t28 -39.5t30.5 -48.5t26.5 -43q3 -5 12.5 -19t15 -25t9.5 -22q11 -26 30 -79t19 -66q0 -33 9.5 -98.5t9.5 -98.5q0 -16 -2.5 -36t-6 -33.5t-9 -36.5t-7.5 -33q-6 -29 -22 -55q-15 -24 -55.5 -102t-40.5 -87q0 -13 63.5 -83.5t101.5 -108.5q7 -9 23 -17q23 -14 23 -47 q0 -14 -10 -24.5t-25 -10.5q-43 -6 -88 -6q-7 0 -20 1t-19 1q-18 0 -53 -4t-52 -4q-7 0 -21.5 3t-21.5 3h-43q-29 3 -55 28t-44.5 48t-27.5 23q-5 0 -110 -35q-104 -35 -226 -35q-81 0 -151 20q-3 1 -39 7q-71 8 -148 49l-24 12q-29 11 -73.5 43t-59.5 41q-21 13 -31.5 27.5 t-15.5 19.5q-40 38 -71.5 86t-47.5 83.5t-42 100.5q-6 15 -9 23l-4 12q-31 147 -31 232zM465 698q0 -16 7.5 -42.5t8.5 -37.5q6 -33 26 -74t42 -63q41 -36 51 -47q21 -23 75.5 -49t86.5 -31q86 -12 131 -12q17 0 50.5 11.5t33.5 23.5q0 8 -92 113t-92 124q0 13 11 22t25 9 q26 1 81.5 1t82.5 1q123 6 125 6q22 0 40 -15t38 -44t29 -39q22 42 22 109q0 8 -1 23.5t-1 23.5q0 22 -3 41.5t-6 30.5t-11.5 34.5t-12.5 36.5q-22 64 -51 98q-24 30 -26 33q-30 46 -74 72q-36 19 -67 29t-50 13t-58.5 6t-66.5 7q-4 2 -14 2q-13 0 -25 -6q-17 -9 -51 -19 t-43 -14q-6 -3 -31 -18q-116 -65 -147 -150q-3 -9 -12 -26t-14 -31t-5 -27q0 -3 2 -10.5t2 -11.5q0 -16 -8 -50.5t-8 -52.5z" />
<glyph unicode="r" horiz-adv-x="1406" d="M143 1354q0 76 52 76q6 0 18 -1.5t18 -1.5q9 0 29 2.5t29 2.5q8 0 24.5 -2.5t24.5 -2.5q42 -1 159 -1t181 -5q40 -2 203 -32q28 -6 59 -23.5t45 -22.5q44 -18 73.5 -45.5t57.5 -72.5q52 -78 70 -142q3 -10 6 -29.5t4 -25.5q2 -9 8.5 -36t9.5 -46t3 -37q0 -30 -5.5 -61 t-16.5 -74t-15 -61q-4 -17 -12.5 -36t-15 -30t-20.5 -34.5t-18 -30.5q-20 -30 -43 -39q-10 -5 -40.5 -33.5t-35.5 -32.5q-14 -14 -14 -20t17.5 -26t41.5 -43.5t27 -27.5q23 -26 43 -59q20 -34 59 -80t69 -89t44 -89q2 -4 2 -14q0 -25 -45 -25h-4q-15 0 -42 1t-42 1 q-6 0 -19.5 -1t-19.5 -1q-111 0 -166 8q-40 3 -65 39q-14 16 -82 115l-123 178q-20 27 -47 27q-78 0 -101 -4q-13 -1 -17.5 -6t-4.5 -19q0 -45 4 -131q0 -21 1 -64t1 -65v-8q0 -16 -0.5 -24.5t-3 -21.5t-7.5 -19.5t-15 -11.5t-25 -5q-17 0 -49 -1t-47 -1q-6 0 -19 2t-20 2 q-11 0 -34 -2t-36 -2q-47 0 -72 37q-10 16 -15 128t-5 183q0 16 4 48t4 48q0 5 -2 15.5t-2 15.5q-2 45 -2 135q0 126 -11.5 377t-11.5 377zM478 889q0 -35 11 -215q0 -17 6 -24.5t23 -8.5q7 0 22 -1t23 -1q69 0 164 43q65 28 88 88q17 50 25 61q4 6 4 54q0 51 -11.5 83.5 t-41.5 80.5q-56 90 -228 90q-19 0 -80 -9l-5 -6v-30q0 -26 1.5 -76t1.5 -74q0 -9 -1.5 -27.5t-1.5 -27.5z" />
<glyph unicode="s" horiz-adv-x="1269" d="M123 446q0 27 18 56q14 21 56 21q8 0 18 -1h39l2 -2q16 1 47 4.5t56.5 5.5t48.5 2q39 0 67 -22q11 -9 39 -117q8 -27 26 -42t19 -17q14 -20 49 -29q68 -14 86 -14q60 0 102 32.5t42 90.5q0 66 -64 104q-123 74 -199 74q-8 0 -20 4q-2 0 -30 9t-33 10.5t-31 10t-34 12 t-30.5 12.5t-32.5 15t-29 16t-30 18.5t-24.5 20t-24.5 23.5q-39 44 -52 61.5t-25 48.5t-19 79q-4 32 -4 47q0 32 16.5 113.5t30.5 101.5l33 43q13 15 28 45q7 14 20.5 27.5t23 20t31 20t26.5 16.5q94 66 249 66q18 0 51.5 -3t41.5 -4q10 0 30 -6t29 -6q22 0 38 -6.5 t33.5 -17t32.5 -15.5q61 -23 118 -75t77 -109q2 -6 8 -16.5t8 -16.5q41 -126 41 -164q0 -30 -26.5 -47.5t-59.5 -17.5q-22 0 -205 20q-20 3 -31 18t-14.5 33t-11.5 40t-22 34q-78 70 -138 70q-33 0 -73.5 -25t-40.5 -55q0 -9 4.5 -28t5.5 -25q10 -54 49 -68q164 -62 195 -72 q66 -23 125 -39q41 -10 92 -45q62 -41 93 -79t54 -105q29 -93 29 -143q0 -45 -19 -115q-4 -14 -10.5 -30t-11.5 -25.5t-16 -28t-15 -24.5q-33 -59 -96.5 -120.5t-122.5 -88.5q-28 -12 -91 -22.5t-97 -10.5q-79 0 -164 16l-86 27q-69 18 -160 94q-23 18 -39 43.5t-33 66.5 t-24 54q-14 29 -26.5 75.5t-12.5 75.5z" />
<glyph unicode="t" horiz-adv-x="1212" d="M102 1225v18h2q0 121 5 150q0 9 6.5 15.5t15.5 6.5q42 3 74 10l6 2q10 0 30.5 -2t30.5 -2q53 0 125 7q36 -13 113 -13q22 0 64.5 5t62.5 5q5 0 15.5 -1t15.5 -1q10 0 30.5 3.5t30.5 3.5h123q22 0 76 -4q43 -3 69 -3h13h30q20 0 33.5 -6.5t20.5 -14t10 -24.5t3.5 -26.5 t0.5 -30.5v-6.5v-5.5q0 -146 -12 -178q-14 -35 -78 -35q-18 0 -53 -2t-52 -2h-86q-45 -2 -45 -143v-6v-7q0 -33 3 -99t3 -100q0 -21 -2 -65.5t-2 -67.5q0 -7 1 -23t1 -24q0 -7 -3 -24t-3 -25q0 -14 2 -40t2 -40q0 -19 5.5 -59.5t5.5 -61.5q0 -7 -2 -22t-2 -23q0 -20 4 -61.5 t4 -63.5q0 -30 -4 -92q-1 -17 -13 -28t-28 -13q-144 -16 -215 -16q-35 0 -68 20q-10 5 -16.5 13t-9 20t-3 20t-0.5 23q0 14 2 39t2 39q0 30 -5 92t-5 92q0 15 1 43t1 41q0 5 -1 14t-1 13q0 8 4 22t4 21q0 14 2.5 39t2.5 39t-2.5 44t-2.5 46v248q0 52 -2 77q-1 11 -6.5 31 t-5.5 31t-0.5 19t-4 13t-5 8t-9 4t-11 1.5t-15.5 0t-18 -0.5q-30 0 -89.5 -2t-87.5 -2q-24 0 -49 7.5t-28 24.5q-11 57 -11 95z" />
<glyph unicode="u" horiz-adv-x="1245" d="M123 993q0 31 3 93t3 92q0 14 -1 43t-1 43q0 81 14 129q8 20 31 26q66 17 121 17q14 0 40 -2t38 -2h12.5h14t13 -0.5t14 -2t12 -4t12.5 -6.5q5 -3 8.5 -9t5.5 -15.5t3 -14.5t2 -17t1 -13q0 -50 4 -148q1 -13 4.5 -51t3.5 -59v-37h-2q0 -23 -1 -71t-1 -71q0 -67 -4 -88 q-2 -4 -2 -16q0 -23 6 -70.5t6 -72.5v-39.5v-51t1 -51t3.5 -57.5t6.5 -50t10.5 -48.5t15.5 -34.5q30 -45 109 -45q78 0 116.5 63t38.5 146v16q9 18 9 92q0 88 -11 133q0 3 1 9.5t1 9.5q0 12 -2 35t-2 34q0 129 -4 195q0 6 -2 19.5t-2 19.5q0 4 3 12.5t3 13.5q0 7 1 20.5 t1 20.5q0 32 -4 95t-4 94q0 54 4 69q3 22 27 29q26 7 81.5 13t88.5 6q14 0 59 -9q41 -6 55.5 -21.5t24.5 -55.5q6 -27 6 -54q0 -18 -3 -56t-3 -58q0 -14 2 -40t2 -40q0 -18 -1 -55t-1 -56q4 -78 4 -117q0 -7 -3 -19.5t-3 -18.5q0 -14 2 -41t2 -41q0 -8 -2 -23t-2 -22 q0 -15 5 -42t5 -42q0 -7 -3 -22t-3 -23q0 -46 -18 -156q-2 -9 -9 -58.5t-14 -74.5q-5 -15 -21 -42.5t-20 -37.5q-24 -50 -49 -79t-70 -64q-71 -60 -137 -60q-47 0 -86 -8q-4 -4 -12 -4h-105v2h-65q-15 1 -40.5 8.5t-37.5 9.5q-25 3 -60.5 15.5t-49.5 25.5q-60 52 -89 86 q-80 93 -92 426q0 23 -3.5 66.5t-4.5 58.5q0 1 -3 32.5t-3 47.5q0 15 2 42t2 40q0 24 -4 70.5t-4 68.5z" />
<glyph unicode="v" horiz-adv-x="1308" d="M61 1354q0 21 11 38.5t30 20.5q25 5 77 13.5t77 13.5q67 10 76 10q62 0 76 -35q4 -12 14 -31.5t12 -23.5q10 -22 36.5 -97.5t27.5 -88.5q9 -52 28 -93q23 -56 35 -118q4 -22 12.5 -46t20 -52t16.5 -44l45 -143q1 -1 3.5 -7.5t4.5 -11t6 -8.5t7 -4q11 0 16.5 13t5.5 26 q2 36 19 88q10 28 20.5 61t17 54t17.5 63.5t14 55t15.5 65t13.5 57.5q4 13 8 35q1 24 22.5 104t31.5 107q13 31 27 43.5t44 12.5q86 0 172 -9q2 -2 10 -2q10 0 31 1t31 1h8.5h10.5h10t10 -1.5t8 -3.5t6 -6t2 -9q0 -26 -24 -90q-53 -146 -68 -228q-4 -15 -9 -31t-12 -35.5 t-10 -29.5q-11 -27 -14 -63q-2 -21 -9.5 -53.5t-19 -75t-14.5 -54.5l-4 -8q-25 -49 -53 -155q-4 -16 -9.5 -50t-9.5 -51q-3 -20 -24 -61q-11 -19 -18.5 -48t-14.5 -68.5t-10 -53.5q-2 -7 -8.5 -20.5t-8.5 -20.5q-3 -8 -23.5 -69t-35.5 -91q-36 -63 -150 -63q-48 0 -100 10 q-51 6 -68 51q-55 137 -69 164q-20 49 -25 88q-2 26 -24 70t-27 63q-11 38 -57 170q-9 22 -21 70q-19 51 -28 84q-5 16 -21 44t-22 42t-12 40t-9 35q-1 2 -14 45t-23 64q-7 16 -16.5 50t-16.5 50q-3 9 -27 66.5t-40.5 102.5t-16.5 61z" />
<glyph unicode="w" horiz-adv-x="1574" d="M61 1393q0 9 4.5 16t14.5 11.5t18 7t23.5 3.5t22 1h22.5h16q20 0 57.5 -3.5t55.5 -3.5q62 0 77.5 -10t30.5 -65q6 -18 15 -76q7 -83 55 -270q7 -30 18 -97.5t21 -103.5h4q11 22 23 86.5t12 95.5q0 3 1 8t1 8q4 24 16 89t19 112t10 92q1 11 7.5 36t6.5 38q0 28 29 51 q39 25 98 25q65 0 154 -14q35 -6 45 -46q22 -86 27 -120q3 -16 14 -74.5t15.5 -81t15 -72.5t18 -80.5t19.5 -71t24 -75.5q7 17 14 51.5t13.5 76.5t9.5 58q5 25 17.5 76t17.5 76q5 24 13.5 77.5t17 94t20.5 76.5q11 37 53 37q31 4 65 4h25q25 0 57 -1q48 -1 66 -1 q53 0 53 -50q0 -30 -12 -88q-3 -14 -53 -243q-18 -82 -45.5 -236t-40.5 -219q-13 -61 -39.5 -180t-38.5 -180q-3 -13 -9.5 -59t-14 -80.5t-17.5 -53.5q-12 -24 -51 -31l-111 -6q-57 0 -96 10q-51 16 -67 74q-8 26 -14 56t-12.5 67.5t-10.5 56.5q-40 196 -52 236 q-3 10 -9.5 48t-15 68.5t-18.5 39.5q-8 -23 -14 -71t-8 -58q-19 -103 -35 -162q-22 -86 -22 -117q0 -16 -23 -110.5t-31 -114.5q-8 -21 -19 -29t-32 -8q-130 0 -201 18q-33 7 -49 26t-24 54q-1 3 -17 72q-5 21 -13 60t-15.5 72t-14.5 62q-5 19 -14 52.5t-16.5 62t-12.5 53.5 q-21 86 -22 95q-1 17 -8 46t-9 42q-12 71 -30 141q-27 72 -27 98q0 48 -18.5 138.5t-20.5 105.5q-8 41 -16 131q-1 4 -7 31t-6 39z" />
<glyph unicode="x" horiz-adv-x="1452" d="M61 25q0 7 11 51q2 24 22 47q38 42 137 205q28 45 133 237.5t105 204.5q0 17 -72 125q-7 10 -35.5 45t-35.5 49q-14 28 -48.5 71.5t-44.5 59.5q-58 93 -71 109q-18 22 -38.5 69t-33.5 66q-10 13 -10 27q0 17 12.5 27t30.5 12q62 4 94 4q34 0 102.5 -6.5t102.5 -6.5 q27 0 41.5 -4.5t28.5 -23.5q28 -32 77.5 -107t81.5 -110q3 -3 17 -22.5t27 -35.5t18 -16q8 0 52 71.5t93 152.5t64 95q21 21 47 21q13 0 40 -1t40 -1q25 -1 101 -1.5t118 -2.5q15 -2 34 -22.5t19 -35.5q0 -6 -10 -26l-17 -21q-41 -41 -94 -141q-8 -15 -29 -37.5t-26 -30.5 q-10 -19 -33 -48.5t-31 -43.5l-65 -112q-5 -9 -33 -54.5t-35 -60.5q-4 -8 -4 -15q0 -16 14.5 -43.5t26.5 -39.5q8 -10 53.5 -87.5t53.5 -89.5q15 -23 46 -68.5t46 -68.5q55 -90 73 -139q9 -22 21.5 -42.5t33 -48t27.5 -38.5q52 -69 52 -82q0 -11 -8.5 -19t-23.5 -12.5 t-31 -7t-36 -3t-34 -0.5t-29 0.5t-17 0.5v-2l-120 6q-4 0 -14 -2t-15 -2q-3 0 -51 6q-40 8 -66 49q-108 159 -213 318q-1 1 -6.5 9t-9.5 13.5t-10 11t-9 5.5q-4 0 -10 -6q-5 -5 -11 -14t-7 -11q-80 -123 -201 -313q-3 -4 -12.5 -19.5t-16.5 -23.5q-27 -31 -57 -31 q-10 0 -32 3t-32 3q-18 0 -52 -2t-50 -2q-13 0 -38 2t-38 2q-53 0 -67 4q-13 3 -13 21z" />
<glyph unicode="y" horiz-adv-x="1372" d="M63 1384v5q1 2 5.5 7t6.5 7.5t6.5 6.5t7.5 6.5t7.5 5t9.5 3.5q38 9 177 9q10 0 30.5 -1.5t36.5 -1.5t29 3q16 4 22 4q35 0 72 -33q9 -9 42.5 -75.5t47.5 -98.5q10 -19 32.5 -52.5t31.5 -48.5q6 -7 18 -36q14 -38 55 -90l72 112q35 48 66 115q9 24 22.5 50t32 57t27.5 48 q11 21 26 29q14 8 22 12t17.5 7.5t13 5t13.5 2.5t14.5 0.5t20 -0.5h26.5q32 0 76 -1.5t97 -7t59 -14.5t6 -20t-2 -21.5t-7 -23t-8 -19t-10.5 -22t-9.5 -19.5q-61 -107 -88 -141q-11 -15 -25.5 -52t-23.5 -52q-65 -105 -80 -144q-7 -14 -15 -22q-74 -108 -106 -183 q-3 -6 -7 -20.5t-9.5 -23t-16.5 -15.5q-4 -10 -13 -27t-13.5 -31t-4.5 -30q0 -24 -3 -74t-3 -76q0 -19 3 -55t3 -55q0 -33 1 -98.5t1 -98.5q0 -38 -8 -65q-4 -18 -10 -22.5t-25 -6.5h-30q-23 0 -72 2t-72 2q-5 0 -14 -2t-14 -2q-62 0 -79 8q-30 14 -30 60q0 19 3.5 55.5 t4.5 48.5q4 80 4 244q0 26 -8 80q0 2 1 6t1 6q0 22 -22 55l-80 142q-36 60 -106.5 169t-84.5 132q-2 2 -8 14q-7 20 -18 43.5t-19.5 39.5t-23 43t-21.5 40q-3 7 -19.5 40t-28.5 58t-22.5 54.5t-9.5 43.5z" />
<glyph unicode="z" horiz-adv-x="1130" d="M123 1268q0 5 2 14t2 14q0 66 10 101q7 20 23 20q49 2 149 2q126 4 191 4q18 0 55 -3t55 -3q47 0 142.5 6.5t142.5 6.5q38 0 60 -20.5t22 -57.5q0 -81 -10 -176q0 -8 -11 -35q-8 -20 -23.5 -56t-21.5 -51l-22 -41q-21 -38 -73 -127.5t-79 -138.5q-66 -123 -147 -287 q-5 -12 -17.5 -38t-21 -46t-14.5 -39q76 -10 180 -10q35 0 103 4t102 4q86 0 86 -88q0 -41 -4.5 -107.5t-12.5 -86.5q-4 -11 -10 -13q-24 -6 -47 -6q-15 0 -46 1t-48 1q-8 0 -33 -5.5t-41 -4.5q-16 0 -46 -1t-46 -1q-10 0 -28 6t-25 6q-13 0 -38 -2t-38 -2q-71 0 -92 -4 q-10 -2 -20.5 -3t-22.5 -1.5t-19 -1.5q-16 6 -47 6q-10 0 -29.5 -1t-29.5 -1q-50 4 -72 4h-29q-17 -2 -39 15q-6 5 -10 16.5t-6 22.5t-3 28t-1 27v27v20q0 78 6 115q0 7 10 22q11 14 20.5 30t20.5 37.5t17 32.5l22 44t31 53q14 25 22 43q5 10 39.5 79.5t67.5 137t69.5 144 t59 130t22.5 66.5q0 18 -32 18q-12 0 -38 1t-38 1q-5 0 -15.5 -1t-15.5 -1q-63 -2 -190 -2h-9.5h-10.5t-10 0.5t-10 1t-9 2t-9 3.5t-7 5t-6 6.5t-3.5 9t-1.5 11.5q0 7 2 20.5t2 20.5q0 13 -4 37t-4 35z" />
<glyph unicode="{" horiz-adv-x="761" d="M-31 700q0 17 1 25.5t8.5 17.5t21.5 11q60 7 89.5 55t29.5 113q0 12 -4 36.5t-4 38.5v31q-5 15 -5 23q0 21 8 61.5t9 54.5q3 19 7 56t7 55q3 9 11.5 29t11.5 32q4 14 13.5 26t23.5 26t20 22q30 34 94 49q40 9 74 15q13 2 49 10t61 12t50 4q12 0 24 -6q8 -4 25.5 -7 t26.5 -10.5t10 -27.5q6 -86 6 -176q0 -23 -18 -36.5t-37.5 -17t-51.5 -6t-41 -4.5q-17 -3 -34.5 -21.5t-20.5 -35.5q-6 -27 -6 -59q0 -9 3 -27.5t3 -26.5t-2 -24.5t-2 -24.5q0 -16 5 -49t5 -51q0 -19 -2 -27q0 -8 3 -25.5t3 -25.5q0 -25 -14 -45q-3 -5 -14 -31 q-5 -14 -10 -24.5t-13 -22t-11.5 -16t-16 -19.5t-17.5 -20q71 -46 80 -125q1 -11 7.5 -66t6.5 -84q0 -14 -2 -41t-2 -40q0 -7 2 -21.5t2 -21.5q0 -16 -7 -48t-7 -49q0 -39 30.5 -69.5t69.5 -30.5q49 0 74 -2q34 -3 43 -41q5 -26 6 -75.5t2 -65.5q0 -5 3 -15.5t3 -15.5 q0 -53 -149 -53q-241 0 -326 143l-16 29q-37 63 -37 141q0 8 2 14q12 54 12 115q0 5 -2 14.5t-2 14.5q0 7 6.5 23t6.5 24q0 6 -2 19t-2 20q0 46 -15 90t-49 61q-34 20 -66 23q-47 8 -47 41q-4 102 -4 155z" />
<glyph unicode="|" horiz-adv-x="626" d="M143 66q0 16 6.5 44t6.5 44q0 18 1 54t1 54q0 78 2 94q0 5 1 15.5t1 15.5q0 6 -2 17.5t-2 17.5q0 16 3 49t3 49q0 12 -2 38t-2 38q0 7 1 22.5t1 22.5q0 9 -1 28t-1 29q0 14 2 40t2 40q0 5 -2 15.5t-2 15.5q0 18 2 51.5t2 50.5q0 24 -1 52t-2.5 62.5t-2.5 53.5v172 q-1 22 -2.5 61.5t-2.5 72t-1 61.5q0 19 2.5 34t9.5 25.5t12.5 18t18.5 12t20.5 7.5t25 4t25.5 1.5t29.5 0t28.5 -0.5h100q35 0 47 -14t12 -49q0 -10 -1 -30t-1 -30q0 -27 -3 -84t-3 -84q0 -83 2 -124q0 -5 2 -14.5t2 -14.5q0 -86 -4 -250q-6 -153 -6 -154q0 -22 1 -63.5 t1 -61.5q0 -13 -1 -36.5t-1 -34.5q0 -30 2 -89t2 -89q0 -56 -4 -168.5t-4 -169.5q0 -15 2 -43t2 -41q0 -90 -4 -133q-6 -45 -49 -45q-12 0 -34 1t-34 1q-26 0 -74.5 6.5t-70.5 7.5q-23 3 -31 10.5t-14 30.5q-5 24 -5.5 72.5t-4.5 70.5q0 2 -1.5 5.5t-1.5 5.5q0 21 -2 64 t-2 65z" />
<glyph unicode="}" horiz-adv-x="761" d="M102 -174q0 5 3.5 15.5t3.5 15.5q1 16 2 65.5t6 75.5q9 38 43 41q25 2 73 2q39 0 70 30.5t31 69.5q0 17 -7.5 49t-7.5 48q0 7 2.5 21.5t2.5 21.5q0 13 -2.5 40t-2.5 41q0 28 7 82t8 68q9 79 80 125q-5 6 -15 17t-14 16t-10.5 14t-10.5 16t-9 17t-9 22q-11 26 -14 31 q-15 21 -15 45q0 8 3.5 25.5t3.5 25.5q-2 8 -2 27q0 18 5 51t5 49q0 8 -2 24.5t-2 24.5t3 26.5t3 27.5q0 32 -6 59q-3 17 -21 35.5t-35 21.5q-9 2 -32 3.5t-40 4t-35.5 8t-29 17.5t-10.5 31q0 90 6 176q1 20 10 27.5t26.5 10.5t25.5 7q12 6 24 6q25 0 50 -4t61 -12t49 -10 q35 -6 74 -15q64 -15 94 -49q6 -8 20 -22t23.5 -26t13.5 -26q3 -12 11.5 -32t11.5 -29q3 -19 7 -56t7 -55q1 -14 8.5 -54.5t7.5 -61.5q0 -11 -4 -23v-31q0 -14 -4 -38.5t-4 -36.5q0 -65 29.5 -113t89.5 -55q14 -2 21.5 -11t8.5 -17.5t1 -25.5q0 -28 -5 -155q0 -33 -47 -41 q-31 -2 -65 -23q-34 -17 -49 -61t-15 -90q0 -7 -2 -20t-2 -19q0 -8 6.5 -24t6.5 -23q0 -5 -2.5 -14.5t-2.5 -14.5q0 -57 13 -115q2 -6 2 -14q0 -78 -37 -141l-16 -29q-85 -143 -326 -143q-150 0 -150 53z" />
<glyph unicode="~" horiz-adv-x="1249" d="M102 512q0 15 3 35t6.5 34.5t9.5 38.5t8 33q17 82 80 152t143 98l19 6q14 2 45 2q56 0 109 -25.5t93.5 -61.5t77.5 -72.5t73.5 -62t68.5 -25.5q20 0 32.5 10t16.5 30t5.5 34.5t0 41.5t-1.5 31q3 30 27 41q15 7 73 11.5t90 4.5q19 0 32 -7t19 -14.5t9 -25.5t3.5 -26.5 t0.5 -30.5q0 -68 -23 -137t-63 -117q-15 -17 -47 -41q-58 -47 -99 -55q-39 -8 -84 -8q-50 0 -101.5 25t-93 60.5t-77.5 71.5t-68 61t-53 25q-64 0 -90 -151q-6 -52 -61 -52q-12 0 -74 12t-74 17q-17 5 -26 13t-9 24z" />
<glyph unicode="&#xa1;" horiz-adv-x="628" d="M143 1303q0 38 26 74t62 59q16 10 56 10q16 0 26.5 -3t23 -8t23.5 -8q44 -13 79.5 -64t35.5 -97q0 -16 -8 -29q-4 -5 -8 -23q-47 -92 -137 -92q-10 0 -54 11q-65 22 -95 62.5t-30 107.5zM150 440q0 12 2 34t2 34q2 45 2 136t2 136q0 8 3 23t3 22q0 13 -6 35t-6 33 q0 25 4 43.5t9 31t17 20.5t20 12.5t27.5 6.5t29 2t35 -0.5t36.5 -0.5q12 0 34 -2t33 -2q38 0 57.5 -14t22.5 -50q0 -8 2 -24t2 -23q0 -13 -1 -37t-1 -35q0 -8 -1 -24.5t-1 -24.5q0 -12 4 -33.5t4 -31.5q0 -15 -7 -47t-7 -50v-55q0 -15 -2 -42.5t-2 -41.5q0 -9 1 -27.5 t1 -27.5q0 -6 -1 -17t-1 -16q0 -15 3 -45t3 -45v-41q0 -6 2 -19.5t2 -19.5q0 -13 1 -39t1 -39q0 -19 -2 -29q-4 -23 -4 -65q0 -41 -123 -41q-6 0 -18 1t-17 1q-4 0 -30.5 -3t-40.5 -3q-55 0 -84 43q-6 10 -6 63q0 8 3 25t3 25q0 69 -2 104q0 1 -3 17t-3 24q0 25 -1 72.5 t-1 70.5z" />
<glyph unicode="&#xa2;" horiz-adv-x="1224" d="M102 483q0 17 4.5 52t4.5 53q0 86 40.5 196.5t98.5 165.5q19 17 34 30.5t34 26t27.5 18.5t32.5 17.5t29 14t38 16.5t40 17q1 1 5 2.5t4.5 2t3 2.5t3 3.5t1 4.5t0.5 7v102q0 19 4.5 24.5t23.5 6.5l125 4q6 0 17.5 1t17.5 1q39 0 41 -28l4 -97q0 -13 3.5 -17t15.5 -7 q11 -3 34.5 -7.5t40 -9.5t33.5 -14q115 -60 172 -141t56 -203v-8q0 -23 -8 -32.5t-31 -12.5q-31 -4 -97 -4q-83 0 -120 4q-24 3 -35 19.5t-13 36t-13.5 45.5t-33.5 44l-6 -2q5 -89 8.5 -267t8.5 -267q1 1 5 2.5t5 3.5q21 21 30.5 48t12 48.5t10.5 41t32 30t70 10.5 q13 0 37 -1t37 -1q11 0 35 1t37 1q27 0 44 -14.5t17 -40.5q0 -13 -2 -17q-32 -167 -176 -289q-39 -33 -166 -88q-6 -3 -19 -5.5t-18.5 -8t-5.5 -18.5q0 -14 1 -43t1 -45q0 -23 -15 -38.5t-38 -15.5q-2 0 -119 6q-29 0 -40 15t-11 45q0 8 2 25.5t2 25.5q0 39 -18 39 q-24 0 -41 10q-99 56 -166 96q-17 10 -42.5 41t-33.5 50l-6 10q-41 49 -75 132t-34 144zM406 526q0 -81 15 -126t64 -103q12 -16 27 -16h4q2 6 2 16q0 15 -1 43t-1 43q0 30 2 88t2 86q0 32 -1 67.5t-2.5 78.5t-2.5 67q0 27 -8 39q-49 -23 -74.5 -116t-25.5 -167z" />
<glyph unicode="&#xa3;" horiz-adv-x="1159" d="M102 596q0 9 2 28t2 29q0 17 -2 52.5t-2 54.5t2.5 37t13.5 35.5t29 17.5q6 0 18.5 -2t18.5 -2q15 0 15 16q0 19 -2 29q-17 44 -17 94q0 13 2 40t2 40q0 67 6 90q23 81 58 123l37 47q27 33 85.5 63.5t102.5 36.5l102 17q14 2 46 2q116 0 215.5 -60.5t164.5 -162.5 q3 -6 11.5 -20t12.5 -21.5t7.5 -20t3.5 -24.5q0 -16 -33 -44.5t-53 -35.5q-28 -16 -41 -29q-19 -15 -52 -33t-50 -18q-18 0 -39 21.5t-38.5 48t-43.5 48t-53 21.5q-39 0 -80 -18q-35 -17 -35 -86q0 -81 29 -138q7 -13 44.5 -21.5t63.5 -8.5q3 0 11 1t12 1q9 0 27.5 -1 t27.5 -1q23 0 69 4t68 4q21 0 36 -4.5t24 -16.5t14 -21t7 -29.5t2.5 -30t0.5 -33.5q0 -134 -14 -148q-21 -24 -51 -24q-168 0 -215 -4q6 -44 6 -84q0 -67 -25 -131q1 -1 4 -2.5t5 -3t4 -1.5h53q46 -4 70 -4q25 -1 70.5 -1t82.5 -1t70 -4q21 -2 29.5 -9.5t9.5 -27.5 q4 -74 4 -108q0 -10 -1 -32t-1 -32q0 -43 -12.5 -67t-51.5 -27q-93 -10 -114 -10q-27 0 -77.5 5.5t-72.5 6.5q-33 0 -98.5 1t-98.5 1q-28 0 -83 -6t-82 -6q-40 0 -84.5 12.5t-44.5 40.5q0 17 4 52t4 53q0 14 -3 43.5t-3 44.5q0 28 12.5 47t30 30.5t35 23.5t30 33.5 t12.5 53.5q0 26 -14 57q-12 28 -53 36.5t-82 5.5t-74 12t-33 55z" />
<glyph unicode="&#xa4;" horiz-adv-x="1329" d="M82 961q0 11 18 34q17 19 87.5 83.5t78.5 64.5q22 0 80 -55.5t68 -55.5q3 0 14.5 5t25 11t17.5 7q103 28 201 28q13 0 41 -2t43 -2q5 0 17 2t18 2q13 0 58.5 -21.5t53.5 -21.5q11 0 42.5 31t67.5 61.5t56 30.5q30 0 100 -81t70 -113q0 -17 -22 -35q-13 -12 -49 -40.5 t-54 -45.5q37 -65 53.5 -109.5t16.5 -103.5q0 -17 -0.5 -32t-1 -26.5t-2.5 -25t-2.5 -20.5t-4 -21.5t-4.5 -19.5t-6 -21.5t-6.5 -21.5t-8.5 -26t-9 -28q5 -5 27 -24.5t37.5 -34.5t29.5 -35.5t14 -34.5q0 -22 -26 -41q-123 -106 -162 -106q-17 0 -35 14q-22 17 -59.5 50.5 t-51.5 45.5q-128 -55 -262 -55q-87 0 -176 25q-6 3 -25.5 7.5t-25.5 4.5q-9 0 -16 -10q-19 -24 -64 -64.5t-63 -40.5q-9 0 -29 15q-7 6 -30 27.5t-36 31.5q-67 53 -75 61q-21 13 -21 29q0 5 2.5 10t4.5 7.5t7.5 7.5t6.5 6q51 38 102 102q-57 103 -57 230q0 79 22 141 q31 62 31 69q0 6 -31.5 30.5t-63.5 53.5t-32 46zM465 623q0 -37 31 -93q51 -86 155 -86q51 0 103.5 16.5t74.5 51.5q39 55 39 121q0 75 -38.5 106.5t-120.5 51.5q-21 6 -50 6q-64 0 -106 -26.5t-72 -84.5q-16 -29 -16 -63z" />
<glyph unicode="&#xa5;" horiz-adv-x="1329" d="M61 1378q0 54 123 54q6 0 18.5 -1t18.5 -1q17 0 51 2t50 2q42 0 65 -2q25 -3 39 -27q37 -56 73.5 -122t78 -147.5t65.5 -125.5q11 -17 19 -17t40.5 50t47.5 77q80 136 114 213q50 88 60 92q26 11 45 11q22 0 63.5 3t61.5 3q105 0 137 -6q37 -7 37 -35q0 -22 -67 -150.5 t-146 -276t-97 -194.5q14 -2 53 -3.5t58 -4.5q24 -5 27 -31q2 -43 2 -131q0 -31 -10.5 -41t-40.5 -10q-19 0 -56 -2t-55 -2q-8 0 -24.5 1t-24.5 1q-17 0 -21 -4t-4 -21v-14q-5 -31 -0.5 -44t33.5 -13q9 0 42.5 0.5t57.5 1t51.5 -1.5t38.5 -6q18 -6 21 -25q4 -36 4 -57 q0 -76 -15 -93.5t-87 -17.5q-22 0 -63.5 2t-61.5 2q-15 0 -15 -14t3 -43t3 -43q0 -62 -8 -111q-6 -42 -49 -45q-122 -8 -188 -8q-40 0 -72 14q-27 15 -27 45q0 149 -4 191q-12 4 -18 4q-28 0 -87 -2t-87 -2q-47 0 -47 35q0 19 -2 59.5t-2 61.5q0 15 4 25t8 15.5t16.5 9 t16.5 4t22.5 1t22.5 0.5q28 4 45 4q15 0 43.5 -3t42.5 -3q7 0 11 5.5t5.5 15.5t1.5 19t-1 20t-1 14q0 11 -12 14q-31 2 -92 2q-10 0 -31 -1t-31 -1q-19 0 -51 4q-9 1 -15.5 6.5t-10 15t-6 19t-3 22.5t-1 22t0 21.5t0.5 16.5v14.5v15t1 12.5t2.5 12t5 9t8 8t12 4.5t16.5 2.5 q95 0 95 14l-5 10q-86 163 -141 248l-69 102q-39 63 -123 226q-9 12 -9 24z" />
<glyph unicode="&#xa6;" horiz-adv-x="632" d="M143 -160q0 49 2 149t2 150q0 40 -2 120t-2 120q0 63 15 162q3 25 12.5 36t32.5 11q3 0 9 -1t9 -1v-4q19 0 56 6t55 6q12 0 33 -4t32 -4q39 0 62 -4q14 -2 22 -23q8 -28 8 -141q0 -16 -2 -46t-2 -46v-267q0 -13 -1 -37t-1 -36q0 -23 2 -71t2 -73v-30t-3 -24.5t-9 -24 t-17.5 -14.5t-29.5 -9q-90 -8 -149 -8q-61 0 -111 32q-25 17 -25 76zM143 944q0 43 2 128.5t2 127.5q0 35 -2 103.5t-2 103.5q0 55 15 139q3 22 13 30.5t32 8.5h18v-4q19 0 56 5t55 5q12 0 33 -4t32 -4q52 0 62 -2q14 -3 22 -18q3 -8 5.5 -56t2.5 -65q0 -18 -2 -51.5 t-2 -49.5v-208q0 -10 -1 -31t-1 -33q0 -19 2 -59.5t2 -61.5v-24q-2 -33 -14 -48t-45 -18q-147 -6 -149 -6q-66 0 -111 29q-25 15 -25 63z" />
<glyph unicode="&#xa7;" horiz-adv-x="1212" d="M102 106q0 16 49.5 85t67.5 85q21 17 35 17q12 0 31 -14q55 -44 134.5 -79.5t139.5 -35.5q51 0 83 12t67 45q4 4 4 10q0 7 -5 23t-6 22q-6 36 -36 43q-57 18 -95 23q-7 0 -19.5 3.5t-16.5 4.5q-20 5 -63 14t-75.5 17t-62.5 18q-4 2 -8 2q-62 9 -123 70q-3 3 -12 11.5 t-15 15t-10 12.5q-37 60 -37 123q0 48 10 110q6 35 32 74t48.5 65t22.5 31q0 6 -23 29q-39 38 -63.5 98.5t-24.5 116.5q0 90 52 155t141 99q28 11 106 29q3 0 8 1t8 1q45 2 136 2q136 0 364 -66q63 -20 92 -71q4 -8 4 -17q0 -10 -6 -16q-17 -21 -32.5 -54.5t-25.5 -52.5 t-34.5 -34t-64.5 -15q-33 0 -68 21q-51 31 -102 39q-112 22 -152 22q-88 0 -88 -51q0 -27 18 -35q16 -11 36 -19t34.5 -11.5t39.5 -9.5t38 -9q5 -1 51 -13t66.5 -18.5t65.5 -21t71 -28t58 -32t51 -40t28 -46.5q29 -85 29 -151q0 -8 -4 -25t-4 -26q-1 -28 -8.5 -51.5t-14 -35 t-24.5 -37.5t-25 -38l8 -8q44 -24 68 -60q59 -80 59 -184q0 -85 -37 -154q-5 -9 -10.5 -36t-32.5 -52q-7 -6 -25.5 -27.5t-37.5 -29.5q-27 -8 -41 -17q-31 -19 -128.5 -38t-140.5 -19q-19 0 -41.5 2t-50 5.5t-41.5 4.5q-80 9 -195.5 51.5t-158.5 90.5q-6 8 -24.5 21t-31 26 t-12.5 28zM461 698q0 -25 28 -39q106 -49 158 -49q28 0 55 20t27 48q0 39 -45.5 71.5t-85.5 32.5q-41 0 -89 -23.5t-48 -60.5z" />
<glyph unicode="&#xa8;" horiz-adv-x="722" d="M0 1257q0 59 46.5 111.5t103.5 52.5q66 0 107.5 -46t41.5 -113q0 -64 -36.5 -103t-100.5 -39q-15 0 -27.5 3t-30.5 10t-26 10q-37 12 -57.5 42.5t-20.5 71.5zM434 1276q0 63 39.5 107t101.5 44t105 -44.5t43 -106.5q0 -63 -39 -103t-102 -40q-64 0 -106 40t-42 103z" />
<glyph unicode="&#xa9;" horiz-adv-x="1693" d="M123 713q0 104 51 231q5 12 15 43t18 47q42 81 74 133q24 38 59 68q71 61 130 98t132 58q27 7 79 13.5t64 8.5q75 10 173 10q40 0 100 -11.5t102 -25.5q8 -3 26.5 -9.5t33 -12.5t24.5 -12q148 -103 221 -201q80 -104 129 -297q17 -60 17 -109q0 -19 -10 -102 q-6 -55 -15 -106q-20 -100 -88 -212t-149 -198q-11 -13 -70 -59q-41 -36 -117 -54q-159 -30 -227 -30q-23 0 -35 2q-14 2 -39 3t-39 3q-61 8 -215 47q-81 23 -177.5 90t-149.5 135q-33 41 -54.5 99.5t-28.5 94.5t-18 111q-16 94 -16 144zM391 690q0 -84 37 -217 q29 -92 112.5 -154.5t188.5 -87.5q70 -18 119 -18q41 0 160 18q93 14 143 78l20 23q14 11 27.5 29t28 49t21 46.5t21.5 55.5l15 39q27 73 27 151q0 98 -40 232.5t-104 177.5l-88 59q-14 9 -29 15.5t-34 10.5t-32 6.5t-36.5 3.5t-33 1h-36h-32.5q-48 0 -101 -16 q-100 -27 -153 -59q-59 -41 -84 -70q-12 -20 -21 -29q-65 -68 -86 -215q-10 -68 -10 -129zM565 684q0 132 51 205q5 7 18 25.5t23 31.5t21 23q2 1 8 4.5t8 5.5q34 24 95.5 38.5t109.5 14.5q25 0 49 -6q8 -2 23 -6q45 -11 59 -20t19.5 -29.5t5.5 -77.5q0 -24 -6.5 -50 t-22.5 -26q-9 0 -51 28.5t-70 28.5q-69 0 -115.5 -45.5t-46.5 -115.5q0 -27 9 -54q12 -42 57.5 -74t89.5 -32q39 0 77 19.5t52 19.5q24 0 27 -23q6 -24 6 -53q0 -17 -4 -49q-5 -37 -58.5 -60.5t-97.5 -23.5q-108 0 -172 39q-18 11 -36 18.5t-25.5 11.5t-19.5 17t-27 39 l-21 35q-35 88 -35 141z" />
<glyph unicode="&#xaa;" horiz-adv-x="952" d="M102 987q0 19 17 57q36 85 192 144q8 3 59 7.5t66 4.5q25 0 72.5 -11t58.5 -11q9 0 13 2q-3 47 -44 67.5t-94 20.5t-127 -29q-54 -27 -75 -27q-24 0 -35 25q-31 93 -31 109q0 39 97.5 70.5t150.5 31.5q11 0 34 -2t36 -2q115 0 188 -31q12 -5 25.5 -13.5t21 -15t23 -20.5 t20.5 -18q19 -16 30 -38t14 -39.5t7 -47t8 -45.5q17 -67 17 -142q0 -32 2 -95t2 -93q0 -26 -4 -72q0 -26 -29 -29q-43 -2 -131 -2q-4 0 -15.5 -0.5t-18 0t-17.5 1t-17.5 3t-13.5 6.5t-11 11t-5 16v19l-4 6q-12 -5 -36 -16.5t-43.5 -19t-37.5 -11.5q-22 -3 -57.5 -10.5 t-64 -11t-60.5 -3.5q-66 0 -120 53.5t-54 120.5q0 26 -7 66q-2 6 -2 14zM307 958q0 -47 105 -47q19 0 42.5 3t52 9.5t47.5 20.5t19 33t-6.5 29.5t-22.5 19.5t-22 14q-8 11 -22 11q-12 0 -37 -2t-39 -2q-40 -2 -78.5 -26.5t-38.5 -62.5z" />
<glyph unicode="&#xab;" horiz-adv-x="1062" d="M-10 725q0 20 64.5 92t88.5 86l76 84q17 17 53 17q22 0 66 -2.5t65 -2.5q56 0 56 -12q0 -5 -4 -12t-4 -8q-5 -20 -23 -33q-10 -6 -33.5 -33.5t-51.5 -63.5t-34 -42l-78 -86q29 -31 126.5 -149.5t97.5 -127.5q0 -4 -11 -10q-9 -3 -31.5 -4.5t-33.5 -5.5q-28 -9 -105 -9 h-12h-13.5t-11.5 0.5t-12 2.5t-10 4.5t-9.5 7t-6.5 10.5q-2 4 -9.5 11t-9.5 10q-13 17 -34.5 50t-34.5 50q-32 38 -76.5 98.5t-44.5 77.5zM471 725q0 20 65 92t89 86l75 84q17 17 54 17q22 0 66 -2.5t65 -2.5q55 0 55 -12q0 -5 -4 -12t-4 -8q-5 -20 -23 -33 q-10 -6 -33.5 -33.5t-51 -63t-33.5 -42.5l-78 -86q28 -31 125.5 -149.5t97.5 -127.5q0 -5 -10 -10q-9 -3 -32 -4.5t-34 -5.5q-28 -9 -104 -9h-12h-13.5t-12 0.5t-12.5 2.5t-9.5 4.5t-9.5 7t-7 10.5q-2 4 -9 11t-9 10q-13 16 -35.5 49.5t-34.5 50.5q-32 38 -76.5 98.5 t-44.5 77.5z" />
<glyph unicode="&#xac;" horiz-adv-x="1161" d="M102 803q0 17 10.5 29.5t26.5 17.5q10 2 34 11.5t40 10.5q15 0 43 2.5t43 2.5q13 0 37 -2.5t37 -2.5q8 0 24.5 1t24.5 1q41 0 123.5 -3t124.5 -3q8 0 24.5 1t24.5 1q159 0 239 -2q44 0 84 -32q11 -11 11 -68q0 -9 -3 -27.5t-3 -27.5q0 -4 2 -6q8 -26 8 -103q0 -21 -2 -33 q-1 -7 -1.5 -22.5t-1.5 -23.5t-4.5 -18.5t-12.5 -17t-23 -10.5q-46 -12 -72 -12q-7 0 -21.5 2t-21.5 2h-102q-5 0 -14 -1t-13 -1q-35 0 -45.5 22.5t-9.5 60t-4 50.5q-4 8 -13 8q-25 8 -133 8q-5 0 -17 -2t-18 -2q-10 0 -30.5 2t-30.5 2q-19 0 -57 2.5t-56 2.5q-8 0 -23.5 -1 t-23.5 -1q-55 0 -92 -9h-12q-34 0 -66.5 14.5t-32.5 43.5q0 12 2.5 33t2.5 32t-3.5 34t-3.5 34z" />
<glyph unicode="&#xad;" horiz-adv-x="907" d="M123 604q0 2 6 125q2 24 16 36.5t28.5 14.5t39.5 2q19 0 48 -1t42 -1q40 0 123 3t123 3q14 0 40.5 -3t37.5 -3q7 0 23.5 2t23.5 2q33 0 63 -6q12 -1 16.5 -2.5t8.5 -7t6 -16.5q1 -9 6 -34.5t7.5 -43.5t2.5 -35q0 -70 -34 -72q-99 -6 -103 -6q-27 0 -89 2t-91 2 q-73 0 -146.5 -1t-146.5 -1q-21 0 -36 10.5t-15 30.5z" />
<glyph unicode="&#xae;" horiz-adv-x="1693" d="M123 713q0 104 51 231q5 12 15 43t18 47q42 81 74 133q24 38 59 68q71 61 130 98t132 58q27 7 79 13.5t64 8.5q75 10 173 10q40 0 100 -11.5t102 -25.5q8 -3 26.5 -9.5t33 -12.5t24.5 -12q148 -103 221 -201q80 -104 129 -297q17 -60 17 -109q0 -19 -10 -102 q-6 -55 -15 -106q-20 -100 -88 -212t-149 -198q-11 -13 -70 -59q-41 -36 -117 -54q-159 -30 -227 -30q-23 0 -35 2q-14 2 -39 3t-39 3q-61 8 -215 47q-81 23 -177.5 90t-149.5 135q-33 41 -54.5 99.5t-28.5 94.5t-18 111q-16 94 -16 144zM391 690q0 -84 37 -217 q29 -92 112.5 -154.5t188.5 -87.5q70 -18 119 -18q41 0 160 18q93 14 143 78l20 23q14 11 27.5 29t28 49t21 46.5t21.5 55.5l15 39q27 73 27 151q0 98 -40 232.5t-104 177.5l-88 59q-14 9 -29 15.5t-34 10.5t-32 6.5t-36.5 3.5t-33 1h-36h-32.5q-48 0 -101 -16 q-100 -27 -153 -59q-59 -41 -84 -70q-12 -20 -21 -29q-65 -68 -86 -215q-10 -68 -10 -129zM608 997q0 31 137 31q54 0 104.5 -8t102 -27.5t86.5 -58.5t43 -94q6 -42 6 -43v-2q-3 -9 -7 -34t-11 -38q-2 -4 -8 -15.5t-7.5 -15t-7 -13t-8 -13t-8 -11t-10 -11.5t-10.5 -10 t-13.5 -10.5t-15.5 -9.5q7 -19 64 -95.5t57 -104.5q0 -17 -41 -17q-67 0 -100 4q-26 3 -48 27t-35.5 50.5t-33 48.5t-41.5 22q-5 0 -15.5 1t-15.5 1q-10 0 -10 -19q0 -18 2 -53t2 -53q0 -19 -7.5 -27.5t-16 -10t-29.5 -1.5q-18 0 -64 4q-14 0 -19.5 5t-6.5 20q-7 65 -7 131 q0 25 -2 72.5t-2 70.5q0 42 -1 127.5t-1 128.5q0 8 -1 25t-1 26zM766 854l2 -100v-2q0 -2 -0.5 -10t-0.5 -13.5t1 -12.5t4.5 -10.5t9.5 -3.5q50 0 82.5 23.5t32.5 71.5q0 18 -6 30q-9 18 -21 29t-30 15t-29.5 5t-36.5 1q-8 0 -8 -23z" />
<glyph unicode="&#xaf;" horiz-adv-x="497" d="M0 1266q0 117 4 133q2 12 7.5 19t17 9t17 2.5t22.5 0.5q8 0 22.5 -1t26.5 -1t22 2q29 6 88 6q22 0 68 -2t70 -2q13 0 38 1t37 1q9 0 54 -17q0 -9 2 -26t2 -25q0 -24 -4 -70q-1 -21 -3 -31.5t-11.5 -22.5t-26.5 -15q-66 -8 -103 -8h-10q-34 0 -100.5 2t-100.5 2 q-11 0 -33 -2t-34 -2q-72 0 -72 47z" />
<glyph unicode="&#xb0;" horiz-adv-x="733" d="M102 1163q0 33 2 47q5 92 111 183q18 15 80 43q21 12 45 12q8 0 26 1t27 1q47 0 105.5 -34.5t85.5 -76.5q48 -76 45 -159v-41q0 -75 -56 -164q-35 -53 -91 -81t-122 -28q-5 0 -15.5 1t-16.5 1q-5 0 -14.5 -1t-14.5 -1q-49 0 -99 53.5t-73 108.5q-25 60 -25 135zM279 1167 q0 -32 21.5 -50.5t53.5 -18.5h29q30 0 49 20t19 51q0 35 -26.5 58.5t-62.5 23.5q-25 0 -54 -29.5t-29 -54.5z" />
<glyph unicode="&#xb1;" horiz-adv-x="1118" d="M104 -106q0 68 2 81q1 20 8.5 26.5t28.5 6.5q69 0 358.5 3t313.5 3q14 0 48 1t58 0.5t46 -3.5q23 -3 33.5 -13t11.5 -32q2 -14 2 -43q0 -148 -6 -162q-6 -18 -11.5 -21t-25.5 -5q-13 0 -37.5 -1t-36.5 -1q-26 0 -77.5 2t-76.5 2q-85 0 -242.5 -8.5t-201.5 -8.5 q-74 -4 -109 -4q-77 0 -81 50q-5 54 -5 127zM104 688q0 68 2 82q1 20 8.5 26.5t28.5 6.5q57 2 176 2q60 0 75.5 11.5t15.5 68.5q0 23 -3.5 66.5t-3.5 64.5q0 31 9 61q6 20 10.5 28.5t15 14.5t29.5 6h121q55 0 84 -2q21 -1 30 -11.5t11 -31.5q2 -45 2 -131q0 -10 -1 -41 t-0.5 -52.5t5.5 -39.5q41 -8 96 -8q14 0 48 1t58 0.5t46 -3.5q23 -3 33.5 -13t11.5 -32q2 -14 2 -43q0 -149 -6 -162q-4 -13 -8 -18t-9 -6.5t-20 -2.5q-13 0 -37.5 -1t-36.5 -1q-26 0 -77.5 2t-76.5 2h-34l-2 -34q0 -38 4 -115t4 -115q0 -23 -9.5 -34.5t-31.5 -12.5 q-51 -6 -154 -6q-54 0 -76 10q-31 14 -34 47q-1 25 -1.5 105t-2.5 123q0 13 -4 18.5t-17 5.5q-16 0 -44.5 -4t-41.5 -4q-74 -4 -109 -4q-23 0 -37.5 2.5t-28 14t-15.5 32.5q-5 54 -5 127z" />
<glyph unicode="&#xb2;" horiz-adv-x="825" d="M123 1184q0 28 45 114q24 45 69 89t87 51q72 10 135 10q51 0 78 -6q80 -13 122.5 -88.5t42.5 -163.5q0 -46 -26 -107q-44 -95 -123 -151l-14 -10q-10 -9 -21 -19.5t-24 -24.5t-21 -22q-26 -21 -37 -35q68 -6 133 -6q11 0 35 1t37 1q31 0 42 -9t15 -40q4 -78 4 -117 t-38 -39q-56 0 -169 -6t-169 -6q-24 0 -73.5 2t-74.5 2q-17 0 -23 6t-8 23q-2 10 -2 33q0 165 80 254q16 18 78 55q9 6 39 25t42.5 28t36 29t34 36t19.5 40t9 49q0 24 -19.5 42.5t-43.5 18.5q-19 0 -31 -16t-18 -35t-25 -36t-49 -19h-12q-21 -7 -37 -7q-10 0 -31 2.5 t-31 2.5q-63 0 -63 49z" />
<glyph unicode="&#xb3;" horiz-adv-x="845" d="M123 848q0 41 10.5 51t50.5 10q14 0 41 -1t41 -1q8 0 23 -2t22 -2q4 0 11.5 1t11.5 1q13 0 20.5 -21.5t10.5 -48t19.5 -48t45.5 -21.5q11 0 27 8q30 14 40.5 30t10.5 48q0 33 -11.5 53.5t-35 29t-44 11t-55.5 2.5q-8 0 -26 -0.5t-25.5 0t-21.5 2t-20 6t-13.5 12.5 t-10.5 21t-3 31q0 86 43 86q200 0 200 57q0 26 -21.5 48t-47.5 22q-28 0 -44 -10.5t-21 -23.5t-14.5 -23.5t-25.5 -10.5q-13 0 -40 3t-42 3q-7 0 -21.5 -1t-21.5 -1q-47 0 -47 27q0 17 23 78q26 67 84.5 114.5t126.5 47.5q10 0 31.5 2t33.5 2q68 0 142 -23q21 -6 38 -25.5 t24 -33t20 -43.5q22 -52 22 -105q0 -32 -10 -60t-19 -42t-34 -49q35 -35 53 -57t33.5 -58t15.5 -78q0 -94 -56.5 -171.5t-144.5 -98.5q-57 -14 -127 -14q-62 0 -115.5 14.5t-96.5 54.5t-50 101q-10 82 -10 96z" />
<glyph unicode="&#xb4;" horiz-adv-x="468" d="M0 1094q0 17 77 140t107 165q21 33 88 33q2 0 19 0.5t32.5 0.5t37.5 -0.5t39.5 -2t34 -3.5t25.5 -6t9 -10q0 -9 -102.5 -141t-139.5 -176q-18 -21 -47 -21q-8 0 -26 -2t-27 -2q-127 0 -127 25z" />
<glyph unicode="&#xb5;" horiz-adv-x="1298" d="M143 492q0 72 3.5 217.5t3.5 218.5q0 12 -3.5 34t-3.5 33q0 30 37 62q7 7 78 12.5t100 5.5q20 0 58 -4t43 -10q22 -19 22 -51q0 -24 -4 -74t-4 -74q0 -12 2 -38t2 -40q1 -14 1 -39t1 -38q0 -10 2 -30.5t2 -29.5q0 -25 4 -69t5 -60q1 -11 5.5 -47t4.5 -47 q0 -87 29.5 -121.5t117.5 -34.5q56 0 97 29.5t45 85.5q3 54 12 106q8 58 8 86q0 29 -2 87t-2 86q0 45 -6 136t-6 136q0 25 12 34.5t39 14.5q40 10 49 10q13 0 36 -5t36 -5q16 0 50 -3t52 -3q5 0 14.5 2t14.5 2q6 0 10.5 -3t9 -8t8.5 -7q29 -15 29 -48q0 -13 -2 -37t-2 -36 q0 -14 2 -40.5t2 -39.5q0 -43 -6 -127.5t-6 -126.5q0 -30 4 -93t4 -93q0 -68 -6 -101v-20q0 -14 3 -39.5t3 -38.5q0 -14 -3.5 -41t-4.5 -39q0 -57 -2 -86q0 -10 -4 -17.5t-11.5 -13t-14.5 -9.5t-20 -6.5t-21 -4t-23 -2t-20.5 -0.5h-20h-15.5q-7 0 -15 1t-17.5 2.5t-14.5 2.5 q-83 0 -106 4q-25 3 -25 27q0 34 -2 57q-15 -7 -38.5 -19t-35 -17t-30 -11.5t-37.5 -9t-43 -2.5q-44 0 -99 10q-10 -20 -10 -33q0 -7 2 -20.5t2 -20.5q0 -13 -2 -40t-2 -40q0 -1 6 -61q2 -31 2 -90v-10v-10.5t-0.5 -10t-1 -10.5t-2 -9t-3.5 -9t-5 -7t-7 -5.5t-9.5 -3 t-12.5 -1.5q-19 0 -55 4t-55 4h-39q-14 0 -40 -1t-40 -1q-88 0 -88 104q0 7 2 20t2 19q0 12 -5 46.5t-9 39.5q-3 5 -5 14t-3 21t-1 22t0.5 22.5t0.5 15.5q0 63 4 94q4 14 4 45q0 19 -5.5 58t-5.5 59q0 7 3.5 20t3.5 19q0 13 1 40.5t1 42.5q0 1 -6 82q0 8 -3.5 24t-3.5 24z " />
<glyph unicode="&#xb6;" horiz-adv-x="1454" d="M102 961q0 6 1 16.5t1 15.5q0 6 -1 19.5t-1 19.5q0 63 26 131.5t74.5 125.5t106.5 81q8 3 29 11.5t25.5 10t19 7t23.5 7t23.5 4t33.5 5.5q9 1 28 4.5t34 5.5t28 2q163 0 278 5q19 0 57 3t56 3q6 0 19.5 -2t19.5 -2q5 0 17 1t18 1q24 0 71 -2t70 -2q7 0 22.5 3t22.5 3 q12 0 27 -11q44 -31 55.5 -53t11.5 -76q0 -28 2.5 -83t2.5 -82q0 -22 -1.5 -63.5t-1.5 -61.5q0 -45 4.5 -135.5t4.5 -135.5q0 -11 -2 -33t-2 -34t1 -35t1 -35q0 -20 2 -62.5t2 -64.5q0 -9 -4 -27.5t-4 -27.5q0 -5 2 -14t2 -13q0 -7 -2 -21t-2 -20l-3 -90q0 -8 1.5 -23.5 t1.5 -23.5t-3.5 -25.5t-3.5 -25.5q0 -20 3 -58t4 -47q6 -126 6 -258q0 -46 -31 -71q-7 -7 -8 -9q-15 -30 -99 -30q-10 0 -30.5 1t-30.5 1q-11 0 -35 -1t-37 -1q-39 0 -67 35q-4 7 -8.5 32.5t-4.5 36.5q0 7 6.5 34t6.5 44q0 20 -2.5 72t-1.5 80v53q0 14 -2 40t-2 40v49 q0 9 -2.5 25t-2.5 24q0 6 1.5 18t1.5 17q0 17 -3 47.5t-4 38.5v188q0 22 2 67.5t2 69.5q0 31 -2 96.5t-2 98.5q0 13 2 38t2 38q0 2 -6 143q-1 15 -5 18t-19 5q-30 6 -35 6q-15 0 -19 -19q-6 -27 -6 -116q0 -6 1 -18.5t1 -18.5q0 -5 -1 -15.5t-1 -15.5t1 -15.5t1 -15.5 q0 -10 -1 -29.5t-1 -29.5q0 -6 1 -17.5t1 -17.5q0 -15 -3 -42t-3 -42t2 -47t2 -47q0 -9 -3 -26t-3 -25q0 -9 3 -29t3 -29q0 -30 3 -92t3 -92q0 -11 -2 -34t-2 -36q-10 -245 -10 -297q0 -17 4 -50t4 -50q0 -4 -1 -13t-1 -14q0 -18 4 -52t4 -52q0 -23 -19.5 -39t-43.5 -16 q-13 0 -40 2t-40 2q-16 0 -45 -5t-43 -5q-92 0 -92 94q0 25 3 75t3 76q0 44 -5 133t-5 134q0 13 2 37t2 36h-2q6 153 6 154v94q0 15 -16 21q-44 20 -129 65q-17 9 -53 25.5t-54 25.5q-22 11 -67 61.5t-60 76.5l-61 106q-13 29 -13 62z" />
<glyph unicode="&#xb7;" horiz-adv-x="536" d="M102 797q0 37 26 73t62 58q16 10 54 10q16 0 26.5 -2.5t23 -7.5t23.5 -8q45 -13 81 -63.5t36 -98.5q0 -16 -8 -29q-2 -3 -5 -11t-5 -11q-47 -93 -137 -93q-15 0 -54 13q-64 20 -93.5 61t-29.5 109z" />
<glyph unicode="&#xb8;" horiz-adv-x="430" d="M0 -229q0 10 37 96q14 24 33 24q14 0 48 -15t54 -15q41 0 41 37q0 12 -9 24t-22 12q-5 0 -15 -2t-15 -2q-28 0 -60.5 14.5t-32.5 37.5q0 44 111 188q23 27 125 27q31 0 31 -19q0 -13 -20 -52.5t-23 -49.5q75 -30 111 -67t36 -109q0 -34 -16 -74q-50 -137 -226 -137 q-116 0 -174 55q-14 10 -14 27z" />
<glyph unicode="&#xb9;" horiz-adv-x="616" d="M123 1176q0 59 8 108q4 24 33 49q119 95 133 97q41 6 125 6q40 0 52.5 -24.5t12.5 -70.5v-118q0 -25 -1 -73t-1 -73q0 -52 4.5 -156.5t4.5 -156.5q0 -16 -2.5 -46t-2.5 -46q0 -6 2.5 -17.5t2.5 -17.5q0 -47 -25 -47q-15 0 -46 2t-46 2q-11 0 -35 -1t-37 -1q-16 0 -23.5 1 t-15.5 8t-10 22q-4 34 -5.5 77t-0.5 77.5t0 76.5h2q-1 25 -1.5 101t-2.5 118q-1 17 -6 21t-23 6l-63 4q-11 1 -16 3t-8 6.5t-5 14.5q-4 14 -4 48z" />
<glyph unicode="&#xba;" horiz-adv-x="880" d="M102 1034q0 200 103 295q37 37 57 53q36 29 94 43.5t113 14.5q66 0 125 -22.5t90 -69.5q38 -54 52.5 -78t28 -67t13.5 -95q0 -37 -16 -111q-20 -76 -49.5 -129t-83.5 -90q-85 -61 -187 -61q-140 0 -240 89t-100 228zM346 1096q0 -24 4 -47.5t13.5 -47.5t28.5 -38.5 t44 -14.5q56 0 80.5 42t24.5 102q0 72 -43 110q-27 27 -47 27q-48 0 -76.5 -42t-28.5 -91z" />
<glyph unicode="&#xbb;" horiz-adv-x="1062" d="M123 987q0 12 55 12q22 0 66 2.5t65 2.5q36 0 53 -17l76 -84q24 -14 89 -86t65 -92q0 -17 -44.5 -77.5t-76.5 -98.5q-13 -17 -35.5 -50.5t-34.5 -49.5q-2 -3 -9 -10t-9 -11q-3 -6 -7 -10.5t-9.5 -7t-9.5 -4.5t-12.5 -2.5t-12 -0.5h-13.5h-12q-76 0 -104 9q-11 4 -34 5.5 t-32 4.5q-10 5 -10 10q0 9 97.5 127.5t125.5 149.5l-78 86q-6 7 -33.5 42.5t-51 63t-33.5 33.5q-18 13 -23 33q0 1 -4 8t-4 12zM604 987q0 12 53 12q23 0 66.5 2.5t64.5 2.5q37 0 54 -17q5 -5 23.5 -25.5t35 -38.5t19.5 -20q24 -14 88.5 -86t64.5 -92q0 -9 -17 -36 t-35.5 -51.5t-42 -54.5t-26.5 -34q-10 -14 -33 -48t-38 -52q-2 -4 -8.5 -10.5t-8.5 -10.5q-3 -6 -7.5 -10.5t-10.5 -7t-10 -4.5t-12 -2.5t-11.5 -0.5h-13h-11.5q-76 0 -106 9q-11 4 -33 5.5t-31 4.5q-10 5 -10 10q0 9 97.5 127.5t125.5 149.5q-57 61 -77 86q-9 9 -36 43 t-51 62t-34 34q-19 16 -23 33q0 3 -3 9.5t-3 10.5z" />
<glyph unicode="&#xbc;" horiz-adv-x="1855" d="M125 1204q0 26 8 80q2 26 33 49q119 95 133 97q43 6 133 6q20 0 32.5 -9.5t17.5 -28.5t6 -32t1 -35q0 -157 -2 -237q0 -28 3.5 -86t3.5 -86q0 -27 1 -79.5t1 -78.5q0 -16 -2 -46t-2 -46q0 -6 2 -17.5t2 -17.5q0 -47 -25 -47q-15 0 -46 2t-46 2q-11 0 -35 -1t-37 -1 q-23 0 -35.5 5.5t-13.5 25.5q-4 34 -5 72.5t-0.5 86t-0.5 72.5h2l-4 219q-1 17 -6 21t-23 6l-63 4q-15 0 -21.5 4.5t-7.5 19.5q-4 15 -4 76zM383 43q0 33 47 98q19 27 35 64q13 25 35 55q95 140 131 199q10 16 28 46.5t33 54.5t31 44q17 23 42 66t32 53q11 17 53.5 86.5 t67.5 103.5q26 37 102 164q40 61 78 123q7 12 49 93.5t70 115.5q22 27 77 27l25 -2v2q18 0 77.5 -4t67.5 -7q21 -4 21 -20t-78 -133q-3 -5 -31.5 -48.5t-42.5 -66.5q-17 -26 -45 -76t-41 -71q-13 -20 -37.5 -57t-44 -67.5t-35.5 -58.5l-50 -90t-62 -109t-55 -87 q-15 -20 -50 -80q-5 -8 -27 -37.5t-32 -46.5q-53 -79 -158 -252q-5 -8 -26.5 -42.5t-32.5 -53.5q-20 -37 -90 -37q-64 0 -144 26q-20 7 -20 25zM1147 350q0 23 10 43q59 118 107 193q13 20 58.5 95.5t74.5 113.5q24 32 80 32q9 0 49.5 3.5t62.5 3.5q25 0 34.5 -8t10.5 -33 q1 -11 4.5 -52.5t3.5 -64.5q0 -10 -3 -31t-3 -31q0 -92 6 -178q3 -20 17 -20q67 0 80.5 -12.5t13.5 -79.5q0 -46 -2 -66q-3 -21 -29 -29q-13 -4 -47 -8q-12 -1 -14.5 -4t-5.5 -16q-10 -72 -10 -135q0 -6 1 -16t1 -15q0 -29 -18.5 -37t-49.5 -8q-28 0 -68 5t-45 15 q-12 25 -12 195q-89 14 -151 14q-10 0 -30.5 -0.5t-33.5 -0.5t-31 1t-32 4t-18 7.5t-5 19.5q-6 49 -6 100zM1364 406l4 -3q54 -8 82 -8q14 0 14 15q0 121 -6 141q-51 -53 -94 -145z" />
<glyph unicode="&#xbd;" horiz-adv-x="1982" d="M125 1204q0 26 8 80q2 26 33 49q119 95 133 97q43 6 133 6q20 0 32.5 -9.5t17.5 -28.5t6 -32t1 -35q0 -157 -2 -237q0 -28 3.5 -86t3.5 -86q0 -27 1 -79.5t1 -78.5q0 -16 -2 -46t-2 -46q0 -6 2 -17.5t2 -17.5q0 -47 -25 -47q-15 0 -46 2t-46 2q-11 0 -35 -1t-37 -1 q-23 0 -35.5 5.5t-13.5 25.5q-4 34 -5 72.5t-0.5 86t-0.5 72.5h2l-4 219q-1 17 -6 21t-23 6l-63 4q-15 0 -21.5 4.5t-7.5 19.5q-4 15 -4 76zM383 43q0 33 47 98q19 27 35 64q13 25 35 55q95 140 131 199q10 16 28 46.5t33 54.5t31 44q17 23 42 66t32 53q11 17 53.5 86.5 t67.5 103.5q26 37 102 164q40 61 78 123q7 12 49 93.5t70 115.5q22 27 77 27l25 -2v2q18 0 77.5 -4t67.5 -7q21 -4 21 -20t-78 -133q-3 -5 -31.5 -48.5t-42.5 -66.5q-17 -26 -45 -76t-41 -71q-13 -20 -37.5 -57t-44 -67.5t-35.5 -58.5l-50 -90t-62 -109t-55 -87 q-15 -20 -50 -80q-5 -8 -27 -37.5t-32 -46.5q-53 -79 -158 -252q-5 -8 -26.5 -42.5t-32.5 -53.5q-20 -37 -90 -37q-64 0 -144 26q-20 7 -20 25zM1280 590q0 29 45 115q21 43 67.5 88t86.5 51q75 10 137 10q39 0 76 -6q54 -8 94 -49.5t57 -94.5t17 -108q0 -44 -29 -107 q-42 -96 -123 -151q-8 -8 -12 -10l-68 -66q-25 -21 -35 -35q64 -6 131 -6q13 0 37 1t35 1q31 0 42.5 -9.5t14.5 -39.5q5 -49 5 -117q0 -39 -39 -39q-55 0 -167 -5t-169 -5q-25 0 -74 1t-74 1q-17 0 -24 6t-8 23v33q0 32 8 98q1 13 5 26t11 31.5t10 26.5q10 29 27 49 q3 3 8.5 11t9.5 12q9 10 20.5 19t30.5 20.5t25 15.5q8 5 35.5 23.5t46.5 32.5t42 33.5t36 39t14 37.5q0 1 3 17t3 24q0 25 -19 43t-44 18q-10 0 -18.5 -5t-16 -18.5t-9 -17t-9.5 -20.5q-17 -42 -68 -45h-12q-18 -6 -37 -6q-10 0 -31 2t-31 2q-63 0 -63 49z" />
<glyph unicode="&#xbe;" horiz-adv-x="1992" d="M123 848q0 24 2 36t13 18t20 6.5t35 0.5q13 0 37 -1t36 -1q8 0 23 -2t22 -2q4 0 11.5 1t11.5 1q14 0 20 -23.5t12.5 -54.5t20.5 -43q22 -18 43 -18q11 0 27 8q30 14 40.5 29.5t10.5 48.5q0 27 -9 46t-21 28.5t-34.5 14.5t-38 6t-43.5 1q-8 0 -30 -0.5t-30 0t-23 4 t-20.5 11t-11 22t-5.5 35.5q0 86 43 86q200 0 200 57q0 26 -21.5 48t-47.5 22q-28 0 -44 -10.5t-21 -23.5t-14.5 -23.5t-25.5 -10.5q-13 0 -40 3t-42 3q-4 0 -18.5 -1t-24.5 -1t-22 2t-18.5 8.5t-6.5 16.5q0 17 23 78q24 66 83.5 114t127.5 48q10 0 31.5 2t33.5 2 q65 0 142 -23q7 -2 13.5 -5.5t13 -9t11 -9t9.5 -12t8 -12t8 -14t6.5 -13t6.5 -14.5t6 -13q22 -57 22 -105q0 -32 -10 -60t-19 -42t-34 -49l30 -31q32 -27 52 -73.5t20 -88.5q0 -93 -57 -171.5t-144 -98.5q-57 -14 -127 -14q-44 0 -86 9t-81 27.5t-65 53t-30 80.5 q-1 14 -5.5 46.5t-4.5 49.5zM522 43q0 35 45 98q19 27 35 64q12 25 35 55q64 90 133 199q66 112 92 145q17 23 42 66t32 53q12 19 36.5 60t44 72.5t38.5 57.5q17 24 34.5 51t37.5 60.5t32 52.5q6 10 34.5 54.5t41.5 68.5q8 14 50.5 94.5t68.5 114.5q22 27 78 27l24 -2v2 q20 0 79 -4t67 -7q20 -4 20 -20q0 -19 -76 -133l-76 -115q-9 -16 -39 -68t-47 -79q-16 -27 -56 -88t-60 -95q-13 -23 -49.5 -89t-63.5 -111t-55 -86q-9 -13 -49 -80q-10 -17 -31.5 -45.5t-28.5 -38.5q-30 -46 -83.5 -133t-73.5 -119q-7 -11 -28.5 -44t-31.5 -52 q-20 -37 -90 -37q-61 0 -141 26q-21 6 -21 25zM1286 350q0 23 10 43q51 108 105 193q19 27 62 99.5t71 109.5q24 32 80 32q10 1 51 4t64 3q24 0 33 -8.5t10 -32.5q1 -11 4.5 -52.5t3.5 -64.5q0 -10 -2 -31t-2 -31q0 -92 6 -178q0 -20 16 -20q65 0 78.5 -12.5t13.5 -79.5 q0 -46 -2 -66q0 -22 -26 -29q-12 -3 -47 -8q-9 -1 -12.5 -2t-5.5 -5t-3 -13q-12 -86 -12 -135q0 -6 1 -16t1 -15q0 -29 -18 -37t-50 -8q-27 0 -67 5t-45 15q-11 23 -11 195q-93 14 -153 14q-7 0 -37.5 -1t-49.5 0t-38 5q-14 3 -19 8t-6 19q-4 66 -4 100zM1501 406l4 -3 q54 -8 82 -8q15 0 15 15q0 117 -7 141q-53 -59 -94 -145z" />
<glyph unicode="&#xbf;" d="M102 455q0 74 60 159q49 66 102 101q97 64 211 90q20 5 34.5 20.5t14.5 34.5q0 8 -1 24.5t-1 24.5q0 26 10 38.5t35 13.5q17 1 48.5 4.5t56.5 5.5t47 2q14 0 39 -2t37 -2q46 0 62.5 -29t16.5 -80q0 -41 -17 -111.5t-38 -93.5q-70 -73 -147 -94q-66 -17 -113 -41 q-15 -9 -41 -16q-36 -11 -60 -37t-24 -61q0 -48 36 -71.5t87 -23.5h43q19 0 45 15q4 2 17 8t21 11.5t13 12.5q37 47 43 103q8 47 64 47q17 0 49 -2t49 -2q13 0 37 2t35 2q42 0 68 -9t40 -38q0 -1 1 -4t1 -4q0 -20 -16 -113q-14 -92 -87.5 -176.5t-166.5 -134.5 q-28 -16 -105.5 -26.5t-123.5 -10.5q-57 0 -99.5 9t-107.5 30q-50 17 -72 39q-3 5 -18 10q-49 25 -99 82q-3 4 -16 16.5t-18 20.5q-23 36 -37.5 118t-14.5 138zM479 1253q0 29 20 77.5t42 62.5q62 41 121 41q49 0 91.5 -30t63.5 -77q10 -23 10 -78q0 -59 -44 -108t-103 -49 h-35q-65 2 -115.5 49t-50.5 112z" />
<glyph unicode="&#xc0;" horiz-adv-x="1202" d="M61 39q0 10 13 52t14 48q7 24 19 80.5t22 85.5q2 8 8.5 24.5t10 30t4.5 27.5q0 3 3 9t3 7q11 22 22 68q25 100 121 393q4 11 8 37q14 69 60 215q11 34 36 119.5t41 132.5q10 23 25 41q7 8 16.5 13t22.5 7t22 3t25 1.5t21 0.5v4q8 -1 29.5 -2.5t31 -2.5t26.5 -5.5 t26.5 -11.5t19.5 -19.5t16 -30.5q91 -272 113 -354q2 -7 2.5 -21t1.5 -18q1 -9 5 -20.5t9.5 -24.5t7.5 -19q24 -73 29 -94q3 -10 12.5 -38.5t12.5 -45.5q5 -19 13 -55t13 -55l43 -140q33 -106 78 -239q8 -21 23 -58.5t26.5 -68.5t20.5 -58q4 -12 4 -20q0 -20 -18 -32.5 t-40 -12.5q-11 0 -23 1t-26.5 2.5t-23.5 2.5h-127q-5 0 -16 -1t-17 -1q-13 0 -45 4q-19 3 -25 23l-2 6q-22 68 -24 84q-1 9 -7.5 27.5t-7.5 27.5q-1 17 -4 19.5t-20 2.5q-11 0 -33 1.5t-33 1.5q-95 0 -190 -3h-8q-14 0 -18 -2.5t-7 -15.5q-10 -29 -23 -117q-6 -28 -19 -40 t-40 -13h-16q-18 0 -53 1t-52 1t-50 -2t-50 -2q-62 0 -62 39zM186 1853q0 6 9 10t25.5 6t34 3.5t39.5 2t37.5 0.5t32.5 -0.5t19 -0.5q69 0 90 -33q2 -3 33 -52t63 -98.5t59 -97.5t27 -57q0 -25 -127 -25q-9 0 -26.5 2t-26.5 2q-29 0 -45 21q-32 36 -138 172t-106 145z M502 451q12 -2 71 -2h111q-4 20 -20.5 53t-20.5 49q-5 18 -30 85.5t-29 72.5q-15 -43 -82 -258z" />
<glyph unicode="&#xc1;" horiz-adv-x="1202" d="M61 39q0 10 13 52t14 48q7 24 19 80.5t22 85.5q2 8 8.5 24.5t10 30t4.5 27.5q0 3 3 9t3 7q11 22 22 68q25 100 121 393q4 11 8 37q14 69 60 215q11 34 36 119.5t41 132.5q10 23 25 41q7 8 16.5 13t22.5 7t22 3t25 1.5t21 0.5v4q8 -1 29.5 -2.5t31 -2.5t26.5 -5.5 t26.5 -11.5t19.5 -19.5t16 -30.5q91 -272 113 -354q2 -7 2.5 -21t1.5 -18q1 -9 5 -20.5t9.5 -24.5t7.5 -19q24 -73 29 -94q3 -10 12.5 -38.5t12.5 -45.5q5 -19 13 -55t13 -55l43 -140q33 -106 78 -239q8 -21 23 -58.5t26.5 -68.5t20.5 -58q4 -12 4 -20q0 -20 -18 -32.5 t-40 -12.5q-11 0 -23 1t-26.5 2.5t-23.5 2.5h-127q-5 0 -16 -1t-17 -1q-13 0 -45 4q-19 3 -25 23l-2 6q-22 68 -24 84q-1 9 -7.5 27.5t-7.5 27.5q-1 17 -4 19.5t-20 2.5q-11 0 -33 1.5t-33 1.5q-95 0 -190 -3h-8q-14 0 -18 -2.5t-7 -15.5q-10 -29 -23 -117q-6 -28 -19 -40 t-40 -13h-16q-18 0 -53 1t-52 1t-50 -2t-50 -2q-62 0 -62 39zM500 1540q0 17 77 140t107 165q21 33 88 33q2 0 19 0.5t32.5 0.5t37.5 -0.5t39.5 -2t34 -3.5t25.5 -6t9 -10q0 -9 -102.5 -141t-139.5 -176q-18 -21 -47 -21q-8 0 -26 -2t-27 -2q-127 0 -127 25zM502 451 q12 -2 71 -2h111q-4 20 -20.5 53t-20.5 49q-5 18 -30 85.5t-29 72.5q-15 -43 -82 -258z" />
<glyph unicode="&#xc2;" horiz-adv-x="1202" d="M61 39q0 10 13 52t14 48q7 24 19 80.5t22 85.5q2 8 8.5 24.5t10 30t4.5 27.5q0 3 3 9t3 7q11 22 22 68q25 100 121 393q4 11 8 37q14 69 60 215q11 34 36 119.5t41 132.5q10 23 25 41q7 8 16.5 13t22.5 7t22 3t25 1.5t21 0.5v4q8 -1 29.5 -2.5t31 -2.5t26.5 -5.5 t26.5 -11.5t19.5 -19.5t16 -30.5q91 -272 113 -354q2 -7 2.5 -21t1.5 -18q1 -9 5 -20.5t9.5 -24.5t7.5 -19q24 -73 29 -94q3 -10 12.5 -38.5t12.5 -45.5q5 -19 13 -55t13 -55l43 -140q33 -106 78 -239q8 -21 23 -58.5t26.5 -68.5t20.5 -58q4 -12 4 -20q0 -20 -18 -32.5 t-40 -12.5q-11 0 -23 1t-26.5 2.5t-23.5 2.5h-127q-5 0 -16 -1t-17 -1q-13 0 -45 4q-19 3 -25 23l-2 6q-22 68 -24 84q-1 9 -7.5 27.5t-7.5 27.5q-1 17 -4 19.5t-20 2.5q-11 0 -33 1.5t-33 1.5q-95 0 -190 -3h-8q-14 0 -18 -2.5t-7 -15.5q-10 -29 -23 -117q-6 -28 -19 -40 t-40 -13h-16q-18 0 -53 1t-52 1t-50 -2t-50 -2q-62 0 -62 39zM274 1534q0 11 24 51.5t51 80.5t59.5 86.5t37.5 54.5q22 30 44.5 39.5t62.5 9.5q90 0 133 -8q13 -2 25.5 -10.5t18 -14.5t17.5 -21q74 -94 164 -212q16 -19 16 -48q0 -10 -3.5 -17t-8 -10.5t-13.5 -5.5t-15 -2 t-17.5 0.5t-15.5 0.5q-2 0 -47 -1t-72.5 0t-44.5 5q-25 6 -39 26l-55 88q-16 -7 -31.5 -29t-27 -43t-31 -38t-44.5 -17q-8 0 -26 1t-27 1q-2 0 -15 -0.5t-23 -0.5t-25.5 1t-26.5 3t-22 5.5t-17 10t-6 14.5zM502 451q12 -2 71 -2h111q-4 20 -20.5 53t-20.5 49q-5 18 -30 85.5 t-29 72.5q-15 -43 -82 -258z" />
<glyph unicode="&#xc3;" horiz-adv-x="1202" d="M61 39q0 10 13 52t14 48q7 24 19 80.5t22 85.5q2 8 8.5 24.5t10 30t4.5 27.5q0 3 3 9t3 7q11 22 22 68q25 100 121 393q4 11 8 37q14 69 60 215q11 34 36 119.5t41 132.5q10 23 25 41q7 8 16.5 13t22.5 7t22 3t25 1.5t21 0.5v4q8 -1 29.5 -2.5t31 -2.5t26.5 -5.5 t26.5 -11.5t19.5 -19.5t16 -30.5q91 -272 113 -354q2 -7 2.5 -21t1.5 -18q1 -9 5 -20.5t9.5 -24.5t7.5 -19q24 -73 29 -94q3 -10 12.5 -38.5t12.5 -45.5q5 -19 13 -55t13 -55l43 -140q33 -106 78 -239q8 -21 23 -58.5t26.5 -68.5t20.5 -58q4 -12 4 -20q0 -20 -18 -32.5 t-40 -12.5q-11 0 -23 1t-26.5 2.5t-23.5 2.5h-127q-5 0 -16 -1t-17 -1q-13 0 -45 4q-19 3 -25 23l-2 6q-22 68 -24 84q-1 9 -7.5 27.5t-7.5 27.5q-1 17 -4 19.5t-20 2.5q-11 0 -33 1.5t-33 1.5q-95 0 -190 -3h-8q-14 0 -18 -2.5t-7 -15.5q-10 -29 -23 -117q-6 -28 -19 -40 t-40 -13h-16q-18 0 -53 1t-52 1t-50 -2t-50 -2q-62 0 -62 39zM244 1589q0 109 62.5 192t168.5 83q43 0 86 -28t70.5 -61.5t51 -61.5t30.5 -28q5 0 16 11q4 5 7.5 11t6 10.5t4.5 12.5t3.5 11.5t2.5 12.5t1.5 12t1.5 13.5t1 12.5t0.5 13.5t0.5 12.5q0 16 5.5 23t21.5 8 q58 10 127 10q21 0 35 -12.5t14 -32.5v-8q-2 -12 -6 -43t-8 -47q-17 -87 -71.5 -153t-135.5 -66q-15 0 -47 8q-66 18 -94 35.5t-64 67.5l-23 30q-13 13 -22 13q-8 0 -15 -5t-12 -15.5t-8.5 -20t-6.5 -25t-4 -23l-3 -22.5t-2 -16q-7 -17 -19 -17q-88 0 -158 15q-18 4 -18 67z M502 451q12 -2 71 -2h111q-4 20 -20.5 53t-20.5 49q-5 18 -30 85.5t-29 72.5q-15 -43 -82 -258z" />
<glyph unicode="&#xc4;" horiz-adv-x="1202" d="M61 39q0 10 13 52t14 48q7 24 19 80.5t22 85.5q2 8 8.5 24.5t10 30t4.5 27.5q0 3 3 9t3 7q11 22 22 68q25 100 121 393q4 11 8 37q14 69 60 215q11 34 36 119.5t41 132.5q10 23 25 41q7 8 16.5 13t22.5 7t22 3t25 1.5t21 0.5v4q8 -1 29.5 -2.5t31 -2.5t26.5 -5.5 t26.5 -11.5t19.5 -19.5t16 -30.5q91 -272 113 -354q2 -7 2.5 -21t1.5 -18q1 -9 5 -20.5t9.5 -24.5t7.5 -19q24 -73 29 -94q3 -10 12.5 -38.5t12.5 -45.5q5 -19 13 -55t13 -55l43 -140q33 -106 78 -239q8 -21 23 -58.5t26.5 -68.5t20.5 -58q4 -12 4 -20q0 -20 -18 -32.5 t-40 -12.5q-11 0 -23 1t-26.5 2.5t-23.5 2.5h-127q-5 0 -16 -1t-17 -1q-13 0 -45 4q-19 3 -25 23l-2 6q-22 68 -24 84q-1 9 -7.5 27.5t-7.5 27.5q-1 17 -4 19.5t-20 2.5q-11 0 -33 1.5t-33 1.5q-95 0 -190 -3h-8q-14 0 -18 -2.5t-7 -15.5q-10 -29 -23 -117q-6 -28 -19 -40 t-40 -13h-16q-18 0 -53 1t-52 1t-50 -2t-50 -2q-62 0 -62 39zM240 1622q0 59 46.5 111.5t103.5 52.5q66 0 107.5 -46t41.5 -113q0 -64 -36.5 -103t-100.5 -39q-15 0 -27.5 3t-30.5 10t-26 10q-37 12 -57.5 42.5t-20.5 71.5zM502 451q12 -2 71 -2h111q-4 20 -20.5 53 t-20.5 49q-5 18 -30 85.5t-29 72.5q-15 -43 -82 -258zM674 1641q0 63 39.5 107t101.5 44t105 -44.5t43 -106.5q0 -63 -39 -103t-102 -40q-64 0 -106 40t-42 103z" />
<glyph unicode="&#xc5;" horiz-adv-x="1202" d="M61 39q0 10 13 52t14 48q7 24 19 80.5t22 85.5q2 8 8.5 24.5t10 30t4.5 27.5q0 3 3 9t3 7q11 22 22 68q25 100 121 393q4 11 8 37q14 69 60 215q11 34 36 119.5t41 132.5q10 23 25 41q7 8 16.5 13t22.5 7t22 3t25 1.5t21 0.5v4q8 -1 29.5 -2.5t31 -2.5t26.5 -5.5 t26.5 -11.5t19.5 -19.5t16 -30.5q91 -272 113 -354q2 -7 2.5 -21t1.5 -18q1 -9 5 -20.5t9.5 -24.5t7.5 -19q24 -73 29 -94q3 -10 12.5 -38.5t12.5 -45.5q5 -19 13 -55t13 -55l43 -140q33 -106 78 -239q8 -21 23 -58.5t26.5 -68.5t20.5 -58q4 -12 4 -20q0 -20 -18 -32.5 t-40 -12.5q-11 0 -23 1t-26.5 2.5t-23.5 2.5h-127q-5 0 -16 -1t-17 -1q-13 0 -45 4q-19 3 -25 23l-2 6q-22 68 -24 84q-1 9 -7.5 27.5t-7.5 27.5q-1 17 -4 19.5t-20 2.5q-11 0 -33 1.5t-33 1.5q-95 0 -190 -3h-8q-14 0 -18 -2.5t-7 -15.5q-10 -29 -23 -117q-6 -28 -19 -40 t-40 -13h-16q-18 0 -53 1t-52 1t-50 -2t-50 -2q-62 0 -62 39zM340 1703q0 110 71 188.5t179 78.5q48 0 123 -27q14 -5 27 -12.5t21 -13t20.5 -18.5t17 -18t18.5 -22.5t17 -21.5q28 -36 28 -64q0 -118 -78 -209q-8 -9 -18.5 -17t-17.5 -12.5t-21.5 -12.5t-19.5 -11 q-50 -31 -119 -31q-26 0 -47 8q-49 17 -103 43q-8 3 -14 9q-84 70 -84 163zM502 451q12 -2 71 -2h111q-4 20 -20.5 53t-20.5 49q-5 18 -30 85.5t-29 72.5q-15 -43 -82 -258zM520 1732q0 -32 21 -52t53 -20q37 0 52 11t24 43q6 24 6 30q0 31 -20.5 51.5t-51.5 20.5 q-84 0 -84 -84z" />
<glyph unicode="&#xc6;" horiz-adv-x="2000" d="M61 35q0 4 21 38.5t47.5 76t28.5 45.5q22 39 72 120t75 125l125 219q15 30 19 35l45 75l45 75l30 69q3 7 12 17t11 14q15 23 56 91t65 102q60 85 94 143q4 7 9.5 21.5t11.5 24.5t16 17q53 41 97.5 54.5t115.5 13.5q6 0 18.5 -1t18.5 -1q15 0 47 5.5t39 4.5q16 0 48 -1 t48 -1q6 0 19.5 2t19.5 2h53q26 0 80 4h88q14 0 43 2.5t45 2.5q22 0 66 1t67 1q36 0 69.5 -12t41.5 -40q2 -7 4 -18.5t4.5 -20.5t7.5 -16q1 -9 5.5 -32t4.5 -36q0 -15 1 -47t1 -47q0 -17 -9.5 -28t-28.5 -15t-33 -6t-38 -2h-28h-41q-6 0 -18.5 1t-18.5 1q-21 0 -61 -4 q-202 -4 -299 -8q-23 -1 -29 -7t-8 -28q0 -10 -1 -30.5t-1 -30.5q0 -1 6 -43h31q127 0 256 6q21 0 61 4t60 4q23 0 73 -8q24 -3 32.5 -11t8.5 -32v-224q0 -26 -26 -26q-14 0 -42 2t-42 2q-12 0 -37 -1t-39 -1q-9 0 -26.5 1t-31.5 1t-26 -2q-8 -1 -31 -4.5t-36 -3.5 q-27 -2 -80 -2q-10 0 -32 1t-34 1q-26 0 -29 -29q-4 -94 -4 -141q0 -16 11 -123q2 -21 8 -28t26 -7h4q17 0 52 -5t53 -5t51.5 3t50.5 3q18 0 53 -2t52 -2q15 0 44.5 3t43.5 3q93 0 112 -2q19 -4 29 -14q14 -14 14 -115q0 -35 -4 -105q-8 -32 -8 -43q0 -18 -0.5 -29t-4.5 -19 t-6.5 -11.5t-12.5 -5t-16 -1.5t-24 0.5t-30 0.5h-70q-52 0 -155.5 4t-155.5 4q-15 0 -46 -3t-46 -3q-6 0 -18.5 1t-18.5 1q-19 0 -59 -4q-16 -3 -52 -4.5t-55 -5.5q-32 -4 -47 -4q-25 0 -49 6q-1 0 -9 3t-9.5 3.5t-8.5 3t-9 3.5t-7.5 4t-7.5 5.5t-5.5 6.5t-5.5 8 q-12 23 -24 122q-3 34 -33 37q-20 2 -59 2q-24 0 -74 -3t-74 -3q-13 0 -43.5 1t-52 0.5t-41.5 -3.5q-36 -4 -61 -61q-5 -12 -13 -23.5t-22 -28t-17 -20.5q-5 -6 -11 -16.5t-12 -15t-18 -9.5q-24 -8 -57 -8q-45 0 -135 8q-35 2 -105 2q-12 0 -28.5 9t-16.5 20zM682 477 q27 -12 49 -12q8 0 23.5 1t23.5 1q12 0 38 -1t40 -1q32 0 90 4q8 50 8 72q0 6 -1 18.5t-1 18.5q0 20 1 57t1 57q0 124 -10 170q-66 -99 -70 -102q-14 -8 -24.5 -21t-14.5 -21l-14 -28q-17 -39 -55 -86q-34 -42 -41 -67q-3 -6 -20.5 -30.5t-22.5 -29.5z" />
<glyph unicode="&#xc7;" horiz-adv-x="1292" d="M123 700q0 6 2 19.5t2 19.5q0 50 10 115q2 14 6.5 28.5t12 32.5t10.5 27q29 88 85.5 171t127.5 144q16 14 47 37t45 35q16 14 38.5 24.5t51.5 20.5t43 17q39 19 95 33t98 14q8 0 24 -1t23 -1q12 0 33.5 1t31.5 1q2 0 95 -6q13 -1 36 -9t29 -10q47 -9 107 -65 q26 -21 26 -66q0 -18 4 -53t4 -51q0 -17 -6.5 -81t-9.5 -79q-8 -25 -29 -25q-19 0 -81.5 51t-79.5 56q-9 2 -38 10.5t-44 12.5t-38 8t-42 4q-26 0 -68 -11q-58 -14 -72 -20q-55 -21 -107 -73.5t-89 -112.5q-30 -48 -33 -130q0 -16 -4 -48t-4 -48q0 -63 37 -168q2 -6 10 -15 t10 -13q6 -8 15.5 -29t15.5 -29q42 -49 74 -61q23 -11 68.5 -27.5t54.5 -19.5q61 -23 114 -23q42 0 96.5 13.5t90.5 33.5q9 6 31 24t41 30t34 12q4 0 12.5 -1t12.5 -1q6 -1 11 -6t7.5 -14t4.5 -17t2.5 -20.5t0.5 -19.5v-18.5v-13.5q0 -135 -10 -203q-6 -58 -145 -98 q-42 -12 -113 -12q-5 -16 -19.5 -43.5t-19.5 -42.5q76 -30 112 -67t36 -109q0 -25 -17 -74q-28 -75 -84.5 -106t-142.5 -31q-116 0 -174 53q-13 17 -13 29q0 10 37 96q10 23 33 23q12 0 47 -14.5t56 -14.5q40 0 40 35q0 13 -8.5 26t-21.5 13q-5 0 -15.5 -2.5t-15.5 -2.5 q-29 0 -60.5 13.5t-31.5 38.5q0 43 104 178q-33 0 -75 10q-10 3 -40 9.5t-51.5 12.5t-37.5 13h4q-139 68 -199 123q-55 49 -66 67q-21 32 -65 88q-85 120 -107 250q-22 121 -22 133z" />
<glyph unicode="&#xc8;" horiz-adv-x="1228" d="M143 1204q0 22 1 68.5t1 70.5q0 33 25.5 62t58.5 29q15 0 42 -4.5t40 -4.5q10 0 29.5 2.5t28.5 2.5q17 0 48 5t46 5q13 0 37 1t37 1q8 0 24.5 -1t24.5 -1q24 0 73 4t74 4q8 0 24.5 -2t24.5 -2q12 0 33 -2t31 -2q86 -4 125 -4q14 0 40 1t38 1q24 0 42.5 -17.5t18.5 -40.5 q0 -133 -2 -196q-5 -58 -43 -58q-8 0 -25.5 2t-25.5 2q-11 0 -34 -2t-36 -2q-18 0 -52 1t-52 1q-123 0 -369 -8v-49q0 -7 -0.5 -22t-0.5 -22t1.5 -19.5t4 -18.5t7.5 -14t12.5 -11.5t19 -6.5t26.5 -3q17 0 49 5.5t49 5.5q11 0 33 -2t33 -2q13 0 39.5 1t41.5 1q9 0 29.5 -1 t30.5 -1q6 0 20 1t21 1q15 0 46 -1t46 -1q18 0 31 -13l14 -6q26 -10 29 -41q12 -66 12 -96q0 -12 -1 -35.5t-1 -34.5q0 -38 -10.5 -55t-46.5 -21q-16 -1 -47 -4.5t-56.5 -5.5t-48.5 -2q-26 0 -77 3t-77 3q-145 0 -202 -10q-17 -2 -17 -33q-10 -117 -10 -211v-75 q3 -15 16 -15q45 -4 136 -4q15 0 43 1t43 1q17 0 48 -1t48 -1q5 0 20 1.5t23 0.5q133 0 199 -4q5 0 16.5 -1t17.5 -1q22 0 32.5 -21.5t10.5 -46.5q0 -13 -2 -38t-2 -37q0 -6 3 -20t3 -21q0 -82 -49 -101q-9 -3 -24 -8.5t-19 -6.5t-13 -3.5t-16 -2.5t-17 -0.5t-27 -0.5 q-59 0 -178.5 6t-180.5 6q-14 0 -43 -2t-45 -2q-20 0 -59 3t-58 3q-11 0 -33.5 -4t-35.5 -4h-92q-30 0 -47.5 17.5t-21.5 38t-7.5 42t-7.5 25.5v8q0 56 2 167.5t2 166.5q0 13 -1 40t-1 40q0 23 4 66.5t4 64.5q0 18 -5 55t-5 57q0 16 2 48t2 49q0 25 -3 75t-3 74q0 16 2 48 t2 48q0 12 -5.5 36t-5.5 38zM242 1864q0 6 9 10t25.5 6t34 3.5t39.5 2t37.5 0.5t32.5 -0.5t19 -0.5q69 0 90 -33q2 -3 33 -52t63 -98.5t59 -97.5t27 -57q0 -25 -127 -25q-9 0 -26.5 2t-26.5 2q-29 0 -45 21q-32 36 -138 172t-106 145z" />
<glyph unicode="&#xc9;" horiz-adv-x="1228" d="M143 1204q0 22 1 68.5t1 70.5q0 33 25.5 62t58.5 29q15 0 42 -4.5t40 -4.5q10 0 29.5 2.5t28.5 2.5q17 0 48 5t46 5q13 0 37 1t37 1q8 0 24.5 -1t24.5 -1q24 0 73 4t74 4q8 0 24.5 -2t24.5 -2q12 0 33 -2t31 -2q86 -4 125 -4q14 0 40 1t38 1q24 0 42.5 -17.5t18.5 -40.5 q0 -133 -2 -196q-5 -58 -43 -58q-8 0 -25.5 2t-25.5 2q-11 0 -34 -2t-36 -2q-18 0 -52 1t-52 1q-123 0 -369 -8v-49q0 -7 -0.5 -22t-0.5 -22t1.5 -19.5t4 -18.5t7.5 -14t12.5 -11.5t19 -6.5t26.5 -3q17 0 49 5.5t49 5.5q11 0 33 -2t33 -2q13 0 39.5 1t41.5 1q9 0 29.5 -1 t30.5 -1q6 0 20 1t21 1q15 0 46 -1t46 -1q18 0 31 -13l14 -6q26 -10 29 -41q12 -66 12 -96q0 -12 -1 -35.5t-1 -34.5q0 -38 -10.5 -55t-46.5 -21q-16 -1 -47 -4.5t-56.5 -5.5t-48.5 -2q-26 0 -77 3t-77 3q-145 0 -202 -10q-17 -2 -17 -33q-10 -117 -10 -211v-75 q3 -15 16 -15q45 -4 136 -4q15 0 43 1t43 1q17 0 48 -1t48 -1q5 0 20 1.5t23 0.5q133 0 199 -4q5 0 16.5 -1t17.5 -1q22 0 32.5 -21.5t10.5 -46.5q0 -13 -2 -38t-2 -37q0 -6 3 -20t3 -21q0 -82 -49 -101q-9 -3 -24 -8.5t-19 -6.5t-13 -3.5t-16 -2.5t-17 -0.5t-27 -0.5 q-59 0 -178.5 6t-180.5 6q-14 0 -43 -2t-45 -2q-20 0 -59 3t-58 3q-11 0 -33.5 -4t-35.5 -4h-92q-30 0 -47.5 17.5t-21.5 38t-7.5 42t-7.5 25.5v8q0 56 2 167.5t2 166.5q0 13 -1 40t-1 40q0 23 4 66.5t4 64.5q0 18 -5 55t-5 57q0 16 2 48t2 49q0 25 -3 75t-3 74q0 16 2 48 t2 48q0 12 -5.5 36t-5.5 38zM590 1555q0 17 77 140t107 165q21 33 88 33q2 0 19 0.5t32.5 0.5t37.5 -0.5t39.5 -2t34 -3.5t25.5 -6t9 -10q0 -9 -102.5 -141t-139.5 -176q-18 -21 -47 -21q-8 0 -26 -2t-27 -2q-127 0 -127 25z" />
<glyph unicode="&#xca;" horiz-adv-x="1228" d="M143 1204q0 22 1 68.5t1 70.5q0 33 25.5 62t58.5 29q15 0 42 -4.5t40 -4.5q10 0 29.5 2.5t28.5 2.5q17 0 48 5t46 5q13 0 37 1t37 1q8 0 24.5 -1t24.5 -1q24 0 73 4t74 4q8 0 24.5 -2t24.5 -2q12 0 33 -2t31 -2q86 -4 125 -4q14 0 40 1t38 1q24 0 42.5 -17.5t18.5 -40.5 q0 -133 -2 -196q-5 -58 -43 -58q-8 0 -25.5 2t-25.5 2q-11 0 -34 -2t-36 -2q-18 0 -52 1t-52 1q-123 0 -369 -8v-49q0 -7 -0.5 -22t-0.5 -22t1.5 -19.5t4 -18.5t7.5 -14t12.5 -11.5t19 -6.5t26.5 -3q17 0 49 5.5t49 5.5q11 0 33 -2t33 -2q13 0 39.5 1t41.5 1q9 0 29.5 -1 t30.5 -1q6 0 20 1t21 1q15 0 46 -1t46 -1q18 0 31 -13l14 -6q26 -10 29 -41q12 -66 12 -96q0 -12 -1 -35.5t-1 -34.5q0 -38 -10.5 -55t-46.5 -21q-16 -1 -47 -4.5t-56.5 -5.5t-48.5 -2q-26 0 -77 3t-77 3q-145 0 -202 -10q-17 -2 -17 -33q-10 -117 -10 -211v-75 q3 -15 16 -15q45 -4 136 -4q15 0 43 1t43 1q17 0 48 -1t48 -1q5 0 20 1.5t23 0.5q133 0 199 -4q5 0 16.5 -1t17.5 -1q22 0 32.5 -21.5t10.5 -46.5q0 -13 -2 -38t-2 -37q0 -6 3 -20t3 -21q0 -82 -49 -101q-9 -3 -24 -8.5t-19 -6.5t-13 -3.5t-16 -2.5t-17 -0.5t-27 -0.5 q-59 0 -178.5 6t-180.5 6q-14 0 -43 -2t-45 -2q-20 0 -59 3t-58 3q-11 0 -33.5 -4t-35.5 -4h-92q-30 0 -47.5 17.5t-21.5 38t-7.5 42t-7.5 25.5v8q0 56 2 167.5t2 166.5q0 13 -1 40t-1 40q0 23 4 66.5t4 64.5q0 18 -5 55t-5 57q0 16 2 48t2 49q0 25 -3 75t-3 74q0 16 2 48 t2 48q0 12 -5.5 36t-5.5 38zM299 1550q0 11 24 51.5t51 80.5t59.5 86.5t37.5 54.5q22 30 44.5 39.5t62.5 9.5q90 0 133 -8q13 -2 25.5 -10.5t18 -14.5t17.5 -21q74 -94 164 -212q16 -19 16 -48q0 -10 -3.5 -17t-8 -10.5t-13.5 -5.5t-15 -2t-17.5 0.5t-15.5 0.5q-2 0 -47 -1 t-72.5 0t-44.5 5q-25 6 -39 26l-55 88q-16 -7 -31.5 -29t-27 -43t-31 -38t-44.5 -17q-8 0 -26 1t-27 1q-2 0 -15 -0.5t-23 -0.5t-25.5 1t-26.5 3t-22 5.5t-17 10t-6 14.5z" />
<glyph unicode="&#xcb;" horiz-adv-x="1228" d="M143 1204q0 22 1 68.5t1 70.5q0 33 25.5 62t58.5 29q15 0 42 -4.5t40 -4.5q10 0 29.5 2.5t28.5 2.5q17 0 48 5t46 5q13 0 37 1t37 1q8 0 24.5 -1t24.5 -1q24 0 73 4t74 4q8 0 24.5 -2t24.5 -2q12 0 33 -2t31 -2q86 -4 125 -4q14 0 40 1t38 1q24 0 42.5 -17.5t18.5 -40.5 q0 -133 -2 -196q-5 -58 -43 -58q-8 0 -25.5 2t-25.5 2q-11 0 -34 -2t-36 -2q-18 0 -52 1t-52 1q-123 0 -369 -8v-49q0 -7 -0.5 -22t-0.5 -22t1.5 -19.5t4 -18.5t7.5 -14t12.5 -11.5t19 -6.5t26.5 -3q17 0 49 5.5t49 5.5q11 0 33 -2t33 -2q13 0 39.5 1t41.5 1q9 0 29.5 -1 t30.5 -1q6 0 20 1t21 1q15 0 46 -1t46 -1q18 0 31 -13l14 -6q26 -10 29 -41q12 -66 12 -96q0 -12 -1 -35.5t-1 -34.5q0 -38 -10.5 -55t-46.5 -21q-16 -1 -47 -4.5t-56.5 -5.5t-48.5 -2q-26 0 -77 3t-77 3q-145 0 -202 -10q-17 -2 -17 -33q-10 -117 -10 -211v-75 q3 -15 16 -15q45 -4 136 -4q15 0 43 1t43 1q17 0 48 -1t48 -1q5 0 20 1.5t23 0.5q133 0 199 -4q5 0 16.5 -1t17.5 -1q22 0 32.5 -21.5t10.5 -46.5q0 -13 -2 -38t-2 -37q0 -6 3 -20t3 -21q0 -82 -49 -101q-9 -3 -24 -8.5t-19 -6.5t-13 -3.5t-16 -2.5t-17 -0.5t-27 -0.5 q-59 0 -178.5 6t-180.5 6q-14 0 -43 -2t-45 -2q-20 0 -59 3t-58 3q-11 0 -33.5 -4t-35.5 -4h-92q-30 0 -47.5 17.5t-21.5 38t-7.5 42t-7.5 25.5v8q0 56 2 167.5t2 166.5q0 13 -1 40t-1 40q0 23 4 66.5t4 64.5q0 18 -5 55t-5 57q0 16 2 48t2 49q0 25 -3 75t-3 74q0 16 2 48 t2 48q0 12 -5.5 36t-5.5 38zM285 1648q0 59 46.5 111.5t103.5 52.5q66 0 107.5 -46t41.5 -113q0 -64 -36.5 -103t-100.5 -39q-15 0 -27.5 3t-30.5 10t-26 10q-37 12 -57.5 42.5t-20.5 71.5zM719 1667q0 63 39.5 107t101.5 44t105 -44.5t43 -106.5q0 -63 -39 -103t-102 -40 q-64 0 -106 40t-42 103z" />
<glyph unicode="&#xcc;" horiz-adv-x="645" d="M-63 1849q0 6 9 10t25.5 6t34 3.5t39.5 2t37.5 0.5t32.5 -0.5t19 -0.5q69 0 90 -33q2 -3 33 -52t63 -98.5t59 -97.5t27 -57q0 -25 -127 -25q-9 0 -26.5 2t-26.5 2q-29 0 -45 21q-32 36 -138 172t-106 145zM143 1329q0 31 2 45q1 19 25 33t45 14h170q22 0 32 -2.5 t25 -10.5t27 -13q20 -7 20 -37q3 -20 3 -80q0 -13 1 -41t1 -43q0 -26 -1 -80t-1 -80v-143q1 -23 4.5 -92.5t3.5 -108.5q0 -12 -11 -119v-6q-1 -11 5 -30t6 -27q0 -20 -4 -62.5t-4 -62.5q0 -19 5 -58t5 -59t-6.5 -61.5t-6.5 -63.5q0 -8 3.5 -25t3.5 -26q0 -39 -12.5 -61.5 t-47.5 -26.5q-58 -8 -86 -8q-97 0 -157 18q-34 8 -37 47q-2 20 -2 66q0 20 2 61.5t2 63.5q0 20 -1 60t-1 61q0 5 1 15t1 15q0 25 -2 77t-2 77v68q0 15 -1 47t-1 49q0 48 1 144t1 143q0 30 -2 88t-2 86l2 39q0 19 -4.5 55t-4.5 55z" />
<glyph unicode="&#xcd;" horiz-adv-x="645" d="M143 1329q0 31 2 45q1 19 25 33t45 14h170q22 0 32 -2.5t25 -10.5t27 -13q20 -7 20 -37q3 -20 3 -80q0 -13 1 -41t1 -43q0 -26 -1 -80t-1 -80v-143q1 -23 4.5 -92.5t3.5 -108.5q0 -12 -11 -119v-6q-1 -11 5 -30t6 -27q0 -20 -4 -62.5t-4 -62.5q0 -19 5 -58t5 -59 t-6.5 -61.5t-6.5 -63.5q0 -8 3.5 -25t3.5 -26q0 -39 -12.5 -61.5t-47.5 -26.5q-58 -8 -86 -8q-97 0 -157 18q-34 8 -37 47q-2 20 -2 66q0 20 2 61.5t2 63.5q0 20 -1 60t-1 61q0 5 1 15t1 15q0 25 -2 77t-2 77v68q0 15 -1 47t-1 49q0 48 1 144t1 143q0 30 -2 88t-2 86l2 39 q0 19 -4.5 55t-4.5 55zM236 1526q0 17 77 140t107 165q21 33 88 33q2 0 19 0.5t32.5 0.5t37.5 -0.5t39.5 -2t34 -3.5t25.5 -6t9 -10q0 -9 -102.5 -141t-139.5 -176q-18 -21 -47 -21q-8 0 -26 -2t-27 -2q-127 0 -127 25z" />
<glyph unicode="&#xce;" horiz-adv-x="645" d="M-4 1528q0 11 24 51.5t51 80.5t59.5 86.5t37.5 54.5q22 30 44.5 39.5t62.5 9.5q90 0 133 -8q13 -2 25.5 -10.5t18 -14.5t17.5 -21q74 -94 164 -212q16 -19 16 -48q0 -10 -3.5 -17t-8 -10.5t-13.5 -5.5t-15 -2t-17.5 0.5t-15.5 0.5q-2 0 -47 -1t-72.5 0t-44.5 5 q-25 6 -39 26l-55 88q-16 -7 -31.5 -29t-27 -43t-31 -38t-44.5 -17q-8 0 -26 1t-27 1q-2 0 -15 -0.5t-23 -0.5t-25.5 1t-26.5 3t-22 5.5t-17 10t-6 14.5zM143 1329q0 31 2 45q1 19 25 33t45 14h170q22 0 32 -2.5t25 -10.5t27 -13q20 -7 20 -37q3 -20 3 -80q0 -13 1 -41 t1 -43q0 -26 -1 -80t-1 -80v-143q1 -23 4.5 -92.5t3.5 -108.5q0 -12 -11 -119v-6q-1 -11 5 -30t6 -27q0 -20 -4 -62.5t-4 -62.5q0 -19 5 -58t5 -59t-6.5 -61.5t-6.5 -63.5q0 -8 3.5 -25t3.5 -26q0 -39 -12.5 -61.5t-47.5 -26.5q-58 -8 -86 -8q-97 0 -157 18q-34 8 -37 47 q-2 20 -2 66q0 20 2 61.5t2 63.5q0 20 -1 60t-1 61q0 5 1 15t1 15q0 25 -2 77t-2 77v68q0 15 -1 47t-1 49q0 48 1 144t1 143q0 30 -2 88t-2 86l2 39q0 19 -4.5 55t-4.5 55z" />
<glyph unicode="&#xcf;" horiz-adv-x="645" d="M-39 1630q0 59 46.5 111.5t103.5 52.5q66 0 107.5 -46t41.5 -113q0 -64 -36.5 -103t-100.5 -39q-15 0 -27.5 3t-30.5 10t-26 10q-37 12 -57.5 42.5t-20.5 71.5zM143 1329q0 31 2 45q1 19 25 33t45 14h170q22 0 32 -2.5t25 -10.5t27 -13q20 -7 20 -37q3 -20 3 -80 q0 -13 1 -41t1 -43q0 -26 -1 -80t-1 -80v-143q1 -23 4.5 -92.5t3.5 -108.5q0 -12 -11 -119v-6q-1 -11 5 -30t6 -27q0 -20 -4 -62.5t-4 -62.5q0 -19 5 -58t5 -59t-6.5 -61.5t-6.5 -63.5q0 -8 3.5 -25t3.5 -26q0 -39 -12.5 -61.5t-47.5 -26.5q-58 -8 -86 -8q-97 0 -157 18 q-34 8 -37 47q-2 20 -2 66q0 20 2 61.5t2 63.5q0 20 -1 60t-1 61q0 5 1 15t1 15q0 25 -2 77t-2 77v68q0 15 -1 47t-1 49q0 48 1 144t1 143q0 30 -2 88t-2 86l2 39q0 19 -4.5 55t-4.5 55zM395 1649q0 63 39.5 107t101.5 44t105 -44.5t43 -106.5q0 -63 -39 -103t-102 -40 q-64 0 -106 40t-42 103z" />
<glyph unicode="&#xd0;" horiz-adv-x="1404" d="M61 631q0 17 2.5 49t2.5 49q0 8 -2.5 24.5t-2.5 24.5q0 16 10 25.5t31 13t34 5t39.5 0.5t27.5 -1q6 18 6 37q0 10 -1 31t-1 31q0 16 1 49t1 49q0 131 -6 174q-6 31 -6 104q0 58 12 95q9 39 88 39q20 0 61.5 -3.5t63.5 -3.5q6 0 20 1t21 1q23 0 71.5 -7t73.5 -7 q6 0 18.5 2t18.5 2q33 0 78 -18q7 -3 61 -19q90 -29 160 -71q7 -4 25 -17q48 -36 71 -54.5t61 -53t63 -68t42 -70.5q40 -88 68 -165q6 -15 6 -68q0 -15 -1 -45t-1 -45q0 -20 -5 -55.5t-5 -53.5v-20q0 -56 -66 -191q-34 -75 -104 -145l-66 -70q-1 -1 -55 -43 q-47 -36 -85.5 -57.5t-61.5 -30t-95 -32.5q-42 -16 -47 -17q-25 -7 -75.5 -10.5t-73.5 -9.5q-10 -2 -29 -2q-28 0 -85 3t-85 3q-4 0 -24 -1t-31 -0.5t-26 4t-22.5 13t-7.5 25.5q0 5 2 13.5t2 12.5q0 108 -4 312q-1 18 -2.5 49.5t-2.5 57.5t-1 50q0 4 1 17.5t0.5 19t-6 11.5 t-17.5 6q-15 0 -43 -1t-43 -1q-31 0 -42.5 12t-11.5 41zM541 948q0 -73 6 -112h6q8 0 26 1t27 1q25 0 42 -7t26 -17t13.5 -27t5.5 -31.5t3 -37.5t4 -38q1 -6 5 -23t4 -26q0 -23 -17.5 -40.5t-40.5 -17.5q-55 0 -82 -6q-20 -6 -20 -26q0 -126 4 -187q0 -22 18 -22 q64 0 144 41q18 9 22 10q13 4 23.5 11t23 17t19.5 15q129 87 129 291q0 67 -6 90q-44 144 -103 197q-49 39 -71 49q-35 18 -87 35.5t-81 17.5h-8.5h-9t-7.5 -0.5t-7.5 -2t-5.5 -4t-4 -6.5t-1 -10v-135z" />
<glyph unicode="&#xd1;" horiz-adv-x="1400" d="M143 973q0 19 1 54t1 52q0 220 17 303q13 58 135 58q6 0 18.5 -3t18.5 -3q4 0 12 2t12 2q29 0 56 -35q33 -49 89.5 -145.5t69.5 -116.5l70 -103l23 -37q7 -11 23.5 -31t23.5 -32q25 -37 84 -131t94 -143h6q8 51 8 155q0 19 -1 54.5t-1 52.5q0 64 5 193t5 194 q0 12 -2 33.5t-2 31.5q0 11 3 20.5t6.5 15.5t11.5 10.5t13 6.5t17 3.5t16.5 2t18.5 1t17 0.5q8 0 24.5 1t24.5 1h2q47 -15 100 -15h13h14t13.5 -0.5t14 -2t12 -3.5t11.5 -6t8 -9t6 -12t2 -16q0 -25 -3 -76.5t-3 -78.5q0 -11 1 -34t1 -34q0 -15 -3 -45t-3 -45q0 -21 2 -65 t2 -66q0 -9 -4 -36.5t-4 -41.5q0 -9 2 -26.5t2 -26.5q0 -57 -1 -173t-1 -175q0 -18 3 -52.5t3 -50.5q0 -9 -1 -27.5t-1 -27.5q0 -17 1 -62.5t1.5 -73.5t-3.5 -65.5t-13 -64.5q-9 -23 -37 -27q-26 -4 -154 -4q-83 0 -120 20q-54 28 -74 66q-55 93 -145 217q-16 20 -38 62 t-34 59q-7 10 -28.5 41t-31.5 49q-9 12 -24 39t-29.5 47t-30.5 33q-8 -16 -8 -64q0 -13 2 -38.5t2 -39.5q0 -90 2 -137q0 -12 3.5 -38t3.5 -40q0 -67 -2 -100q0 -5 -1.5 -15.5t-1.5 -15.5q0 -13 1.5 -37t1.5 -36q0 -20 -19 -47q-9 -15 -39 -15q-41 0 -133.5 3t-105.5 7 q-43 14 -43 62q0 35 3 104.5t3 104.5q0 95 -4 291q-1 55 -6 188t-5 205zM346 1603q0 109 62.5 192t168.5 83q43 0 86 -28t70.5 -61.5t51 -61.5t30.5 -28q5 0 16 11q4 5 7.5 11t6 10.5t4.5 12.5t3.5 11.5t2.5 12.5t1.5 12t1.5 13.5t1 12.5t0.5 13.5t0.5 12.5q0 16 5.5 23 t21.5 8q58 10 127 10q21 0 35 -12.5t14 -32.5v-8q-2 -12 -6 -43t-8 -47q-17 -87 -71.5 -153t-135.5 -66q-15 0 -47 8q-66 18 -94 35.5t-64 67.5l-23 30q-13 13 -22 13q-8 0 -15 -5t-12 -15.5t-8.5 -20t-6.5 -25t-4 -23l-3 -22.5t-2 -16q-7 -17 -19 -17q-88 0 -158 15 q-18 4 -18 67z" />
<glyph unicode="&#xd2;" horiz-adv-x="1720" d="M123 678q0 22 2 46.5t5.5 54.5t4.5 46q0 17 12.5 43t14.5 31q25 71 36 102t41.5 87.5t63.5 87.5l105 94q2 2 10 11.5t14 14.5q65 45 92 58q11 6 33.5 12.5t30.5 9.5q10 4 33.5 14.5t35.5 15t31.5 10.5t37.5 9.5t38 4.5q33 2 100 2q9 0 29 -1t29 -1q6 0 19.5 1t19.5 1 q39 0 83 -13q13 -3 44 -10.5t53.5 -13.5t42.5 -13q19 -6 86 -43q71 -41 116 -102q9 -9 11 -10q12 -11 24 -25.5t19.5 -25t19 -29t17.5 -27.5q10 -16 39 -76q1 -2 10.5 -19.5t10.5 -20t8.5 -17.5t9 -19t7 -17t7.5 -20t5.5 -18.5t5 -22t3.5 -22.5q1 -7 7.5 -43t6.5 -53 q0 -70 -14 -180q-1 -5 -6.5 -21t-5.5 -18q0 -18 -15 -58.5t-26 -56.5q-35 -54 -45 -90l-6 -14q-106 -157 -252 -236q-3 -2 -44 -25t-69 -37.5t-41 -17.5q-146 -24 -188 -24q-59 0 -84 6q-23 4 -49.5 10.5t-58 14.5t-48.5 12q-104 25 -172 67t-170 129q-47 43 -63 74 q-6 12 -21 31t-18 24q-18 29 -34.5 90.5t-21.5 73.5q-4 13 -13 74.5t-9 77.5zM424 1872q0 6 9 10t25.5 6t34 3.5t39.5 2t37.5 0.5t32.5 -0.5t19 -0.5q69 0 90 -33q2 -3 33 -52t63 -98.5t59 -97.5t27 -57q0 -25 -127 -25q-9 0 -26.5 2t-26.5 2q-29 0 -45 21q-32 36 -138 172 t-106 145zM457 674q0 -82 30 -129q37 -65 148 -130t186 -65q3 0 45 6l109 11q24 3 64.5 24t60.5 39q11 9 25 29t22 28q3 4 14 13t15 16q24 41 37.5 102t13.5 115q0 50 -39 150q-20 59 -98 133q-19 19 -91 42t-104 23h-66q-39 1 -75.5 -13t-48.5 -15q-24 -2 -56 -27 q-1 -1 -30 -19.5t-41 -29.5q-29 -25 -72 -100q-20 -34 -34.5 -97t-14.5 -106z" />
<glyph unicode="&#xd3;" horiz-adv-x="1720" d="M123 678q0 22 2 46.5t5.5 54.5t4.5 46q0 17 12.5 43t14.5 31q25 71 36 102t41.5 87.5t63.5 87.5l105 94q2 2 10 11.5t14 14.5q65 45 92 58q11 6 33.5 12.5t30.5 9.5q10 4 33.5 14.5t35.5 15t31.5 10.5t37.5 9.5t38 4.5q33 2 100 2q9 0 29 -1t29 -1q6 0 19.5 1t19.5 1 q39 0 83 -13q13 -3 44 -10.5t53.5 -13.5t42.5 -13q19 -6 86 -43q71 -41 116 -102q9 -9 11 -10q12 -11 24 -25.5t19.5 -25t19 -29t17.5 -27.5q10 -16 39 -76q1 -2 10.5 -19.5t10.5 -20t8.5 -17.5t9 -19t7 -17t7.5 -20t5.5 -18.5t5 -22t3.5 -22.5q1 -7 7.5 -43t6.5 -53 q0 -70 -14 -180q-1 -5 -6.5 -21t-5.5 -18q0 -18 -15 -58.5t-26 -56.5q-35 -54 -45 -90l-6 -14q-106 -157 -252 -236q-3 -2 -44 -25t-69 -37.5t-41 -17.5q-146 -24 -188 -24q-59 0 -84 6q-23 4 -49.5 10.5t-58 14.5t-48.5 12q-104 25 -172 67t-170 129q-47 43 -63 74 q-6 12 -21 31t-18 24q-18 29 -34.5 90.5t-21.5 73.5q-4 13 -13 74.5t-9 77.5zM457 674q0 -82 30 -129q37 -65 148 -130t186 -65q3 0 45 6l109 11q24 3 64.5 24t60.5 39q11 9 25 29t22 28q3 4 14 13t15 16q24 41 37.5 102t13.5 115q0 50 -39 150q-20 59 -98 133 q-19 19 -91 42t-104 23h-66q-39 1 -75.5 -13t-48.5 -15q-24 -2 -56 -27q-1 -1 -30 -19.5t-41 -29.5q-29 -25 -72 -100q-20 -34 -34.5 -97t-14.5 -106zM776 1551q0 17 77 140t107 165q21 33 88 33q2 0 19 0.5t32.5 0.5t37.5 -0.5t39.5 -2t34 -3.5t25.5 -6t9 -10 q0 -9 -102.5 -141t-139.5 -176q-18 -21 -47 -21q-8 0 -26 -2t-27 -2q-127 0 -127 25z" />
<glyph unicode="&#xd4;" horiz-adv-x="1720" d="M123 678q0 22 2 46.5t5.5 54.5t4.5 46q0 17 12.5 43t14.5 31q25 71 36 102t41.5 87.5t63.5 87.5l105 94q2 2 10 11.5t14 14.5q65 45 92 58q11 6 33.5 12.5t30.5 9.5q10 4 33.5 14.5t35.5 15t31.5 10.5t37.5 9.5t38 4.5q33 2 100 2q9 0 29 -1t29 -1q6 0 19.5 1t19.5 1 q39 0 83 -13q13 -3 44 -10.5t53.5 -13.5t42.5 -13q19 -6 86 -43q71 -41 116 -102q9 -9 11 -10q12 -11 24 -25.5t19.5 -25t19 -29t17.5 -27.5q10 -16 39 -76q1 -2 10.5 -19.5t10.5 -20t8.5 -17.5t9 -19t7 -17t7.5 -20t5.5 -18.5t5 -22t3.5 -22.5q1 -7 7.5 -43t6.5 -53 q0 -70 -14 -180q-1 -5 -6.5 -21t-5.5 -18q0 -18 -15 -58.5t-26 -56.5q-35 -54 -45 -90l-6 -14q-106 -157 -252 -236q-3 -2 -44 -25t-69 -37.5t-41 -17.5q-146 -24 -188 -24q-59 0 -84 6q-23 4 -49.5 10.5t-58 14.5t-48.5 12q-104 25 -172 67t-170 129q-47 43 -63 74 q-6 12 -21 31t-18 24q-18 29 -34.5 90.5t-21.5 73.5q-4 13 -13 74.5t-9 77.5zM457 674q0 -82 30 -129q37 -65 148 -130t186 -65q3 0 45 6l109 11q24 3 64.5 24t60.5 39q11 9 25 29t22 28q3 4 14 13t15 16q24 41 37.5 102t13.5 115q0 50 -39 150q-20 59 -98 133 q-19 19 -91 42t-104 23h-66q-39 1 -75.5 -13t-48.5 -15q-24 -2 -56 -27q-1 -1 -30 -19.5t-41 -29.5q-29 -25 -72 -100q-20 -34 -34.5 -97t-14.5 -106zM532 1521q0 11 24 51.5t51 80.5t59.5 86.5t37.5 54.5q22 30 44.5 39.5t62.5 9.5q90 0 133 -8q13 -2 25.5 -10.5t18 -14.5 t17.5 -21q74 -94 164 -212q16 -19 16 -48q0 -10 -3.5 -17t-8 -10.5t-13.5 -5.5t-15 -2t-17.5 0.5t-15.5 0.5q-2 0 -47 -1t-72.5 0t-44.5 5q-25 6 -39 26l-55 88q-16 -7 -31.5 -29t-27 -43t-31 -38t-44.5 -17q-8 0 -26 1t-27 1q-2 0 -15 -0.5t-23 -0.5t-25.5 1t-26.5 3 t-22 5.5t-17 10t-6 14.5z" />
<glyph unicode="&#xd5;" horiz-adv-x="1720" d="M123 678q0 22 2 46.5t5.5 54.5t4.5 46q0 17 12.5 43t14.5 31q25 71 36 102t41.5 87.5t63.5 87.5l105 94q2 2 10 11.5t14 14.5q65 45 92 58q11 6 33.5 12.5t30.5 9.5q10 4 33.5 14.5t35.5 15t31.5 10.5t37.5 9.5t38 4.5q33 2 100 2q9 0 29 -1t29 -1q6 0 19.5 1t19.5 1 q39 0 83 -13q13 -3 44 -10.5t53.5 -13.5t42.5 -13q19 -6 86 -43q71 -41 116 -102q9 -9 11 -10q12 -11 24 -25.5t19.5 -25t19 -29t17.5 -27.5q10 -16 39 -76q1 -2 10.5 -19.5t10.5 -20t8.5 -17.5t9 -19t7 -17t7.5 -20t5.5 -18.5t5 -22t3.5 -22.5q1 -7 7.5 -43t6.5 -53 q0 -70 -14 -180q-1 -5 -6.5 -21t-5.5 -18q0 -18 -15 -58.5t-26 -56.5q-35 -54 -45 -90l-6 -14q-106 -157 -252 -236q-3 -2 -44 -25t-69 -37.5t-41 -17.5q-146 -24 -188 -24q-59 0 -84 6q-23 4 -49.5 10.5t-58 14.5t-48.5 12q-104 25 -172 67t-170 129q-47 43 -63 74 q-6 12 -21 31t-18 24q-18 29 -34.5 90.5t-21.5 73.5q-4 13 -13 74.5t-9 77.5zM457 674q0 -82 30 -129q37 -65 148 -130t186 -65q3 0 45 6l109 11q24 3 64.5 24t60.5 39q11 9 25 29t22 28q3 4 14 13t15 16q24 41 37.5 102t13.5 115q0 50 -39 150q-20 59 -98 133 q-19 19 -91 42t-104 23h-66q-39 1 -75.5 -13t-48.5 -15q-24 -2 -56 -27q-1 -1 -30 -19.5t-41 -29.5q-29 -25 -72 -100q-20 -34 -34.5 -97t-14.5 -106zM502 1585q0 109 62.5 192t168.5 83q43 0 86 -28t70.5 -61.5t51 -61.5t30.5 -28q5 0 16 11q4 5 7.5 11t6 10.5t4.5 12.5 t3.5 11.5t2.5 12.5t1.5 12t1.5 13.5t1 12.5t0.5 13.5t0.5 12.5q0 16 5.5 23t21.5 8q58 10 127 10q21 0 35 -12.5t14 -32.5v-8q-2 -12 -6 -43t-8 -47q-17 -87 -71.5 -153t-135.5 -66q-15 0 -47 8q-66 18 -94 35.5t-64 67.5l-23 30q-13 13 -22 13q-8 0 -15 -5t-12 -15.5 t-8.5 -20t-6.5 -25t-4 -23l-3 -22.5t-2 -16q-7 -17 -19 -17q-88 0 -158 15q-18 4 -18 67z" />
<glyph unicode="&#xd6;" horiz-adv-x="1720" d="M123 678q0 22 2 46.5t5.5 54.5t4.5 46q0 17 12.5 43t14.5 31q25 71 36 102t41.5 87.5t63.5 87.5l105 94q2 2 10 11.5t14 14.5q65 45 92 58q11 6 33.5 12.5t30.5 9.5q10 4 33.5 14.5t35.5 15t31.5 10.5t37.5 9.5t38 4.5q33 2 100 2q9 0 29 -1t29 -1q6 0 19.5 1t19.5 1 q39 0 83 -13q13 -3 44 -10.5t53.5 -13.5t42.5 -13q19 -6 86 -43q71 -41 116 -102q9 -9 11 -10q12 -11 24 -25.5t19.5 -25t19 -29t17.5 -27.5q10 -16 39 -76q1 -2 10.5 -19.5t10.5 -20t8.5 -17.5t9 -19t7 -17t7.5 -20t5.5 -18.5t5 -22t3.5 -22.5q1 -7 7.5 -43t6.5 -53 q0 -70 -14 -180q-1 -5 -6.5 -21t-5.5 -18q0 -18 -15 -58.5t-26 -56.5q-35 -54 -45 -90l-6 -14q-106 -157 -252 -236q-3 -2 -44 -25t-69 -37.5t-41 -17.5q-146 -24 -188 -24q-59 0 -84 6q-23 4 -49.5 10.5t-58 14.5t-48.5 12q-104 25 -172 67t-170 129q-47 43 -63 74 q-6 12 -21 31t-18 24q-18 29 -34.5 90.5t-21.5 73.5q-4 13 -13 74.5t-9 77.5zM457 674q0 -82 30 -129q37 -65 148 -130t186 -65q3 0 45 6l109 11q24 3 64.5 24t60.5 39q11 9 25 29t22 28q3 4 14 13t15 16q24 41 37.5 102t13.5 115q0 50 -39 150q-20 59 -98 133 q-19 19 -91 42t-104 23h-66q-39 1 -75.5 -13t-48.5 -15q-24 -2 -56 -27q-1 -1 -30 -19.5t-41 -29.5q-29 -25 -72 -100q-20 -34 -34.5 -97t-14.5 -106zM498 1613q0 59 46.5 111.5t103.5 52.5q66 0 107.5 -46t41.5 -113q0 -64 -36.5 -103t-100.5 -39q-15 0 -27.5 3t-30.5 10 t-26 10q-37 12 -57.5 42.5t-20.5 71.5zM932 1632q0 63 39.5 107t101.5 44t105 -44.5t43 -106.5q0 -63 -39 -103t-102 -40q-64 0 -106 40t-42 103z" />
<glyph unicode="&#xd7;" horiz-adv-x="897" d="M102 885q0 16 17 30q5 4 42.5 39.5t59.5 51.5q16 12 45 41q12 12 23 12q19 0 59 -42.5t58 -70.5q2 -3 30 -31l21 21q1 1 39 38.5t70 65t42 27.5q20 0 50 -26t63 -61.5t47 -45.5q27 -19 27 -45q0 -25 -25 -43q-28 -21 -49 -49q-42 -42 -72 -66q10 -17 45.5 -48.5t64.5 -61 t29 -48.5q0 -8 -12.5 -24t-33 -36t-39 -37t-39.5 -35.5t-25 -22.5q-19 -15 -35 -15q-19 0 -53.5 30.5t-64 61.5t-35.5 31q-9 0 -51 -46.5t-58 -67.5q-19 -23 -39 -23q-28 0 -109 73.5t-81 92.5q0 16 57.5 73.5t89.5 82.5q-13 26 -35.5 49.5t-59.5 53t-46 38.5q-17 17 -17 33 z" />
<glyph unicode="&#xd8;" horiz-adv-x="1763" d="M123 672q0 105 20 176q3 9 5.5 24t6.5 26t11 22q4 7 16.5 50t16.5 54q14 30 36 63.5t37.5 52t50 58t44.5 51.5q23 25 98 74q91 60 149 70q11 2 40 11t46 11q8 1 45.5 8t57.5 7q29 0 90 -8.5t92 -8.5h25q9 0 66.5 -14.5t78.5 -20.5q3 -1 20.5 -9.5t24.5 -8.5t28.5 25.5 t47.5 51t43 25.5q12 0 28 -7t38 -21.5t34 -23.5t37 -28l25 -20q14 -9 27.5 -30t13.5 -36q0 -17 -22.5 -38t-22.5 -27q0 -10 8 -14q52 -62 71 -113q5 -15 19.5 -41t19.5 -39q7 -16 20.5 -63.5t16.5 -65.5q8 -63 8 -145q0 -122 -43 -273q-10 -38 -65 -145q-13 -24 -43.5 -58.5 t-38.5 -46.5q-12 -16 -28.5 -31.5t-27.5 -24t-35 -25.5t-32 -23q-130 -104 -317 -137q-16 -2 -99 -2q-92 0 -135 6q-18 3 -100 28q-78 20 -160 60q-5 -5 -31 -40t-46 -51t-44 -16q-10 0 -22 9q-68 50 -113 92q-12 9 -12 28q0 21 35 66q3 4 11 9t11 9q4 4 19 29l-7 6 q-64 52 -116 145.5t-66 176.5q-12 65 -12 131zM489 692q0 -36 20 -100t42 -84q22 18 47.5 50t59.5 80.5t42 59.5q240 311 291 381q-46 21 -112 21q-171 0 -280.5 -118t-109.5 -290zM743 330q53 -19 121 -19q56 0 80.5 1t67 10t73.5 28q6 4 25 16t27.5 18t21.5 17t23 23 q114 150 114 305q0 45 -21.5 105.5t-51.5 83.5q-20 -16 -52 -56q-23 -30 -98 -119q-11 -14 -33 -45t-36 -47q-10 -11 -79 -91t-104 -124l-20 -24t-23 -27.5t-18.5 -25t-16.5 -29.5z" />
<glyph unicode="&#xd9;" horiz-adv-x="1247" d="M123 1174q0 68 8 194q3 49 43 57q36 7 90 7q20 0 59 -1t58 -1q24 0 35 -17q12 -10 26 -33q9 -18 9 -96q0 -10 -2.5 -30.5t-2.5 -30.5q0 -35 5.5 -103t5.5 -102q0 -26 1 -76t1 -74q0 -16 -1 -49t-1 -49q0 -112 10 -195q13 -116 32 -160q38 -87 136 -87q78 0 115.5 46.5 t37.5 127.5q0 14 -1 41t-1 41q1 19 4 92.5t3 114.5q0 10 -1 30.5t-1 32.5q0 15 2 47t2 49q0 7 -2 22.5t-2 22.5q0 8 2 26t2 26q0 38 -5.5 114.5t-5.5 114.5q0 18 1 52t1 52q3 58 86 58q140 0 189 -8q34 -5 43 -44q12 -41 12 -231h-2v-70q0 -31 2 -47q0 -16 4 -50t4 -50 q0 -12 -2 -33t-2 -31q0 -20 2 -60t2 -60q0 -24 -6 -71t-6 -71q0 -243 -39 -340q-117 -274 -407 -274q-300 0 -404 145q-71 100 -94 211q-2 9 -11.5 40.5t-9.5 49.5q0 70 -12 119q0 4 -1 12.5t-1 12.5q0 9 1 27.5t1 27.5q0 25 -4 73.5t-4 71.5q0 18 4 54t4 53q0 65 -8 117 q-2 10 -2 28q0 8 2 26t2 26q0 15 -3 42t-3 40zM256 1778q0 6 9 10t25.5 6t34 3.5t39.5 2t37.5 0.5t32.5 -0.5t19 -0.5q69 0 90 -33q2 -3 33 -52t63 -98.5t59 -97.5t27 -57q0 -25 -127 -25q-9 0 -26.5 2t-26.5 2q-29 0 -45 21q-32 36 -138 172t-106 145z" />
<glyph unicode="&#xda;" horiz-adv-x="1247" d="M123 1174q0 68 8 194q3 49 43 57q36 7 90 7q20 0 59 -1t58 -1q24 0 35 -17q12 -10 26 -33q9 -18 9 -96q0 -10 -2.5 -30.5t-2.5 -30.5q0 -35 5.5 -103t5.5 -102q0 -26 1 -76t1 -74q0 -16 -1 -49t-1 -49q0 -112 10 -195q13 -116 32 -160q38 -87 136 -87q78 0 115.5 46.5 t37.5 127.5q0 14 -1 41t-1 41q1 19 4 92.5t3 114.5q0 10 -1 30.5t-1 32.5q0 15 2 47t2 49q0 7 -2 22.5t-2 22.5q0 8 2 26t2 26q0 38 -5.5 114.5t-5.5 114.5q0 18 1 52t1 52q3 58 86 58q140 0 189 -8q34 -5 43 -44q12 -41 12 -231h-2v-70q0 -31 2 -47q0 -16 4 -50t4 -50 q0 -12 -2 -33t-2 -31q0 -20 2 -60t2 -60q0 -24 -6 -71t-6 -71q0 -243 -39 -340q-117 -274 -407 -274q-300 0 -404 145q-71 100 -94 211q-2 9 -11.5 40.5t-9.5 49.5q0 70 -12 119q0 4 -1 12.5t-1 12.5q0 9 1 27.5t1 27.5q0 25 -4 73.5t-4 71.5q0 18 4 54t4 53q0 65 -8 117 q-2 10 -2 28q0 8 2 26t2 26q0 15 -3 42t-3 40zM518 1473q0 17 77 140t107 165q21 33 88 33q2 0 19 0.5t32.5 0.5t37.5 -0.5t39.5 -2t34 -3.5t25.5 -6t9 -10q0 -9 -102.5 -141t-139.5 -176q-18 -21 -47 -21q-8 0 -26 -2t-27 -2q-127 0 -127 25z" />
<glyph unicode="&#xdb;" horiz-adv-x="1247" d="M123 1174q0 68 8 194q3 49 43 57q36 7 90 7q20 0 59 -1t58 -1q24 0 35 -17q12 -10 26 -33q9 -18 9 -96q0 -10 -2.5 -30.5t-2.5 -30.5q0 -35 5.5 -103t5.5 -102q0 -26 1 -76t1 -74q0 -16 -1 -49t-1 -49q0 -112 10 -195q13 -116 32 -160q38 -87 136 -87q78 0 115.5 46.5 t37.5 127.5q0 14 -1 41t-1 41q1 19 4 92.5t3 114.5q0 10 -1 30.5t-1 32.5q0 15 2 47t2 49q0 7 -2 22.5t-2 22.5q0 8 2 26t2 26q0 38 -5.5 114.5t-5.5 114.5q0 18 1 52t1 52q3 58 86 58q140 0 189 -8q34 -5 43 -44q12 -41 12 -231h-2v-70q0 -31 2 -47q0 -16 4 -50t4 -50 q0 -12 -2 -33t-2 -31q0 -20 2 -60t2 -60q0 -24 -6 -71t-6 -71q0 -243 -39 -340q-117 -274 -407 -274q-300 0 -404 145q-71 100 -94 211q-2 9 -11.5 40.5t-9.5 49.5q0 70 -12 119q0 4 -1 12.5t-1 12.5q0 9 1 27.5t1 27.5q0 25 -4 73.5t-4 71.5q0 18 4 54t4 53q0 65 -8 117 q-2 10 -2 28q0 8 2 26t2 26q0 15 -3 42t-3 40zM297 1532q0 11 24 51.5t51 80.5t59.5 86.5t37.5 54.5q22 30 44.5 39.5t62.5 9.5q90 0 133 -8q13 -2 25.5 -10.5t18 -14.5t17.5 -21q74 -94 164 -212q16 -19 16 -48q0 -10 -3.5 -17t-8 -10.5t-13.5 -5.5t-15 -2t-17.5 0.5 t-15.5 0.5q-2 0 -47 -1t-72.5 0t-44.5 5q-25 6 -39 26l-55 88q-16 -7 -31.5 -29t-27 -43t-31 -38t-44.5 -17q-8 0 -26 1t-27 1q-2 0 -15 -0.5t-23 -0.5t-25.5 1t-26.5 3t-22 5.5t-17 10t-6 14.5z" />
<glyph unicode="&#xdc;" horiz-adv-x="1247" d="M123 1174q0 68 8 194q3 49 43 57q36 7 90 7q20 0 59 -1t58 -1q24 0 35 -17q12 -10 26 -33q9 -18 9 -96q0 -10 -2.5 -30.5t-2.5 -30.5q0 -35 5.5 -103t5.5 -102q0 -26 1 -76t1 -74q0 -16 -1 -49t-1 -49q0 -112 10 -195q13 -116 32 -160q38 -87 136 -87q78 0 115.5 46.5 t37.5 127.5q0 14 -1 41t-1 41q1 19 4 92.5t3 114.5q0 10 -1 30.5t-1 32.5q0 15 2 47t2 49q0 7 -2 22.5t-2 22.5q0 8 2 26t2 26q0 38 -5.5 114.5t-5.5 114.5q0 18 1 52t1 52q3 58 86 58q140 0 189 -8q34 -5 43 -44q12 -41 12 -231h-2v-70q0 -31 2 -47q0 -16 4 -50t4 -50 q0 -12 -2 -33t-2 -31q0 -20 2 -60t2 -60q0 -24 -6 -71t-6 -71q0 -243 -39 -340q-117 -274 -407 -274q-300 0 -404 145q-71 100 -94 211q-2 9 -11.5 40.5t-9.5 49.5q0 70 -12 119q0 4 -1 12.5t-1 12.5q0 9 1 27.5t1 27.5q0 25 -4 73.5t-4 71.5q0 18 4 54t4 53q0 65 -8 117 q-2 10 -2 28q0 8 2 26t2 26q0 15 -3 42t-3 40zM262 1644q0 59 46.5 111.5t103.5 52.5q66 0 107.5 -46t41.5 -113q0 -64 -36.5 -103t-100.5 -39q-15 0 -27.5 3t-30.5 10t-26 10q-37 12 -57.5 42.5t-20.5 71.5zM696 1663q0 63 39.5 107t101.5 44t105 -44.5t43 -106.5 q0 -63 -39 -103t-102 -40q-64 0 -106 40t-42 103z" />
<glyph unicode="&#xdd;" horiz-adv-x="1366" d="M61 1389q0 19 20 33t40 14h143q2 0 31.5 0.5t43 0t37.5 -3t39.5 -9t24.5 -17.5q37 -48 68 -115l117 -231q44 -90 65 -123q17 22 33 52.5t33 70t26 57.5q103 205 140 285q9 16 26 24q28 17 70 17q30 0 90 -5t90 -5q61 0 86 -7q13 -4 16 -9t5 -19v-4q0 -15 -11 -37 q-13 -24 -41 -69t-41 -68l-51 -91q-63 -111 -100 -190q-11 -27 -24.5 -53.5t-34.5 -64.5t-27 -50q-5 -9 -26 -47t-29 -61q-5 -15 -28 -48t-24 -65v-23q0 -22 3 -67t3 -68q0 -19 1.5 -54t1.5 -54q0 -13 -2.5 -41t-2.5 -41q0 -6 2.5 -19.5t2.5 -19.5q0 -20 -5 -56.5t-6 -52.5 q-2 -61 -121 -61q-17 0 -35 2.5t-41.5 7t-33.5 6.5q-23 3 -32.5 4t-24.5 5t-20 9.5t-11.5 15t-8 23.5t-1.5 35q0 61 -3.5 175t-3.5 137v90q0 1 -2 8.5t-4 11.5q-18 25 -40 75t-29 63l-97 176q-4 9 -19.5 33.5t-21.5 41.5q-8 22 -31.5 59.5t-31.5 55.5q-24 51 -78 145 t-59 103q-11 17 -33.5 61t-22.5 52zM600 1467q0 17 77 140t107 165q21 33 88 33q2 0 19 0.5t32.5 0.5t37.5 -0.5t39.5 -2t34 -3.5t25.5 -6t9 -10q0 -9 -102.5 -141t-139.5 -176q-18 -21 -47 -21q-8 0 -26 -2t-27 -2q-127 0 -127 25z" />
<glyph unicode="&#xde;" horiz-adv-x="1509" d="M143 911q0 19 4.5 56t4.5 55q0 14 -3.5 40t-3.5 40t-1 44t-1 44q0 18 3.5 51t3.5 51q0 8 -1.5 25.5t-1.5 25.5q0 55 56 87h188h60q22 -2 29 -9t7 -30q0 -10 -1 -36t-0.5 -44.5t3.5 -36.5q6 -32 33 -37q50 -8 76 -8q6 0 19.5 2t19.5 2q3 0 9 -1t9 -1q21 0 61.5 1t59.5 1 q15 0 42 -1t40 -1q153 0 234 -29l100 -31q41 -13 104.5 -107t65.5 -140q0 -18 14 -76q10 -45 10 -139q0 -24 -5 -46.5t-14 -51.5t-13 -44q-13 -49 -31 -80q-20 -35 -86 -103.5t-96 -78.5q-157 -53 -246 -53q-235 0 -352 -6q-17 -1 -23 -8.5t-6 -24.5q0 -147 -2 -176 q-3 -27 -25 -29q-37 -8 -112 -8q-63 0 -94 2q-10 0 -32.5 5t-31.5 5q-2 0 -5 -2t-5 -2q-7 0 -12 10q-5 5 -13 9q-5 2 -8 8.5t-5 13.5t-2.5 17.5t-0.5 17v17v12.5q0 13 0.5 37t0.5 44.5t-1 38.5q-8 102 -8 150q0 46 -1 138t-1 138q0 14 1 52t0.5 65.5t-3.5 52.5 q-11 74 -11 82zM504 659q0 -37 6 -77q3 -31 33 -31l41 -2q13 -1 36.5 -2.5t43 -2.5t36.5 -1q8 0 26 2t26 2q87 0 153 31q2 1 47 18q52 22 81.5 64.5t29.5 97.5q0 59 -14 80q-31 49 -80 69q-91 31 -164 31q-17 0 -53.5 -4t-55.5 -4h-43q-7 0 -22.5 2t-22.5 2q-14 0 -20 -2 q-4 0 -14 -0.5t-14 -1l-12 -1.5t-12 -3.5t-9 -6.5t-7.5 -10t-3.5 -14q-8 -71 -8 -158q0 -13 -2 -39t-2 -39z" />
<glyph unicode="&#xdf;" horiz-adv-x="2578" d="M123 459q0 71 143 71q109 0 162 -2q12 -1 21.5 -8.5t16.5 -22t11 -25t9 -29t6 -21.5q16 -51 81 -83t125 -32q72 0 113 34t41 105q0 45 -41 70q-20 14 -56.5 30t-91 33.5t-88.5 28t-96 28.5t-67 19q-39 9 -58 15q-21 7 -35 18q-10 9 -32.5 32t-36.5 34q-35 32 -60.5 106.5 t-25.5 128.5q0 24 7 68t15 63q1 2 12.5 32t16.5 46q2 7 5 13.5t5.5 12t7.5 12.5l7.5 10.5t9.5 11.5t9 10.5t10 11t10 10.5q16 18 48 49t42 35q85 35 148.5 50.5t144.5 15.5q33 0 63 -6q15 -3 80 -13q40 -8 101 -36t93 -54q16 -14 27 -35q14 -31 43 -73q47 -70 47 -203 q0 -4 -1 -14t-1 -15q0 -59 -57 -67q-37 -6 -80 -6q-126 0 -174 28q-18 9 -21 29q-6 47 -26 92t-54 57q-59 19 -75 19q-40 0 -82 -25q-7 -4 -12.5 -9t-12 -14t-8.5 -12q-18 -24 -18 -47q0 -22 7 -39t23 -29t27.5 -18.5t36.5 -16t33 -13.5q44 -19 122 -41t133 -38.5t115 -53.5 t94 -89q7 -10 33 -36t31 -37q35 -81 35 -121q0 -12 -3 -34t-3 -34q0 -14 2 -39t2 -37q0 -33 -14.5 -59.5t-18.5 -42.5q-17 -55 -70 -115q-57 -62 -69 -73q-4 -5 -15 -11q-92 -40 -108 -45q-22 -8 -83.5 -14t-96.5 -6q-67 0 -197 33q-49 11 -100 39l-58 28q-53 34 -84.5 63.5 t-58.5 75.5q-5 8 -15 25t-16 27t-13 25t-11 28q-31 90 -31 121zM1432 446q0 27 18 56q17 25 74 20h39l2 -2q16 1 47 4.5t56 5.5t48 2q40 0 68 -22q11 -9 39 -117q8 -27 26 -42t19 -17q14 -20 49 -29q68 -14 86 -14q59 0 101 32.5t42 90.5q0 67 -63 104q-123 74 -199 74 q-8 0 -20 4q-2 0 -30 9t-33 10.5t-31 10t-34 12t-30.5 12.5t-32.5 15t-29 16t-30 18.5t-24.5 20t-24.5 23.5q-39 45 -52 62t-25.5 48t-19.5 79q-4 32 -4 47q0 32 16.5 113.5t30.5 101.5l33 43q16 18 29 45q7 14 20.5 27.5t22 19.5t31.5 20.5t26 16.5q94 66 250 66 q18 0 51 -3t41 -4q10 0 30.5 -6t29.5 -6q22 0 38 -6.5t33.5 -17t32.5 -15.5q61 -23 118 -75t77 -109q2 -6 8 -16.5t8 -16.5q41 -126 41 -164q0 -30 -26.5 -47.5t-59.5 -17.5q-22 0 -205 20q-20 3 -31.5 18t-14.5 33t-11.5 40t-22.5 34q-78 70 -137 70q-33 0 -74 -25t-41 -55 q0 -9 5 -28t6 -25q10 -54 49 -68q171 -64 194 -72q66 -23 125 -39q41 -10 92 -45q63 -41 94.5 -79t53.5 -105q29 -93 29 -143q0 -45 -19 -115q-4 -14 -10.5 -30t-11.5 -25.5t-16 -28t-15 -24.5q-33 -59 -96.5 -120.5t-122.5 -88.5q-28 -12 -91.5 -22.5t-97.5 -10.5 q-79 0 -164 16l-86 27q-68 18 -159 94q-23 19 -39 43.5t-34 66.5t-24 54q-14 29 -26 75t-12 76z" />
<glyph unicode="&#xe0;" d="M61 49q0 18 23.5 97t57 184t36.5 114q8 26 30 114t40 134q7 20 14 53q3 24 26 95.5t23 91.5q0 4 -2 13t-2 13t12 58q1 6 11 45t14 61q3 22 16 61t17 58q5 20 37 127q8 31 43 37q29 27 110 27v4l88 -9q31 -3 43 -30q10 -22 19.5 -51t15 -48t14.5 -56t13 -50 q12 -45 39 -134t39 -134q22 -79 39 -131l14 -35q20 -50 63 -172q105 -306 150 -461q1 -4 6.5 -23t9.5 -35t4 -24q0 -42 -99 -41h-7q-33 0 -97.5 4t-95.5 4q-34 0 -48.5 14t-20.5 46q-19 111 -29 123l-4 2q-21 4 -92 4q-7 0 -20 2t-19 2q-16 0 -50.5 -4.5t-52.5 -3.5h-43 q-10 0 -14 -2q-3 -4 -14 -60q-1 -5 -6.5 -30t-8 -33.5t-10.5 -27t-16.5 -26.5t-24 -15t-35.5 -7q-10 0 -29.5 2t-29.5 2l-141 4q-7 0 -19 4q-37 10 -37 43zM186 1853q0 6 9 10t25.5 6t34 3.5t39.5 2t37.5 0.5t32.5 -0.5t19 -0.5q69 0 90 -33q2 -3 33 -52t63 -98.5t59 -97.5 t27 -57q0 -25 -127 -25q-9 0 -26.5 2.5t-26.5 2.5q-30 0 -45 20q-32 36 -138 172t-106 145zM502 455q106 -4 160 -4h8q-2 7 -12.5 43t-14.5 49.5t-13.5 44.5t-16 49t-16.5 41.5t-19 42.5q-48 -156 -76 -266z" />
<glyph unicode="&#xe1;" d="M61 49q0 18 23.5 97t57 184t36.5 114q8 26 30 114t40 134q7 20 14 53q3 24 26 95.5t23 91.5q0 4 -2 13t-2 13t12 58q1 6 11 45t14 61q3 22 16 61t17 58q5 20 37 127q8 31 43 37q29 27 110 27v4l88 -9q31 -3 43 -30q10 -22 19.5 -51t15 -48t14.5 -56t13 -50 q12 -45 39 -134t39 -134q22 -79 39 -131l14 -35q20 -50 63 -172q105 -306 150 -461q1 -4 6.5 -23t9.5 -35t4 -24q0 -42 -99 -41h-7q-33 0 -97.5 4t-95.5 4q-34 0 -48.5 14t-20.5 46q-19 111 -29 123l-4 2q-21 4 -92 4q-7 0 -20 2t-19 2q-16 0 -50.5 -4.5t-52.5 -3.5h-43 q-10 0 -14 -2q-3 -4 -14 -60q-1 -5 -6.5 -30t-8 -33.5t-10.5 -27t-16.5 -26.5t-24 -15t-35.5 -7q-10 0 -29.5 2t-29.5 2l-141 4q-7 0 -19 4q-37 10 -37 43zM500 1540q0 17 77 140t107 165q21 33 88 33q3 0 19 0.5t32 0.5t37.5 -0.5t39.5 -1.5t34.5 -3t25.5 -6t9 -10 q0 -9 -103 -142t-139 -176q-17 -20 -47 -20q-8 0 -26 -2t-27 -2q-127 0 -127 24zM502 455q106 -4 160 -4h8q-2 7 -12.5 43t-14.5 49.5t-13.5 44.5t-16 49t-16.5 41.5t-19 42.5q-48 -156 -76 -266z" />
<glyph unicode="&#xe2;" d="M61 49q0 18 23.5 97t57 184t36.5 114q8 26 30 114t40 134q7 20 14 53q3 24 26 95.5t23 91.5q0 4 -2 13t-2 13t12 58q1 6 11 45t14 61q3 22 16 61t17 58q5 20 37 127q8 31 43 37q29 27 110 27v4l88 -9q31 -3 43 -30q10 -22 19.5 -51t15 -48t14.5 -56t13 -50 q12 -45 39 -134t39 -134q22 -79 39 -131l14 -35q20 -50 63 -172q105 -306 150 -461q1 -4 6.5 -23t9.5 -35t4 -24q0 -42 -99 -41h-7q-33 0 -97.5 4t-95.5 4q-34 0 -48.5 14t-20.5 46q-19 111 -29 123l-4 2q-21 4 -92 4q-7 0 -20 2t-19 2q-16 0 -50.5 -4.5t-52.5 -3.5h-43 q-10 0 -14 -2q-3 -4 -14 -60q-1 -5 -6.5 -30t-8 -33.5t-10.5 -27t-16.5 -26.5t-24 -15t-35.5 -7q-10 0 -29.5 2t-29.5 2l-141 4q-7 0 -19 4q-37 10 -37 43zM233 1534q0 14 34.5 68.5t86 128t52.5 75.5q22 31 44 40t62 9q90 0 133 -8q29 -4 62 -45q10 -13 163 -213 q17 -20 17 -47q0 -10 -4 -17.5t-8 -11t-13.5 -5t-15 -2t-18 0t-15.5 0.5q-2 0 -47 -1t-72.5 0t-44.5 5q-24 6 -39 27l-55 88q-19 -9 -38 -41.5t-41.5 -59t-53.5 -26.5q-8 0 -26 1t-27 1q-2 0 -15 -0.5t-23 -0.5t-25.5 1t-27 3t-22.5 5.5t-17 10t-6 14.5zM502 455 q106 -4 160 -4h8q-2 7 -12.5 43t-14.5 49.5t-13.5 44.5t-16 49t-16.5 41.5t-19 42.5q-48 -156 -76 -266z" />
<glyph unicode="&#xe3;" d="M61 49q0 18 23.5 97t57 184t36.5 114q8 26 30 114t40 134q7 20 14 53q3 24 26 95.5t23 91.5q0 4 -2 13t-2 13t12 58q1 6 11 45t14 61q3 22 16 61t17 58q5 20 37 127q8 31 43 37q29 27 110 27v4l88 -9q31 -3 43 -30q10 -22 19.5 -51t15 -48t14.5 -56t13 -50 q12 -45 39 -134t39 -134q22 -79 39 -131l14 -35q20 -50 63 -172q105 -306 150 -461q1 -4 6.5 -23t9.5 -35t4 -24q0 -42 -99 -41h-7q-33 0 -97.5 4t-95.5 4q-34 0 -48.5 14t-20.5 46q-19 111 -29 123l-4 2q-21 4 -92 4q-7 0 -20 2t-19 2q-16 0 -50.5 -4.5t-52.5 -3.5h-43 q-10 0 -14 -2q-3 -4 -14 -60q-1 -5 -6.5 -30t-8 -33.5t-10.5 -27t-16.5 -26.5t-24 -15t-35.5 -7q-10 0 -29.5 2t-29.5 2l-141 4q-7 0 -19 4q-37 10 -37 43zM244 1589q0 109 62.5 192t168.5 83q43 0 86 -28t70.5 -61t51 -61t30.5 -28q6 0 16 10q13 16 19.5 40.5t7 36.5 t2.5 46q0 16 5 22.5t21 7.5q64 11 127 11q21 0 35.5 -12.5t14.5 -32.5v-9q-2 -11 -6 -42.5t-9 -47.5q-17 -87 -71.5 -153t-135.5 -66q-15 0 -47 8q-65 18 -92.5 35.5t-64.5 67.5l-23 30q-13 13 -23 13q-8 0 -15 -5t-12 -15.5t-8.5 -20t-6.5 -25t-4 -23l-3 -22.5t-2 -16 q-10 -16 -18 -17q-88 0 -158 15q-18 4 -18 67zM502 455q106 -4 160 -4h8q-2 7 -12.5 43t-14.5 49.5t-13.5 44.5t-16 49t-16.5 41.5t-19 42.5q-48 -156 -76 -266z" />
<glyph unicode="&#xe4;" d="M61 49q0 18 23.5 97t57 184t36.5 114q8 26 30 114t40 134q7 20 14 53q3 24 26 95.5t23 91.5q0 4 -2 13t-2 13t12 58q1 6 11 45t14 61q3 22 16 61t17 58q5 20 37 127q8 31 43 37q29 27 110 27v4l88 -9q31 -3 43 -30q10 -22 19.5 -51t15 -48t14.5 -56t13 -50 q12 -45 39 -134t39 -134q22 -79 39 -131l14 -35q20 -50 63 -172q105 -306 150 -461q1 -4 6.5 -23t9.5 -35t4 -24q0 -42 -99 -41h-7q-33 0 -97.5 4t-95.5 4q-34 0 -48.5 14t-20.5 46q-19 111 -29 123l-4 2q-21 4 -92 4q-7 0 -20 2t-19 2q-16 0 -50.5 -4.5t-52.5 -3.5h-43 q-10 0 -14 -2q-3 -4 -14 -60q-1 -5 -6.5 -30t-8 -33.5t-10.5 -27t-16.5 -26.5t-24 -15t-35.5 -7q-10 0 -29.5 2t-29.5 2l-141 4q-7 0 -19 4q-37 10 -37 43zM199 1622q0 59 46 111.5t103 52.5q66 0 108 -46.5t42 -113.5q0 -64 -37 -102.5t-101 -38.5q-15 0 -27 2.5t-31 10 t-26 9.5q-37 12 -57 43t-20 72zM502 455q106 -4 160 -4h8q-2 7 -12.5 43t-14.5 49.5t-13.5 44.5t-16 49t-16.5 41.5t-19 42.5q-48 -156 -76 -266zM633 1640q0 63 39.5 107.5t101.5 44.5t105 -45t43 -107q0 -63 -39.5 -103t-102.5 -40t-105 40t-42 103z" />
<glyph unicode="&#xe5;" d="M61 49q0 18 23.5 97t57 184t36.5 114q8 26 30 114t40 134q7 20 14 53q3 24 26 95.5t23 91.5q0 4 -2 13t-2 13t12 58q1 6 11 45t14 61q3 22 16 61t17 58q5 20 37 127q8 31 43 37q29 27 110 27v4l88 -9q31 -3 43 -30q10 -22 19.5 -51t15 -48t14.5 -56t13 -50 q12 -45 39 -134t39 -134q22 -79 39 -131l14 -35q20 -50 63 -172q105 -306 150 -461q1 -4 6.5 -23t9.5 -35t4 -24q0 -42 -99 -41h-7q-33 0 -97.5 4t-95.5 4q-34 0 -48.5 14t-20.5 46q-19 111 -29 123l-4 2q-21 4 -92 4q-7 0 -20 2t-19 2q-16 0 -50.5 -4.5t-52.5 -3.5h-43 q-10 0 -14 -2q-3 -4 -14 -60q-1 -5 -6.5 -30t-8 -33.5t-10.5 -27t-16.5 -26.5t-24 -15t-35.5 -7q-10 0 -29.5 2t-29.5 2l-141 4q-7 0 -19 4q-37 10 -37 43zM340 1704q0 110 71 188t179 78q51 0 123 -26q14 -5 26.5 -12.5t21.5 -13.5t20.5 -18.5t17 -18.5t18 -22t17.5 -22 q28 -36 28 -63q0 -118 -78 -209q-7 -7 -14 -13.5t-16 -12t-14.5 -9.5t-17 -10t-15.5 -9q-48 -30 -119 -30q-26 0 -47 8q-49 17 -103 43q-9 3 -14 8q-84 70 -84 164zM502 455q106 -4 160 -4h8q-2 7 -12.5 43t-14.5 49.5t-13.5 44.5t-16 49t-16.5 41.5t-19 42.5 q-48 -156 -76 -266zM520 1733q0 -32 21 -52t53 -20q37 0 52 10.5t24 42.5q6 24 6 31q0 31 -20.5 51.5t-51.5 20.5q-84 0 -84 -84z" />
<glyph unicode="&#xe6;" horiz-adv-x="2000" d="M61 35q0 4 21 38.5t47.5 76t28.5 45.5q22 39 72 120t75 125l125 219q15 30 19 35l45 75l45 75l30 69q3 7 12 17t11 14q15 23 56 91t65 102q60 85 94 143q4 7 9.5 21.5t11.5 24.5t16 17q53 41 97.5 54.5t115.5 13.5q6 0 18.5 -1t18.5 -1q15 0 47 5.5t39 4.5q16 0 48 -1 t48 -1q6 0 19.5 2t19.5 2h53q26 0 80 4h88q14 0 43 2.5t45 2.5q22 0 66 1t67 1q36 0 69.5 -12t41.5 -40q2 -7 4 -18.5t4.5 -20.5t7.5 -16q1 -9 5.5 -32t4.5 -36q0 -15 1 -47t1 -47q0 -17 -9.5 -28t-28.5 -15t-33 -6t-38 -2h-28h-41q-6 0 -18.5 1t-18.5 1q-21 0 -61 -4 q-202 -4 -299 -8q-23 -1 -29 -7t-8 -28q0 -10 -1 -30.5t-1 -30.5q0 -1 6 -43h31q127 0 256 6q21 0 61 4t60 4q23 0 73 -8q24 -3 32.5 -11t8.5 -32v-224q0 -26 -26 -26q-14 0 -42 2t-42 2q-12 0 -37 -1t-39 -1q-9 0 -26.5 1t-31.5 1t-26 -2q-8 -1 -31 -4.5t-36 -3.5 q-27 -2 -80 -2q-10 0 -32 1t-34 1q-26 0 -29 -29q-4 -94 -4 -141q0 -16 11 -123q2 -21 8 -28t26 -7h4q17 0 52 -5t53 -5t51.5 3t50.5 3q18 0 53 -2t52 -2q15 0 44.5 3t43.5 3q93 0 112 -2q19 -4 29 -14q14 -14 14 -115q0 -35 -4 -105q-8 -32 -8 -43q0 -18 -0.5 -29t-4.5 -19 t-6.5 -11.5t-12.5 -5t-16 -1.5t-24 0.5t-30 0.5h-70q-52 0 -155.5 4t-155.5 4q-15 0 -46 -3t-46 -3q-6 0 -18.5 1t-18.5 1q-19 0 -59 -4q-16 -3 -52 -4.5t-55 -5.5q-32 -4 -47 -4q-25 0 -49 6q-1 0 -9 3t-9.5 3.5t-8.5 3t-9 3.5t-7.5 4t-7.5 5.5t-5.5 6.5t-5.5 8 q-12 23 -24 122q-3 34 -33 37q-20 2 -59 2q-24 0 -74 -3t-74 -3q-13 0 -43.5 1t-52 0.5t-41.5 -3.5q-36 -4 -61 -61q-5 -12 -13 -23.5t-22 -28t-17 -20.5q-5 -6 -11 -16.5t-12 -15t-18 -9.5q-24 -8 -57 -8q-45 0 -135 8q-35 2 -105 2q-12 0 -28.5 9t-16.5 20zM682 477 q27 -12 49 -12q8 0 23.5 1t23.5 1q12 0 38 -1t40 -1q32 0 90 4q8 50 8 72q0 6 -1 18.5t-1 18.5q0 20 1 57t1 57q0 124 -10 170q-66 -99 -70 -102q-14 -8 -24.5 -21t-14.5 -21l-14 -28q-17 -39 -55 -86q-34 -42 -41 -67q-3 -6 -20.5 -30.5t-22.5 -29.5z" />
<glyph unicode="&#xe7;" horiz-adv-x="1308" d="M123 680q0 114 14 188q2 11 10.5 36t8.5 40q4 35 18 57q12 17 29 58q27 63 47 98q15 25 51 70.5t53 56.5l82 53q9 6 34 13.5t38 17.5q7 5 22 9.5t19 6.5q89 33 201 52q42 6 45 6q7 0 22.5 -1t22.5 -1q14 0 44 2t44 2q18 0 51 -9.5t47 -9.5q3 0 9 1t9 1q21 0 70.5 -18 t75.5 -31q33 -17 33 -51q0 -13 -1 -41t-1 -43v-98q0 -3 3 -33t3 -45q0 -25 -23 -39q-4 -2 -14 -12t-19 -10q-10 0 -81 51q-34 25 -66 30t-45 11q-44 20 -102 20q-32 0 -78.5 -7.5t-73.5 -18.5q-34 -13 -53 -17q-16 -3 -33 -16q-31 -29 -48.5 -46t-39 -44.5t-35.5 -55.5 q-5 -10 -8 -32t-8 -31q-23 -40 -23 -111q0 -63 2 -73l15 -56q7 -48 22 -79.5t49 -81.5q6 -9 13 -16.5t16.5 -14.5t16 -11.5t19.5 -11l18 -9t20 -9.5t18 -8q83 -39 168 -39q20 0 47.5 9t30.5 9q33 0 75.5 20t73.5 46q27 24 66 24q4 0 12 -1t12 -1q12 -2 20.5 -15.5t12 -36.5 t5.5 -40t2.5 -43.5t0.5 -28.5l4 -24t3 -27q0 -38 -14.5 -85.5t-39.5 -63.5q-33 -18 -55 -33q-41 -30 -170 -41q-4 -15 -19 -43t-20 -41q75 -28 111.5 -65.5t36.5 -110.5q0 -27 -15 -74q-50 -137 -227 -137q-116 0 -174 55q-15 11 -15 27q0 8 16 45.5t23 50.5q11 25 33 25 q12 0 47 -15.5t56 -15.5q38 0 38 37q0 13 -8.5 25t-19.5 12q-5 0 -15.5 -2t-15.5 -2q-28 0 -60 14t-32 37q0 45 104 180q-7 1 -19.5 1.5t-23 1.5t-18.5 3q-10 1 -29.5 7t-25.5 7q-37 8 -75.5 25t-86 42t-72.5 36q-16 8 -125 106q-53 49 -67 76l-45 80q-7 14 -17.5 43 t-17.5 43q-6 12 -10 26t-5.5 24t-4 27.5t-3.5 26.5q-16 88 -16 105z" />
<glyph unicode="&#xe8;" horiz-adv-x="1232" d="M143 412q0 7 3.5 20.5t3.5 20.5q0 17 1 48t1 48v49q0 18 2 51t2 51v5q-6 18 -6 40q0 19 2 57t2 56q0 6 -2 18.5t-2 18.5q0 13 2 36t2 36q0 20 -3.5 62.5t-3.5 62.5q0 16 2.5 45t2.5 45q0 4 -2.5 12t-2.5 12t1.5 12.5t1.5 12.5q1 10 2 41t3.5 49.5t9 43t20.5 39t36 19.5 l49 13l6 -11q20 0 60 -1t61 -1q11 0 34.5 2t35.5 2q148 9 195 9q8 0 22.5 -5.5t22.5 -5.5q11 0 33 2.5t34 2.5t34 -2.5t32 -2.5q32 0 94 5.5t94 5.5q25 0 47 -10.5t23 -34.5q4 -70 4 -103q0 -98 -8 -129q-7 -23 -18.5 -31t-35.5 -10q-82 -2 -249 -2q-15 0 -46 2t-47 2 q-18 0 -53 -4t-53 -4q-12 0 -36 2t-36 2q-25 0 -31.5 -5.5t-7.5 -31.5v-65q0 -7 -1 -20.5t-1 -20.5q0 -21 21 -21q8 0 24.5 2t24.5 2q33 2 100 2q53 0 159 1.5t159 1.5q86 0 86 -56q0 -13 -2 -40t-2 -40q0 -73 2 -86q-6 -27 -13 -45.5t-17 -30t-18.5 -17.5t-25.5 -8t-29 -2 t-37 0.5t-43 0.5q-13 0 -37 -1t-36 -1q-17 0 -50 5t-49 5q-13 0 -35.5 -2t-33.5 -2q-12 0 -38 2t-40 2q-2 0 -12.5 0.5t-14 0t-11 -2t-10.5 -4.5t-6 -9t-3 -14v-241q0 -22 8 -76q41 -2 123 -2q14 0 43 -1t45 -1q34 0 101 1t101 1q137 0 174 -10t41 -62q0 -15 1 -46t1 -48 q0 -137 -71 -137q-19 0 -59.5 3t-59.5 3q-1 0 -172 -6q-22 -1 -62 -2.5t-73 -2.5t-62 -1q-23 0 -87 6t-83 10q-4 2 -12 2t-24.5 -3t-24.5 -3q-34 0 -104 4q-49 6 -64 51q-14 44 -14 78q0 11 -1 34t-1 34q0 36 -6.5 106t-6.5 105zM242 1864q0 6 9 10t25 6t34 3t39.5 1.5 t37.5 0.5t32 -0.5t19 -0.5q69 0 90 -33q2 -3 33.5 -51.5t63 -99t59 -98t27.5 -56.5q0 -24 -127 -24q-9 0 -27 2t-27 2q-30 0 -45 20q-32 35 -137.5 171.5t-105.5 146.5z" />
<glyph unicode="&#xe9;" horiz-adv-x="1232" d="M143 412q0 7 3.5 20.5t3.5 20.5q0 17 1 48t1 48v49q0 18 2 51t2 51v5q-6 18 -6 40q0 19 2 57t2 56q0 6 -2 18.5t-2 18.5q0 13 2 36t2 36q0 20 -3.5 62.5t-3.5 62.5q0 16 2.5 45t2.5 45q0 4 -2.5 12t-2.5 12t1.5 12.5t1.5 12.5q1 10 2 41t3.5 49.5t9 43t20.5 39t36 19.5 l49 13l6 -11q20 0 60 -1t61 -1q11 0 34.5 2t35.5 2q148 9 195 9q8 0 22.5 -5.5t22.5 -5.5q11 0 33 2.5t34 2.5t34 -2.5t32 -2.5q32 0 94 5.5t94 5.5q25 0 47 -10.5t23 -34.5q4 -70 4 -103q0 -98 -8 -129q-7 -23 -18.5 -31t-35.5 -10q-82 -2 -249 -2q-15 0 -46 2t-47 2 q-18 0 -53 -4t-53 -4q-12 0 -36 2t-36 2q-25 0 -31.5 -5.5t-7.5 -31.5v-65q0 -7 -1 -20.5t-1 -20.5q0 -21 21 -21q8 0 24.5 2t24.5 2q33 2 100 2q53 0 159 1.5t159 1.5q86 0 86 -56q0 -13 -2 -40t-2 -40q0 -73 2 -86q-6 -27 -13 -45.5t-17 -30t-18.5 -17.5t-25.5 -8t-29 -2 t-37 0.5t-43 0.5q-13 0 -37 -1t-36 -1q-17 0 -50 5t-49 5q-13 0 -35.5 -2t-33.5 -2q-12 0 -38 2t-40 2q-2 0 -12.5 0.5t-14 0t-11 -2t-10.5 -4.5t-6 -9t-3 -14v-241q0 -22 8 -76q41 -2 123 -2q14 0 43 -1t45 -1q34 0 101 1t101 1q137 0 174 -10t41 -62q0 -15 1 -46t1 -48 q0 -137 -71 -137q-19 0 -59.5 3t-59.5 3q-1 0 -172 -6q-22 -1 -62 -2.5t-73 -2.5t-62 -1q-23 0 -87 6t-83 10q-4 2 -12 2t-24.5 -3t-24.5 -3q-34 0 -104 4q-49 6 -64 51q-14 44 -14 78q0 11 -1 34t-1 34q0 36 -6.5 106t-6.5 105zM590 1554q0 17 77.5 141t106.5 165 q9 15 24.5 22t28.5 8.5t35 1.5q3 0 19 0.5t32 0.5t37.5 -0.5t39.5 -1.5t34.5 -3t25.5 -6t9 -10q0 -9 -103 -142t-139 -176q-17 -20 -47 -20q-8 0 -26 -2t-27 -2q-127 0 -127 24z" />
<glyph unicode="&#xea;" horiz-adv-x="1232" d="M143 412q0 7 3.5 20.5t3.5 20.5q0 17 1 48t1 48v49q0 18 2 51t2 51v5q-6 18 -6 40q0 19 2 57t2 56q0 6 -2 18.5t-2 18.5q0 13 2 36t2 36q0 20 -3.5 62.5t-3.5 62.5q0 16 2.5 45t2.5 45q0 4 -2.5 12t-2.5 12t1.5 12.5t1.5 12.5q1 10 2 41t3.5 49.5t9 43t20.5 39t36 19.5 l49 13l6 -11q20 0 60 -1t61 -1q11 0 34.5 2t35.5 2q148 9 195 9q8 0 22.5 -5.5t22.5 -5.5q11 0 33 2.5t34 2.5t34 -2.5t32 -2.5q32 0 94 5.5t94 5.5q25 0 47 -10.5t23 -34.5q4 -70 4 -103q0 -98 -8 -129q-7 -23 -18.5 -31t-35.5 -10q-82 -2 -249 -2q-15 0 -46 2t-47 2 q-18 0 -53 -4t-53 -4q-12 0 -36 2t-36 2q-25 0 -31.5 -5.5t-7.5 -31.5v-65q0 -7 -1 -20.5t-1 -20.5q0 -21 21 -21q8 0 24.5 2t24.5 2q33 2 100 2q53 0 159 1.5t159 1.5q86 0 86 -56q0 -13 -2 -40t-2 -40q0 -73 2 -86q-6 -27 -13 -45.5t-17 -30t-18.5 -17.5t-25.5 -8t-29 -2 t-37 0.5t-43 0.5q-13 0 -37 -1t-36 -1q-17 0 -50 5t-49 5q-13 0 -35.5 -2t-33.5 -2q-12 0 -38 2t-40 2q-2 0 -12.5 0.5t-14 0t-11 -2t-10.5 -4.5t-6 -9t-3 -14v-241q0 -22 8 -76q41 -2 123 -2q14 0 43 -1t45 -1q34 0 101 1t101 1q137 0 174 -10t41 -62q0 -15 1 -46t1 -48 q0 -137 -71 -137q-19 0 -59.5 3t-59.5 3q-1 0 -172 -6q-22 -1 -62 -2.5t-73 -2.5t-62 -1q-23 0 -87 6t-83 10q-4 2 -12 2t-24.5 -3t-24.5 -3q-34 0 -104 4q-49 6 -64 51q-14 44 -14 78q0 11 -1 34t-1 34q0 36 -6.5 106t-6.5 105zM299 1550q0 11 24 51.5t51 80.5t59.5 86.5 t37.5 54.5q22 30 44.5 39.5t62.5 9.5q90 0 133 -8q13 -2 25.5 -10t18.5 -14.5t17 -20.5q46 -59 164 -213q16 -19 16 -47q0 -10 -3.5 -17.5t-8 -11t-14 -5t-14.5 -2t-17.5 0t-15.5 0.5q-2 0 -47 -1t-72.5 0t-44.5 5q-25 6 -39 26l-55 88q-19 -9 -38.5 -41.5t-42 -58.5 t-53.5 -26q-8 0 -26 1t-27 1q-3 0 -15 -0.5t-22.5 -0.5t-25.5 0.5t-27 2.5t-22.5 5.5t-16.5 10t-6 14.5z" />
<glyph unicode="&#xeb;" horiz-adv-x="1232" d="M143 412q0 7 3.5 20.5t3.5 20.5q0 17 1 48t1 48v49q0 18 2 51t2 51v5q-6 18 -6 40q0 19 2 57t2 56q0 6 -2 18.5t-2 18.5q0 13 2 36t2 36q0 20 -3.5 62.5t-3.5 62.5q0 16 2.5 45t2.5 45q0 4 -2.5 12t-2.5 12t1.5 12.5t1.5 12.5q1 10 2 41t3.5 49.5t9 43t20.5 39t36 19.5 l49 13l6 -11q20 0 60 -1t61 -1q11 0 34.5 2t35.5 2q148 9 195 9q8 0 22.5 -5.5t22.5 -5.5q11 0 33 2.5t34 2.5t34 -2.5t32 -2.5q32 0 94 5.5t94 5.5q25 0 47 -10.5t23 -34.5q4 -70 4 -103q0 -98 -8 -129q-7 -23 -18.5 -31t-35.5 -10q-82 -2 -249 -2q-15 0 -46 2t-47 2 q-18 0 -53 -4t-53 -4q-12 0 -36 2t-36 2q-25 0 -31.5 -5.5t-7.5 -31.5v-65q0 -7 -1 -20.5t-1 -20.5q0 -21 21 -21q8 0 24.5 2t24.5 2q33 2 100 2q53 0 159 1.5t159 1.5q86 0 86 -56q0 -13 -2 -40t-2 -40q0 -73 2 -86q-6 -27 -13 -45.5t-17 -30t-18.5 -17.5t-25.5 -8t-29 -2 t-37 0.5t-43 0.5q-13 0 -37 -1t-36 -1q-17 0 -50 5t-49 5q-13 0 -35.5 -2t-33.5 -2q-12 0 -38 2t-40 2q-2 0 -12.5 0.5t-14 0t-11 -2t-10.5 -4.5t-6 -9t-3 -14v-241q0 -22 8 -76q41 -2 123 -2q14 0 43 -1t45 -1q34 0 101 1t101 1q137 0 174 -10t41 -62q0 -15 1 -46t1 -48 q0 -137 -71 -137q-19 0 -59.5 3t-59.5 3q-1 0 -172 -6q-22 -1 -62 -2.5t-73 -2.5t-62 -1q-23 0 -87 6t-83 10q-4 2 -12 2t-24.5 -3t-24.5 -3q-34 0 -104 4q-49 6 -64 51q-14 44 -14 78q0 11 -1 34t-1 34q0 36 -6.5 106t-6.5 105zM285 1649q0 59 46 111t103 52q66 0 108 -46 t42 -113q0 -64 -37 -103t-101 -39q-15 0 -27.5 3t-30.5 10t-26 10q-37 12 -57 43t-20 72zM719 1667q0 63 39.5 107.5t101.5 44.5t105 -45t43 -107q0 -63 -39.5 -103t-102.5 -40t-105 40t-42 103z" />
<glyph unicode="&#xec;" horiz-adv-x="643" d="M-63 1849q0 6 9 10t25.5 6t34 3.5t39.5 2t37 0.5t32 -0.5t19 -0.5q69 0 90 -33q2 -3 33.5 -51.5t63 -99t59 -98t27.5 -56.5q0 -25 -127 -25q-9 0 -27 2t-27 2q-29 0 -45 21q-32 36 -137.5 171.5t-105.5 145.5zM143 305q0 13 2 41t2 43q9 263 9 350q0 19 -2 57t-2 58 q0 12 1 34t1 32v26q0 7 2 20.5t2 20.5q0 9 -2 26t-2 25v90q0 186 8 252q3 24 15.5 31.5t39.5 7.5h25q62 4 92 4q67 0 100 -2q28 -3 37.5 -11.5t13.5 -35.5q2 -8 2 -26q0 -30 5 -177q1 -15 2.5 -42.5t2.5 -49.5t1 -41q0 -21 -4 -71q0 -10 0.5 -29.5t0.5 -35.5t-1 -30 q0 -18 -3.5 -52t-3.5 -52q0 -13 4.5 -37.5t4.5 -36.5t1 -34t1 -33t-3 -34t-3 -34q0 -17 4 -52t4 -52q0 -16 -2 -45t-2 -43v-299q0 -74 -56 -74h-57q-25 0 -71.5 3t-69.5 3q-35 0 -63.5 27.5t-28.5 62.5q0 12 -2.5 33t-2.5 31q0 12 4.5 32.5t4.5 30.5q0 15 -5.5 44t-5.5 44z " />
<glyph unicode="&#xed;" horiz-adv-x="643" d="M143 305q0 13 2 41t2 43q9 263 9 350q0 19 -2 57t-2 58q0 12 1 34t1 32v26q0 7 2 20.5t2 20.5q0 9 -2 26t-2 25v90q0 186 8 252q3 24 15.5 31.5t39.5 7.5h25q62 4 92 4q67 0 100 -2q28 -3 37.5 -11.5t13.5 -35.5q2 -8 2 -26q0 -30 5 -177q1 -15 2.5 -42.5t2.5 -49.5 t1 -41q0 -21 -4 -71q0 -10 0.5 -29.5t0.5 -35.5t-1 -30q0 -18 -3.5 -52t-3.5 -52q0 -13 4.5 -37.5t4.5 -36.5t1 -34t1 -33t-3 -34t-3 -34q0 -17 4 -52t4 -52q0 -16 -2 -45t-2 -43v-299q0 -74 -56 -74h-57q-25 0 -71.5 3t-69.5 3q-35 0 -63.5 27.5t-28.5 62.5q0 12 -2.5 33 t-2.5 31q0 12 4.5 32.5t4.5 30.5q0 15 -5.5 44t-5.5 44zM236 1526q0 17 77 140t107 165q21 33 88 33q2 0 19 0.5t32.5 0.5t37.5 -0.5t39.5 -2t34 -3.5t25.5 -6t9 -10q0 -9 -102.5 -141t-139.5 -176q-18 -21 -47 -21q-8 0 -26.5 -2t-27.5 -2q-126 0 -126 25z" />
<glyph unicode="&#xee;" horiz-adv-x="643" d="M-4 1528q0 14 34 68t86 129l52 75q22 31 44 40t62 9q91 0 134 -8q13 -2 25.5 -10t18.5 -14.5t17 -20.5q46 -59 164 -213q16 -19 16 -47q0 -10 -4 -17.5t-8 -11t-13.5 -5t-15 -2t-18 0t-15.5 0.5q-2 0 -46.5 -1t-72 0t-44.5 5q-24 6 -39 27l-56 88q-19 -9 -38 -41.5 t-41.5 -59t-53.5 -26.5q-8 0 -26 1t-27 1q-2 0 -15 -0.5t-23 -0.5t-25.5 1t-26.5 3t-22 5.5t-17 10t-6 14.5zM143 305q0 13 2 41t2 43q9 263 9 350q0 19 -2 57t-2 58q0 12 1 34t1 32v26q0 7 2 20.5t2 20.5q0 9 -2 26t-2 25v90q0 186 8 252q3 24 15.5 31.5t39.5 7.5h25 q62 4 92 4q67 0 100 -2q28 -3 37.5 -11.5t13.5 -35.5q2 -8 2 -26q0 -30 5 -177q1 -15 2.5 -42.5t2.5 -49.5t1 -41q0 -21 -4 -71q0 -10 0.5 -29.5t0.5 -35.5t-1 -30q0 -18 -3.5 -52t-3.5 -52q0 -13 4.5 -37.5t4.5 -36.5t1 -34t1 -33t-3 -34t-3 -34q0 -17 4 -52t4 -52 q0 -16 -2 -45t-2 -43v-299q0 -74 -56 -74h-57q-25 0 -71.5 3t-69.5 3q-35 0 -63.5 27.5t-28.5 62.5q0 12 -2.5 33t-2.5 31q0 12 4.5 32.5t4.5 30.5q0 15 -5.5 44t-5.5 44z" />
<glyph unicode="&#xef;" horiz-adv-x="643" d="M-39 1630q0 59 46.5 111.5t103.5 52.5q66 0 107.5 -46t41.5 -114q0 -64 -36.5 -102.5t-100.5 -38.5q-15 0 -27.5 3t-30.5 10t-26 10q-37 12 -57.5 42.5t-20.5 71.5zM143 305q0 13 2 41t2 43q9 263 9 350q0 19 -2 57t-2 58q0 12 1 34t1 32v26q0 7 2 20.5t2 20.5q0 9 -2 26 t-2 25v90q0 186 8 252q3 24 15.5 31.5t39.5 7.5h25q62 4 92 4q67 0 100 -2q28 -3 37.5 -11.5t13.5 -35.5q2 -8 2 -26q0 -30 5 -177q1 -15 2.5 -42.5t2.5 -49.5t1 -41q0 -21 -4 -71q0 -10 0.5 -29.5t0.5 -35.5t-1 -30q0 -18 -3.5 -52t-3.5 -52q0 -13 4.5 -37.5t4.5 -36.5 t1 -34t1 -33t-3 -34t-3 -34q0 -17 4 -52t4 -52q0 -16 -2 -45t-2 -43v-299q0 -74 -56 -74h-57q-25 0 -71.5 3t-69.5 3q-35 0 -63.5 27.5t-28.5 62.5q0 12 -2.5 33t-2.5 31q0 12 4.5 32.5t4.5 30.5q0 15 -5.5 44t-5.5 44zM395 1649q0 63 40 107t102 44t104.5 -44.5 t42.5 -106.5q0 -63 -39 -103.5t-102 -40.5t-105.5 40.5t-42.5 103.5z" />
<glyph unicode="&#xf0;" horiz-adv-x="1404" d="M61 631q0 17 2.5 49t2.5 49q0 8 -2.5 24.5t-2.5 24.5q0 16 10 25.5t31 13t34 5t39.5 0.5t27.5 -1q6 18 6 37q0 10 -1 31t-1 31q0 16 1 49t1 49q0 131 -6 174q-6 31 -6 104q0 58 12 95q9 39 88 39q20 0 61.5 -3.5t63.5 -3.5q6 0 20 1t21 1q23 0 71.5 -7t73.5 -7 q6 0 18.5 2t18.5 2q33 0 78 -18q7 -3 61 -19q90 -29 160 -71q7 -4 25 -17q48 -36 71 -54.5t61 -53t63 -68t42 -70.5q40 -88 68 -165q6 -15 6 -68q0 -15 -1 -45t-1 -45q0 -20 -5 -55.5t-5 -53.5v-20q0 -56 -66 -191q-34 -75 -104 -145l-66 -70q-1 -1 -55 -43 q-47 -36 -85.5 -57.5t-61.5 -30t-95 -32.5q-42 -16 -47 -17q-25 -7 -75.5 -10.5t-73.5 -9.5q-10 -2 -29 -2q-28 0 -85 3t-85 3q-4 0 -24 -1t-31 -0.5t-26 4t-22.5 13t-7.5 25.5q0 5 2 13.5t2 12.5q0 108 -4 312q-1 18 -2.5 49.5t-2.5 57.5t-1 50q0 4 1 17.5t0.5 19t-6 11.5 t-17.5 6q-15 0 -43 -1t-43 -1q-31 0 -42.5 12t-11.5 41zM541 948q0 -73 6 -112h6q8 0 26 1t27 1q25 0 42 -7t26 -17t13.5 -27t5.5 -31.5t3 -37.5t4 -38q1 -6 5 -23t4 -26q0 -23 -17.5 -40.5t-40.5 -17.5q-55 0 -82 -6q-20 -6 -20 -26q0 -126 4 -187q0 -22 18 -22 q64 0 144 41q18 9 22 10q13 4 23.5 11t23 17t19.5 15q129 87 129 291q0 67 -6 90q-44 144 -103 197q-49 39 -71 49q-35 18 -87 35.5t-81 17.5h-8.5h-9t-7.5 -0.5t-7.5 -2t-5.5 -4t-4 -6.5t-1 -10v-135z" />
<glyph unicode="&#xf1;" horiz-adv-x="1394" d="M143 1067v111q0 17 9 73q4 23 4 66.5v52.5q0 30 24 39q59 25 103 25q33 0 79 -17q36 -16 60 -59q7 -12 47 -82.5t63 -106.5q33 -55 198 -278.5t194 -243.5q4 36 4 58v415q0 29 -4 41q-6 33 -6 103q0 116 4 141q4 29 30 29q38 0 114 -2t114 -2q30 0 49 -19q18 -11 18 -41 q0 -18 -1 -51t-1 -49t2 -45t2 -45q0 -14 1 -40t1 -38q0 -5 -2 -14.5t-2 -14.5q-6 -30 -6 -63q0 -10 1 -32t1 -34q0 -7 -2 -21.5t-2 -21.5q0 -12 2 -38t2 -40q0 -9 -1 -27t-1 -26q0 -4 1 -13.5t1 -13.5q0 -7 -1 -22t-1 -23q0 -7 4 -22.5t4 -22.5q0 -6 -4 -34t-4 -44 q0 -27 2 -79t2 -78q0 -11 -3 -34t-3 -36q0 -9 1 -27.5t1 -27.5q0 -4 -1 -14t-1 -15q0 -16 3 -49t3 -49v-62q0 -7 2 -23t2 -24q0 -24 -11.5 -40.5t-33.5 -16.5q-35 -2 -104 -2q-41 0 -127 12q-44 6 -70 47q-50 61 -96 136q-15 23 -44.5 61.5t-35.5 46.5q-17 21 -52 69.5 t-57 75.5q-14 16 -49.5 72t-42.5 66q-12 18 -53 71l-6 -2q0 -5 -1 -17t-1 -18q0 -11 2 -33.5t2 -35.5q0 -12 -1 -34t-1 -32q0 -16 2 -45t2 -43q0 -55 4 -163t4 -162v-29q-4 -42 -105 -41h-7q-10 0 -28.5 3t-27.5 3q-11 0 -34.5 -3t-34.5 -3q-35 0 -60.5 15.5t-25.5 47.5 q0 5 1 15.5t1 15.5q0 16 -1 46t-1 46t1 50t1 51q0 25 -2 76t-2 77q0 12 1 34t1 34q0 4 -2 13.5t-2 13.5t2 13.5t2 14.5q0 7 -2 22.5t-2 22.5q0 4 1 12.5t1 12.5q0 17 -3.5 48t-3.5 48q0 6 1.5 19t1.5 20q0 12 -2.5 34t-2.5 34q0 10 2.5 29t2.5 28q0 10 -2.5 30.5t-2.5 32.5 q0 5 1 15.5t1 15.5q0 14 -2 40.5t-2 39.5zM346 1604q0 70 26 131t80 102t126 41q43 0 86 -28t70.5 -61t50.5 -61t30 -28q6 0 16 10q13 16 19.5 40.5t7 36.5t2.5 46q0 16 5.5 23t21.5 8q58 10 127 10q21 0 35 -12.5t14 -32.5v-8q-2 -12 -6 -43t-8 -47q-17 -87 -71.5 -153.5 t-135.5 -66.5q-11 0 -47 9q-66 19 -94 35.5t-64 66.5l-23 31q-12 12 -22 12q-8 0 -15 -5t-12 -15.5t-8.5 -20t-6.5 -25t-4 -23l-3 -22.5t-2 -16q-6 -16 -19 -16q-91 0 -157 14q-19 4 -19 68z" />
<glyph unicode="&#xf2;" horiz-adv-x="1683" d="M125 723q0 124 22 199q4 15 17 40.5t14 28.5q49 104 84 158q11 20 58.5 62t78.5 63q8 6 23 16q56 39 84.5 57t74 40.5t92 31t103.5 8.5q19 0 58 3.5t59 3.5q80 0 203 -35q79 -23 136.5 -53.5t104 -79t77 -92.5t79.5 -125q11 -19 33 -97q35 -101 35 -112q0 -101 -9 -158 v-8q0 -7 1 -21.5t1 -21.5q0 -78 -20 -142l-21 -61q-22 -84 -149 -227q-34 -42 -61 -64q-3 -2 -30 -18.5t-36 -26.5q-28 -30 -86 -54.5t-100 -27.5q-10 -1 -29.5 -6t-28.5 -6q-54 -4 -82 -4q-17 0 -45.5 6t-34.5 6q-18 0 -38.5 2t-45 5.5t-38.5 4.5q-29 2 -80 17t-66 18 q-14 3 -31 10.5t-29 14.5t-31.5 19t-27.5 16t-104 59q-16 10 -29 29q-7 9 -48.5 50.5t-53.5 72.5q-4 16 -18.5 43.5t-18.5 38.5q-29 80 -33 96q-14 60 -14 221zM424 1872q0 6 9 10t25.5 6t34.5 3t39.5 1.5t37.5 0.5t32 -0.5t19 -0.5q22 0 35 -1.5t29.5 -9t25.5 -21.5 q1 -2 33 -51.5t63 -99.5t58.5 -98t27.5 -57q0 -24 -127 -24q-9 0 -26.5 2t-26.5 2q-30 0 -45 20q-32 36 -138 172t-106 146zM453 733q0 -39 0.5 -56.5t6 -46.5t17.5 -52q20 -42 80 -109q30 -38 71 -60.5t105 -46.5q30 -10 39 -10q5 0 13 2t12 2q8 0 31 -6t38 -6q32 0 74 10 q8 2 27 10.5t30 8.5h7q30 12 100 61.5t70 67.5t14.5 45t17.5 41q17 81 17 174q0 38 -15 90.5t-37 77.5q-12 14 -29.5 43.5t-35 50t-41.5 29.5q-18 7 -62 24.5t-69 26.5q-40 14 -68 14t-79 -16.5t-60 -18.5q-13 -3 -26.5 -7.5t-29 -12.5t-25 -13t-28.5 -16t-24 -14 q-20 -11 -31 -31q-5 -8 -21 -24t-22 -27q-67 -116 -67 -205z" />
<glyph unicode="&#xf3;" horiz-adv-x="1683" d="M125 723q0 124 22 199q4 15 17 40.5t14 28.5q49 104 84 158q11 20 58.5 62t78.5 63q8 6 23 16q56 39 84.5 57t74 40.5t92 31t103.5 8.5q19 0 58 3.5t59 3.5q80 0 203 -35q79 -23 136.5 -53.5t104 -79t77 -92.5t79.5 -125q11 -19 33 -97q35 -101 35 -112q0 -101 -9 -158 v-8q0 -7 1 -21.5t1 -21.5q0 -78 -20 -142l-21 -61q-22 -84 -149 -227q-34 -42 -61 -64q-3 -2 -30 -18.5t-36 -26.5q-28 -30 -86 -54.5t-100 -27.5q-10 -1 -29.5 -6t-28.5 -6q-54 -4 -82 -4q-17 0 -45.5 6t-34.5 6q-18 0 -38.5 2t-45 5.5t-38.5 4.5q-29 2 -80 17t-66 18 q-14 3 -31 10.5t-29 14.5t-31.5 19t-27.5 16t-104 59q-16 10 -29 29q-7 9 -48.5 50.5t-53.5 72.5q-4 16 -18.5 43.5t-18.5 38.5q-29 80 -33 96q-14 60 -14 221zM453 733q0 -39 0.5 -56.5t6 -46.5t17.5 -52q20 -42 80 -109q30 -38 71 -60.5t105 -46.5q30 -10 39 -10q5 0 13 2 t12 2q8 0 31 -6t38 -6q32 0 74 10q8 2 27 10.5t30 8.5h7q30 12 100 61.5t70 67.5t14.5 45t17.5 41q17 81 17 174q0 38 -15 90.5t-37 77.5q-12 14 -29.5 43.5t-35 50t-41.5 29.5q-18 7 -62 24.5t-69 26.5q-40 14 -68 14t-79 -16.5t-60 -18.5q-13 -3 -26.5 -7.5t-29 -12.5 t-25 -13t-28.5 -16t-24 -14q-20 -11 -31 -31q-5 -8 -21 -24t-22 -27q-67 -116 -67 -205zM776 1550q0 17 77 139t108 166q21 33 88 33q3 0 19 0.5t32 0.5t37.5 -0.5t39.5 -1.5t34 -3t25 -6t9 -10q0 -9 -102.5 -142.5t-138.5 -175.5q-18 -20 -48 -20q-8 0 -26 -2t-27 -2 q-127 0 -127 24z" />
<glyph unicode="&#xf4;" horiz-adv-x="1683" d="M125 723q0 124 22 199q4 15 17 40.5t14 28.5q49 104 84 158q11 20 58.5 62t78.5 63q8 6 23 16q56 39 84.5 57t74 40.5t92 31t103.5 8.5q19 0 58 3.5t59 3.5q80 0 203 -35q79 -23 136.5 -53.5t104 -79t77 -92.5t79.5 -125q11 -19 33 -97q35 -101 35 -112q0 -101 -9 -158 v-8q0 -7 1 -21.5t1 -21.5q0 -78 -20 -142l-21 -61q-22 -84 -149 -227q-34 -42 -61 -64q-3 -2 -30 -18.5t-36 -26.5q-28 -30 -86 -54.5t-100 -27.5q-10 -1 -29.5 -6t-28.5 -6q-54 -4 -82 -4q-17 0 -45.5 6t-34.5 6q-18 0 -38.5 2t-45 5.5t-38.5 4.5q-29 2 -80 17t-66 18 q-14 3 -31 10.5t-29 14.5t-31.5 19t-27.5 16t-104 59q-16 10 -29 29q-7 9 -48.5 50.5t-53.5 72.5q-4 16 -18.5 43.5t-18.5 38.5q-29 80 -33 96q-14 60 -14 221zM453 733q0 -39 0.5 -56.5t6 -46.5t17.5 -52q20 -42 80 -109q30 -38 71 -60.5t105 -46.5q30 -10 39 -10q5 0 13 2 t12 2q8 0 31 -6t38 -6q32 0 74 10q8 2 27 10.5t30 8.5h7q30 12 100 61.5t70 67.5t14.5 45t17.5 41q17 81 17 174q0 38 -15 90.5t-37 77.5q-12 14 -29.5 43.5t-35 50t-41.5 29.5q-18 7 -62 24.5t-69 26.5q-40 14 -68 14t-79 -16.5t-60 -18.5q-13 -3 -26.5 -7.5t-29 -12.5 t-25 -13t-28.5 -16t-24 -14q-20 -11 -31 -31q-5 -8 -21 -24t-22 -27q-67 -116 -67 -205zM532 1522q0 14 34.5 68.5t86 128t52.5 75.5q22 31 44 40t62 9q90 0 133 -8q29 -4 62 -45q11 -13 163 -213q17 -20 17 -47q0 -10 -4 -17.5t-8 -11t-13.5 -5t-15 -2t-18 0t-15.5 0.5 q-2 0 -47 -1t-72.5 0t-44.5 5q-24 6 -39 27l-55 88q-19 -9 -38 -41.5t-41.5 -59t-53.5 -26.5q-8 0 -26 1t-27 1q-2 0 -15 -0.5t-23 -0.5t-25.5 1t-27 3t-22.5 5.5t-17 10t-6 14.5z" />
<glyph unicode="&#xf5;" horiz-adv-x="1683" d="M125 723q0 124 22 199q4 15 17 40.5t14 28.5q49 104 84 158q11 20 58.5 62t78.5 63q8 6 23 16q56 39 84.5 57t74 40.5t92 31t103.5 8.5q19 0 58 3.5t59 3.5q80 0 203 -35q79 -23 136.5 -53.5t104 -79t77 -92.5t79.5 -125q11 -19 33 -97q35 -101 35 -112q0 -101 -9 -158 v-8q0 -7 1 -21.5t1 -21.5q0 -78 -20 -142l-21 -61q-22 -84 -149 -227q-34 -42 -61 -64q-3 -2 -30 -18.5t-36 -26.5q-28 -30 -86 -54.5t-100 -27.5q-10 -1 -29.5 -6t-28.5 -6q-54 -4 -82 -4q-17 0 -45.5 6t-34.5 6q-18 0 -38.5 2t-45 5.5t-38.5 4.5q-29 2 -80 17t-66 18 q-14 3 -31 10.5t-29 14.5t-31.5 19t-27.5 16t-104 59q-16 10 -29 29q-7 9 -48.5 50.5t-53.5 72.5q-4 16 -18.5 43.5t-18.5 38.5q-29 80 -33 96q-14 60 -14 221zM453 733q0 -39 0.5 -56.5t6 -46.5t17.5 -52q20 -42 80 -109q30 -38 71 -60.5t105 -46.5q30 -10 39 -10q5 0 13 2 t12 2q8 0 31 -6t38 -6q32 0 74 10q8 2 27 10.5t30 8.5h7q30 12 100 61.5t70 67.5t14.5 45t17.5 41q17 81 17 174q0 38 -15 90.5t-37 77.5q-12 14 -29.5 43.5t-35 50t-41.5 29.5q-18 7 -62 24.5t-69 26.5q-40 14 -68 14t-79 -16.5t-60 -18.5q-13 -3 -26.5 -7.5t-29 -12.5 t-25 -13t-28.5 -16t-24 -14q-20 -11 -31 -31q-5 -8 -21 -24t-22 -27q-67 -116 -67 -205zM502 1585q0 109 62.5 192t168.5 83q43 0 86 -28t70.5 -61.5t51 -61.5t30.5 -28q5 0 16 11q13 16 19.5 40.5t7 36.5t2.5 46q0 16 5 22.5t21 7.5q58 10 127 10q21 0 35.5 -12.5 t14.5 -32.5v-8q-2 -11 -6 -42.5t-9 -47.5q-17 -87 -71.5 -153t-135.5 -66q-15 0 -47 8q-65 18 -92.5 35.5t-64.5 67.5l-23 30q-13 13 -22 13q-6 0 -11.5 -3t-10 -9.5t-8.5 -13.5t-6.5 -17.5t-5 -18.5t-4 -19.5t-2.5 -17.5t-2.5 -16t-1.5 -12q-10 -16 -18 -17q-88 0 -158 15 q-18 4 -18 67z" />
<glyph unicode="&#xf6;" horiz-adv-x="1683" d="M125 723q0 124 22 199q4 15 17 40.5t14 28.5q49 104 84 158q11 20 58.5 62t78.5 63q8 6 23 16q56 39 84.5 57t74 40.5t92 31t103.5 8.5q19 0 58 3.5t59 3.5q80 0 203 -35q79 -23 136.5 -53.5t104 -79t77 -92.5t79.5 -125q11 -19 33 -97q35 -101 35 -112q0 -101 -9 -158 v-8q0 -7 1 -21.5t1 -21.5q0 -78 -20 -142l-21 -61q-22 -84 -149 -227q-34 -42 -61 -64q-3 -2 -30 -18.5t-36 -26.5q-28 -30 -86 -54.5t-100 -27.5q-10 -1 -29.5 -6t-28.5 -6q-54 -4 -82 -4q-17 0 -45.5 6t-34.5 6q-18 0 -38.5 2t-45 5.5t-38.5 4.5q-29 2 -80 17t-66 18 q-14 3 -31 10.5t-29 14.5t-31.5 19t-27.5 16t-104 59q-16 10 -29 29q-7 9 -48.5 50.5t-53.5 72.5q-4 16 -18.5 43.5t-18.5 38.5q-29 80 -33 96q-14 60 -14 221zM453 733q0 -39 0.5 -56.5t6 -46.5t17.5 -52q20 -42 80 -109q30 -38 71 -60.5t105 -46.5q30 -10 39 -10q5 0 13 2 t12 2q8 0 31 -6t38 -6q32 0 74 10q8 2 27 10.5t30 8.5h7q30 12 100 61.5t70 67.5t14.5 45t17.5 41q17 81 17 174q0 38 -15 90.5t-37 77.5q-12 14 -29.5 43.5t-35 50t-41.5 29.5q-18 7 -62 24.5t-69 26.5q-40 14 -68 14t-79 -16.5t-60 -18.5q-13 -3 -26.5 -7.5t-29 -12.5 t-25 -13t-28.5 -16t-24 -14q-20 -11 -31 -31q-5 -8 -21 -24t-22 -27q-67 -116 -67 -205zM498 1614q0 59 46 111.5t103 52.5q66 0 108 -46.5t42 -113.5q0 -64 -37 -102.5t-101 -38.5q-15 0 -27 2.5t-31 10t-26 9.5q-37 12 -57 43t-20 72zM932 1632q0 63 39.5 107.5 t101.5 44.5t105 -45t43 -107q0 -63 -39.5 -103t-102.5 -40t-105 40t-42 103z" />
<glyph unicode="&#xf7;" horiz-adv-x="1011" d="M102 731v23q0 73 62 73h18q30 -4 64 -5.5t79.5 -1.5t65.5 -1q13 0 39.5 -1t40.5 -1q41 0 122 2t122 2q11 0 33 3t34 3q22 0 72 -4q25 -1 38 -24.5t13 -50.5q4 -70 4 -107q0 -21 -19 -42t-40 -21q-10 0 -29.5 4t-29.5 4q-7 0 -20 -2t-19 -2q-10 0 -31 2t-31 2 q-18 0 -52 -3t-50 -3q-70 0 -208.5 -1t-207.5 -1q-46 0 -58 11q-8 8 -8 23q0 19 -1 58.5t-1 60.5h-2zM346 1040q0 38 31 86q34 56 121 56q52 0 100.5 -44t48.5 -96q0 -55 -47.5 -88.5t-105.5 -33.5q-57 0 -89.5 17.5t-50.5 66.5q-8 16 -8 36zM367 336q0 64 38.5 100.5 t102.5 36.5q21 0 57 -4q41 -7 71 -44t30 -79q0 -56 -37.5 -103.5t-93.5 -47.5q-75 0 -121.5 34.5t-46.5 106.5z" />
<glyph unicode="&#xf8;" horiz-adv-x="1763" d="M123 672q0 105 20 176q3 9 5.5 24t6.5 26t11 22q4 7 16.5 50t16.5 54q14 30 36 63.5t37.5 52t50 58t44.5 51.5q23 25 98 74q91 60 149 70q11 2 40 11t46 11q8 1 45.5 8t57.5 7q29 0 90 -8.5t92 -8.5h25q9 0 66.5 -14.5t78.5 -20.5q3 -1 20.5 -9.5t24.5 -8.5t28.5 25.5 t47.5 51t43 25.5q12 0 28 -7t38 -21.5t34 -23.5t37 -28l25 -20q14 -9 27.5 -30t13.5 -36q0 -17 -22.5 -38t-22.5 -27q0 -10 8 -14q52 -62 71 -113q5 -15 19.5 -41t19.5 -39q7 -16 20.5 -63.5t16.5 -65.5q8 -63 8 -145q0 -122 -43 -273q-10 -38 -65 -145q-13 -24 -43.5 -58.5 t-38.5 -46.5q-12 -16 -28.5 -31.5t-27.5 -24t-35 -25.5t-32 -23q-130 -104 -317 -137q-16 -2 -99 -2q-92 0 -135 6q-18 3 -100 28q-78 20 -160 60q-5 -5 -31 -40t-46 -51t-44 -16q-10 0 -22 9q-68 50 -113 92q-12 9 -12 28q0 21 35 66q3 4 11 9t11 9q4 4 19 29l-7 6 q-64 52 -116 145.5t-66 176.5q-12 65 -12 131zM489 692q0 -36 20 -100t42 -84q22 18 47.5 50t59.5 80.5t42 59.5q240 311 291 381q-46 21 -112 21q-171 0 -280.5 -118t-109.5 -290zM743 330q53 -19 121 -19q56 0 80.5 1t67 10t73.5 28q6 4 25 16t27.5 18t21.5 17t23 23 q114 150 114 305q0 45 -21.5 105.5t-51.5 83.5q-20 -16 -52 -56q-23 -30 -98 -119q-11 -14 -33 -45t-36 -47q-10 -11 -79 -91t-104 -124l-20 -24t-23 -27.5t-18.5 -25t-16.5 -29.5z" />
<glyph unicode="&#xf9;" horiz-adv-x="1245" d="M123 993q0 31 3 93t3 92q0 14 -1 43t-1 43q0 81 14 129q8 20 31 26q66 17 121 17q14 0 40 -2t38 -2h12.5h14t13 -0.5t14 -2t12 -4t12.5 -6.5q5 -3 8.5 -9t5.5 -15.5t3 -14.5t2 -17t1 -13q0 -50 4 -148q1 -13 4.5 -51t3.5 -59v-37h-2q0 -23 -1 -71t-1 -71q0 -67 -4 -88 q-2 -4 -2 -16q0 -23 6 -70.5t6 -72.5v-39.5v-51t1 -51t3.5 -57.5t6.5 -50t10.5 -48.5t15.5 -34.5q30 -45 109 -45q78 0 116.5 63t38.5 146v16q9 18 9 92q0 88 -11 133q0 3 1 9.5t1 9.5q0 12 -2 35t-2 34q0 129 -4 195q0 6 -2 19.5t-2 19.5q0 4 3 12.5t3 13.5q0 7 1 20.5 t1 20.5q0 32 -4 95t-4 94q0 54 4 69q3 22 27 29q26 7 81.5 13t88.5 6q14 0 59 -9q41 -6 55.5 -21.5t24.5 -55.5q6 -27 6 -54q0 -18 -3 -56t-3 -58q0 -14 2 -40t2 -40q0 -18 -1 -55t-1 -56q4 -78 4 -117q0 -7 -3 -19.5t-3 -18.5q0 -14 2 -41t2 -41q0 -8 -2 -23t-2 -22 q0 -15 5 -42t5 -42q0 -7 -3 -22t-3 -23q0 -46 -18 -156q-2 -9 -9 -58.5t-14 -74.5q-5 -15 -21 -42.5t-20 -37.5q-24 -50 -49 -79t-70 -64q-71 -60 -137 -60q-47 0 -86 -8q-4 -4 -12 -4h-105v2h-65q-15 1 -40.5 8.5t-37.5 9.5q-25 3 -60.5 15.5t-49.5 25.5q-60 52 -89 86 q-80 93 -92 426q0 23 -3.5 66.5t-4.5 58.5q0 1 -3 32.5t-3 47.5q0 15 2 42t2 40q0 24 -4 70.5t-4 68.5zM256 1778q0 6 9 10t25.5 6t34.5 3t39.5 1.5t37.5 0.5t32 -0.5t19 -0.5q69 0 90 -33q2 -3 33 -52t63 -98.5t59 -97.5t27 -57q0 -24 -127 -24q-9 0 -26.5 2t-26.5 2 q-30 0 -45 20q-32 36 -138 172t-106 146z" />
<glyph unicode="&#xfa;" horiz-adv-x="1245" d="M123 993q0 31 3 93t3 92q0 14 -1 43t-1 43q0 81 14 129q8 20 31 26q66 17 121 17q14 0 40 -2t38 -2h12.5h14t13 -0.5t14 -2t12 -4t12.5 -6.5q5 -3 8.5 -9t5.5 -15.5t3 -14.5t2 -17t1 -13q0 -50 4 -148q1 -13 4.5 -51t3.5 -59v-37h-2q0 -23 -1 -71t-1 -71q0 -67 -4 -88 q-2 -4 -2 -16q0 -23 6 -70.5t6 -72.5v-39.5v-51t1 -51t3.5 -57.5t6.5 -50t10.5 -48.5t15.5 -34.5q30 -45 109 -45q78 0 116.5 63t38.5 146v16q9 18 9 92q0 88 -11 133q0 3 1 9.5t1 9.5q0 12 -2 35t-2 34q0 129 -4 195q0 6 -2 19.5t-2 19.5q0 4 3 12.5t3 13.5q0 7 1 20.5 t1 20.5q0 32 -4 95t-4 94q0 54 4 69q3 22 27 29q26 7 81.5 13t88.5 6q14 0 59 -9q41 -6 55.5 -21.5t24.5 -55.5q6 -27 6 -54q0 -18 -3 -56t-3 -58q0 -14 2 -40t2 -40q0 -18 -1 -55t-1 -56q4 -78 4 -117q0 -7 -3 -19.5t-3 -18.5q0 -14 2 -41t2 -41q0 -8 -2 -23t-2 -22 q0 -15 5 -42t5 -42q0 -7 -3 -22t-3 -23q0 -46 -18 -156q-2 -9 -9 -58.5t-14 -74.5q-5 -15 -21 -42.5t-20 -37.5q-24 -50 -49 -79t-70 -64q-71 -60 -137 -60q-47 0 -86 -8q-4 -4 -12 -4h-105v2h-65q-15 1 -40.5 8.5t-37.5 9.5q-25 3 -60.5 15.5t-49.5 25.5q-60 52 -89 86 q-80 93 -92 426q0 23 -3.5 66.5t-4.5 58.5q0 1 -3 32.5t-3 47.5q0 15 2 42t2 40q0 24 -4 70.5t-4 68.5zM518 1473q0 17 77 140t107 165q13 21 34 26.5t55 5.5q3 0 19 0.5t32 0.5t37.5 -0.5t39.5 -1.5t34 -3t25 -6t9 -10q0 -9 -102.5 -141t-139.5 -176q-18 -21 -47 -21 q-8 0 -26 -2t-27 -2q-127 0 -127 25z" />
</font>
</defs>
</svg>
