<?xml version="1.0" standalone="no"?>
<!DOCTYPE svg PUBLIC "-//W3C//DTD SVG 1.1//EN" "http://www.w3.org/Graphics/SVG/1.1/DTD/svg11.dtd" >
<svg xmlns="http://www.w3.org/2000/svg" xmlns:xlink="http://www.w3.org/1999/xlink" version="1.1">
<metadata></metadata>
<defs>
<font id="true_north_bannersregular" horiz-adv-x="614" >
<font-face units-per-em="2048" ascent="1638" descent="-410" />
<missing-glyph horiz-adv-x="500" />
<glyph horiz-adv-x="0" />
<glyph horiz-adv-x="682" />
<glyph unicode=" " />
<glyph unicode="!" horiz-adv-x="4028" d="M102 666q0 9 32 24t42 15q8 0 24.5 1t24.5 1q13 0 37 -4.5t37 -4.5t40 3.5t40 3.5q102 0 309 -4.5t311 -4.5q46 0 139 2t140 2q127 0 385 -4t365 -4q39 -6 89.5 -7t114.5 1t84 2q51 0 153.5 3t153.5 3q17 0 52 2t53 2q12 0 38 -2t40 -2h14q10 0 29.5 -1t29.5 -1h13 q12 0 33.5 -1t31.5 -1q19 0 54.5 2t52.5 2q22 0 67 -3t68 -3q26 0 80 3t78 3q15 0 46 -1t46 -1q55 0 164 3t164 3q7 0 24.5 0.5t28.5 0.5t27.5 -1t27 -3t21 -6t15.5 -11t5 -16q0 -19 -22 -30.5t-58 -15t-69 -4.5t-68.5 -0.5t-42.5 0.5q-146 6 -606 6q-85 0 -256 -2t-256 -2 h-88q-6 0 -49 -5t-74 -5q-42 0 -105.5 2t-70.5 2h-29q-64 0 -186 8q-78 4 -166.5 7t-150.5 4.5t-169.5 2.5t-149 1h-169h-154.5q-11 0 -31.5 2t-33.5 2q-31 0 -98.5 -5t-84.5 -5q-70 0 -207 3t-204 3q-8 0 -24.5 -2t-24.5 -2q-16 0 -45.5 2t-43.5 2h-8q-30 0 -55 10t-25 25z " />
<glyph unicode="&#x22;" horiz-adv-x="6203" d="M102 723q0 26 13 31.5t59 5.5q51 0 153.5 -1t153.5 -1q53 0 160 2t160 2h82q44 0 132.5 2t133.5 2q15 0 50.5 -4t53.5 -4q26 0 78 2t80 2q63 0 198.5 -2t202.5 -2q42 0 127 3t127 3q18 0 55.5 -1t57.5 -1h82q53 0 159.5 -2t159.5 -2q181 0 271 2q36 0 39 -23q2 -2 2 -8 q-1 -13 -11.5 -22t-31 -14t-41.5 -8t-52 -3.5t-53 -0.5t-54 0.5t-46 0.5q-42 0 -127 3t-127 3q-25 0 -74 -3t-73 -3q-12 0 -35 1t-35 1t-35 -1t-35 -1q-27 0 -51 6q-29 -4 -86 -4h-74q-17 0 -48 -3t-46 -3q-39 0 -114 2t-113 2q-37 0 -111 -2t-112 -2q-17 0 -49.5 3t-47.5 3 h-73q-57 0 -86 4q-24 -6 -52 -6q-11 0 -34 1t-35 1q-13 0 -37 -1t-35 -1q-24 0 -73 3t-72 3q-43 0 -127.5 -3t-126.5 -3q-3 0 -273 6h-24q-60 0 -60 35zM3015 711q0 38 29 65t79 27q21 0 43.5 -26.5t22.5 -47.5q0 -33 -21 -65.5t-67 -32.5q-35 0 -60.5 24t-25.5 56z M3312 723q0 26 12.5 31.5t58.5 5.5q51 0 153.5 -1t153.5 -1q53 0 160 2t160 2h82q44 0 132.5 2t133.5 2q18 0 52 -4t53 -4q27 0 79 2t78 2q66 0 201 -2t201 -2q43 0 127.5 3t126.5 3q18 0 56 -1t56 -1h82q53 0 160 -2t160 -2q180 0 270 2q36 0 39 -23q2 -2 2 -8 q-1 -13 -11.5 -22t-31 -14t-41.5 -8t-52 -3.5t-53 -0.5t-54 0.5t-46 0.5q-42 0 -126 3t-126 3q-25 0 -74.5 -3t-72.5 -3q-13 0 -36 1t-34 1q-13 0 -36.5 -1t-34.5 -1q-28 0 -52 6q-29 -4 -86 -4h-73q-17 0 -48.5 -3t-46.5 -3q-38 0 -113 2t-112 2q-38 0 -112.5 -2t-112.5 -2 q-17 0 -49 3t-47 3h-74q-57 0 -86 4q-24 -6 -51 -6q-11 0 -35 1t-35 1q-13 0 -36 -1t-34 -1q-25 0 -74 3t-73 3q-43 0 -127.5 -3t-126.5 -3q-2 0 -272 6h-25q-59 0 -59 35z" />
<glyph unicode="#" horiz-adv-x="3323" d="M102 752q7 16 38 30t68.5 25t43.5 14q16 7 55.5 19.5t64.5 22.5t25 18q0 29 -2 93.5t-2 96.5q0 143 37 143q15 0 29.5 -11t26 -24t16.5 -16q181 -121 396.5 -206.5t384 -120.5t292.5 -35q70 -6 143 -6q14 0 44 3t46 3h17q47 0 104.5 7.5t98 16t108.5 24t98 21.5 q38 9 78.5 23t69 24.5t74 32t64.5 30.5t71 35.5t65 33.5q60 20 129.5 65.5t100.5 83.5q13 8 36 8q8 0 13.5 -10t5.5 -25q-2 -10 -2 -30q0 -51 1 -81t5 -76.5t14 -74t27 -35.5q26 -5 86.5 -29t95.5 -30q3 -1 12 -3.5t15 -4.5t13 -5.5t10.5 -7t3.5 -8.5q0 -22 -144 -104 q-43 -27 -97 -57t-87 -47.5t-103.5 -53.5t-91.5 -47q-12 -9 -24 -12q-365 -141 -758 -199q-14 -2 -43 -2h-102q-18 0 -52 -1t-51 -1q-27 0 -81 2t-81 2h-26q-260 0 -662 127q-187 60 -345 135t-339 195q-3 2 -7.5 4.5t-7.5 4.5t-7 5t-6.5 6.5t-4.5 8.5zM150 748q0 -5 43 -36 t53 -36q19 -2 66 -33.5t53 -34.5q74 -47 161 -86t145 -58t151 -46.5t126 -38.5q19 -7 56 -11.5t49 -7.5q140 -33 286 -50t201 -17q16 0 44.5 2t41.5 2q5 0 15 -2t14 -2q5 0 14 1t14 1q8 -4 25 -4q9 0 69 -0.5t85.5 0t69.5 4t73 10.5q260 42 555 146q19 8 68.5 31t84.5 37.5 t66 21.5q28 7 127 65q17 10 54 29t68 36t63 36.5t50.5 38t18.5 32.5q0 15 -102 42l-14 3h1q-54 15 -85 33t-31 49q0 6 1 20t1 21q0 116 -23 219q-2 0 -5 1t-5 1q-23 0 -77 -44t-73 -52q-294 -165 -510 -223q-300 -80 -530 -80q-426 0 -725 119q-240 95 -487 258q-8 5 -23 15 t-25 17t-12 7q-21 0 -16 -229v-11q0 -10 2 -29t2 -28q0 -15 -38.5 -37.5t-82.5 -39t-89.5 -32t-47.5 -16.5q-16 0 -16 -14z" />
<glyph unicode="$" horiz-adv-x="3287" d="M102 723q0 27 70 27q90 0 267 1t268 1q367 0 555 4q29 0 90.5 -4t95.5 -4q58 0 176 2t176 2q46 0 138 -2t137 -2q34 0 100.5 3t99.5 3q109 0 407 -4t462 -2q17 0 29 -6t12 -15q0 -12 -12.5 -21t-36 -13.5t-49.5 -7t-60.5 -3t-60.5 0t-58.5 1t-46.5 0.5q-39 0 -116.5 2 t-116.5 2q-2 0 -191 -6q-6 0 -17 1t-16 1q-14 0 -39 -1t-38 -1q-21 0 -63 3t-62 3q-45 0 -134.5 -5t-134.5 -5q-42 0 -125 2t-125 2q-31 0 -95 -1t-95 -1q-58 0 -171.5 3t-168.5 3q-33 0 -102 -2t-103 -2q-53 0 -160.5 2t-160.5 2q-23 0 -67.5 -1t-65.5 -1q-268 0 -351 6 q-18 0 -29.5 9.5t-11.5 23.5z" />
<glyph unicode="%" horiz-adv-x="4583" d="M102 459q3 6 7 10q19 14 40 32t35 30.5t39 35.5t35 33q22 14 61 48t39 44q0 3 -19 16.5t-45 32t-38 29.5q-5 5 -46.5 34t-74.5 56t-33 37q0 7 10 10.5t29.5 5t36 1.5t42 -0.5t34.5 -0.5q43 0 129 -1t129 -1q83 0 248.5 4.5t245.5 4.5q62 0 181 -3.5t181 -3.5 q177 0 532.5 2.5t532.5 2.5q128 0 383 -2.5t383 -2.5q63 0 189 3.5t190 3.5q67 0 202.5 -4.5t204.5 -4.5q59 0 176 2t175 2q145 0 145 -18q-1 -14 -34.5 -41.5t-77.5 -57.5t-54 -40q-13 -12 -46.5 -33t-37.5 -27q-6 -3 -6 -8q0 -4 17.5 -20t41.5 -36.5t33 -29.5 q31 -22 96.5 -78t65.5 -63q0 -25 -129 -25q-27 0 -39 2q-13 0 -37 -1t-37 -1q-36 0 -108.5 4t-108.5 4q-119 0 -178 -2q-8 0 -26 1t-27 1q-51 0 -78 -2q-10 0 -31 1t-33 1q-41 0 -127.5 -2t-128.5 -2q-76 0 -225.5 1t-224.5 1q-124 0 -371.5 -2t-371.5 -2q-82 0 -247 2 t-247 2q-100 0 -299 -1t-301 -1q-47 0 -137 4q-7 0 -22 -1t-23 -1q-12 0 -38 1t-38 1q-16 0 -45 -1t-43 -1q-26 0 -76 1t-76 1h-39h-41q-8 0 -23.5 -2t-23.5 -2q-3 0 -10.5 2t-11.5 2q-38 0 -115.5 -4t-116.5 -4h-20h-23.5t-21 1t-23.5 3.5t-18 6.5t-17 10z" />
<glyph unicode="&#x26;" horiz-adv-x="5410" d="M102 473q0 4 13.5 21t40.5 37.5t55 27.5q26 13 99 60.5t73 60.5q0 3 -38 37.5t-58 48.5q-24 16 -76.5 52.5t-52.5 37.5q0 35 184 35q10 -1 30 -2t29 -2h52q21 0 64 -2t65 -2q15 0 46 2t48 2q24 0 70 -2t69 -2t69 1t68 1q9 0 30.5 -1t31.5 -1q8 0 24.5 1t24.5 1 q11 0 33 -1t34 -1q8 0 25.5 1t24.5 1t20 -1t19 -1q48 0 160.5 3t166.5 3q59 0 182.5 -4t184.5 -4q33 0 98 1t96 1h43q38 0 113.5 1t112.5 1h96q32 0 96 1t96 1q44 0 129.5 -1t128.5 -1h111q38 0 113.5 -1t113.5 -1h43q31 0 96.5 -1t98.5 -1q60 0 182 4t183 4q56 0 164.5 -3 t162.5 -3q6 0 19.5 1t19.5 1q8 0 24.5 -1t24.5 -1q12 0 35 1t35 1q8 0 24.5 -1t24.5 -1q10 0 30.5 1t30.5 1q22 0 69 -1t69 -1q24 0 70 2t69 2q17 0 48 -2t46 -2q21 0 64 2t65 2h51q9 1 29.5 2t30.5 2q182 0 182 -35q0 -3 -2 -5t-5.5 -4t-4.5 -3q-21 -9 -39.5 -21 t-42.5 -31.5t-33 -25.5q-2 -1 -21.5 -14.5t-34 -24.5t-28.5 -25t-14 -22q0 -10 33 -32t76.5 -47.5t56.5 -37.5q17 0 66.5 -35.5t49.5 -54.5q0 -20 -67 -20h-27q-75 0 -225 -4.5t-225 -4.5q-10 0 -30 1t-30 1q-28 0 -82 -2t-80 -2q-10 0 -29.5 1t-29.5 1t-31.5 -1t-31.5 -1 h-170q-22 0 -68 -1t-68 -1q-106 0 -318 5.5t-318 5.5h-109q-13 0 -36 1t-34 1q-14 0 -38.5 -3.5t-36.5 -3.5q-5 0 -15.5 1.5t-15.5 1.5q-9 0 -27.5 -1.5t-27.5 -1.5q-165 7 -304 7q-35 0 -102.5 -2t-103.5 -2h-156q-100 0 -199 -3q-9 0 -27.5 1.5t-27.5 1.5q-5 0 -15.5 -1.5 t-15.5 -1.5q-13 0 -38 3.5t-38 3.5q-11 0 -34 -1t-35 -1h-53q-123 0 -351.5 -5.5t-341.5 -5.5q-22 0 -67 1t-68 1h-170q-12 0 -32.5 1t-30.5 1t-30.5 -1t-29.5 -1q-28 0 -81.5 2t-79.5 2q-10 0 -30 -1t-30 -1q-75 0 -225 4.5t-225 4.5h-27q-31 0 -45 4q-23 7 -23 16z" />
<glyph unicode="'" horiz-adv-x="5412" d="M102 477q0 14 14 37t31 33q7 4 28.5 29.5t37.5 33.5q2 0 44 38t85 84t43 63q-35 53 -96 133q-8 9 -28.5 29.5t-35 36t-31 33.5t-25.5 29.5t-9 16.5q8 45 174 45q29 0 102 -6t113 -6q20 0 57.5 3t55.5 3q24 0 72 -3t73 -3q23 0 71.5 2t73.5 2q10 0 29.5 -2t28.5 -2 q8 0 23 2t22 2q13 0 39 -2t39 -2q8 0 24.5 2t24.5 2q7 0 21 -2t22 -2q14 0 44 2t46 2h24q34 0 103 4t102 4q58 0 174 -6t174 -6h97h34q59 0 170.5 3t167.5 3q19 0 55.5 -1t53.5 -1q39 0 117.5 2t117.5 2q37 0 111 -2t111 -2q21 0 61 1t61 1q57 0 169 -3t171 -3h35h97 q57 0 173 6t173 6q35 0 103 -4t101 -4h27q14 0 44 -2t46 -2q6 0 21 2t22 2q8 0 24.5 -2t24.5 -2q14 0 39 2t37 2q8 0 23 -2t22 -2q9 0 29.5 2t30.5 2q25 0 73 -2t72 -2q25 0 72.5 3t70.5 3q20 0 57.5 -3t55.5 -3q36 0 109 6t108 6q165 0 174 -45q0 -20 -65 -90.5 t-115 -116.5q-45 -60 -45 -71q0 -9 8 -17q23 -31 79 -81.5t77 -80.5q10 -10 34 -30.5t44 -42t34 -45.5q6 -12 6 -21q0 -33 -69 -33h-27q-75 0 -225 -6t-225 -6q-15 0 -44 2t-46 2q-22 0 -67 -3t-67 -3q-9 0 -28.5 1t-28.5 1q-21 0 -61 -1t-60 -1h-102q-22 0 -68.5 -2 t-70.5 -2q-300 0 -641 16q-9 0 -28 -1t-28 -1q-22 0 -63 2t-60 2q-14 0 -37.5 -4t-35.5 -4q-6 0 -18.5 2t-18.5 2q-9 0 -26.5 -2t-26.5 -2q-46 0 -144 5t-149 5q-33 0 -102 -4t-105 -4h-156q-35 0 -104 -1t-105 -1q-8 0 -25.5 2t-25.5 2q-6 0 -18.5 -2t-18.5 -2q-13 0 -37 4 t-37 4q-21 0 -61.5 -2t-60.5 -2q-9 0 -28 1t-28 1q-300 -16 -643 -16q-22 0 -68.5 2t-70.5 2h-100q-21 0 -61.5 1t-59.5 1q-10 0 -29.5 -1t-28.5 -1q-23 0 -67.5 3t-65.5 3q-17 0 -46 -2t-44 -2q-75 0 -224 6t-226 6h-27q-70 0 -70 33zM193 500q0 -4 4 -4h6q52 -11 243 -11 h41q14 0 43 -2t45 -2q23 0 70 2t70 2q21 0 59 -3t57 -3q23 0 71 3t71 3q14 -2 45 -2q30 0 88 2t88 2q16 0 48 -2t48 -2q12 0 36 2t36 2q22 0 68 -4q43 0 265 5.5t314 5.5q51 0 137 -2.5t131 -2.5q72 0 215 4.5t213 4.5q79 0 238 -4.5t238 -4.5q36 0 106 2.5t117 2.5 q84 0 293 -5.5t264 -5.5q16 0 46 2t44 2q11 0 35 -2t35 -2q17 0 49 2t49 2q29 0 87 -2t87 -2q31 0 47 2q24 0 70.5 -3t68.5 -3q19 0 58.5 3t60.5 3q7 0 22 -2t21 -2q34 0 95.5 2t88.5 2h41q192 0 244 11h6q2 0 4 2v2q0 6 -65.5 75.5t-93.5 92.5q-31 25 -72 70t-41 57 q0 4 70 98l10 9l21.5 21.5l27.5 27.5t30.5 31.5t27.5 30.5t22.5 27t11.5 19q-6 6 -14 6t-24 -2t-23 -2t-20 1t-19 1h-23q-12 0 -33 1t-32 1q-26 0 -82.5 -6t-81.5 -6q-9 0 -28 3t-29 3h-9q-70 -5 -194 -5t-174 -3q-5 0 -14 1t-13 1q-8 0 -23.5 -3t-23.5 -3q-13 1 -34.5 2.5 t-40 2.5t-34.5 1h-26q-52 0 -157 4t-154 4q-19 0 -58 -2t-59 -2h-43q-21 0 -60 -3t-59 -3q-92 0 -283 4t-286 4q-14 0 -43 -1t-45 -1q-10 0 -32 1t-32 1q-47 0 -144 -2t-145 -2q-30 0 -88 2t-88 2q-92 0 -284 -4t-287 -4q-19 0 -58.5 3t-60.5 3h-43q-18 0 -56.5 2t-58.5 2 q-48 0 -154 -4t-157 -4h-27q-16 0 -34 -1t-39.5 -2.5t-34.5 -2.5q-8 0 -23.5 3t-23.5 3q-4 0 -13 -1t-14 -1q-167 8 -377 8q-9 0 -29.5 -3t-29.5 -3q-26 0 -81 6t-81 6q-12 0 -33.5 -1t-31.5 -1h-23q-6 0 -20 -1t-21 -1q-8 0 -23.5 2t-23.5 2q-6 0 -12 -6q7 -20 70 -82.5 t79 -83.5q9 -9 39.5 -48.5t30.5 -49.5q1 -13 -38.5 -55t-74.5 -72q-40 -34 -98.5 -95t-58.5 -73z" />
<glyph unicode="(" horiz-adv-x="7720" d="M102 711q0 11 11 17.5t22 6.5q300 -4 455 -4q144 0 432 2t434 2q52 0 155.5 -1t155.5 -1q103 0 310 1t311 1q87 0 261 -2t261 -2q91 0 274.5 2t274.5 2q20 -3 27 -20q0 -15 -10 -24t-30 -12t-36.5 -3.5t-42 1t-33.5 1.5q-700 0 -700 2q-413 -10 -746 -10q-33 0 -99 2 t-99 2q-18 0 -54 -1t-53 -1q-356 8 -547 8q-149 0 -444 -1t-442 -1q-14 0 -31 9.5t-17 23.5zM3668 713q0 27 26 56.5t56 29.5q27 0 49.5 -27.5t22.5 -56.5q0 -31 -24.5 -55.5t-57.5 -24.5q-26 0 -49 26.5t-23 51.5zM3906 713q0 27 25.5 56.5t55.5 29.5q27 0 49.5 -27.5 t22.5 -56.5q0 -30 -24.5 -55.5t-57.5 -24.5q-26 0 -48.5 26.5t-22.5 51.5zM4235 711q0 11 11 17.5t22 6.5q300 -4 455 -4q144 0 432 2t434 2q52 0 155.5 -1t155.5 -1q104 0 311 1t310 1q87 0 261 -2t261 -2q91 0 274.5 2t274.5 2q20 -3 27 -20q0 -15 -10 -24t-29.5 -12 t-36 -3.5t-42 1t-34.5 1.5q-682 0 -682 4q-512 -12 -764 -12q-33 0 -99.5 2t-99.5 2q-18 0 -54 -1t-52 -1q-356 8 -547 8q-149 0 -445 -1t-442 -1q-14 0 -30.5 9.5t-16.5 23.5z" />
<glyph unicode=")" horiz-adv-x="6981" d="M102 711q0 13 9 20.5t22 7.5h23q8 0 25.5 1t25.5 1q176 -6 350 -6q67 0 200 3t199 3q98 0 292 -1t292 -1q128 0 385 1t385 1q66 0 200 -3t200 -3q174 0 350 6q9 0 26 -1t25 -1h24q18 0 27 -18q2 -4 2 -12q0 -37 -61 -37q-92 0 -277.5 -1t-277.5 -1q-32 0 -94.5 1t-92.5 1 q-47 0 -139.5 -1t-138.5 -1h-47q-56 0 -165 -4t-163 -4q-10 0 -30.5 2t-32.5 2q-8 0 -27.5 -1t-28.5 -1q-8 0 -25.5 3t-25.5 3t-30 -3t-35 -3q-40 0 -120.5 3t-119.5 3h-47q-47 0 -140.5 1t-140.5 1q-31 0 -92 -1t-92 -1q-89 0 -268 1t-267 1q-44 0 -64 8t-20 31zM3262 713 q0 27 25 56.5t55 29.5q28 0 50 -27t22 -57q0 -29 -23 -54.5t-59 -25.5q-24 0 -47 26.5t-23 51.5zM3576 713q0 27 25 56.5t57 29.5q27 0 49 -27.5t22 -56.5q0 -31 -24.5 -55.5t-59.5 -24.5q-25 0 -47 26.5t-22 51.5zM3817 711q0 13 9 20.5t22 7.5h23q8 0 25.5 1t25.5 1 q176 -6 350 -6q66 0 199 3t200 3q97 0 292 -1t292 -1q128 0 385 1t385 1q65 0 200 -3t200 -3q175 0 350 6q9 0 26 -1t25 -1h25q17 0 26 -18q2 -4 2 -12q0 -37 -59 -37q-95 0 -280.5 -1t-276.5 -1q-32 0 -94.5 1t-92.5 1q-47 0 -139.5 -1t-138.5 -1h-47q-56 0 -165 -4 t-163 -4q-10 0 -30.5 2t-32.5 2q-8 0 -27 -1t-27 -1q-9 0 -27 3t-26 3t-30 -3t-35 -3q-40 0 -120.5 3t-119.5 3h-47q-47 0 -140.5 1t-140.5 1q-30 0 -92 -1t-92 -1q-89 0 -268 1t-267 1q-44 0 -64 8t-20 31z" />
<glyph unicode="*" horiz-adv-x="3266" d="M102 725q0 14 10.5 22.5t24.5 8.5q4 0 13 -1t14 -1q7 0 21.5 1t21.5 1q176 -6 350 -6q67 0 200.5 3t198.5 3q98 0 292 -1t292 -1q128 0 385 1t385 1q66 0 200 -3t200 -3q174 0 350 6q7 0 21.5 -1t21.5 -1q4 0 13 1t13 1q24 0 33 -21q0 -2 1 -5.5t1 -4.5q0 -39 -61 -39 q-91 0 -276 -1t-279 -1q-32 0 -94.5 1t-92.5 1q-47 0 -140.5 -1t-139.5 -1h-47q-54 0 -162 -3t-162 -3q-13 0 -36 2t-34 2q-9 0 -26.5 -2t-26.5 -2q-8 0 -25 3t-24 3t-26 -2t-31 -2q-40 0 -123.5 2t-124.5 2h-47q-47 0 -140.5 1t-140.5 1q-31 0 -93 -1t-93 -1q-91 0 -269 1 t-264 1q-21 0 -33.5 1t-25.5 4.5t-19 12t-6 21.5z" />
<glyph unicode="+" horiz-adv-x="9084" d="M102 700q37 18 57 25.5t25.5 9.5t22 1t22.5 -1q14 0 42.5 -3t43.5 -3q20 0 62.5 1t64.5 1q113 0 337 -2t335 -2q42 0 127.5 1t128.5 1q209 0 626 -6t625 -6q63 0 192 5t193 5q52 0 153 -4t153 -4h24q25 0 74.5 -1t73.5 -1q129 0 388.5 5t389.5 5q22 0 46 -10t24 -23 q0 -42 -225 -41h-7h-5.5h-6.5q-104 0 -308.5 3t-306.5 3q-62 -1 -168 -2.5t-193.5 -2.5t-166.5 -1h-143q-45 0 -132.5 -5t-132.5 -5q-221 0 -664.5 13.5t-664.5 13.5q-41 0 -121.5 2t-121.5 2q-31 0 -95 -5t-96 -5q-72 0 -218 4t-218 4q-12 0 -34 -1t-34 -1q-62 0 -151 14 q-11 4 -17 16zM4481 713q0 25 24.5 55.5t55.5 30.5q29 0 50.5 -27t21.5 -57q0 -29 -23 -55t-59 -25q-26 0 -48 26.5t-22 51.5zM4753 700q35 18 56 26t27 10t21.5 0.5t22.5 -1.5q14 0 43 -3t43 -3q20 0 62.5 1t64.5 1q113 0 337.5 -2t334.5 -2q43 0 128.5 1t127.5 1 q209 0 626 -6t625 -6q66 0 193.5 5t191.5 5q52 0 153.5 -4t152.5 -4h24q24 0 74 -1t76 -1q128 0 387.5 5t388.5 5q22 0 46 -10t24 -23q0 -42 -225 -41h-19q-305 0 -606 6q-534 -6 -537 -6h-143q-45 0 -132.5 -5t-132.5 -5q-217 0 -661.5 13.5t-667.5 13.5q-41 0 -121.5 2 t-121.5 2q-32 0 -96 -5t-95 -5q-71 0 -216.5 4t-219.5 4q-11 0 -34 -1t-34 -1q-56 0 -108.5 9t-59.5 21z" />
<glyph unicode="," horiz-adv-x="378" d="M102 711q0 37 29.5 64.5t79.5 27.5q21 0 43 -26.5t22 -47.5q0 -33 -21 -65.5t-67 -32.5q-35 0 -60.5 24t-25.5 56z" />
<glyph unicode="-" />
<glyph unicode="." horiz-adv-x="378" d="M102 711q0 37 29.5 64.5t79.5 27.5q21 0 43 -26.5t22 -47.5q0 -33 -21 -65.5t-67 -32.5q-35 0 -60.5 24t-25.5 56z" />
<glyph unicode="/" />
<glyph unicode="0" horiz-adv-x="2426" d="M102 422q8 8 35.5 36t39 39t33.5 30.5t42 33.5q3 3 13.5 11t16 15.5t5.5 16.5q0 11 -6 23q-9 15 -50.5 77.5t-62.5 101.5t-21 62q0 13 15 13q8 0 28 -4q272 -69 463 -93q328 -39 533 -39q158 0 266 5q8 0 23 -1t22 -1q92 0 216.5 16t212.5 32.5t231 45.5q7 2 55.5 26.5 t56.5 24.5q12 0 12 -10q0 -13 -51 -95q-10 -15 -43 -58.5t-51 -72.5t-18 -43q0 -6 6 -12q4 -4 57.5 -48t98 -85t44.5 -55v-6q-109 -41 -224 -60.5t-281 -34.5q-264 -43 -631 -43q-13 0 -27 1t-31.5 2.5t-27.5 2.5h-45q-60 0 -213 17q-394 43 -680 110q-6 2 -19 5t-23.5 6.5 t-19.5 7.5z" />
<glyph unicode="1" horiz-adv-x="3586" d="M102 725q0 11 10.5 18t20.5 7q380 -5 457 -5q144 0 432 2.5t434 2.5h197h538q120 0 359.5 -2.5t359.5 -2.5q91 0 274.5 2.5t274.5 2.5q10 0 17.5 -8.5t7.5 -16.5q0 -13 -10 -21.5t-29.5 -10.5t-35.5 -2.5t-41.5 0.5t-33.5 1q-704 0 -704 2q-410 -10 -742 -10 q-34 0 -103.5 3t-103.5 3q-17 0 -49 -2t-49 -2q-364 8 -547 8q-149 0 -444 -1t-442 -1q-14 0 -31 9.5t-17 23.5z" />
<glyph unicode="2" horiz-adv-x="4583" d="M102 379q0 14 27 41q32 26 77 86t68 84q4 3 19.5 24.5t31.5 40.5t21 19l16 20q0 7 -24 25l-20 19q-213 196 -214 239q0 29 150 29q29 0 83.5 -2.5t74.5 -2.5t57.5 1.5t56.5 1.5q6 0 17 -1.5t16 -1.5q88 0 210 5.5t204 5.5q117 0 199.5 -3t95.5 -3q11 0 26 1t21 1 q8 -3 31.5 -3.5t35.5 -3.5q18 5 488 5q261 0 341.5 2t84.5 2q8 0 26 -1t27 -1q2 2 4 2q8 -2 29 -2q18 0 26 2q3 0 5 -2q3 0 7.5 1t6.5 1q57 0 90.5 -2t136.5 -2q526 0 549 -5q49 0 68 7q4 0 13 -1t13 -1q62 0 130 3t110 3q28 0 68 -1t55 -1q37 -6 76.5 -9t67.5 -2.5 t80.5 1.5t86.5 1q14 0 42.5 1.5t45.5 1.5q9 0 28.5 -1.5t28.5 -1.5q104 0 201 5q13 0 40 -1t40 -1h9t20.5 -1t25.5 -3t20 -8t9 -15q0 -25 -258 -283q-2 -3 1 -5q27 -14 67 -75q15 -24 50 -61.5t46 -54.5q12 -17 37 -43.5t41 -45.5t16 -30q0 -33 -129 -33q-13 0 -39 1t-37 1 q-38 0 -83 4t-66 4q-3 0 -9 -1t-8 -1q-12 0 -33 2t-32 2q-5 0 -15 -1t-16 -1q-9 0 -21 1t-16 1q-29 0 -86 -2t-84 -2q-7 0 -24 2t-29 2q-9 0 -37 -2t-45 -2q-10 0 -25 1t-20 1q-40 1 -110 -2.5t-95 -3.5q-14 0 -44 1t-44 1q-16 0 -207.5 0.5t-376.5 1t-186 0.5 q-46 0 -143.5 -1t-126.5 -1h-2q-85 0 -166 1t-105 1q-166 0 -310.5 -0.5t-235.5 -1t-156 -1t-99.5 -1t-39.5 -0.5q-23 0 -50.5 1t-60.5 2.5t-53 2.5q-6 0 -22 1.5t-28.5 1t-23.5 -4.5q-21 0 -60.5 2t-50.5 2t-27 -2t-24 -2h-2q-24 0 -72 2t-71 2q-8 0 -21 -1t-20 -1 q-40 0 -45 2q-10 0 -26.5 -2t-35.5 -2q-5 0 -14 1t-14 1q-13 0 -37 -4q-20 -8 -86 -6t-86 0q-50 0 -70 4q-25 0 -51.5 6.5t-26.5 22.5zM184 952q82 -90 138 -135q0 -8 47 -51.5t47 -56.5q4 -8 4 -13q0 -4 -2.5 -9.5t-5 -9t-8 -10.5t-7.5 -10q-28 -39 -83.5 -106t-71.5 -88 l-2 -4q-4 -6 -28 -29t-24 -31q1 0 2.5 -1t2.5 -1q0 2 2 2q3 0 9.5 -1t10.5 -1q23 0 75.5 1t78.5 1q4 0 12 -1t12 -1q39 0 96 11h3q8 0 22.5 -1t22.5 -1q7 0 21 1t20 1h6q18 0 49 -4.5t47 -4.5q65 0 86 4q6 0 20 -1t21 -1q10 0 30.5 3.5t32.5 3.5q32 0 39 -7q6 0 20.5 4.5 t20.5 4.5q36 1 103.5 -3t97.5 -4h31q3 0 6.5 -1t5.5 -1t5.5 1t4.5 1t4 -1t4 -1t4.5 1t4.5 1h8l14 3q11 0 28 -1.5t23 -1.5q3 0 13 2.5t14 2.5q3 0 9 -1t9 -1q-8 0 106 -1t260.5 -2.5t217.5 -1.5q52 0 91 3.5t63 3.5q36 0 108 -4.5t109 -4.5q109 0 211 9q52 0 102 -7 q607 0 629 5q6 0 15 1t14 1q14 0 38 -2.5t35 -2.5h13h6h4q6 0 10 -2q7 0 18 1t15 1h33q23 0 86 4t112 3q19 0 37 -9l41 7h2q15 0 35.5 -3.5t28.5 -3.5q2 0 6 1t6 1q17 0 51 -2t49 -2q19 0 56 4.5t57 4.5h4q7 0 20.5 -1t20.5 -1q9 0 25.5 1t19.5 1h2q57 -11 96 -11q6 0 10 2 q9 0 29.5 -1t28.5 -1q33 0 75.5 1t55.5 1h2v-2l4 2q0 11 -12 23.5t-25 23t-14 13.5l-2 4q-4 4 -58 64t-87 104.5t-33 64.5q0 22 30 52q20 13 49 42q19 19 19 27l12 9q12 8 25 18.5t30.5 26t36 37t33.5 44.5q0 6 -43 6q-62 0 -350 5h-14q-7 0 -23.5 -4.5t-30.5 -4.5 q-16 0 -52 2t-60 2q-8 0 -23 -1t-22 -1h-580h-39q-62 0 -139.5 0.5t-151 2t-147.5 2.5t-136 2.5t-109.5 3t-74 2t-24.5 0.5q-18 0 -56 -3t-57 -3q-57 0 -458 -3t-429 -4h-6h-573q-5 0 -21 1t-24 1q-20 0 -50 -2t-42 -2q-15 0 -39 4.5t-35 4.5h-14q-250 -5 -306 -5 q-65 17 -88 -6z" />
<glyph unicode="3" horiz-adv-x="8775" d="M102 676q0 3 27 20t35 17h12q9 0 27.5 1t27.5 1q13 0 37 -3t37 -3q15 0 42 2t42 2q56 0 170 -2t172 -2h111q25 0 77.5 -2t79.5 -2q46 0 140 2t141 2q46 0 139.5 -2t139.5 -2h159q179 0 334.5 -4.5t188.5 -4.5q63 0 191 4.5t191 4.5h43q10 0 31 1t33 1q10 0 31.5 -1 t31.5 -1h13q28 0 83 -3.5t83 -3.5q17 0 53 2t55 2q17 0 51 -2t52 -2q29 0 86 3.5t84 3.5q13 0 39 -1.5t40 -1.5q63 0 185 3.5t182 3.5q85 0 108 -11q18 -10 19 -26q0 -50 -151 -50q-30 0 -35 1h-43h-23q-39 0 -109 3t-104 3q-27 0 -82 -1t-82 -1q-39 0 -117.5 1t-117.5 1 q-85 0 -256.5 -2t-257.5 -2h-74q-3 0 -49 -5.5t-86 -5.5q-43 0 -107 2t-69 2h-39q-88 0 -261.5 8.5t-260.5 8.5h-101q-85 0 -256 2t-256 2q-12 0 -34 2t-33 2q-40 0 -118 -5t-114 -5q-53 0 -175 4.5t-187 3.5q-8 0 -26 -2t-26 -2q-12 0 -35.5 1t-35.5 1h-12q-34 0 -62.5 9 t-28.5 28zM4084 674q0 38 26 77.5t60 39.5q26 0 48.5 -37.5t22.5 -75.5q0 -41 -24 -77t-62 -36q-23 0 -47 34.5t-24 74.5zM4321 674q0 37 25.5 77t58.5 40q28 0 51 -38t23 -75q0 -41 -24 -77t-62 -36q-23 0 -47.5 34.5t-24.5 74.5zM4559 674q0 36 25.5 76.5t58.5 40.5 q32 0 51.5 -39t19.5 -78t-23 -74t-60 -35q-20 0 -46 36t-26 73zM4850 676q0 5 27 21t34 16h12q9 0 28 1t28 1q13 0 38 -3t37 -3q14 0 41 2t41 2q56 0 170 -2t172 -2h111q27 0 79 -2t79 -2q47 0 140 2t140 2t140.5 -2t140.5 -2h158q201 0 346 -4.5t176 -4.5q64 0 192 4.5 t193 4.5h41q10 0 31.5 1t31.5 1t32 -1t34 -1h10q25 0 80 -3.5t86 -3.5q17 0 53 2t55 2q17 0 51 -2t52 -2q29 0 86 3.5t84 3.5q13 0 40 -1.5t42 -1.5q60 0 182 3.5t184 3.5q85 0 108 -12q17 -9 17 -25q0 -52 -152 -51l-44 2h-56q-37 0 -106.5 3t-106.5 3q-28 0 -81.5 -1 t-79.5 -1q-39 0 -118.5 1t-119.5 1q-85 0 -256.5 -2t-257.5 -2h-74q-2 0 -49 -5.5t-86 -5.5q-43 0 -107 2t-69 2h-39q-88 0 -261.5 8.5t-260.5 8.5h-101q-85 0 -256 2t-256 2q-13 0 -33.5 2t-31.5 2q-41 0 -119.5 -5t-114.5 -5q-54 0 -175.5 4.5t-186.5 3.5q-8 0 -25.5 -2 t-25.5 -2q-12 0 -36 1t-36 1h-12q-32 0 -61 9t-29 28z" />
<glyph unicode="4" horiz-adv-x="4186" d="M102 137q0 5 21.5 31t54 63.5t47.5 57.5q11 15 45 56t55 69t21 37q1 6 -18 30t-52.5 62t-39.5 45q-11 12 -38.5 41.5t-44 48t-32 40.5t-17.5 36q0 5 4 7.5t12.5 3.5t14.5 1.5t17.5 0t13.5 -0.5q5 0 15.5 -1t15.5 -1t16 1t16 1q14 0 40 -3t38 -3q7 0 23 2t24 2h15 q10 0 29.5 1t29.5 1q29 0 49 -2t32.5 -9.5t19.5 -13t10 -20.5t3.5 -23t-0.5 -30t-1 -33q0 -7 -1 -19t-1 -16t2 -24.5t2 -30.5q-2 -16 -2 -49q0 -15 2 -46t2 -49q0 -14 6.5 -24t19.5 -15t27 -8.5t35 -4t36 -0.5t37 0.5t33 0.5q6 0 22.5 1t22.5 1h21q10 0 27.5 1t27.5 1 q3 0 12.5 -1t12.5 -1q8 0 12 2h6q15 0 15 -32q-3 -24 -3 -97q0 -86 3 -84q0 -11 -7.5 -13.5t-42.5 -2.5q-43 0 -155 1t-117 1q-62 -4 -90 -4q-7 0 -23 1t-24 1q-9 0 -28 -1t-28 -1h-73q-14 0 -43 -1t-43 -1h-19q-8 0 -23.5 -1t-23.5 -1q-5 0 -14 2t-14 2q-4 0 -13.5 -1 t-13.5 -1q-19 0 -21 16zM586 950q0 17 12 41q0 2 102 2h73.5t78.5 -0.5t69 -1t51.5 -0.5h20.5q31 2 94 2h97q37 0 110.5 4t110.5 4q11 0 33.5 -1t34.5 -1q13 0 38 2.5t37 2.5q24 0 71 -4.5t71 -4.5q92 0 186 6q7 0 21.5 -1t21.5 -1q8 0 25.5 1t25.5 1q21 0 61.5 -1t59.5 -1 t58 1t59 1q8 0 25.5 -1t25.5 -1q7 0 21.5 1t21.5 1q92 -6 186 -6q22 0 69 4.5t71 4.5q14 0 39 -2.5t38 -2.5q11 0 32.5 1t33.5 1q34 0 108.5 -4t114.5 -4h94q64 0 97 -2h20.5t51.5 0.5t69 1t78.5 0.5h73.5q102 0 102 -2q12 -24 12 -41q-8 -308 -8 -463q0 -9 4 -41 q0 -12 -4.5 -21t-14.5 -14t-20 -7.5t-26.5 -3.5t-29 -0.5t-32.5 1t-31 0.5q-9 0 -27.5 1t-27.5 1q-11 0 -35 -2t-37 -2q-11 0 -34.5 3.5t-36.5 3.5q-14 0 -76 -5q-16 0 -44 2.5t-44 2.5q-5 0 -14.5 -1.5t-14.5 -1.5q-17 0 -52 2.5t-52 2.5q-19 0 -58.5 -2.5t-60.5 -2.5 q-29 0 -169.5 2.5t-186.5 2.5h-37q-18 -2 -334 -2q-318 0 -334 2h-37q-47 0 -187.5 -2.5t-170.5 -2.5q-17 0 -58.5 2.5t-62.5 2.5q-17 0 -52 -2.5t-52 -2.5q-4 0 -13.5 1.5t-13.5 1.5q-12 0 -37 -2.5t-39 -2.5t-44 2.5t-44 2.5q-11 0 -35 -3.5t-37 -3.5q-11 0 -34.5 2 t-36.5 2q-8 0 -26.5 -1t-26.5 -1q-7 0 -31 -2t-42.5 -2t-39.5 3t-33 14.5t-12 31.5q2 16 2 41q0 1 -6 463zM3269 1077q2 31 2 172q-2 4 -2 8q0 11 8 14t41 3q43 0 155 -1t117 -1q58 4 90 4q7 0 22.5 -1t22.5 -1q10 0 29.5 1t28.5 1h73q14 0 43 1t43 1q5 0 15.5 -1t15.5 -1 q6 0 17.5 1t17.5 1q4 0 14 -1t15 -1q4 0 13 1t13 1q18 0 21 -16q0 -5 -22 -31.5t-54 -63t-47 -57.5q-10 -13 -45.5 -57t-55.5 -71t-20 -36q-1 -6 19.5 -30.5t52 -59t41.5 -45.5q12 -15 49 -55t58.5 -68t21.5 -43q0 -14 -54 -14h-8q-5 0 -15 1t-15 1t-16.5 -1t-16.5 -1 q-15 0 -42 3t-40 3q-6 0 -21 -1t-22 -1h-15q-10 0 -30 -1t-29 -1q-14 0 -42 2t-44 2h-14q-4 0 -7 4t-4.5 12t-2.5 16t-1.5 19.5t0 20.5t0.5 20v16q0 9 1 29t1 29q0 6 -1 18.5t-1 20.5q0 4 1 8l1 4q0 23 -1 69.5t-1 73.5q0 14 -7 24t-21 15.5t-28 9t-35.5 4t-36.5 0.5 t-37 -0.5t-31 -0.5q-6 0 -22 -1t-23 -1h-21q-10 0 -27.5 -1.5t-27.5 -1.5q-4 0 -13.5 1.5t-13.5 1.5q-1 0 -4.5 -1.5t-5.5 -1.5h-6q-14 0 -14 33z" />
<glyph unicode="5" horiz-adv-x="4433" d="M102 727q6 6 64 33q5 2 4 2q9 0 26.5 1t26.5 1q14 0 42.5 -4t43.5 -4q23 0 67 2t66 2q91 0 272 -2t271 -2q65 0 193 1t192 1q627 -15 1251 -15q238 4 385 13q20 0 306 -11q6 0 18 1.5t18 1.5q22 0 68 -1.5t68 -1.5q124 0 386.5 5.5t391.5 5.5q20 0 45 -11t25 -22 q0 -44 -226 -43h-18q-83 0 -344.5 2.5t-261.5 5.5q-375 -6 -752 -6q-30 0 -94 -6t-99 -6q-128 3 -384 12t-384 12q-70 0 -207.5 2t-205.5 2h-148q-38 0 -113.5 2t-113.5 2q-53 0 -158.5 -5t-158.5 -5q-45 0 -153.5 3.5t-168.5 2.5q-9 0 -28 -1t-29 -1q-99 0 -166 17 q-3 0 -17 14z" />
<glyph unicode="6" horiz-adv-x="2920" d="M102 633q0 15 41 35q136 67 193 67q0 1 12 4t12 6q0 1 -2 7t-2 8q0 25 2 37q0 67 -4 114q0 1 4 29.5t4 46.5v14q0 13 7.5 26t17.5 13h4q2 0 7.5 2t7.5 2q5 0 12.5 -6t15.5 -8q-1 0 6 -6.5t20 -17t29.5 -23t39 -25.5t44.5 -22q32 -22 64.5 -40.5t68 -35.5t59.5 -28 t64 -25.5t54.5 -20t58 -20l49.5 -16.5q17 -4 66.5 -19t82.5 -23t97.5 -16t138.5 -8q4 0 11.5 1t11.5 1q23 0 33 -4q20 0 20 2q20 0 23 -2q145 0 202 12q12 2 36.5 5.5t35.5 5.5q79 0 227 51q19 13 34 17.5l55 16.5t100 37q15 8 54.5 27.5t60.5 30t54 27.5t61.5 34t55.5 35 q6 3 24 18.5t37.5 27t35.5 11.5q9 0 18.5 -10.5t9.5 -23.5q-2 -8 -2 -27q0 -22 4.5 -77t4.5 -79v-2q0 -71 36 -71q12 -5 13 -2q1 1 2.5 1.5t12 -5t30.5 -17.5q8 -4 45.5 -12t66.5 -20t29 -31q0 -4 -3.5 -9.5t-11 -12l-15 -13t-19.5 -15t-20.5 -14.5t-23 -14.5t-21 -13 t-19.5 -12t-16 -9.5q-51 -41 -197 -111l-21 -10q-9 -5 -51 -28t-67.5 -34.5t-40.5 -11.5q-52 -21 -159 -51t-151 -45h-6q-98 -29 -147 -35q-25 0 -85 -12t-89 -12q-14 0 -34.5 1t-27.5 1q-29 0 -72 -2t-57 -2q-4 0 -19 1t-22 1h-6q-19 0 -56 1t-54 1q-35 0 -113.5 14 t-120.5 14q-28 4 -162 31q-138 27 -321 100q-44 11 -102 33.5t-80 44.5q-2 0 -12 3t-26 11.5t-26 18.5q-12 7 -43 22t-50.5 25t-45 27t-43.5 35q-60 30 -60 53z" />
<glyph unicode="7" horiz-adv-x="7184" d="M102 713q0 -11 6.5 -17.5t13 -9t21.5 -6.5q85 0 245 -2t239 -2h170q24 0 74.5 -1t76.5 -1q36 0 107 2t110 2q49 0 149 -4t150 -4q37 0 109.5 2t109.5 2q42 0 125 -2t125 -2q180 8 271 8q16 0 44 -2t42 -2q56 0 169 2t169 2q39 0 117.5 -2t117.5 -2q31 0 96 2t97 2 q5 0 20.5 -0.5t24.5 0t23.5 1t23.5 3.5t18.5 7t14 11t4.5 17q0 22 -39 22q-150 0 -449.5 2t-447.5 2q-30 0 -87.5 -2t-84.5 -2q-46 0 -138 2t-137 2q-60 0 -178 -2t-176 -2q-30 0 -93 3t-93 3q-60 0 -179.5 -2t-179.5 -2q-33 0 -98 1t-98 1q0 -4 -533 -4h-12.5h-14t-13 -0.5 t-13 -2.5t-9.5 -4.5t-7.5 -7.5t-2.5 -11zM3305 745q0 9 56 9h18q6 0 22 41t23 41q9 0 13.5 -11t11 -32t16.5 -37q3 -8 37.5 -10t36.5 -5q4 -4 4 -6q0 -1 -29.5 -27t-29.5 -36l10 -17q12 -27 12 -45q0 -12 -12 -12q-13 0 -41.5 18.5t-34.5 18.5q-13 0 -39.5 -17.5 t-34.5 -17.5t-8 8q0 12 10.5 35.5t10.5 30.5q0 5 -26 28.5t-26 42.5zM3652 745q0 9 57 9h18q7 0 22 41t23 41q1 0 4.5 -1t4.5 -1q4 -8 10 -23t8.5 -20t7 -15t7 -12t6.5 -8.5t8.5 -7t10 -3.5t13 -3t15.5 -0.5t20 -0.5q2 -2 2 -6t-8 -12q-15 -15 -28 -27.5t-18 -16.5t-5 -5 q0 -5 11 -29.5t11 -34.5q0 -12 -12 -12q-11 0 -41.5 18.5t-34.5 18.5q-15 0 -40.5 -17.5t-33.5 -17.5t-8 8q0 7 10.5 33.5t10.5 32.5q0 5 -25.5 28.5t-25.5 42.5zM4000 715q0 -12 6.5 -19t13 -9.5t21.5 -6.5q81 0 241 -2t242 -2h170q24 0 75 -1t77 -1q36 0 109 2t108 2 q47 0 146.5 -4t152.5 -4q37 0 109.5 2t109.5 2q42 0 125 -2t125 -2q172 8 268 8q15 0 43 -2t43 -2q57 0 170 2t170 2q39 0 116.5 -2t116.5 -2q13 0 46 -0.5t59 -1t60.5 0t60.5 3.5t49.5 7.5t36 13t12.5 20.5q0 10 -12.5 16t-28.5 6q-149 0 -447.5 2t-449.5 2q-28 0 -86 -2 t-86 -2q-45 0 -136.5 2t-137.5 2q-58 0 -176 -2t-177 -2q-34 0 -95 3t-91 3q-61 0 -180 -2t-178 -2q-33 0 -98.5 1t-98.5 1q0 -4 -535 -4h-11.5h-13.5t-12.5 -0.5t-12.5 -2t-9.5 -4t-7 -7t-2.5 -10.5z" />
<glyph unicode="8" horiz-adv-x="5933" d="M102 524q0 13 11 29t26.5 33.5t20.5 25.5q29 45 63 58q5 5 40 36.5t65.5 59.5t57 60t26.5 48q0 -1 -1.5 1.5t-5.5 9.5t-9.5 16t-14.5 22.5t-19.5 28t-25.5 32.5t-31 36q-141 148 -141 154q0 19 18 31.5t53 17t58 5.5t61 1t119 -6t121 -6q19 0 61 3t64 3q27 0 79 -3t79 -3 q25 0 79 2t80 2q10 0 32 -2t32 -2q8 0 25.5 2t25.5 2q13 0 41 -2t43 -2q8 0 25.5 3t25.5 3t24.5 -3t24.5 -3q17 0 50 2t49 2h28q39 0 115.5 4t114.5 4h14q115 -15 375 -15q17 0 53 1.5t53 1.5h29q18 0 55 1t56 1h28q45 0 133.5 2t132.5 2q17 0 52 -1t53 -1q34 0 102.5 2 t102.5 2q41 0 121 -2t120 -2q22 0 69 1t69 1q44 0 133.5 -2t134.5 -2h26q18 0 55.5 -1t57.5 -1h27q18 0 53 -1.5t53 -1.5q144 0 279 9q12 1 35 2.5t41 2.5t34 1q38 0 115 -4t115 -4h28q17 0 50 -2t49 -2q8 0 24.5 3t24.5 3t26 -3t27 -3q14 0 41 2t41 2q8 0 24.5 -2t24.5 -2 q11 0 33 2t33 2q28 0 81 -2t78 -2q26 0 80 3t80 3q20 0 61.5 -3t63.5 -3q39 0 122 6t116 6q178 0 190 -49q0 -13 -16 -29q-43 -30 -103 -106t-77 -93q-7 -7 -29.5 -40t-22.5 -38q0 -3 11 -18q27 -39 88 -93t84 -85q1 -1 25.5 -22t45 -40.5t39.5 -46t19 -45.5q0 -17 -18 -26 t-42 -9h-47q-62 0 -121 -6q-58 0 -178.5 -4t-181.5 -4q-12 0 -38 2t-40 2q-29 0 -90 -3t-92 -3q-10 0 -31 1t-31 1q-23 0 -67.5 -1t-65.5 -1h-112q-27 0 -79 -2t-77 -2q-332 0 -705 16q-7 0 -21 -1t-20 -1q-3 0 -9 1t-9 1h-49q-14 0 -43 2t-45 2q-13 0 -39.5 -5t-40.5 -5 q-7 0 -20.5 2t-20.5 2q-9 0 -28 -2t-29 -2q-35 1 -101 4.5t-122.5 6t-106.5 2.5q-39 0 -119 -5.5t-121 -5.5h-147q-156 0 -234 -2q-9 0 -28 2t-29 2q-6 0 -20.5 -2t-20.5 -2q-15 0 -41 5t-39 5q-16 0 -45 -2t-43 -2h-47q-3 0 -10 -1t-10 -1q-7 0 -20.5 1t-20.5 1 q-363 -16 -703 -16q-25 0 -78 2t-78 2h-112q-23 0 -68.5 1t-66.5 1q-10 0 -31 -1t-31 -1q-30 0 -91 3t-91 3h-16q-40 -4 -62 -4q-76 0 -235.5 7t-245.5 7h-29q-76 0 -76 35z" />
<glyph unicode="9" horiz-adv-x="3418" d="M102 934q22 31 116 48t169 17q42 0 133.5 15.5t134.5 15.5q16 0 45.5 5t42.5 5h13q49 0 141.5 7t116.5 8q12 0 34.5 5t36.5 5q36 0 127.5 6t141.5 4h22q333 10 404 10q45 0 137 -5t137 -5q10 0 31 3t33 3q303 -31 458 -41q15 -2 97.5 -17t134.5 -15q88 -9 121 -17 q2 0 5 -1t5 -1q6 2 20 2q74 0 180.5 -27t172.5 -59q4 -2 4 -6q0 -8 -36 -40.5t-36 -33.5q-32 -38 -78.5 -76t-73 -60.5t-26.5 -35.5q0 -12 10 -22q13 -16 25.5 -32t25.5 -35.5t22 -32.5t23 -36.5t20.5 -34t22.5 -38t21 -35.5q4 -12 4 -16q0 -7 -7.5 -13t-15.5 -6 q-36 0 -111 16.5t-87 18.5q-76 18 -208.5 35.5t-156.5 21.5q-49 7 -146 21.5t-157.5 23t-145.5 16t-157 7.5q-100 0 -297.5 1t-296.5 1q-353 0 -598 -39q-1 0 -3 -1t-3 -1q-3 0 -8 1t-8 1q-32 0 -75 -3.5t-69 -6.5t-83 -10t-72 -9q-244 -26 -353 -61q-10 0 -10 10 q0 8 6.5 23t15.5 29.5t23 35t23 32.5t22 29t14 19q5 6 35 41.5t46 58.5t16 35q0 15 -62.5 67t-130.5 103.5t-74 59.5q-4 4 -4 6zM168 915q0 -15 58 -59.5t116.5 -89.5t58.5 -61q0 -23 -93 -140.5t-93 -126.5q0 -18 14 -18q52 0 153.5 24.5t154.5 24.5q300 31 442 41 q17 1 48.5 4.5t57 5.5t48.5 2h16q9 0 49 10q189 9 256 9h119h129.5t116 -1t129.5 -3t114.5 -5.5t124.5 -9.5q1 0 32.5 -3.5t47.5 -2.5h19q54 0 120.5 -9t153 -25t117.5 -21q3 0 16 1t19 1q12 0 34.5 -3.5t28.5 -4.5q34 -7 125.5 -28t159 -32.5t125.5 -11.5q18 0 18 14 q0 25 -36 77.5t-87 112.5l-51 60q-6 9 -6 12q0 7 27.5 29.5t66.5 51.5t51 40q1 1 34 29t49 46t16 28q0 12 -23.5 23t-59 18.5t-69.5 12.5t-62.5 8.5t-31.5 4.5q-89 14 -264.5 35.5t-257.5 32.5q-24 3 -80 5.5t-88 6.5q-68 0 -223.5 14.5t-239.5 14.5q-15 0 -42.5 -1 t-41.5 -1q-21 0 -63.5 3t-61.5 3q-35 -1 -170 -4.5t-222.5 -7.5t-170.5 -11q-74 -9 -208.5 -14t-252.5 -15.5t-207 -35.5q-29 -6 -94 -14t-98 -17q-49 -9 -66 -10q-2 -8 -2 -19z" />
<glyph unicode=":" horiz-adv-x="378" d="M102 711q0 37 29.5 64.5t79.5 27.5q21 0 43 -26.5t22 -47.5q0 -33 -21 -65.5t-67 -32.5q-35 0 -60.5 24t-25.5 56z" />
<glyph unicode=";" horiz-adv-x="378" d="M102 711q0 37 29.5 64.5t79.5 27.5q21 0 43 -26.5t22 -47.5q0 -33 -21 -65.5t-67 -32.5q-35 0 -60.5 24t-25.5 56z" />
<glyph unicode="&#x3c;" />
<glyph unicode="=" />
<glyph unicode="&#x3e;" />
<glyph unicode="?" />
<glyph unicode="@" horiz-adv-x="2994" d="M102 721q0 23 12 28t58 5q30 0 70 -1t61 -1q78 0 234.5 3t234.5 3q15 0 46 -1t48 -1q47 0 141.5 2t141.5 2q19 0 57 -4t58 -4q2 0 149 6q160 0 240 -2q25 0 79 -2t80 -2q47 0 141 3t140 3q17 0 52 -1t53 -1q15 0 47 1t49 1q234 -6 469 -6q15 0 45 1t45 1q36 0 39 -21 q0 -15 -4 -25t-9 -15t-16.5 -7.5t-19.5 -3t-25 -0.5q-40 0 -120 -2t-120 -2q-38 0 -113.5 2t-113.5 2q-25 2 -71.5 -2t-63.5 -4q-14 0 -39 2t-39 2t-40 -2t-40 -2q-24 0 -45 6q-50 -4 -74 -4q-12 0 -37.5 1t-39.5 1q-48 0 -95 -6q-40 0 -118 2t-117 2q-35 0 -103 -2t-102 -2 q-21 0 -62 3t-63 3q-12 0 -38 -1t-38 -1q-23 0 -73 4q-21 -6 -45 -6q-13 0 -40 2t-42 2q-12 0 -37.5 -2t-40.5 -2q-68 6 -135 6q-38 0 -114 -2t-114 -2q-27 0 -81 2t-82 2h-86q-3 0 -24 -1.5t-36.5 -0.5t-34 3.5t-29 12t-10.5 25.5z" />
<glyph unicode="A" horiz-adv-x="5410" d="M102 477q0 12 13.5 36t29.5 34q7 3 28 29t38 34q11 0 91.5 83.5t80.5 101.5q0 6 -36 56t-60 77q-13 14 -47 49.5t-58 60.5t-24 29q0 51 174 51q39 0 111.5 -6t105.5 -6q18 0 55.5 3t57.5 3q24 0 72 -3t73 -3q23 0 71.5 2t73.5 2q9 0 28.5 -2t29.5 -2q7 0 22.5 2t22.5 2 q13 0 38 -2t37 -2q8 0 25.5 2t24.5 2t22 -2t21 -2q15 0 45 2t45 2h24q35 0 104 4t103 4q55 0 172 -6t176 -6h97h34q57 0 169 3t169 3q19 0 55.5 -1t53.5 -1q39 0 117.5 2t117.5 2q37 0 110 -2t110 -2q21 0 61 1t61 1q58 0 171 -3t169 -3h35h96q58 0 175 6t174 6q34 0 102 -4 t102 -4h27q14 0 44 -2t44 -2q7 0 21.5 2t21.5 2q8 0 24.5 -2t24.5 -2q14 0 39 2t39 2q7 0 22 -2t23 -2q9 0 28.5 2t28.5 2q24 0 73 -2t73 -2t72 3t73 3q20 0 57.5 -3t55.5 -3q30 0 103.5 6t111.5 6q17 0 49 -5t49 -5h23t19 -2t19 -6t10 -12.5t5 -20.5q0 -8 -12 -20 q-41 -28 -96 -97t-70 -84q-7 -7 -27 -36.5t-20 -34.5q0 -7 10 -17q24 -32 79.5 -83t76.5 -79q2 -2 24 -21t40.5 -36t35 -40.5t16.5 -41.5q0 -33 -67 -33h-27q-76 0 -225.5 -6t-224.5 -6q-14 0 -45 2t-45 2q-22 0 -68 -3t-68 -3q-9 0 -27.5 1t-27.5 1q-21 0 -61 -1t-60 -1 h-102q-24 0 -70.5 -2t-68.5 -2q-359 0 -643 16q-9 0 -28 -1t-28 -1q-19 0 -60.5 2t-62.5 2q-11 0 -35 -4t-36 -4q-6 0 -19.5 2t-19.5 2q-9 0 -26 -2t-25 -2q-49 0 -147 5t-148 5q-34 0 -102 -4t-103 -4h-156q-35 0 -104.5 -1t-104.5 -1q-8 0 -25.5 2t-25.5 2q-7 0 -20 -2 t-19 -2q-12 0 -36 4t-38 4q-21 0 -61 -2t-59 -2q-9 0 -28 1t-28 1q-341 -16 -643 -16q-24 0 -70 2t-69 2h-102q-21 0 -61.5 1t-59.5 1q-9 0 -29 -1t-29 -1q-22 0 -67 3t-66 3q-31 0 -47 -2q-14 -2 -43 -2q-75 0 -225 6t-225 6h-27q-68 0 -68 33z" />
<glyph unicode="B" horiz-adv-x="3368" d="M102 369q0 14 27 41q33 28 103.5 120.5t117.5 139.5q19 19 19 24q0 2 -9.5 11t-15.5 14l-10 10q-232 212 -232 256q0 31 156 31q30 0 85.5 -2t76.5 -2q166 0 338 5t280 5q36 0 98 -2t70 -2q4 0 40.5 1t62.5 1q69 0 116 -8q9 2 14.5 4t7 2.5t4 1t7.5 0.5q3 0 26 -0.5 t75 -1t124 -0.5h3q32 0 84.5 2t74.5 2q58 0 99 -10q18 4 53 4q14 0 87.5 3t205.5 3q122 0 246 -5t202 -5q44 0 161 2t212 2q11 0 33 -2t34 -2h17q72 0 72 -29l-6 -8q-6 -8 -16 -21.5t-22.5 -29t-30 -34.5t-34.5 -36q-20 -20 -58 -61t-65 -68t-37 -31q0 -1 4 -5.5t8 -9.5 t5 -7q7 0 22 -18.5t30.5 -41.5t20.5 -28q28 -28 74 -89t78 -85q27 -27 27 -41q0 -37 -136 -37q-15 0 -40 2t-37 2q-9 0 -29 -1t-33 -1q-19 0 -49 4t-45 4q-8 0 -17 -1t-12 -1q-8 0 -25 3t-30 3q-49 0 -129.5 -2t-116.5 -2h-2q-9 0 -26 1t-27 1q-12 0 -40.5 -2t-43.5 -2 q-2 0 -20 2t-25 2q-16 0 -53.5 -4t-57.5 -4q-65 0 -165 3t-152 3q-31 0 -89 -2t-100 -2h-2h-45h-4h-63h-4h-45h-2q-12 0 -56 2t-76 2q-60 0 -178 -3t-190 -3t-111 8q-9 0 -25.5 -2t-25.5 -2q-15 0 -44.5 2t-41.5 2q-25 0 -37 -2q-57 0 -157 2t-107 2q-9 0 -26.5 -3t-26.5 -3 t-13 2q-23 0 -57.5 -4t-54.5 -4q-25 0 -35 2q-18 0 -54 -2t-53 -2q-14 0 -20 2h-1h-1h-10q-99 0 -99 35z" />
<glyph unicode="C" horiz-adv-x="2625" d="M102 487q0 8 37 29q22 9 96 57t74 56q0 6 -6.5 19t-14 23.5t-18 25.5t-12.5 18q7 -3 2 2q-37 35 -37 53q-6 10 -11 16t-6.5 8t-4 6t-6.5 13q-11 8 -27 29.5t-16 38.5q0 32 16 32h2l115 -33q115 -32 149 -32q49 -14 94.5 -22t97.5 -14t58 -7q41 -7 88 -16t68 -13t51.5 -7 t64.5 -3l27 -4q134 -27 199 -27q10 0 29.5 2t29.5 2q6 0 17.5 -3t17.5 -3q39 0 68.5 3t39.5 3q9 0 21 -4q76 0 125 13q92 9 172.5 20t107.5 14q14 2 61.5 10t89 15.5t44.5 7.5q42 5 132.5 21t94.5 20q35 7 119 32t105 25h2q16 0 16 -32q0 -6 -4.5 -14.5t-9.5 -13.5l-4 -5 q-3 -2 -7 -4q-9 -7 -9 -8q1 -2 1 -4q0 -21 -59 -97l-2 -2v1q-22 -19 -47 -63q-17 -27 -17 -42q60 -53 115 -82q0 -4 46 -23.5t46 -36.5q0 -5 -7.5 -10.5t-8.5 -7.5l-7 -3q-6 -2 -17.5 -6t-24.5 -8t-26 -7t-22 -3q-22 -8 -69.5 -20t-77.5 -25l-13 -5q-14 -4 -32.5 -8.5 t-30.5 -4.5q-4 0 -6 2q-9 -3 -47 -10t-112 -19t-136 -24q-46 0 -125.5 -13.5t-111.5 -17.5q-6 -2 -76.5 -4t-77.5 -4q-5 0 -17 1t-14 1q-13 0 -41 -4l-2 -2q-4 0 -11.5 -1t-12.5 -1q-3 0 -11.5 1t-17.5 1l-38 -2q-12 1 -17 4q-61 -4 -84 -4q-4 0 -12.5 1t-12.5 1l-2 2 q-28 4 -41 4q-5 0 -18 -1l-13 -1q-12 4 -90 4q-44 3 -93.5 7.5t-78.5 4.5q-57 7 -159 29q-1 0 -18 1t-43 3t-57.5 6.5t-70 14t-71.5 22.5q-2 0 -5.5 -1t-5.5 -1q-1 0 -24 7t-55.5 16.5t-51.5 13.5q-14 0 -70 21.5t-104 21.5q-3 0 -17 11t-14 17z" />
<glyph unicode="D" horiz-adv-x="4186" d="M102 137q0 5 21.5 31t54 63.5t47.5 57.5q11 15 45 56t55 69t21 37q1 6 -18 30t-52.5 62t-39.5 45q-11 12 -38.5 41.5t-44 48t-32 40.5t-17.5 36q0 5 4 7.5t12.5 3.5t14.5 1.5t17.5 0t13.5 -0.5q5 0 15.5 -1t15.5 -1t16 1t16 1q14 0 40 -3t38 -3q7 0 23 2t24 2h15 q10 0 29.5 1t29.5 1q29 0 49 -2t32.5 -9.5t19.5 -13t10 -20.5t3.5 -23t-0.5 -30t-1 -33q0 -7 -1 -19t-1 -16t2 -24.5t2 -30.5q-2 -16 -2 -49q0 -15 2 -46t2 -49q0 -14 6.5 -24t19.5 -15t27 -8.5t35 -4t36 -0.5t37 0.5t33 0.5q6 0 22.5 1t22.5 1h21q10 0 27.5 1t27.5 1 q3 0 12.5 -1t12.5 -1q8 0 12 2h6q15 0 15 -32q-3 -24 -3 -97q0 -86 3 -84q0 -11 -7.5 -13.5t-42.5 -2.5q-43 0 -155 1t-117 1q-62 -4 -90 -4q-7 0 -23 1t-24 1q-9 0 -28 -1t-28 -1h-73q-14 0 -43 -1t-43 -1h-19q-8 0 -23.5 -1t-23.5 -1q-5 0 -14 2t-14 2q-4 0 -13.5 -1 t-13.5 -1q-19 0 -21 16zM586 950q0 17 12 41q0 2 102 2h73.5t78.5 -0.5t69 -1t51.5 -0.5h20.5q31 2 94 2h97q37 0 110.5 4t110.5 4q11 0 33.5 -1t34.5 -1q13 0 38 2.5t37 2.5q24 0 71 -4.5t71 -4.5q92 0 186 6q7 0 21.5 -1t21.5 -1q8 0 25.5 1t25.5 1q21 0 61.5 -1t59.5 -1 t58 1t59 1q8 0 25.5 -1t25.5 -1q7 0 21.5 1t21.5 1q92 -6 186 -6q22 0 69 4.5t71 4.5q14 0 39 -2.5t38 -2.5q11 0 32.5 1t33.5 1q34 0 108.5 -4t114.5 -4h94q64 0 97 -2h20.5t51.5 0.5t69 1t78.5 0.5h73.5q102 0 102 -2q12 -24 12 -41q-8 -308 -8 -463q0 -9 4 -41 q0 -12 -4.5 -21t-14.5 -14t-20 -7.5t-26.5 -3.5t-29 -0.5t-32.5 1t-31 0.5q-9 0 -27.5 1t-27.5 1q-11 0 -35 -2t-37 -2q-11 0 -34.5 3.5t-36.5 3.5q-14 0 -76 -5q-16 0 -44 2.5t-44 2.5q-5 0 -14.5 -1.5t-14.5 -1.5q-17 0 -52 2.5t-52 2.5q-19 0 -58.5 -2.5t-60.5 -2.5 q-29 0 -169.5 2.5t-186.5 2.5h-37q-18 -2 -334 -2q-318 0 -334 2h-37q-47 0 -187.5 -2.5t-170.5 -2.5q-17 0 -58.5 2.5t-62.5 2.5q-17 0 -52 -2.5t-52 -2.5q-4 0 -13.5 1.5t-13.5 1.5q-12 0 -37 -2.5t-39 -2.5t-44 2.5t-44 2.5q-11 0 -35 -3.5t-37 -3.5q-11 0 -34.5 2 t-36.5 2q-8 0 -26.5 -1t-26.5 -1q-7 0 -31 -2t-42.5 -2t-39.5 3t-33 14.5t-12 31.5q2 16 2 41q0 1 -6 463zM3269 1077q2 31 2 172q-2 4 -2 8q0 11 8 14t41 3q43 0 155 -1t117 -1q58 4 90 4q7 0 22.5 -1t22.5 -1q10 0 29.5 1t28.5 1h73q14 0 43 1t43 1q5 0 15.5 -1t15.5 -1 q6 0 17.5 1t17.5 1q4 0 14 -1t15 -1q4 0 13 1t13 1q18 0 21 -16q0 -5 -22 -31.5t-54 -63t-47 -57.5q-10 -13 -45.5 -57t-55.5 -71t-20 -36q-1 -6 19.5 -30.5t52 -59t41.5 -45.5q12 -15 49 -55t58.5 -68t21.5 -43q0 -14 -54 -14h-8q-5 0 -15 1t-15 1t-16.5 -1t-16.5 -1 q-15 0 -42 3t-40 3q-6 0 -21 -1t-22 -1h-15q-10 0 -30 -1t-29 -1q-14 0 -42 2t-44 2h-14q-4 0 -7 4t-4.5 12t-2.5 16t-1.5 19.5t0 20.5t0.5 20v16q0 9 1 29t1 29q0 6 -1 18.5t-1 20.5q0 4 1 8l1 4q0 23 -1 69.5t-1 73.5q0 14 -7 24t-21 15.5t-28 9t-35.5 4t-36.5 0.5 t-37 -0.5t-31 -0.5q-6 0 -22 -1t-23 -1h-21q-10 0 -27.5 -1.5t-27.5 -1.5q-4 0 -13.5 1.5t-13.5 1.5q-1 0 -4.5 -1.5t-5.5 -1.5h-6q-14 0 -14 33z" />
<glyph unicode="E" horiz-adv-x="3035" d="M102 625q0 5 7.5 14t32.5 26.5t63 36.5l2 3q9 4 32.5 18.5t41.5 21.5l31 13q42 21 42 33q0 6 -12.5 23.5t-29 39t-21.5 29.5q-1 2 -7.5 13.5t-13 22.5t-15 24.5t-15.5 21.5q-2 5 -37 58.5t-35 76.5q0 24 18 24q2 0 6.5 -1t6.5 -1l33 -16q32 -16 75.5 -35t67.5 -24 q127 -43 219 -56q21 0 29.5 -0.5t11.5 -2t5 -3.5t14 -5.5t34 -6.5q49 -8 83 -14t44.5 -8.5t17.5 -3.5t15 -1h2q19 0 75.5 -9t112.5 -11q11 0 35.5 -5.5t38.5 -5.5h2q92 -18 180 -18q28 0 90 -7t89 -7q1 0 4 -2t10 -1.5t22 5.5h17q2 0 2 -2q4 0 30.5 -0.5t46.5 -0.5t58.5 1.5 t74.5 5t85.5 10t99.5 16.5h2q8 0 24.5 3.5t24.5 3.5q96 24 213 24h2q15 0 27 6q-1 0 56.5 10t114.5 19.5t56 9.5q25 4 52.5 10.5t61 16t52.5 14.5q35 5 67 22t60 23q94 47 111 47q22 0 22 -26q0 -12 -10.5 -30t-25.5 -40t-21 -33q-3 -5 -10.5 -23t-17.5 -37t-23 -32 q-8 -8 -44 -57.5t-36 -57.5q0 -2 39 -22q33 -16 52.5 -28.5t57.5 -32.5l2 -3q67 -35 93 -61q8 -8 8 -18l-21 -14q-22 -14 -52 -29t-46 -15q-21 0 -64.5 -19t-56.5 -22l-4 -2q-10 -3 -37 -13.5t-46.5 -16t-35.5 -5.5l2 2q-2 -1 -6.5 -3.5t-11 -5t-15 -6t-18.5 -6t-22.5 -4 t-24.5 -1.5q-27 0 -62.5 -10.5t-52.5 -10.5l-4 2q-13 0 -38 -4.5t-31 -5.5h-5q-14 -2 -86 -14t-106 -12h-4q-8 0 -33 -5l-153 -13q-51 -3 -87 -3q-4 0 -10.5 1t-9.5 1q-8 0 -24.5 -3t-24.5 -3q-47 0 -104.5 2t-82.5 2h-4q-4 -4 -30 -4h-6q-25 0 -33 4h-2q-8 0 -26 -2t-28 -2 q-9 0 -75 3t-107 3q-6 0 -8 -2q-46 0 -144 10.5t-143 10.5h-2h-2h-3q-3 -1 -7 -1.5t-9.5 -0.5t-11.5 1.5t-12 4.5q-1 1 -60 10t-87 12h-4q-6 1 -31 4.5t-35 3.5h-6l-4 2q-5 2 -14 5t-20 6.5t-28.5 5.5t-35.5 2q-1 0 -16 6t-41 12t-54 6q-24 0 -68.5 16.5t-52.5 18.5l-4 2 q-14 4 -57 22.5t-62 18.5q-12 0 -33.5 14.5t-48.5 20.5q-39 8 -39 25zM172 631l33 -11h1h1l1 -1h1h1l1 -1h1h1l1 -1h1l1 -1h1q104 -38 139 -47q6 -2 54 -14l2 -2q12 0 25 -2t25 -4.5t38 -8t53 -10.5h4q23 -4 63.5 -15t63.5 -11q10 1 29 -6t26 -7q6 3 13 3q14 0 74.5 -13.5 t95.5 -13.5q35 -9 99 -14t97 -13q4 0 13.5 2t13.5 2q18 0 56 -7t46 -7q6 0 19 3t18 3q6 0 21 -2t24 -2q8 0 24.5 2t24.5 2q4 0 14 -1t17 -1q3 0 9.5 1t8.5 1q15 0 45 -2t44 -2h6q7 0 29.5 2t39.5 2q5 0 17 -1t16 -1q3 0 6.5 1t5.5 1q38 0 50 -4q9 0 31 2t32 2q4 0 18 -3 t23 -3q2 0 39 7t61 7q3 0 10 -2t11 -2t13.5 1t14.5 1q30 0 69 5t97 15t78 13q21 0 54 9.5t47 9.5q6 0 12 -3q3 -1 6.5 0.5t7.5 3.5l6 3q10 6 33 6q18 0 35.5 3.5t44 11t49.5 11.5h6q20 2 64.5 11.5t60.5 9.5h2q2 0 6 2t6 2l5 2q2 0 38.5 14t85.5 29.5t89 24.5q10 0 22 8 q-9 9 -43 26q-6 1 -8.5 2t-3.5 1.5t-2 2.5t-3 4t-7.5 6.5t-13.5 10t-23 14.5t-35 19l-39 13q-70 30 -70 48q0 12 19 31q1 2 56 92.5t103 147.5h-2q-20 -10 -55 -21.5t-45 -15.5q-72 -35 -119 -35l-10 -1q-3 -6 -120 -29l-1 -1h-2q-45 -16 -109.5 -27t-139.5 -20.5 t-107 -15.5q-89 -11 -209 -25h-4q-198 -22 -217 -22q-7 0 -19 1t-16 1h-2q-12 0 -32 -1t-38 -1q-16 0 -24 2h-6q-8 -2 -25 -2t-23 2q-16 0 -42 -1t-40 -1q-199 20 -219 22h-6q-72 10 -100 10q-37 0 -180 21t-248 49q-7 2 -18 4t-17 4q-24 5 -47 9t-24.5 4.5t-17 4t-24 6.5 t-47 14t-84.5 24q-3 3 -21 7t-43.5 12.5t-45.5 21.5q80 -118 100 -156l26 -32.5t37 -50t15 -32.5q0 -11 -10.5 -17.5t-24.5 -9.5t-35.5 -12t-38.5 -22q-64 -26 -75 -45q0 1 -3 -3q-39 -37 -63 -38z" />
<glyph unicode="F" horiz-adv-x="4245" d="M102 403q0 15 10.5 32t23 29.5t40 37.5t43.5 41q14 19 57 55.5t75 69t32 53.5q0 5 -36 55.5t-60 77.5q-13 14 -47 49.5t-58 60.5t-24 29q0 38 41 41q21 0 65 5t66 5q25 0 71 -4h41q24 0 70 -3t70 -3q14 0 40 2t40 2q24 0 72 -3t73 -3q23 0 71.5 2t73.5 2q9 0 28.5 -2 t29.5 -2q9 0 26.5 2t26.5 2q11 0 33 -1t34 -1q7 0 24 2t24 2t22.5 -3t22.5 -3q15 0 45 2t45 2h24q37 0 108 4t105 4h11q84 -12 331 -12h97h61v2h70q18 0 52 -1t50 -1h35h96q55 0 173 6t169 6q34 0 105 -4t106 -4h27q14 0 44 -2t46 -2q7 0 22.5 3t22.5 3q8 0 23.5 -2t23.5 -2 q11 0 33.5 1t34.5 1q9 0 26.5 -2t26.5 -2t29 2t30 2q25 0 73 -2t73 -2t72.5 3t70.5 3q14 0 40 -2t40 -2q24 0 70 3t69 3h41q50 4 72 4q170 0 170 -51q0 -5 -6 -11t-7 -9q-21 -15 -39.5 -33.5t-42 -47t-32.5 -38.5q-4 -5 -24.5 -27t-34.5 -38.5t-27 -36.5t-13 -31 q0 -18 89 -100q11 -8 43.5 -44t42.5 -40q17 -6 35.5 -32.5t29.5 -31.5q16 -8 29.5 -31.5t13.5 -38.5t-14.5 -23.5t-36.5 -8.5q-2 0 -7.5 1t-8.5 1q-63 0 -224.5 -7.5t-240.5 -7.5q-13 0 -36 2t-36 2q-27 0 -84 -3t-86 -3q-9 0 -26 1t-25 1q-10 0 -32 -1t-32 -1h-127 q-29 0 -86 -2t-86 -2q-33 0 -97 3t-95 3h-86q-130 0 -363 11q-9 0 -28.5 -1t-28.5 -1q-21 0 -61.5 2t-59.5 2q-14 0 -38 -4.5t-36 -4.5q-2 0 -6 1.5t-6 1.5v4q-20 -2 -61 -2q-9 0 -28 1t-28 1q-225 -11 -364 -11h-86q-32 0 -96.5 -3t-96.5 -3q-28 0 -86 2t-86 2h-127 q-12 0 -32.5 1t-30.5 1q-9 0 -26 -1t-25 -1q-29 0 -85 3t-85 3q-13 0 -36 -2t-36 -2q-75 0 -231 7.5t-234 7.5q-3 0 -8 -1t-8 -1q-23 0 -37.5 9t-14.5 23z" />
<glyph unicode="G" horiz-adv-x="2625" d="M102 487q0 8 37 29q24 12 97 57.5t73 55.5q0 8 -9.5 24t-24 36.5t-17.5 25.5q6 -4 1 1q-36 36 -36 54q-24 34 -28 43q-24 24 -32 36q-11 18 -11 32q0 32 16 32h2q20 0 126 -32.5t138 -32.5q50 -14 96 -22t95 -14t57 -7q44 -7 90.5 -16t67.5 -13t51 -7t65 -3l29 -5 q135 -26 197 -26q16 0 33 2t26 2q3 0 16 -3t19 -3q32 0 63 3t45 3q9 0 21 -4q74 0 125 13h1h1h1h1l1 1h1h1h1h1h1h1h1h1l1 1h1h1h2h1h1h1h1h1l1 1h1h1q188 21 306 40l1 1h1h1h1h1l1 1h1h1h1h1h1l1 1h1h2q40 7 65 11q1 0 133 24.5t153 24.5q32 7 118 33t110 26h2q6 0 10 -6 t4 -14q2 -2 -2 -6q2 -4 2 -8q0 -12 -13 -23t-24 -37q-7 -7 -68 -102l-5 -7q-4 -7 -12 -19t-15.5 -24.5t-13 -23t-5.5 -14.5q0 -3 8 -8q32 -21 54.5 -38.5t47 -33t91.5 -51.5q6 0 6 -11q0 -8 -6 -8q-7 -3 -11 -6t-10 -7t-47 -16t-116 -32q-14 0 -57 -19.5t-89 -19.5 q-4 0 -6 2q-19 0 -86 -16q-34 -8 -98 -17.5t-111 -19.5q-30 0 -62.5 -4.5t-82 -13t-92.5 -13.5q-6 -2 -76.5 -4t-77.5 -4q-10 0 -19.5 1t-13.5 1q-11 0 -39 -4l-4 -2q-3 0 -10.5 -1t-11.5 -1q-3 0 -12 1t-15 1l-8 -1q-9 -1 -17.5 -1.5t-18 0.5t-13.5 4q-18 -4 -84 -4 q-5 0 -13 1t-12 1l-4 2q-24 4 -39 4q-5 0 -16.5 -1t-16.5 -1q-5 2 -75 4t-76 4q-1 0 -25.5 1t-50.5 3.5t-78.5 11t-113.5 21.5q-2 0 -22 1.5t-45.5 4t-57.5 7t-68 13.5t-67 21q-2 0 -5.5 -1t-5.5 -1q-65 23 -131 37q-19 0 -74 21.5t-102 21.5q-29 18 -29 28zM166 492 q20 0 83.5 -15t115.5 -33h2q31 -16 75 -20l13 1q-18 1 8 -6q28 -7 108 -20q27 0 43.5 -6.5t55.5 -9.5q25 -5 49 -9t41.5 -7t33.5 -5t26.5 -3.5t18 -2.5t10.5 -2h3h6q7 0 21 -3t32 -3l11 -1q118 -19 194 -19q3 0 11 2t12 2q6 0 14.5 -2t13.5 -2q2 0 8 1t9 1h2h10q22 0 59 -2 t58 -2q18 0 56.5 2t60.5 2h10h2q3 0 8 -1t8 -1q5 0 14 2t13 2q5 0 11.5 -2t10.5 -2q88 0 140 12q35 0 56.5 7t63.5 7h7q12 0 20 2q15 0 77.5 10t119.5 20.5t59 10.5q29 5 52 10t37 8t15 3q11 0 47.5 8.5t55.5 17.5h2q21 5 59 13.5t67 15.5t56 16h6q0 3 11 3q0 1 -14.5 7 t-35.5 16.5t-34 23.5q-19 10 -62 41.5t-43 37.5q0 11 16.5 41t36.5 50q22 35 51 81.5t46 73.5q-33 0 -131 -39h-4q-10 0 -25.5 -3.5t-36 -9t-27.5 -7.5q-22 0 -71 -16.5t-68 -16.5h-2q-61 0 -123 -16q-5 -1 -26.5 -8t-49.5 -12t-63 -5q-2 0 -5.5 1t-4.5 1q-76 0 -142 -16h-2 q-16 -2 -47.5 -7.5t-46.5 -7.5q-67 0 -79 -7t-64 -7q-4 2 -12 2q-3 0 -10.5 -1t-10.5 -1q-43 0 -87.5 1t-45.5 1q-6 0 -12 -2q-6 0 -33.5 4t-42.5 4h-6q-20 0 -81 10t-73 11h-4q-72 16 -137 16q-3 0 -6.5 -1t-5.5 -1l-6 1q-82 21 -175 32q-38 5 -55 5q-10 0 -13 -2 q-2 -1 -42 10q-13 4 -22 6.5l-27 7.5t-37 10q-1 0 -19.5 6t-45.5 12t-50 6h-4q-30 10 -35 13q-16 0 -47 13t-49 13q2 -5 13 -19.5t11 -21.5q24 -46 72 -114q26 -22 43 -54q10 -20 10 -37q0 -5 -3 -8.5t-6 -5t-9.5 -4t-7.5 -2.5q-11 -2 -29 -20q-21 -23 -71 -47.5t-64 -38.5z " />
<glyph unicode="H" horiz-adv-x="5410" d="M102 477q0 17 38 65.5t73 67.5q9 0 90.5 82.5t81.5 102.5q0 -1 -1 0.5t-3.5 5.5t-5.5 9t-8 12.5t-10.5 16t-13 19t-16 21t-19 23.5t-21.5 26q-9 10 -47 49.5t-59 64t-21 31.5q8 45 174 45q29 0 102.5 -6t112.5 -6q22 0 64.5 3t62.5 3q21 0 64.5 -3t66.5 -3t71.5 2t73.5 2 q10 0 29.5 -2t28.5 -2q8 0 23 2t22 2q13 0 39 -2t39 -2q8 0 24.5 2t24.5 2q7 0 21 -2t22 -2q14 0 43 2t45 2h26q35 0 103 4t102 4q57 0 173 -6t175 -6h97h34q59 0 170.5 3t167.5 3q19 0 55.5 -1t53.5 -1q39 0 117.5 2t117.5 2q37 0 111 -2t111 -2q21 0 61 1t61 1 q55 0 167.5 -3t170.5 -3h35h99q57 0 173 6t173 6q35 0 103 -4t101 -4h27q14 0 44 -2t46 -2q6 0 21 2t22 2q8 0 24.5 -2t24.5 -2q12 0 37 2t39 2q7 0 22.5 -2t22.5 -2q9 0 29.5 2t30.5 2q25 0 73 -2t72 -2q22 0 66 3t65 3t63 -3t62 -3q32 0 107 6t110 6q16 0 48 -5t50 -5h9 h10.5t10 -0.5t10 -1t8.5 -2t9 -3.5t7 -5t5.5 -7t3 -9.5t1.5 -12.5q0 -8 -12 -20q-38 -27 -90.5 -93.5t-75.5 -87.5q-6 -6 -26.5 -37t-20.5 -34q0 -7 10 -17q23 -31 79 -81.5t77 -80.5q1 -1 34 -29.5t57.5 -58t24.5 -51.5q0 -33 -67 -33h-27q-64 0 -220.5 -6t-229.5 -6 q-15 0 -44 2t-46 2q-22 0 -68 -3t-68 -3q-9 0 -27.5 1t-27.5 1q-21 0 -61 -1t-60 -1h-102q-22 0 -68.5 -2t-70.5 -2q-324 0 -641 16q-9 0 -28 -1t-28 -1q-22 0 -63 2t-60 2q-15 0 -39 -4t-34 -4q-6 0 -18.5 2t-18.5 2q-9 0 -26.5 -2t-26.5 -2q-46 0 -144 5t-149 5 q-33 0 -102 -4t-105 -4h-156q-35 0 -104 -1t-105 -1q-8 0 -25.5 2t-25.5 2q-6 0 -18.5 -2t-18.5 -2q-13 0 -37 4t-37 4q-22 0 -62 -2t-60 -2q-9 0 -28 1t-28 1q-308 -16 -643 -16q-24 0 -70 2t-69 2h-102q-21 0 -61 1t-60 1q-9 0 -29 -1t-29 -1q-21 0 -65.5 3t-67.5 3 q-15 0 -45 -2t-45 -2q-73 0 -221.5 6t-226.5 6h-27q-70 0 -70 33z" />
<glyph unicode="I" horiz-adv-x="3170" d="M102 616q0 12 24.5 30.5t49.5 31.5l25 12q31 13 98.5 50.5t67.5 45.5q0 11 -17 37t-44 62t-36 51q-14 27 -47.5 85t-50.5 91q-2 2 -2 6q0 13 12 17q15 0 79 -27.5t73 -36.5q17 -14 73 -27t68 -18q34 -14 96 -24t82 -15q23 -9 93.5 -17t101.5 -18q33 0 107.5 -12 t113.5 -12q17 0 37 -2.5t45 -7.5t37 -7q168 -28 444 -28q32 0 90 6t84 6q222 6 471 51q92 29 237.5 47.5t178.5 30.5q11 4 60.5 15t70.5 24q15 9 63.5 25t69.5 36q17 11 31 11q4 0 8 -6t4 -11q0 -10 -35 -75.5t-51 -81.5q-7 -9 -39.5 -49t-52.5 -71t-20 -48q0 -25 116 -72 q24 -17 67.5 -44t63 -41t19.5 -20t-96 -41l-25 -10q-49 -7 -135.5 -43t-122.5 -41q-30 0 -66 -12t-45 -12h-8q-43 0 -86 -12.5t-49 -12.5q-31 -3 -117 -19t-114 -16h-13q-58 0 -184.5 -12t-181.5 -12q-30 0 -89.5 2t-86.5 2q-11 0 -37.5 -2.5t-40.5 -1.5q-14 2 -45 2 q-32 0 -94.5 -1t-92.5 -1q-7 0 -20.5 2t-20.5 2h-18q-141 0 -299 22q-3 0 -8.5 -1t-7.5 -1q-79 0 -243 36l-36 6l2 -1q-10 7 -42 13t-56 6h-12q-16 0 -42.5 6.5t-44.5 12.5l-18 7q-51 9 -140 44t-110 38q-14 0 -44 12.5t-53 25.5zM154 625q0 -16 132 -54.5t163 -40.5 q26 -9 80 -17t81 -17q40 -15 84 -15h13q10 0 26.5 -7t28.5 -7q1 0 4 1t4 1q14 0 41 -7.5t39 -8.5q123 -14 154 -23q33 0 93 -7.5t79 -8.5q3 0 9.5 1t10.5 1q30 0 62 -6.5t42 -6.5q7 0 24.5 2.5t25.5 2.5t26 -2.5t27 -2.5q15 0 49.5 3.5t58.5 3.5q16 -4 37 -5t53 0t41 1 q11 0 35 4q4 0 13 -1t14 -1q2 0 6 1t6 1q8 0 26 -3.5t25 -3.5q23 5 60 5q7 0 22.5 -3.5t22.5 -3.5q12 0 46.5 7.5t61.5 7.5q5 0 15.5 -1t15.5 -1q58 2 161 18.5t134 18.5q14 1 46 9.5t48 8.5q1 0 4.5 -1t5.5 -1q36 0 123 22t117 25q29 3 57 9t44 10.5t40 12t33 9.5 q9 3 67 17.5t91 27.5t33 25q0 8 -28 26.5t-62 38t-37 21.5q-23 14 -58 29.5t-56 25.5t-21 14q0 7 13 26.5t32.5 45t25.5 33.5q23 32 64.5 96.5t48.5 75.5q0 1 1 3t1 3q0 2 -1 5t-1 5q-19 0 -51 -17.5t-45 -17.5q-23 0 -75 -20.5t-73 -20.5q-70 -23 -152.5 -42.5t-151 -31.5 t-147 -22t-125 -14.5t-102 -9t-61.5 -5.5q-28 -3 -75 -9.5t-85 -10.5t-72 -4q-9 0 -27.5 1t-27.5 1h-223q-56 0 -152 12.5t-118 14.5q-48 7 -141.5 20.5t-151.5 22t-137.5 22t-145.5 27.5q-108 17 -248 67q-5 2 -23 3.5t-28 9.5q-38 24 -66 24q0 -1 -1 -3t-1 -3q0 -10 9 -26 t25 -38t20 -28q86 -128 129 -182q4 -8 4 -15q0 -4 -26 -17t-52 -24t-25 -10q-35 -17 -59 -33.5t-35 -25.5t-18 -11q-49 -21 -49 -32z" />
<glyph unicode="J" horiz-adv-x="4247" d="M102 477q0 17 37 66.5t74 66.5q9 0 90.5 82.5t81.5 102.5q0 -1 -1 0.5t-3.5 5.5t-5.5 9t-8 12.5t-10.5 16t-13 19t-16 21t-19 23.5t-21.5 26q-9 10 -47 49.5t-59 64t-21 31.5q3 15 19 25t44.5 14t52 5t58.5 1q31 0 105 -6t110 -6q23 0 64.5 3t62.5 3t64.5 -3t66.5 -3 t71.5 2t73.5 2q10 0 29.5 -2t28.5 -2q8 0 23 2t22 2q13 0 39 -2t39 -2q8 0 24.5 2t24.5 2q7 0 21 -2t22 -2q14 0 43 2t45 2h26q35 0 103 4t102 4q57 0 173 -6t175 -6h97h61v2q26 0 85 -1t89 -1h35h96q58 0 173 6t175 6q34 0 102 -4t101 -4h27q15 0 45 -2t45 -2q7 0 21.5 2 t21.5 2q8 0 24.5 -2t24.5 -2q14 0 39 2t37 2q8 0 23 -2t22 -2q9 0 29 2t30 2q25 0 73 -2t73 -2q21 0 65 3t66 3q20 0 62 -3t63 -3q36 0 109 6t108 6q165 0 174 -45q0 -20 -65 -90.5t-115 -116.5q-45 -60 -45 -71q0 -2 36 -47.5t79 -91.5t57 -46q26 -13 55.5 -46t48.5 -66 q6 -12 6 -21q0 -33 -69 -33h-27q-80 0 -228.5 -6t-222.5 -6q-15 0 -44 2t-46 2q-22 0 -66 -3t-67 -3q-9 0 -28.5 1t-28.5 1q-20 0 -60 -1t-61 -1h-102q-22 0 -69 -2t-71 -2q-300 0 -641 16q-9 0 -27.5 -1t-27.5 -1q-22 0 -63 2t-60 2q-16 0 -44 -4t-42 -4v4q-20 0 -59 1 t-58 1q-334 -16 -643 -16q-24 0 -70 2t-69 2h-102q-21 0 -61 1t-60 1q-9 0 -29 -1t-29 -1q-21 0 -65.5 3t-67.5 3q-15 0 -45 -2t-45 -2q-75 0 -221 6t-227 6h-27q-70 0 -70 33zM193 500q0 -4 4 -4h4q53 -11 243 -11h41q16 0 45 -2t43 -2q26 0 75.5 2t66.5 2q21 0 59 -3 t57 -3q21 0 69 3t73 3q14 -2 45 -2q30 0 88 2t88 2q15 0 47 -2t49 -2q11 0 35 2t37 2q22 0 68 -4q44 0 273 5.5t320 5.5h56v-2q21 0 70 1t89 1q84 0 293.5 -5.5t264.5 -5.5q16 0 45 2t45 2q12 0 35 -2t34 -2q17 0 50 2t49 2q28 0 87 -2t87 -2q31 0 47 2q24 0 70.5 -3 t68.5 -3q20 0 59 3t60 3q6 0 21 -2t22 -2q34 0 95.5 2t88.5 2h41q192 0 244 11h6q2 0 4 2v2q0 6 -65.5 74.5t-94.5 93.5q-30 25 -71 70t-41 57q0 5 69 98l13 13q13 12 27.5 26.5l34 34t35 36.5t27.5 32.5t15 23.5q-6 6 -14 6t-23.5 -2t-22.5 -2t-21 1t-20 1h-22q-11 0 -33 1 t-33 1q-25 0 -81 -6t-80 -6q-10 0 -30 3t-30 3h-8q-70 -5 -194.5 -5t-174.5 -3q-5 0 -13.5 1t-12.5 1q-8 0 -23.5 -3t-23.5 -3q-13 1 -34.5 2.5t-40 2.5t-34.5 1h-26q-53 0 -158 4t-154 4q-19 0 -58 -2t-59 -2h-43q-21 0 -59 -3t-59 -3q-55 0 -169 3t-171 3v-2 q-88 -4 -252 -4q-19 0 -58.5 3t-60.5 3h-43q-18 0 -56.5 2t-58.5 2q-52 0 -156.5 -4t-156.5 -4h-27q-15 0 -32.5 -1t-39 -2.5t-34.5 -2.5q-10 0 -25 3t-22 3q-5 0 -14 -1t-13 -1q-164 8 -377 8q-9 0 -30 -3t-31 -3q-26 0 -80 6t-80 6q-12 0 -33.5 -1t-31.5 -1h-23 q-7 0 -21 -1t-20 -1q-8 0 -23.5 2t-23.5 2q-6 0 -12 -6q2 -6 8 -15.5t17.5 -22.5t22 -25t26.5 -28.5t26.5 -27t27 -26.5t21.5 -21q7 -7 38.5 -48t31.5 -50q0 -11 -10 -21q-33 -38 -98.5 -101.5t-92.5 -92.5q-12 -12 -40.5 -45t-28.5 -35z" />
<glyph unicode="K" horiz-adv-x="5410" d="M102 362q0 19 40 70t71 64q4 4 54.5 48t84 80.5t33.5 55.5l-2 4q-31 61 -96 129q-35 35 -81 86.5t-46 58.5q9 46 172 46q36 0 120 -5.5t130 -5.5q14 0 38.5 2t36.5 2q27 0 79 -3t77 -3q23 0 69 2t70 2q10 0 29.5 -2t28.5 -2t27.5 2t27.5 2q11 0 34 -1t34 -1q7 0 22 2 t23 2q7 0 23 -3t24 -3q51 0 160.5 6.5t160.5 6.5h15q97 -13 329 -13q22 0 66 1t67 1h25q18 0 52 1t50 1h33q31 0 95.5 1t97.5 1q18 0 55 -1t57 -1q30 0 92.5 2t94.5 2q37 0 109.5 -2t109.5 -2q24 0 72 1t71 1q31 0 95.5 -1t97.5 -1h32q16 0 50 -1t51 -1h24q21 0 67 -1t69 -1 q161 0 241 6q9 1 45 4t54 3q57 0 164 -6.5t161 -6.5q7 0 23 3t24 3q7 0 22.5 -2t22.5 -2q12 0 34 1t34 1q9 0 26.5 -2t26.5 -2t29.5 2t30.5 2q22 0 68.5 -2t70.5 -2q26 0 77 3t76 3q26 0 76 -4q39 0 124 5.5t128 5.5q170 0 170 -52q0 -6 -12 -18q-37 -27 -89.5 -93.5 t-76.5 -88.5q-6 -6 -26.5 -37t-20.5 -35q0 -17 31 -50.5t82 -78.5t61 -55q25 -10 54 -42t50 -71q4 -8 4 -21q0 -15 -14.5 -23.5t-36.5 -8.5q-2 0 -7.5 1t-8.5 1q-49 0 -217.5 -7.5t-251.5 -7.5q-12 0 -34 2.5t-32 2.5h-32h-17q-21 0 -64 -3.5t-65 -3.5q-7 0 -22.5 1t-22.5 1 q-10 0 -31.5 -1t-31.5 -1h-127q-29 0 -86 -2t-86 -2q-33 0 -97.5 3t-95.5 3h-86q-57 3 -179 5.5t-183 5.5q-6 0 -18.5 -1t-18.5 -1q-3 0 -9.5 1t-9.5 1h-55q-13 0 -36 1t-34 1q-15 0 -39.5 -4t-37.5 -4q-5 0 -15.5 2t-15.5 2q-9 0 -26.5 -2t-26.5 -2q-29 1 -92 4.5 t-114.5 5.5t-97.5 2q-34 0 -106 -5t-109 -5h-135q-139 0 -211 -2q-8 0 -25.5 2t-25.5 2q-5 0 -15.5 -2t-15.5 -2q-14 0 -39.5 4t-37.5 4t-36 -1t-36 -1h-53q-3 0 -9.5 -1t-9.5 -1q-6 0 -18.5 1t-18.5 1q-61 -3 -182 -5.5t-182 -5.5h-84q-33 0 -98.5 -3t-96.5 -3q-28 0 -86 2 t-86 2h-127q-12 0 -32.5 1t-30.5 1q-8 0 -23 -1t-22 -1q-21 0 -64 3.5t-65 3.5h-17h-30q-11 0 -34 -2.5t-34 -2.5q-75 0 -230 7.5t-237 7.5q-3 0 -9 -1t-9 -1q-22 0 -37 9.5t-15 22.5z" />
<glyph unicode="L" horiz-adv-x="2426" d="M102 399q20 28 67.5 67t82.5 69.5t35 46.5q0 9 -6 24t-18.5 36t-21.5 35.5t-26 40t-20 30.5q-3 6 -13 22t-16.5 27.5t-12.5 25.5t-6 23q0 14 19 14q23 -6 65.5 -18.5t77 -21.5t66.5 -13q25 -4 74 -9t88 -11.5t71 -16.5q24 -10 69 -17t79 -9t91 -4.5t66 -2.5 q210 -14 273 -14q44 0 133.5 2t132.5 2q8 0 23 -1t22 -1q103 4 227 20t208.5 31t224.5 43q13 2 61 26.5t51 24.5q12 0 12 -10q0 -25 -32.5 -75t-75 -105.5t-53.5 -77.5q-2 -4 -2 -10q0 -28 180 -167l20 -17q6 -6 6 -17q0 -38 -296 -76q-91 -16 -242.5 -28.5t-220.5 -22.5 q-29 -1 -111.5 -6t-140 -7.5t-111.5 -2.5q-20 0 -59.5 3t-57.5 3h-28q-51 0 -115.5 5t-102.5 9t-122 15t-105 14q-221 26 -448 86q-52 10 -62 16zM150 418q0 -6 12.5 -12.5t37 -13t51.5 -12.5t66 -12.5t70 -11.5t74 -11t67.5 -9.5t60.5 -8l44 -5.5q15 -2 42 -7.5t49.5 -9 t39.5 -2.5h12q61 0 185.5 -13.5t181.5 -13.5q427 0 870 62q262 37 262 63q0 12 -34.5 45t-74 65t-42.5 36q-26 30 -35 43q10 37 67 111.5t66 89.5q2 4 2 12t-2 14q-48 -16 -97.5 -29t-110.5 -23.5t-97 -16t-111.5 -15t-99.5 -12.5q-107 -21 -307 -21q-8 0 -24 1t-23 1 t-21 -2t-20 -2q-7 0 -21.5 2t-21.5 2q-40 -6 -82 -6q-22 0 -68.5 5.5t-70.5 5.5q-4 0 -12.5 -2.5t-12.5 -2.5q-92 0 -266.5 26.5t-206.5 29.5q-74 6 -232 39q-25 5 -71.5 17t-59.5 15q-2 -4 -2 -10q0 -9 7.5 -26t18.5 -36t25.5 -41.5t25.5 -38.5t21.5 -30.5t10.5 -15.5 q20 -40 20 -47q0 -20 -40.5 -57.5t-81.5 -69.5t-41 -39z" />
<glyph unicode="M" horiz-adv-x="3037" d="M103 632q9 31 104 70v3q14 5 38.5 20t37.5 20l31 13q42 21 42 33q0 7 -12.5 24.5t-29 38.5t-21.5 29l-20 21q-31 38 -31 61q-2 6 -38 59.5t-36 75.5q0 9 5 16.5t15 7.5q2 0 6.5 -1t6.5 -1q-3 0 30.5 -16.5t78.5 -35t67 -23.5q122 -42 219 -56h21t7 -1.5t6.5 -3.5t18 -5.5 t41.5 -7.5q59 -9 104 -18t62.5 -13t60.5 -8t123 -8q9 0 33.5 -5.5t38.5 -5.5h2q119 -18 182 -18q25 0 87.5 -7t91.5 -7q30 0 36 2h17q2 0 2 -2q203 0 395 32h2q12 0 35 5.5t37 5.5q40 2 99.5 11t90.5 9h2q15 0 27 6q211 39 227 39q46 7 164 41q23 4 62 21t67 24l24 11 q25 12 52 24t35 12q22 0 22 -26q0 -13 -10.5 -32t-26 -40.5t-20.5 -30.5q-4 -6 -11.5 -24.5t-17.5 -36t-24 -31.5q-7 -7 -42.5 -56.5t-35.5 -58.5q23 -16 37 -22q28 -15 49.5 -27.5t62.5 -33.5v-3q29 -13 66 -40.5t37 -38.5q0 -2 -24 -16.5t-53.5 -28t-41.5 -13.5 q-22 0 -64 -18.5t-57 -22.5l-4 -2q-7 -2 -48 -16.5t-60 -16.5l-3 -1q-37 -13 -55 -13q-82 -33 -164 -33q-2 0 -3.5 1t-2.5 1q-7 0 -31.5 -4.5t-35.5 -5.5h-4q-14 -1 -76.5 -13.5t-118.5 -12.5h-2q-5 0 -35 -5q-14 0 -22 -2q-12 -3 -87.5 -8.5t-130.5 -5.5q-5 0 -12 1l-6 1 q-8 0 -25 -3t-26 -3q-87 0 -130.5 2t-56.5 2h-2q-4 -3 -11.5 -4t-12.5 -1l-6 1h-8q-23 0 -31 4h-2q-9 0 -26 -2t-27 -2q-17 0 -81.5 3t-103.5 3q-3 0 -9 -1t-9 -1l-109 13q-92 8 -166 8h-2q1 1 1 2q-1 -1 -2.5 -2t-6 -2.5t-9 -1.5t-12.5 2t-16 6q-10 7 -147 22h-4 q-10 1 -33.5 4.5t-32.5 3.5h-8q-3 -1 -13 4t-33.5 11t-53.5 6q-1 0 -6.5 2.5t-15 5.5t-22 6t-30.5 5.5t-37 2.5q0 -2 -22 4.5t-60 19.5t-39 13l-4 2q-15 4 -57 22.5t-64 18.5q-10 0 -28 12t-52 23q-39 8 -39 23z" />
<glyph unicode="N" horiz-adv-x="5406" d="M102 432q0 12 14 36t31 34q10 5 29.5 29.5t36.5 31.5q1 1 53 48t85.5 83.5t33.5 53.5q0 -1 -2 2t-5.5 9t-9 15t-13 21t-17 25t-22.5 29t-27 32q-11 12 -48 50.5t-59 63.5t-22 31q5 32 39 35q25 0 73 6t72 6q105 -12 240 -12q16 0 46 3t46 3q24 0 73 -3t74 -3q21 0 64 1 t65 1q10 0 31 -1t31 -1q8 0 25.5 1t25.5 1q11 0 34 -1t34 -1q7 0 22 2t23 2q7 0 23 -3t24 -3q51 0 160.5 6t160.5 6h15q97 -12 352 -12q19 0 55 1t55 1h25q18 0 52 1t50 1h33q31 0 95.5 1t97.5 1q18 0 55 -1t57 -1q30 0 92.5 2t94.5 2q39 0 117.5 -2t117.5 -2q22 0 64.5 1 t62.5 1q31 0 96 -1t97 -1h32q16 0 50 -1t51 -1h24q20 0 57.5 -1t55.5 -1q60 0 182 6t181 6q57 0 164 -6t161 -6q7 0 23 3t24 3q7 0 22.5 -2t22.5 -2q12 0 34 1t34 1q8 0 24.5 -1t24.5 -1q10 0 31 1t33 1q21 0 64 -1t65 -1t46.5 1t54.5 2.5t46 2.5q15 0 46 -3t46 -3 q123 0 240 12h34t36.5 -1.5t42 -4.5t33.5 -8.5t27.5 -15.5t8.5 -23q0 -5 -4 -11.5t-8 -7.5q-39 -28 -94 -96.5t-72 -85.5q-3 -2 -24 -33.5t-21 -37.5q0 -10 13 -28.5t35.5 -41t43 -42t46 -42t34.5 -31.5q25 -10 54 -42.5t50 -67.5l-16 -50q-10 -4 -29 -4h-18q-23 0 -68 -2 t-69 -2q-51 0 -162.5 -5t-169.5 -5q-16 0 -48 3t-50 3q-22 0 -67 -3t-67 -3q-9 0 -28.5 1t-28.5 1q-57 0 -173 -3t-173 -3q-80 0 -318 7t-358 7h-82q-14 0 -40 2t-38 2q-15 0 -40.5 -5t-38.5 -5q-6 0 -18.5 2t-18.5 2q-8 0 -23.5 -1t-23.5 -1q-47 0 -147 5t-152 5 q-35 0 -108 -5t-112 -5h-135h-74q-29 0 -90 1t-92 1q-6 0 -18.5 -2t-18.5 -2q-13 0 -40 5t-40 5t-39 -2t-40 -2h-80q-91 0 -321.5 -7t-356.5 -7q-56 0 -172 3t-174 3q-9 0 -28 -1t-28 -1q-23 0 -67.5 3t-65.5 3q-19 0 -51.5 -3t-48.5 -3q-75 0 -230.5 7t-236.5 7h-20 q-21 0 -35.5 9.5t-14.5 23.5z" />
<glyph unicode="O" horiz-adv-x="3059" d="M102 625q62 30 153 88.5t91 77.5q0 33 -107 173l-14 19q-34 35 -63 109q0 26 18 26q25 -12 58.5 -22.5t57 -15.5t66.5 -13.5t58 -11.5q131 -31 283 -54.5t319 -45t252 -35.5q6 -1 59 -7t78 -6q6 0 16 2t15 2q21 0 64.5 -3t66.5 -3q6 0 20 3t21 3q8 0 24.5 -2t24.5 -2 q52 1 147.5 15.5t131.5 17.5q26 0 61.5 4t63 9l71.5 13t64 11q62 10 184 30.5t184 30.5q44 15 152.5 39t156.5 41q17 0 17 -22q0 -9 -7 -24t-16.5 -30t-19.5 -29t-16 -22t-5 -8q-27 -27 -73.5 -100.5t-46.5 -94.5q8 -24 90 -73q3 -2 2 -2q26 -16 153 -88q-18 -18 -35.5 -26 t-52.5 -13.5t-43 -7.5q-45 -16 -172 -52q-8 -2 -28 -8t-35.5 -10t-24.5 -4h-6q-42 0 -140.5 -21.5t-109.5 -23.5q-261 -46 -467 -58q-69 -4 -93 -4h-7h-41q-15 0 -40.5 -4t-37.5 -4q-96 0 -145 2q-8 0 -25.5 -1t-26.5 -1q-12 0 -37.5 4t-39.5 4h-21q-64 0 -132 4.5t-117.5 9 t-130.5 17t-120 19t-141.5 24.5t-142.5 25q-102 20 -218 55t-196 47q-2 0 -29 27zM160 629q0 -24 142 -43l24 -2q21 -5 69 -20.5t70 -18.5q49 -12 110 -24t103.5 -19t117.5 -19t109 -18q12 -2 58.5 -4.5t70.5 -9.5q125 -25 269 -25q3 0 10 1t10 1q44 0 129.5 -2t122.5 -2 q38 4 164 4q14 -2 39 -2q11 1 100.5 8.5t136.5 14.5q36 8 53 8h13q63 0 194 25.5t148 27.5q176 32 293.5 60t150.5 40t33 15q0 2 -50 36.5t-100 68.5l-51 34q-26 10 -26 18q0 17 49 76q25 33 65.5 102.5t65.5 104.5v12h-17q-35 0 -108.5 -25.5t-95.5 -29.5 q-122 -27 -166 -41q-9 0 -28.5 -6t-27.5 -6q-50 0 -142.5 -18t-131.5 -21q-24 -8 -39 -8q-1 0 -3 1t-3 1q-67 0 -192 -22.5t-173 -22.5h-12q-50 0 -146.5 -4.5t-140.5 -4.5q-15 0 -45 5.5t-45 5.5v-2q-66 0 -184 22.5t-180 22.5q-2 0 -5.5 -1t-4.5 -1q-49 0 -156.5 23.5 t-155.5 23.5q-19 0 -52.5 11t-39.5 11q-19 4 -58 11.5t-64.5 12.5t-55 14t-47.5 18q-32 32 -129 32q17 -53 69 -133t103 -143q8 -11 8 -21q0 -5 -98 -75q-13 -9 -46 -28t-57 -33t-24 -17z" />
<glyph unicode="P" horiz-adv-x="3172" d="M102 616q0 18 140 97q1 1 22 11.5t44 22.5t42 25t19 19q-15 28 -51.5 79.5t-45.5 65.5q-100 143 -100 184q0 15 12 15q9 0 61.5 -25t73.5 -31l77 -30q123 -43 196 -50q90 -20 113 -22q43 -6 122.5 -20t112.5 -19q15 -2 73.5 -4t71.5 -8q213 -27 308 -31q27 -1 75 -4.5 t88.5 -5.5t77.5 -2q28 0 85.5 6t88.5 6q49 1 105.5 5.5t96.5 8.5t107 13.5t93 13.5t103 16.5t91 14.5q27 3 85 15t108 19q115 16 305 95q1 0 35.5 19.5t50.5 19.5q5 0 9.5 -6.5t4.5 -10.5q0 -1 -1 -3t-1 -3q-33 -49 -80 -141q-10 -21 -40 -61.5t-53 -73.5t-23 -43 q0 -12 33 -32t80 -43t61 -32l9 -6q9 -5 22.5 -13t27.5 -17t23.5 -18t9.5 -14q0 2 -18 -10.5t-49 -27.5t-56 -15q-19 -2 -113.5 -39.5t-142.5 -44.5q-9 0 -51.5 -12t-59.5 -12h-8q-11 0 -22 -1.5t-24.5 -5t-20.5 -4.5q-139 -49 -299 -49h-13q-19 0 -54 -4t-52 -4 q-34 -2 -126 -9t-136 -7q-29 0 -88 2t-88 2q-8 -1 -25 -2t-25 -2q-13 0 -37 1t-36 1q-11 0 -37 -1t-39 -1q-26 0 -77 2t-75 2h-16q-143 0 -301 22q-3 0 -8.5 -1t-7.5 -1q-7 0 -18 4.5t-17 4.5q-35 6 -110.5 13.5t-114.5 16.5l-17 5q-18 5 -45 10.5t-51 5.5h-12q-7 -1 -26 4 t-43.5 12.5t-37.5 9.5q-28 6 -115.5 42t-134.5 40q-10 0 -53 19.5t-57 23.5q-11 4 -11 8z" />
<glyph unicode="Q" horiz-adv-x="5410" d="M102 473q0 5 15 23t42.5 38t53.5 25q8 8 52 33.5t81 50t37 37.5q-29 35 -45 47l-112 77q-65 47 -66 56q9 31 184 31q9 -1 28.5 -2t28.5 -2h52q21 0 64 -2t65 -2q15 0 46 2t48 2q24 0 70 -2t69 -2t69 1t68 1q10 0 31 -1t31 -1q8 0 24.5 1t24.5 1q11 0 35 -1t35 -1 q8 0 24 1t23 1t20 -1t19 -1q53 0 163.5 3t163.5 3q62 0 184 -4t183 -4q33 0 98 1t96 1h43q38 0 113.5 1t112.5 1h96q32 0 96 1t96 1q44 0 130 -1t128 -1h111q38 0 113.5 -1t113.5 -1h43q34 0 98 -1t97 -1q57 0 181.5 4t183.5 4q56 0 165.5 -3t163.5 -3q6 0 19.5 1t19.5 1 q8 0 24.5 -1t24.5 -1q12 0 34 1t34 1q8 0 24.5 -1t24.5 -1q10 0 30.5 1t30.5 1q22 0 69 -1t69 -1q24 0 70 2t69 2q17 0 48 -2t46 -2q21 0 64 2t65 2h51q10 1 30 2t30 2q182 0 182 -35q0 -3 -2 -5t-5.5 -4t-4.5 -3q-21 -9 -39.5 -21t-42.5 -31.5t-33 -25.5q-15 -10 -34.5 -24 t-41.5 -34t-22 -28q0 -13 57.5 -48t128 -77.5t92.5 -67.5q4 -6 4 -14q0 -20 -67 -20h-27q-68 0 -220 -4.5t-230 -4.5q-10 0 -30 1t-30 1q-26 0 -80 -2t-82 -2q-10 0 -29.5 1t-29.5 1t-31.5 -1t-31.5 -1h-170q-22 0 -68 -1t-68 -1q-92 0 -302.5 5.5t-333.5 5.5h-109 q-13 0 -36 1t-34 1q-14 0 -38.5 -3.5t-36.5 -3.5q-5 0 -15.5 1.5t-15.5 1.5q-9 0 -27.5 -1.5t-27.5 -1.5q-161 7 -304 7q-34 0 -101.5 -2t-102.5 -2h-158q-100 0 -199 -3q-9 0 -27.5 1.5t-27.5 1.5q-5 0 -15 -1.5t-14 -1.5q-14 0 -40 3.5t-38 3.5q-11 0 -34 -1t-35 -1h-53 q-114 0 -345.5 -5.5t-347.5 -5.5q-22 0 -67 1t-68 1h-170q-12 0 -32.5 1t-30.5 1q-9 0 -26 -1t-25 -1q-19 0 -59 2t-60 2h-21h-30q-10 0 -30 -1t-30 -1q-79 0 -225.5 4.5t-224.5 4.5h-27q-68 0 -68 20zM193 489q0 -4 8 -4q59 -6 241 -6h43q16 0 45 -1t43 -1q12 0 43.5 -1 t52.5 -0.5t36 3.5q22 0 63 -2t61 -2q22 0 70 2t74 2q5 0 14 -1t14 -1q23 0 65 2t62 2q27 0 79 -2t77 -2q14 0 40 1t40 1h106q58 0 250.5 2t272.5 2q55 0 127.5 -1t109.5 -1q89 0 267 3t266 3q77 0 230.5 -3t230.5 -3q28 0 86 1t108 1q81 0 273.5 -2t248.5 -2h109q13 0 39 -1 t39 -1q25 0 77 2t78 2q22 0 64 -2t63 -2q5 0 15.5 1t15.5 1q24 0 71 -2t70 -2q15 0 47 2t48 2q12 0 33 -1t32 -1q31 0 92 1t92 1h43q15 0 55 -0.5t66.5 -0.5t58 1t49.5 3t21 5v2q-53 40 -69 52q-5 3 -31.5 18t-52.5 30.5t-54 33.5t-45.5 33.5t-17.5 23.5q0 1 12.5 13.5 t30 28t27.5 21.5q2 0 36.5 22t72 49.5t42.5 37.5q-8 4 -14 4q-9 0 -27.5 -2t-27.5 -2q-10 2 -33 2h-27q-10 0 -31.5 1t-33.5 1q-23 0 -71 -4t-71 -4q-14 0 -41 2t-43 2q-66 -3 -190.5 -3.5t-177.5 -2.5q-4 0 -12.5 1t-12.5 1q-7 0 -23.5 -2t-23.5 -2q-74 4 -111 4h-24 q-52 0 -164.5 3t-169.5 3q-15 0 -47 -2t-49 -2h-43q-22 0 -69.5 -2t-70.5 -2q-192 4 -278 4h-127q-24 0 -71 1t-70 1q-15 0 -46 -1t-47 -1q-12 0 -36 1t-37 1q-47 0 -142.5 -2t-142.5 -2q-28 0 -83 2t-83 2q-24 0 -72 -1t-73 -1h-123q-220 0 -279 -4q-24 0 -71 2t-72 2h-43 q-15 0 -47 2t-47 2q-57 0 -167 -3t-167 -3h-27q-36 0 -106 -4q-10 0 -25 2t-22 2q-5 0 -14 -1t-13 -1q-53 2 -177.5 2.5t-190.5 3.5q-14 0 -42 -2t-42 -2q-24 0 -72.5 4t-69.5 4q-12 0 -34 -1t-33 -1h-25q-23 0 -33 -2q-9 0 -27.5 2t-27.5 2q-4 0 -12 -4q4 -9 30.5 -28 t66 -45.5t52.5 -35.5l14 -12q56 -43 56 -51q0 -9 -39 -36t-74 -46q-36 -20 -96.5 -61t-60.5 -48z" />
<glyph unicode="R" horiz-adv-x="4247" d="M102 403q0 16 11 33t24 29.5t40 36.5t44 41q11 17 87.5 83.5t76.5 94.5l-5 7q-4 7 -13 21.5t-20 30.5t-27 36.5t-31 37.5q-7 7 -46.5 47.5t-61 64t-21.5 27.5q0 38 39 41q23 0 67 5t66 5q21 0 71 -4h39q25 0 72 -3t70 -3q14 0 40 2t38 2q24 0 72 -3t73 -3q23 0 71.5 2 t73.5 2q10 0 30 -2t30 -2q8 0 26 2t27 2q11 0 34 -1t34 -1q7 0 22.5 2t22.5 2q8 0 24 -3t23 -3q15 0 45 2t45 2h24q35 0 106.5 4t106.5 4h11q84 -12 331 -12h97h59v2h72q18 0 51 -1t51 -1h35h96q55 0 173 6t169 6q34 0 105 -4t106 -4h27q15 0 44 -2t44 -2q8 0 23.5 3t23.5 3 q7 0 23 -2t24 -2q11 0 34 1t34 1q9 0 26.5 -2t26.5 -2t28.5 2t28.5 2q25 0 73 -2t73 -2t73 3t72 3q14 0 40 -2t40 -2q24 0 70 3t69 3h41q46 4 70 4q21 0 34 -0.5t36.5 -1.5t38.5 -4.5t31 -8.5t24 -14.5t8 -21.5q0 -5 -5.5 -11t-6.5 -9q-21 -15 -39.5 -33t-43 -47.5 t-32.5 -38.5q-4 -5 -24 -26.5t-34 -37.5t-27 -36.5t-13 -32.5t30 -45t58 -55q10 -8 41.5 -42.5t44.5 -41.5q24 -9 66 -56t42 -78q0 -13 -15 -22.5t-36 -9.5q-3 0 -8.5 1t-7.5 1q-31 0 -93 -4q-63 0 -187 -5.5t-185 -5.5q-13 0 -36 2t-36 2q-29 0 -85 -3t-85 -3q-9 0 -26 1 t-25 1q-10 0 -32 -1t-32 -1h-127q-29 0 -86 -2t-86 -2q-33 0 -97 3t-97 3h-84q-132 0 -365 11q-9 0 -27.5 -1t-27.5 -1q-19 0 -60.5 2t-62.5 2q-12 0 -36 -4.5t-36 -4.5q-2 0 -7 1.5t-7 1.5v4q-20 -2 -61 -2q-9 0 -28 1t-28 1q-218 -11 -362 -11h-86q-33 0 -97.5 -3 t-95.5 -3q-28 0 -86 2t-86 2h-127q-12 0 -32.5 1t-30.5 1q-9 0 -26 -1t-25 -1q-29 0 -86 3t-84 3q-13 0 -37 -2t-35 -2q-71 0 -231.5 7.5t-233.5 7.5q-3 0 -9 -1t-9 -1q-21 0 -36.5 9t-15.5 23z" />
<glyph unicode="S" horiz-adv-x="4247" d="M102 473q0 12 37 44.5t74 41.5l20 12q20 12 43.5 27t49 31.5t42.5 30.5t17 20l-40 40q-28 26 -56 46l-129 90q0 35 184 35q10 -1 29.5 -2t29.5 -2h50q23 0 66.5 -2t64.5 -2q15 0 46 2t48 2q24 0 70 -2t69 -2t69 1t68 1q9 0 30.5 -1t31.5 -1q8 0 24.5 1t24.5 1q11 0 34 -1 t34 -1q8 0 24.5 1t24.5 1q6 0 19.5 -1t19.5 -1q48 0 160.5 3t166.5 3q59 0 182.5 -4t184.5 -4q23 0 68 1t67 1v2q16 -2 47 -2h43q34 0 98 -1t97 -1q57 0 181 4t183 4q56 0 166 -3t164 -3q6 0 18.5 1t18.5 1q8 0 25.5 -1t25.5 -1q11 0 34 1t34 1q8 0 24.5 -1t24.5 -1 q10 0 30.5 1t30.5 1q23 0 69 -1t68 -1q23 0 69.5 2t70.5 2q17 0 48 -2t46 -2q22 0 65 2t64 2h51q9 1 29.5 2t30.5 2q182 0 182 -35q0 -3 -2 -5t-5.5 -4t-4.5 -3q-21 -9 -39.5 -21t-42.5 -31.5t-33 -25.5q-15 -10 -34.5 -24t-41.5 -34t-22 -28q0 -3 10 -10q34 -31 131 -87.5 t137 -95.5q4 -6 4 -14q0 -20 -67 -20h-27q-68 0 -220.5 -4.5t-230.5 -4.5q-10 0 -29.5 1t-29.5 1q-26 0 -80 -2t-82 -2q-10 0 -29.5 1t-29.5 1t-32 -1t-32 -1h-170q-22 0 -67 -1t-68 -1q-92 0 -303 5.5t-334 5.5h-108q-13 0 -36 1t-34 1q-12 0 -36 -3.5t-36 -3.5 q-2 0 -7 1.5t-7 1.5v2q-145 0 -393 -5.5t-359 -5.5q-22 0 -67 1t-68 1h-170q-12 0 -32.5 1t-30.5 1t-30.5 -1t-29.5 -1q-28 0 -81.5 2t-79.5 2q-10 0 -30.5 -1t-29.5 -1q-78 0 -228.5 4.5t-221.5 4.5h-27q-70 0 -70 20zM193 489q0 -4 10 -4q55 -6 241 -6h43q15 0 44 -1 t44 -1q11 0 41 -1t51.5 -0.5t39.5 3.5q20 0 61 -2t63 -2q23 0 71 2t71 2q5 0 15.5 -1t15.5 -1q20 0 62 2t62 2q27 0 80 -2t78 -2q14 0 39 1t39 1h106q58 0 249.5 2t271.5 2h88h176q81 0 273.5 -2t248.5 -2h109q14 0 39 -1t38 -1q25 0 78 2t78 2q21 0 63 -2t64 -2q5 0 15.5 1 t15.5 1q24 0 71 -2t70 -2q16 0 47 2t47 2q12 0 33 -1t33 -1q30 0 92 1t92 1h43q15 0 55 -0.5t66.5 -0.5t58 1t49.5 3t21 5v2q-54 40 -70 52q-5 3 -31.5 18.5t-52 31t-53.5 33.5t-45.5 33t-17.5 23q0 1 12 13.5t29.5 28t27.5 21.5q2 0 36.5 22t72.5 49.5t43 37.5q-8 4 -14 4 q-9 0 -28 -2t-28 -2q-10 2 -33 2h-26q-10 0 -32 1t-34 1q-23 0 -71 -4t-70 -4q-14 0 -41 2t-43 2q-66 -3 -191 -3.5t-178 -2.5q-4 0 -12 1t-12 1q-7 0 -23.5 -2t-23.5 -2q-74 4 -111 4h-24q-52 0 -164.5 3t-169.5 3q-15 0 -47.5 -2t-49.5 -2h-43q-23 0 -70 -2t-69 -2 q-71 4 -319 4v-2q-189 0 -228 -2q-23 0 -70 2t-71 2h-43q-17 0 -48 2t-48 2q-55 0 -167 -3t-165 -3h-27q-34 0 -108 -4q-7 0 -23.5 2t-23.5 2q-4 0 -12.5 -1t-12.5 -1q-41 1 -116.5 1t-136.5 1t-115 4q-16 0 -43.5 -2t-40.5 -2q-24 0 -72 4t-72 4q-10 0 -31.5 -1t-33.5 -1 h-25q-23 0 -33 -2q-9 0 -27.5 2t-27.5 2q-6 0 -14 -4q4 -9 31 -28.5t67 -45t53 -35.5q-1 0 16.5 -14t35.5 -29.5t18 -19.5q0 -26 -266 -186q-6 0 -6 -5z" />
<glyph unicode="T" horiz-adv-x="3059" d="M102 625q6 3 17.5 10t17.5 10q34 14 122.5 65.5t88.5 77.5q0 18 -17.5 48t-44.5 67.5t-34 48.5q-34 34 -37 47q-10 30 -21 48t-17.5 22.5t-10.5 9.5t-4 13q0 26 18 26q2 -1 7.5 -2t7.5 -2q75 -27 225 -59q359 -84 667 -109q230 -39 324 -39q6 0 16 2t15 2q8 0 23 -3 t22 -3q22 0 64.5 3t62.5 3q8 0 24.5 -2t24.5 -2q65 2 183.5 20.5t172.5 22.5q133 17 406 64q10 1 44 5.5t53.5 7.5t44 9t38.5 13q109 13 274 69q17 0 17 -24q0 -15 -22.5 -47t-28.5 -48q-2 -9 -13 -18.5t-14 -13.5l-50 -71q-54 -82 -54 -108q0 -8 6 -14q89 -65 237 -149 l-7 -5q-8 -6 -9 -10q-6 -12 -240 -69q-10 -2 -34.5 -12.5t-50 -17.5t-48.5 -7h-6q-9 0 -25 -4q-14 -3 -137.5 -28t-194.5 -37t-204.5 -25t-257.5 -13h-41q-14 0 -40.5 -4t-37.5 -4q-96 0 -143 2q-9 0 -27 -1t-27 -1q-13 0 -38 4t-39 4h-21q-38 0 -77 1.5t-87 6t-80.5 7.5 t-91.5 11.5t-84 11.5t-94 14.5t-86 14.5t-95.5 16.5t-88.5 15.5q-2 0 -16.5 0.5t-27 2t-40 9t-60.5 20.5q-30 11 -87.5 27t-80.5 23q-14 4 -41.5 6.5t-48 10.5t-41.5 30z" />
<glyph unicode="U" horiz-adv-x="2652" d="M102 432q54 71 166 154q39 29 39 47q0 14 -18 46t-46.5 76.5t-37.5 59.5q-2 4 -15 25t-18.5 31t-11.5 26t-6 27q0 14 16 14h4q303 -77 537 -107q19 -2 90 -11t104 -12.5t92.5 -9t109.5 -8t99 -2.5q5 0 15.5 1.5t15.5 1.5q9 0 28.5 -2.5t28.5 -2.5q51 2 149 3.5t146 3.5 q8 0 24.5 -1t24.5 -1q142 5 189 12q43 7 165 25t206 33t165 34q8 1 62 28t65 27q3 0 7 -3.5t4 -6.5q0 -17 -56 -104q-12 -19 -47 -65t-56.5 -78.5t-21.5 -47.5q-1 -8 25 -34t51 -46q16 -14 60 -48.5t69 -57.5t25 -35q0 -15 -70.5 -36.5t-107.5 -25.5q-13 -2 -128.5 -21 t-175.5 -19q-36 -3 -163 -20t-193 -17q-50 -2 -186 -10.5t-211 -10.5q-24 0 -70.5 4t-68.5 4h-23q-67 0 -233 17q-376 40 -748 125q-55 12 -70 18z" />
<glyph unicode="V" horiz-adv-x="5410" d="M102 477q0 15 10.5 31.5t23 28.5t40 37.5t43.5 41.5q13 18 56.5 54.5t75.5 70t32 54.5q0 -1 -1 0.5t-3 5.5t-5 9t-8 12.5t-10.5 16t-12.5 19t-15.5 21t-19 23.5t-21.5 26q-9 10 -47 49.5t-59 64t-21 31.5q3 15 19 25t44.5 14t52 5t58.5 1t108 -6t107 -6q20 0 62 3t65 3 q21 0 64.5 -3t66.5 -3t71.5 2t73.5 2q10 0 29.5 -2t28.5 -2q8 0 23 2t22 2q12 0 38 -2t40 -2q8 0 24 2t23 2t22 -2t21 -2q15 0 45 2t45 2h26q35 0 103 4t102 4q57 0 173 -6t175 -6h97h34q57 0 169 3t169 3q19 0 55.5 -1t53.5 -1q39 0 117.5 2t117.5 2q37 0 111 -2t111 -2 q21 0 60 1t60 1q57 0 171 -3t169 -3h35h96q57 0 176 6t173 6q34 0 102 -4t102 -4h27q14 0 44 -2t46 -2q6 0 21 2t22 2q8 0 24.5 -2t24.5 -2q12 0 37 2t39 2q7 0 22.5 -2t22.5 -2q9 0 28.5 2t28.5 2q24 0 73 -2t73 -2q22 0 66 3t65 3q23 0 64.5 -3t62.5 -3q32 0 107 6t110 6 q16 0 48 -5t50 -5q19 0 26.5 -0.5t21.5 -3.5t20 -12.5t6 -24.5q0 -10 -24.5 -36.5t-59 -59t-43.5 -43.5q-3 -4 -24 -27t-34.5 -39t-26.5 -36t-13 -31l16 -18q4 -4 13 -17q119 -150 145 -150q26 -14 56.5 -48.5t47.5 -63.5q4 -8 4 -21q0 -33 -67 -33h-27q-68 0 -220 -6 t-230 -6q-16 0 -46 2t-44 2q-22 0 -68 -3t-68 -3q-9 0 -27.5 1t-27.5 1q-21 0 -61 -1t-60 -1h-102q-24 0 -70.5 -2t-68.5 -2q-328 0 -643 16q-9 0 -28 -1t-28 -1q-21 0 -61.5 2t-59.5 2q-14 0 -37.5 -4t-35.5 -4q-6 0 -19 2t-20 2q-8 0 -25.5 -2t-25.5 -2q-49 0 -146 5 t-147 5q-33 0 -102 -4t-105 -4h-156q-35 0 -104 -1t-105 -1q-8 0 -25.5 2t-25.5 2q-7 0 -19.5 -2t-19.5 -2q-11 0 -36 4t-36 4q-22 0 -62 -2t-60 -2q-9 0 -28 1t-28 1q-334 -16 -643 -16q-24 0 -70 2t-69 2h-102q-21 0 -61 1t-60 1q-9 0 -29 -1t-29 -1q-21 0 -65.5 3 t-67.5 3q-15 0 -45 -2t-45 -2q-81 0 -226.5 6t-223.5 6h-27q-68 0 -68 33zM193 500q0 -4 4 -4h4q53 -11 243 -11h41q16 0 45 -2t43 -2q26 0 75.5 2t66.5 2q21 0 59 -3t57 -3q22 0 69 3t73 3q14 -2 43 -2q30 0 90 2t88 2q15 0 47 -2t49 -2q11 0 35 2t37 2q22 0 68 -4 q43 0 265 5.5t314 5.5q51 0 137 -2.5t131 -2.5q72 0 215 4.5t213 4.5q77 0 235 -4.5t238 -4.5q36 0 106.5 2.5t117.5 2.5q85 0 295 -5.5t264 -5.5q16 0 46 2t44 2q11 0 35 -2t35 -2q17 0 49 2t49 2q29 0 87 -2t87 -2q31 0 47 2q24 0 70 -3t69 -3q19 0 58 3t59 3q8 0 22.5 -2 t22.5 -2q31 0 92 2t92 2h41q192 0 244 11h4q2 0 4 2v4q0 2 -4 6q-26 22 -73.5 78.5t-79.5 81.5q-29 23 -71 67.5t-42 57.5t70 100l6 5q5 6 13 14t19 18.5t22.5 22.5t23.5 24.5t23 24.5t20.5 23t15.5 20t8 14q-6 6 -14 6t-24 -2t-23 -2t-20.5 1t-20.5 1h-23q-12 0 -32.5 1 t-30.5 1q-26 0 -82.5 -6t-81.5 -6q-10 0 -28.5 3t-30.5 3h-9q-65 -5 -191 -5t-177 -3q-4 0 -12.5 1t-12.5 1q-7 0 -23.5 -3t-23.5 -3q-13 1 -34.5 2.5t-40 2.5t-34.5 1h-26q-48 0 -154.5 4t-159.5 4q-19 0 -57 -2t-59 -2h-43q-18 0 -57.5 -3t-59.5 -3q-92 0 -283 4t-286 4 q-14 0 -43 -1t-45 -1q-10 0 -32 1t-34 1q-47 0 -143.5 -2t-143.5 -2q-30 0 -88 2t-88 2q-89 0 -283 -4t-288 -4q-19 0 -58.5 3t-60.5 3h-43q-18 0 -56.5 2t-58.5 2q-52 0 -156.5 -4t-156.5 -4h-27q-1 0 -106 -6q-10 0 -25 3t-22 3q-5 0 -14 -1t-13 -1q-164 8 -377 8 q-9 0 -30 -3t-31 -3q-26 0 -82 6t-80 6q-12 0 -32.5 -1t-30.5 -1h-23q-7 0 -21 -1t-20 -1q-8 0 -23.5 2t-23.5 2q-6 0 -12 -6q2 -6 8 -15.5t17.5 -22.5t22 -25t26.5 -28.5t26.5 -27t27 -26.5t21.5 -21q70 -80 70 -98q0 -11 -10 -21q-33 -38 -99 -102t-92 -92 q-12 -12 -40.5 -45t-28.5 -35z" />
<glyph unicode="W" horiz-adv-x="4247" d="M102 473q0 4 13 21t40.5 38t57.5 27q5 5 49.5 30.5t83.5 51.5t39 39q-31 35 -47 47l-112 77q-65 47 -66 56q9 31 184 31q9 -1 29 -2t30 -2h50q21 0 64 -2t65 -2q16 0 47 2t47 2q24 0 70 -2t69 -2t69 1t68 1q10 0 31 -1t31 -1q8 0 25.5 1t25.5 1q11 0 34 -1t34 -1 q8 0 24.5 1t24.5 1q6 0 18.5 -1t18.5 -1q55 0 164.5 3t162.5 3q62 0 184 -4t183 -4q22 0 68 1t69 1v2q14 -2 47 -2h41q33 0 98.5 -1t98.5 -1q63 0 182 4t182 4q57 0 165.5 -3t162.5 -3q7 0 20 1t19 1q8 0 24.5 -1t24.5 -1q11 0 33.5 1t34.5 1q8 0 24.5 -1t24.5 -1 q10 0 30.5 1t32.5 1q23 0 69 -1t68 -1q23 0 69.5 2t70.5 2q16 0 46 -2t46 -2q24 0 67.5 2t63.5 2h49q10 1 29.5 2t29.5 2q176 0 185 -31q0 -8 -15 -16q-20 -9 -38.5 -21.5t-40.5 -30t-35 -26.5q-2 -1 -29 -20.5t-47 -37.5t-20 -28t35 -33.5t77 -49t51 -34.5q18 0 44.5 -22 t29.5 -23q17 -6 31 -21t14 -24q0 -20 -69 -20h-27q-80 0 -228.5 -4.5t-222.5 -4.5q-10 0 -29 1t-28 1q-27 0 -82 -2t-82 -2q-9 0 -29 1t-30 1t-32 -1t-32 -1h-168q-22 0 -68 -1t-69 -1q-105 0 -317 5.5t-318 5.5h-110q-12 0 -35 1t-35 1q-13 0 -37 -3.5t-33 -3.5 q-3 0 -7.5 1.5t-6.5 1.5v2q-125 0 -376.5 -5.5t-377.5 -5.5q-22 0 -67 1t-68 1h-170q-12 0 -32.5 1t-30.5 1t-30.5 -1t-29.5 -1q-26 0 -79.5 2t-81.5 2q-10 0 -30 -1t-30 -1q-79 0 -220.5 4.5t-227.5 4.5h-27q-70 0 -70 20z" />
<glyph unicode="X" horiz-adv-x="3129" d="M104 850q41 53 257 64h59q39 7 130 13.5t124 16.5q2 0 6.5 1t7.5 1h14q230 0 279 21q6 2 18 1q39 2 116.5 5.5t115.5 5.5q3 0 10.5 -1t11.5 -1q65 0 190.5 5t188.5 5q40 0 126.5 -4t125.5 -4q8 0 26 2t27 2q81 -6 230.5 -20t185.5 -17q45 -4 108 -16t103 -16 q18 -1 57.5 -7.5t59.5 -7.5q2 0 7.5 1t8.5 1q69 0 161 -23t165 -55q4 -4 4 -6q0 -13 -60 -59l-8 -6q-21 -30 -62 -65t-69 -59t-28 -34q0 -13 8 -21q82 -95 145 -221q6 -12 6 -16q0 -14 -20 -14q-43 0 -94 9t-114.5 25t-92.5 21q-132 0 -398 44t-366 44q-90 0 -270.5 1 t-270.5 1q-241 0 -542 -35q-1 0 -3.5 -1t-3.5 -1q-2 0 -6 1t-6 1q-99 0 -229 -20.5t-232.5 -41t-132.5 -20.5q-10 0 -10 10q0 29 96 152q5 6 31 37.5t40.5 53t14.5 32.5q0 23 -203 183zM164 831q0 -15 53 -55.5t105.5 -80t52.5 -54.5q0 -34 -133 -194l-30 -35l1 2 q-4 -8 -4 -15q0 -6 4 -11t10 -5q37 0 116 18.5t122 18.5q62 0 161 14t123 15q22 2 71 8t78.5 9t71.5 6t76 3q3 0 9.5 -1t9.5 -1q6 0 20 5t21 5q114 9 231 9h92.5h100.5t92 -0.5t101 -1.5t91.5 -3t99.5 -5t91 -7q38 -6 74 -6h16q38 0 90 -6t85.5 -11.5t97.5 -17t81 -14.5 q2 0 7.5 -1t7.5 -1q3 0 10 1t10 1q8 0 17 -1t19.5 -2.5t16.5 -2.5q33 -6 115 -25.5t144 -30t114 -10.5q19 0 19 12q0 10 -9 23q-24 38 -75.5 104.5t-73.5 100.5q-6 6 -6 10q0 18 166 142l-2 -1q6 6 23.5 20.5t25.5 24.5t8 19q0 8 -11.5 15.5t-30.5 13t-41 10.5t-46.5 8.5 t-43 6t-34 4t-16.5 1.5q-72 12 -147 22t-181.5 22.5t-146.5 17.5q-25 3 -76 6t-76 6q-66 0 -208 13.5t-214 13.5q-14 0 -39 -1t-37 -1q-20 0 -57 3t-57 3q-50 -2 -156 -3.5t-191 -5t-163 -12.5q-112 -14 -461 -37q-74 -6 -148 -22q-25 -5 -84 -13t-90 -16q-9 -2 -30.5 -5 t-30.5 -5q0 -3 -1 -8.5t-1 -8.5z" />
<glyph unicode="Y" horiz-adv-x="5410" d="M102 432q0 13 13.5 36.5t29.5 33.5q-3 -1 4 5q5 5 23 20q45 39 47 44q15 21 58.5 58t74.5 68.5t31 52.5q1 0 -14.5 23.5t-39.5 56.5t-42 51q-129 136 -129 139q0 37 41 41q23 0 71 6t72 6q123 -12 240 -12q15 0 46 3t48 3q24 0 73 -3t74 -3q21 0 64 1t65 1q9 0 30.5 -1 t31.5 -1q8 0 24.5 1t24.5 1q11 0 35 -1t35 -1q7 0 21.5 2t21.5 2q8 0 24 -3t23 -3q47 0 158.5 6t164.5 6h15q31 -5 65 -7.5t75.5 -3.5t66.5 -2h32.5h44.5q51 1 68 1q19 0 55 1t55 1h25q18 0 51 1t51 1h33q31 0 95.5 1t97.5 1q18 0 55 -1t57 -1q30 0 92.5 2t94.5 2 q40 0 117 -2t116 -2q22 0 64.5 1t62.5 1q31 0 96 -1t97 -1h32q18 0 51.5 -1t49.5 -1h26q19 0 56 -1t55 -1q59 0 184 6t181 6q55 0 162.5 -6t160.5 -6q8 0 24.5 3t24.5 3q7 0 22.5 -2t22.5 -2q12 0 34 1t34 1q8 0 24.5 -1t24.5 -1q10 0 30.5 1t30.5 1q22 0 65 -1t65 -1 t46.5 1t54.5 2.5t46 2.5q17 0 48 -3t46 -3q134 0 240 12q182 0 182 -53q0 -7 -12 -19q-30 -21 -58 -51.5t-59.5 -71t-48.5 -59.5q-5 -3 -26 -33t-21 -36q0 -16 31.5 -48.5t75.5 -72t59 -58.5l18 -17l1 -2q44 -45 54 -50q16 -10 29.5 -33.5t13.5 -36.5q0 -14 -14 -23.5 t-35 -9.5h-18q-24 0 -69.5 -2t-67.5 -2q-56 0 -166 -5t-166 -5q-17 0 -50 3t-48 3q-22 0 -68 -3t-68 -3q-9 0 -27.5 1t-27.5 1q-57 0 -173 -3t-173 -3q-77 0 -304 7t-374 7h-80q-12 0 -39 2t-41 2q-13 0 -38 -5t-39 -5q-6 0 -19.5 2t-19.5 2q-8 0 -23 -1t-22 -1 q-50 0 -149 5t-150 5q-35 0 -108 -5t-112 -5h-135h-74q-31 0 -92 1t-90 1q-6 0 -19.5 -2t-19.5 -2q-15 0 -40.5 5t-37.5 5q-14 0 -40.5 -2t-38.5 -2h-80q-110 0 -337 -7t-341 -7q-56 0 -172 3t-174 3q-9 0 -29 -1t-29 -1q-21 0 -65.5 3t-67.5 3q-15 0 -48 -3t-50 -3 q-78 0 -234 7t-235 7h-18q-21 0 -35.5 9.5t-14.5 23.5z" />
<glyph unicode="Z" horiz-adv-x="5410" d="M102 473q0 3 13.5 20t40.5 38t55 28q16 6 94 57t78 64q1 4 -36 37t-60 49q-24 16 -76.5 52.5t-52.5 37.5q0 35 184 35q10 -1 30 -2t29 -2h50q23 0 66.5 -2t64.5 -2q15 0 46 2t48 2q24 0 70 -2t69 -2t69 1t68 1q9 0 30.5 -1t31.5 -1q8 0 24.5 1t24.5 1q11 0 33 -1t34 -1 q8 0 25.5 1t24.5 1t20 -1t19 -1q48 0 160.5 3t166.5 3q59 0 182.5 -4t184.5 -4q33 0 96.5 1t97.5 1h43q38 0 113.5 1t112.5 1h96q32 0 96 1t96 1q44 0 129.5 -1t128.5 -1h111q38 0 113.5 -1t113.5 -1h43q31 0 96.5 -1t98.5 -1q60 0 182 4t183 4q53 0 162.5 -3t164.5 -3 q6 0 19.5 1t19.5 1q8 0 24.5 -1t24.5 -1q12 0 35 1t35 1q8 0 24.5 -1t24.5 -1q10 0 30.5 1t30.5 1q22 0 69 -1t69 -1q24 0 70 2t69 2q17 0 48 -2t46 -2q21 0 64 2t65 2h51q9 1 29.5 2t30.5 2q182 0 182 -35q0 -5 -14 -12q-20 -9 -38.5 -21t-41.5 -31t-33 -26 q-2 -1 -21.5 -14.5t-34 -24.5t-28.5 -25t-14 -22q0 -13 56.5 -46.5t126.5 -75.5t93 -71q6 -9 6 -14q0 -20 -67 -20h-27q-76 0 -225.5 -4.5t-224.5 -4.5q-10 0 -30 1t-30 1h-30h-21q-21 0 -60.5 -2t-58.5 -2q-8 0 -25.5 1t-25.5 1q-10 0 -31.5 -1t-31.5 -1h-170q-22 0 -68 -1 t-68 -1q-104 0 -316.5 5.5t-319.5 5.5h-109q-13 0 -36 1t-34 1q-13 0 -38 -3.5t-37 -3.5q-5 0 -16 1.5t-15 1.5q-9 0 -27.5 -1.5t-27.5 -1.5q-220 9 -297 9q-36 0 -106 -3t-107 -3h-156q-100 0 -199 -3q-9 0 -27.5 1.5t-27.5 1.5q-5 0 -15.5 -1.5t-15.5 -1.5q-13 0 -38 3.5 t-38 3.5q-11 0 -34 -1t-35 -1h-53q-132 0 -360.5 -5.5t-332.5 -5.5q-22 0 -67 1t-68 1h-170q-12 0 -32.5 1t-30.5 1q-9 0 -26 -1t-25 -1q-21 0 -60.5 2t-58.5 2h-21h-30q-10 0 -30.5 -1t-29.5 -1q-78 0 -228.5 4.5t-221.5 4.5h-27q-68 0 -68 20zM190 489q0 -4 11 -4 q56 -6 241 -6h43q16 0 45 -1t43 -1q11 0 41 -1t51.5 -0.5t39.5 3.5q20 0 61 -2t63 -2t69.5 2t72.5 2q5 0 15 -1t15 -1q21 0 63 2t62 2q27 0 80 -2t78 -2q14 0 40 1t38 1h108q58 0 250.5 2t272.5 2q55 0 127.5 -1t109.5 -1q89 0 267 3t266 3q77 0 230.5 -3t230.5 -3 q28 0 86 1t106 1q81 0 273.5 -2t250.5 -2h107q13 0 40 -1t40 -1q25 0 77 2t78 2q22 0 64 -2t63 -2q5 0 15.5 1t15.5 1q24 0 70.5 -2t68.5 -2q17 0 49 2t48 2q12 0 33 -1t32 -1q29 0 89.5 1t94.5 1h43q14 0 53.5 -0.5t66 -0.5t58.5 1t50.5 3t21.5 5v2l-69 52q-5 3 -31.5 18.5 t-52.5 31t-54 33.5t-45.5 33t-17.5 23q50 53 70 63q1 1 25 16.5t49 32.5t48.5 35t26.5 25q-8 4 -12 4q-9 0 -27.5 -2t-27.5 -2q-10 2 -33 2h-27q-10 0 -31.5 1t-33.5 1q-21 0 -70 -4t-72 -4q-13 0 -42 2t-42 2q-67 -3 -191 -3.5t-177 -2.5q-4 0 -13.5 1t-13.5 1 q-7 0 -22.5 -2t-22.5 -2q-74 4 -111 4h-24q-56 0 -167 3t-167 3q-16 0 -48 -2t-48 -2h-43q-22 0 -69.5 -2t-72.5 -2q-176 4 -278 4h-125q-24 0 -72 1t-71 1q-15 0 -46 -1t-47 -1q-11 0 -34.5 1t-36.5 1q-47 0 -142.5 -2t-142.5 -2q-29 0 -85 2t-83 2q-24 0 -72 -1t-71 -1 h-125q-216 0 -279 -4q-23 0 -70 2t-71 2h-43q-15 0 -47 2t-47 2q-57 0 -168.5 -3t-165.5 -3h-27q-34 0 -108 -4q-7 0 -23.5 2t-23.5 2q-4 0 -12.5 -1t-12.5 -1q-41 1 -116.5 1t-136.5 1t-115 4q-16 0 -43.5 -2t-40.5 -2q-24 0 -72 4t-72 4q-10 0 -31.5 -1t-33.5 -1h-25 q-23 0 -33 -2q-9 0 -27.5 2t-27.5 2q-6 0 -14 -4q4 -8 30 -26.5t65 -44.5t56 -38q-1 0 16.5 -14t35.5 -29.5t18 -19.5q0 -15 -98 -80t-168 -106q-7 0 -7 -5z" />
<glyph unicode="[" />
<glyph unicode="\" />
<glyph unicode="]" />
<glyph unicode="^" />
<glyph unicode="_" />
<glyph unicode="`" horiz-adv-x="3358" d="M102 985q13 21 160 21q43 0 129 -2.5t129 -2.5q81 0 243 5.5t243 5.5q60 0 181 -2t181 -2q13 0 37 -4q36 0 108 3t109 3q47 0 141.5 -1t141.5 -1q4 0 15.5 -2t16.5 -2q11 0 39 2t43 2h45q41 0 125.5 3t126.5 3q77 0 233.5 -5t233.5 -5q55 0 163 1t163 1q107 0 135 -14 q7 -4 12 -9q-31 -31 -81 -91.5t-90.5 -104.5t-69.5 -60q-2 -2 -8 -7t-8.5 -8t-5.5 -8t-3 -10q0 -12 25.5 -45t43.5 -52t27 -28q25 -27 78 -92t84 -96q4 -8 6 -14q-7 -6 -15.5 -10.5t-19.5 -7t-19 -4.5t-22.5 -2.5t-20 -0.5h-22.5h-20h-53h-27q-23 0 -68.5 4t-66.5 4 q-4 0 -12.5 -1t-12.5 -1q-37 0 -111.5 2t-111.5 2q-14 0 -41 -1t-41 -1q-7 0 -20.5 1t-20.5 1q-19 0 -55 -2t-57 -2q-40 4 -60 4q-31 0 -95 -3t-95 -3q-49 0 -147.5 2t-147.5 2q-45 -4 -135 -4h-127h-49q-21 0 -64 2t-65 2q-41 0 -120.5 -2t-119.5 -2q-31 0 -96.5 3t-98.5 3 q-21 0 -57 -4q-14 0 -46 2t-48 2q-12 0 -33 -1t-33 -1q-37 0 -111.5 1t-111.5 1q-11 0 -35 -2t-35 -2q-4 0 -12 1t-12 1q-38 0 -113.5 -4t-113.5 -4h-19h-21.5t-19.5 0.5t-21.5 2.5t-18.5 4.5t-18.5 7t-13.5 10.5q4 16 46 59.5t55 62.5q14 21 57 65.5t75 82.5t32 55 q0 10 -14.5 24.5t-36 32t-31.5 29.5q-29 34 -88 97.5t-88 97.5q-6 6 -9 12zM164 961q0 -14 22.5 -40.5t48.5 -49.5t53 -45.5t29 -24.5q10 -15 45 -47.5t46 -59.5q-30 -46 -93.5 -122.5t-85.5 -106.5q-6 -9 -22 -24.5t-26.5 -28.5t-10.5 -23q0 -8 2 -12q3 0 9 -1t9 -1 q66 0 197 5t191 5q22 0 67.5 -4t69.5 -4q61 0 155 8q9 0 28.5 -3t29.5 -3q7 0 22.5 3t22.5 3q17 0 61 1t73 1t62.5 -2t51.5 -8q1 0 4 -1t4 -1q23 0 70.5 4t72.5 4q46 -4 68 -4q50 6 104 6q28 0 88 -2t88 -2q16 0 48 2t47 2t53 -3t59 -3q11 0 37 2t37 2q23 0 66.5 -3t64.5 -3 q44 0 131.5 4t132.5 4q5 0 16.5 -3t16.5 -3q8 0 23 3t22 3q30 0 89 -4t87 -4q21 0 61.5 4t59.5 4q4 0 13.5 -1t13.5 -1h26q39 0 116.5 -4t117.5 -4q9 0 28.5 -1t35 -1.5t32 0t26 4.5t9.5 12q0 9 -10.5 22t-26.5 29t-23 25q-14 19 -84 100.5t-94 130.5q14 26 47 58.5t45 50.5 q116 98 140 132q10 15 10 24q0 5 -17 9t-50 6t-67 3.5t-82.5 1.5h-81.5h-79.5h-60.5q-10 0 -32 -4t-34 -4q-82 4 -121 4q-52 0 -313 -2.5t-313 0.5q-40 1 -130 6.5t-135 5.5q-87 0 -274 -6t-281 -6q-44 0 -132 1t-132 1q-64 0 -196 -4q-13 0 -39 4t-41 4q-50 0 -174.5 -2.5 t-188.5 -1.5q-55 0 -55 -16z" />
<glyph unicode="a" horiz-adv-x="4169" d="M102 358q0 4 12.5 14.5t30.5 23.5t23 18q28 21 103 87.5t75 82.5q-4 7 -113 98q-7 6 -48 37t-60.5 50t-22.5 32q0 8 62 8h22h43q16 0 42 -1t38 -1q5 0 14 1t13 1q3 0 9 -1t9 -1q16 0 48 1t47 1q19 0 33 -1.5t24 -2.5t16.5 -6t10 -6.5t5 -10.5l2 -12t0 -16t-0.5 -17 q0 -9 -1 -26t-1 -21q0 -3 2 -18t2 -23q0 -3 -1 -10t-1 -10q0 -14 2 -42t2 -40q0 -14 12 -22.5t38.5 -11.5t45 -4t56 0t46.5 1q7 0 25 1t22 1h21h45h41h6q14 0 14 -16q0 -1 -0.5 -18.5t-1 -42t-0.5 -42.5v-13t0.5 -9t0.5 -5.5t0.5 -3t0.5 -1.5v-1q0 -9 -4 -10q-11 -4 -88 -4 q-50 0 -139 1t-90 1q-16 0 -44 -1t-42 -1h-43h-57h-21q-24 0 -70.5 -1t-68.5 -1q-14 0 -46.5 1t-49.5 1q-5 0 -15 -1t-14 -1q-21 0 -21 14zM586 813v82v47q0 14 10 31q0 2 102 2h73.5t78.5 -0.5t69 -1t51.5 -0.5h20.5q208 6 420 6h66h71q24 0 70 -2t70 -2q54 0 155 2t146 2 h96h96q43 0 145 -2t156 -2q22 0 68.5 2t70.5 2h72h64q213 0 421 -6h20.5t51.5 0.5t69 1t78.5 0.5h73.5q103 0 103 -2q10 -17 10 -31v-47v-82q0 -129 -6 -190q0 -9 1 -24.5t1 -25.5q0 -9 -6.5 -16.5t-14.5 -7.5h-10q-23 0 -64.5 -1t-60.5 -1q-6 0 -17.5 1t-17.5 1 q-45 0 -65 -2q-10 -2 -33 -2q-11 0 -33 2t-34 2t-37 -1t-37 -1q-14 0 -44 1t-44 1h-19q-19 0 -54 1t-54 1q-30 0 -70 -1t-72 -1q-41 0 -176 1t-172 1h-28q-5 0 -153 -1t-179 -1t-179 1t-153 1h-31q-36 0 -171 -1t-177 -1q-27 0 -71 1t-68 1q-19 0 -55 -1t-54 -1h-18 q-12 0 -38 -1t-38 -1q-14 0 -43 1t-43 1q-11 0 -33.5 -2t-35.5 -2q-16 0 -47.5 2t-49.5 2q-6 0 -17.5 -1t-17.5 -1q-13 0 -36 1t-35 1h-1h-1h-2h-1h-1h-1h-2h-1h-2h-1h-1h-2h-1h-2h-1h-2h-1h-2h-1h-2h-2h-1h-2h-2h-1h-2h-2h-2h-1h-2h-2h-2h-2h-1h-2h-10q-8 0 -15 7.5 t-7 16.5q0 10 2 25.5t2 24.5q-6 59 -6 190zM3254 357v1.5v1.5v33v94v9q0 16 13 16h8h41h45h20q5 0 22 -1t25 -1q82 0 118.5 1.5t58.5 14t23.5 24.5t0.5 50v29v20q0 8 1 23t1 18q0 4 -1 21t-1 26q0 52 16 62t74 10q17 0 48 -1t48 -1q3 0 8.5 1t8.5 1q5 0 13.5 -1t12.5 -1 q13 0 39.5 1t42.5 1h19h47q61 0 61 -8q-3 -9 -9.5 -16t-17 -15t-14.5 -12q-14 -13 -68 -55.5t-94 -76t-40 -42.5q0 -14 20 -27q32 -25 98.5 -88.5t114.5 -97.5q10 -10 10 -13q0 -14 -20 -14q-5 0 -15.5 1t-15.5 1q-21 0 -51 -1t-43 -1q-16 0 -49 1t-51 1h-60h-57h-43 q-14 0 -43 1t-43 1q-1 0 -90.5 -1t-139.5 -1q-36 0 -54 0.5t-27 2t-10 3t-1 5.5z" />
<glyph unicode="b" horiz-adv-x="3041" d="M102 684q8 14 35.5 26.5t61 23.5t39.5 14q13 6 51 16t60 20t22 23q-4 34 -4 168q0 129 32 129q12 0 25 -9t26.5 -22.5t16.5 -15.5q198 -136 447.5 -226t431.5 -96q99 -12 221 -12q189 0 473 70q65 16 122.5 36.5t83.5 32t91 45.5t88 45q54 20 113.5 59.5t95.5 78.5 q22 6 30 6q7 0 13 -8.5t6 -22.5q-2 -10 -2 -29q0 -65 2 -105.5t12 -83.5t29 -52q26 -6 80.5 -27t85.5 -27q3 -1 11 -3.5t13.5 -4.5t11.5 -4.5t9.5 -5.5t3.5 -6q0 -13 -45.5 -43.5t-85.5 -52.5q-189 -112 -346.5 -185t-325.5 -114q-23 -6 -100 -26t-116 -28.5t-100 -18 t-108 -9.5h-92h-47q-31 0 -96 1t-97 1h-24q-36 0 -74 3t-82.5 10t-73.5 12.5t-82 15.5t-73 14q-150 27 -317 89t-306 140q-80 37 -158 86t-88 72zM143 682q0 -20 100 -76l25 -12q63 -42 138.5 -79.5t135 -61.5t137 -48.5t116 -34.5t102.5 -25.5t68 -16.5q127 -29 186 -31 q36 -18 115.5 -21.5t87.5 -5.5q32 -4 51 -4q15 0 42 2t40 2q5 0 13.5 -2t12.5 -2t13.5 1t13.5 1q6 -4 21 -4q283 0 522 66q30 10 110.5 36.5t137.5 46.5t114 42q30 16 100 46t105 50q3 2 79 41t114.5 66.5t38.5 48.5q0 14 -105 41q-25 8 -37 12t-31.5 13t-28.5 20t-9 24 q0 5 1 17t1 20q0 138 -21 205q-2 0 -5 1t-5 1q-18 0 -69 -41t-64 -47q-21 -10 -107.5 -54t-123 -61t-105 -43.5t-129.5 -42.5q-250 -74 -481 -74q-302 0 -560 75t-544 267q-11 7 -24 16.5t-20.5 15t-8.5 5.5q-15 0 -15 -129q0 -14 -1 -43t-1 -45q0 -9 3 -27t3 -26 q0 -15 -35.5 -35.5t-76 -35.5t-81.5 -28l-42 -14q-2 -1 -7 -2.5t-7.5 -3.5t-2.5 -6z" />
<glyph unicode="c" horiz-adv-x="3127" d="M102 850q20 23 109.5 41t150.5 18q30 0 148 18.5t176 18.5h14q34 0 72.5 2t86.5 5.5t73 4.5q12 0 33.5 5.5t31.5 5.5q39 2 116.5 5t115.5 5q4 0 11 -1t11 -1q65 0 190.5 5t188.5 5q41 0 125.5 -4t126.5 -4q29 0 43 4q53 -2 172 -14q15 -1 90 -3.5t133.5 -9t85.5 -20.5 q12 -12 156 -21q17 -1 57 -8.5t60 -7.5q3 0 8.5 1t7.5 1l21 -3q307 -45 309 -81q0 -10 -33.5 -41t-76 -67.5t-54.5 -51.5q-11 -6 -37 -27t-26 -36q0 -13 8 -21q44 -51 97.5 -132.5t53.5 -104.5q0 -14 -20 -14h-6q-87 14 -295 55q-32 0 -65.5 3.5t-83 12t-64.5 10.5 q-272 42 -488 58q-88 8 -189 9h-60q-77 0 -165.5 -1.5t-147.5 -1.5h-42q-105 0 -434 -23q-18 -1 -57.5 -7.5t-57.5 -6.5q-2 0 -6 1t-6 1q-30 0 -68.5 -3t-66 -6t-73 -9t-64.5 -8q-55 -6 -167.5 -31t-154.5 -25q-10 0 -10 10q0 3 24.5 44.5t36.5 58.5q2 3 33.5 40t59.5 76 t28 56q0 10 -47 49.5t-111 90.5t-88 75z" />
<glyph unicode="d" horiz-adv-x="3368" d="M102 369q0 14 27 41q28 24 72.5 82.5t79.5 91.5q3 4 17 25t28 38t26 25q17 17 17 22q0 2 -9.5 11t-15.5 14q-4 2 -62.5 57.5t-119 122t-60.5 86.5q0 31 156 31q30 0 85.5 -2t76.5 -2q166 0 338 5t280 5q61 0 106.5 -1t69 -2t31.5 -1l35 2q23 2 47 2h24q36 -2 70 -10 q26 0 81 3t85 3q43 0 125 4q61 3 107 4h29q54 -2 96 -14q38 10 344 10q123 0 245.5 -5t204.5 -5q55 0 172 2t201 2q6 0 18.5 -1t18.5 -1q119 0 119 -31q0 -9 -10.5 -19t-12.5 -14q-12 -13 -69.5 -74t-90.5 -102q-18 -22 -40 -40.5t-34 -27.5t-12 -12q0 -2 8 -8.5t25.5 -26.5 t36.5 -49q16 -26 52.5 -65.5t47.5 -55.5q12 -18 38 -45t43.5 -46.5t17.5 -28.5q0 -20 -45 -28.5t-91 -8.5q-15 0 -40.5 2t-36.5 2q-9 0 -29 -1t-33 -1q-19 0 -49 4t-45 4q-8 0 -17 -1t-12 -1q-8 0 -25 3t-30 3q-49 0 -129.5 -2t-116.5 -2h-2q-9 0 -26 1t-27 1q-8 0 -37 -2 t-47 -2q-2 0 -15 2t-22 3t-14 -1q-28 -4 -61 -6q-20 -1 -47 -1h-40q-54 1 -61 1q-37 0 -106 2t-107 2q-25 0 -86 -2t-103 -2h-2h-45h-4h-63h-4h-45h-2q-12 0 -56 2t-76 2q-39 0 -125 -2t-131 -2q-4 0 -63 -1h-44q-30 1 -52 1q-37 2 -64 6q-12 0 -27.5 -2t-23.5 -2 q-18 0 -46 2t-40 2q-11 0 -29 -1t-24 -1h-2q-54 0 -112 1t-94.5 2t-39.5 1q-8 0 -24 -3t-29 -3q-9 0 -13 2q-23 0 -56 -4t-56 -4q-25 0 -35 2q-12 0 -48 -2t-54 -2q-4 0 -12.5 1t-12.5 1q-1 1 -11.5 0t-27.5 1t-33 5t-27.5 10.5t-11.5 18.5zM186 960q2 -26 137 -137l5 -4 q2 -2 20.5 -18.5t34 -31t29.5 -32.5t14 -28q2 -4 2 -13q0 -10 -6 -16q-22 -45 -89.5 -122.5t-86.5 -104.5l-2 -4q-3 -4 -18 -17.5t-25.5 -25.5t-10.5 -19h5h2q49 0 61 -2q49 0 132.5 6t121.5 6q7 0 36.5 -1t43.5 -1h6q1 0 3.5 1t4.5 1q16 0 46 -5t46 -5q17 0 53.5 3t55.5 3 q2 0 5 -1t5 -1q17 0 43 3t35 3q6 0 21.5 -4t21.5 -4q8 0 21.5 4t17.5 4q29 0 99.5 -2t107.5 -2l35 -2l2 2q3 1 9 -2.5t9 -3.5q4 0 13.5 3t13.5 3h2q55 0 88 2q1 0 26.5 -3t49.5 -3q7 0 23 2t22 2q4 0 10.5 -1t9.5 -1q9 0 23 2t22 2q13 0 39.5 -1t34.5 -1q2 0 15 -2.5t29 -4 t50.5 0t77.5 8.5q22 0 47 -2t31 -2q5 0 12.5 1t11.5 1q7 0 22.5 -2t22.5 -2q42 0 54 6q33 0 86.5 -4t54.5 -4q4 0 8.5 3t7.5 3q1 0 2 -1t2 -1l35 2q28 0 88 2t90 2q13 0 33 -4t33 -4q7 0 21.5 4t21.5 4q12 0 33 -3t32 -3q4 0 12 1t13 1q14 0 46 -3t46 -3q18 0 54 5t55 5 q1 0 3.5 -1t4.5 -1h4q67 0 78 2q2 0 6 -1t6 -1h2q87 -10 213 -10q19 0 50.5 1t47.5 1q0 3 -11 15t-24.5 26.5t-17.5 20.5l-2 4q-12 16 -62 70.5t-86 101.5t-36 71q3 27 41 60q20 18 42.5 40t55.5 55.5t47 47.5q1 1 6.5 7t12.5 13.5t14.5 15t13 12.5t6.5 5l5 9q-7 0 -24 3 t-21 3q-121 0 -363 4h-14q-9 0 -27.5 -4t-28.5 -4q-9 0 -68 1t-95 1h-600q-43 0 -132 6t-127 6q-52 0 -137.5 -6t-120.5 -6h-600h-24q-21 -1 -51 -1q-50 -2 -58 -1q-20 0 -48 4t-38 4h-14q-184 -4 -283 -4q-10 0 -30 0.5t-30.5 0.5t-28 -1.5t-34.5 -5.5v-1z" />
<glyph unicode="e" horiz-adv-x="4169" d="M102 272q0 3 22.5 30t54 64t44.5 54q12 15 47 56.5t55.5 69.5t20.5 38q-1 4 -113 135q-7 8 -29.5 31.5t-35.5 38t-29.5 34.5t-25.5 35.5t-11 26.5q0 12 31 12q35 0 53 -2q7 0 21.5 1t21.5 1q12 0 38 -3t40 -3q27 0 75 3t73 3q84 0 84 -39q0 -21 -1 -65t-1 -62 q0 -3 2 -22.5t2 -32.5q-2 -16 -2 -49v-9q0 -37 1 -53t7 -37t18.5 -29t36 -14t60.5 -6q56 0 117 3t71 3q4 0 11.5 -1t12.5 -1q15 0 21 2q11 0 15.5 -4.5t4.5 -17.5v-9q0 -10 -0.5 -25.5t-1 -33.5t-0.5 -38.5v-37.5q0 -19 0.5 -29.5t1 -13.5t0.5 -4q0 -11 -7 -13.5t-40 -2.5 q-45 0 -157 1t-117 1q-62 -4 -90 -4q-7 0 -22.5 1t-22.5 1q-38 0 -134 -3t-145 -3q-5 0 -16.5 2t-16.5 2q-4 0 -12 -1t-12 -1q-21 0 -21 20zM583.5 1041q-0.5 21 2.5 45t10 36q0 2 102 2h73.5t78.5 -0.5t69 -1t51.5 -0.5h20.5q186 11 414 11q13 0 39 -1.5t39 -1.5t40 1.5 t40 1.5q22 0 63.5 -3.5t61.5 -3.5q79 0 186 7q7 0 21.5 -1.5t21.5 -1.5q8 0 25.5 1.5t25.5 1.5q20 0 59 -1.5t58 -1.5q18 0 56.5 1.5t58.5 1.5q9 0 26 -1.5t25 -1.5q7 0 22.5 1.5t22.5 1.5q103 -7 184 -7q20 0 62.5 3.5t64.5 3.5q13 0 39 -1.5t39 -1.5t40 1.5t40 1.5 q37 0 112 -4.5t109 -4.5q160 0 192 -2h20.5t51.5 0.5t69 1t78.5 0.5h73.5q103 0 103 -2q10 -30 10 -41q0 -81 -3 -231.5t-3 -224.5q0 -8 1 -23t1 -24q0 -28 -21.5 -38t-60.5 -10q-23 0 -65.5 2.5t-63.5 2.5q-24 0 -45 -3q-10 -2 -27 -2q-13 0 -36.5 3.5t-34.5 3.5 q-15 1 -41 -2t-37 -3q-36 0 -110 3.5t-109 3.5q-18 0 -58.5 -2t-62.5 -2q-45 0 -214 2t-177 2q-18 -2 -332 -2t-332 2q-13 0 -182 -2t-213 -2q-18 0 -58 2t-59 2q-36 0 -105.5 -3.5t-105.5 -3.5q-14 0 -42.5 2.5t-43.5 2.5q-13 0 -37.5 -3.5t-36.5 -3.5q-11 0 -34.5 2.5 t-36.5 2.5q-18 0 -58 -3.5t-73 -3.5q-80 0 -80 50q4 46 4 59q-6 75 -6 303q0 14 -1 47t-1.5 54zM3252 453q0 32 15 32q5 0 14.5 -1t13.5 -1t12.5 1t12.5 1q56 0 83.5 -3t106.5 -3q110 0 117 43q0 27 2 113t2 104q0 2 -1 11t-1 16q0 9 -1 31.5t-1 32.5t4.5 25.5t14 22.5 t28 13t45.5 6q21 0 69.5 -3t71.5 -3q14 0 40 3t40 3q7 0 21.5 -1t21.5 -1q10 2 33 2q49 0 49 -10q0 -15 -5.5 -24.5t-17.5 -19.5t-16 -16q-18 -25 -71 -81.5t-92 -102t-39 -59.5q0 -6 6.5 -18.5t13.5 -18.5q30 -31 98.5 -126.5t112.5 -129.5q12 -12 12 -19q0 -20 -20 -20 q-4 0 -13.5 1t-13.5 1q-6 0 -17 -2t-16 -2q-47 0 -141 3t-137 3q-7 0 -22.5 -1t-22.5 -1q-32 0 -90 4q-5 0 -116.5 -1t-156.5 -1q-34 0 -40.5 2.5t-6.5 13.5q0 146 -2 181z" />
<glyph unicode="f" horiz-adv-x="3360" d="M102 903q0 3 3.5 5.5t10.5 4.5t14.5 3.5t18.5 2t20.5 1t22.5 0.5h21h20h17q30 0 89 -1t89 -1q100 0 301 4t303 4q70 0 199 -3t192 -3q31 4 90 4q81 0 240.5 -1t235.5 -1q137 4 399 4q80 0 239.5 -4t239.5 -4q39 0 116.5 2t115.5 2q3 0 31 0.5t44 0t38.5 -2t34 -6 t11.5 -11.5q0 -13 -37.5 -44t-84.5 -65t-54 -40t-30 -20t-39.5 -26t-16.5 -20q0 -5 45 -45.5t51 -42.5q21 -16 66.5 -59.5t73.5 -63.5q2 -2 9 -7.5t12 -10t5 -8.5q0 -23 -133 -23q-12 0 -33.5 2t-31.5 2q-8 0 -25.5 -2t-25.5 -2q-36 0 -118.5 5t-137.5 5q-29 0 -91.5 -2 t-93.5 -2q-10 0 -29.5 1t-29.5 1q-11 0 -34 -1t-34 -1q-20 0 -63.5 1t-65.5 1q-38 0 -113.5 -1t-113.5 -1q-121 0 -180 2v-2q-52 0 -157.5 -1t-158.5 -1q-30 0 -85 2t-81 2q-37 0 -109.5 -2t-109.5 -2q-35 0 -104.5 2t-104.5 2q-10 0 -30.5 -2t-30.5 -2q-15 0 -43.5 2 t-42.5 2t-39.5 -1t-36.5 -1q-66 2 -199 2q-14 0 -43 -1t-41 -1q-4 0 -10.5 1t-9.5 1q-40 0 -121.5 -4t-120.5 -4q-123 0 -123 23q0 8 36 39.5t79 66.5t49 41q12 12 39.5 34.5t43.5 37.5t16 20q0 4 -30 27.5t-80 59.5t-56 40q-28 19 -63.5 48t-35.5 38zM172 885q0 -12 30 -34 t69.5 -47t50.5 -34q7 -6 32 -23t41.5 -32t16.5 -25q0 -17 -36.5 -52t-85.5 -73.5t-57 -46.5q-7 -7 -22 -19t-25 -21t-10 -13t2 -6q40 0 119 -1t119 -1q16 0 50 3t50 3q34 0 102.5 -3t102.5 -3q26 0 87 3q48 3 79 3h16q8 -2 25 -2q7 0 22 2t21 2q45 0 136.5 -3t135.5 -3 q18 0 60 2t63 2q10 0 32 -2t34 -2q67 0 202.5 2t200.5 2q21 0 62 -1t61 -1q12 0 34 1t33 1q17 0 52.5 -3t54.5 -3q4 0 13 2t14 2h22q140 4 213 4q8 0 23 -2t24 -2q12 2 37 2q31 0 85 -3t81 -3q20 0 62 3t63 3h61h17q55 0 163 -3t162 -3q2 0 7 1t8 1q-4 15 -14.5 25.5t-26 21 t-23.5 18.5q-14 13 -78 73t-96 93q9 20 45.5 48.5t57.5 39.5q9 7 36 23.5t42.5 27.5t33.5 28.5t27 33.5q-17 8 -53 9q-14 1 -30 1q-27 0 -62 -1q-57 -3 -74 -3q-34 0 -101.5 1t-101.5 1q-13 0 -38 -3t-40 -3q-86 4 -229 4q-92 0 -207 -1q-106 -2 -192 -2q-154 0 -244 5 q-31 0 -92 2t-91 2q-117 -6 -255 -8.5t-226.5 -2.5t-257.5 0.5t-235 0.5q-13 0 -33 3t-29 3q-10 0 -66.5 1t-111.5 2h-57h-59q-59 -1 -96.5 -5t-37.5 -12z" />
<glyph unicode="g" horiz-adv-x="2428" d="M102 422q7 7 34 34.5t39 39t34 31t43 34.5q4 4 15 12.5t16.5 15.5t5.5 15q0 7 -8 23q-9 15 -50.5 77.5t-62.5 101.5t-21 62q0 13 15 13q8 0 28 -4q289 -73 463 -93q304 -39 533 -39q156 0 268 5q7 0 21.5 -1t21.5 -1q104 0 172 12q346 53 488 82q8 1 56.5 26t57.5 25 q13 0 13 -8q-3 -21 -52 -97q-12 -17 -44 -59t-51 -71t-19 -42q0 -5 5 -12t14 -16t16.5 -16t19 -16.5t14.5 -12.5q11 -9 53 -42.5t64.5 -55t22.5 -31.5q0 -1 -1.5 -3t-1.5 -3q-74 -30 -166 -49.5t-157.5 -27.5t-179.5 -18q-279 -43 -631 -43q-1 0 -88 6h-45h-19q-43 0 -94 4 q-61 4 -105 9.5t-117.5 15.5t-109.5 14q-7 1 -48 6t-66.5 8t-72 10t-83 14t-80.5 16.5t-84.5 22t-75.5 26.5z" />
<glyph unicode="h" horiz-adv-x="4583" d="M102 379q0 14 27 41q29 25 72 82.5t73 87.5q5 5 31.5 41t38.5 43l16 20q0 1 -3.5 6t-9.5 10.5t-11 8.5l-18 16q-215 196 -216 240q0 9 8.5 16.5t18.5 7.5q1 0 4 -1t4 -1q24 0 59.5 4.5t55.5 4.5q29 0 83.5 -2.5t74.5 -2.5t58 1.5t58 1.5q16 0 31 -3q63 0 205.5 5.5 t208.5 5.5q143 0 218 -3t79 -3q5 0 21 1t26 1q6 -3 30.5 -3.5t34.5 -3.5q20 5 482 5q270 0 343.5 2t75.5 2q13 0 34 -1t32 -1q2 2 6 2q3 0 10 -1t11 -1t11.5 1t10.5 1q2 0 6 -2q17 0 25 2q56 0 89 -2t136 -2q526 0 551 -5q9 3 34.5 3.5t31.5 3.5q5 0 13.5 -1t12.5 -1 q68 0 138.5 3t103.5 3q22 0 74 -2t84 -2q105 -7 276 -7q11 0 39 1.5t47 1.5q10 0 29.5 -1.5t29.5 -1.5h16q28 0 78 2q67 3 105 3q24 0 66 -4.5t63 -4.5q2 0 5 1t5 1q9 0 18 -7.5t9 -16.5q0 -8 -36 -51.5t-68 -73.5q-17 -16 -56 -56t-68.5 -70.5t-29.5 -29.5q1 -7 30 -35.5 t38 -44.5q16 -27 51 -64t45 -52q11 -17 35.5 -43t41.5 -46t17 -30q0 -17 -40.5 -25t-90.5 -8q-57 0 -129.5 5t-95.5 5q-3 0 -8.5 -1t-8.5 -1q-11 0 -29.5 2t-33.5 2q-6 0 -17 -1t-16 -1q-6 0 -18 1t-19 1q-28 0 -82.5 -2t-85.5 -2h-2q-9 0 -26 2t-25 2q-10 0 -38 -2t-44 -2 q-10 0 -25 1t-22 1h-18q-35 0 -91 -2q-70 -4 -96 -4q-14 0 -44 1t-44 1q-17 0 -211 0.5t-379 1t-180 0.5q-25 0 -37 -2q-167 0 -277 0.5t-159 1t-68 0.5q-167 0 -312 -0.5t-235.5 -1t-155.5 -1t-99.5 -1t-40.5 -0.5q-23 0 -50 1t-61.5 2.5t-52.5 2.5q-2 0 -19 1.5t-31 1 t-22 -4.5q-22 0 -60.5 2t-52.5 2q-9 0 -25 -2t-26 -2h-2q-27 0 -73.5 2t-69.5 2q-8 0 -22 -1t-17 -1q-40 0 -47 2q-10 0 -31 -2t-31 -2q-8 0 -15.5 1t-10.5 1q-15 0 -39 -4q-11 -6 -68 -6h-16h-58h-30q-25 0 -39 2q-107 0 -107 31zM184 952l16 -21q7 -8 17 -18 q28 -21 63.5 -65.5t98.5 -91.5q10 -10 21 -26t16 -21q2 -4 2 -13q0 -7 -6 -16q-27 -42 -87.5 -114t-82.5 -103l-2 -4q-4 -5 -18.5 -18t-25 -24.5t-10.5 -15.5q2 -4 4 -4q3 0 3 2v-2q5 0 67 1t107 1q4 0 12 -1t12 -1q39 0 96 11h2q7 0 23 -1t25 -1q6 0 19 1t19 1h7 q18 0 49 -4.5t47 -4.5q66 0 88 4q6 0 20.5 -1t20.5 -1q10 0 30.5 3.5t30.5 3.5q6 0 22.5 -3t16.5 -4q8 0 21.5 4.5t19.5 4.5h14q32 0 86 -3q68 -4 99 -4h35q3 1 9.5 -1.5t8.5 -2.5l75 8q24 1 46 1q3 0 8 -1t8 -1h-1l107 -1q114 -1 261 -2.5t219 -1.5q54 0 90 3.5t62 3.5 q13 0 40 -2.5t44 -2.5t49 2.5t49 2.5q37 0 99.5 -1t88.5 -1q42 0 60 2q7 0 22 -2.5t21 -2.5q32 0 41.5 -1t70.5 -1q541 0 576 5q3 0 12.5 1t13.5 1q22 0 63 -4.5t58 -4.5q2 0 10 2t9 2h35q29 0 97 4q54 3 86 3h15q16 0 37 -9q-1 -1 1.5 0t13.5 4t26 3h2q10 0 31 -3.5 t31 -3.5q3 0 7 1t5 1q21 0 54 -2t48 -2q17 0 54.5 4.5t56.5 4.5h6q6 0 19.5 -1t19.5 -1q9 0 24 1t23 1h2q57 -11 96 -11q6 0 8 2q47 0 107 -1t84 -1v2v-2q4 0 4 4q0 2 -10.5 13t-23.5 25t-17 20l-2 4q-11 16 -59 69.5t-82.5 98.5t-34.5 65q0 10 56 74.5t101 101.5l6 6 q6 5 14.5 13t18.5 17.5t18 18t13.5 15.5t5.5 10q0 6 -41 6q-62 0 -350 5h-14q-8 0 -27 -4.5t-29 -4.5q-14 0 -51 2t-61 2q-8 0 -23 -1t-20 -1h-582q-26 1 -314 4t-374 3q-26 0 -71 3t-68 3q-21 0 -59.5 -3t-57.5 -3q-36 0 -442 -3t-433 -4h-581q-5 0 -20 1t-23 1 q-18 0 -49 -2t-43 -2q-19 0 -42 4.5t-34 4.5h-15q-287 -5 -350 -5q-41 0 -41 -6z" />
<glyph unicode="i" horiz-adv-x="4577" d="M102 379q6 18 21 29q31 29 77.5 88t63.5 77q2 3 26.5 30t46 54t21.5 37q0 9 -15 24t-35 32.5t-27 25.5q-17 21 -88.5 91.5t-90.5 109.5q1 4 4.5 7t10 5t13.5 3.5t17.5 2.5t18.5 1.5t21 0.5h20h20.5h18.5q26 0 78 -2t79 -2q94 0 284 5.5t284 5.5q68 0 202.5 -5.5 t200.5 -5.5q180 0 539 3t538 3q125 0 375.5 -3t374.5 -3q8 0 23.5 2t23.5 2h39q46 0 139 3.5t140 3.5q103 0 312 -5.5t314 -5.5q22 0 63.5 2t61.5 2h21.5h27t25.5 -0.5t28 -2t22 -3.5t21 -5.5t13 -8.5q-7 -16 -24 -35.5t-46.5 -49l-36.5 -36.5q-13 -14 -37.5 -43.5 t-45.5 -50.5t-42 -35q-26 -13 -26 -31q0 -10 13.5 -27t33.5 -38t27 -31q6 -15 45.5 -60t48.5 -57q10 -14 44.5 -49t43.5 -53q-20 -27 -131 -27q-16 0 -50 1t-51 1h-16q-13 0 -41 3t-41 3h-22q-12 0 -34 1.5t-32 1.5q-39 0 -116 -1.5t-117 -1.5q-6 0 -17.5 1.5t-17.5 1.5 q-15 0 -45 -1.5t-45 -1.5h-111q-30 0 -88 -2t-88 -2q-138 0 -422 2t-428 2q-20 0 -61 -2t-62 -2q-31 0 -121 -1q-60 -1 -108 -1h-45q-63 0 -123 6q-158 0 -473 -1t-473 -1q-18 0 -131 5q-7 0 -23.5 -1.5t-24.5 -1.5q-17 0 -48 1.5t-46 1.5q-26 0 -47 -3q-20 0 -60.5 -0.5 t-66 -0.5t-60 1.5t-61.5 4.5q-11 0 -36.5 -2.5t-38.5 -2.5h-11q-34 0 -104 -4t-107 -4h-17h-19.5t-18.5 0.5t-20 2.5t-17.5 4.5t-19 7t-15.5 10.5z" />
<glyph unicode="j" horiz-adv-x="3368" d="M102 449q0 10 19.5 28t46.5 38t33 26q16 18 61 53t88 78q19 10 19 18q-5 6 -35.5 24.5t-48.5 33.5q-14 12 -64 48.5t-84.5 65.5t-34.5 41q0 6 9 12.5t18 6.5h2q15 0 44 2t44 2q36 0 106 -1t95 -1q134 0 323 4t295 4q50 0 110.5 -2t76.5 -2q2 0 6 1t6 1q15 0 37 -2t33 -2 q14 0 22 2q4 0 26.5 1t37 0t28.5 -5q18 0 71.5 3t94.5 3q27 0 41 -2q6 0 18.5 1t18.5 1q6 -2 18 -2q15 0 21 2q1 0 3 -1t3 -1q12 0 36 1t36 1q15 0 53 1.5t61.5 0t47.5 -7.5q9 0 26.5 2t26.5 2q11 0 31.5 -1t33.5 -1q9 0 29 2t33 2q2 0 8.5 -1t9.5 -1q23 0 70 2t78 2 q26 0 80 -2t81 -2q51 0 140 -2t147 -2q33 0 103 -1q47 -1 87 -1h40q56 1 127 4q23 0 70.5 -2t72.5 -2h2q9 0 18 -6.5t9 -12.5t-4 -10.5t-10.5 -8t-8.5 -5.5q-45 -42 -135.5 -115.5t-110.5 -73.5q1 -1 5.5 -4.5t7.5 -6.5t4 -5q3 0 35 -30.5t38 -33.5q30 -22 75.5 -66.5 t76.5 -62.5q27 -22 27 -32q-25 -25 -111 -25q-22 0 -55 1t-47 1q-9 0 -29 -1t-33 -1q-19 0 -48 3t-46 3q-5 0 -15 -1t-14 -1q-31 0 -33 4q-9 0 -27.5 -1t-27.5 -1q-4 0 -11.5 1t-10.5 1h-23h-46q-45 -2 -58 -2q-18 0 -58 1t-61 1q-9 0 -38.5 -2t-45.5 -2q-4 0 -11.5 1 t-11.5 1h-29q-40 0 -99 -2q-81 -2 -109 -2q-39 0 -108 2t-105 2q-35 0 -91 -1t-98 -1h-2h-161h-2q-24 0 -66 1t-66 1q-43 0 -128 -2t-128 -2q-26 0 -82 2t-85 2q-28 0 -64.5 -1t-42.5 -1q-15 0 -44.5 2t-41.5 2q-25 0 -37 -2q-30 0 -84.5 1t-81.5 1q-9 0 -29.5 -1t-33.5 -1 q-5 0 -13 1t-12 1q-14 0 -32.5 -2t-30.5 -2q-9 0 -13 2q-23 0 -57.5 -3t-54.5 -3q-25 0 -35 2q-16 0 -43 -1t-43 -1q-12 0 -36 1t-36 1q-25 0 -52.5 5.5t-27.5 17.5zM186 885l4 -4l16 -13q30 -20 38 -28l52 -32q34 -23 34 -28q8 0 54 -39t46 -49q0 -14 -32 -46t-88.5 -79.5 t-63.5 -54.5l-2 -2q-6 -6 -23 -18.5t-31 -26.5q56 0 68 -2q191 0 244 8h2q7 0 22.5 -1t24.5 -1q7 0 21 1t20 1h6q16 0 50 -3t50 -3q17 0 53.5 2t55.5 2q8 0 10 -2q8 0 35 2t43 2h2q7 0 18 -2t17 -2q8 0 24 3t21 3q33 0 101 -2t104 -2h37q3 1 9.5 -1.5t10.5 -2.5q13 0 55.5 3 t69.5 3q35 0 45 -4q10 0 34 1t34 1q14 0 20 -2q7 0 23 2t22 2q17 0 29 -2q4 2 8 2q14 -2 37 -2q25 0 62.5 -1.5t61 -1t48.5 4.5q6 0 10 -2q8 2 23 2q7 0 22 -2t23 -2q4 0 12.5 1t13.5 1t17 -1t18 -1q8 0 32.5 2t45.5 2q25 0 66.5 -3t58.5 -3q5 0 10.5 2t9.5 2h37 q36 0 106.5 2t96.5 2q6 0 20 -3t23 -3q7 0 19 2t20 2h2q10 0 32 -2t31 -2q5 0 12.5 1t12.5 1q17 0 48 -2t46 -2q20 0 58 3t57 3h4q7 0 21.5 -1t21.5 -1q9 0 24 1t23 1h2q28 -4 89.5 -4.5t80.5 -3.5q29 0 74.5 1t66.5 1q-11 11 -29 25t-24 20l-2 2q-6 6 -42 35.5t-64 53 t-53 51t-25 40.5q4 23 33 37q2 1 18 13.5l32 25t17 12.5q0 2 24 19t59.5 41.5t51.5 36.5l9 8q-34 6 -62 6q-12 0 -30.5 -1t-28.5 -1h-4q-47 0 -142 1t-141 1l-14 2q-10 0 -28 -3t-28 -3q-2 0 -63.5 1t-97.5 1h-602q-41 0 -127 4t-132 4q-37 0 -127 -4t-129 -4h-602h-24 q-21 0 -51 -1q-51 -1 -58 -1q-14 0 -43 3.5t-41 2.5l-14 -2q-46 0 -141 -1t-144 -1h-2q-11 0 -31 1t-28 1q-42 0 -62 -6z" />
<glyph unicode="k" horiz-adv-x="3041" d="M102 684q14 22 101 54.5t149 45.5q12 1 15.5 6t3.5 17q0 28 -2 84t-2 82q0 129 32 129q10 0 28 -17.5t40 -27.5q256 -177 563 -264q140 -40 246 -56t280 -16q104 0 203 16q131 22 207.5 40.5t210.5 62.5q214 77 381 188q9 6 32 26t41 31t35 11q7 0 12 -10t5 -21 q-2 -10 -2 -29q0 -1 -0.5 -17t-1 -33.5t0 -42.5t3.5 -47t7.5 -43t13 -36.5t20.5 -21.5q17 -3 116 -37t99 -43q0 -8 -62 -51q-152 -95 -413 -232q-111 -58 -328 -113q-6 -2 -56.5 -15t-64.5 -16.5t-57.5 -14t-65.5 -14t-57.5 -9.5t-65 -8t-57.5 -2h-92q-16 0 -47 -1t-47 -1 q-21 0 -64 1t-65 1h-17q-54 0 -146.5 14.5t-123.5 17.5q-189 17 -419.5 100t-430.5 199q-15 5 -83.5 50t-74.5 63z" />
<glyph unicode="l" horiz-adv-x="4581" d="M102 459q8 15 43.5 41t47.5 39q20 21 61.5 57.5t71.5 63t30 30.5q0 3 -23 22t-50.5 39.5t-51.5 38.5l-24 17q-31 19 -68 48.5t-37 41.5q0 16 150 16q43 0 129 -1t129 -1q127 0 496 9q66 0 190 -3.5t186 -3.5q175 0 525.5 2.5t525.5 2.5q130 0 390.5 -2.5t391.5 -2.5 q61 0 181 3.5t180 3.5q106 0 315.5 -4.5t313.5 -4.5q21 0 64.5 2t66.5 2q2 0 29.5 0.5t40 0t33.5 -2t30.5 -5.5t9.5 -11q0 -9 -23.5 -30.5t-50 -41t-57.5 -42t-35 -25.5q-8 -7 -32.5 -22t-40.5 -27t-15 -19q0 -6 39 -40.5t53 -45.5q21 -16 65.5 -59t71.5 -60q25 -17 25 -24 q0 -23 -122 -23h-5h-4q-14 0 -41 1t-41 1q-5 0 -15 -1t-14 -1q-36 0 -109 4t-110 4q-117 0 -176 -2q-9 0 -27.5 1t-27.5 1q-51 0 -76 -2q-12 0 -33 1t-31 1q-47 0 -132 -2t-126 -2q-133 0 -400 1t-398 1q-66 0 -197.5 -2t-195.5 -2q-83 0 -248.5 2t-247.5 2 q-101 0 -300.5 -1t-297.5 -1q-24 0 -74 2t-74 2q-12 -2 -34 -2q-14 0 -39 1t-39 1t-43 -1t-43 -1q-26 0 -76 1t-76 1h-39h-41q-8 0 -24 -2t-23 -2q-4 0 -12 2t-12 2q-37 0 -112.5 -4t-119.5 -4h-19.5h-23.5t-20.5 1t-22.5 3.5t-18 6.5t-17 10zM168 885q13 -25 71 -61.5 t76 -55.5q10 -10 40.5 -31t39.5 -35q2 -2 4 -6t4 -6q-41 -44 -119.5 -112t-107.5 -97q-1 -1 -1.5 -3t-1 -5.5t-1.5 -5.5q65 0 195 3t192 3q23 0 63 -3t60 -3q30 0 88.5 3t87.5 3q6 0 19.5 -2t19.5 -2q9 0 27.5 3t27.5 3q240 -6 244 -6q12 0 37 1t37 1q127 0 383.5 -3 t384.5 -3q6 0 19.5 2t19.5 2q8 0 25.5 -1t25.5 -1h217h109q146 0 440 2t442 2q13 0 41 -4q43 0 129 4t131 4q6 0 20 -3t21 -3t22.5 2t22.5 2q40 0 97 -3t83 -3q17 0 51.5 3t53.5 3q8 0 26.5 -1t30.5 -1h25q52 0 158 -2t159 -2v8q0 7 -47.5 49.5t-81.5 69.5q-31 23 -64 54 t-32 44q0 10 21.5 29t48 37t28.5 20q38 24 84.5 57.5t46.5 43.5q0 6 -33 9.5t-91.5 4.5t-106 1t-109 -0.5t-67.5 -0.5q-132 0 -395.5 -2t-395.5 -2q-141 0 -423 4t-423 4q-288 0 -866.5 -5t-873.5 -5q-9 0 -27 3t-27 3q-65 0 -196 -2t-197 -2z" />
<glyph unicode="m" horiz-adv-x="4583" d="M102 381q0 12 27 39q29 25 72 82.5t73 87.5l8 10q9 9 21.5 24t25.5 30t22 26.5t9 13.5t-8.5 11.5t-15.5 13.5l-18 17q-216 198 -216 241q0 9 9 15.5t18 6.5q1 0 4 -1t4 -1q27 0 63 4.5t52 4.5q29 0 83.5 -2.5t74.5 -2.5t58 1.5t58 1.5q16 0 31 -3q57 0 201 5.5t213 5.5 q125 0 207 -3t88 -3q8 0 24 1t25 1q7 -3 31.5 -3.5t33.5 -3.5q20 5 482 5q270 0 343.5 2t75.5 2q13 0 34 -1t32 -1q2 2 6 2q3 0 10 -1t11 -1t10.5 1t9.5 1q4 0 8 -2q17 0 25 2q56 0 89 -2t136 -2q526 0 551 -5q9 3 34.5 3.5t31.5 3.5q4 0 13 -1t13 -1q69 0 139.5 3t102.5 3 q22 0 74 -2t84 -2q105 -7 276 -7q11 0 39 1.5t47 1.5q10 0 29.5 -1.5t29.5 -1.5h16q28 0 78 2q67 3 105 3q24 0 66 -4.5t63 -4.5q2 0 5 1t5 1q9 0 18 -7.5t9 -16.5q0 -8 -36 -51.5t-68 -73.5q-19 -17 -57.5 -57t-67.5 -70t-29 -29q65 -83 86 -104q29 -29 72 -87t73 -83 q27 -32 27 -41q0 -33 -131 -33q-57 0 -129.5 5t-95.5 5q-3 0 -8.5 -1t-8.5 -1q-10 0 -31.5 2t-31.5 2q-5 0 -16 -1t-17 -1t-18 1t-19 1q-28 0 -82.5 -2t-85.5 -2h-2q-9 0 -26 2t-25 2q-10 0 -38 -2t-44 -2q-7 0 -19.5 1t-27.5 1q-35 0 -104.5 -3t-100.5 -3q-14 0 -44 1 t-44 1q-17 0 -211 0.5t-379 1t-180 0.5q-19 0 -100 -1t-144 -1h-19.5t-49 0.5t-67 1t-80 0.5h-81.5q-162 0 -305.5 -0.5t-234.5 -1t-158 -1t-103 -1t-42 -0.5q-23 0 -50 1t-61.5 2.5t-52.5 2.5q-3 0 -19 1.5t-30 1t-23 -4.5q-22 0 -60.5 2t-52.5 2q-9 0 -25.5 -2t-25.5 -2 h-2q-27 0 -73.5 2t-69.5 2q-9 0 -22.5 -1t-16.5 -1q-40 0 -47 2q-10 0 -31 -2t-31 -2q-5 0 -13 1t-13 1q-15 0 -39 -4q-11 -6 -68 -6h-16h-58h-30q-25 0 -39 2q-107 0 -107 33z" />
<glyph unicode="n" horiz-adv-x="4577" d="M102 379q6 16 48 61.5t53 61.5q14 21 54.5 63t70.5 77t30 52q0 6 -12.5 21.5t-33.5 37t-41 41t-43 42t-31 30.5q-78 78 -95 111q4 20 144 20q57 0 172 -2t174 -2q62 0 189 5.5t190 5.5q67 0 201 -5.5t202 -5.5q180 0 539 3t538 3q125 0 375 -3t375 -3q8 0 23.5 2t23.5 2 h39q46 0 139 3.5t140 3.5q103 0 312 -5.5t314 -5.5q22 0 63.5 2t61.5 2h21.5h27t25.5 -0.5t28 -2t22 -3.5t21 -5.5t13 -8.5q-15 -27 -45.5 -61.5t-71.5 -75t-57 -58.5q-9 -10 -31 -28.5t-37.5 -33.5t-15.5 -24q0 -10 21.5 -38.5t45.5 -55.5l25 -27q22 -22 65.5 -78.5 t73.5 -82.5q17 -17 25 -33q-6 -10 -19.5 -16t-39 -8t-34.5 -2.5t-38 -0.5q-16 0 -50 1t-51 1h-16q-13 0 -41 3t-41 3h-22q-48 0 -141.5 1.5t-141.5 1.5q-3 0 -8 -1.5t-8 -1.5q-6 0 -17.5 1.5t-17.5 1.5q-23 0 -67 -1.5t-66 -1.5h-68q-30 0 -88 -2t-88 -2q-137 0 -421 2 t-429 2q-20 0 -61 -2t-62 -2q-186 0 -561 2t-563 2q-37 0 -109.5 -1t-109.5 -1q-18 0 -131 5q-13 0 -39 -1.5t-39 -1.5q-12 0 -33 1.5t-31 1.5q-13 0 -36.5 -1.5t-34.5 -1.5h-95t-129 5q-11 0 -36.5 -2.5t-38.5 -2.5h-11q-33 0 -103 -4t-108 -4q-76 0 -106 13q-11 5 -21 12z M162 946q0 -14 31 -43.5t73.5 -66t59.5 -58.5q7 -9 33 -35t36 -45q-12 -37 -43 -76.5t-70 -80t-55 -62.5q-6 -8 -22 -25t-27.5 -31t-11.5 -22t2 -12q38 0 112.5 -1t112.5 -1q27 0 84 5t86 5q41 -8 103 -8q31 0 99 4t89 4q7 0 22.5 -3t22.5 -3q8 0 26 3t27 3q240 -6 242 -6 q19 0 58.5 1t60.5 1q114 0 340 -1t338 -1q13 0 41 2t41 2q21 0 61 -1t61 -1q23 0 70 2t70 2q19 0 58 -2t58 -2h56q15 0 43 -1t43 -1q111 0 334.5 1t337.5 1q21 0 62 -2t62 -2q46 0 129.5 3.5t110.5 4.5q9 0 24 -3t23 -3q7 0 21.5 3t21.5 3q29 0 88 -5t88 -5q30 0 94 5t99 5 q46 0 150.5 -5t156.5 -5q14 0 14 16q0 8 -10.5 20t-25.5 27t-21 25q-14 20 -81.5 97.5t-90.5 125.5q26 48 85 104t103.5 94.5t44.5 53.5q0 4 -9 7.5t-28 6t-39.5 4.5t-51 3t-55.5 1.5t-61 0.5h-58.5h-56h-46.5q-14 0 -41 -4t-41 -4q-21 0 -60.5 2t-58.5 2q-79 0 -235 -1 t-234 -1q-161 0 -483.5 6t-484.5 6q-217 0 -645 -6t-640 -6q-42 0 -127 1t-127 1q-64 0 -190 -4q-13 0 -39 4t-39 4q-53 -1 -158.5 -2t-158.5 -2h-31q-1 0 -12.5 0.5t-15.5 0t-11.5 -2.5t-10.5 -7.5t-3 -13.5z" />
<glyph unicode="o" horiz-adv-x="3360" d="M102 903q0 7 10 11.5t29.5 5.5t35.5 1t40.5 -0.5t32.5 -0.5q30 0 89 -1t89 -1q100 0 301 4t303 4q65 0 191.5 -3t187.5 -3q17 0 51 2t51 2q65 0 193.5 -1t191.5 -1q60 0 177.5 2t173.5 2q103 0 309 -4t309 -4q39 0 116.5 2t115.5 2q159 0 159 -19q0 -15 -98 -86 q-11 -9 -55 -40.5t-76.5 -57t-32.5 -31.5q0 -5 38 -41.5t58 -46.5q37 -28 101.5 -84t64.5 -65q0 -6 -5 -10t-16 -6.5t-20.5 -4t-26 -2t-25 -0.5h-24.5h-18q-10 0 -30.5 2t-32.5 2q-8 0 -25.5 -2t-25.5 -2q-41 0 -127 5t-129 5q-31 0 -93 -2t-92 -2q-6 0 -17.5 1t-17.5 1h-24 q-11 0 -34 -1t-34 -1q-7 0 -20.5 1t-20.5 1q-53 0 -158 -1t-157 -1q-121 0 -180 2q-104 -4 -316 -4q-30 0 -84.5 2t-81.5 2q-37 0 -109.5 -2t-109.5 -2q-35 0 -104.5 2t-104.5 2q-10 0 -30.5 -2t-30.5 -2q-14 0 -43 2t-45 2q-29 0 -43 -2q-39 0 -115.5 1t-114.5 1 q-47 0 -67 -2q-8 0 -20 1t-17 1q-38 0 -119.5 -4t-122.5 -4q-123 0 -123 23q0 12 32 40.5t78 64t54 42.5q1 1 17 13.5t34 27t33 30t15 21.5q0 8 -27 23q-29 15 -81.5 57.5t-57.5 46.5q-99 69 -99 86z" />
<glyph unicode="p" horiz-adv-x="3358" d="M102 985q2 5 9 9t19 6t22 3.5t26.5 2t25.5 0.5h26h20q70 0 204.5 -1t202.5 -1q172 0 387 10q47 0 141 -3t140 -3h33q33 0 47 -4q56 0 164 3t162 3q36 0 108.5 -2t108.5 -2q52 0 154.5 3t148.5 3q109 0 306.5 -5.5t297.5 -5.5q41 0 123 2.5t125 2.5q140 0 153 -21 q-29 -29 -123 -137.5t-137 -136.5q-6 -9 -6 -19q0 -9 23.5 -39.5t47.5 -57t25 -26.5q24 -24 68.5 -82t73.5 -84q23 -23 26 -34q-4 -6 -10.5 -11t-17 -8t-18 -4.5t-22.5 -2.5t-20 -1h-22.5h-18.5q-91 0 -176 3t-138 6t-65 3q-24 0 -73 -2t-74 -2q-9 0 -27 1t-26 1 q-24 0 -75 -1t-75 -1h-26q-37 0 -110.5 -2t-109.5 -2q-39 0 -115.5 2t-115.5 2q-31 0 -95 -2t-95 -2q-55 0 -165 2t-165 2q-27 0 -83 -2t-83 -2q-42 0 -127 3t-127 3q-9 0 -27.5 -2t-27.5 -2q-13 0 -40 2t-42 2q-9 0 -27 -2t-27 -2q-37 0 -110 2t-109 2q-16 0 -46 -1t-44 -1 h-18q-34 0 -113 -4t-119 -4h-17.5h-20t-18 0.5t-19.5 2.5t-17.5 4.5t-18 7t-14.5 10.5q9 20 48.5 60.5t52.5 59.5q27 41 85.5 106.5t74.5 86.5q4 8 4 14q0 10 -14 23.5t-35.5 31t-32.5 31.5q-26 33 -88.5 96.5t-89.5 100.5q-6 6 -7 8zM166 958q0 -15 26.5 -42.5t69.5 -64 t55 -48.5q11 -20 45.5 -51.5t45.5 -55.5q-21 -50 -92.5 -129.5t-86.5 -101.5q-8 -11 -24 -27.5t-26 -28.5t-9 -18q0 -7 11 -11t31.5 -5.5t38 -1.5t41.5 1t32 1q33 0 99 4t99 4h41q27 0 39 2q19 0 58.5 -4t60.5 -4q13 0 41 2t41 2q3 0 9 -1t9 -1q10 0 32 3t32 3q7 0 20.5 -3 t20.5 -3q8 0 27 4t32 4q23 -1 73.5 -1t89 -1.5t73.5 -5.5q1 0 4 -1t4 -1q20 0 57 3t55 3q13 0 40 -2t40 -2q17 0 49 2t48 2q1 0 2 -1t2 -1q2 0 10 2t14 2q56 -2 189 -2.5t204 -3.5q5 0 19.5 2t21.5 2q22 0 68 -2t68 -2q49 0 140.5 3.5t123.5 4.5q10 0 26 -4t23 -4 q9 0 27.5 3t27.5 3q27 -6 56 -6q5 0 16 1t16 1q54 -4 84 -4q20 0 58 4t57 4q10 0 31.5 -1t31.5 -1h17q37 0 110.5 -4t110.5 -4q19 0 58 2t59 2q0 17 -11.5 33.5t-29.5 34t-23 24.5q-14 18 -54.5 67t-66.5 83t-49 69q-1 1 -2 3t-2 3q10 23 39 50t35 34q14 18 58 56t77 72 t33 55q0 16 -60 16q-17 0 -48 -1t-46 -1q-45 0 -134 2t-134 2q-12 0 -35 -4t-33 -4q-85 0 -253 1t-250 1h-134q-67 0 -201 6t-198 6q-473 -14 -1022 -14q-9 0 -28.5 4t-28.5 4q-30 0 -126 1q-47 1 -87 1t-72 -1q-64 -1 -123 -7q-14 0 -14 -17z" />
<glyph unicode="q" horiz-adv-x="3356" d="M102 367q8 18 25 32q30 28 77.5 89t63.5 79q99 99 99 125q0 11 -15 26t-36.5 33t-30.5 29q-19 24 -90.5 93.5t-92.5 111.5q11 21 146 21q22 0 64 -1t63 -1q479 0 667 10q40 0 117.5 -3t116.5 -3h80q33 0 49 -4q53 0 162 3t162 3q36 0 108.5 -2t108.5 -2q52 0 153.5 3 t151.5 3q101 0 301 -5.5t301 -5.5q41 0 124 2.5t124 2.5h21.5h26.5t25.5 -0.5t27 -2t22.5 -3.5t19.5 -6t10.5 -9q-1 -1 -3 -5t-3 -5q-28 -35 -87 -97t-83 -90q-11 -12 -35 -33.5t-39.5 -37t-15.5 -23.5q0 -17 32 -55t77 -86.5t63 -75.5q14 -20 47 -53.5t47 -54.5 q-12 -13 -37 -19.5t-40 -7t-54 -0.5q-19 0 -55 1t-55 1q-12 0 -84.5 5t-184.5 5q-24 0 -73 -2t-74 -2q-9 0 -27 1t-26 1q-15 1 -43 -0.5t-37 -1.5h-97q-36 0 -109 -2t-110 -2q-38 0 -115 2t-116 2q-31 0 -94 -2t-94 -2q-56 0 -167 2t-165 2q-27 0 -83 -2t-83 -2 q-42 0 -127 3t-127 3q-9 0 -27.5 -2t-27.5 -2q-14 0 -40 2t-40 2q-29 0 -43 -2q-2 0 -6.5 -1t-6.5 -1q-37 0 -110 2t-109 2q-11 0 -32 -1t-33 -1h-43q-38 0 -114.5 -4t-115.5 -4h-18h-20t-18.5 0.5t-20 2.5t-17 4.5t-18.5 7t-15 10.5z" />
<glyph unicode="r" horiz-adv-x="4583" d="M102 457q0 16 27 32q31 19 75 61.5t70 63.5q53 35 86 76q0 4 -12.5 11.5t-33.5 20t-35 26.5q-17 16 -63.5 50t-80 61t-33.5 38q0 23 115 23q35 0 102 -1t91 -1h6q7 1 23.5 1.5t44 1.5t76.5 2t112.5 1.5t161 1t213.5 0.5q19 0 49.5 -2t46.5 -2q40 0 75.5 -1t49.5 -1 q5 0 21 1t26 1q23 0 63 -4q4 2 477 2q253 0 352 1t158 1h5q108 0 141 -1t141 -1q531 0 551 -2q36 4 66 4q5 0 13.5 -1t12.5 -1q66 0 137 3t105 3q223 0 340 -8q23 0 91 -2q51 -1 111 -1q20 1 41 1q83 0 195 4q17 0 43 -1t39 -1q84 0 84 -21q0 -1 -14.5 -16t-40.5 -37.5 t-49 -38.5q-16 -11 -55.5 -41.5t-69 -53t-29.5 -20.5q8 -9 33.5 -28.5t34.5 -28.5q7 -14 48 -46t48 -40q12 -13 47.5 -41t42.5 -39q4 -4 4 -10q0 -11 -34 -17t-72 -6q-21 0 -54 1t-45 1q-10 0 -28.5 -1t-30.5 -1q-18 0 -47.5 3t-44.5 3q-5 0 -13 -1t-14 -1q-7 0 -23 2t-30 2 q-6 0 -17 -1t-16 -1q-4 0 -11 1t-11 1q-31 0 -90.5 -1t-92.5 -1h-2q-9 0 -26 1t-25 1q-10 0 -38 -2t-44 -2q-4 0 -10.5 1t-9.5 1h-28q-38 0 -96 -2q-80 -2 -108 -2q-20 0 -54.5 1t-51.5 1q-9 0 -95 0.5t-203.5 1t-205.5 0.5q-264 0 -283 -2q-244 0 -382.5 1t-139.5 1 q-162 0 -303.5 -0.5t-230.5 -1t-153 -1t-99 -1t-41 -0.5q-25 0 -80.5 2t-83.5 2q-26 0 -59 -1t-44 -1q-16 0 -43.5 2t-38.5 2q-9 0 -25 -1t-26 -1h-2q-27 0 -73.5 1t-69.5 1q-16 0 -36.5 -1t-25.5 -1q-4 0 -11.5 1t-10.5 1q-10 0 -32 -2t-32 -2q-8 0 -10 2q-19 0 -53 -3 t-55 -3q-25 0 -35 2q-14 0 -56.5 -1t-66.5 -1q-87 0 -104 17q-3 3 -3 6zM184 881q0 1 2 -1.5t10 -11t21 -19.5t40 -29.5t62 -39.5q-6 0 9 -9q62 -39 75 -52q14 -15 15 -25q0 -19 -33.5 -51.5t-80.5 -70.5t-62 -54l-2 -2q-54 -40 -54 -41q2 0 2 -2q220 0 299 6h2q2 0 5 1t4 1 q11 0 37 -1t40 -1h7q16 0 48 -3t48 -3q26 0 88 4q11 0 23.5 -1t17.5 -1q10 0 30.5 3t30.5 3h2q5 0 22 -3t21 -3q12 6 35 6h20q29 1 80 -1q71 -2 99 -3h35q-1 -1 3 -3q4 -1 15 -1l100 6h37q-3 0 41 -0.5t114.5 -1t148.5 -1t156.5 -1t125.5 -0.5l58 1q4 1 6 1q7 0 22.5 -2 t22.5 -2q14 0 24 2q18 0 53 -1t48 -1q22 0 32 2q4 0 11.5 -1t11.5 -1q29 0 37 2q29 0 91 -1t91 -1q18 0 46 2t42 2q8 0 24.5 1t31 0.5t32.5 -3.5q1 0 311 1t318 1q2 2 10 2q18 0 56 -1t53 -1h2q4 0 13.5 -2t12.5 -2q5 0 12 2l7 2h35q137 0 172 4q47 0 61 -6q4 0 6 2 q7 -1 20 1.5t19 2.5q10 0 31 -3t31 -3q3 0 7.5 1t6.5 1q20 0 52 -2t48 -2q18 0 54 3t57 3h6q14 0 40.5 1t37.5 1q1 0 4 -1t4 -1h2q72 -6 236 -6q63 0 63 2t-10 9.5t-23.5 18t-17.5 13.5l-2 2q-11 12 -57.5 51.5t-82.5 74.5t-36 50q0 5 157 129q-7 -4 7 7l28 20l41 31 q-22 1 -47.5 2t-40.5 1.5t-29 0.5h-2q-184 0 -274 2h-12q-6 0 -30 -3t-46 -3q-4 3 -28 3.5t-62.5 -0.5t-44.5 -1h-582q-10 0 -319 2t-369 2q-27 0 -74.5 2t-71.5 2q-21 0 -62 -2t-62 -2q-19 0 -429.5 -2t-431.5 -2h-581l-23 1l-44 2t-43.5 -0.5t-24.5 -4.5q-21 0 -44.5 3 t-31.5 3h-12q-90 -2 -275 -2h-2q-9 0 -25.5 0.5t-27.5 0.5t-28.5 -1t-35.5 -4z" />
<glyph unicode="s" horiz-adv-x="3004" d="M102 807q0 4 2.5 7.5t8.5 8t8 6.5v2q5 5 8 5q16 3 44.5 7t59 10t70.5 17q27 0 43 3t22.5 5.5t10.5 2.5q1 0 3 -1t3 -1q25 0 43 6q48 0 134.5 13t109.5 13q4 0 11 -1t11 -1q13 0 37 4q171 19 234 19h8q25 0 103 4q94 4 122 6q5 0 15.5 -1t15.5 -1q24 0 56 2t42 2 q34 0 102 3t103 3q47 0 118 -4t140 -4q9 0 29.5 2t29.5 2q23 0 27 -4q1 0 20 -3t49.5 -7t67.5 -7.5t83.5 -6.5t88.5 -3q14 -2 33 0t46.5 -1t43.5 -13q6 -3 30.5 -5.5t46 -5.5t23.5 -7q4 2 9 2q3 0 61.5 -9.5t87.5 -9.5q3 0 9 1t8 1l10 -2q89 -12 145 -24h2q73 -15 99 -23 q63 -22 63 -45q0 -6 -2 -10t-6 -8t-15 -13t-25 -20.5t-39 -35t-54 -52.5l-16 -15q-58 -50 -58 -55q0 -6 4 -10q40 -40 87 -112t61 -126q0 -10 -10 -17t-21 -7q-78 9 -176 31q-31 7 -134.5 19.5t-173.5 27.5l-16 2q-14 2 -163 26.5t-222 24.5q-2 0 -5 -1t-5 -1q-63 0 -105 10 q-7 0 -18.5 -2t-17.5 -2q-13 0 -37 2t-39 2h-172h-269q-5 0 -11.5 1t-10.5 1q-7 0 -22.5 -1t-22.5 -1q-26 0 -90 -6t-113 -6q-154 0 -194 -19h-3q-20 -4 -34 -4q-2 0 -6.5 1t-6.5 1q-7 0 -20 -2t-19 -2l-8 -2q-15 -1 -69 -4.5t-98 -8.5t-83 -13q-37 0 -147 -27h-6 q-20 -4 -29 -4q-15 0 -41.5 -8.5t-38.5 -8.5q-6 0 -12 7t-6 16q0 12 14.5 35t28.5 37v2q8 12 10 18q10 23 65.5 84.5t55.5 83.5q0 -1 -20 16.5t-65 56t-91 75.5l-15 10q-15 9 -30 23t-15 24z" />
<glyph unicode="t" horiz-adv-x="3368" d="M102 369q0 14 27 41q30 24 74 83t78 91q1 1 9 13t15 21t16 21t17 21t14 12q17 17 17 22q-13 15 -40 37t-44 43q-18 24 -66.5 71.5t-82.5 85t-34 52.5q0 33 156 33q30 0 85.5 -2t76.5 -2q166 0 338 5t280 5q57 0 121.5 -2t77.5 -2h4q4 1 10.5 1.5t15 1.5t19.5 1.5 t23.5 0.5t26 -0.5t27.5 -1.5t29 -3.5t29 -5.5q14 0 26 1t26.5 2t68.5 2t141 1h3q32 0 91 3q39 2 69 2q16 -1 28 -1q38 -2 70 -10q18 4 53 4q56 0 149 3t144 3q118 0 245.5 -5t202.5 -5q44 0 161 2t212 2q11 0 33 -2t34 -2q89 0 89 -29l-6 -8q-6 -8 -16 -21.5t-22.5 -29 t-30 -34.5t-34.5 -36q-18 -17 -56.5 -60t-66.5 -71.5t-37 -28.5q0 -6 14 -21.5t32 -34t24 -28.5q16 -26 52.5 -65.5t47.5 -55.5q12 -18 38 -45t43.5 -46.5t17.5 -28.5q0 -37 -136 -37q-15 0 -40 2t-37 2q-9 0 -29 -1t-33 -1q-19 0 -49 4t-45 4q-5 0 -15 -1t-14 -1 q-8 0 -25 3t-30 3q-41 0 -123 -2t-123 -2h-2q-9 0 -26 1t-27 1q-9 0 -38.5 -2t-45.5 -2q-8 0 -25.5 2t-25.5 2q-28 -4 -61 -6q-20 -1 -47 -1h-40q-54 1 -61 1q-39 0 -108 2t-105 2q-37 0 -97 -2t-92 -2h-2h-45h-4h-63h-4h-45h-2q-12 0 -56 2t-76 2q-43 0 -128 -2t-128 -2 q-6 0 -64 -1h-44q-30 1 -52 1q-36 2 -63 6q-8 0 -25.5 -2t-25.5 -2q-15 0 -44.5 2t-41.5 2q-25 0 -37 -2q-42 0 -132.5 2t-129.5 2q-12 0 -29.5 -3t-25.5 -3q-9 0 -13 2q-23 0 -57.5 -4t-54.5 -4q-25 0 -35 2q-18 0 -52 -2t-55 -2q-14 0 -20 2q-111 0 -111 35zM186 960 q2 -26 137 -137l5 -4q1 -2 27.5 -25t48.5 -47.5t22 -37.5q4 -8 4 -13q0 -10 -6 -16q-28 -39 -88.5 -113.5t-89.5 -113.5l-2 -4q-3 -5 -28.5 -28.5t-25.5 -33.5q56 0 68 -2q170 0 244 10h2q1 0 4 1t4 1q11 0 39 -1t41 -1h6q1 0 3.5 1t4.5 1q16 0 46 -5t46 -5q17 0 53.5 3 t55.5 3q2 0 5.5 -1t4.5 -1q9 0 37 3t41 3q9 0 23 -4t22 -4t20 4t17 4q35 0 104.5 -2t104.5 -2l33 -2q1 -1 2 0.5t2 1.5q3 0 7.5 -3t8.5 -3q27 0 117 8q27 -6 78 -6q6 0 21.5 2t21.5 2q4 0 10.5 -1t9.5 -1q7 0 23 2t22 2q10 0 37.5 -1t36.5 -1q21 0 58 -1.5t63 -1t51 4.5 q17 0 41 -2t37 -2q4 0 12.5 1t13.5 1q6 0 21 -2t22 -2q42 0 54 6q29 0 79 -4t62 -4q4 0 8.5 3t7.5 3l4 -2l33 2q29 0 90 2t90 2q15 0 34.5 -4t31.5 -4q11 0 24.5 4t18.5 4h2q10 0 31.5 -3t31.5 -3q5 0 12.5 1t12.5 1q17 0 48 -3t46 -3q18 0 54 5t53 5q1 0 4 -1t4 -1h6 q65 0 76 2q2 0 6 -1t6 -1h2q87 -10 213 -10q22 0 53 1t45 1q0 4 -11.5 17t-25 27t-16.5 18l-2 4q-10 13 -61 68.5t-87 103t-36 71.5q0 7 9 23.5t24 28.5q3 7 27 27.5t32 35.5q3 3 28 23t56 49.5t59 64.5l9 13q-21 6 -45 6q-123 0 -361 4h-16q-9 0 -27.5 -4t-28.5 -4 q-4 0 -64.5 1t-96.5 1h-602q-72 12 -259 12q-43 0 -133 -6t-125 -6h-600h-24q-21 -1 -51 -1q-50 -2 -58 -1q-20 0 -46 4t-38 4h-16q-50 -1 -100 -1h-49.5h-49.5q-51 0 -101 -1q-76 -2 -106 -8v-1z" />
<glyph unicode="u" horiz-adv-x="3356" d="M102 358q4 9 23 33q32 27 81.5 90.5t61.5 77.5q8 8 27.5 29t45.5 53.5t26 42.5q1 10 -15 25t-37.5 33t-29.5 28q-17 22 -89.5 93.5t-93.5 113.5q1 4 5.5 7t12.5 5t16.5 3.5t21 2.5t22 1.5t23 0.5h21.5h21h17q43 0 128.5 -2t127.5 -2q81 0 243.5 5.5t242.5 5.5q32 0 98 1 t108 1q6 0 12 1q37 0 84 -3q55 -3 97 -9q36 0 108.5 3t108.5 3q54 0 160.5 -3t154.5 -3q15 0 42 2t42 2h43q42 0 126 3.5t126 3.5q78 0 233.5 -5.5t233.5 -5.5q55 0 164 1t164 1h19.5h24t24.5 -0.5t25.5 -1.5t21.5 -3.5t18.5 -6.5t11.5 -10q-85 -88 -178 -199 q-11 -14 -34.5 -34t-38.5 -34.5t-15 -23.5q-1 -10 13.5 -27.5t34.5 -38t26 -30.5q12 -21 49.5 -61t50.5 -58q14 -22 45.5 -56t46.5 -55q-10 -9 -22.5 -14.5t-30 -7.5t-27.5 -2.5t-33 0t-28 0.5h-53h-27q-23 0 -67 4t-66 4q-4 0 -12.5 -1t-12.5 -1q-12 0 -36 4q-43 0 -134 -1 t-137 -1q-7 0 -20.5 1t-20.5 1q-19 0 -56.5 -2t-53.5 -2q-40 4 -60 4q-31 0 -96 -3t-96 -3q-47 0 -141 2t-142 2q-25 0 -73.5 -2t-71.5 -2h-127h-49q-21 0 -65 2t-66 2q-39 0 -119.5 -2t-120.5 -2q-31 0 -95.5 3t-97.5 3q-21 0 -57 -4q-17 0 -48 2t-46 2q-33 0 -49 -2h-39 h-78q-75 2 -100 2q-14 0 -46.5 -2t-48.5 -2q-4 0 -12 1t-12 1q-19 0 -57 -4t-56 -4q-14 0 -58.5 -2.5t-74.5 -2.5t-64 6.5t-49 22.5z" />
<glyph unicode="v" horiz-adv-x="4583" d="M102 379q0 14 27 41q32 26 77 86t68 84q4 3 19.5 24.5t31.5 40.5t21 19l16 20q0 7 -24 25l-20 19q-213 196 -214 239q0 29 150 29q29 0 83.5 -2.5t74.5 -2.5t57.5 1.5t56.5 1.5q6 0 17 -1.5t16 -1.5q88 0 210 5.5t204 5.5q117 0 199.5 -3t95.5 -3q11 0 26 1t21 1 q8 -3 31.5 -3.5t35.5 -3.5q18 5 488 5q261 0 341.5 2t84.5 2q8 0 26 -1t27 -1q2 2 4 2q8 -2 29 -2q18 0 26 2q3 0 5 -2q3 0 7.5 1t6.5 1q57 0 90.5 -2t136.5 -2q526 0 549 -5q49 0 68 7q4 0 13 -1t13 -1q62 0 130 3t110 3q28 0 68 -1t55 -1q36 -6 76 -9q34 -3 60 -3h8 q28 0 80.5 1.5t86.5 1.5q14 0 42.5 1.5t45.5 1.5q9 0 28.5 -1.5t28.5 -1.5q104 0 201 5q13 0 40 -1t40 -1h9t20.5 -1t25.5 -3t20 -8t9 -15q0 -25 -258 -283q-2 -3 1 -5q27 -14 67 -75q15 -24 50 -61.5t46 -54.5q12 -17 37 -43.5t41 -45.5t16 -30q0 -33 -129 -33q-13 0 -39 1 t-37 1q-38 0 -83 4t-66 4q-3 0 -9 -1t-8 -1q-12 0 -33 2t-32 2q-5 0 -15 -1t-16 -1q-9 0 -21 1t-16 1q-29 0 -86 -2t-84 -2q-7 0 -24 2t-29 2q-9 0 -37 -2t-45 -2q-10 0 -25 1t-20 1h-19q-36 0 -91 -2q-70 -4 -95 -4q-14 0 -44 1t-44 1q-16 0 -207.5 0.5t-376.5 1t-186 0.5 q-46 0 -143.5 -1t-126.5 -1h-2q-85 0 -166 1t-105 1q-166 0 -310.5 -0.5t-235.5 -1t-156 -1t-99.5 -1t-39.5 -0.5q-23 0 -50.5 1t-60.5 2.5t-53 2.5q-6 0 -22 1.5t-28.5 1t-23.5 -4.5q-21 0 -60.5 2t-50.5 2t-27 -2t-24 -2h-2q-24 0 -72 2t-71 2q-8 0 -21 -1t-20 -1 q-40 0 -45 2q-10 0 -26.5 -2t-35.5 -2q-5 0 -14 1t-14 1q-13 0 -37 -4q-16 -6 -61 -6h-25q-33 1 -54.5 1t-31.5 -1q-50 0 -70 4q-25 0 -51.5 6.5t-26.5 22.5zM184 952q82 -90 138 -135q0 -8 47 -51.5t47 -56.5q4 -8 4 -13q0 -4 -2.5 -9.5t-5 -9t-8 -10.5t-7.5 -10 q-28 -39 -83.5 -106t-71.5 -88l-2 -4q-4 -6 -28 -29t-24 -31q1 0 2.5 -1t2.5 -1q0 2 2 2q3 0 9.5 -1t10.5 -1q23 0 75.5 1t78.5 1q4 0 12 -1t12 -1q39 0 96 11h3q8 0 22.5 -1t22.5 -1q7 0 21 1t20 1h6q18 0 49 -4.5t47 -4.5q65 0 86 4q6 0 20 -1t21 -1q10 0 30.5 3.5 t32.5 3.5q32 0 39 -7q6 0 20.5 4.5t20.5 4.5h16q34 0 88 -3q68 -4 97 -4h31q5 0 10.5 -2t9.5 -2l65 7q28 2 54 2q3 0 9 -1t9 -1h-1l107 -1q114 -1 260.5 -2.5t217.5 -1.5q52 0 91 3.5t63 3.5q36 0 108 -4.5t109 -4.5q109 0 211 9q52 0 102 -7q607 0 629 5q6 0 15 1t14 1 q24 0 63.5 -4.5t54.5 -4.5q4 0 10.5 2t10.5 2h33q23 0 86 4q50 3 92 3h20q19 0 37 -9l41 7h2q15 0 35.5 -3.5t28.5 -3.5q2 0 6 1t6 1q17 0 51 -2t49 -2q19 0 56 4.5t57 4.5h4q7 0 20.5 -1t20.5 -1q9 0 25.5 1t19.5 1h2q57 -11 96 -11q6 0 10 2q9 0 29.5 -1t28.5 -1 q33 0 75.5 1t55.5 1h2v-2l4 2q0 11 -12 23.5t-25 23t-14 13.5l-2 4q-4 4 -58 64t-87 104.5t-33 64.5q0 22 30 52q20 13 49 42q19 19 19 27l12 9q12 8 25 18.5t30.5 26t36 37t33.5 44.5q0 6 -43 6q-62 0 -350 5h-14q-7 0 -23.5 -4.5t-30.5 -4.5q-16 0 -52 2t-60 2 q-8 0 -23 -1t-22 -1h-580q-46 7 -690 7q-25 0 -69 3t-62 3t-56 -3t-57 -3q-57 0 -458 -3t-429 -4h-579q-5 0 -21 1t-24 1q-20 0 -50 -2t-42 -2q-15 0 -39 4.5t-35 4.5h-14q-250 -5 -306 -5q-28 7 -48 7q-27 0 -40 -13z" />
<glyph unicode="w" horiz-adv-x="5410" d="M102 473q0 4 13.5 21t40.5 37.5t55 27.5q26 13 99 60.5t73 60.5q0 3 -38 37.5t-58 48.5q-24 16 -76.5 52.5t-52.5 37.5q0 35 184 35q10 -1 30 -2t29 -2h52q21 0 64 -2t65 -2q15 0 46 2t48 2q24 0 70 -2t69 -2t69 1t68 1q9 0 30.5 -1t31.5 -1q8 0 24.5 1t24.5 1 q11 0 35 -1t35 -1q8 0 24 1t23 1t20 -1t19 -1q48 0 160.5 3t166.5 3q62 0 184 -4t183 -4q33 0 98 1t96 1h43q38 0 113.5 1t112.5 1h96q32 0 96 1t96 1q44 0 129.5 -1t128.5 -1h111q38 0 113.5 -1t113.5 -1h43q31 0 96.5 -1t98.5 -1q57 0 181.5 4t183.5 4q56 0 164.5 -3 t162.5 -3q6 0 19.5 1t19.5 1q8 0 25.5 -1t25.5 -1q12 0 34 1t34 1q8 0 24.5 -1t24.5 -1q10 0 30.5 1t30.5 1q22 0 69 -1t69 -1q24 0 70 2t69 2q17 0 48 -2t46 -2q21 0 64 2t65 2h51q9 1 29.5 2t30.5 2q182 0 182 -35q0 -3 -2 -5t-5.5 -4t-4.5 -3q-21 -9 -39.5 -21 t-42.5 -31.5t-33 -25.5q-2 -1 -21.5 -14.5t-34 -24.5t-28.5 -25t-14 -22q0 -10 33 -32t76.5 -47.5t56.5 -37.5q17 0 66.5 -35.5t49.5 -54.5q0 -20 -67 -20h-27q-40 0 -120.5 -2t-120.5 -2q-87 -5 -209 -5q-10 0 -30 1t-30 1h-30h-21q-19 0 -59 -2t-60 -2q-8 0 -25.5 1 t-25.5 1q-10 0 -31.5 -1t-31.5 -1h-170q-22 0 -68 -1t-68 -1q-106 0 -314 5.5t-322 5.5h-109q-13 0 -36 1t-34 1q-14 0 -38.5 -3.5t-36.5 -3.5q-5 0 -15.5 1.5t-15.5 1.5q-9 0 -27.5 -1.5t-27.5 -1.5q-165 7 -304 7q-34 0 -101.5 -2t-102.5 -2h-158q-100 0 -199 -3 q-9 0 -27.5 1.5t-27.5 1.5q-5 0 -15.5 -1.5t-15.5 -1.5q-13 0 -38 3.5t-38 3.5q-11 0 -34 -1t-35 -1h-53q-115 0 -346 -5.5t-347 -5.5q-22 0 -67 1t-68 1h-170q-12 0 -32.5 1t-30.5 1q-9 0 -26 -1t-25 -1q-19 0 -59 2t-60 2h-21h-30q-10 0 -30 -1t-30 -1q-75 0 -225 4.5 t-225 4.5h-27q-68 0 -68 20z" />
<glyph unicode="x" horiz-adv-x="3368" d="M102 369q0 14 19 36t45.5 47.5t34.5 36.5q9 13 46.5 54t53.5 67q5 8 37.5 37.5t32.5 46.5q0 4 -15.5 16.5t-37.5 30.5t-33 33q-18 21 -67.5 70t-82.5 86.5t-33 52.5q0 9 9 17t18 8h2q11 0 55.5 4t71.5 4q30 0 86 -2t76 -2q153 0 334 5t284 5q50 0 108.5 -2t74.5 -2h5 q5 1 12.5 1.5t18 1t23.5 1t27 0.5t29 -0.5t29.5 -1.5t29 -3t26.5 -5q18 0 71.5 3t94.5 3q60 0 145 4q60 2 99 2h31q44 -2 82 -12q18 4 53 4q33 0 70.5 1t56.5 1q35 0 82.5 2t83.5 2q110 0 241.5 -5t206.5 -5q26 0 146 2t227 2q11 0 32.5 -2t34.5 -2q89 0 89 -27 q0 -2 -13.5 -21t-40 -50.5t-55.5 -59.5q-10 -10 -59.5 -65t-73.5 -70q-25 -19 -25 -25q0 -9 33 -47t76 -86.5t59 -71.5q12 -19 38 -45.5t43.5 -45.5t17.5 -29q0 -37 -136 -37q-13 0 -38 2t-39 2q-10 0 -29 -1t-31 -1q-19 0 -49 4t-47 4q-5 0 -15 -1t-14 -1q-8 0 -23 3t-30 3 q-24 0 -87.5 -2t-96.5 -2q-18 0 -57.5 1t-59.5 1q-12 0 -41.5 -2t-44.5 -2q-9 0 -25 2t-22 2q-26 0 -103 -3t-108 -3q-36 0 -107.5 2t-107.5 2t-98.5 -2t-90.5 -2h-2h-45h-4h-63h-4h-45h-2q-15 0 -59 2t-73 2q-44 0 -128.5 -2t-127.5 -2q-6 0 -64 -1h-44q-30 1 -52 1 q-36 2 -63 6q-7 0 -25 -2t-26 -2q-16 0 -45.5 2t-38.5 2q-10 0 -27 -1t-26 -1h-2q-51 0 -113 2t-133 2q-12 0 -29.5 -3t-25.5 -3q-9 0 -13 2q-19 0 -53.5 -4t-56.5 -4q-27 0 -37 2q-17 0 -50 -2t-52 -2q-4 0 -12.5 1t-12.5 1h-37q-74 7 -74 35z" />
<glyph unicode="y" horiz-adv-x="2426" d="M102 422q8 8 35.5 36t39 39t33.5 30.5t42 33.5q3 3 13.5 11t16 15.5t5.5 16.5q0 11 -6 23q-9 15 -50.5 77.5t-62.5 101.5t-21 62q0 13 15 13q8 0 28 -4q523 -132 996 -132q158 0 266 5q8 0 23 -1t22 -1q92 0 216.5 16t212.5 32.5t231 45.5q7 2 55.5 26.5t56.5 24.5 q12 0 12 -10q0 -21 -25.5 -60t-56 -75t-56 -74.5t-25.5 -59.5q0 -5 51.5 -48.5t103 -92t51.5 -65.5q-109 -41 -224 -60.5t-281 -34.5q-264 -43 -631 -43q-127 0 -344 23q-394 43 -680 110q-6 2 -19 5t-23.5 6.5t-19.5 7.5z" />
<glyph unicode="z" horiz-adv-x="4247" d="M102 477q0 17 38 65.5t73 67.5q9 0 90.5 82.5t81.5 102.5q0 -1 -1 0.5t-3.5 5.5t-5.5 9t-8 12.5t-10.5 16t-13 19t-16 21t-19 23.5t-21.5 26q-9 10 -47 49.5t-59 64t-21 31.5q8 45 174 45q29 0 102.5 -6t112.5 -6q22 0 64.5 3t62.5 3q21 0 64.5 -3t66.5 -3t71.5 2t73.5 2 q10 0 29.5 -2t28.5 -2q8 0 23 2t22 2q13 0 39 -2t39 -2q8 0 24.5 2t24.5 2q7 0 21 -2t22 -2q52 0 159.5 6t159.5 6q74 0 244 -6q143 -5 232 -4h30q27 0 85.5 -1t88.5 -1q81 0 239.5 6t239.5 6q49 0 153 -6t167 -6q7 0 21.5 2t21.5 2q8 0 24.5 -2t24.5 -2q14 0 39 2t37 2 q8 0 23 -2t22 -2q10 0 29.5 2t29.5 2q25 0 73 -2t73 -2q21 0 65 3t66 3q20 0 62 -3t63 -3q36 0 111 6t106 6q165 0 174 -45q0 -19 -15 -26q-38 -28 -91 -95t-72 -86q-7 -7 -27 -36.5t-20 -34.5q0 -18 33.5 -53t76 -73t53.5 -53q2 -2 35.5 -31t58.5 -58t25 -50q0 -33 -69 -33 q-85 0 -242.5 -6t-235.5 -6q-15 0 -44 2t-46 2q-22 0 -66 -3t-67 -3q-9 0 -28.5 1t-28.5 1q-55 0 -176.5 -3t-184.5 -3q-305 0 -643 16q-9 0 -27.5 -1t-27.5 -1q-21 0 -62 2t-61 2q-14 0 -43 -4t-43 -4v4q-20 0 -59 1t-58 1q-308 -16 -643 -16q-59 0 -179.5 3t-182.5 3 q-9 0 -29 -1t-29 -1q-21 0 -65.5 3t-67.5 3q-15 0 -45 -2t-45 -2q-73 0 -221.5 6t-226.5 6q-60 0 -74 7q-23 10 -23 26z" />
<glyph unicode="{" />
<glyph unicode="|" />
<glyph unicode="}" />
<glyph unicode="~" />
<glyph unicode="&#x2018;" horiz-adv-x="5412" d="M102 477q0 14 14 37t31 33q7 4 28.5 29.5t37.5 33.5q2 0 44 38t85 84t43 63q-35 53 -96 133q-8 9 -28.5 29.5t-35 36t-31 33.5t-25.5 29.5t-9 16.5q8 45 174 45q29 0 102 -6t113 -6q20 0 57.5 3t55.5 3q24 0 72 -3t73 -3q23 0 71.5 2t73.5 2q10 0 29.5 -2t28.5 -2 q8 0 23 2t22 2q13 0 39 -2t39 -2q8 0 24.5 2t24.5 2q7 0 21 -2t22 -2q14 0 44 2t46 2h24q34 0 103 4t102 4q58 0 174 -6t174 -6h97h34q59 0 170.5 3t167.5 3q19 0 55.5 -1t53.5 -1q39 0 117.5 2t117.5 2q37 0 111 -2t111 -2q21 0 61 1t61 1q57 0 169 -3t171 -3h35h97 q57 0 173 6t173 6q35 0 103 -4t101 -4h27q14 0 44 -2t46 -2q6 0 21 2t22 2q8 0 24.5 -2t24.5 -2q14 0 39 2t37 2q8 0 23 -2t22 -2q9 0 29.5 2t30.5 2q25 0 73 -2t72 -2q25 0 72.5 3t70.5 3q20 0 57.5 -3t55.5 -3q36 0 109 6t108 6q165 0 174 -45q0 -20 -65 -90.5 t-115 -116.5q-45 -60 -45 -71q0 -9 8 -17q23 -31 79 -81.5t77 -80.5q10 -10 34 -30.5t44 -42t34 -45.5q6 -12 6 -21q0 -33 -69 -33h-27q-75 0 -225 -6t-225 -6q-15 0 -44 2t-46 2q-22 0 -67 -3t-67 -3q-9 0 -28.5 1t-28.5 1q-21 0 -61 -1t-60 -1h-102q-22 0 -68.5 -2 t-70.5 -2q-300 0 -641 16q-9 0 -28 -1t-28 -1q-22 0 -63 2t-60 2q-14 0 -37.5 -4t-35.5 -4q-6 0 -18.5 2t-18.5 2q-9 0 -26.5 -2t-26.5 -2q-46 0 -144 5t-149 5q-33 0 -102 -4t-105 -4h-156q-35 0 -104 -1t-105 -1q-8 0 -25.5 2t-25.5 2q-6 0 -18.5 -2t-18.5 -2q-13 0 -37 4 t-37 4q-21 0 -61.5 -2t-60.5 -2q-9 0 -28 1t-28 1q-300 -16 -643 -16q-22 0 -68.5 2t-70.5 2h-100q-21 0 -61.5 1t-59.5 1q-10 0 -29.5 -1t-28.5 -1q-23 0 -67.5 3t-65.5 3q-17 0 -46 -2t-44 -2q-75 0 -224 6t-226 6h-27q-70 0 -70 33zM193 500q0 -4 4 -4h6q52 -11 243 -11 h41q14 0 43 -2t45 -2q23 0 70 2t70 2q21 0 59 -3t57 -3q23 0 71 3t71 3q14 -2 45 -2q30 0 88 2t88 2q16 0 48 -2t48 -2q12 0 36 2t36 2q22 0 68 -4q43 0 265 5.5t314 5.5q51 0 137 -2.5t131 -2.5q72 0 215 4.5t213 4.5q79 0 238 -4.5t238 -4.5q36 0 106 2.5t117 2.5 q84 0 293 -5.5t264 -5.5q16 0 46 2t44 2q11 0 35 -2t35 -2q17 0 49 2t49 2q29 0 87 -2t87 -2q31 0 47 2q24 0 70.5 -3t68.5 -3q19 0 58.5 3t60.5 3q7 0 22 -2t21 -2q34 0 95.5 2t88.5 2h41q192 0 244 11h6q2 0 4 2v2q0 6 -65.5 75.5t-93.5 92.5q-31 25 -72 70t-41 57 q0 4 70 98l10 9l21.5 21.5l27.5 27.5t30.5 31.5t27.5 30.5t22.5 27t11.5 19q-6 6 -14 6t-24 -2t-23 -2t-20 1t-19 1h-23q-12 0 -33 1t-32 1q-26 0 -82.5 -6t-81.5 -6q-9 0 -28 3t-29 3h-9q-70 -5 -194 -5t-174 -3q-5 0 -14 1t-13 1q-8 0 -23.5 -3t-23.5 -3q-13 1 -34.5 2.5 t-40 2.5t-34.5 1h-26q-52 0 -157 4t-154 4q-19 0 -58 -2t-59 -2h-43q-21 0 -60 -3t-59 -3q-92 0 -283 4t-286 4q-14 0 -43 -1t-45 -1q-10 0 -32 1t-32 1q-47 0 -144 -2t-145 -2q-30 0 -88 2t-88 2q-92 0 -284 -4t-287 -4q-19 0 -58.5 3t-60.5 3h-43q-18 0 -56.5 2t-58.5 2 q-48 0 -154 -4t-157 -4h-27q-16 0 -34 -1t-39.5 -2.5t-34.5 -2.5q-8 0 -23.5 3t-23.5 3q-4 0 -13 -1t-14 -1q-167 8 -377 8q-9 0 -29.5 -3t-29.5 -3q-26 0 -81 6t-81 6q-12 0 -33.5 -1t-31.5 -1h-23q-6 0 -20 -1t-21 -1q-8 0 -23.5 2t-23.5 2q-6 0 -12 -6q7 -20 70 -82.5 t79 -83.5q9 -9 39.5 -48.5t30.5 -49.5q1 -13 -38.5 -55t-74.5 -72q-40 -34 -98.5 -95t-58.5 -73z" />
<glyph unicode="&#x2019;" horiz-adv-x="5412" d="M102 477q0 14 14 37t31 33q7 4 28.5 29.5t37.5 33.5q2 0 44 38t85 84t43 63q-35 53 -96 133q-8 9 -28.5 29.5t-35 36t-31 33.5t-25.5 29.5t-9 16.5q8 45 174 45q29 0 102 -6t113 -6q20 0 57.5 3t55.5 3q24 0 72 -3t73 -3q23 0 71.5 2t73.5 2q10 0 29.5 -2t28.5 -2 q8 0 23 2t22 2q13 0 39 -2t39 -2q8 0 24.5 2t24.5 2q7 0 21 -2t22 -2q14 0 44 2t46 2h24q34 0 103 4t102 4q58 0 174 -6t174 -6h97h34q59 0 170.5 3t167.5 3q19 0 55.5 -1t53.5 -1q39 0 117.5 2t117.5 2q37 0 111 -2t111 -2q21 0 61 1t61 1q57 0 169 -3t171 -3h35h97 q57 0 173 6t173 6q35 0 103 -4t101 -4h27q14 0 44 -2t46 -2q6 0 21 2t22 2q8 0 24.5 -2t24.5 -2q14 0 39 2t37 2q8 0 23 -2t22 -2q9 0 29.5 2t30.5 2q25 0 73 -2t72 -2q25 0 72.5 3t70.5 3q20 0 57.5 -3t55.5 -3q36 0 109 6t108 6q165 0 174 -45q0 -20 -65 -90.5 t-115 -116.5q-45 -60 -45 -71q0 -9 8 -17q23 -31 79 -81.5t77 -80.5q10 -10 34 -30.5t44 -42t34 -45.5q6 -12 6 -21q0 -33 -69 -33h-27q-75 0 -225 -6t-225 -6q-15 0 -44 2t-46 2q-22 0 -67 -3t-67 -3q-9 0 -28.5 1t-28.5 1q-21 0 -61 -1t-60 -1h-102q-22 0 -68.5 -2 t-70.5 -2q-300 0 -641 16q-9 0 -28 -1t-28 -1q-22 0 -63 2t-60 2q-14 0 -37.5 -4t-35.5 -4q-6 0 -18.5 2t-18.5 2q-9 0 -26.5 -2t-26.5 -2q-46 0 -144 5t-149 5q-33 0 -102 -4t-105 -4h-156q-35 0 -104 -1t-105 -1q-8 0 -25.5 2t-25.5 2q-6 0 -18.5 -2t-18.5 -2q-13 0 -37 4 t-37 4q-21 0 -61.5 -2t-60.5 -2q-9 0 -28 1t-28 1q-300 -16 -643 -16q-22 0 -68.5 2t-70.5 2h-100q-21 0 -61.5 1t-59.5 1q-10 0 -29.5 -1t-28.5 -1q-23 0 -67.5 3t-65.5 3q-17 0 -46 -2t-44 -2q-75 0 -224 6t-226 6h-27q-70 0 -70 33zM193 500q0 -4 4 -4h6q52 -11 243 -11 h41q14 0 43 -2t45 -2q23 0 70 2t70 2q21 0 59 -3t57 -3q23 0 71 3t71 3q14 -2 45 -2q30 0 88 2t88 2q16 0 48 -2t48 -2q12 0 36 2t36 2q22 0 68 -4q43 0 265 5.5t314 5.5q51 0 137 -2.5t131 -2.5q72 0 215 4.5t213 4.5q79 0 238 -4.5t238 -4.5q36 0 106 2.5t117 2.5 q84 0 293 -5.5t264 -5.5q16 0 46 2t44 2q11 0 35 -2t35 -2q17 0 49 2t49 2q29 0 87 -2t87 -2q31 0 47 2q24 0 70.5 -3t68.5 -3q19 0 58.5 3t60.5 3q7 0 22 -2t21 -2q34 0 95.5 2t88.5 2h41q192 0 244 11h6q2 0 4 2v2q0 6 -65.5 75.5t-93.5 92.5q-31 25 -72 70t-41 57 q0 4 70 98l10 9l21.5 21.5l27.5 27.5t30.5 31.5t27.5 30.5t22.5 27t11.5 19q-6 6 -14 6t-24 -2t-23 -2t-20 1t-19 1h-23q-12 0 -33 1t-32 1q-26 0 -82.5 -6t-81.5 -6q-9 0 -28 3t-29 3h-9q-70 -5 -194 -5t-174 -3q-5 0 -14 1t-13 1q-8 0 -23.5 -3t-23.5 -3q-13 1 -34.5 2.5 t-40 2.5t-34.5 1h-26q-52 0 -157 4t-154 4q-19 0 -58 -2t-59 -2h-43q-21 0 -60 -3t-59 -3q-92 0 -283 4t-286 4q-14 0 -43 -1t-45 -1q-10 0 -32 1t-32 1q-47 0 -144 -2t-145 -2q-30 0 -88 2t-88 2q-92 0 -284 -4t-287 -4q-19 0 -58.5 3t-60.5 3h-43q-18 0 -56.5 2t-58.5 2 q-48 0 -154 -4t-157 -4h-27q-16 0 -34 -1t-39.5 -2.5t-34.5 -2.5q-8 0 -23.5 3t-23.5 3q-4 0 -13 -1t-14 -1q-167 8 -377 8q-9 0 -29.5 -3t-29.5 -3q-26 0 -81 6t-81 6q-12 0 -33.5 -1t-31.5 -1h-23q-6 0 -20 -1t-21 -1q-8 0 -23.5 2t-23.5 2q-6 0 -12 -6q7 -20 70 -82.5 t79 -83.5q9 -9 39.5 -48.5t30.5 -49.5q1 -13 -38.5 -55t-74.5 -72q-40 -34 -98.5 -95t-58.5 -73z" />
<glyph unicode="&#x201c;" horiz-adv-x="6203" d="M102 723q0 26 13 31.5t59 5.5q51 0 153.5 -1t153.5 -1q53 0 160 2t160 2h82q44 0 132.5 2t133.5 2q15 0 50.5 -4t53.5 -4q26 0 78 2t80 2q63 0 198.5 -2t202.5 -2q42 0 127 3t127 3q18 0 55.5 -1t57.5 -1h82q53 0 159.5 -2t159.5 -2q181 0 271 2q36 0 39 -23q2 -2 2 -8 q-1 -13 -11.5 -22t-31 -14t-41.5 -8t-52 -3.5t-53 -0.5t-54 0.5t-46 0.5q-42 0 -127 3t-127 3q-25 0 -74 -3t-73 -3q-12 0 -35 1t-35 1t-35 -1t-35 -1q-27 0 -51 6q-29 -4 -86 -4h-74q-17 0 -48 -3t-46 -3q-39 0 -114 2t-113 2q-37 0 -111 -2t-112 -2q-17 0 -49.5 3t-47.5 3 h-73q-57 0 -86 4q-24 -6 -52 -6q-11 0 -34 1t-35 1q-13 0 -37 -1t-35 -1q-24 0 -73 3t-72 3q-43 0 -127.5 -3t-126.5 -3q-3 0 -273 6h-24q-60 0 -60 35zM3015 711q0 38 29 65t79 27q21 0 43.5 -26.5t22.5 -47.5q0 -33 -21 -65.5t-67 -32.5q-35 0 -60.5 24t-25.5 56z M3312 723q0 26 12.5 31.5t58.5 5.5q51 0 153.5 -1t153.5 -1q53 0 160 2t160 2h82q44 0 132.5 2t133.5 2q18 0 52 -4t53 -4q27 0 79 2t78 2q66 0 201 -2t201 -2q43 0 127.5 3t126.5 3q18 0 56 -1t56 -1h82q53 0 160 -2t160 -2q180 0 270 2q36 0 39 -23q2 -2 2 -8 q-1 -13 -11.5 -22t-31 -14t-41.5 -8t-52 -3.5t-53 -0.5t-54 0.5t-46 0.5q-42 0 -126 3t-126 3q-25 0 -74.5 -3t-72.5 -3q-13 0 -36 1t-34 1q-13 0 -36.5 -1t-34.5 -1q-28 0 -52 6q-29 -4 -86 -4h-73q-17 0 -48.5 -3t-46.5 -3q-38 0 -113 2t-112 2q-38 0 -112.5 -2t-112.5 -2 q-17 0 -49 3t-47 3h-74q-57 0 -86 4q-24 -6 -51 -6q-11 0 -35 1t-35 1q-13 0 -36 -1t-34 -1q-25 0 -74 3t-73 3q-43 0 -127.5 -3t-126.5 -3q-2 0 -272 6h-25q-59 0 -59 35z" />
<glyph unicode="&#x201d;" horiz-adv-x="6203" d="M102 723q0 26 13 31.5t59 5.5q51 0 153.5 -1t153.5 -1q53 0 160 2t160 2h82q44 0 132.5 2t133.5 2q15 0 50.5 -4t53.5 -4q26 0 78 2t80 2q63 0 198.5 -2t202.5 -2q42 0 127 3t127 3q18 0 55.5 -1t57.5 -1h82q53 0 159.5 -2t159.5 -2q181 0 271 2q36 0 39 -23q2 -2 2 -8 q-1 -13 -11.5 -22t-31 -14t-41.5 -8t-52 -3.5t-53 -0.5t-54 0.5t-46 0.5q-42 0 -127 3t-127 3q-25 0 -74 -3t-73 -3q-12 0 -35 1t-35 1t-35 -1t-35 -1q-27 0 -51 6q-29 -4 -86 -4h-74q-17 0 -48 -3t-46 -3q-39 0 -114 2t-113 2q-37 0 -111 -2t-112 -2q-17 0 -49.5 3t-47.5 3 h-73q-57 0 -86 4q-24 -6 -52 -6q-11 0 -34 1t-35 1q-13 0 -37 -1t-35 -1q-24 0 -73 3t-72 3q-43 0 -127.5 -3t-126.5 -3q-3 0 -273 6h-24q-60 0 -60 35zM3015 711q0 38 29 65t79 27q21 0 43.5 -26.5t22.5 -47.5q0 -33 -21 -65.5t-67 -32.5q-35 0 -60.5 24t-25.5 56z M3312 723q0 26 12.5 31.5t58.5 5.5q51 0 153.5 -1t153.5 -1q53 0 160 2t160 2h82q44 0 132.5 2t133.5 2q18 0 52 -4t53 -4q27 0 79 2t78 2q66 0 201 -2t201 -2q43 0 127.5 3t126.5 3q18 0 56 -1t56 -1h82q53 0 160 -2t160 -2q180 0 270 2q36 0 39 -23q2 -2 2 -8 q-1 -13 -11.5 -22t-31 -14t-41.5 -8t-52 -3.5t-53 -0.5t-54 0.5t-46 0.5q-42 0 -126 3t-126 3q-25 0 -74.5 -3t-72.5 -3q-13 0 -36 1t-34 1q-13 0 -36.5 -1t-34.5 -1q-28 0 -52 6q-29 -4 -86 -4h-73q-17 0 -48.5 -3t-46.5 -3q-38 0 -113 2t-112 2q-38 0 -112.5 -2t-112.5 -2 q-17 0 -49 3t-47 3h-74q-57 0 -86 4q-24 -6 -51 -6q-11 0 -35 1t-35 1q-13 0 -36 -1t-34 -1q-25 0 -74 3t-73 3q-43 0 -127.5 -3t-126.5 -3q-2 0 -272 6h-25q-59 0 -59 35z" />
<glyph unicode="&#x25fc;" horiz-adv-x="1024" d="M0 0v1024h1024v-1024h-1024z" />
</font>
</defs>
</svg>
