<?xml version="1.0" standalone="no"?>
<!DOCTYPE svg PUBLIC "-//W3C//DTD SVG 1.1//EN" "http://www.w3.org/Graphics/SVG/1.1/DTD/svg11.dtd" >
<svg xmlns="http://www.w3.org/2000/svg" xmlns:xlink="http://www.w3.org/1999/xlink" version="1.1">
<metadata></metadata>
<defs>
<font id="cursifregular" horiz-adv-x="2048" >
<font-face units-per-em="2048" ascent="1638" descent="-410" />
<missing-glyph horiz-adv-x="634" />
<glyph horiz-adv-x="0" />
<glyph unicode="&#xd;" />
<glyph unicode=" "  horiz-adv-x="634" />
<glyph unicode="&#x09;" horiz-adv-x="634" />
<glyph unicode="&#xa0;" horiz-adv-x="634" />
<glyph unicode="!" horiz-adv-x="778" d="M410 132l2 2q0 54 32 92q32 40 86 40q48 0 86 -34q40 -44 40 -100t-36 -92q-40 -40 -90 -40q-48 0 -86 38q-34 34 -34 94zM418 1886l228 2l-16 -402q0 -224 -42 -560q-6 -38 -8 -54q-2 -18 -10 -72q-6 -30 -12 -70t-12 -88h-36q-6 30 -14 86q0 10 -3 24t-3 34 q-4 20 -7 40t-5 44q-8 56 -10 84q-4 28 -4 42q-4 28 -4 42q-4 28 -6 44q-2 14 -2 42q-22 248 -22 368q0 12 -1 35t-1 59v46v70q-4 44 -4 58q-2 12 -3 26t-1 26q0 22 -1 41t-1 33z" />
<glyph unicode="&#x22;" horiz-adv-x="1332" d="M188 2616v40q0 82 38 130q34 44 116 44q66 0 110 -44q40 -50 40 -130v-30l-6 -50l-116 -836h-58l-118 834zM836 2616v40q0 90 36 130q32 44 112 44q72 0 114 -46q40 -54 40 -128v-30l-6 -52l-116 -834h-60l-114 834z" />
<glyph unicode="#" horiz-adv-x="3150" d="M258 960l62 154h676l212 592h-736l56 154h738l354 970h186l-348 -970h598l352 970h192l-352 -970h644l-54 -154h-646l-214 -592h696l-56 -154h-696l-350 -960h-192l348 960h-604l-346 -960h-188l348 960h-680zM1182 1114h602l214 592h-596z" />
<glyph unicode="$" horiz-adv-x="1364" d="M218 348q0 100 52 166q52 62 178 98l-36 -102q-4 -48 -4 -42q-2 -10 -2 -42q0 -90 34 -164q32 -72 96 -120v798q-144 100 -208 216q-64 112 -64 252q0 142 68 248q70 110 204 176v514h42v-498l96 14l90 10v474h48v-474q74 -12 126 -36q44 -22 92 -60q70 -68 70 -182 q0 -62 -20 -110q-24 -52 -60 -72l-114 -56l20 96l6 102q0 66 -28 122q-36 56 -92 110v-726q172 -128 260 -250q78 -118 78 -248q0 -160 -90 -292q-90 -138 -248 -212v-520h-48v500l-92 -16l-94 -8v-476h-42v478q-154 20 -238 112q-80 82 -80 220zM412 1528q0 -76 32 -146 q18 -66 92 -128v2v518q-64 -40 -92 -98q-32 -72 -32 -148zM578 120l62 -26l58 -6l58 6h10l-2 678l-38 28l-148 104v-784zM578 1798l2 -578l96 -72l88 -60v716l-52 6l-32 2q-32 0 -50 -4q-32 0 -52 -10zM812 740l2 -632q90 44 134 122q44 80 44 196q0 96 -44 174 q-34 58 -136 140z" />
<glyph unicode="%" horiz-adv-x="2180" d="M238 1328q0 180 158 336q162 154 366 154q72 0 136 -20q52 -16 118 -58q68 -56 134 -76q60 -26 132 -26q116 0 248 64q124 68 216 190l64 -6l-1392 -2124h-66l1284 1968q-102 -68 -180 -94q-96 -30 -188 -30q-64 0 -104 8q-46 8 -70 32l28 -68q0 -12 8 -38q2 -10 2 -38 q0 -192 -158 -350q-164 -160 -358 -160q-164 0 -272 94q-106 92 -106 242zM448 1396q0 -178 60 -268q52 -92 168 -92v2q114 0 180 100q66 104 66 278q0 158 -52 262q-54 96 -156 96q-122 0 -190 -102q-76 -108 -76 -276zM1004 114q0 186 158 340q152 152 356 152 q160 0 272 -88q110 -94 110 -224q0 -204 -164 -352q-168 -160 -372 -160l2 -2q-154 0 -258 98q-104 100 -104 236zM1216 188q0 -180 60 -270t174 -90l2 -2q94 0 168 106q66 102 66 264q0 176 -52 272q-62 94 -158 94q-124 0 -192 -100q-68 -102 -68 -274z" />
<glyph unicode="&#x26;" horiz-adv-x="214" d="M0 66q54 44 124 146q62 116 88 186l34 -62q-40 -114 -92 -198q-66 -104 -116 -138z" />
<glyph unicode="'" horiz-adv-x="684" d="M234 1856q0 8 14 32q82 82 120 154q36 72 36 130q0 44 -18 90q-8 6 -42 68q-4 12 -4 22q0 36 58 92q56 50 106 50q18 0 24 -12l2 2q30 -48 48 -96q24 -58 24 -108q0 -42 -16 -106q-18 -44 -60 -110q-48 -66 -116 -128q-18 -18 -40 -38q-6 -4 -9 -8t-7 -6q-6 -4 -18 -16 q-36 -28 -42 -34q-18 -10 -30 -10q-30 0 -30 32z" />
<glyph unicode="(" horiz-adv-x="1376" d="M498 1244q0 602 226 1088q212 472 660 802v-46q-342 -292 -502 -736q-86 -256 -120 -502q-42 -282 -42 -606q0 -658 160 -1100q156 -448 504 -734v-58q-438 310 -660 794q-120 258 -168 516q-58 276 -58 582z" />
<glyph unicode=")" horiz-adv-x="1376" d="M310 -648l2 46q326 280 498 732q164 446 164 1104q0 642 -162 1102q-170 446 -502 736v62q428 -318 656 -800q230 -490 230 -1100q0 -598 -226 -1086q-230 -470 -660 -796z" />
<glyph unicode="*" horiz-adv-x="1624" d="M252 84l472 474l-452 452l80 84l454 -456l456 456l82 -84l-452 -454l464 -466l-84 -84l-466 466l-474 -472z" />
<glyph unicode="+" horiz-adv-x="1792" d="M278 524v118h542v542h118v-540l544 -2v-118h-544v-538h-118v538h-542z" />
<glyph unicode="," horiz-adv-x="684" d="M304 -416q0 16 14 32q82 82 118 154q38 72 38 130q0 50 -20 92q-14 12 -40 64q-4 4 -4 20q0 42 60 94q54 50 104 50q14 0 24 -14l2 2q24 -40 48 -96q24 -60 24 -106q0 -48 -18 -102q-18 -52 -58 -112q-62 -76 -116 -128q-28 -28 -40 -38l-18 -12q4 6 -18 -16 q-6 -2 -10 -6l-10 -10q-6 -8 -22 -20q-16 -8 -26 -8q-32 0 -32 30z" />
<glyph unicode="-" horiz-adv-x="910" d="M94 458l32 172h704l-30 -170z" />
<glyph unicode="." horiz-adv-x="684" d="M410 122l2 2q0 48 32 84q34 38 86 38t86 -34q40 -38 40 -90t-36 -84q-38 -38 -90 -38q-50 0 -86 34q-34 26 -34 88z" />
<glyph unicode="/" horiz-adv-x="1196" d="M-86 -378l1454 2988l84 -2l-1452 -2986h-86z" />
<glyph unicode="0" horiz-adv-x="1414" d="M192 946q0 428 166 692q152 248 382 248q194 0 330 -218q134 -226 134 -588q0 -480 -148 -788q-148 -298 -376 -302l2 -2q-204 0 -346 284q-144 284 -144 674zM356 1040q0 -454 138 -712q120 -228 306 -228q118 0 224 296q104 304 104 662q0 390 -146 596 q-124 174 -302 174q-122 0 -218 -208q-106 -238 -106 -580z" />
<glyph unicode="1" horiz-adv-x="1146" d="M262 1058q98 128 194 348q64 168 120 332q8 44 38 148h176v-1888h-202v14v18v16v20v18v20v21v23v21v23v24v24v25v25v26v28v26v28v28v30v29v33v30v34v32v34v34v36v34v36v38v38v37v39v37v39v38v40v38v40v38v40v38v40v38v40v39v39q-32 -138 -112 -252q-6 -6 -11 -15t-11 -15 q-6 -8 -11 -15t-11 -13q-32 -46 -42 -58q-18 -24 -40 -53t-44 -61z" />
<glyph unicode="2" horiz-adv-x="1270" d="M124 0q50 122 78 180q38 86 92 166q8 14 21 37t31 53q8 14 23 37t33 55q20 30 48 76t64 106q146 236 236 430q114 234 114 350q0 146 -78 218q-86 76 -200 76t-208 -106q-106 -116 -106 -276v-6v-4v-5v-6v-4v-3v-3v-3v-3v-3v-3v-3v-3t-16 29t-16 106q0 148 114 272 q110 126 258 126l2 2q194 0 306 -120q100 -120 100 -302q0 -152 -66 -314q-46 -114 -240 -388q-30 -48 -70 -100q-20 -28 -41 -55t-41 -55q-12 -14 -22 -29t-20 -27q-12 -16 -23 -30t-21 -26q-28 -40 -44 -58q-12 -16 -22 -30l-20 -28q-166 -210 -168 -210q82 54 160 92 q106 52 204 52h3h3h4h4h4h4h6h6q4 0 54 -10q26 -8 174 -100q56 -36 116 -36h4h6h6h3h3h4h4h4q12 0 30 12q10 4 42 46l28 -28q-48 -88 -108 -112q-28 -20 -100 -32h-4h-4h-5h-5h-5h-5h-9h-5q-64 0 -166 50q-114 54 -176 54q-122 0 -204 -34q-106 -50 -178 -70z" />
<glyph unicode="3" horiz-adv-x="1270" d="M142 426q26 -172 160 -264q114 -90 236 -90v2q136 0 242 140q108 146 108 344q0 272 -208 382q-74 32 -206 46v42q182 16 284 146q96 122 96 330q0 156 -78 226q-82 70 -206 70t-216 -92q-96 -92 -110 -202q0 22 -1 35t-1 19q0 134 98 230q96 96 264 96q174 0 300 -102 q122 -110 122 -256q0 -164 -64 -266q-94 -134 -308 -230q226 0 342 -122q104 -114 104 -304q0 -254 -146 -426q-162 -182 -418 -182q-182 0 -282 106q-112 114 -112 322z" />
<glyph unicode="4" horiz-adv-x="1386" d="M168 510q12 26 25 56t27 60q12 30 27 62t31 66q12 32 28 68t32 74q16 36 33 74t35 78q24 66 54 135t62 141q12 30 25 60t25 60q12 28 23 56t21 52q4 12 9 24t11 24l8 24t10 24q6 18 16 40t22 48q18 48 33 86t23 64q20 -4 40 -6t38 -4q44 -8 62 -10h3h3h4h6h3h3l38 10 q-14 -42 -45 -125t-77 -203q-12 -22 -23 -47t-23 -53q-16 -36 -22 -54l-12 -28t-12 -26q-16 -36 -28 -64t-22 -52q-20 -40 -28 -60q-6 -18 -13 -33t-13 -29q-8 -18 -16 -34t-14 -32q-16 -32 -28 -62q-8 -18 -16 -33t-14 -31q-8 -16 -15 -32t-13 -30q-8 -16 -15 -32t-13 -32 q-12 -30 -28 -62t-28 -62q-6 -18 -13 -33t-13 -27h12h12h10h12h11h11h12h12h11h11h11h11h9h11h11h11h9h11h11h11h9h11h10h10h9h11h9h11h8h10h10h10l2 304h188v-10v-10v-10v-8v-11v-9v-11v-9v-11v-9v-11v-9v-10v-8v-10v-8v-10v-10v-10v-8v-11v-9v-11v-9v-11v-9v-11v-9v-10v-8 v-11v-9h8h5h9h5h7h7h9h5h9h7h9h8h10h8h10h6h10h8h10h9h11h9h9h9h11h8h10h11h11h9h11q-6 -46 -6 -42q0 -6 4 -34h-34h-32h-26h-7h-5h-7h-5h-6h-6h-5h-5h-5h-5h-5h-5h-6h-6h-4h-4h-5h-5h-5h-5h-5h-5h-5h-5h-5h-5h-4h-4h-5h-5h-4h-16v-3v-2v-2v-2v-2v-2v-3v-3v-3v-4v-5v-5v-4 v-4v-6v-4v-5v-5v-4v-4v-5v-5v-4v-4v-5v-4v-4v-6v-4v-2v-56t12 -211q0 -58 12 -132h-7h-5h-7h-5h-5h-5h-4h-4h-5h-5h-4h-4h-5h-4h-4h-4h-3h-4h-5h-5h-5h-5h-4h-3h-3h-4h-3h-2h-2h-2h-2h-3h-3t-3 -1t-3 -1h-2h-2h-2t-9 -1t-20 -1q-6 0 -12 -1t-10 -3h-6h-6t-5 -1t-5 -3v-2v17 v19v19v19v18v20v18v20v16v18v18v18v17v19v16v18v15v17v15v17v14v16v14v16v14v16v13v15v13v15v13v15h-12h-12q-8 0 -16 -1t-14 -1h-28h-42q-34 -2 -90 -2h-26h-26h-29h-29q-40 -2 -66 -2h-38h-23h-19h-19h-15h-14h-12h-11h-9q-6 0 -10 -1t-8 -1z" />
<glyph unicode="5" horiz-adv-x="1270" d="M144 416q0 18 1 34t1 28q32 -212 186 -314q110 -74 256 -74l2 2q120 0 214 164q94 168 94 360q0 246 -94 368q-100 114 -282 114q-90 0 -142 -10q-184 -24 -188 -24q0 10 30 106q4 20 6 32q6 18 10 34q4 18 10 36t12 38q8 44 40 152q8 24 10 36q2 8 5 18t7 20q6 26 11 46 t11 32q6 26 11 44t7 26q2 12 8 29t12 41q8 36 20 68q2 12 10 32q2 14 10 32h640l10 -58h-16h-14h-16h-14h-16h-14h-16h-14h-16h-14h-18h-14h-16h-14h-17h-13h-17h-15h-18h-14h-16h-16h-18h-14h-18h-16h-18h-16h-17h-15h-18h-14q-16 -54 -66 -228q-8 -26 -28 -86 q-6 -20 -14 -45t-16 -55q-10 -34 -19 -62t-15 -52q-4 -14 -9 -30t-9 -32q-6 -20 -18 -64q140 30 260 30q182 0 320 -150q142 -158 142 -370q0 -286 -144 -486q-148 -198 -368 -198q-176 0 -296 88q-146 108 -146 328z" />
<glyph unicode="6" horiz-adv-x="1270" d="M178 748q0 550 144 848q140 290 400 290q92 0 184 -62q124 -94 124 -256q-60 134 -116 182q-60 48 -174 48q-186 0 -270 -328q-64 -260 -64 -576q72 90 152 132q76 44 168 44q166 0 272 -130q102 -132 102 -358q0 -288 -118 -438q-118 -152 -320 -152q-214 0 -336 170 q-148 198 -148 586zM406 740q0 -370 98 -530q74 -130 228 -130q140 0 218 144q82 142 82 354q0 174 -82 294q-80 118 -218 118q-128 0 -206 -68q-88 -66 -120 -182z" />
<glyph unicode="7" horiz-adv-x="1236" d="M242 0q6 30 18 60q4 14 9 29t11 31q4 14 9 29l11 33q6 14 11 29t11 31q28 94 60 176q22 66 64 178q10 30 20 59t22 59t22 58t22 58q10 26 20 54t22 56q10 26 21 52t21 52h-178v106h226q30 84 64 163t68 151q78 190 158 342h-25h-25h-24h-24h-24h-22h-24h-22h-24h-24h-23 h-23h-23h-23h-23h-21h-23h-21h-23h-21h-22h-20h-22h-18h-20h-18h-21h-17h-20h-18h-19h-17l-12 80h858l-258 -736h130v-106h-166q-32 -92 -59 -174t-51 -154t-43 -132t-31 -108q-88 -284 -126 -476h-260z" />
<glyph unicode="8" horiz-adv-x="1296" d="M176 456q0 138 82 270q72 116 240 266h2q-160 124 -206 214q-56 90 -56 214q0 218 122 340q122 126 332 126q154 0 258 -112q106 -114 106 -262q0 -116 -62 -202q-70 -94 -230 -210q160 -100 260 -230q104 -142 104 -288q0 -292 -130 -440q-130 -142 -410 -142 q-194 0 -298 128q-114 128 -114 328zM260 502q0 -210 84 -306q90 -118 310 -118q114 0 208 84q118 102 118 286q0 116 -82 226q-94 116 -332 272l2 2q-124 -112 -198 -204q-110 -148 -110 -242zM382 1520q0 -118 58 -188q62 -96 254 -196h2q102 58 184 152q100 112 100 206 q0 162 -100 256q-96 80 -226 80q-112 0 -178 -70q-94 -86 -94 -240z" />
<glyph unicode="9" horiz-adv-x="1296" d="M170 1312q0 272 140 430q126 144 342 144q236 0 346 -202q108 -210 108 -634q0 -508 -122 -762q-130 -288 -412 -288q-178 0 -286 96t-108 288q32 -172 174 -248q96 -56 226 -56l2 2q160 0 248 318q66 264 66 694q-60 -120 -144 -184q-90 -72 -174 -72q-160 0 -280 134 q-126 134 -126 340zM356 1388q0 -224 68 -330q68 -118 212 -118q84 0 174 104q74 80 90 186l2 4q0 574 -278 574q-100 0 -178 -112q-90 -124 -90 -308z" />
<glyph unicode=":" horiz-adv-x="742" d="M410 136h2q0 58 32 96q36 42 86 42t86 -36q40 -44 40 -102t-36 -94q-36 -42 -90 -42q-46 0 -86 38q-34 34 -34 98zM410 804l2 2q0 54 32 96q36 42 86 42t86 -38q40 -40 40 -102q0 -56 -36 -94q-36 -42 -90 -42q-48 0 -86 38q-34 34 -34 98z" />
<glyph unicode=";" horiz-adv-x="742" d="M304 -414q0 18 14 36q80 88 118 164t38 140q0 58 -20 94q-2 0 -40 74q-4 8 -4 24q0 44 60 98q54 54 104 54q18 0 24 -12l2 2q22 -44 48 -104q24 -60 24 -116q0 -52 -18 -110q-16 -46 -58 -118q-44 -66 -116 -138q-42 -40 -118 -110q-18 -10 -26 -10q-32 0 -32 32z M410 810l2 2q0 52 32 90q36 42 86 42q44 0 86 -36q40 -40 40 -98q0 -54 -36 -92q-40 -40 -90 -40q-46 0 -86 38q-34 34 -34 94zM410 810l2 2q0 52 32 90q36 42 86 42q44 0 86 -36q40 -40 40 -98q0 -54 -36 -92q-40 -40 -90 -40q-46 0 -86 38q-34 34 -34 94zM410 810l2 2 q0 52 32 90q36 42 86 42q44 0 86 -36q40 -40 40 -98q0 -54 -36 -92q-40 -40 -90 -40q-46 0 -86 38q-34 34 -34 94z" />
<glyph unicode="&#x3c;" horiz-adv-x="1624" d="M290 840v200l1042 848l-2 -228l-872 -722l858 -696v-242z" />
<glyph unicode="=" horiz-adv-x="1792" d="M278 184v118h1206l-2 -118h-1204zM278 624v118l1206 2l-2 -120h-1204z" />
<glyph unicode="&#x3e;" horiz-adv-x="1624" d="M294 1660v226l1040 -846l2 -198l-1028 -842v242l858 696z" />
<glyph unicode="?" horiz-adv-x="1156" d="M228 1580q0 128 120 216q120 90 290 90q186 0 300 -98q118 -104 118 -256q0 -60 -18 -128q-22 -58 -60 -106q-50 -60 -170 -180q-114 -102 -170 -174q-56 -74 -66 -154q-8 -24 -14 -104q-6 -66 -6 -130h-40q0 166 14 268t44 160q18 50 142 236q124 192 124 334 q0 126 -70 206q-72 74 -196 74q-96 0 -190 -62q-94 -70 -94 -108l88 -30q88 -28 88 -118q0 -50 -32 -78l-12 -8q-18 -12 -16 -10q-28 -10 -50 -10q-56 0 -92 46q-32 48 -32 124zM410 132l2 2q0 52 32 90q36 42 86 42q52 0 86 -36q40 -38 40 -98q0 -56 -36 -92 q-40 -40 -90 -40q-46 0 -84 38q-36 38 -36 94z" />
<glyph unicode="@" horiz-adv-x="4038" d="M300 1040q0 400 164 744q164 340 492 614q134 110 272 186q142 82 296 138q314 108 666 108q676 0 1082 -364q404 -368 404 -976q0 -306 -112 -580q-116 -276 -322 -458q-114 -106 -244 -164q-66 -30 -122 -40q-56 -14 -128 -14q-188 0 -290 108q-56 52 -82 134 q-30 90 -30 186l2 2q-114 -214 -270 -322t-354 -108q-226 0 -366 180q-144 180 -144 472q0 204 94 420q90 208 268 380q122 122 278 198q156 72 296 72q166 0 272 -100q106 -98 158 -294l112 362h236l-328 -1184l-4 -12q-36 -138 -36 -202q0 -102 54 -158q48 -58 150 -58 q96 0 212 56q112 52 220 156q186 170 296 436q108 260 108 536q0 564 -382 914q-382 346 -1014 346q-350 0 -640 -112q-296 -112 -532 -328q-268 -250 -404 -586q-136 -342 -136 -752q0 -342 108 -590q108 -254 348 -452q232 -198 522 -302q302 -106 632 -106t648 106 q150 52 296 126q136 74 276 178l52 -60q-76 -52 -149 -99t-145 -85q-150 -78 -312 -138q-322 -108 -668 -108q-376 0 -672 88q-300 94 -530 274q-300 224 -448 534q-150 314 -150 698zM1440 732q0 -200 86 -308q86 -114 234 -114q122 0 254 88q124 86 242 266 q118 174 184 388q36 126 48 204q20 108 20 188q0 188 -108 318q-106 130 -258 130h2q-114 0 -204 -58q-90 -60 -186 -204q-150 -220 -230 -460q-84 -252 -84 -438z" />
<glyph unicode="A" horiz-adv-x="2574" d="M6 630q0 176 112 314q110 132 246 132q66 0 122 -32q54 -40 94 -100q44 -66 44 -110q0 -30 -28 -50q-28 -18 -50 -18q-32 0 -32 40q0 20 12 54q-40 54 -82 94q-44 32 -76 32q-84 0 -138 -118q-56 -128 -56 -252q0 -288 86 -408q80 -128 292 -128q108 0 190 164 q62 138 120 434q0 8 4 36q0 12 3 24t5 26q6 34 10 60q8 48 12 74q2 18 6 38t8 44q2 22 5 46t9 50q4 24 7 51t9 55q8 56 18 120q-78 0 -186 -36q-8 -2 -15 -5t-13 -3q-22 -10 -28 -10q-6 -4 -14 -6t-14 -4q-6 -4 -26 -8q-64 -28 -106 -38q114 88 214 138q104 48 206 66 q48 290 164 620q60 198 198 494q60 142 162 320q0 -48 6 -90q0 -16 4 -44q0 -12 2 -23t4 -23q2 -30 5 -53t5 -37q0 -12 2 -23t4 -21q0 -12 2 -23t4 -23q12 -150 30 -288q0 -18 2 -35t4 -33q2 -22 8 -66q6 -56 18 -130q14 -128 36 -272q4 -48 8 -72q2 -20 5 -39t7 -37 q8 -52 12 -76q2 -20 6 -40t8 -38q134 0 298 142q-68 -102 -80 -118q-80 -96 -206 -104v2q2 -24 6 -48t8 -46q4 -38 16 -94q2 -24 6 -47t8 -47t7 -46t9 -44q8 -64 14 -94q2 -24 6 -47t8 -45q10 -56 16 -92q4 -24 7 -47t9 -45q101 -394 329 -394h5q98 0 184 118q74 104 74 204 q0 146 -34 236q-48 108 -156 108q-40 0 -70 -42q-28 -44 -28 -120q0 -62 24 -154q-58 42 -78 90q-24 50 -24 100q0 78 56 152q54 70 116 70h4h4h4h4h3h3h4h4q130 0 198 -136q56 -120 56 -298q0 -192 -108 -324q-120 -134 -300 -136q-160 0 -300 152q-136 144 -180 316 q-18 46 -32 92t-26 94q-32 110 -48 200q-64 256 -78 394q-40 0 -242 38q-112 18 -134 18q-92 -714 -200 -1010q-110 -292 -294 -292q-274 0 -406 132q-142 140 -142 479v19zM1066 1404q86 0 182 -12q88 -14 158 -30q-30 330 -30 624q0 122 6 240q0 68 6 120q2 52 10 86 q-70 -70 -172 -394q-108 -318 -160 -634z" />
<glyph unicode="B" horiz-adv-x="2160" d="M6 1842q0 198 112 410q102 188 260 314q174 138 352 202q168 62 336 62q98 0 160 -14q48 -6 168 -40q214 -72 322 -242q100 -180 100 -450q0 -142 -80 -262q-62 -100 -180 -180q162 -136 258 -294q126 -216 126 -460q0 -358 -130 -608q-152 -280 -408 -280 q-188 0 -288 60q-160 84 -160 266q0 148 36 262q50 160 176 160q-60 -52 -100 -138q-38 -88 -38 -190q0 10 4 -50q12 -126 136 -200q110 -68 222 -68q138 0 232 196q102 228 102 512q0 230 -92 460q-72 162 -192 314l2 2q-52 -24 -102 -30q-58 -10 -100 -10q-44 0 -68 42 q-30 36 -30 90q0 48 30 84q40 38 120 38q10 0 64 -22q16 -10 44 -27t68 -41q80 70 128 166q50 108 50 210q0 242 -68 376q-82 158 -240 222q-64 24 -126 36q-66 14 -146 14q-160 0 -312 -56q-176 -66 -352 -206q-148 -120 -218 -268q-86 -170 -86 -354q0 -142 50 -254 q48 -100 150 -100q70 0 120 64q44 60 44 150q0 58 -24 118q-24 48 -78 96q82 -22 130 -92q46 -80 46 -164q0 -112 -60 -190q-66 -90 -178 -90q-150 0 -222 126q-70 118 -70 307v21zM8 248q0 40 2 72l12 60q18 96 96 96q20 0 44 -18q16 -18 32 -50q4 -24 4 -22q0 -38 -24 -64 q-26 -28 -54 -28q-26 0 -36 20q-2 -4 -14 -34q-6 -40 -6 -50q0 -60 38 -90q44 -42 160 -42q184 0 294 436q104 416 104 978q0 558 136 838q106 242 364 336v2q-144 -114 -200 -294q-60 -162 -68 -424q-2 -18 -3 -61t-1 -107v-73v-83v-96v-106q0 -664 -162 -1060 q-162 -388 -444 -388q-162 0 -226 82q-48 60 -48 170zM1206 1684q0 -54 58 -54q22 0 58 4q4 0 56 18v2q-68 64 -82 68q-44 8 -38 8q-52 0 -52 -46z" />
<glyph unicode="C" horiz-adv-x="1926" d="M2 1872q0 148 44 286q62 206 188 334q98 108 258 180q36 12 54 12q32 0 32 -14q0 -18 -32 -28q-162 -62 -286 -198t-164 -292q-40 -158 -40 -290q0 -210 90 -338q80 -128 218 -166l2 2q38 574 270 956q196 336 536 480q94 34 186 34q166 0 284 -96q122 -102 122 -248 q0 24 -4 -52q-48 -308 -242 -606q-198 -300 -396 -384q-180 -84 -284 -112q-140 -46 -224 -54q0 -622 158 -904q152 -282 482 -282q186 0 374 110q196 116 298 318l32 -72q-128 -220 -356 -342q-210 -108 -454 -108q-342 0 -550 312q-230 346 -230 986q-170 40 -270 204 q-96 153 -96 363v9zM622 1336q72 4 232 58q22 4 98 40q18 6 36 14l36 16q12 6 40 18q10 4 22 9t24 11q212 94 392 390q180 294 210 588q1 8 1 15q0 99 -99 183q-114 86 -236 86q-80 0 -128 -34q-166 -118 -224 -178q-156 -150 -246 -394q-126 -332 -158 -802v-20z" />
<glyph unicode="D" horiz-adv-x="2086" d="M6 324q0 104 68 162q62 54 160 54q34 0 64 -8q116 -26 114 -26q96 -28 128 -40q102 400 124 746q2 44 5 85t5 79q2 36 5 71t5 67q2 30 4 57t6 51q2 44 6 80q32 360 112 584q88 286 286 432l2 2q-58 0 -119 -4t-127 -10q-94 -12 -218 -56q-270 -108 -392 -254 q-136 -162 -136 -398q0 -142 76 -220q62 -76 164 -76q44 0 98 28q40 16 76 78q0 -84 -78 -140q-80 -58 -176 -58q-112 0 -182 74q-80 88 -80 252v16q0 284 164 488q158 206 452 298q110 32 192 42q96 16 192 16h8h18q8 -2 23 -3t33 -1q4 0 10 -1t12 -1q6 -2 12 -3t14 -1 q12 0 28 -3t34 -3q66 34 140 50q-20 -10 -44 -26q-4 0 -44 -34q308 -88 506 -392q142 -234 214 -568q46 -252 46 -422q0 -674 -160 -1026q-172 -362 -506 -362q-146 0 -346 68q-152 46 -334 142q-70 -106 -148 -154q-86 -56 -190 -56q-188 0 -264 116q-62 75 -62 194v14z M64 292q0 -82 48 -124q56 -56 182 -56q122 0 200 194l-98 58q-16 6 -31 13t-27 13q-14 6 -26 10t-22 10q-64 18 -100 18q-54 0 -84 -24q-32 -26 -36 -58q-6 -60 -6 -54zM748 386q142 -58 378 -172q154 -80 214 -80q248 0 402 216q122 184 168 500q36 230 36 546 q0 142 -46 382q-70 318 -214 560q-196 300 -492 368v2q-110 -138 -170 -360q-74 -272 -74 -614q0 -368 -52 -734q-54 -348 -150 -614z" />
<glyph unicode="E" horiz-adv-x="1308" d="M0 2260q0 206 96 344q98 134 314 226q-184 -150 -252 -270t-68 -276q0 -106 68 -158q54 -42 124 -42h6h6h4h6h4h4h4h4q0 308 118 478q116 168 370 228q60 12 104 12q98 0 162 -60q58 -62 58 -170q0 -72 -28 -162q-62 -168 -216 -274q-164 -120 -392 -146q24 -130 76 -264 q42 30 100 60q44 16 58 16q70 0 112 -36q38 -38 38 -84q0 -48 -30 -90q-32 -40 -70 -40q-54 0 -98 6q-42 4 -104 30q-112 -132 -186 -326q-96 -240 -96 -470q0 -292 130 -490q116 -190 336 -190q216 0 370 120q134 106 176 268q20 -22 24 -38q0 -22 10 -32v4 q-36 -186 -198 -314q-160 -124 -388 -124q-340 0 -526 274q-168 246 -168 592q0 262 106 462q92 188 314 356q-74 112 -76 124q-50 72 -68 170q-140 0 -224 52q-114 74 -114 234zM490 2094q186 0 340 110q128 90 190 248v2q28 80 28 126q0 116 -118 116q-46 0 -72 -10 q-168 -46 -262 -196q-92 -162 -106 -396zM644 1656q48 -16 56 -16q40 -4 58 -4q28 0 42 14q14 10 14 38q0 42 -50 42l-40 -4q-16 -6 -80 -70z" />
<glyph unicode="F" horiz-adv-x="1190" d="M2 1984q0 226 54 392q60 190 200 292q114 86 224 124q108 38 230 38q80 0 150 -12q18 -6 83 -22t179 -46q30 -10 101 -35t183 -63q146 -50 230 -50q22 0 118 14q60 12 134 52v2q-70 -94 -226 -142t-336 -48q-178 0 -288 44q-80 -40 -106 -220q-36 -154 -36 -362 q-6 -106 -6 -234q-2 -66 -2 -137v-149v-12h110q-10 26 -10 72q0 78 34 144q34 70 78 86q28 8 48 8q32 0 68 -20q30 -28 50 -66q16 -40 16 -68q0 -74 -42 -134q-54 -76 -132 -86q4 -46 16 -100q12 -50 14 -50q12 -72 54 -172q-72 36 -100 96q-36 56 -80 210l-132 -26 q-42 -462 -80 -694q-54 -310 -148 -454q-106 -156 -284 -156q-164 0 -226 80q-50 54 -50 172q0 40 2 68q12 66 14 68q2 24 34 60q26 26 60 26q54 0 76 -68q3 -12 3 -24q0 -28 -17 -50q-28 -38 -62 -38q-22 0 -34 18q-12 -20 -12 -38q-8 -36 -8 -44q0 -58 38 -88 q48 -42 160 -42q102 0 166 160q42 120 80 418q0 18 2 41t6 51q6 60 12 128q2 36 5 76t9 86q8 84 18 196q-74 -18 -148 -78q-46 -46 -52 -54q2 92 66 162q50 56 142 86q0 456 78 762q74 296 246 412q-48 16 -88 31t-74 27q-86 30 -110 38q-100 26 -176 26t-126 -20 q-58 -18 -114 -72q-116 -104 -150 -240q-42 -142 -42 -344q0 -162 46 -286q52 -152 152 -152q70 0 118 62q48 60 48 148q0 60 -24 118q-36 60 -78 92q78 -16 128 -88q44 -72 44 -166q0 -116 -58 -184q-68 -88 -178 -88q-148 0 -222 172q-70 144 -70 352v12zM1082 1532 q0 -30 2 -48q0 -6 1 -12t3 -12q0 -10 4 -22q48 0 74 16q28 16 42 58q0 6 1 10t1 10v6v4v3v22t-14 39q-18 18 -40 18q-26 0 -40 -12q-34 -30 -34 -80z" />
<glyph unicode="G" horiz-adv-x="2128" d="M2 1884q0 154 44 310q62 216 186 362q106 124 260 198q30 12 54 12q32 0 32 -16q0 -20 -32 -30q-156 -62 -286 -216q-120 -144 -162 -316t-42 -314q0 -222 90 -368q80 -132 218 -180q42 622 264 992q188 324 532 472q88 40 186 40q162 0 284 -104q120 -112 120 -268 l-4 -56q-46 -330 -238 -618q-178 -266 -386 -366q-90 -42 -160 -72t-124 -48q-142 -48 -222 -58q0 -342 38 -578q38 -240 118 -358q150 -230 480 -230q132 0 256 78q110 68 212 200v1536h196v-1828q80 110 94 134q86 128 114 218l32 -60q-38 -102 -118 -226q-48 -72 -62 -92 q-16 -24 -30 -42q-10 -14 -30 -46v-1006q0 -358 -96 -574q-112 -250 -338 -250q-108 0 -156 118q-50 122 -50 316q0 164 42 346q24 128 92 324q50 162 140 338l84 164t86 162v392q-126 -138 -256 -204q-148 -72 -316 -74q-342 0 -550 254q-118 136 -174 400q-56 256 -56 608 q-174 48 -268 220q-98 165 -98 395v9zM622 1302q90 8 230 62q60 24 258 120q218 102 390 378q168 276 198 588q1 8 1 16q0 107 -99 196q-110 98 -236 98q-74 0 -126 -38l-168 -126t-131 -114t-161 -314q-62 -164 -108 -374q-48 -210 -48 -470v-22zM1358 -1448 q0 -144 38 -230t114 -86q130 0 178 258q32 160 32 420v804q-138 -276 -148 -302q-74 -166 -106 -278l-15 -45t-19 -67q-18 -56 -30 -118q-38 -160 -40 -236q-2 -44 -3 -74t-1 -46z" />
<glyph unicode="H" horiz-adv-x="2214" d="M6 434q0 36 2 66v8v8v6v8v4v4v4v4q0 188 194 444q184 246 396 328q0 74 1 141t3 127q2 58 5 121t9 129q14 228 64 420q54 216 150 328q-166 -94 -188 -102q-144 -56 -256 -56q-68 0 -128 16l-178 -288l-38 72q30 48 26 40q12 20 24 32q48 72 96 162q-74 8 -124 82 q-52 70 -52 138q0 8 1 14t1 8q8 56 44 94q30 34 94 34q48 0 100 -56q50 -60 50 -142q0 -38 -16 -88q40 -10 82 -10q130 0 352 74q108 32 252 102q-94 -100 -122 -244q-30 -162 -30 -374v-13v-13v-13v-13q0 -32 2 -60v-16v-16v-17v-17q2 -48 6 -68q6 -174 10 -286t4 -164 q28 4 66 16q20 4 40 20v214h66v-4v-4t-1 -5t-1 -5v-6v-6v-4v-4v-7v-5v-7v-5v-7v-7v-8v-6v-8v-8v-8v-6v-8v-6v-9v-7v-8v-8v-10v-6q0 -6 1 -10t1 -6v-9v-7l116 28q0 582 138 910q120 288 340 364q66 22 122 22q140 0 240 -120q90 -114 90 -270q0 -8 -6 -82q-46 -256 -160 -434 q-90 -136 -258 -252q-96 -68 -284 -162v-324q0 -342 20 -534q20 -242 104 -352q84 -126 264 -126q130 0 256 104q104 92 224 286l32 -72q-142 -242 -258 -322q-136 -96 -360 -96q-296 0 -410 376q-94 314 -94 1008q-4 -2 -36 -10q-12 -6 -14 -6t-4 -1t-56 -19q6 -52 6 -112 v-9v-5q0 -4 -1 -8t-1 -6v-7v-5v-7v-5v-6v-6v-5v-5v-4v-3v-3v-4t-4 -50l-66 -12v256l-112 -34q0 -476 -22 -704q-34 -318 -140 -450q-122 -154 -384 -154q-176 0 -244 152q-46 96 -46 256v26zM76 404q0 -140 34 -204q44 -100 166 -100q198 0 270 194q52 148 52 500v6v10v9v11 v10v12v12v14v13v13v14v16v15v19v16v20v16v18v16v18v14v16v15v15v13v13v13v13v12v12v11v9h2q-142 -46 -310 -226q-210 -226 -210 -446v-4v-4v-4v-4v-5v-5v-4v-4v-6v-6q0 -4 -1 -7t-1 -5v-8v-6v-9v-5q0 -36 -1 -52t-1 -14zM124 2694q0 -46 36 -82q24 -28 68 -44l2 2 q14 32 14 74q0 36 -16 64q-20 30 -32 34q-60 6 -28 6q-30 0 -34 -16q-10 -10 -10 -38zM1352 1524q266 102 424 288q138 164 212 452l2 2q8 68 8 78q0 132 -82 236q-86 106 -182 106q-46 0 -76 -18q-174 -102 -224 -238q-82 -238 -82 -906z" />
<glyph unicode="I" horiz-adv-x="996" d="M6 240q0 24 2 40q0 14 6 60q8 36 34 62q26 24 62 24q50 0 78 -64q2 -12 2 -22q0 -29 -16 -50q-34 -36 -64 -36q-26 0 -34 16q-14 -28 -14 -54q0 -52 40 -78q48 -38 176 -38q202 0 274 170q58 134 58 480q0 28 -1 65t-1 83q-2 42 -3 95t-1 113q-2 38 -2 66v44t-1 38t-1 50 q0 26 -1 43t-1 27v13v13v11v11q0 146 4 273t10 231q12 190 60 370q44 188 144 306q-192 -118 -238 -132q-108 -38 -190 -38h-4h-3h-3h-3t-3 1t-3 1h-3h-3h-3h-3h-3h-3h-4h-5h-6t-74 14l-174 -284l-42 70q20 28 28 40t10 16q8 12 12 16q52 78 98 160q-74 10 -122 82 q-52 70 -52 134q0 20 2 22q4 54 42 92q30 34 94 34q50 0 102 -56q48 -54 48 -140q0 -28 -14 -86q40 -10 78 -10q112 0 354 74q156 54 252 102q-92 -98 -122 -262q-32 -172 -32 -398v-25v-25v-29v-29q0 -16 1 -32t1 -32q0 -18 1 -36t1 -36q6 -198 10 -307t4 -127 q0 -82 -1 -154t-1 -136q0 -66 -1 -124t-1 -106q-2 -100 -5 -168t-3 -104q-32 -322 -134 -446q-114 -138 -398 -138q-178 0 -240 82q-52 54 -52 158zM128 2694q0 -32 26 -60q32 -42 80 -62l2 2q16 40 16 72q0 28 -16 64q-16 28 -32 32l-30 6q-22 0 -26 -4q-20 -10 -20 -50z " />
<glyph unicode="J" horiz-adv-x="996" d="M14 2674v6v6q2 2 2 4v6q10 58 42 92q36 42 96 42q54 0 100 -60q48 -60 48 -148q0 -44 -14 -94q48 -8 82 -8q136 0 334 72q120 42 238 106q-74 -90 -108 -334q-6 -24 -9 -50t-7 -52q-4 -34 -12 -110q-14 -138 -16 -244q-4 -66 -7 -130t-3 -124q0 -62 -1 -122t-1 -118v-16 v-14v-15v-13v-13v-11v-12v-10q0 -12 1 -21t1 -17q4 -44 4 -30v-125v-141v-70v-70v-71v-71v-75v-73v-74v-74v-74v-72v-70v-66q12 18 28 36t34 38q20 24 68 76q60 90 84 158l32 -62q-30 -76 -86 -156q-22 -30 -43 -57t-39 -53q-22 -26 -41 -51t-37 -47v-984q0 -340 -106 -602 q-126 -296 -350 -296q-110 0 -184 122q-76 128 -76 300q0 142 28 278q6 38 126 362q46 140 160 352q28 58 94 172q12 24 25 46t25 42l24 44t24 42v29v33v38v38v44v46v46v48v45v41v35v31v26v22v17v13v128v122q0 58 1 112t1 106q0 48 1 96t1 92q2 100 6 164q0 36 2 73t2 73 l4 72l4 72q0 34 3 68t5 70q0 32 3 65t7 67v2q16 266 84 502q54 194 114 276q-210 -130 -240 -142q-110 -44 -194 -44q-56 0 -120 20l-178 -304l-38 74q4 6 11 17t15 25q22 32 24 34q34 60 59 103t37 71q-74 8 -124 84q-50 67 -50 142v6zM124 2686q0 -44 38 -84 q20 -24 66 -48h2q16 38 16 80q0 28 -16 68q-16 30 -32 34t-23 6t-18 2t-21 -14q-12 -12 -12 -44zM142 -1400q-2 -20 -2 -39q0 -116 62 -221q68 -114 158 -114q96 0 160 174q54 154 54 316v1002q-22 -36 -43 -77t-43 -83q-24 -44 -40 -82q-24 -44 -40 -82q-54 -102 -87 -176 t-49 -120q-48 -132 -72 -212q-56 -164 -58 -286z" />
<glyph unicode="K" horiz-adv-x="1974" d="M6 242q0 24 2 40q0 14 6 60q8 38 34 64q28 26 62 26q54 0 78 -66q1 -9 1 -18q0 -30 -15 -56q-30 -36 -64 -36q-24 0 -36 16q-12 -30 -12 -54q0 -52 40 -78q50 -38 176 -38q200 0 274 170q58 136 58 486q0 28 -1 65t-1 83q-2 44 -3 97t-1 115q-2 38 -2 66v44t-1 38t-1 52 q0 24 -1 41t-1 27v14v14v11v11q0 150 4 276t10 228q4 178 58 368q38 166 142 292q-36 -22 -64 -39t-50 -29q-24 -16 -42 -24q-18 -12 -30 -18q-132 -64 -248 -64q-18 0 -33 1t-27 1q-6 0 -62 14l-176 -288l-38 72q30 48 26 40q12 20 24 32q60 90 94 164q-72 8 -122 80 q-52 70 -52 138q0 8 1 14t1 8q8 56 44 94q30 34 94 34q48 0 100 -56q50 -60 50 -142q0 -30 -14 -88q36 -10 80 -10q130 0 352 74q108 32 252 102q-96 -104 -124 -310q-24 -150 -24 -436v-9v-9v-11v-9v-10v-10v-10v-8v-12v-12v-11v-11v-11v-11v-12v-12v-12v-12v-13v-13v-13 v-13v-13v-13v-16v-14v-14v-14v-14v-14v-16v-14q10 44 36 64q16 20 62 20q38 0 86 -24q20 -6 84 -48q84 44 150 158q34 56 104 224q4 28 9 56t9 54q8 48 18 98q4 22 8 43t8 39q6 36 12 66q38 250 162 328q30 28 102 28q84 0 162 -66q78 -76 78 -198q0 -92 -34 -174 q-40 -80 -96 -80q-36 0 -78 30q10 -2 20 -2q55 0 84 78q20 72 20 148q0 68 -38 116q-44 44 -108 44q-20 0 -60 -8q-38 -8 -58 -378q-18 -214 -64 -318q-68 -134 -150 -214q-70 -66 -188 -138q134 -100 202 -182q108 -162 134 -434q24 -276 84 -516q60 -274 136 -280 q7 -1 14 -1q71 0 156 145q20 34 86 176q18 -52 18 -48q12 -18 26 -36l2 2q-78 -170 -156 -254q-90 -96 -188 -96q-152 0 -240 182q-72 124 -114 388q-2 10 -4 21t-2 23q-2 16 -6 44q-10 56 -12 90q-6 60 -12 90q-2 10 -4 21t-2 23q-4 32 -6 46q-30 232 -72 362 q-36 102 -114 174q-60 -38 -90 -44q-48 -18 -72 -18q-72 0 -92 62v-346q0 -404 -26 -628q-40 -258 -148 -370q-120 -120 -364 -120q-178 0 -240 82q-52 54 -52 160zM124 2694q0 -46 36 -82q24 -30 66 -44l4 2q14 32 14 74q0 36 -16 64q-20 30 -32 34q-60 6 -28 6 q-30 0 -34 -16q-10 -10 -10 -38zM866 1534q0 -18 14 -32q16 -16 46 -16q32 0 50 6q16 4 46 28q-24 20 -35 31t-17 15t-22 8q-48 6 -28 6q-54 0 -54 -46z" />
<glyph unicode="L" horiz-adv-x="1856" d="M6 324q0 106 66 158q68 50 162 50h4h4h4h4h4h4h4t20 -6t6 0q24 -4 26 -4q48 -12 112 -31t144 -43q72 252 116 548q54 348 54 722q-264 0 -450 104q-234 126 -234 390v4v3v3v4v4v6v4v4q2 22 2 36q14 158 106 280q104 140 338 248q30 12 56 12q34 0 34 -16q0 -14 -34 -26 q-172 -68 -296 -196q-138 -146 -152 -298q0 -6 -1 -20t-1 -36q0 -238 248 -364q180 -92 384 -92q0 398 90 620q108 282 404 404q72 34 158 34q112 0 172 -84q60 -88 60 -222v-5v-5v-4v-4v-4v-3v-4v-4v-3v-4v-5v-6v-4v-4t-8 -43q-58 -362 -254 -534q-152 -134 -374 -158 q0 -374 -56 -742q-50 -352 -150 -614q6 -2 62 -26q52 -20 78 -28q14 -6 36 -15t50 -21q12 -6 25 -10t25 -8q12 -6 25 -11t27 -9q218 -92 256 -98q108 -38 164 -38q116 0 210 122q64 90 116 266l32 -76q-52 -204 -152 -298q-124 -124 -314 -124q-148 0 -364 68 q-150 42 -352 144q-68 -106 -154 -154q-102 -58 -200 -58q-194 0 -282 116q-64 88 -64 208zM70 248q0 -42 50 -82q58 -56 190 -56q52 0 112 54q58 54 98 144l-106 58q-40 20 -110 48q-70 18 -108 18q-56 0 -86 -24q-34 -34 -36 -60q-2 -30 -3 -44t-1 -56zM988 1792v2 q256 38 400 206q134 164 180 470q0 16 1 27t1 19q0 6 1 8t1 51t-46 121q-44 70 -120 70q-52 0 -96 -34q-220 -150 -272 -374q-50 -204 -50 -566z" />
<glyph unicode="M" horiz-adv-x="3192" d="M4 628q0 182 114 312q110 134 246 134q66 0 122 -32q40 -30 94 -98q44 -72 44 -112q0 -30 -28 -50q-28 -18 -50 -18q-34 0 -34 40q0 20 14 56q-42 58 -82 92q-40 30 -76 30q-88 0 -138 -116q-58 -126 -58 -250q0 -284 88 -408q80 -128 292 -128q110 0 180 204 q54 162 106 508q4 56 8 80q0 18 4 39t6 43q2 20 5 40t7 42l4 40t6 42q0 18 3 39t5 41t5 41t7 43q2 18 5 39t7 41q8 56 12 82q44 350 144 770q78 362 174 616q52 -202 124 -588q4 -28 8 -54t10 -52q4 -26 8 -53t10 -51q4 -34 16 -102q4 -26 8 -53t10 -51q2 -26 6 -52t8 -50 q4 -40 16 -104q2 -26 6 -51t8 -49q4 -26 7 -53t9 -51q64 -506 64 -710q4 48 8 66q2 18 4 34t6 34q0 18 3 35t5 35q2 16 5 33t7 35q6 60 18 129t26 147q66 498 178 918q128 516 304 658q0 -4 4 -48q0 -18 3 -38t5 -44q4 -44 11 -110t17 -150q2 -28 4 -53t6 -49q2 -36 10 -94 q2 -36 10 -84q0 -20 3 -39t5 -35q6 -88 14 -124q2 -28 6 -48q4 -28 6 -40q0 -20 3 -40t5 -38q0 -18 4 -39t6 -39q4 -40 10 -79t12 -77q0 -22 10 -80q2 -20 5 -41t7 -39q2 -20 5 -40t7 -38q2 -20 5 -41t7 -39l6 -36q0 -10 2 -19t4 -17q0 -10 2 -19t4 -17q0 -10 2 -19t4 -17 l6 -36q0 -10 2 -19t4 -17q0 -10 3 -19t5 -17q0 -10 2 -19t4 -17q54 -320 148 -536q110 -290 254 -290q102 0 184 116q74 104 74 204q0 154 -34 236q-52 108 -156 108q-44 0 -68 -42q-30 -46 -30 -118q0 -54 24 -156q-54 44 -78 90q-24 48 -24 100q0 80 58 152q54 70 116 70 h4h4h4h3h3h4h3h3q132 0 196 -136q58 -116 58 -296q0 -194 -110 -324q-114 -134 -300 -136q-168 0 -298 142q-134 138 -172 336q-124 592 -188 1140q-62 506 -62 818q-82 -294 -170 -864q-6 -30 -10 -61t-10 -61q-6 -32 -10 -62l-8 -60q-6 -32 -11 -62t-9 -60q-6 -30 -11 -60 t-7 -60q-42 -244 -78 -486q-80 -478 -146 -598q-160 828 -222 1246q-32 192 -54 368q-26 178 -28 266q-18 242 -18 520q-16 -62 -30 -134l-8 -32t-6 -32q-4 -16 -7 -31t-5 -29q-4 -18 -8 -33t-6 -29q-4 -16 -7 -31t-5 -29q-8 -40 -12 -58q-4 -20 -12 -56t-14 -69t-12 -63 q-6 -32 -12 -62t-10 -56q-10 -58 -18 -108q-10 -48 -12 -92q-10 -72 -19 -141t-17 -129q-8 -62 -17 -119t-15 -107q-16 -102 -28 -182t-22 -136q-66 -346 -134 -482q-82 -160 -200 -160h2q-276 0 -408 132q-144 140 -144 478v18z" />
<glyph unicode="N" horiz-adv-x="2328" d="M-4 630q0 182 108 312q106 134 248 134q66 0 120 -34q50 -30 94 -98q44 -72 44 -110q0 -32 -28 -50q-24 -18 -50 -18q-30 0 -30 40q0 14 10 54q-40 60 -80 92q-44 32 -76 32q-84 0 -138 -118q-60 -118 -60 -250q0 -278 88 -402q84 -126 302 -126l2 2q102 0 178 200 q64 184 118 510q2 18 5 38t7 40q2 20 5 40t7 42q2 18 6 39t8 41q4 26 12 82q2 18 6 38t8 42q2 20 5 40t7 42q2 18 6 39t8 41q2 20 6 41t8 41q74 416 166 780q90 386 194 604q12 -156 118 -594l12 -52t12 -50q6 -26 12 -53t12 -51l12 -52t12 -50q6 -26 12 -53t12 -51l12 -52 t12 -50q6 -26 12 -53t12 -51l12 -52t12 -50q10 -34 26 -102q106 -504 126 -722q18 72 22 384q0 324 6 436q4 314 58 588q42 256 88 366q98 276 276 276q206 0 302 -108q82 -96 82 -290q0 -198 -94 -288q-70 -66 -164 -66q-90 0 -144 58q-56 56 -56 146q0 48 20 104 q0 -128 48 -182q36 -44 120 -44q102 0 144 60q42 54 42 212q0 154 -56 230q-70 86 -226 86q-138 0 -224 -256q-62 -170 -82 -340q-24 -152 -40 -336t-20 -398q-6 -126 -6 -224l-4 -56t-2 -52q0 -28 -1 -55t-1 -51q-4 -72 -4 -106q-4 -68 -4 -102q-4 -68 -6 -100 q0 -24 -1 -49t-1 -49q-14 -390 -78 -500q-42 146 -78 304q-18 70 -37 148t-37 162q-12 36 -21 75t-19 79q-10 38 -20 77t-18 79q-10 38 -19 77t-17 79q-10 38 -19 77t-17 79q-124 520 -146 708q-38 248 -38 518q-12 -48 -23 -93t-21 -83q-10 -40 -18 -74t-14 -64 q-12 -44 -24 -98q-6 -22 -10 -37t-4 -25q-78 -332 -100 -538q-204 -1434 -500 -1434q-278 0 -404 132q-138 138 -142 496z" />
<glyph unicode="O" horiz-adv-x="1932" d="M8 1352q0 484 114 844q134 428 414 600q-96 -132 -126 -206q-72 -164 -100 -402q-40 -314 -40 -796q0 -542 208 -908q200 -366 532 -366q328 0 542 350q214 366 214 1010q0 574 -172 906q-178 326 -462 326q-172 0 -258 -170q-78 -150 -78 -404q0 -258 46 -392 q60 -182 230 -250q-60 -8 -66 -8q-164 0 -292 126q-144 138 -172 396q-6 44 -6 92q0 294 190 512q182 218 422 218q302 0 506 -368q202 -374 202 -946q0 -766 -272 -1160q-252 -356 -686 -356q-378 0 -630 372q-260 378 -260 980z" />
<glyph unicode="P" horiz-adv-x="1176" d="M6 1822q0 194 112 404q100 188 260 312q204 156 412 230q164 62 372 62q78 0 104 -2q10 -2 22 -4q2 0 6 -1t8 -1q6 -2 16 -2q14 -4 34 -6q24 -4 42 -6q152 -24 278 -200q132 -186 132 -440q0 -168 -62 -332q-60 -162 -156 -248q-90 -74 -180 -74q-102 0 -168 78 q-70 76 -70 202q50 -82 110 -116q62 -44 128 -44q68 0 134 56q66 62 110 188q14 48 27 92t21 80q14 86 14 156q0 222 -126 366q-114 128 -252 150q-36 6 -48 6q-44 4 -36 4q-64 6 -88 6q-184 0 -348 -58q-212 -72 -410 -234q-146 -114 -218 -266q-84 -162 -84 -352 q0 -148 46 -248q48 -100 150 -100q74 0 120 64q44 58 44 146q0 58 -24 118q-26 48 -78 94l2 2q80 -22 128 -92q46 -78 46 -164q0 -108 -60 -186q-68 -88 -178 -88q-150 0 -222 122q-70 120 -70 306v20zM102 252q0 -4 4 72q0 12 12 60q14 94 92 94q22 0 46 -16q16 -20 30 -50 q6 -16 6 -22q0 -38 -24 -64q-28 -28 -56 -28q-24 0 -38 20q0 -10 -12 -34q-4 -52 -4 -48q0 -56 38 -90q44 -42 160 -42q184 0 292 432q102 396 102 966q0 544 136 808q106 214 362 308l2 2q-142 -106 -200 -278q-58 -168 -66 -398q-2 -70 -3 -197t-1 -311q0 -656 -160 -1050 q-164 -386 -444 -386q-162 0 -228 84q-46 60 -46 168z" />
<glyph unicode="Q" horiz-adv-x="1956" d="M8 1212q0 484 144 938q150 480 384 628q-120 -240 -162 -380q-72 -222 -94 -472q-28 -290 -28 -732q0 -348 52 -476t160 -294q187 -296 539 -296h5q332 0 534 388q102 196 156 350q54 152 54 502q0 622 -166 976q-168 342 -454 342q-180 0 -268 -182q-86 -158 -86 -432 q0 -276 52 -432q66 -194 242 -274q-36 -6 -66 -6q-170 0 -292 136q-146 154 -172 428q-6 48 -6 102q0 320 190 554q182 236 422 236q202 0 368 -188q160 -188 244 -520l-2 722h194v-4714h-176v25v25v28v26v31v29v32v30v35v35t-1 36t-1 36v38v38v41v41v44v46v49v49v54v56v59 v59t-1 63t-1 67v69v69v74v76v80v80v84v84v86v86v86v92v93v95v90v86v79v73q-2 36 -2 67v61v55v49l2 2q-106 -460 -334 -688q-226 -216 -540 -216q-404 0 -646 394q-56 88 -108 194q-48 100 -72 160q-64 136 -64 464z" />
<glyph unicode="R" horiz-adv-x="1976" d="M6 1818q0 192 112 404q94 182 260 310q204 156 386 226q180 72 362 72q136 0 268 -44q186 -60 312 -222q118 -168 118 -380q0 -58 -16 -156q-24 -130 -138 -294q-110 -154 -218 -226q104 -82 154 -154q58 -122 86 -368v-4v-4v-4v-4v-4v-3v-3v-3v-4v-5v-4v-3t1 -3t1 -4v-4 v-3v-4v-5v-4v-4v-4v-3v-4v-4v-4v-4v-4v-4t1 -3t1 -3v-3v-16t-2 -47t-2 -69q-2 -38 -5 -83t-3 -97q-10 -198 -10 -252q0 -98 10 -144q8 -48 44 -48q42 0 98 58q68 80 150 264q6 -22 16 -42q2 -12 28 -44q-80 -174 -154 -254q-90 -96 -186 -96q-136 0 -190 168 q-44 120 -44 370v31v33q0 16 1 33t1 35q0 46 2 68q0 18 1 36t1 36q11 178 12 178v-2q0 224 -26 328q-18 50 -104 136l4 2q-62 -26 -104 -30q-68 -10 -100 -10q-38 0 -68 40q-28 40 -28 92q0 50 32 80q40 38 118 38q12 0 62 -22q28 -16 56 -33t56 -33q70 58 154 228 q80 182 86 260q10 126 10 146q0 182 -64 310q-70 120 -210 180q-100 38 -212 38q-168 0 -332 -68q-202 -78 -390 -228q-148 -118 -218 -266q-84 -162 -84 -350q0 -148 46 -248q48 -98 150 -98q70 0 120 62q44 60 44 148q0 56 -24 116q-24 44 -78 94q82 -16 130 -90 q46 -78 46 -162q0 -110 -58 -188q-72 -86 -180 -86q-152 0 -222 122q-70 118 -70 304v20zM8 244q0 40 2 72q10 54 12 58q18 96 96 96q20 0 44 -18q16 -18 32 -50q4 -16 4 -20q0 -38 -24 -64q-26 -28 -54 -28q-24 0 -36 18q-4 -4 -6 -12l-8 -20q-6 -40 -6 -48q0 -60 38 -90 q44 -42 160 -42q182 0 294 432q104 412 104 962q0 554 136 830q106 238 364 330v2q-136 -106 -198 -290q-56 -154 -68 -420q-6 -106 -6 -516q0 -656 -160 -1048q-166 -382 -446 -382q-162 0 -224 80q-50 52 -50 160v8zM1100 1548q0 -52 60 -52q22 0 58 4q20 0 56 18v2 q-78 64 -82 64q-30 6 -38 6q-54 0 -54 -42z" />
<glyph unicode="S" horiz-adv-x="994" d="M2 392q0 84 54 126q14 12 52 26q48 0 76 -28q26 -30 26 -66q0 -62 -64 -62q-24 0 -50 12q-22 12 -22 8v-5v-5v-5v-4v-4v-5v-4v-4v-4v-4v-5v-5v-4v-4v-4v-58t74 -112q78 -60 246 -60q136 0 194 188q42 150 42 476q0 52 -2 137t-6 205q-24 516 -24 600q-256 0 -394 82 q-182 104 -182 346v10v4v4v6v4v4v6v6v6v8v8q0 2 1 10t1 20q14 156 106 278q102 136 340 248q24 12 54 12q34 0 34 -14q0 -20 -34 -28q-172 -66 -296 -196q-138 -138 -152 -300q0 -20 -1 -29t-1 -7v-4v-4v-3v-3v-4v-4v-3v-3v-120t194 -216q130 -70 330 -70h2q0 398 90 620 q110 282 406 404q72 34 158 34q112 0 172 -84q60 -78 60 -222v-5v-5v-4v-4v-4v-3v-4v-4v-3v-4v-5v-6v-4v-4t-8 -43q-60 -358 -252 -534q-152 -134 -372 -158q0 -36 2 -101t8 -159q24 -396 24 -550q0 -416 -84 -638q-106 -282 -368 -282q-272 0 -360 104q-74 80 -74 278v10z M854 1792v2q258 38 396 206q138 164 180 470q0 16 1 27t1 19q2 10 2 57t-44 123q-50 70 -122 70q-52 0 -94 -34q-216 -144 -270 -374q-50 -204 -50 -566z" />
<glyph unicode="T" horiz-adv-x="2128" d="M6 2312q0 290 166 426q108 92 274 92q112 0 216 -56q78 -44 188 -138q2 -4 7 -10t13 -12q4 -6 13 -14t21 -20q24 -24 48 -52q12 -14 29 -30t35 -34l2 2q88 154 148 206q58 58 214 124q98 34 212 34q182 0 304 -86q140 -94 140 -248q0 -2 -8 -74q-52 -226 -200 -328 q-132 -92 -316 -92q-102 0 -202 26q-104 26 -180 82q-56 -188 -76 -406q-22 -202 -22 -456q0 -486 100 -806q110 -350 320 -350q190 0 374 108q194 110 300 316l32 -70q-128 -224 -356 -340q-214 -108 -456 -108t-414 338q-182 366 -182 912q0 198 44 482q42 274 120 498 q-124 116 -282 336q-114 152 -196 174q-60 6 -44 6q-116 0 -208 -108q-106 -126 -106 -318q0 -254 94 -356q74 -84 226 -84q76 0 134 82q62 90 80 198q12 -30 12 -68q0 -94 -70 -196q-74 -100 -112 -104q-60 -4 -61 -4h-2h-2h-2h-2h-2h-2h-2h-2t-2 -1t-3 -1h-83t-165 104 q-106 126 -106 424zM1206 2350q116 -76 228 -108q126 -40 228 -40q128 0 210 56q84 64 110 208q4 28 4 32q0 104 -122 182q-120 74 -258 74q-104 0 -156 -44q-90 -74 -126 -122q-60 -74 -118 -238z" />
<glyph unicode="U" horiz-adv-x="2128" d="M4 2014q0 300 92 512q124 304 402 304q222 0 316 -110q134 -152 134 -560q0 -56 -2 -116t-2 -126q0 -34 -2 -67t-2 -69t-1 -72t-1 -72q-2 -18 -3 -36t-1 -34q0 -18 -1 -35t-1 -33q-2 -18 -3 -36t-1 -34q0 -18 -1 -35t-1 -33q0 -18 -1 -36t-1 -36q-2 -22 -2 -68 q-2 -18 -3 -35t-1 -35t-1 -35t-1 -33q-2 -74 -5 -136t-3 -112q-2 -50 -2 -89v-63q0 -178 18 -276q26 -152 82 -242q54 -102 142 -102q208 0 366 220q90 130 160 348v2148h194v-2394q0 -134 20 -190q16 -68 72 -68q40 0 102 178q4 20 8 30q0 6 3 13t5 15q0 6 3 13t5 15l8 24 q0 6 2 12l4 12q6 18 6 22q6 18 6 20t2 6t4 10l32 -80q-66 -234 -90 -296q-60 -124 -146 -124q-108 0 -166 110q-66 122 -66 388q-82 -218 -168 -326q-150 -172 -370 -172q-172 0 -286 104q-126 104 -158 280q-34 166 -34 268q0 10 1 22t1 24q2 14 2 48q0 12 1 24t3 24 q0 16 4 52q0 14 1 41t3 63q0 12 1 27t3 29q0 20 4 56q4 126 6 244t2 226h2q0 336 -3 542t-5 284q-24 412 -196 412q-200 0 -310 -210q-114 -208 -114 -550q0 -236 76 -402q66 -150 156 -150q102 6 144 102q46 100 46 276q0 166 -82 240q-26 16 -80 36q36 12 60 12 q70 0 116 -68q46 -78 46 -210v-4v-3v-4v-6v-4v-3v-3v-4v-5v-4v-4v-4v-4v-5v-94t-68 -199q-72 -114 -160 -114q-144 0 -234 186q-88 184 -88 448z" />
<glyph unicode="V" horiz-adv-x="1920" d="M4 2016q0 304 92 510q124 304 402 304q222 0 316 -110q134 -152 134 -558q0 -56 -2 -116t-2 -126q0 -32 -2 -66t-2 -68q0 -36 -1 -73t-1 -73q-2 -34 -4 -67t-2 -67q-2 -18 -3 -35t-1 -35t-1 -35t-1 -33q0 -18 -1 -36t-1 -34q-2 -24 -2 -70q-2 -18 -3 -36t-1 -34 q0 -18 -1 -36t-1 -34q-2 -74 -5 -136t-3 -110q-2 -50 -2 -89v-63q0 -178 18 -276q24 -132 108 -240q82 -104 180 -104h3h3h2h4h4h4h4h4q170 0 318 412q110 330 192 848q64 456 64 680v6v4v6v6v6v4v6v6v6v6v4v4v4v3v3t-66 2t-158 34q-166 54 -222 192q-26 54 -26 168 q0 122 32 186q24 64 94 106q56 40 128 40q100 0 162 -76t88 -212q26 -148 26 -330q82 0 182 78q96 80 108 152l64 -48q-18 -84 -134 -188q-114 -102 -216 -102q8 -64 8 -100q0 -264 -70 -720q-78 -516 -212 -866q-162 -410 -374 -412q-254 0 -378 110q-114 98 -152 296 q-32 182 -32 262q0 10 1 21t1 23q2 16 2 48q0 12 1 24t3 24q0 16 4 52q0 14 1 41t3 63q0 12 1 27t3 29q0 20 4 56q4 126 6 244t2 226q0 704 -6 822q-24 412 -196 412q-198 0 -310 -208q-114 -208 -114 -552q0 -234 76 -400q66 -150 156 -150q102 6 144 100q46 100 46 276 q0 166 -82 240q-44 26 -80 36q36 14 60 14q70 0 116 -70q46 -78 46 -210v-4v-3v-3v-3v-3v-3v-4v-4v-4v-5v-4v-4v-4v-4v-5v-93t-68 -200q-74 -112 -160 -112q-144 0 -234 184q-88 188 -88 450zM1542 2474q0 -8 4 -64q0 -26 16 -54q40 -102 110 -136q42 -26 134 -34 q-2 6 -3 12t-1 12t-1 12t-1 12q-4 20 -4 44q-4 64 -4 66q-20 154 -38 202v4q-48 104 -98 104q-30 0 -58 -26q-36 -28 -42 -66q-14 -34 -14 -88z" />
<glyph unicode="W" horiz-adv-x="2884" d="M4 2014q0 300 92 512q130 304 406 304q220 0 314 -110q134 -152 134 -558q0 -64 -1 -128t-1 -130q-2 -58 -4 -125t-4 -141l-4 -68t-2 -68q-2 -18 -3 -34t-1 -34t-1 -35t-1 -33q0 -18 -1 -36t-1 -36q-2 -18 -3 -35t-1 -33q0 -48 -2 -72v-35v-33q-4 -70 -7 -131t-3 -111 q-2 -50 -2 -90v-68q0 -154 18 -276q34 -162 82 -240q54 -102 142 -102q206 0 328 218q30 54 124 350v2144h196v-2184q0 -226 100 -374q86 -128 202 -128q164 0 300 386q102 322 164 804q52 446 52 682q0 72 -6 108q-118 0 -222 34q-160 50 -220 192q-26 54 -26 168 q0 116 32 184q26 70 94 108q58 38 128 38q94 0 162 -76q62 -76 88 -210q26 -148 26 -332q88 0 182 80q96 76 108 152l64 -50q-18 -82 -134 -186q-118 -102 -214 -102q8 -72 8 -136q0 -300 -56 -720q-76 -522 -188 -820q-154 -394 -354 -394q-258 0 -366 126 q-112 124 -112 380v2q-102 -286 -132 -332q-114 -180 -336 -180q-166 0 -284 106q-126 100 -158 278q-34 166 -34 270q0 10 1 22t1 24q2 14 2 48q0 10 1 23t3 25q0 16 4 52q0 32 2 50q0 12 1 26t1 28q2 76 6 112q6 108 8 225t2 243v82v78v72v72q0 32 -1 64t-1 62v58v54 q0 66 -2 94q0 22 -1 42t-1 38v33v29v24v22q-28 412 -196 412q-200 0 -310 -210q-114 -208 -114 -550q0 -238 76 -402q72 -150 158 -150q100 6 142 102q46 100 46 276q0 164 -82 240q-34 20 -80 36q36 12 60 12q66 0 114 -68q46 -78 46 -210v-4v-3v-4v-6v-4v-4v-4v-4v-5v-4 v-4v-4v-4v-5v-91t-66 -202q-74 -112 -160 -112q-144 0 -234 186q-88 184 -88 448zM2342 2460l4 -64q0 -24 16 -52q42 -102 110 -136q40 -26 134 -34q-4 44 -6 62q-4 36 -4 48q-4 52 -4 48q-22 158 -38 202q-42 108 -98 108q-28 0 -58 -26q-40 -40 -44 -68q-12 -34 -12 -88z " />
<glyph unicode="X" horiz-adv-x="2864" d="M4 2014q0 300 92 512q124 304 402 304q308 0 516 -308q240 -366 240 -1068l110 16q38 582 218 884q160 270 488 406q90 36 190 36q176 0 300 -124q122 -126 122 -338q0 -292 -180 -520q-154 -188 -376 -288q-152 -64 -292 -80q-34 -6 -68 -11t-66 -9q-64 -10 -88 -10 q0 -638 162 -980q156 -344 473 -344h7q184 0 342 110q166 114 266 316l34 -70q-128 -226 -320 -340q-194 -108 -428 -110q-338 0 -550 368q-234 392 -234 1038l-110 -16q0 -304 -20 -524q-42 -366 -144 -582q-142 -276 -394 -276q-292 0 -428 134q-150 150 -150 488 q0 182 124 352q94 130 268 240q134 82 244 114l270 72q0 660 -170 1046q-148 316 -358 316q-200 0 -310 -210q-114 -208 -114 -550q0 -236 76 -402q66 -150 156 -150q102 6 144 102q46 100 46 276q0 166 -82 240q-26 16 -80 36q36 12 60 12q66 0 114 -68q46 -78 46 -210v-4 v-3v-4v-6v-4v-3v-3v-4v-5v-4v-4v-4v-4v-5v-92t-70 -201q-70 -114 -158 -114q-142 0 -232 186q-88 184 -88 448zM176 628q0 -334 130 -446q90 -84 290 -84q232 0 338 392q90 324 90 852l-240 -66q-214 -64 -396 -230q-212 -198 -212 -418zM1612 1478q48 4 88 7t70 9 q72 8 78 12q126 18 264 80q228 94 372 300q152 210 152 494v2q0 154 -118 246q-104 88 -240 88q-76 0 -138 -36q-148 -82 -208 -148q-132 -132 -196 -342q-102 -280 -124 -712z" />
<glyph unicode="Y" horiz-adv-x="2058" d="M-4 1984q0 316 90 532q128 314 402 314q220 0 316 -114q132 -160 132 -578q0 -66 -1 -133t-1 -135q-2 -36 -3 -70t-1 -66q-2 -36 -3 -70t-1 -68q-2 -36 -3 -71t-1 -71q-2 -36 -4 -71t-2 -71l-4 -72t-2 -72q-2 -36 -3 -72t-1 -72q-4 -78 -6 -142t-2 -116q-2 -52 -3 -92 t-1 -64q0 -200 18 -274q26 -120 82 -196q56 -84 142 -84q206 0 356 168q90 106 160 280v2260h196v-2704q36 48 60 82t36 52q84 130 114 218l32 -60q-34 -96 -120 -226q-20 -32 -30 -46q-8 -12 -17 -23t-15 -23q-8 -12 -15 -23t-13 -19q-26 -36 -32 -46v-1006 q0 -354 -94 -574q-112 -250 -340 -250q-110 0 -154 118q-52 126 -52 316q0 150 42 346q28 130 94 324q58 174 138 338q0 2 14 24q6 12 13 29t19 35q10 22 23 47t29 53q16 30 34 65t38 71l2 484q-104 -212 -238 -292q-120 -74 -284 -74q-166 0 -284 86q-126 86 -158 228 q-35 137 -35 232q0 15 1 28q0 54 3 104t7 96q4 72 6 110q4 76 6 116q0 28 1 58t3 60q0 40 4 120q0 60 1 123t1 125q0 714 -8 854q-24 426 -194 426q-198 0 -312 -216q-114 -220 -114 -572q0 -246 78 -416q70 -156 152 -156h4q98 6 144 106q44 96 44 286q0 174 -80 248 q-32 24 -80 38q38 14 58 14q68 0 116 -72q46 -76 46 -218v-7v-5v-8v-8v-8v-8v-10v-8q0 -190 -68 -302q-72 -116 -160 -116q-142 0 -232 192q-86 182 -86 464zM1290 -1448q0 -138 40 -228q32 -88 114 -88q126 0 178 258q30 166 30 420l2 804q-70 -132 -106 -208t-42 -94 q-76 -166 -108 -278q-6 -18 -14 -45t-20 -67q-22 -68 -28 -118q-14 -56 -16 -74q-4 -18 -8 -34t-4 -32q-12 -68 -12 -96q-6 -90 -6 -120z" />
<glyph unicode="Z" horiz-adv-x="1864" d="M0 0q18 32 34 62t30 56t26 49t24 43q0 4 296 524q38 70 84 153t100 179q26 48 50 90t46 80q12 20 25 42t25 46q12 20 25 42t27 46q-84 26 -162 42q-90 14 -162 14q-132 0 -306 -46q96 56 246 94q154 38 288 38q80 0 168 -16q100 178 205 355t213 353q194 324 258 402 q-20 -12 -30 -20q-8 -6 -16 -11t-14 -9q-14 -10 -29 -19t-31 -19q-14 -12 -30 -22t-28 -18q-16 -12 -31 -21t-27 -19q-168 -104 -316 -166q-210 -82 -378 -82q-62 0 -164 16q-66 8 -166 54l-32 -64q-88 -144 -212 -284v6q-2 4 -2 6v6v4v4v8v6v8v6q-4 10 -4 12q-2 4 -2 12 q-4 16 -4 26q40 40 68 74q74 90 120 202q-122 62 -168 146q-36 56 -36 129v15q0 96 44 146t110 50q62 0 114 -40q76 -56 76 -164q0 -66 -28 -152q84 -30 204 -30q156 0 428 68q28 6 226 72q22 6 47 15t53 19q26 8 57 18t63 22q66 22 140 47t158 55q-68 -74 -306 -454 q-20 -30 -60 -94q-18 -32 -58 -96q-14 -24 -30 -49t-28 -49q-40 -64 -60 -98q-14 -26 -30 -51t-30 -49q-16 -26 -31 -52t-29 -50q-36 -60 -65 -112t-53 -96q126 -54 214 -54q84 0 184 46q56 32 116 68q-84 -104 -192 -164q-100 -54 -212 -54q-76 0 -180 28q-18 -30 -37 -64 t-41 -72q-12 -24 -40 -72q-12 -18 -21 -36t-19 -36q-10 -20 -21 -39t-21 -37q-12 -20 -22 -39t-20 -37q-26 -46 -47 -86t-39 -74q-36 -66 -70 -127t-64 -115q-32 -58 -60 -109t-52 -95q-10 -20 -30 -56q-6 -12 -13 -24t-13 -22q-6 -12 -11 -23t-9 -19q-2 -4 -2 -7t3 -3 q14 0 86 52q103 74 183 116q144 78 278 78q94 0 206 -42q74 -30 130 -52t94 -34q190 -70 298 -70q86 0 172 44q80 40 168 146v2q-6 -14 -15 -32t-19 -42l-18 -36q-6 -10 -9 -19t-7 -15q-8 -18 -17 -35t-15 -35q-14 -28 -30 -68q-102 -146 -330 -146q-62 0 -442 128 q-192 66 -322 66q-174 0 -306 -48q-114 -38 -286 -146zM114 2678q0 -74 56 -130q28 -28 88 -56q22 56 22 118t-38 106q-26 22 -58 34q-40 0 -54 -20q-16 -16 -16 -52z" />
<glyph unicode="[" horiz-adv-x="1376" d="M504 -652v3794h880v-94h-712v-3602h712v-94z" />
<glyph unicode="\" horiz-adv-x="1196" d="M-254 2610h86l1452 -2988l-88 2z" />
<glyph unicode="]" horiz-adv-x="1376" d="M310 -554h714v3602h-714v94l888 2l-2 -3792h-886v94z" />
<glyph unicode="^" horiz-adv-x="3428" d="M824 1794l1068 1036h304l1070 -1036h-170l-1052 852l-1062 -852h-158z" />
<glyph unicode="_" d="M0 -804l2048 2v-160h-2048v158z" />
<glyph unicode="`" d="M692 1692q0 10 12 22q6 16 28 16q14 0 32 -14q2 -4 9 -10t17 -14l398 -628l-70 2l-404 564l-18 30z" />
<glyph unicode="a" horiz-adv-x="1162" d="M2 424q0 222 106 368q116 152 344 152q128 0 220 -82v72h188v-710v-6v-4v-7v-4v-4v-4v-4v-4v-4v-4v-3v-3v-2v-2v-2v-27t14 -48q20 -28 88 -28q66 0 138 164q6 18 22 61t40 113l32 -62q-50 -148 -68 -188q-72 -154 -216 -154q-238 0 -238 218v2q-76 -104 -160 -160 q-100 -60 -214 -60q-162 0 -234 138q-62 112 -62 278v10zM198 474q0 -122 54 -218q60 -114 178 -114q72 0 140 48q52 40 102 116v418q-40 168 -186 168q-154 0 -224 -142q-64 -122 -64 -276z" />
<glyph unicode="b" horiz-adv-x="868" d="M2 436v1690q0 282 72 466q92 238 304 238q128 0 182 -98q56 -108 56 -308q0 -184 -38 -388q-28 -138 -72 -306l-10 -30q-4 -10 -7 -20t-7 -22q-6 -16 -16 -45t-22 -73q-16 -42 -30 -82l-28 -80q-14 -42 -29 -81t-27 -77q-52 -150 -88 -255t-54 -165v-364q0 -88 12 -168 q10 -82 40 -126q42 -72 138 -72q88 0 170 88q82 86 108 232q-96 58 -144 110q-68 68 -86 140q-8 18 -8 52q0 50 24 86q30 44 100 44q44 0 88 -20q32 -24 52 -62q18 -36 32 -94q12 -58 12 -116q0 -18 -4 -58q0 -10 -2 -16q0 -4 -1 -7t-1 -5v-10v-8q56 -42 112 -42q30 0 36 18 l32 -62q-36 -24 -70 -24q-24 0 -54 12q-34 12 -68 38q-40 -210 -178 -302q-102 -66 -246 -68q-164 0 -228 144q-30 56 -40 142q-12 84 -12 154zM188 982q8 26 17 54t19 56q18 56 36 108q8 26 18 52t18 50t17 49t17 49q132 372 144 414q26 110 52 254q16 112 22 156 q10 76 18 160q4 36 4 50q0 18 1 26t1 145t-194 137q-126 0 -168 -234q-22 -140 -22 -360v-1166zM530 686q0 -60 44 -126q42 -70 94 -104h2q4 48 4 44v4v6v10v8v6q0 78 -26 160q-30 72 -70 72q-14 0 -20 -6q-28 -20 -28 -74z" />
<glyph unicode="c" horiz-adv-x="918" d="M2 432q0 232 102 362q108 148 344 148q174 0 276 -76q74 -60 74 -146q-20 -56 -54 -62q-40 -10 -52 22q-16 24 -16 42q0 20 38 20q-34 134 -242 134q-128 0 -196 -140q-64 -132 -64 -288q0 -140 74 -234q74 -106 208 -106q138 0 242 58q114 66 180 238l34 -64 q-68 -186 -186 -256q-130 -84 -350 -84h2q-246 0 -340 142q-74 96 -74 290z" />
<glyph unicode="d" horiz-adv-x="1162" d="M4 426q0 222 104 366q116 152 344 152q142 0 222 -82v1024h188v-1572v-64q0 -98 12 -128q20 -56 92 -56q52 0 112 110q2 6 6 16t10 22q4 10 9 23t11 27q8 26 24 60q6 18 13 36t15 38l32 -64q-84 -240 -132 -284q-50 -50 -138 -50q-170 0 -206 40q-48 42 -48 176 q-78 -100 -162 -156q-98 -60 -210 -60l2 -2q-168 0 -240 142q-60 104 -60 266v20zM202 474q0 -116 52 -216q60 -116 178 -116q74 0 138 48q56 42 104 118v420q-40 164 -188 164t-224 -142q-60 -108 -60 -276z" />
<glyph unicode="e" horiz-adv-x="914" d="M0 430q0 230 98 362q114 150 346 150q174 0 256 -82q80 -72 80 -204v-3v-2v-2v-2v-2v-2v-2v-2v-2v-2v-2v-2v-3v-5t-1 -10t-1 -13q-18 -126 -300 -180q-88 -22 -266 -34h2q20 -122 74 -184q68 -96 202 -96q176 0 292 94q80 66 132 200l32 -64q-62 -180 -196 -260 q-132 -78 -354 -78q-232 0 -322 142q-74 102 -74 290zM206 456q16 2 52 6q12 0 27 2t29 4q12 0 27 2t29 4q18 2 58 6q244 32 264 144q0 6 1 14t1 20q0 90 -66 156q-68 62 -164 62q-138 0 -204 -150q-54 -120 -54 -270z" />
<glyph unicode="f" horiz-adv-x="780" d="M-14 484q0 110 82 110l-2 1458q0 292 72 500q92 278 300 278q126 0 184 -104q58 -108 58 -332q0 -198 -30 -372q-4 -12 -6 -27t-4 -27q-4 -20 -12 -64q-12 -64 -40 -150l-336 -982v-276q6 -8 27 -39t59 -85q2 -6 5 -12t7 -12q6 -8 14 -24q20 -34 30 -48q40 -4 62 -4 q90 0 202 38q106 38 122 92l30 -62q-26 -70 -148 -104q-102 -34 -194 -34h-9h-5h-5h-5h-5h-4h-2t18 -39t65 -181q18 -68 37 -145t37 -165q16 -78 30 -165t28 -177q24 -168 32 -340q1 -57 1 -110q0 -132 -7 -242q-10 -130 -28 -248q-50 -274 -174 -274q-196 0 -312 374 q-94 314 -94 624v1202q-78 50 -80 168zM30 476q0 -42 36 -60q14 -10 26 6q10 16 10 38q0 24 -10 42q-8 16 -24 16q-38 0 -38 -42zM246 -906q0 -214 34 -478q56 -394 182 -394q78 0 112 140q38 150 38 380q0 120 -2 152q-4 32 -6 80q-2 24 -5 54t-5 64q-6 78 -17 159t-23 165 q-26 162 -58 326q-36 168 -70 286q-40 126 -74 188q-32 4 -41 7t-17 3q-14 4 -46 18zM252 324q6 -12 34 -20q20 -8 28 -8l-62 96v-68zM252 934q14 48 30 92t30 86t28 80t26 74q12 34 22 66t22 62q8 30 17 56t17 50q98 288 110 342q20 88 36 176q4 32 9 71t11 83 q12 90 18 170q0 24 1 38t1 24t1 19t1 159t-192 150q-100 0 -142 -156q-46 -170 -46 -508v-1134z" />
<glyph unicode="g" horiz-adv-x="1086" d="M2 412q0 230 102 362q114 150 358 150q158 0 218 -90v90h196v-864q80 110 94 134q86 128 114 218l32 -60q-30 -92 -118 -226q-34 -48 -64 -93l-58 -87v-1010q0 -360 -96 -574q-114 -246 -340 -246q-104 0 -154 118t-50 314q0 144 40 344q36 168 96 332q54 166 138 334 q42 82 85 164t85 162v342q-40 -96 -144 -164q-104 -62 -226 -62q-160 0 -236 132q-72 114 -72 280zM214 464q0 -126 46 -214q56 -114 180 -114q98 0 164 62q50 48 76 126v290q0 266 -186 266q-142 0 -210 -120q-70 -122 -70 -296zM318 -1403v-47q0 -142 38 -228t114 -86 q132 0 180 252q30 154 30 426v802q-28 -54 -52 -104t-46 -96q-44 -82 -50 -104q-78 -162 -106 -274v-2q-50 -152 -74 -292q-6 -30 -12 -58t-10 -52q-8 -76 -8 -78q-4 -32 -4 -59z" />
<glyph unicode="h" horiz-adv-x="1026" d="M0 0v2034q0 318 70 526q92 270 306 270q124 0 188 -156q54 -132 54 -356q0 -162 -24 -326q-24 -160 -58 -270q-14 -36 -20 -60q-6 -20 -14 -40t-14 -44q-16 -46 -35 -102t-39 -122q-40 -122 -102 -290q-50 -134 -124 -290v-56q52 88 160 158q106 68 206 68q106 0 178 -46 q86 -58 86 -170v-500q0 -50 10 -90q8 -36 50 -36q26 0 66 86q16 40 22 60q6 14 11 29t11 29q16 46 38 100l32 -62q-90 -254 -116 -286q-58 -58 -170 -58q-146 0 -146 142v564q0 66 -20 106q-30 52 -98 52q-84 0 -182 -78q-96 -76 -138 -182v-604h-188zM182 898q12 30 25 63 t25 69q12 34 25 70t27 72q12 36 26 73t26 75q12 36 26 73t28 75q10 34 21 65t21 59q12 40 34 100q14 46 23 77t15 47q14 66 38 222q22 166 22 288q0 178 -38 278q-48 124 -150 124q-126 0 -168 -264q-26 -154 -26 -410v-1156z" />
<glyph unicode="i" horiz-adv-x="474" d="M-12 1190q0 114 104 114q114 0 114 -114t-114 -114q-104 0 -104 114zM0 272v668l188 -2v-620q0 -126 14 -168q18 -78 74 -78q72 0 138 168q8 24 17 48t17 46q10 26 16 44t10 26l34 -64q-72 -202 -90 -236q-60 -104 -164 -104q-254 0 -254 272z" />
<glyph unicode="j" horiz-adv-x="604" d="M-238 -1456q0 148 42 346q32 152 92 324q10 24 18 46t14 42q10 22 18 44t16 42q22 52 38 94t32 72q22 48 45 95t47 89q10 22 20 41t20 37q8 18 17 35t17 31v866q-4 -10 -86 -212q-24 -58 -42 -102q-4 -12 -9 -25t-9 -25q-6 -12 -10 -24l-8 -24l-32 60q16 58 40 114 q14 48 24 68q12 32 23 60t21 50q30 62 42 102l46 132l2 12l-2 10h198v-884q8 12 17 24t17 24q20 24 28 36q112 166 146 268l32 -60q-40 -106 -118 -226q-32 -48 -58 -86q-16 -24 -32 -47t-32 -49v-1010q0 -360 -94 -570q-112 -248 -332 -248q-104 0 -156 116 q-52 118 -52 312zM-166 -1390v-6v-10v-6v-10v-12v-5v-5q0 -142 44 -234q46 -90 122 -90q96 0 152 178q46 144 46 332l2 974q-12 -20 -22 -41t-20 -43q-12 -18 -21 -39t-17 -41q-18 -34 -34 -69t-30 -73q-38 -80 -62 -150q-32 -78 -46 -126l-20 -72l-20 -72q-6 -30 -12 -54 q-10 -40 -21 -86t-25 -114q-6 -42 -11 -73t-5 -53zM194 1164q0 50 28 78q30 34 78 34t78 -32q34 -32 34 -78q0 -50 -32 -78q-30 -32 -76 -32q-52 0 -78 30q-32 28 -32 78z" />
<glyph unicode="k" horiz-adv-x="1032" d="M4 0v2022q0 328 72 532q92 276 304 276q128 0 190 -124t62 -358q0 -190 -28 -376q-22 -122 -66 -262q-8 -24 -17 -48t-15 -46q-10 -24 -18 -48t-14 -46q-8 -24 -17 -47t-15 -47q-8 -24 -17 -47t-15 -45q-24 -66 -49 -140t-53 -152q-58 -152 -120 -278v-60q56 102 130 162 q88 70 182 70q128 0 198 -28q110 -48 110 -166q0 -82 -58 -152q-46 -58 -110 -86q22 -16 40 -27t32 -19l21 -14t13 -6q62 -68 62 -216q0 -42 4 -70q6 -58 56 -58t108 150q24 74 54 156l34 -62q-6 -18 -11 -34t-11 -32q-6 -18 -11 -34t-11 -30q-10 -28 -21 -55t-23 -55 q-44 -100 -204 -100q-56 0 -94 38q-54 44 -60 122v4v4v4v4v4v6v6v8q0 50 -12 126q-18 80 -62 122q-86 -38 -132 -38q-78 0 -78 78q0 90 82 90q60 0 140 -34q22 26 44 88q18 42 18 64q0 58 -42 104q-50 58 -118 58q-86 0 -164 -84q-74 -82 -106 -188v-586h-184zM188 890 q22 60 47 127t51 145q12 36 25 73t27 75q12 36 26 74t28 78q30 90 42 128q24 64 34 100q10 28 24 70q4 12 8 22t6 16v2q20 80 36 182q4 40 6 62q2 16 4 34t6 36q4 52 6 80q2 20 4 43t6 47v12v5v7q0 16 2 26v14v10q2 8 2 16q0 166 -50 264q-54 94 -150 94t-142 -166 q-48 -172 -48 -524v-1152z" />
<glyph unicode="l" horiz-adv-x="724" d="M0 358v1736q0 296 66 474q92 262 306 262q122 0 182 -134q52 -124 52 -324q0 -144 -24 -306q-22 -134 -74 -316q-12 -32 -22 -62q-18 -54 -28 -86q-10 -24 -20 -50t-18 -56q-12 -30 -23 -63t-23 -67q-34 -96 -63 -183t-53 -165q-54 -172 -82 -354v-310q0 -142 34 -202 q38 -76 160 -76q224 0 352 328l34 -60q-60 -174 -166 -258q-108 -86 -316 -86q-170 0 -230 106q-26 38 -36 110q-8 58 -8 142zM176 974q10 32 34 100q12 36 40 108q12 38 40 114q10 28 21 58t23 60q86 234 126 352q8 28 24 80q6 20 12 41t12 41q26 78 26 154v2q0 32 8 96 q12 62 12 88q8 98 8 132q0 154 -38 240q-52 102 -156 102q-100 0 -144 -152q-48 -160 -48 -478v-1138z" />
<glyph unicode="m" horiz-adv-x="1840" d="M0 404q4 18 16 58q8 20 10 30q2 6 5 14t7 16l16 48l24 72q110 298 226 298q114 0 144 -34q30 -36 30 -150q106 190 288 190q94 0 166 -40q80 -52 100 -148q110 188 298 188q110 0 178 -46q86 -60 86 -172v-534q0 -68 8 -84q10 -44 64 -44t114 174q8 30 12 38q8 22 14 42 q6 18 6 20q4 6 8 22l8 20t10 22l32 -62q-26 -64 -44 -118q-6 -20 -12 -35t-8 -23q-2 -10 -10 -30q-2 -8 -5 -15t-3 -13q-70 -108 -228 -108q-66 0 -98 30q-60 42 -60 112v564q0 62 -20 106q-30 54 -98 54q-72 0 -138 -46q-88 -60 -114 -162v-658h-190v706q0 62 -22 106 q-34 54 -96 54q-86 0 -160 -74q-74 -78 -86 -182v-610h-184v622v86q0 40 -4 108q-10 30 -30 36q-42 0 -120 -198q-18 -42 -46 -118t-66 -188z" />
<glyph unicode="n" horiz-adv-x="1364" d="M2 404q8 28 14 42q2 12 6 23t8 23q4 10 7 21t9 23q2 10 6 21t8 23q4 10 7 20t9 22q4 20 16 46q4 14 12 37t20 53q76 184 194 184q116 0 144 -60q18 -34 18 -168h2q48 86 162 160q106 68 210 68q112 0 178 -48q84 -58 84 -168v-498q0 -74 8 -100q12 -60 60 -60 q54 0 122 170q10 38 24 74q6 20 15 43t19 49l30 -60q-16 -38 -27 -68t-19 -54q-4 -8 -6 -17t-4 -15q-4 -8 -7 -16t-5 -14q-6 -18 -11 -34t-7 -26q-60 -100 -214 -100q-70 0 -104 30q-66 42 -66 126v546q0 62 -20 106q-30 52 -98 52q-94 0 -196 -86q-122 -98 -130 -210v-564 h-186v622v86q0 90 -4 108q-10 26 -30 36q-48 0 -132 -244q-22 -60 -39 -104t-25 -70q-24 -66 -30 -90z" />
<glyph unicode="o" horiz-adv-x="968" d="M0 440q0 208 112 360q110 146 298 146q184 0 262 -116q80 -26 114 -82q24 -70 30 -102q12 -70 12 -120q0 -48 -8 -96q22 -22 54 -38q28 -16 52 -16q30 0 44 32l30 -64q-30 -38 -70 -38q-30 0 -66 20q-34 10 -56 44q-42 -210 -172 -300q-104 -70 -254 -70q-176 0 -280 142 q-102 128 -102 298zM210 454q0 -146 66 -250q70 -128 202 -128q90 0 168 80q82 88 110 238q-94 62 -144 114q-72 68 -86 136q-6 14 -6 48q0 38 20 84q22 38 72 50q-48 52 -142 52q-112 0 -188 -134q-72 -144 -72 -290zM630 692q0 -60 44 -124q40 -72 96 -104q6 42 6 86 q0 78 -28 148q-34 74 -68 74q-10 0 -22 -8q-28 -16 -28 -72z" />
<glyph unicode="p" horiz-adv-x="1136" d="M2 406q6 20 18 56q12 32 16 46q2 6 14 40q10 30 25 74t29 138v178h188v-178q66 84 152 132q82 46 186 46q108 0 178 -46q86 -60 86 -170v-498q0 -50 10 -96q12 -58 62 -58q48 0 112 160q4 16 9 32t11 30q4 12 7 25t9 25q16 52 20 64l32 -62q-32 -106 -54 -166t-30 -78 q-66 -100 -226 -100q-66 0 -96 30q-60 42 -60 120v548q0 66 -20 104q-28 56 -98 56t-154 -56q-94 -58 -136 -138v2v-2550h-188v2432l-74 -208z" />
<glyph unicode="q" horiz-adv-x="1072" d="M0 414q0 226 102 362q112 154 342 154q140 0 232 -94v94h188v-892q8 14 32 48q20 28 28 40q12 20 23 35t17 27q68 112 106 210v2l30 -64q-46 -112 -106 -218q-8 -16 -130 -194v-1808h-188v2096q-70 -96 -170 -158q-102 -60 -208 -60q-164 0 -240 136q-58 102 -58 284z M192 462q0 -122 50 -216q66 -118 184 -118q78 0 146 56q46 34 104 128v310q0 102 -40 170q-54 86 -158 86q-148 0 -222 -140q-64 -122 -64 -276z" />
<glyph unicode="r" horiz-adv-x="912" d="M4 404q12 40 18 58q6 14 10 30t10 30q16 40 22 60q8 28 22 62q24 74 42 126t24 82q-148 0 -148 114q0 54 26 90q24 34 76 34q42 0 66 -12q24 -22 36 -86v-82q4 0 102 10q84 12 106 20q120 0 166 -62q42 -58 42 -192v-412v-11v-7v-10v-8v-8v-6v-7v-31t14 -66 q22 -44 88 -44q40 0 94 108q48 102 88 222l32 -62q-58 -162 -94 -236q-62 -108 -138 -108q-174 0 -218 54q-52 54 -52 220v338v46q0 88 -12 148q-16 52 -58 52h-12h-12h-12h-12h-13h-13h-14h-12q-52 0 -70 -6q-24 -102 -84 -276q-6 -16 -11 -31t-9 -29q-6 -16 -11 -30 t-11 -28q-6 -16 -11 -30t-9 -28q-6 -16 -11 -30t-11 -26h2zM96 988q0 -78 68 -78l4 82q0 54 -42 54q-30 -6 -30 -58z" />
<glyph unicode="s" horiz-adv-x="736" d="M0 396l230 624l84 -30q-2 -6 -6 -26q-2 -12 -2 -38q0 -62 36 -136q44 -92 94 -150q114 -148 132 -180q20 -40 28 -84q8 -68 8 -116q92 0 128 140l32 -62q-4 -36 -54 -90q-58 -58 -110 -58q-34 -110 -76 -146q-64 -44 -216 -44q-160 0 -160 140q0 104 96 120h12h12h12h12 h12h12h9h11q40 0 86 -6v10q0 2 -1 5t-1 7v5v7v6v8q0 8 -14 76q-86 146 -122 252q-48 128 -48 254l-204 -546zM210 130v2q0 -60 90 -60q122 0 122 124q-10 0 -42 6q-28 6 -72 6q-98 0 -98 -78z" />
<glyph unicode="t" horiz-adv-x="598" d="M0 1904h186l2 -370l376 -4v-54h-378l4 -1162v-54q0 -128 34 -168q30 -38 104 -38q124 0 200 166q14 30 74 190l32 -64q-76 -198 -110 -248q-76 -98 -218 -98q-202 0 -248 48q-56 46 -56 211v11z" />
<glyph unicode="u" horiz-adv-x="1104" d="M0 306v630h186v-560q0 -124 28 -204q42 -120 154 -120q68 0 148 46q72 42 148 124v48v666h190v-620q0 -124 10 -184q12 -64 68 -64q34 0 68 70q2 4 104 270l30 -66q-68 -198 -88 -242q-56 -100 -148 -102q-198 0 -224 156q-154 -156 -312 -156q-186 0 -260 58 q-102 72 -102 250z" />
<glyph unicode="v" horiz-adv-x="1104" d="M0 398q18 72 42 136q8 20 12 32q2 8 5 17t7 19t12 34q4 10 12 34q48 140 90 194q52 74 132 74q112 0 142 -62q20 -38 20 -184v-408q0 -116 12 -152q20 -60 118 -60q58 0 132 118q62 110 104 236q-76 74 -102 132q-56 86 -56 164q0 64 14 132q14 58 68 76q32 14 60 14 q88 0 122 -146q2 -16 2 -64q0 -114 -42 -284q22 -26 68 -48q42 -24 74 -24t58 26l34 -70q-28 -28 -74 -28q-40 0 -94 26q-54 18 -86 56q-72 -232 -148 -316q-66 -72 -152 -72q-176 0 -226 42q-66 40 -72 158v490v66q0 12 -6 60q0 28 -28 32q-48 0 -144 -286q-12 -32 -22 -60 t-18 -52q-6 -22 -12 -36t-6 -20q-12 -28 -18 -56zM796 714q0 -134 64 -222l20 104q14 88 14 106v4q0 72 -14 104q-16 30 -44 30q-20 -14 -22 -34q-16 -40 -18 -92z" />
<glyph unicode="w" horiz-adv-x="1598" d="M0 402q130 380 163 458t147 78t142 -58q20 -38 20 -188v-404v-36q0 -76 14 -112q20 -60 100 -60h3h2h3h3h2h3h3h3q56 0 122 92q58 84 70 194l2 574l186 -2v-616q0 -124 16 -174q20 -77 100 -77q9 0 20 1q60 0 136 118q58 114 100 238q-78 84 -102 130q-54 86 -54 168v5v3 v4v4v6v4v6q0 64 20 110q18 48 58 64q28 14 62 14q88 0 122 -144q2 -18 2 -64q0 -118 -42 -286q20 -24 52 -44q34 -22 68 -22q32 0 54 22l32 -68q-32 -28 -66 -28q-42 0 -84 24q-42 14 -76 54q-76 -236 -148 -320q-66 -70 -152 -70q-168 0 -226 42q-68 46 -72 158 q-102 -200 -222 -200q-198 0 -244 52q-56 50 -56 236v334v98v5v5t-1 5t-1 7v5v7v10q0 18 -1 29t-1 15q-4 34 -30 42q-42 0 -144 -288q-6 -18 -11 -31t-9 -25q-4 -10 -8 -24t-10 -32q-8 -18 -13 -33t-7 -23q-10 -20 -20 -54zM1316 718q0 -136 64 -224l2 2q0 18 8 54q0 6 2 14 l4 16l13 65t7 61q0 136 -54 136h-6q-16 -4 -22 -34q-16 -40 -18 -90z" />
<glyph unicode="x" horiz-adv-x="1400" d="M0 406q84 266 106 302q104 236 236 236t222 -68q78 -60 132 -180q104 242 374 242q152 0 236 -78q66 -66 66 -152q0 -26 -4 -30q-8 -56 -50 -56q-46 0 -46 28q-3 9 -3 17q0 29 49 29q1 8 1 15q0 64 -61 113q-74 50 -166 50q-122 0 -180 -142q-52 -124 -52 -288 q0 -140 60 -238q66 -112 190 -112q126 0 204 108q30 44 88 204l32 -64q-48 -146 -100 -204q-112 -138 -312 -138q-238 0 -328 224q-98 -224 -376 -224q-134 0 -192 56q-52 48 -52 118q0 26 2 32q6 54 50 54q36 0 44 -20q2 -40 -32 -40h-3h-2h-2h-3h-4h-3t-2 -2t-1 -12v-3v-2 v-3v-30t56 -54q52 -32 120 -32q114 0 180 144q54 116 54 284q0 146 -36 252q-52 136 -152 136q-136 0 -236 -304l-20 -60q-2 -8 -5 -15t-3 -13q-4 -8 -8 -28q-4 -8 -6 -16t-4 -14t-5 -14t-3 -14q-2 -6 -16 -56z" />
<glyph unicode="y" horiz-adv-x="1260" d="M4 396q54 186 88 278q48 128 96 190q56 76 132 76q112 0 140 -60q20 -40 20 -188v-406q0 -96 22 -140q36 -62 128 -62q76 0 130 54q40 38 90 130v656h198v-864q80 110 94 134q84 120 114 218l32 -60q-34 -100 -120 -226q-20 -32 -30 -46q-22 -28 -30 -46q-38 -46 -60 -88 v-1006q0 -358 -96 -574q-110 -250 -340 -250q-106 0 -154 118q-50 122 -50 316q0 162 40 346q30 136 94 324q50 164 138 338q0 2 14 24q4 16 32 64q10 22 23 47t29 53q16 30 34 65t38 71v294q-94 -176 -246 -176v-2q-192 0 -250 58q-60 56 -60 230v490q0 72 -34 72 q-42 0 -116 -202q-6 -20 -13 -40t-13 -38q-8 -20 -15 -40t-13 -38q-20 -52 -28 -78q-8 -20 -15 -39t-13 -37zM490 -1448q0 -136 38 -228q38 -88 114 -88q130 0 178 258q30 166 30 420v804q-128 -254 -144 -302q-72 -148 -110 -278q-4 -18 -16 -54q-12 -32 -16 -58 q-6 -12 -9 -27t-7 -29t-8 -30t-6 -32q-38 -186 -40 -236q-2 -44 -3 -74t-1 -46z" />
<glyph unicode="z" horiz-adv-x="1004" d="M0 402l136 396q-60 14 -82 58q-28 40 -28 98l4 36q20 90 136 90q76 0 76 -76q0 -46 -30 -132q122 0 320 26q248 28 300 80l-458 -808q158 70 268 70q22 0 66 -8q66 -16 96 -44q22 -42 36 -88q6 12 14 24t14 24q10 16 26 40q12 24 18 32q2 4 14 22q54 102 74 164l32 -62 q-20 -66 -90 -196q-40 -66 -44 -78l-12 -20t-12 -18q-8 -16 -20 -36q0 -258 -56 -650q-52 -338 -138 -642q-78 -256 -152 -382q-132 -206 -332 -206q-64 0 -100 92q-36 94 -36 228q0 94 18 180q34 158 82 294q26 78 48 130q34 84 60 134q90 194 180 342q12 22 40 70 q20 36 48 78q20 36 54 86q12 24 28 47t32 47q8 56 8 108q0 78 -26 126q-28 62 -92 62q-62 0 -148 -48q-94 -48 -120 -96q-26 24 -38 66l450 786q-74 -30 -198 -44q-126 -20 -226 -20h-6h-4h-5h-4h-3h-3h-3h-4h-4h-3h-4h-5h-3h-2t-157 -442zM112 -1590q0 -86 24 -144 q24 -54 78 -54q76 0 164 208q54 144 96 312q106 468 146 946q-56 -80 -108 -168t-100 -180q-86 -160 -128 -262h2q-24 -46 -38 -86q-30 -76 -52 -152q-24 -72 -48 -164q-36 -156 -36 -256zM126 950q0 -48 40 -62l22 78v6v4v3v3v3v2v10t-14 13q-38 0 -44 -28q-4 -36 -4 -32z " />
<glyph unicode="{" d="M352 1214v114q328 24 452 144q118 110 118 424v440q0 402 160 548q156 148 586 148h20l-2 -96q-302 0 -410 -106q-112 -110 -112 -424v-294q0 -450 -130 -616q-128 -170 -476 -228q348 -62 476 -224q130 -170 130 -620v-294q0 -310 108 -416q50 -52 156 -80 q96 -28 258 -28v-90h-18q-430 0 -586 144q-160 144 -160 544v442q0 304 -122 426q-68 64 -170 102q-134 40 -278 40z" />
<glyph unicode="|" d="M932 -962l2 3796h180v-3796h-182z" />
<glyph unicode="}" d="M356 -394q298 0 414 106q112 108 112 418v294q0 452 128 614q126 166 480 230q-346 52 -476 228q-132 168 -132 616v294q0 312 -110 420q-110 110 -416 110v96h20q418 0 588 -148q162 -148 162 -548v-440q0 -310 114 -424q116 -120 456 -144v-114q-162 0 -272 -38 q-108 -38 -180 -104q-118 -118 -118 -426v-442q0 -392 -162 -540q-170 -148 -588 -148h-20v90z" />
<glyph unicode="~" horiz-adv-x="3412" d="M356 960v184q192 136 398 218q196 76 376 76q194 0 542 -124l38 -12l54 -20q172 -64 296 -90q156 -32 226 -32q154 0 350 74q176 68 424 244l2 -184q-218 -154 -406 -222q-196 -72 -370 -72q-206 0 -532 122l-44 16l-66 22q-334 122 -514 122q-176 0 -352 -74 q-178 -70 -422 -248z" />
<glyph unicode="&#xa0;" horiz-adv-x="2646" d="M218 0v2830h2302v-2830h-2302zM380 176h1978l-2 2478h-1976v-2478z" />
<glyph unicode="&#xa1;" horiz-adv-x="778" d="M410 1754q0 48 34 90q38 42 86 42q46 0 86 -40q40 -48 40 -92q0 -54 -36 -96q-42 -38 -90 -38t-86 38q-34 34 -34 96zM418 0v76v102l12 170l80 902h36l78 -898l8 -76l14 -196v-80h-228z" />
<glyph unicode="&#xa2;" horiz-adv-x="1270" d="M184 0l226 424q-90 64 -130 150q-42 80 -42 190q0 186 130 314q132 126 328 126h58h6h6h4h4h4h6h6l26 -12l206 380h50l-212 -396q62 -28 102 -58q36 -36 36 -80q0 -60 -60 -108q-66 -52 -138 -52h-20q28 24 50 66q20 24 20 66q0 14 -6 38q-12 12 -19 23t-11 17l-278 -518 q46 -60 110 -90q58 -26 130 -26q68 0 122 28q58 20 136 92l24 -30q-104 -94 -208 -134q-112 -46 -214 -46q-44 0 -100 10q-40 2 -84 30l-218 -404h-50zM422 906q0 -96 18 -164q10 -62 62 -136l280 518l-70 24l-52 12q-114 0 -180 -66q-58 -68 -58 -188z" />
<glyph unicode="&#xa3;" horiz-adv-x="1614" d="M48 224q0 118 94 198q92 78 244 78q54 0 158 -28q86 -26 226 -90l8 44l2 56q0 80 -20 156q-22 68 -68 158h-422v46h386l-46 72q-224 348 -224 536q0 202 138 322q132 114 386 114q202 0 332 -112t130 -288q0 -132 -80 -220q-80 -86 -208 -86q-110 0 -186 76 q-74 74 -74 182q0 64 34 120q30 52 74 52h14l114 -32q-80 -50 -104 -90q-30 -46 -30 -98q0 -72 36 -120q32 -48 94 -48q72 0 132 78q54 80 54 196q0 150 -92 252q-96 96 -240 96q-152 0 -230 -78q-84 -78 -84 -208q0 -126 128 -426q20 -52 38 -95t32 -79q32 -78 46 -116h392 v-46h-382l8 -68l2 -102q0 -52 -14 -126l-10 -50q-6 -28 -30 -90q140 -86 231 -136t129 -66q82 -40 140 -40q70 0 126 50q56 48 128 170l34 -20q-102 -178 -182 -246q-88 -72 -196 -72q-90 0 -208 48q-122 42 -266 148q-78 -102 -178 -148q-96 -48 -228 -48q-134 0 -206 62 q-84 60 -82 162zM172 304q0 -98 70 -164q72 -70 176 -70q80 0 164 38q68 32 130 116l2 2q-70 48 -131 88t-111 70q-110 62 -158 62q-68 0 -104 -42q-38 -38 -38 -100z" />
<glyph unicode="&#xa4;" horiz-adv-x="2482" d="M186 834l416 414q-94 104 -140 248q-44 132 -44 276q0 150 44 274q36 118 136 254l-412 412l116 118l410 -416q124 94 252 142q128 46 276 46q136 0 278 -46q124 -48 250 -142l410 416l118 -120l-414 -410q88 -122 136 -248q48 -136 48 -280q0 -44 -10 -140 q-12 -64 -36 -138q-48 -136 -138 -246l414 -414l-118 -118l-410 414q-126 -96 -250 -136q-132 -48 -278 -48q-148 0 -278 46q-126 40 -250 138l-410 -416zM580 1778q0 -276 194 -472q196 -194 470 -194q270 0 468 194q194 190 194 472q0 272 -194 466q-194 196 -468 196v2 q-272 0 -470 -196q-194 -202 -194 -468z" />
<glyph unicode="&#xa5;" horiz-adv-x="1630" d="M122 536l54 46h582l-2 156l-164 218l-98 2l-142 -8h-7h-5h-7h-5h-7h-7h-7h-5h-9h-7h-10h-8h-10h-6h-10h-8h-11h-9h-9h-7h-10h-6h-9h-5h-9h-5h-8h-6h-5h-5h-4t50 50h384l-142 192l-66 84q-150 202 -230 294l322 88l4 -36q-24 -12 -42 -30q-12 -12 -12 -28q0 -22 24 -64 l120 -170l250 -332l260 2q106 198 152 306q72 166 108 278l210 52l6 -32q-84 -30 -128 -76q-52 -50 -114 -168l-188 -360h430l-50 -50h-6h-4h-7h-5h-6h-6h-7h-5h-8h-6h-10h-6h-10h-8h-8h-8h-11h-9h-9h-9h-8h-8h-9h-7h-8h-8h-8h-6h-7h-5h-8t-144 8h-28l-114 -226v-150h566 l-50 -46h-198h-176h-142v-626l-266 -102v32q30 28 48 82q18 60 18 144v470h-264h-176h-196zM816 958l122 -188l90 188h-212z" />
<glyph unicode="&#xa6;" d="M932 -696l2 1500l180 -6v-1494h-182zM932 1326l2 1504h180v-1504h-182z" />
<glyph unicode="&#xa7;" d="M390 1030q0 210 142 344q144 132 416 160q-240 180 -354 340q-106 142 -106 276q0 188 148 324q150 136 360 136t368 -122q150 -128 184 -322l-204 -122l16 72v74q0 156 -104 270q-102 108 -260 108q-164 0 -272 -86q-112 -86 -112 -214q0 -106 82 -206q66 -100 380 -348 q376 -308 478 -450q106 -150 106 -304q0 -210 -140 -344q-148 -138 -404 -162q264 -212 372 -352q44 -72 78 -136q26 -78 26 -140q0 -190 -160 -326q-158 -134 -386 -134q-236 0 -398 120q-168 120 -188 318v-2l218 128l-20 -74v-64q0 -172 108 -280q110 -110 280 -110 t290 88q118 86 118 214q0 184 -436 536l-116 96q-322 260 -414 402q-96 140 -96 292zM540 1116q0 -144 122 -282q120 -150 420 -350q198 16 324 118q110 90 110 250q0 128 -114 276q-110 136 -414 374v2q-228 -26 -336 -124q-112 -100 -112 -264z" />
<glyph unicode="&#xa8;" d="M692 1262q0 42 32 84q34 34 80 34l2 2q40 0 82 -38q38 -36 38 -82q0 -54 -34 -84q-36 -32 -88 -32t-82 30t-30 86zM1126 1262q0 42 32 84q34 34 84 34v2q40 0 76 -36q38 -36 38 -84q0 -50 -32 -84q-40 -32 -82 -32q-56 0 -86 30t-30 86z" />
<glyph unicode="&#xa9;" horiz-adv-x="3366" d="M304 1356q0 274 102 524q100 254 292 448q194 194 452 304q266 108 536 108l2 2q260 0 522 -106q242 -104 448 -298q186 -190 296 -448q110 -256 110 -534q0 -276 -106 -524t-300 -448q-204 -208 -446 -304q-246 -100 -528 -100q-284 0 -524 98q-252 96 -450 300 q-208 202 -304 448q-102 246 -102 530zM458 1356q0 -260 90 -476q88 -222 268 -398q170 -178 400 -270q226 -94 468 -94q246 0 472 92q222 90 392 272q180 186 270 406q94 232 94 468q0 240 -96 478q-100 230 -262 400q-168 166 -396 266q-228 96 -472 96h2q-252 0 -472 -94 q-222 -90 -396 -270q-180 -186 -268 -404q-94 -232 -94 -472zM864 1328q0 366 226 620q224 252 556 252q134 0 288 -66q148 -70 172 -70q54 0 88 30q32 32 42 92l62 2v-616h-74q-68 268 -210 410q-150 140 -360 140q-258 0 -382 -190q-134 -192 -134 -566q0 -378 138 -570 q136 -194 416 -194q178 0 320 84q134 74 254 260l60 -40q-110 -204 -280 -308q-178 -108 -392 -108q-332 0 -560 244q-120 120 -172 270q-58 136 -58 324z" />
<glyph unicode="&#xaa;" horiz-adv-x="1956" d="M0 358q0 78 66 132q62 52 174 72q116 24 216 24q180 0 358 -76q176 -78 442 -246q34 2 112 114q26 44 51 79t47 63q118 348 164 552q48 216 48 416q0 108 -20 272q-42 176 -84 306q-46 134 -98 230q-58 104 -126 188q-70 82 -170 178q-258 102 -440 102q-168 0 -282 -78 q-122 -82 -224 -230q-58 -122 -82 -222q-34 -122 -34 -222q0 -74 20 -140q0 -84 30 -156q28 -88 80 -154q54 -74 128 -116q70 -44 156 -44q4 0 9 1t11 1h9h9q154 32 238 108q82 74 126 224q0 4 -10 44q-20 70 -20 90q0 30 22 30q18 0 44 -14q6 -58 6 -106q0 -106 -34 -170 q-36 -64 -114 -158q-32 -36 -28 -32q-156 -78 -280 -78q-74 0 -144 32q-70 34 -124 84q-82 70 -120 154q-48 92 -78 204q-16 104 -16 178q0 146 38 258t104 220q102 198 228 266q120 64 336 96h42q66 -6 115 -8t79 -2q72 -4 106 -10q96 -12 216 -52l8 -4q44 -22 81 -42 t65 -34q52 -36 110 -88q66 -68 120 -152q66 -100 126 -236q62 -192 92 -384q30 -204 30 -486q-10 -68 -20 -125t-18 -101q-12 -76 -36 -152q-18 -56 -44 -112q-12 -24 -34 -66t-52 -98q-20 -40 -36 -70t-24 -50q-98 -106 -242 -254q-58 -64 -84 -90q178 -148 306 -148h10h14 q20 4 24 4q64 16 116 58q44 36 106 122q0 -2 30 48q30 48 56 92t50 80l50 -58q-16 -24 -39 -60t-53 -82q-50 -68 -50 -82q-64 -92 -132 -134q-74 -48 -162 -58q-212 0 -310 18q-96 18 -196 92q-134 -70 -266 -92q-128 -18 -362 -26q-210 22 -350 96q-138 68 -174 198 q-12 36 -12 72zM54 352q0 -4 4 -16v-12t69 -134t555 -132q284 28 434 100q-278 136 -422 186q-82 24 -163 47t-159 41q-70 12 -126 28q-104 0 -150 -28q-42 -28 -42 -80z" />
<glyph unicode="&#xab;" horiz-adv-x="1364" d="M362 468q0 22 116 138l92 86l142 152q86 96 112 100l8 -8l8 -12q0 -42 -48 -120q-40 -66 -222 -342v2q168 -248 210 -314q60 -102 60 -140q-8 -10 -10 -10h-10q-28 0 -110 98l-140 146l-92 88q-116 102 -116 136zM830 468q0 26 114 138l90 86q-4 -2 40 38q12 16 18 22 l10 10l14 14q-2 -2 38 42q24 28 28 32q74 82 102 94l14 -8l8 -12q0 -54 -236 -404l-38 -56q78 -112 134 -193t90 -135q50 -94 50 -126l-6 -10h-16q-24 0 -106 98l-144 146l-90 88q-114 102 -114 136z" />
<glyph unicode="&#xac;" horiz-adv-x="3412" d="M508 1546v166h2396v-1004h-156v838h-2240z" />
<glyph unicode="&#xad;" horiz-adv-x="910" d="M108 416l32 172h704l-30 -170z" />
<glyph unicode="&#xae;" horiz-adv-x="3366" d="M304 1356q0 274 102 524q100 254 292 448q194 194 452 304q266 108 536 108l2 2q260 0 522 -106q242 -104 448 -298q186 -190 296 -448q110 -256 110 -534q0 -276 -106 -524t-300 -448q-204 -208 -446 -304q-246 -100 -528 -100q-284 0 -524 98q-252 96 -450 300 q-208 202 -304 448q-102 246 -102 530zM458 1354q0 -258 90 -474q90 -222 268 -400q170 -178 400 -270q212 -92 468 -92q252 0 472 90q214 88 392 272t270 406q94 232 94 468q0 242 -96 480q-100 230 -262 400q-168 166 -396 266q-228 96 -472 96h2q-252 0 -472 -94 q-222 -90 -396 -270q-180 -186 -268 -404q-94 -238 -94 -474zM938 586v76q74 0 128 12q46 6 88 36q58 44 58 158v1024q0 108 -62 160q-24 18 -84 36q-48 14 -128 14v72h782q294 0 464 -106q168 -106 168 -288q0 -150 -138 -242q-140 -98 -444 -154q182 -64 276 -156 q94 -100 146 -274l24 -118q30 -174 110 -174t120 60q40 64 40 192l74 2v-16q0 -176 -74 -264q-72 -90 -226 -90q-90 0 -156 36q-72 34 -90 94q-26 68 -28 108q-10 66 -10 128q0 148 -18 200q-50 132 -152 194q-114 62 -296 62h-36h-40v-500q0 -116 56 -156q34 -30 86 -36 q42 -14 132 -14v-76h-770zM1434 1960l2 -530h4h6h7h3h4h6h6h7h3h4h82q254 0 390 90t136 260q0 152 -116 242q-120 92 -320 92q-112 0 -166 -42q-58 -38 -58 -112z" />
<glyph unicode="&#xaf;" horiz-adv-x="882" d="M152 1172v122h624v-122h-624z" />
<glyph unicode="&#xb0;" horiz-adv-x="1348" d="M126 2284q0 230 160 388q162 162 388 162l2 2q214 0 382 -164q160 -158 160 -388q0 -232 -160 -386q-84 -82 -176 -118q-100 -40 -212 -40q-228 0 -388 158q-156 152 -156 386zM248 2284q0 -176 126 -302q124 -122 300 -122q170 0 302 122q124 130 124 302 q0 178 -124 302q-126 126 -302 126q-184 0 -302 -124q-124 -128 -124 -304z" />
<glyph unicode="&#xb1;" horiz-adv-x="3412" d="M508 118v166l2396 -2v-164h-2396zM508 1454v160h1118v710l160 -2v-708h1118v-160h-1118v-704h-160v704h-1118z" />
<glyph unicode="&#xb2;" horiz-adv-x="840" d="M106 650q0 28 20 64q36 52 68 84q44 62 164 202q212 248 212 374q0 70 -44 124q-46 46 -118 46q-74 0 -128 -46q-54 -42 -54 -106q0 -54 36 -90q40 -32 116 -32l-52 -52l-32 -8l-30 -2q-56 0 -94 32q-30 30 -30 90q0 100 90 172q96 70 234 70q110 0 188 -62 q78 -64 78 -148q0 -68 -56 -144q-62 -78 -218 -192l-14 -12q-156 -118 -216 -194l62 22l56 10q40 0 86 -16q34 -14 84 -50l46 -38q44 -48 86 -48q38 0 102 72l32 34l18 -14q-68 -90 -124 -132q-62 -38 -104 -38q-12 0 -19 1t-11 1q-12 0 -36 12q-18 2 -42 28l-34 42 q-98 110 -152 110q-22 0 -34 -8l-32 -18l-20 -84q-18 -84 -48 -84q-16 0 -28 6q-8 12 -8 22z" />
<glyph unicode="&#xb3;" horiz-adv-x="840" d="M90 800q0 48 28 76q26 30 78 30h38h26q-46 -46 -50 -66q-16 -26 -16 -62q0 -60 46 -96q42 -36 114 -36q90 0 154 64q62 70 62 168q0 108 -68 170q-72 62 -196 62h-38l2 16q128 12 198 72q68 58 68 152q0 84 -48 136q-48 54 -120 54q-62 0 -96 -34q-38 -36 -38 -80 q0 -56 28 -86q20 -22 34 -24q14 -6 48 -6h20h12l-54 -50l-62 -6q-56 0 -90 34t-34 84q0 82 78 140q78 56 204 56q110 0 188 -46q74 -50 74 -120q0 -90 -68 -154q-72 -62 -224 -120q82 0 136 -14q64 -18 112 -46q94 -58 94 -140q0 -118 -118 -210q-116 -94 -268 -94 q-110 0 -184 50q-70 48 -70 126z" />
<glyph unicode="&#xb4;" d="M860 1064l398 630l26 24l30 12q10 0 24 -14q8 -8 18 -24l-6 -32l-20 -30l-400 -568z" />
<glyph unicode="&#xb5;" horiz-adv-x="2102" d="M-92 -706q0 74 112 578q104 436 198 856l214 1044h240l-226 -1038l-10 -84l-4 -92q0 -194 94 -306q90 -116 244 -116q192 0 336 168q140 164 222 502l220 962l238 4l-234 -1058l-40 -208q-12 -94 -12 -148q0 -92 40 -138q36 -48 110 -48q78 0 152 52q72 52 110 150 l60 158q44 144 88 144q20 0 36 -16q12 -18 18 -48q0 -46 -32 -166q-36 -100 -74 -186q-80 -148 -184 -216q-116 -68 -238 -68q-140 0 -208 86q-78 92 -78 258v30v36q-84 -216 -218 -322q-138 -100 -320 -100q-190 0 -298 102q-114 102 -140 314q-46 -270 -82 -654 q-54 -554 -202 -554q-50 0 -94 34q-38 36 -38 88z" />
<glyph unicode="&#xb6;" d="M178 2162q0 290 216 482q212 186 576 186h894v-122h-256v-2708h-140v2708h-386v-2708h-140v1496q-170 0 -310 50q-132 48 -246 144q-208 182 -208 472z" />
<glyph unicode="&#xb7;" horiz-adv-x="684" d="M218 792q0 50 36 90t86 40q48 0 86 -38q36 -36 36 -92q0 -48 -34 -82q-38 -34 -88 -34q-52 0 -86 34q-36 30 -36 82z" />
<glyph unicode="&#xb8;" d="M652 -818l14 62q100 -54 224 -90q114 -34 200 -34q134 0 210 76q80 76 80 204q0 118 -70 188q-72 68 -200 68h-56h-3h-2h-2h-2h-3h-3h-2h-2h-2h-2t3 3t-38 -15l2 356h50v-292l14 4l84 6q158 0 250 -82q90 -80 90 -230q0 -156 -108 -252q-114 -94 -284 -94q-54 0 -102 6 q-50 6 -110 24q-128 38 -230 92z" />
<glyph unicode="&#xb9;" horiz-adv-x="840" d="M198 974q12 20 18 32q12 20 20 30q16 28 40 68l14 28q6 12 14 24q6 14 22 38l150 284v54l130 44l-28 -910l-202 -44v20q72 0 72 370q0 98 12 240q0 30 3 57t5 51q4 28 4 38q4 24 4 28q-10 -16 -18 -31t-14 -27q-6 -14 -13 -26t-13 -24t-12 -23t-10 -19q-14 -20 -18 -32 q-6 -12 -12 -20t-8 -14q-6 -12 -11 -20t-5 -12q-30 -52 -32 -58l-92 -160z" />
<glyph unicode="&#xba;" horiz-adv-x="1400" d="M112 1934q130 174 182 302q54 128 54 322q0 84 -12 202q0 74 34 74q16 0 54 -22q54 -68 134 -98q78 -30 186 -30q168 0 520 76q60 8 72 8q50 0 68 -30q18 -32 22 -110l-1050 -2378q6 0 21 4t37 10q42 10 98 10q112 0 254 -46q136 -46 292 -160q8 12 19 26t23 30 q76 92 146 186q58 82 86 160l34 -64q-76 -132 -134 -212q-50 -72 -156 -184q14 -18 22 -42q8 -20 12 -24l8 -24q24 -62 46 -158q18 -98 28 -276q0 -262 -24 -436q-24 -162 -44 -232q-54 -272 -202 -436q-144 -160 -308 -160q-140 0 -228 128q-92 132 -92 374q0 282 132 666 q4 8 7 17t9 17q16 40 50 98q24 46 76 110q66 82 142 162q44 48 100 101t122 109q-88 76 -184 132q-96 52 -204 52q-160 0 -314 -134q-52 -32 -80 -32q-30 -2 -30 40q0 16 6 40l1094 2516q32 54 32 76q0 10 -12 10q-6 0 -42 -10q-18 -6 -32 -10t-20 -4q-222 -86 -390 -86 q-208 0 -376 116q12 -78 12 -152q0 -190 -70 -350q-66 -156 -174 -274q-26 -44 -38 -44q-16 0 -18 44zM370 -1258q0 -206 62 -316q64 -110 166 -110h16q16 4 68 20t116 84q64 66 160 248q56 180 82 344q26 186 26 376q0 242 -24 362q-22 118 -60 168q-18 -10 -37 -24 t-39 -28q-30 -22 -40 -28q-42 -36 -72 -65t-50 -49t-41 -42t-41 -46q-16 -20 -24 -28q-66 -80 -98 -142q-40 -66 -76 -154q-94 -326 -94 -570z" />
<glyph unicode="&#xbb;" horiz-adv-x="1364" d="M362 10q0 34 48 118q26 48 82 135t140 211l2 2q-156 206 -210 308q-62 110 -62 144l6 16h10q18 0 114 -100l140 -152l94 -86q114 -108 114 -138q0 -28 -114 -136l-94 -88l-138 -146q-90 -96 -108 -98h-16zM828 10q0 56 236 406l38 60q-176 236 -216 316q-58 100 -58 136 q0 6 1 9t1 7h14q16 0 112 -100l142 -152l92 -86q110 -114 110 -138q0 -32 -110 -136l-92 -88l-142 -146q-90 -96 -108 -98h-16z" />
<glyph unicode="&#xbc;" horiz-adv-x="2020" d="M192 1014l118 208l138 264l8 50l122 46l-26 -854l-192 -40l-2 18q70 0 70 354l20 374q-8 -16 -14 -24q-2 -4 -6 -11t-8 -17q-6 -12 -8 -14q-2 -6 -5 -9t-3 -7q-14 -26 -14 -28q-4 -6 -12 -20t-18 -34q-28 -52 -34 -64l-120 -202zM380 0l1172 1572l82 -2l-1172 -1570h-82z M1240 360q0 20 32 42q28 20 78 20h26q14 0 38 -10q38 48 62 128q12 46 16 82q2 34 5 58t3 38q0 60 -14 124q-12 34 -40 84h44q78 0 122 -38q42 -36 42 -112q0 -80 -54 -176q-50 -84 -158 -196l114 -44l98 -20q4 14 52 120q6 20 56 110q40 72 114 160l12 -16q-10 -10 -46 -82 q-24 -50 -36 -100q-6 -18 -10 -29t-4 -15q-10 -46 -10 -52q-16 -80 -16 -116q40 0 76 18q34 14 34 50q0 6 -10 26l-26 22l36 24l20 6q10 0 32 -12q12 -12 18 -36q0 -50 -52 -82q-62 -32 -128 -32l-18 -110l-6 -138v-42l72 8l-252 -28q8 94 30 166l50 160q-50 2 -104 22 q-56 20 -52 20q-40 16 -58 28l-94 -58l-42 -8q-26 0 -38 8q-14 8 -14 28zM1268 368q0 -14 8 -18q6 -6 24 -6q16 0 46 12q24 10 54 40l2 4h-18l-34 6q-38 0 -58 -12q-24 -12 -24 -26z" />
<glyph unicode="&#xbd;" horiz-adv-x="2020" d="M192 1014l116 208l140 264l8 50l122 46l-26 -854l-192 -40l-2 12q70 0 70 358l20 376q-8 -16 -14 -24q-2 -4 -6 -11t-8 -17q-6 -12 -8 -14q-2 -6 -5 -9t-3 -7q-14 -26 -14 -28q-22 -38 -38 -68t-28 -50l-118 -202zM380 -2l1172 1574l82 -2l-1172 -1572h-82zM1318 22 q0 24 22 60q18 36 60 78l152 182q210 236 210 356q0 66 -40 114q-42 44 -114 44q-74 0 -124 -42q-54 -40 -54 -100q0 -56 38 -84q24 -20 46 -22q36 -10 64 -10l-54 -48l-24 -8l-32 -2q-56 0 -88 30q-32 32 -32 88q0 96 86 160q86 66 224 66q106 0 180 -58q74 -62 74 -138 q0 -66 -52 -132q-44 -58 -214 -184l-6 -6q-156 -118 -210 -186q28 12 60 22l52 8q42 0 44 -2q18 -8 36 -14q32 -14 82 -48l44 -36q46 -40 84 -40q36 0 100 70l26 28l16 -16q-66 -80 -116 -118q-50 -34 -104 -34q-42 0 -56 6q-24 4 -44 32l-22 24q-106 114 -156 114l-26 -6 l-36 -14l-20 -84q-12 -72 -44 -72q-16 0 -22 2q-10 6 -10 20z" />
<glyph unicode="&#xbe;" horiz-adv-x="2020" d="M86 856q0 50 26 72q30 26 78 26l20 -4l38 -6q-22 -20 -46 -54q-14 -28 -14 -54q0 -52 40 -88q42 -36 110 -36q88 0 148 60q58 64 58 156q0 100 -66 158q-66 56 -184 56h-36v18q110 8 186 66q68 54 68 144q0 80 -48 126q-48 52 -112 52q-58 0 -92 -34q-38 -30 -38 -74 q0 -54 30 -78q26 -30 78 -30h18h12l-50 -48l-62 -6q-54 0 -86 30q-20 16 -22 34q-10 16 -10 46q0 78 78 130q72 54 188 54q110 0 182 -42q74 -50 74 -110q0 -82 -66 -144q-68 -58 -212 -114q142 0 234 -56q84 -52 84 -132q0 -114 -110 -196q-114 -86 -256 -86 q-102 0 -174 44q-66 42 -66 120zM380 0l1172 1572l82 -2l-1172 -1570h-82zM1242 360q0 24 30 42q28 20 78 20h28q14 0 38 -10q36 44 62 128q4 22 8 43t8 39q6 42 6 96q0 76 -12 124q-18 42 -42 84h44q78 0 122 -38q42 -36 42 -112q0 -80 -54 -176q-50 -84 -158 -196l114 -44 l98 -20q12 32 26 60q6 12 12 30q4 6 16 30q18 46 56 110q48 84 112 160l12 -18q-16 -24 -27 -45t-19 -37q-16 -34 -16 -38q-14 -36 -20 -60q-16 -42 -22 -96q-16 -58 -18 -116q42 0 78 18q32 16 32 50q0 6 -10 26l-26 22l36 24l16 6q16 0 34 -12q12 -14 20 -36 q0 -50 -52 -82q-62 -32 -128 -32l-18 -110l-4 -138v-42l70 8l-252 -28q12 98 30 168l50 158q-50 2 -104 22q-56 20 -52 20q-42 14 -56 28l-92 -58l-44 -8q-26 0 -38 8q-14 8 -14 28zM1268 368q0 -2 8 -18q6 -6 24 -6q14 0 48 12q32 20 52 40l2 4h-18l-34 6q-32 0 -58 -12 q-24 -12 -24 -26z" />
<glyph unicode="&#xbf;" horiz-adv-x="1156" d="M228 352q0 66 20 126q18 56 60 108q46 62 170 178q140 136 168 174q42 56 66 152q24 110 24 240l38 2q0 -16 -1 -37t-1 -49t-2 -40v-22v-20q-8 -70 -20 -126q-18 -116 -68 -206q-18 -40 -84 -132q-154 -222 -154 -382q0 -120 70 -192q68 -72 190 -72q100 0 196 60 q96 54 96 102l-88 30q-88 20 -88 118q0 40 28 78q34 34 84 34q52 0 88 -48t36 -122q0 -130 -122 -216q-118 -90 -290 -90q-196 0 -302 94q-114 92 -114 258zM630 1754q0 46 34 90q38 42 90 42q46 0 84 -40q38 -44 38 -92q0 -54 -36 -96q-42 -38 -86 -38q-50 0 -88 38 q-36 38 -36 96z" />
<glyph unicode="&#xc0;" horiz-adv-x="2314" d="M6 446q0 128 112 222q114 96 246 96q62 0 122 -24q44 -24 94 -70q44 -50 44 -80q0 -22 -28 -36q-28 -12 -50 -12q-32 0 -32 28q0 12 12 40q-48 46 -82 66q-52 22 -76 22q-84 0 -138 -84q-56 -88 -56 -178q0 -204 86 -290q80 -92 292 -92q108 0 190 118q62 96 120 308 q0 6 4 26q0 6 3 15t5 19q8 28 10 44q4 14 12 50q4 20 11 53t17 75q4 18 7 37t9 39q8 38 18 84q-86 0 -186 -26q-26 -6 -98 -24q-14 -2 -28 -6t-28 -6q-16 -6 -31 -9t-31 -7q116 66 214 98q106 34 206 48q56 224 164 440q68 150 198 350q54 92 162 228q0 -32 6 -64 q0 -12 4 -32q2 -12 6 -32q2 -24 5 -40t5 -24q0 -8 2 -17t4 -15q0 -8 2 -17t4 -15q12 -112 30 -204q0 -12 2 -24l4 -24q4 -16 8 -48t18 -92q14 -94 36 -194q4 -38 8 -52q4 -16 12 -52q2 -14 5 -28t7 -26q2 -14 6 -28t8 -26q134 0 298 98q-28 -30 -48 -51t-32 -33 q-84 -68 -206 -72v2q2 -18 6 -35t8 -33q4 -28 16 -66q2 -16 6 -33t8 -33t7 -33t9 -31q8 -44 14 -66q2 -18 6 -34l8 -32q12 -44 16 -66q4 -18 7 -34t9 -32q102 -280 334 -280q96 0 184 84q74 74 74 144q0 106 -34 168q-44 76 -156 76q-42 0 -70 -28q-28 -32 -28 -84 q0 -46 24 -112q-60 32 -78 64q-24 38 -24 72q0 56 56 108q58 50 116 50h4h4h4h4h3h3h4h4q128 0 198 -96q56 -84 56 -212q0 -136 -108 -232q-118 -94 -300 -94q-162 0 -300 106q-138 104 -180 224q-16 30 -30 64t-28 70q-16 42 -29 77t-19 65q-64 188 -78 280q-54 0 -242 24 q-88 14 -134 14q-94 -512 -200 -716q-108 -206 -294 -206q-280 0 -406 92q-146 104 -142 354zM1066 994q56 0 182 -6q36 -6 76 -11t82 -11v2q-30 234 -30 442q0 86 6 170q0 50 6 84q2 36 10 62q-70 -52 -172 -280q-114 -242 -160 -452zM1146 2802q0 10 10 18q4 10 32 10 q18 0 30 -8q2 -2 26 -20l398 -508h-70l-404 460l-18 22z" />
<glyph unicode="&#xc1;" horiz-adv-x="2314" d="M6 446q0 124 112 222q114 96 246 96q58 0 122 -24q40 -22 94 -70q44 -50 44 -80q0 -22 -28 -34q-30 -16 -50 -16q-32 0 -32 30q0 12 12 40q-52 48 -82 66q-48 22 -76 22q-84 0 -138 -84q-56 -92 -56 -178q0 -208 86 -290q86 -92 292 -92q106 0 190 116q62 98 120 310 q2 20 6 35t6 25q8 28 10 44q4 16 12 52q6 28 13 60t15 66q4 18 7 37t9 39q8 38 18 84q-76 0 -186 -24q-18 -6 -45 -12t-65 -16q-6 -2 -13 -4t-13 -2q-8 -2 -15 -4t-13 -2q-8 -4 -52 -14q130 70 214 98q118 36 206 46q48 210 164 442q64 144 198 352q48 76 162 226 q0 -34 6 -64q0 -12 4 -32q2 -12 6 -32q2 -22 5 -38t5 -26q0 -8 2 -17t4 -15q2 -12 6 -32q12 -108 30 -204q14 -100 32 -188q10 -92 36 -194q4 -36 8 -50q2 -14 5 -28t7 -26q4 -18 10 -46t16 -64q136 0 298 102q-66 -72 -80 -86q-86 -70 -206 -72v2q2 -18 6 -34l8 -32 q4 -28 16 -68q2 -16 6 -33t8 -33t7 -33t9 -33q2 -16 5 -33t9 -31q2 -18 6 -34l8 -32q12 -44 16 -66q4 -18 7 -33t9 -31q102 -282 334 -282q100 0 184 84q74 76 74 146q0 100 -34 166q-44 76 -156 76q-42 0 -70 -28q-28 -32 -28 -84q0 -44 24 -112q-54 30 -78 66t-24 70 q0 56 56 108q58 50 116 50h4h4h4h4h3h3h4h4q126 0 198 -96q56 -84 56 -212q0 -134 -108 -230q-118 -96 -300 -96q-162 0 -300 108q-138 102 -180 222q-36 74 -58 136q-32 80 -48 140q-64 180 -78 278q-38 0 -242 28q-114 12 -134 12q-92 -506 -200 -716q-106 -206 -294 -206 q-280 0 -406 92q-146 104 -142 354zM1066 996q44 0 182 -10q28 -4 68 -9t90 -11q-30 234 -30 442q0 88 6 172q0 50 6 86q2 40 10 58q-70 -54 -172 -278q-112 -232 -160 -450zM1314 2292l398 512l24 20l32 6q8 0 24 -6q14 -12 18 -22l-6 -26l-20 -22l-400 -462h-70z" />
<glyph unicode="&#xc2;" horiz-adv-x="2314" d="M6 446q0 126 112 224q108 94 246 94q58 0 122 -22q58 -32 94 -72q44 -48 44 -78q0 -24 -28 -36q-28 -14 -50 -14q-32 0 -32 30q0 10 12 40q-62 52 -82 64q-48 24 -76 24q-84 0 -138 -84q-56 -92 -56 -180q0 -208 86 -290q80 -90 292 -90q108 0 190 116q64 98 120 310 q0 2 4 26q0 6 3 15t5 19q6 20 10 44q4 16 12 52q2 12 6 27t8 31q2 14 5 32t9 36q4 18 7 37t9 39q8 38 18 84q-76 0 -186 -24q-8 -2 -15 -4t-13 -2q-8 -2 -15 -5t-13 -3q-8 -2 -28 -6q-6 -2 -13 -4t-13 -2q-10 -2 -23 -6t-31 -8q-16 -4 -26 -6q-6 -2 -13 -5t-13 -3 q104 58 214 98q108 36 206 46q48 208 164 444q60 140 198 352q56 90 162 226q0 -32 6 -64q0 -12 4 -32q0 -8 2 -17t4 -15q2 -22 5 -38t5 -26q2 -12 6 -32q0 -10 2 -18l4 -16q12 -114 30 -202q6 -40 13 -87t19 -101q16 -104 36 -194q4 -36 8 -52q2 -14 5 -28t7 -26l10 -45 t16 -63q134 0 298 100q-68 -74 -80 -84q-82 -70 -206 -74q2 -16 6 -33t8 -33q4 -22 16 -66q2 -18 6 -34l8 -32q4 -18 7 -34t9 -32q4 -26 11 -59t17 -73l16 -64q4 -18 7 -34t9 -32q102 -282 334 -282q96 0 184 84q74 74 74 144q0 104 -34 170q-46 76 -156 76q-40 0 -70 -30 q-28 -32 -28 -84q0 -44 24 -112q-60 32 -78 66q-24 36 -24 70q0 58 56 110q60 48 116 48h4h4h4h4h3h3h4h4q126 0 198 -96q56 -84 56 -212q0 -134 -108 -230q-118 -96 -300 -96q-162 0 -300 106q-132 100 -180 226q-68 138 -106 274q-60 180 -78 282q-70 0 -242 26 q-106 12 -134 12q-94 -510 -200 -718q-106 -206 -294 -206q-280 0 -406 92q-146 104 -142 354zM1066 996q46 0 182 -6q12 -2 158 -22q-30 236 -30 442q0 88 6 172q0 50 6 86q2 34 10 60q-60 -42 -172 -278q-108 -228 -160 -454zM1122 2298l324 532h64l324 -532h-66l-290 432 l-286 -430z" />
<glyph unicode="&#xc3;" horiz-adv-x="2314" d="M6 482q0 130 112 240q110 102 246 102q56 0 122 -26q44 -26 94 -76q44 -50 44 -86q0 -24 -28 -36q-26 -16 -50 -16q-32 0 -32 32q0 12 12 42q-50 52 -82 70q-46 24 -76 24q-84 0 -138 -90q-56 -94 -56 -192q0 -222 86 -312q80 -98 292 -98q108 0 190 124q62 106 120 334 q0 8 4 28q0 8 3 17t5 21q6 26 10 46q8 36 12 56q2 14 6 30t8 34q2 16 5 35t9 37q4 18 7 39t9 43q6 28 18 92q-74 0 -186 -28q-12 -4 -26 -8t-30 -6q-42 -14 -54 -14q-18 -4 -54 -16q4 0 -26 -6q-12 -6 -26 -6q106 62 214 104q108 40 206 52q48 226 164 476q70 164 198 376 q32 56 74 120q24 36 88 126q0 -34 6 -70q0 -10 4 -34q0 -10 2 -18l4 -16q2 -24 5 -41t5 -29q0 -8 2 -18t4 -16q4 -24 6 -34q12 -118 30 -222q4 -44 12 -95t20 -107q14 -112 36 -206q2 -36 8 -58q2 -14 5 -29t7 -27q2 -16 5 -30t7 -28q2 -16 6 -31t8 -29q132 0 298 108 q-30 -36 -50 -59t-30 -33q-82 -74 -206 -78q2 -18 6 -36t8 -34q4 -24 16 -72q2 -18 6 -35t8 -35t7 -36t9 -36q4 -28 11 -64t17 -78t16 -70q4 -18 7 -35t9 -35q100 -302 334 -302q96 0 184 88q74 82 74 158q0 112 -34 180q-46 84 -156 84q-44 0 -70 -34q-28 -32 -28 -90 q0 -46 24 -120q-66 42 -78 72q-24 36 -24 74q0 64 56 116q56 56 116 56h4h4h4h4h3h3h4h4q128 0 198 -106q56 -88 56 -226q0 -146 -108 -250q-120 -102 -300 -102q-166 0 -300 114q-134 110 -180 244q-70 152 -106 296q-32 96 -51 171t-27 129q-48 0 -242 30q-126 14 -134 14 q-94 -556 -200 -774q-108 -222 -294 -222q-276 0 -406 100q-146 110 -142 382zM1064 2510q26 132 86 200q52 64 148 64q32 0 64 -8l64 -18l168 -56l28 -10h44q58 0 100 32q32 36 60 116h66q-32 -132 -88 -198q-64 -64 -154 -64l-56 4l-64 16l-162 60l-42 12h-44 q-52 0 -98 -40q-40 -36 -56 -110h-64zM1066 1074q82 0 182 -10q24 -4 40 -4q12 -2 40 -6q54 -6 78 -12q-30 254 -30 476q0 94 6 184q0 56 6 92q2 40 10 66q-66 -50 -172 -300q-106 -240 -160 -486z" />
<glyph unicode="&#xc4;" horiz-adv-x="2314" d="M6 496q0 140 112 246t246 106q64 0 122 -26q44 -26 94 -78q44 -54 44 -90q0 -20 -28 -38q-30 -16 -50 -16q-32 0 -32 34q0 16 12 44q-56 56 -82 74q-44 22 -76 22q-86 0 -138 -92q-56 -100 -56 -200q0 -226 86 -320q80 -100 292 -100q108 0 190 128q62 110 120 344 q0 8 4 28q0 8 3 18t5 22q6 26 10 48q4 16 12 56q2 14 6 31t8 35q8 54 14 76q4 18 7 39t9 45q6 28 18 92q-82 0 -186 -28q-12 -4 -26 -8t-30 -6q-42 -14 -54 -14q-84 -26 -106 -30q114 70 214 108q114 42 206 52q48 230 164 490q60 150 198 390q24 44 65 107t97 145 q0 -40 6 -72q0 -14 4 -34q2 -22 6 -36q2 -24 5 -42l5 -30q0 -10 2 -19t4 -17q0 -10 2 -19t4 -17q12 -124 30 -226q6 -44 13 -96t19 -112q16 -120 36 -214q4 -40 8 -58q2 -16 5 -31t7 -29q2 -16 5 -31t7 -29q2 -16 6 -31t8 -29q128 0 298 110q-60 -72 -80 -92 q-82 -74 -206 -82v4q2 -20 6 -38l8 -36q4 -26 16 -74q2 -18 6 -37t8 -37t7 -36t9 -36q4 -30 11 -67t17 -79q10 -44 16 -72q4 -18 7 -37t9 -37q98 -312 334 -312q98 0 184 94q74 82 74 160q0 114 -34 186q-46 84 -156 84q-40 0 -70 -30q-28 -36 -28 -96q0 -48 24 -122 q-62 38 -78 74q-24 38 -24 76q0 66 56 122q54 52 116 52h4h4h4h4h3h3h4h4q128 0 198 -104q56 -94 56 -236q0 -152 -108 -254q-120 -108 -300 -108q-166 0 -300 120q-132 110 -180 246q-16 34 -30 71t-28 79q-30 84 -48 156q-64 202 -78 310q-44 0 -242 30q-84 14 -134 14 q-94 -562 -200 -796q-108 -228 -294 -228q-274 0 -406 102q-146 116 -142 394zM1066 1104q70 0 182 -6q38 -6 77 -12t81 -12q-30 260 -30 490q0 96 6 190q0 54 6 94q2 38 10 68q-70 -58 -172 -310q-108 -254 -160 -502zM1146 2724q0 44 32 76q32 30 80 30h2q46 0 82 -32 q38 -34 38 -74q0 -44 -34 -74q-40 -30 -88 -30q-54 0 -82 26q-30 30 -30 78zM1580 2724q0 44 32 76q30 30 84 30q42 0 78 -30q36 -36 36 -76q0 -46 -32 -74q-36 -30 -82 -30q-60 0 -86 26q-30 30 -30 78z" />
<glyph unicode="&#xc5;" horiz-adv-x="2314" d="M204 810q0 304 124 574q128 268 384 478q150 128 370 210q216 80 436 80q304 0 514 -130q204 -126 204 -326q0 -146 -92 -252q-86 -104 -280 -194v-998q0 -120 28 -160q24 -38 98 -38q170 0 344 126q176 124 320 354l38 -12q-168 -254 -370 -386q-212 -136 -428 -136 q-136 0 -204 80q-72 80 -72 234l2 2q-178 -160 -354 -240q-112 -48 -178 -58q-100 -18 -190 -18q-318 0 -504 222q-190 216 -190 588zM464 888q0 -358 174 -576q168 -220 440 -220q128 0 264 66q132 64 276 196v850h-28h-44q-148 0 -246 54q-96 50 -96 136q0 54 40 94 q8 8 46 26q32 10 58 10h12l118 -10q-48 -38 -66 -68q-24 -40 -24 -72q0 -62 54 -100q54 -40 138 -40h18h20l2 430l302 88l-2 -36q-28 -16 -42 -46q-14 -26 -14 -86v-300q116 52 176 144q58 94 58 216q0 206 -162 342q-84 62 -186 98q-112 34 -238 34q-188 0 -380 -84 q-188 -86 -336 -236q-168 -180 -244 -400q-88 -234 -88 -510zM1160 2544q0 124 102 202q96 84 250 84q142 0 244 -80q100 -86 100 -206q0 -124 -98 -202q-102 -82 -246 -82q-150 0 -250 82q-102 80 -102 202zM1234 2544q0 -98 80 -156q78 -64 194 -64q98 0 188 64 q82 62 82 156t-78 158q-82 66 -192 66v2q-114 0 -192 -64q-82 -68 -82 -162z" />
<glyph unicode="&#xc6;" horiz-adv-x="3526" d="M204 1068q0 402 124 756q122 340 382 634q156 172 372 272q210 100 436 100q106 0 180 -14q80 -18 162 -48q138 -60 248 -184q82 108 230 178q68 34 140 50q68 18 144 18q144 0 326 -92q188 -98 210 -98q28 0 90 40q62 46 136 126v-48q-112 -128 -204 -188 q-106 -68 -162 -68q-86 0 -272 126q-190 126 -274 126q-124 0 -214 -126q-96 -124 -96 -292q0 -124 48 -238q42 -116 142 -220q60 24 126 36q10 2 22 4l24 4h10q4 4 10 4q20 4 38 5t33 2t11 1q116 0 200 -46q78 -48 78 -120q0 -68 -74 -104q-80 -40 -192 -40q-94 0 -198 36 q-104 28 -224 104q-180 -96 -270 -274q-90 -184 -90 -432q0 -408 234 -696q228 -292 556 -290q246 0 420 176q170 174 170 442q0 234 -120 384q-122 148 -306 148q-122 0 -200 -84q-82 -96 -82 -212q0 -108 62 -178q56 -76 148 -76q24 0 58 12l72 34l-82 -138 q-20 -32 -46 -40q-36 -12 -72 -12q-106 0 -166 80q-68 72 -68 202q0 200 156 360q152 158 364 158q188 0 312 -134q118 -134 118 -352q0 -362 -254 -600q-256 -242 -636 -242q-250 0 -446 104q-202 108 -320 322q-222 -228 -414 -324q-202 -102 -404 -102q-332 0 -516 284 q-98 142 -142 338q-48 192 -48 446zM478 1170q0 -474 176 -758q172 -292 446 -290q132 0 294 84q152 88 318 254q-60 128 -76 266q-26 132 -26 332v374h-4h-3h-3h-3h-3h-3h-2h-2h-2h-2h-2h-2h-2h-2h-35q-152 0 -248 70q-96 72 -96 184q0 74 48 126q48 54 104 54h8l112 -26 q-48 -46 -66 -88q-22 -52 -22 -96q0 -80 54 -134q52 -52 138 -52h20h18v804l302 118v-52q-36 -28 -42 -60q-14 -32 -14 -114v-654q46 64 128 136q72 60 200 142q-98 92 -140 206q-46 122 -46 238q0 52 12 122q6 48 38 122q-114 152 -240 228q-136 78 -296 78 q-190 0 -374 -106q-194 -114 -332 -306q-168 -244 -246 -534q-46 -178 -62 -314q-20 -188 -20 -354zM2376 1850v2q92 -96 172 -134q82 -46 160 -46q60 0 114 28q46 30 46 64q0 56 -68 92q-68 38 -174 38q10 0 -62 -4q-12 0 -36 -4q-28 -4 -40 -4q-28 -6 -112 -32z" />
<glyph unicode="&#xc7;" horiz-adv-x="1840" d="M2 1872q0 148 44 286q62 204 188 334q98 108 258 180q36 12 54 12q32 0 32 -14q0 -16 -32 -26q-168 -66 -286 -200q-124 -136 -164 -292q-40 -158 -40 -290q0 -210 90 -338q80 -128 218 -166l2 2q38 574 270 956q196 336 536 480q94 34 186 34q166 0 284 -96 q122 -102 122 -248q0 24 -4 -52q-48 -306 -242 -606q-198 -300 -396 -384q-148 -66 -284 -112q-128 -44 -224 -52q0 -624 158 -906q152 -282 482 -282q186 0 374 110q192 116 298 318l32 -72q-128 -220 -356 -342q-210 -108 -454 -108q-342 0 -550 312q-230 346 -230 986 q-170 40 -270 204q-98 156 -96 372zM622 1336q72 4 232 58q22 4 98 40q18 6 36 14l36 16q12 6 40 18q10 4 22 9t24 11q212 94 392 390q180 294 210 588q12 110 -98 194q-114 90 -236 90q-80 0 -128 -34q-166 -118 -224 -178q-156 -150 -246 -394q-126 -332 -158 -802v-20z M886 -890q120 -72 230 -102q58 -18 110 -26q60 -8 102 -8q178 0 284 106q108 102 108 272q0 160 -90 252q-90 90 -250 90l-84 -8l-14 -4v320h-50l-2 -390q30 14 34 14h3h3h3h3h4h4h4h56q122 0 200 -74q70 -72 70 -206q0 -138 -78 -222t-212 -84q-78 0 -200 38 q-110 30 -224 98z" />
<glyph unicode="&#xc8;" horiz-adv-x="1308" d="M0 1474q0 134 96 224q104 90 314 146q-180 -96 -252 -174q-68 -80 -68 -182q0 -70 68 -104q58 -26 124 -26h6h6h4h6h4h4h4h4q0 200 118 312q114 108 370 148q50 8 104 8q102 0 162 -38q58 -40 58 -110q0 -46 -28 -108q-62 -108 -216 -178q-166 -80 -392 -96 q30 -94 76 -172q36 16 62 25t38 15q46 10 58 10q76 0 112 -24q38 -26 38 -54q0 -34 -30 -60q-34 -26 -70 -26q-42 0 -98 4q-38 2 -104 20q-108 -78 -186 -214q-96 -154 -96 -306q0 -190 130 -320q116 -124 336 -124q216 0 370 78q132 68 176 176q18 -14 24 -24q0 -12 10 -24 v4q-36 -120 -198 -204q-160 -78 -388 -80q-346 0 -526 178q-168 158 -168 386q0 168 106 302q90 122 314 232l-25 25l-10 10l-13 13q-20 20 -28 32q-58 62 -68 112q-136 0 -224 34q-114 48 -114 154zM490 1364q190 0 340 72q132 62 190 162q28 52 28 84q0 76 -118 76 q-24 0 -72 -8q-166 -28 -262 -126q-92 -104 -106 -260zM644 1080q26 -10 56 -12q16 -2 58 -2q26 0 42 8q14 8 14 24q0 30 -50 30q40 0 -40 -4q-16 -4 -80 -44zM800 2800q0 12 14 20q4 10 30 10q18 0 30 -8q12 -4 24 -22l400 -508h-70l-402 460l-18 24z" />
<glyph unicode="&#xc9;" horiz-adv-x="1308" d="M0 1474q0 134 96 224q104 90 314 146q-180 -96 -252 -174q-68 -80 -68 -182q0 -70 68 -104q58 -26 124 -26h6h6h4h6h4h4h4h4q0 200 118 312q114 108 370 148q50 8 104 8q102 0 162 -38q58 -40 58 -110q0 -46 -28 -108q-62 -108 -216 -178q-166 -80 -392 -96 q30 -94 76 -172q36 16 62 25t38 15q46 10 58 10q76 0 112 -24q38 -26 38 -54q0 -34 -30 -60q-34 -26 -70 -26q-42 0 -98 4q-38 2 -104 20q-108 -78 -186 -214q-96 -154 -96 -306q0 -190 130 -320q116 -124 336 -124q216 0 370 78q132 68 176 176q18 -14 24 -24q0 -12 10 -24 v4q-36 -120 -198 -204q-160 -78 -388 -80q-346 0 -526 178q-168 158 -168 386q0 168 106 302q90 122 314 232l-25 25l-10 10l-13 13q-20 20 -28 32q-58 62 -68 112q-136 0 -224 34q-114 48 -114 154zM490 1364q190 0 340 72q132 62 190 162q28 52 28 84q0 76 -118 76 q-24 0 -72 -8q-166 -28 -262 -126q-92 -104 -106 -260zM644 1080q26 -10 56 -12q16 -2 58 -2q26 0 42 8q14 8 14 24q0 30 -50 30q40 0 -40 -4q-16 -4 -80 -44zM776 2316l2 70l464 396l26 18l24 6q8 0 20 -12q10 -10 10 -30q0 -18 -8 -30q-8 -14 -22 -26z" />
<glyph unicode="&#xca;" horiz-adv-x="1308" d="M0 1476q0 136 96 226q104 92 314 146q-180 -96 -252 -176q-68 -78 -68 -180q0 -70 68 -104q56 -28 124 -28h6h6h4h6h4h4h4h4q0 204 118 314q118 108 370 148q42 8 104 8q102 0 162 -38q58 -40 58 -112q0 -44 -28 -106q-58 -106 -216 -180q-176 -78 -392 -94 q22 -82 76 -174q78 34 100 40q40 10 58 10q74 0 112 -22q38 -26 38 -56q0 -34 -30 -58q-32 -28 -70 -28q-60 0 -98 6q-24 0 -104 18q-108 -82 -186 -214q-96 -154 -96 -306q0 -190 130 -320q116 -126 336 -126q216 0 370 78q134 72 176 176q20 -12 24 -26q0 -10 10 -20v2 q-36 -124 -198 -204q-160 -78 -388 -80q-340 0 -526 178q-168 158 -168 388q0 168 106 302q90 122 314 232q-8 6 -20 18t-28 30q-22 22 -28 32q-48 46 -68 112q-140 0 -224 36q-114 42 -114 152zM490 1368q190 0 340 72q132 60 190 162v2q28 48 28 82q0 76 -118 76 q-38 0 -72 -8q-174 -32 -262 -126q-92 -104 -106 -260zM644 1082q44 -12 56 -12q28 -2 36 -2l22 -2q24 0 42 10q14 8 14 24q0 30 -50 30l-40 -4q-20 -4 -80 -44zM778 2298l322 532h66l324 -532h-66l-292 432l-282 -430z" />
<glyph unicode="&#xcb;" horiz-adv-x="1308" d="M0 1636q0 148 96 250q96 96 314 162q-182 -104 -252 -194q-68 -86 -68 -202q0 -80 68 -112q54 -32 124 -32h6h6h4h6h4h4h4h4q0 220 118 346q118 120 370 166q60 10 104 10q96 0 162 -46q58 -44 58 -122q0 -54 -28 -118q-54 -118 -216 -198q-178 -90 -392 -106 q28 -106 76 -190q60 28 100 42q38 12 58 12q76 0 112 -26q38 -30 38 -60q0 -40 -30 -66q-30 -30 -70 -30q-18 0 -98 4q-44 4 -104 22q-108 -86 -186 -236q-96 -172 -96 -340q0 -212 130 -354q118 -142 336 -140q210 0 370 86q134 86 176 196q20 -16 24 -28q0 -16 10 -22 q-36 -134 -198 -226q-160 -86 -388 -88q-340 0 -526 198q-168 176 -168 428q0 190 106 336q88 136 314 258q-28 28 -29 30t-5 5t-4 7q-8 8 -10 12q-22 22 -28 34q-50 56 -68 124q-138 0 -224 40q-114 48 -114 168zM490 1516q190 0 340 80q128 64 190 178q28 58 28 94 q0 84 -118 84q-44 0 -72 -8q-170 -34 -262 -140q-92 -120 -106 -288zM644 1200q20 -12 56 -14q68 -4 58 -4v2q26 0 42 8q14 10 14 28q0 32 -50 32q-24 0 -40 -4q-18 -4 -80 -48zM800 2724q0 36 32 76q30 30 82 30h2q46 0 82 -32q36 -30 36 -74q0 -50 -30 -76 q-42 -28 -90 -28q-54 0 -82 26q-32 28 -32 78zM1234 2724q0 42 34 76q30 30 82 30h2q42 0 78 -30q36 -36 36 -76q0 -48 -32 -76q-42 -28 -84 -28q-56 0 -84 26q-32 28 -32 78z" />
<glyph unicode="&#xcc;" horiz-adv-x="996" d="M6 160q0 18 2 28q0 10 6 38q8 24 34 44q24 14 62 14q54 0 78 -42q8 -28 -14 -48q-30 -24 -64 -24q-28 0 -34 12q-14 -22 -14 -38q0 -34 40 -52q48 -24 176 -24q202 0 274 114q58 90 58 322q0 18 -1 43t-1 55q-4 80 -4 138q-2 36 -2 74q0 10 -1 25t-1 35q0 16 -1 28t-1 18 v10v10v6v8q0 98 4 182t10 156q14 130 60 248q42 124 144 206q-188 -78 -238 -88q-96 -26 -190 -26h-4h-3h-3h-3h-3h-3h-3h-3t-3 1t-3 1h-3h-3h-4h-5h-21t-59 8l-174 -190l-42 48q26 20 50 48q36 36 60 63t38 43q-76 8 -122 56q-52 42 -52 90q0 12 2 14q8 38 42 62 q34 22 94 22q50 0 102 -36q48 -36 48 -96q0 -18 -14 -56q24 -8 78 -8q106 0 354 50q138 30 252 70q-96 -72 -122 -178q-32 -114 -32 -266v-42v-30t1 -22t1 -22t1 -24t1 -24q14 -248 14 -290q0 -54 -1 -104t-1 -92q0 -44 -1 -83t-1 -71q-2 -68 -5 -114t-3 -70 q-32 -214 -134 -298q-118 -92 -398 -92q-174 0 -240 54q-52 34 -52 106zM128 1808q0 -24 26 -42q24 -24 80 -42l2 2q16 28 16 50q0 16 -16 42q-18 18 -32 22q-20 4 -30 4q-22 0 -26 -4q-20 -4 -20 -32zM914 2802q0 10 10 18q10 10 30 10t30 -6q30 -24 28 -22l398 -508h-70 l-402 458l-18 24z" />
<glyph unicode="&#xcd;" horiz-adv-x="996" d="M6 160q0 18 2 28q0 10 6 38q10 28 34 44q24 14 62 14q54 0 78 -42q8 -28 -14 -48q-30 -24 -64 -24q-28 0 -34 12q-14 -22 -14 -38q0 -34 40 -52q44 -24 176 -24q202 0 274 114q58 90 58 322q0 18 -1 43t-1 55q-4 80 -4 138q-2 36 -2 74q0 10 -1 25t-1 35q0 16 -1 28 t-1 18v10v10v6v8q0 96 4 181t10 157q14 130 60 248q42 124 144 206q-202 -84 -238 -88q-96 -26 -190 -26h-4h-3h-3h-3h-3h-3h-3h-3t-3 1t-3 1h-3h-3h-4h-5h-21t-59 8l-174 -190l-42 48q26 20 50 48q22 22 46 49t52 57q-72 8 -122 54q-52 48 -52 90q0 14 2 16q8 38 42 62 q36 24 94 24q52 0 102 -38q48 -36 48 -96q0 -16 -14 -58q28 -4 78 -4q126 0 354 48q158 34 252 70q-96 -72 -122 -178q-32 -114 -32 -266v-42v-30t1 -22t1 -22t1 -24t1 -24q14 -248 14 -290q0 -54 -1 -104t-1 -92q0 -44 -1 -83t-1 -71q-2 -68 -5 -114t-3 -70 q-32 -214 -134 -298q-118 -92 -398 -92q-174 0 -240 54q-52 34 -52 106zM128 1808q0 -24 26 -42q24 -24 80 -42l2 2q16 28 16 50q0 16 -16 42q-18 18 -32 22q-20 4 -30 4q-18 0 -26 -4q-20 -4 -20 -32zM1082 2294l398 510l26 20l30 6q12 0 24 -8q0 -2 5 -8t13 -12l-6 -26 l-20 -24l-402 -460z" />
<glyph unicode="&#xce;" horiz-adv-x="996" d="M6 160q0 16 2 28q0 10 6 40q4 20 34 42q26 18 62 18q52 0 78 -46q8 -28 -14 -46q-32 -26 -64 -26q-22 0 -34 12q-14 -22 -14 -38q0 -32 40 -50q48 -26 176 -26q202 0 274 114q58 90 58 322q0 18 -1 43t-1 55q-4 80 -4 142q-2 34 -2 72q0 10 -1 26t-1 34t-1 29t-1 17v10 v10v7v7q0 96 4 181t10 157q12 130 60 250q44 124 144 206q-200 -82 -238 -88q-104 -26 -190 -26h-4h-3h-3h-3h-3h-3h-3h-3h-3h-3h-3h-3h-4h-5h-16t-64 10l-174 -190l-42 46l14 14q6 4 8 6l18 18l6 6l4 4q76 78 98 108q-72 4 -122 56q-52 44 -52 90q0 14 2 14q4 32 42 62 q30 24 94 24q48 0 102 -40q48 -34 48 -92q0 -20 -14 -58q36 -6 78 -6q126 0 354 48q74 18 138 35t114 35q-94 -70 -122 -176q-32 -120 -32 -268v-43v-31t1 -22t1 -22t1 -23t1 -23q14 -250 14 -294q0 -54 -1 -103t-1 -91q0 -46 -1 -85t-1 -71q-2 -68 -5 -114t-3 -68 q-32 -216 -134 -298q-120 -94 -398 -94q-174 0 -240 54q-52 34 -52 106zM128 1812q0 -24 26 -40q32 -32 80 -42h2q16 28 16 50q0 16 -16 42q-14 18 -32 22q-20 4 -30 4q-12 0 -19 -1t-17 -6t-10 -29zM888 2300l326 530h64l324 -530h-66l-290 432l-286 -432h-72z" />
<glyph unicode="&#xcf;" horiz-adv-x="996" d="M6 178q0 18 2 30q0 10 6 44q10 30 34 46q30 20 62 20q50 0 78 -48q8 -32 -14 -54q-36 -28 -64 -28q-22 0 -34 12q-14 -22 -14 -40q0 -38 40 -56q46 -28 176 -28q200 0 274 124q58 102 58 360q0 20 -1 47t-1 61q-2 32 -3 71t-1 85q-2 28 -2 48v32t-1 28t-1 38q0 20 -1 33 t-1 19v10v10v8v8q0 108 4 203t10 173q12 144 60 276q42 138 144 228q-208 -92 -238 -98q-106 -28 -190 -28h-4h-3h-3h-3h-3h-3h-3h-3h-3h-3h-3h-3h-4h-5h-17t-63 12l-174 -212l-42 52q8 8 16 17t14 15q10 8 20 22q6 6 12 14l12 16q6 6 12 14l12 16q18 18 30 33l20 25 q-72 4 -122 60q-52 52 -52 102q0 14 2 16q8 40 42 68q30 26 94 26q50 0 102 -42q48 -40 48 -104q0 -22 -14 -66q30 -2 49 -4t29 -2q114 0 354 56q72 18 135 37t117 37v2q-96 -78 -122 -194q-32 -134 -32 -298v-45v-35q0 -12 1 -24t1 -24q0 -14 1 -28t1 -26q14 -278 14 -324 q0 -60 -1 -114t-1 -102t-1 -91t-1 -79q-2 -76 -5 -127t-3 -77q-32 -238 -134 -330q-116 -104 -398 -104q-174 0 -240 60q-52 40 -52 118zM128 2006q0 -22 26 -44q28 -30 80 -46h2q16 32 16 56q0 20 -16 46q-16 20 -32 24q-10 4 -30 4q-22 0 -26 -2q-20 -8 -20 -38zM914 2724 q0 46 32 76q30 30 80 30h2q44 0 82 -32t38 -74q0 -46 -34 -76q-42 -28 -88 -28q-54 0 -82 26q-30 26 -30 78zM1348 2724q0 44 32 76q32 30 84 30h2q40 0 76 -30q36 -34 36 -76q0 -48 -32 -76q-42 -28 -82 -28q-58 0 -86 26q-30 26 -30 78z" />
<glyph unicode="&#xd0;" horiz-adv-x="2482" d="M76 200q0 68 102 128q102 54 254 54q96 0 230 -40q12 -6 48 -19t96 -37q8 -6 19 -10t23 -10q14 -6 46 -22l68 -34t32 -14q116 116 178 276q28 94 40 176q14 84 14 216l-2 114l-6 128h-346v48h340l-4 40l-12 318q0 276 102 508q96 230 310 428v-40q-96 -130 -126 -244 q-42 -136 -42 -280q0 -82 28 -340q0 -14 4 -70q0 -8 1 -17t3 -15q0 -8 1 -15t3 -13q6 -64 12 -106q10 -76 10 -154h316v-48h-316v-64q0 -270 -108 -486q-110 -218 -336 -396q126 -64 216 -82q74 -28 178 -28q326 0 544 328q216 326 216 854q0 360 -100 680q-96 292 -296 534 q-140 158 -294 236q-166 80 -346 80q-382 0 -624 -260q-254 -268 -254 -648q0 -262 110 -426q104 -166 280 -166q44 0 72 6q18 2 70 22q60 30 140 100v-40q-110 -110 -210 -158q-116 -56 -220 -56q-202 0 -330 156q-134 156 -134 402q0 160 62 332q56 160 180 316 q186 228 444 358q256 130 550 130q462 0 730 -360q268 -362 268 -982q0 -676 -260 -1084q-254 -408 -668 -412q-14 0 -32 1t-42 1q-14 2 -40 5t-62 9q-64 10 -118 36q-50 10 -132 50q-112 -36 -146 -44l-36 -10q-36 -8 -34 -8q-12 -4 -20 -6t-12 -2q-24 -4 -28 -6 q-58 -12 -110 -16q-46 -2 -73 -2h-37q-168 0 -270 56q-114 54 -114 144zM112 194q0 -70 98 -108q98 -48 250 -48q114 0 238 24q94 18 190 66l-96 44q-162 74 -270 114q-116 40 -184 40q-100 0 -162 -40q-64 -40 -64 -92z" />
<glyph unicode="&#xd1;" horiz-adv-x="3204" d="M-4 480q0 138 108 238q108 102 248 102q66 0 120 -24q50 -26 94 -76t44 -84q0 -24 -28 -38q-24 -14 -50 -14q-30 0 -30 30q0 12 10 42q-48 52 -80 72q-42 24 -76 24q-84 0 -138 -90q-60 -94 -60 -192q0 -214 88 -310q84 -96 302 -96l2 2q102 0 178 152q64 148 118 390 q2 14 5 30t7 32q2 14 5 30t7 32q4 24 11 55t15 69q2 14 6 30l8 32q2 16 5 31t7 33q2 14 6 29t8 33q2 14 6 30l8 32q66 284 166 600q92 300 194 464q12 -122 118 -456q6 -20 12 -41t12 -39l12 -40t12 -38q6 -20 12 -41t12 -39q6 -20 12 -41t12 -39l12 -40t12 -38 q6 -20 12 -41t12 -39l12 -40t12 -38q6 -20 13 -41l13 -39q106 -384 126 -554q18 60 22 294q0 252 6 336q4 242 58 452q40 188 88 282q98 210 276 210q210 0 302 -82q82 -70 82 -222q0 -154 -94 -222q-76 -50 -164 -50q-86 0 -144 46q-56 40 -56 110q0 40 20 80 q0 -98 48 -140q38 -32 120 -32q102 0 144 44t42 164t-56 176q-72 66 -226 66q-134 0 -224 -196q-62 -136 -82 -260q-52 -256 -60 -566q-2 -44 -4 -87t-2 -83l-4 -44t-2 -40q0 -22 -1 -43t-1 -39q-4 -56 -4 -80q-4 -56 -4 -80q-2 -24 -6 -76q0 -20 -1 -39t-1 -37 q-14 -300 -78 -382q-38 106 -78 232q-22 64 -40 124t-34 114q-18 56 -38 115t-38 119t-37 120t-37 124q-36 106 -52 172q-22 68 -42 148q-42 146 -52 224q-38 190 -38 398q-12 -36 -23 -68t-19 -60q-10 -30 -18 -56t-14 -48q-36 -112 -40 -132q-78 -260 -100 -414 q-204 -1098 -500 -1098q-278 0 -404 98q-138 108 -142 382zM1818 2508q30 140 86 202q52 64 148 64q26 0 64 -8l64 -20l168 -56l28 -10h44q62 0 100 34q32 32 60 116h66q-32 -132 -88 -200q-62 -64 -154 -64l-56 4l-64 18l-162 58l-42 12h-44q-56 0 -96 -38 q-40 -40 -58 -112h-64z" />
<glyph unicode="&#xd2;" horiz-adv-x="2220" d="M8 904q0 326 114 566q132 284 414 402q-88 -84 -126 -136q-72 -114 -100 -270q-40 -210 -40 -534q0 -362 208 -608q204 -246 532 -246t542 236q214 246 214 676q0 384 -172 606q-178 218 -462 218q-172 0 -258 -114q-78 -100 -78 -270q0 -172 46 -264q60 -122 230 -166 q-68 -4 -66 -4q-166 0 -292 82q-144 96 -172 266q-6 30 -6 62q0 196 190 342q186 148 422 148q300 0 506 -248q202 -252 202 -632q0 -514 -272 -778q-254 -238 -686 -238q-380 0 -630 250q-260 248 -260 654zM910 2800q0 8 12 20q4 10 28 10q18 0 32 -10q2 -2 26 -20 l398 -508l-70 2l-404 458l-18 22z" />
<glyph unicode="&#xd3;" horiz-adv-x="2220" d="M8 906q0 324 114 564q132 284 414 402q-96 -90 -126 -136q-72 -108 -100 -268q-40 -214 -40 -536q0 -362 208 -608q204 -246 532 -246q330 0 542 236q214 246 214 676q0 384 -172 608q-178 216 -462 216q-176 0 -258 -112q-78 -100 -78 -272q0 -174 46 -262 q60 -122 230 -168v2q-52 -6 -66 -6q-166 0 -292 84q-146 96 -172 264q-6 32 -6 64q0 196 190 342q184 146 422 146q302 0 506 -246q202 -254 202 -634q0 -510 -272 -778q-254 -238 -686 -238q-380 0 -630 250q-260 250 -260 656zM1078 2294l398 510l26 20l30 6q14 0 24 -6 q6 -6 18 -22l-6 -24l-20 -24l-400 -460h-70z" />
<glyph unicode="&#xd4;" horiz-adv-x="2220" d="M8 906q0 328 114 568q132 290 414 402q-98 -92 -126 -136q-70 -106 -100 -270q-40 -210 -40 -536q0 -364 208 -608q200 -246 532 -246q328 0 542 234q214 246 214 678q0 386 -172 608q-178 220 -462 220q-172 0 -258 -114q-78 -102 -78 -272q0 -176 46 -264 q60 -120 230 -168q-32 -2 -49 -3t-98 -1t-211 84q-146 96 -172 266q-6 32 -6 62q0 192 190 344q180 146 422 146q302 0 506 -246q202 -254 202 -636q0 -516 -272 -778q-250 -240 -686 -240q-380 0 -630 250q-260 250 -260 656zM886 2300l324 530h64l324 -530h-66l-290 434 l-286 -434h-70z" />
<glyph unicode="&#xd5;" horiz-adv-x="2220" d="M8 976q0 352 114 610q130 306 414 432q-92 -88 -126 -146q-72 -116 -100 -292q-40 -228 -40 -576q0 -386 208 -654q200 -268 532 -264q334 0 542 252q214 268 214 730q0 412 -172 654q-178 234 -462 234q-176 0 -258 -122q-78 -108 -78 -292q0 -188 46 -282 q60 -132 230 -182v4q-44 -8 -66 -8q-162 0 -292 90q-144 102 -172 286q-6 32 -6 68q0 210 190 370q182 156 422 156q302 0 506 -266q202 -270 202 -684q0 -552 -272 -836q-252 -258 -686 -258q-380 0 -630 266q-260 274 -260 710zM828 2510q26 138 86 200q48 64 148 64 q34 0 64 -8l64 -18l168 -56l26 -12h46q56 0 100 34q32 30 60 116h66q-30 -128 -88 -198q-62 -64 -154 -64l-56 4l-64 16l-162 60l-42 12h-44q-52 0 -98 -40q-40 -44 -56 -110h-64z" />
<glyph unicode="&#xd6;" horiz-adv-x="2220" d="M8 1006q0 360 114 628q130 316 414 444q-92 -100 -126 -152q-72 -124 -100 -298q-40 -232 -40 -594q0 -400 208 -674q202 -276 532 -272q334 0 542 260q214 274 214 750q0 428 -172 676q-174 240 -462 240q-174 0 -258 -126q-78 -108 -78 -300t46 -292q58 -132 230 -186 v4q-30 -8 -66 -8q-164 0 -292 92q-146 104 -172 294q-6 36 -6 70q0 220 190 380q184 164 422 164q300 0 506 -274q202 -282 202 -704q0 -572 -272 -864q-252 -264 -686 -264q-384 0 -630 276q-260 276 -260 730zM910 2724q0 44 32 76q26 30 80 30h2q46 0 82 -30 q38 -34 38 -76q0 -50 -34 -74q-36 -28 -88 -28q-56 0 -82 24q-30 30 -30 78zM1344 2724q0 44 32 76q26 30 84 30q44 0 78 -30q36 -34 36 -76q0 -46 -32 -74t-82 -28q-60 0 -86 24q-30 30 -30 78z" />
<glyph unicode="&#xd7;" horiz-adv-x="3412" d="M616 244l976 976l-976 976l118 114l974 -974l972 974l118 -114l-978 -976l978 -976l-116 -112l-974 974l-976 -974z" />
<glyph unicode="&#xd8;" horiz-adv-x="2220" d="M204 998q0 324 114 612q104 282 342 534l-4 -32q-128 -180 -188 -386q-38 -118 -46 -210q-16 -116 -16 -228q0 -350 98 -602q96 -256 308 -440l344 1048q-176 18 -292 150q-122 126 -122 320q0 126 56 254q56 120 166 214q78 64 178 106q96 42 200 42q34 0 72 -8l92 -16 l156 474h70l-158 -498q226 -114 354 -362q124 -258 124 -598q0 -132 -14 -244q-22 -138 -44 -244q-28 -116 -64 -218q-38 -96 -90 -188q-160 -270 -348 -390q-190 -124 -444 -124q-50 0 -64 2q-28 0 -76 8q-44 8 -108 26l-174 -530h-68l184 556q-262 116 -400 370 q-138 246 -138 602zM820 1868q0 -164 110 -262q108 -106 280 -106h18l232 704q-54 30 -108 42q-40 6 -48 12q-32 2 -60 2q-186 0 -304 -110q-120 -108 -120 -282zM864 206q90 -66 178 -88q90 -28 176 -28q322 0 518 290q198 294 198 792q0 328 -108 592q-114 260 -308 406 l-220 -660l78 16q8 0 66 22q-12 -38 -27 -73t-27 -65q-36 -58 -72 -84l-18 -6l-72 -24z" />
<glyph unicode="&#xd9;" horiz-adv-x="2110" d="M4 1338q0 200 92 340q124 200 402 200q222 0 316 -72q134 -102 134 -372q0 -38 -2 -79t-2 -83q0 -26 -4 -90q0 -24 -1 -48t-1 -48q-2 -12 -3 -23t-1 -23t-1 -23t-1 -23q-4 -64 -6 -90q-2 -32 -3 -55t-1 -37q-4 -64 -6 -94q-6 -92 -8 -158t-2 -108q0 -120 18 -182 q26 -102 82 -162q54 -68 142 -68q210 0 366 146q90 90 160 232v1428h194v-1590q0 -88 20 -128q18 -46 72 -46q40 0 102 118q2 12 8 20q0 6 3 10t5 10l16 36q2 6 10 22q8 20 14 30l32 -54q-74 -174 -90 -194q-58 -82 -146 -82q-110 0 -166 72q-66 80 -66 258 q-80 -144 -168 -218q-148 -110 -370 -112q-172 0 -286 68q-126 68 -158 184q-34 114 -34 182q0 6 1 14t1 16q2 10 2 30q0 8 1 16t3 18q0 10 4 34q0 4 4 68q0 8 1 18t3 20q0 12 4 36q4 84 6 163t2 151h2q0 222 -3 359t-5 189q-22 274 -196 274q-200 0 -310 -140 q-114 -138 -114 -366q0 -158 76 -266q66 -100 156 -100q102 6 144 68q46 70 46 184q0 108 -82 158q-34 14 -80 24q32 8 60 8q72 0 116 -46q46 -54 46 -138v-5v-2v-2v-3v-3v-2v-2v-2v-2v-3v-3v-3v-3v-3v-62t-68 -134q-72 -74 -160 -74q-142 0 -234 122q-88 126 -88 300z M1602 2802q0 10 10 18q10 10 30 10q18 0 32 -8q2 -2 26 -20l398 -508h-70l-402 458l-18 24z" />
<glyph unicode="&#xda;" horiz-adv-x="2110" d="M4 1338q0 200 92 338q126 204 402 204q214 0 316 -74q134 -102 134 -372q0 -36 -2 -77t-2 -83q0 -30 -4 -90q0 -24 -1 -49t-1 -49q-2 -12 -3 -23t-1 -23t-1 -23t-1 -23q-4 -64 -6 -90q-2 -32 -3 -55t-1 -39q-4 -64 -6 -94q-10 -198 -10 -264q0 -116 18 -184 q22 -100 82 -160q52 -68 142 -68q210 0 366 148q98 94 160 230v1428h194v-1592q0 -88 20 -128q18 -44 72 -44q40 0 102 118q2 12 8 20q0 6 3 10t5 10q0 4 3 8t5 10q0 4 3 8t5 10q4 12 11 25t13 27l32 -52q-66 -156 -90 -198q-58 -78 -146 -80q-108 0 -166 70q-66 86 -66 260 q-84 -146 -168 -218q-146 -110 -370 -112q-174 0 -286 68q-126 64 -158 186q-34 108 -34 178q0 6 1 14t1 16q2 10 2 30q0 6 1 15t3 17q0 12 4 36q0 2 4 70q0 8 1 18t3 20q0 10 4 38q8 148 8 312h2q0 222 -3 359t-5 189q-24 272 -196 272q-200 0 -310 -138 q-114 -138 -114 -366q0 -158 76 -266q66 -100 156 -100q102 2 144 66q46 70 46 186q0 108 -82 158q-52 20 -80 24q42 10 60 10q68 0 116 -48q46 -50 46 -138v-3v-2v-2v-2v-3v-3v-2v-2v-3v-3v-3v-3v-3v-3v-3v-61t-68 -133q-72 -74 -160 -74q-148 0 -234 122q-88 124 -88 300z M1770 2292l398 512l26 20l30 6q10 0 24 -8q2 -2 18 -20l-6 -28l-20 -22l-400 -460h-70z" />
<glyph unicode="&#xdb;" horiz-adv-x="2110" d="M4 1340q0 200 92 340q126 204 402 204q214 0 316 -74q134 -102 134 -372q0 -38 -2 -79t-2 -85q0 -26 -4 -90q0 -24 -1 -48t-1 -48q-2 -30 -4 -53t-2 -39q-4 -64 -6 -90q-2 -32 -3 -56t-1 -36q-6 -66 -6 -94q-6 -92 -8 -158t-2 -108q0 -118 18 -184q22 -102 82 -162 q52 -68 142 -68q208 0 366 146q96 100 160 234v1430h194v-1594q0 -88 20 -128q12 -44 72 -44q40 0 102 118q0 2 16 38q0 4 3 8t5 10q0 4 3 8t5 10q4 10 12 26q4 10 12 26l32 -52q-68 -166 -90 -196q-56 -80 -146 -82q-110 0 -166 72q-66 80 -66 258q-84 -148 -168 -216 q-142 -112 -370 -114q-174 0 -286 68q-126 68 -158 186q-34 110 -34 180q0 6 1 14t1 16q2 10 2 32q0 6 1 14t3 18q0 10 4 34q0 2 4 70q0 8 1 17t3 19q0 14 4 38q4 84 6 163t2 149l2 2q0 222 -3 360t-5 190q-22 274 -196 274q-200 0 -310 -140q-114 -138 -114 -368 q0 -154 76 -266q66 -100 156 -100q102 6 144 66q46 70 46 184q0 110 -82 160q-36 16 -80 26q28 8 60 8q70 0 116 -46q46 -54 46 -140v-5v-2v-2v-3v-4v-5v-4v-3v-3v-2v-2v-3v-62t-68 -134q-74 -74 -160 -74q-146 0 -234 122q-88 124 -88 300zM1576 2298l326 532h64l324 -532 h-66l-290 432l-286 -430z" />
<glyph unicode="&#xdc;" horiz-adv-x="2110" d="M4 1486q0 220 92 376q124 224 402 224q220 0 316 -80q134 -114 134 -414q0 -42 -2 -86t-2 -92q0 -32 -4 -100q0 -26 -1 -53t-1 -55q-4 -32 -6 -100q-4 -72 -6 -104q-2 -34 -3 -59t-1 -43q-4 -68 -6 -104q-6 -98 -8 -172t-2 -122q0 -126 18 -204q26 -108 82 -178 q54 -76 142 -76q206 0 366 162q96 112 160 258v1586h194v-1768q0 -96 20 -140q18 -50 72 -50q42 0 102 132q4 16 8 22q0 4 3 10t5 12q0 4 3 9t5 11t8 18q14 36 24 60l32 -60q-68 -174 -90 -218q-60 -90 -146 -90q-108 0 -166 80q-66 90 -66 284q-82 -162 -168 -238 q-150 -126 -370 -126q-170 0 -286 76q-124 72 -158 204q-34 126 -34 200q0 6 1 15t1 19q2 10 2 34q0 8 1 17t3 21q0 12 4 36q0 10 4 78q0 10 1 19t3 21q0 16 4 44q4 92 6 179t2 167l2 2q0 246 -3 398t-5 208q-26 304 -196 304q-200 0 -310 -154q-114 -154 -114 -408 q0 -174 76 -294q64 -110 156 -110q100 2 144 74q46 76 46 202q0 122 -82 178q-32 16 -80 28q36 8 60 8q72 0 116 -52q46 -56 46 -154v-3v-2v-2v-2v-3v-3v-3v-3v-2v-2v-4v-6v-4v-3v-68t-68 -148q-72 -84 -160 -84q-144 0 -234 138q-88 132 -88 332zM1602 2722q0 46 32 76 q28 32 80 32h4q44 0 80 -32q38 -36 38 -76q0 -44 -34 -74q-38 -28 -88 -28q-56 0 -82 26q-30 26 -30 76zM2036 2722q0 46 32 76q32 32 84 32h2q40 0 76 -32q36 -30 36 -76q0 -42 -32 -74q-38 -28 -82 -28q-60 0 -86 26q-30 26 -30 76z" />
<glyph unicode="&#xdd;" horiz-adv-x="2058" d="M-4 1262q0 210 90 358q128 212 402 212q216 0 316 -78q134 -110 134 -390q0 -60 -2 -88q0 -24 -1 -47t-1 -45q-2 -24 -3 -46t-1 -44q-4 -64 -4 -94q-2 -12 -3 -24t-1 -24q-2 -16 -2 -48q-4 -40 -4 -96q0 -12 -1 -24t-1 -24q-4 -32 -4 -48q0 -12 -1 -24t-1 -24 q-2 -18 -2 -50q-8 -104 -10 -96q-2 0 -2 -38q0 -128 18 -194q22 -96 82 -166q56 -72 144 -72q204 0 354 142q88 88 160 242v1354h196v-1924q36 66 60 107t36 65q84 174 114 290l32 -80q-42 -146 -120 -298q-36 -64 -62 -120q-12 -20 -16 -30l-8 -16t-6 -16q-12 -20 -16 -30 q-6 -10 -14 -30v-888q0 -300 -94 -488q-118 -212 -340 -212q-112 0 -156 100q-50 106 -50 270q0 136 42 292q32 130 94 278q56 156 138 286q0 8 170 276l2 694q-104 -180 -238 -248q-128 -64 -284 -64q-160 0 -284 76q-126 74 -158 194q-38 128 -34 186q0 62 8 62q6 0 14 78 q0 26 2 40q0 10 1 20t1 22v18v22q2 12 2 40q0 20 1 41t1 43q2 26 2 82q0 234 -3 378t-5 198q-24 286 -194 286q-204 0 -312 -144q-118 -154 -116 -386q0 -158 80 -278q66 -106 156 -106q98 2 144 70q42 66 42 194q0 118 -78 166q-28 16 -80 26q32 10 56 10q70 0 116 -50 q48 -54 48 -146v-6v-4v-3v-3v-5v-4v-3v-3v-2v-2v-4v-68t-68 -137q-72 -80 -162 -80q-138 0 -228 130q-84 122 -88 314zM1290 -1512q0 -118 40 -196q32 -74 114 -74q126 0 178 220q30 138 30 356l2 686q-20 -30 -36 -57t-28 -51q-26 -42 -46 -80q-38 -68 -38 -70 q-74 -138 -108 -236q-38 -86 -64 -196q-38 -158 -38 -202q-6 -56 -6 -100zM1434 2266l398 536l26 20l30 8q12 0 24 -8q8 -12 18 -22l-6 -28l-20 -24l-402 -482h-68z" />
<glyph unicode="&#xde;" horiz-adv-x="2142" d="M36 372q0 80 54 134q52 56 138 56q36 0 82 -14q28 -8 86 -44h2q-102 -52 -138 -100q-42 -48 -42 -110q0 -120 106 -190q104 -78 270 -78q246 0 416 194q162 194 162 512q0 52 -12 190q-4 18 -8 45t-10 65q-2 16 -6 33t-4 37q-6 36 -12 78q-50 304 -50 418v7v3v4v6v4v4v8 v8v8v8q0 -4 4 64l10 122q-382 -56 -606 -248q-230 -194 -230 -452q0 -180 120 -296q42 -50 128 -90q86 -32 160 -32q42 0 102 12q44 8 124 36l-26 -38q-84 -52 -164 -78q-104 -26 -180 -26q-208 0 -342 116q-134 112 -134 300q0 270 296 510q296 242 762 326q22 122 64 230 q38 104 102 212q108 198 304 378l18 -26q-146 -136 -218 -326q-74 -200 -74 -448q384 0 618 -162q230 -168 230 -430q0 -252 -216 -438q-228 -188 -566 -224q-88 -308 -294 -484t-472 -176q-238 0 -394 110q-164 114 -160 272zM1290 1844v2q0 -108 14 -194q8 -94 46 -268 q56 -286 56 -388q0 -44 -4 -76q0 -18 -1 -29t-1 -17q-4 -32 -4 -30q0 -38 -12 -88q0 -8 -6 -22l-2 -18q-4 -28 -4 -24q232 20 388 188q148 162 148 398q0 220 -172 378q-180 160 -446 188z" />
<glyph unicode="&#xdf;" horiz-adv-x="1384" d="M204 -946q28 24 54 84q16 68 16 140v1942q0 500 124 768q126 264 376 264q138 0 234 -106q92 -108 92 -274q0 -88 -10 -140q-4 -20 -8 -30q-2 -8 -5 -17t-3 -15q-18 -48 -24 -76q-26 -66 -66 -142q-42 -78 -102 -162l-68 -102q-138 -208 -138 -246q0 -40 134 -66l88 -16 q122 -28 190 -102t68 -184q0 -136 -78 -270q-80 -138 -228 -256l48 -10h64q212 0 414 162q204 164 350 452l36 -14q-168 -316 -370 -476q-214 -162 -438 -162l-68 6l-90 14l-48 -14h-28q-72 0 -108 50q-42 48 -42 132q0 74 40 130q42 50 102 50q32 0 58 -16q18 -24 40 -62 q-90 0 -134 -34q-50 -42 -50 -98t28 -86q20 -34 76 -34q90 0 158 110q60 114 60 280q0 154 -28 224q-38 72 -114 116l-66 34q-114 48 -114 110q0 20 56 152l92 200q16 48 32 93t30 87q16 50 29 90t21 70q36 156 36 276q0 142 -50 240q-50 88 -130 88q-138 0 -204 -186 q-66 -190 -66 -586v-2346l-268 -70v34z" />
<glyph unicode="&#xe0;" horiz-adv-x="1162" d="M2 428q0 226 106 366q114 154 340 154q138 0 224 -82v74h188v-622v-4v-3v-3v-3v-3v-3v-3v-5v-4v-2v-2v-3v-3v-2v-2v-3v-5v-4v-3v-3v-2v-2v-3v-3v-3v-3v-2v-2v-3v-42t14 -72q20 -48 88 -48q56 0 114 112q30 66 86 224l30 -64q-66 -184 -94 -240q-66 -102 -186 -102 q-144 0 -190 44q-50 44 -50 176q-82 -108 -168 -160q-100 -60 -202 -60q-166 0 -240 140q-62 116 -60 288zM164 1340q0 108 78 202l2 2q60 -102 162 -172q106 -84 344 -154l-12 -70q-144 8 -352 78q-214 64 -222 114zM198 476q0 -120 54 -216q60 -114 178 -114q74 0 140 48 q62 54 102 116v418q-38 170 -190 170h2q-150 0 -224 -144q-62 -118 -62 -278z" />
<glyph unicode="&#xe1;" horiz-adv-x="2646" d="M218 0v2830h2302v-2830h-2302zM380 176h1978l-2 2478h-1976v-2478z" />
<glyph unicode="&#xe2;" horiz-adv-x="1162" d="M0 424q0 222 106 368q116 152 342 152q138 0 224 -82v74h188v-624v-4v-3v-3v-3v-3v-3v-2v-2v-3v-3v-3v-3v-3v-3v-2v-2v-3v-3v-3v-3v-3v-3v-3v-5v-4v-2v-2v-3v-3v-2v-42t14 -71q20 -48 88 -48q64 0 136 164q12 32 24 68q12 28 38 106l32 -62q-66 -192 -92 -242 q-66 -100 -190 -100q-148 0 -188 40q-50 44 -50 178q-80 -106 -168 -160q-94 -56 -202 -58v-4q-164 0 -242 144q-60 104 -60 286zM80 1122l22 68q110 66 200 144q108 96 170 182q62 -130 154 -208q62 -66 196 -118l-8 -68q-88 4 -222 76q-146 68 -194 118l2 2 q-122 -100 -320 -196zM196 474q0 -122 52 -218q64 -114 182 -114q68 0 140 48q52 46 102 116v420q-40 166 -190 166h2q-150 0 -224 -144q-64 -116 -64 -274z" />
<glyph unicode="&#xe3;" horiz-adv-x="2646" d="M218 0v2830h2302v-2830h-2302zM380 176h1978l-2 2478h-1976v-2478z" />
<glyph unicode="&#xe4;" horiz-adv-x="2646" d="M218 0v2830h2302v-2830h-2302zM380 176h1978l-2 2478h-1976v-2478z" />
<glyph unicode="&#xe5;" horiz-adv-x="1384" d="M218 368q0 220 146 402q146 180 332 180q46 0 110 -20q12 -6 32 -14q14 -6 24 -12q8 -4 28 -16q6 -6 15 -11t21 -11l222 150l-2 -40q-38 -36 -50 -88q-14 -60 -14 -164v-430q0 -130 14 -162q8 -40 54 -40q110 0 276 172q162 172 302 470l34 -16q-156 -326 -356 -520 q-110 -110 -190 -148q-86 -50 -168 -50q-76 0 -118 64q-32 42 -34 82q-14 52 -14 106q-74 -124 -172 -188t-202 -64q-132 0 -210 102q-80 100 -80 266zM396 1494q0 158 100 278q98 114 250 114l2 2q134 0 242 -116q104 -120 104 -278q0 -166 -102 -276q-104 -118 -246 -118 q-154 0 -250 118q-100 108 -100 276zM412 474q0 -152 62 -250q58 -92 164 -92q68 0 134 50q64 48 110 144l2 320q0 120 -48 192q-52 68 -148 68q-116 0 -194 -124q-82 -134 -82 -308zM476 1494q0 -134 76 -218q68 -88 190 -88q108 0 190 88q84 90 84 218q0 120 -82 216 q-80 88 -192 88q-120 0 -190 -88q-76 -90 -76 -216z" />
<glyph unicode="&#xe6;" horiz-adv-x="1592" d="M2 424q0 222 106 368q116 152 344 152q128 0 220 -82v72h188v-90q68 62 100 76q50 24 160 24q170 0 258 -82q80 -74 80 -206v-3v-2v-2v-2v-2v-2v-2v-2v-2v-2v-2v-3t-6 -30q-12 -102 -290 -164q-68 -18 -282 -46q0 -136 34 -188q60 -92 252 -92q176 0 294 92 q78 64 130 198l32 -64q-62 -182 -196 -260q-136 -78 -352 -78q-160 0 -244 32q-140 52 -140 186v2q-74 -100 -176 -162q-102 -56 -212 -58q-166 0 -238 138q-64 116 -62 288zM198 474q0 -122 54 -218q60 -114 178 -114q72 0 140 48q52 40 102 116v418q-40 168 -186 168 q-154 0 -224 -142q-64 -122 -64 -276zM880 456q32 2 54 6q8 0 23 2t33 4q16 2 56 6q6 0 14 1t14 1t14 1t16 3q242 36 264 144v4v8v10v5v7q0 96 -64 158q-68 62 -162 62q-162 0 -214 -122q-48 -102 -48 -300z" />
<glyph unicode="&#xe7;" horiz-adv-x="918" d="M2 434q0 232 104 360q114 148 342 148q178 0 274 -78q76 -62 76 -148q-28 -74 -62 -74q-26 0 -42 32q-18 36 -18 46q0 22 38 22q-28 134 -242 134q-126 0 -192 -132q-70 -138 -70 -298q0 -140 78 -238q74 -100 206 -100q176 0 292 94q82 70 130 200l34 -62 q-58 -172 -184 -258q-122 -82 -308 -82l-30 -70q28 4 34 4q68 0 108 -46q28 -42 28 -104q0 -78 -54 -124q-62 -46 -158 -46h-5h-4h-3h-3h-4h-4h-2h-2h-3h-3h-3h-3h-3h-3h-3t-10 2t-14 4t-12 2l26 48h5h3h3h3h3h3h4h3h3h4h3h3h4q58 0 90 38q30 36 30 94q-12 84 -154 84 l40 114q-212 0 -302 142q-74 108 -74 292z" />
<glyph unicode="&#xe8;" horiz-adv-x="924" d="M6 428q0 230 102 362q114 150 346 150q170 0 258 -82q78 -78 78 -210v-30v-3v-2v-2v-3v-3v-2v-2v-2t-8 -66t-292 -115q-152 -30 -266 -34v2q18 -124 72 -186q68 -96 202 -96q180 0 294 94q78 66 130 200l32 -64q-62 -182 -194 -262q-136 -74 -352 -76q-230 0 -324 142 q-78 108 -78 290zM160 1346q0 104 78 204l2 2q78 -128 224 -210q114 -70 284 -118l-16 -70q-138 6 -352 78q-210 62 -220 114zM214 454q36 6 54 6q6 0 14 1t14 1q10 0 30 4q48 4 54 4t13 1t15 3q10 0 30 4q244 30 266 142v2q0 2 1 4t1 4v4v4v6v6q0 102 -68 162 q-74 64 -160 64q-144 0 -208 -152q-56 -126 -56 -270z" />
<glyph unicode="&#xe9;" horiz-adv-x="924" d="M4 436q0 226 104 358q110 152 344 152q170 0 258 -82q78 -76 78 -210v-30v-3v-2v-2v-2v-2v-2v-2v-2v-2t-8 -66t-292 -115q-104 -24 -266 -34v2q16 -120 72 -186q68 -96 202 -96q178 0 296 92q78 68 130 202l32 -64q-62 -180 -194 -262q-136 -78 -352 -78q-234 0 -328 140 q-78 114 -76 296zM164 1228q226 68 340 150q104 76 170 178h2q78 -90 78 -202q-14 -50 -214 -110q-198 -66 -362 -84q-4 28 -14 68zM212 458q12 0 41 3t71 9q76 4 112 12q244 32 264 142l2 4q2 4 2 28q0 96 -68 162q-78 64 -160 64q-142 0 -208 -152q-56 -126 -56 -272z" />
<glyph unicode="&#xea;" horiz-adv-x="916" d="M0 430q0 230 102 360q114 150 342 150q170 0 260 -80q78 -78 78 -206v-5v-2v-2v-2v-2v-2v-3v-3v-2v-2v-2v-2t-1 -9t-1 -18q-18 -124 -302 -176q-114 -24 -264 -36h2q18 -118 76 -186q66 -96 200 -96q178 0 294 94q78 66 128 200l34 -62q-66 -186 -194 -262 q-136 -78 -356 -78q-228 0 -322 142q-76 106 -76 292zM48 1160l22 68q94 56 200 144q100 88 170 182q68 -140 154 -208q60 -58 200 -118l-12 -68q-88 10 -222 76q-140 62 -190 118q-124 -100 -322 -194zM208 454q16 2 52 6q12 0 27 2t29 4q38 2 112 12q246 32 266 144h2 q-2 2 -2 4v8q2 6 2 10v6v8q0 96 -66 156q-72 62 -162 62q-140 0 -208 -150q-52 -120 -52 -272z" />
<glyph unicode="&#xeb;" horiz-adv-x="924" d="M6 430q0 230 102 362q114 150 346 150q166 0 252 -80q86 -78 86 -206v-3v-2v-2v-2v-2v-2v-2v-2v-2v-2v-2v-2v-3t-2 -7t-2 -21q-22 -130 -302 -180q-96 -22 -262 -34q16 -122 72 -184q68 -96 202 -96q180 0 296 94q80 68 130 200l32 -64q-62 -180 -196 -260 q-138 -78 -350 -78q-236 0 -326 142q-78 108 -78 290zM130 1222q0 112 112 112q114 0 114 -112v2q0 -116 -114 -116q-112 0 -112 114zM214 456q36 6 54 6q6 0 14 1t14 1t14 1t16 3q36 2 54 6q6 0 13 1t15 1q6 0 14 1t16 3q242 34 262 144h2q2 8 2 34q0 88 -68 156 q-66 62 -158 62q-142 0 -208 -150q-56 -126 -56 -270zM532 1222q0 112 114 112q112 0 112 -112q0 -114 -112 -114q-114 0 -114 114z" />
<glyph unicode="&#xec;" horiz-adv-x="910" d="M140 1848q0 12 8 26q14 12 32 12q16 0 30 -10l28 -28l398 -686l-70 2l-404 616l-18 32zM344 250v642l298 92v-32q-66 -38 -80 -70q-18 -30 -18 -114l2 -406q0 -164 20 -218q24 -60 88 -60q124 0 294 172q164 168 306 456l36 -16q-160 -324 -360 -506q-216 -190 -392 -190 q-82 0 -142 66q-52 64 -52 184z" />
<glyph unicode="&#xed;" horiz-adv-x="910" d="M308 1162l398 686l24 30l32 8q8 0 24 -10q4 -8 8 -15t10 -13l-8 -36l-18 -32l-400 -620zM344 250v642l298 92v-32q-66 -38 -80 -70q-18 -30 -18 -114l2 -406q0 -164 20 -218q24 -60 88 -60q124 0 294 172q164 168 306 456l36 -16q-160 -324 -360 -506 q-216 -190 -392 -190q-82 0 -142 66q-52 64 -52 184z" />
<glyph unicode="&#xee;" horiz-adv-x="476" d="M-136 1096l16 72q88 68 138 142q76 88 122 182q38 -132 106 -208q50 -66 148 -120l-8 -68q-66 8 -162 80q-90 52 -136 116q-106 -118 -224 -196zM2 270v666h188v-618q0 -124 12 -172q18 -78 74 -78q68 0 138 170l62 164l34 -62q-74 -210 -90 -238q-60 -102 -164 -102 q-256 0 -254 270z" />
<glyph unicode="&#xef;" horiz-adv-x="476" d="M-160 1240q0 112 110 112q106 0 106 -112q0 -114 -106 -114q-110 0 -110 114zM0 268v668h188v-620q0 -154 20 -198q14 -50 66 -50q72 0 140 168q6 18 11 34t11 32l8 24l8 24q20 50 20 52l36 -64q-84 -224 -90 -238q-60 -100 -166 -100q-252 0 -252 268zM134 1240 q0 112 110 112q114 0 114 -112v2q0 -116 -114 -116q-110 0 -110 114z" />
<glyph unicode="&#xf0;" horiz-adv-x="1348" d="M192 398q0 226 168 424q170 196 372 196h38h30q-38 114 -112 252q-66 120 -182 286l-254 -238l-26 34l252 236l-130 148l-112 116l24 34l68 -62l192 -188l274 250l28 -38l-264 -246q318 -338 438 -542q126 -216 126 -416q0 -178 -96 -342q-98 -172 -250 -256v2l40 -6h48 q254 0 460 182q200 188 362 564l38 -16q-174 -398 -386 -588q-216 -184 -494 -184h-96h-28h-3h-2h-2h-2h-2h-2h-2h-2h-3h-3h-2h-2h-2h-2h-2h-2h-2h-2h-2h-2h-2h-39h-48q-182 0 -286 108q-110 98 -110 290zM410 560q0 -240 68 -366q62 -138 184 -138l2 2q114 0 182 106 q68 110 68 298q0 212 -66 356q-74 136 -182 136q-112 0 -186 -108q-70 -114 -70 -286z" />
<glyph unicode="&#xf1;" horiz-adv-x="2646" d="M218 0v2830h2302v-2830h-2302zM380 176h1978l-2 2478h-1976v-2478z" />
<glyph unicode="&#xf2;" horiz-adv-x="2646" d="M218 0v2830h2302v-2830h-2302zM380 176h1978l-2 2478h-1976v-2478z" />
<glyph unicode="&#xf3;" horiz-adv-x="2646" d="M218 0v2830h2302v-2830h-2302zM380 176h1978l-2 2478h-1976v-2478z" />
<glyph unicode="&#xf4;" horiz-adv-x="976" d="M4 438q0 210 114 358q108 148 300 148q184 0 258 -118l4 2q68 -28 108 -84q14 -38 28 -96q14 -66 14 -114q0 -62 -6 -106q18 -18 54 -42q24 -16 52 -16q26 0 46 36l32 -64q-32 -40 -70 -40q-34 0 -62 16q-42 20 -62 50q-46 -214 -174 -300q-102 -68 -252 -68 q-178 0 -282 140q-102 128 -102 298zM62 1124l22 68q96 60 198 144q100 84 172 184q60 -134 154 -208q64 -66 196 -120l-10 -68q-94 4 -220 76q-138 62 -194 120h2q-106 -84 -320 -196zM218 452q0 -142 62 -250q70 -128 200 -128l2 2q90 0 170 80q82 88 110 236 q-90 58 -142 114q-70 58 -90 136q-4 28 -4 48q0 46 20 82q14 34 70 54q-54 50 -142 50q-118 0 -188 -142q-68 -122 -68 -282zM632 690q0 -54 48 -122q38 -70 94 -106h2q4 28 4 82q0 76 -30 154q-28 74 -64 74q-8 0 -24 -10q-30 -18 -30 -72z" />
<glyph unicode="&#xf5;" horiz-adv-x="2646" d="M218 0v2830h2302v-2830h-2302zM380 176h1978l-2 2478h-1976v-2478z" />
<glyph unicode="&#xf6;" horiz-adv-x="2646" d="M218 0v2830h2302v-2830h-2302zM380 176h1978l-2 2478h-1976v-2478z" />
<glyph unicode="&#xf7;" horiz-adv-x="3412" d="M508 1138v164h2396v-164h-2396zM1512 526q0 82 58 144q56 60 138 60t136 -60q60 -60 60 -144q0 -80 -60 -136q-56 -58 -136 -58q-84 0 -140 56t-56 138zM1512 1912q0 84 56 138q54 60 140 60q78 0 136 -60q60 -52 60 -138q0 -84 -60 -140q-52 -60 -136 -60t-140 56 q-56 58 -56 144z" />
<glyph unicode="&#xf8;" horiz-adv-x="1348" d="M192 392q0 224 168 392q160 170 398 170l86 -10l6 2l182 400h52l-186 -414q102 -40 166 -120q58 -90 58 -194q0 -158 -96 -308q-104 -160 -250 -232v4l40 -6h48q256 0 460 164q202 164 362 508l38 -18q-174 -356 -386 -528q-218 -166 -496 -166h-94h-28q-58 10 -46 10 q-16 0 -26 -10h-36l-92 10h-24l-214 -468l-48 -2l214 478q-120 26 -188 124q-68 90 -68 214zM410 544q0 -114 22 -210q16 -86 70 -162l300 668q-20 18 -58 40q-52 16 -72 16q-118 0 -190 -96q-72 -100 -72 -256zM538 136l66 -38q36 -10 62 -10q116 0 182 96q66 98 66 270 q0 82 -22 180q-20 76 -56 154z" />
<glyph unicode="&#xf9;" horiz-adv-x="1108" d="M4 304v632h186v-560q0 -134 28 -204q44 -120 154 -120q68 0 148 44q72 42 150 122v718h188v-620v-10v-8v-8v-8v-10v-6v-9v-7v-10v-6v-10v-6v-9v-7v-8v-6q0 -116 72 -116q34 0 76 68q4 8 102 268l32 -68q-86 -230 -92 -240q-54 -100 -144 -102q-200 0 -226 156 q-154 -156 -310 -156v-4q-186 0 -262 62q-102 68 -102 248zM152 1326q0 120 78 204h2q76 -130 226 -210q112 -74 280 -118l-14 -68q-152 8 -352 78q-212 62 -220 114z" />
<glyph unicode="&#xfa;" horiz-adv-x="2646" d="M218 0v2830h2302v-2830h-2302zM380 176h1978l-2 2478h-1976v-2478z" />
<glyph unicode="&#xfb;" horiz-adv-x="1104" d="M0 304v632h186v-560q0 -128 28 -204q42 -120 154 -120q66 0 148 44q70 42 148 126v46v668h190v-622q0 -122 10 -182q12 -64 68 -64q34 0 68 70q2 4 104 270l30 -68q-72 -204 -88 -240q-56 -100 -148 -102q-198 0 -224 156q-154 -156 -312 -156q-186 0 -260 58 q-102 68 -102 248zM80 1122l22 70q114 70 200 144q98 84 170 180q62 -130 154 -208q56 -64 198 -118l-10 -68q-88 4 -222 76q-146 68 -194 118l2 2q-122 -100 -320 -196z" />
<glyph unicode="&#xfc;" horiz-adv-x="1108" d="M2 304v632h188v-560q0 -126 28 -206q38 -118 150 -118q72 0 152 44q78 48 150 126v714h186v-628q0 -146 8 -172q12 -84 68 -84q30 0 66 72q0 2 4 10q2 4 6 16q8 16 22 58q10 22 32 84q8 24 20 53t24 63l32 -68q-82 -226 -90 -240q-56 -100 -148 -102q-198 0 -224 156 q-154 -156 -312 -156l2 -4q-186 0 -262 62q-102 68 -102 248zM122 1226q0 112 114 112q110 0 110 -112h2q0 -116 -112 -116q-114 0 -114 116zM526 1226q0 112 112 112v2q110 0 110 -114q0 -116 -110 -116q-112 0 -112 116z" />
<glyph unicode="&#xfd;" horiz-adv-x="2646" d="M218 0v2830h2302v-2830h-2302zM380 176h1978l-2 2478h-1976v-2478z" />
<glyph unicode="&#xfe;" horiz-adv-x="1384" d="M238 -962q26 22 50 80q10 60 13 87t3 55v2036q0 408 164 680q162 276 382 276q90 0 148 -68q52 -68 52 -194q0 -102 -34 -208q-40 -124 -108 -270q-132 -280 -404 -672v-222q98 110 194 168q90 56 182 56q126 0 204 -90q82 -88 82 -238q0 -152 -84 -278 q-84 -132 -226 -192l8 -2l80 -6q224 0 428 154q194 150 354 462l34 -14q-160 -306 -370 -474q-210 -164 -434 -164h-68l-98 20l-12 -4q-56 -16 -98 -16q-44 0 -88 16q-50 14 -88 54v-994l-266 -72v34zM504 118q40 -42 98 -62q46 -20 94 -20q110 0 192 108q82 112 82 278 q0 126 -62 216q-62 82 -162 82q-64 0 -122 -44q-56 -40 -120 -126v-432zM504 914q204 310 304 572q106 278 106 486q0 102 -34 164q-36 56 -92 56q-138 0 -208 -218q-76 -226 -76 -614v-446z" />
<glyph unicode="&#xff;" horiz-adv-x="2646" d="M218 0v2830h2302v-2830h-2302zM380 176h1978l-2 2478h-1976v-2478z" />
<glyph unicode="&#x152;" horiz-adv-x="996" d="M6 178q0 20 2 30q0 14 6 44q10 30 34 46q30 20 62 20q50 0 78 -50q8 -30 -14 -52q-30 -26 -64 -26q-28 0 -34 10q-14 -22 -14 -40q0 -38 40 -58q46 -26 176 -26q200 0 274 124q58 106 58 358q0 20 -1 47t-1 63q-2 32 -3 71t-1 83q-2 30 -2 50v32t-1 28t-1 38q0 18 -1 32 t-1 20v10v10v8v8q0 108 4 202t10 174q12 142 60 274q44 140 144 228q-202 -90 -238 -98q-106 -28 -190 -28h-4h-3h-3h-3h-3h-3h-3h-3h-3h-3h-3t-4 1t-10 1q-16 0 -78 10l-174 -212l-42 52q18 18 28 30q8 8 10 12l5 5l7 7q48 52 98 120q-72 4 -122 60q-52 52 -52 100 q0 14 2 16q8 44 42 68q28 26 94 26q50 0 102 -42q48 -40 48 -104q0 -20 -14 -64q52 -8 78 -8q108 0 354 56q78 20 142 39t110 37q-94 -76 -122 -194q-32 -132 -32 -298v-45v-35q0 -12 1 -24t1 -24t1 -26t1 -28q6 -148 10 -229t4 -93q0 -60 -1 -114t-1 -102t-1 -91t-1 -79 q-2 -76 -5 -127t-3 -77q-30 -238 -134 -332q-114 -102 -398 -102q-178 0 -240 60q-52 40 -52 118zM128 2006q0 -28 26 -46q26 -28 80 -46h2q16 32 16 56q0 20 -16 46q-16 20 -32 24q-24 6 -30 6q-18 0 -26 -4q-20 -8 -20 -36zM1124 2720q0 46 36 76q30 34 86 34h2 q44 0 82 -32q38 -36 38 -78q0 -40 -34 -76q-42 -34 -88 -34q-58 0 -90 32q-32 26 -32 78z" />
<glyph unicode="&#x153;" horiz-adv-x="1560" d="M2 448q0 86 54 122q34 20 52 26q48 0 76 -28q26 -30 26 -64q0 -60 -64 -60q-18 0 -50 12q-12 4 -17 5t-5 -1v-4v-4v-5v-5v-4v-4v-4v-3v-4v-5v-4v-3v-3v-4v-4v-59t74 -109q78 -60 246 -60q136 0 194 186q42 146 42 464q0 52 -2 136t-6 198q-24 506 -24 588q-250 0 -394 78 q-186 102 -182 350v4v4v6v5v3v6v6v4v10v8q0 2 1 8t1 18q14 154 106 272q96 128 340 244q30 12 54 12q34 0 34 -16q0 -18 -34 -24q-180 -72 -296 -194q-138 -134 -152 -292v-7v-5t-1 -5t-1 -5v-6v-8v-3v-2v-3v-3v-3v-3v-2v-2v-2v-2v-3v-116t194 -212q128 -68 330 -68h2 q0 390 90 606q110 276 406 394q68 34 158 34q110 0 172 -82q60 -82 60 -216v-5v-5v-4v-4v-4v-4v-4v-3v-4v-4v-4v-6v-4v-3t-4 -24t-4 -20q-62 -354 -252 -520q-154 -130 -372 -154q0 -36 2 -100t8 -154q24 -390 24 -538q0 -412 -84 -624q-108 -278 -368 -278q-268 0 -360 102 q-76 82 -74 284zM520 -808l16 64q98 -56 222 -96q116 -36 200 -36q130 0 210 80q80 84 80 220q0 128 -70 200q-74 74 -200 74h-56h-4t-3 -1t-2 -1h-2h-2h-2h-2h-2h-3h-6t-30 -12v382l50 -2v-312l16 4l84 8q154 0 250 -88q88 -88 88 -246q0 -166 -106 -268 q-108 -102 -284 -102q-54 0 -102 6q-48 8 -110 26q-110 30 -230 100zM854 1816v2q252 38 396 202q134 158 180 460q0 38 2 51t2 1q0 92 -44 166q-52 70 -122 70q-52 0 -94 -34q-214 -136 -270 -364q-50 -200 -50 -554z" />
<glyph unicode="&#x178;" horiz-adv-x="2058" d="M4 1384q0 238 92 408q126 240 402 240q218 0 316 -88q134 -126 134 -442q0 -68 -2 -102q0 -26 -1 -52t-1 -50q-4 -68 -4 -106q-4 -68 -4 -104q-4 -36 -4 -54q-2 -14 -3 -29t-1 -27q0 -14 -1 -28t-1 -26q-2 -14 -3 -28t-1 -26q-4 -80 -4 -114q-4 -72 -4 -106t-2 -46 q-2 -14 -2 -30q-4 -16 -4 -8q0 16 -2 12v-11v-21q0 -150 18 -218q22 -110 82 -192q52 -80 144 -80q204 0 354 162q86 96 160 270v1492h196l-10 -2178q38 68 62 111t34 59q82 156 114 278l32 -78q-38 -122 -120 -288q-12 -18 -20 -32t-12 -26q-22 -34 -30 -58 q-22 -38 -30 -60q-20 -32 -30 -58v-856q0 -296 -94 -472q-118 -206 -340 -206q-112 0 -156 98q-50 98 -50 260q0 132 42 282q30 120 94 268q60 144 138 276q84 136 170 268l10 790q-102 -208 -236 -286q-124 -72 -284 -72q-162 0 -284 84q-124 84 -158 222q-38 150 -34 214 q0 90 8 46q6 -50 14 66v21v23q4 32 4 46v23v23q2 16 2 46q0 24 1 47t1 47v46v48q0 548 -6 654q-22 326 -196 326q-200 0 -310 -164q-116 -174 -116 -438q0 -184 80 -318q68 -120 156 -120q98 2 144 80q42 74 42 220q0 136 -80 190q-26 18 -78 28q26 12 56 12q70 0 116 -56 q48 -58 48 -166v-4v-3v-2v-2v-3v-3v-3v-3v-3v-3v-3v-3v-4v-6v-73t-68 -158q-70 -90 -162 -90q-140 0 -228 146q-90 146 -90 354zM1276 2716q0 50 32 82q28 32 80 32h4q46 0 80 -34q38 -42 38 -80q0 -44 -34 -78q-38 -32 -88 -32q-54 0 -82 28q-30 30 -30 82zM1290 -1526 q0 -114 40 -188q32 -72 114 -72q126 0 178 212q30 136 30 346l2 662q-138 -224 -148 -248q-78 -132 -108 -230q-38 -86 -64 -188q-38 -154 -38 -196q-6 -56 -6 -98zM1710 2716q0 50 32 82q28 32 84 32h2q40 0 76 -32q34 -32 34 -82q0 -52 -30 -78q-36 -32 -82 -32 q-58 0 -86 28q-30 32 -30 82z" />
<glyph unicode="&#x2c6;" d="M666 1064l326 656h64l324 -656h-66l-290 532l-286 -530z" />
<glyph unicode="&#x2dc;" horiz-adv-x="1510" d="M610 1106q30 158 86 230q56 74 148 74q28 0 64 -12l64 -20l168 -66l26 -10h46q58 0 100 38q32 36 60 134h66q-30 -150 -88 -230q-64 -72 -154 -72l-56 6l-64 18l-162 68l-42 14h-44q-56 0 -98 -46q-40 -50 -56 -126h-64z" />
<glyph unicode="&#x2000;" horiz-adv-x="1572" />
<glyph unicode="&#x2001;" horiz-adv-x="3144" />
<glyph unicode="&#x2002;" horiz-adv-x="1572" />
<glyph unicode="&#x2003;" horiz-adv-x="3144" />
<glyph unicode="&#x2004;" horiz-adv-x="1048" />
<glyph unicode="&#x2005;" horiz-adv-x="786" />
<glyph unicode="&#x2006;" horiz-adv-x="524" />
<glyph unicode="&#x2007;" horiz-adv-x="524" />
<glyph unicode="&#x2008;" horiz-adv-x="393" />
<glyph unicode="&#x2009;" horiz-adv-x="628" />
<glyph unicode="&#x200a;" horiz-adv-x="174" />
<glyph unicode="&#x2010;" horiz-adv-x="910" d="M94 458l32 172h704l-30 -170z" />
<glyph unicode="&#x2011;" horiz-adv-x="910" d="M94 458l32 172h704l-30 -170z" />
<glyph unicode="&#x2012;" horiz-adv-x="910" d="M94 458l32 172h704l-30 -170z" />
<glyph unicode="&#x2013;" horiz-adv-x="1558" d="M278 504v118h1206l-2 -118h-1204z" />
<glyph unicode="&#x2014;" horiz-adv-x="4302" d="M0 380v132h4096v-132h-4096z" />
<glyph unicode="&#x2018;" horiz-adv-x="684" d="M320 1780q0 122 86 250q82 120 246 226v-40q-104 -74 -156 -148q-54 -82 -54 -154q0 -50 28 -86q26 -42 88 -54l64 56l30 -26l-242 -220q-48 34 -68 88q-22 46 -22 108z" />
<glyph unicode="&#x2019;" horiz-adv-x="684" d="M290 2036q0 14 14 32q82 82 118 154q38 76 38 130q0 40 -20 92q-4 2 -38 66q-8 8 -8 22q0 42 60 94q60 50 106 50q14 0 26 -14q18 -30 50 -94q22 -66 22 -108q0 -50 -18 -104q-20 -54 -60 -112q-44 -64 -112 -128q-12 -12 -42 -36q-24 -18 -42 -36q-22 -18 -36 -30 q-12 -8 -28 -8q-30 0 -30 30z" />
<glyph unicode="&#x201a;" horiz-adv-x="684" d="M304 -416q0 16 14 32q82 82 118 154q38 72 38 130q0 50 -20 92q-14 12 -40 64q-4 4 -4 20q0 42 60 94q54 50 104 50q14 0 24 -14l2 2q24 -40 48 -96q24 -60 24 -106q0 -48 -18 -102q-18 -52 -58 -112q-62 -76 -116 -128q-28 -28 -40 -38l-18 -12q4 6 -18 -16 q-6 -2 -10 -6l-10 -10q-6 -8 -22 -20q-16 -8 -26 -8q-32 0 -32 30z" />
<glyph unicode="&#x201c;" horiz-adv-x="1260" d="M320 1780q0 122 86 250q82 120 246 226v-40q-104 -74 -156 -148q-54 -82 -54 -154q0 -50 28 -86q26 -42 88 -54l64 56l30 -26l-242 -220q-48 34 -68 88q-22 46 -22 108zM866 1780q0 118 88 250q78 118 246 226v-40q-100 -70 -150 -144q-54 -78 -54 -158q0 -50 28 -86 q28 -42 86 -54l62 56l28 -26l-242 -220q-46 34 -68 88q-24 48 -24 108z" />
<glyph unicode="&#x201d;" horiz-adv-x="1278" d="M304 1570q0 12 14 32q80 78 118 154q38 64 38 130q0 48 -18 90q-12 18 -16 26q-2 2 -26 42q-4 4 -4 22q0 40 60 92q60 50 104 50q14 0 24 -12l2 2l24 -48t24 -50q24 -54 24 -106t-18 -106q-14 -44 -58 -110q-34 -50 -116 -128q-12 -16 -40 -38q-10 -6 -36 -30 q2 2 -42 -34q-18 -10 -26 -10q-32 0 -32 32zM848 1570q0 12 16 32q80 78 118 154q38 66 38 130q0 50 -20 90q-6 12 -38 68q-6 6 -6 22q0 40 60 92q60 50 104 50q14 0 26 -12l2 2q28 -56 48 -98q22 -58 22 -106q0 -52 -18 -106q-20 -54 -58 -110q-48 -68 -114 -128 q8 12 -42 -38q-10 -6 -36 -30q-12 -12 -18 -16q-16 -12 -22 -18q-20 -10 -30 -10q-32 0 -32 32z" />
<glyph unicode="&#x201e;" horiz-adv-x="1220" d="M304 -416q0 16 14 32q82 82 118 154q38 72 38 130q0 50 -20 92q-14 12 -40 64q-4 4 -4 20q0 42 60 94q54 50 104 50q14 0 24 -14l2 2q24 -40 48 -96q24 -60 24 -106q0 -48 -18 -102q-18 -52 -58 -112q-62 -76 -116 -128q-28 -28 -40 -38l-18 -12q4 6 -18 -16 q-6 -2 -10 -6l-10 -10q-6 -8 -22 -20q-16 -8 -26 -8q-32 0 -32 30zM794 -416q0 20 16 32q86 94 116 154q38 80 38 130q0 40 -20 92q-14 12 -40 64q-6 6 -6 20q0 42 60 94q58 50 106 50q14 0 24 -14l2 2q32 -58 50 -96q22 -66 22 -106q0 -48 -18 -102q-20 -58 -60 -112 q-46 -62 -112 -128q-4 -2 -8 -5t-8 -9q-8 -6 -26 -24q-10 -4 -34 -28q-6 -2 -42 -36q-16 -8 -28 -8q-32 0 -32 30z" />
<glyph unicode="&#x2022;" d="M612 1524l2 2q0 242 174 414q174 174 418 174q242 0 416 -174t174 -416q0 -246 -174 -420q-178 -174 -418 -174q-248 0 -418 174q-174 174 -174 420z" />
<glyph unicode="&#x2026;" horiz-adv-x="3914" d="M748 122l2 2q0 44 32 84q34 38 90 38q48 0 86 -34q38 -42 38 -90t-36 -84q-38 -38 -88 -38q-52 0 -86 34q-38 30 -38 88zM2114 122v2q0 50 34 84q38 38 88 38q48 0 86 -34q38 -36 38 -90q0 -48 -36 -84q-38 -38 -88 -38t-86 34q-36 30 -36 88zM3482 122l2 2q0 50 34 84 q34 38 86 38q48 0 86 -34q38 -36 38 -90q0 -52 -36 -84q-38 -38 -88 -38t-86 34q-36 26 -36 88z" />
<glyph unicode="&#x202f;" horiz-adv-x="628" />
<glyph unicode="&#x2039;" horiz-adv-x="882" d="M362 428q0 24 116 122l92 74l142 134q84 78 112 86l8 -6l8 -12q0 -36 -48 -104q-30 -42 -86 -116t-136 -182v2q76 -100 128 -168t82 -106q60 -90 60 -124q-8 -8 -10 -8h-10q-24 0 -110 86l-140 126l-92 76q-116 96 -116 120z" />
<glyph unicode="&#x203a;" horiz-adv-x="882" d="M362 28q0 28 48 104q54 86 222 302l2 2q-154 180 -210 270q-62 86 -62 126q0 8 6 12h10q16 0 114 -86l140 -134l94 -74q114 -96 114 -122q0 -22 -114 -120l-94 -76l-138 -126q-90 -88 -108 -86h-16z" />
<glyph unicode="&#x205f;" horiz-adv-x="786" />
<glyph unicode="&#x2122;" horiz-adv-x="3016" d="M508 2492l20 338h870l24 -338h-48q-16 152 -84 224q-66 70 -202 70h-44v-830q0 -48 28 -76q26 -30 70 -30h62v-44h-484v44h66q34 0 68 30q28 34 28 76v830h-44q-138 0 -202 -68q-74 -70 -84 -226h-44zM1602 1806v44h60q36 0 70 30q30 30 30 80v714q0 48 -28 80 q-32 32 -72 32h-60l2 44h338l290 -798l316 798h324v-44h-62q-42 0 -72 -30l-16 -28q-10 -28 -10 -50v-722q0 -46 26 -76t72 -30h62v-44h-456v44h62q34 0 68 30q30 30 30 76v792l-372 -950h-16l-348 942v-784q0 -46 26 -76t72 -30h60v-44h-396z" />
<glyph unicode="&#x25fc;" horiz-adv-x="940" d="M0 0v940h940v-940h-940z" />
</font>
</defs>
</svg>
