<?xml version="1.0" standalone="no"?>
<!DOCTYPE svg PUBLIC "-//W3C//DTD SVG 1.1//EN" "http://www.w3.org/Graphics/SVG/1.1/DTD/svg11.dtd" >
<svg xmlns="http://www.w3.org/2000/svg">
<metadata>
Created by FontPrep 20130207 at Wed Feb 25 01:29:16 2015
 By Adam Fathony
Copyright (c) 2015 by flavortype. All rights reserved.
</metadata>
<defs>
<font id="d0c8d6bc76f748ca76a0ff9fba3529ab" horiz-adv-x='1024' >
  <font-face 
    font-family="Heartwell-Italic"
    font-weight="400"
    font-style="italic"
    font-stretch="normal"
    units-per-em="2048"
    panose-1="0 0 0 0 0 0 0 0 0 0"
    ascent="1638"
    descent="-410"
    x-height="912"
    cap-height="1706"
    bbox="-958 -870 2031.19 2249"
    underline-thickness="102"
    underline-position="-102"
    unicode-range="U+0020-2212"
  />
<missing-glyph horiz-adv-x="1024" 
 />
    <glyph glyph-name=".notdef" horiz-adv-x="1024" 
 />
    <glyph glyph-name=".null" horiz-adv-x="0" 
 />
    <glyph glyph-name="nonmarkingreturn" horiz-adv-x="681" 
 />
    <glyph glyph-name="space" unicode=" " horiz-adv-x="1024" 
 />
    <glyph glyph-name="exclam" unicode="!" horiz-adv-x="704" 
d="M47 297q0 66 -16 92q-1 6 -11 3t-12 -3q6 96 62 260q-4 31 16 88t18 82q8 6 15 34q6 28 20 32q12 92 54 141q2 35 29 89q28 55 32 67t11 52t28 56q-4 6 -4 27q10 -5 18 8q12 47 47 118t45 97q-21 -8 -25 -18t-7 -12q-1 -2 -5 -13q-4 -10 -6 -14q-17 3 3 23q1 1 19 52
t64 119q47 -1 83 -31t73 -72t66 -61q-8 -84 -54 -86q-14 -31 -54 -89t-56 -93q-6 -41 -32 -107t-34 -98q-4 -2 -10 -9t-12 -9q-14 -50 -66 -150t-60 -138q-7 -38 -12 -99q-5 -62 -36 -105q-4 -36 -22 -106t-19 -115q1 -2 -11 -5t-10 -11t6 -5t11 1q-25 -29 -60 -23
q-35 5 -86 31zM176 10q-11 -53 -33 -53q-33 0 -54 -81t-46 -105q2 -15 -5 -35t-7 -35q-6 12 -15 12l-39 -12q-25 39 -61 49q-31 106 10 219t43 164q168 -43 207 -123z" />
    <glyph glyph-name="quotedbl" unicode="&#x22;" horiz-adv-x="407" 
d="M360 1990q0 -40 -1 -86t-10 -158t-31 -134t-60 6l-20 -12q-4 8 -29 22q13 62 0 178t-16 162q23 51 77 107q14 -2 13 -19q6 4 28 25t47 26q8 -8 9 -13l-11 -34q4 -30 4 -70zM147 1753q-7 -119 -29 -141t-61 6l-20 -12q-4 8 -29 22q13 62 0 178t-16 162q23 51 78 107
q14 -2 12 -19q6 4 28 25t48 26q8 -8 8 -13l-10 -34q4 -29 4 -118t-13 -189z" />
    <glyph glyph-name="numbersign" unicode="#" horiz-adv-x="808" 
d="M289 741h125q18 66 37 123q-43 4 -134 8q-4 -23 -14 -67t-14 -64zM639 1022l27 2q53 -25 102 -82q0 -8 -9 -7t-9 -5q6 -6 18 -23q-14 -27 -39 -45q-2 -4 -10 -8q-23 0 -121 4q-10 -39 -27 -113q46 0 70 3q53 -25 102 -82q0 -14 -14 -7q-4 2 -4 -4q4 -8 18 -22
q-21 -41 -49 -53q-47 -2 -155 4q-2 -10 -5 -30t-6 -30q-35 -47 -102 -84q-8 2 -5 12t-3 9l-25 -12q-24 20 -43 59q2 8 9 37t14 47q-39 4 -113 8q-3 -21 -14 -76q-35 -47 -103 -84q-8 2 -5 12t-3 9l-24 -12q-24 20 -43 59q12 49 28 106q-141 18 -84 91l-12 20q6 4 25 29
q45 -8 106 -11q20 74 43 142h-6q-119 12 -139 36t8 60l-12 18q2 0 24 29q61 -8 166 -10q2 8 6 20q37 113 65 129t58 -22l21 8q3 -9 11 -17t11 -14q-10 -20 -33 -106q49 2 144 2q2 8 6 20q36 113 64 129t59 -22l20 8q3 -9 11 -17t12 -14q-20 -55 -31 -100z" />
    <glyph glyph-name="dollar" unicode="$" horiz-adv-x="917" 
d="M690 1403q0 32 -41 16q-2 -18 33 -16h8zM803 1853q25 0 45 -20q0 -4 2 -14t-2 -13q0 -6 10 -9t12 -5q-8 -82 -90 -172t-98 -139q4 -4 22 -24t46 -23q2 -6 12 -18t12 -21q86 -27 100 -109v-51q0 -12 -10 -52t-16 -74q-6 -33 -45 -119t-59 -118t-25 -41q-33 -27 -86 -25
t-78 34q20 45 59 154t56 135q16 26 20 37q4 10 10 56t12 68q7 22 1 43q-25 27 -68 13t-55 -30t-24 -38q-15 -30 -39 -48t-87 -161q-8 -17 -20 -67t-21 -68q6 -43 4 -47q23 -29 75 -71t69 -58v-15l74 -84q8 9 4 13t-14 12q-9 8 -9 14q10 4 22 -16t25 -47q-4 0 -9 5t-9 -1
q4 -10 18 -25q4 0 2 4t-2 8v7q25 -27 43 -89t-7 -117q-9 -19 -9 -39v-26q-2 -12 -18 -48t-36 -54q-25 -26 -33 -45q-18 -44 -91 -87q-72 -42 -102 -47t-55 -5q-24 0 -36 -4q-2 -12 -13 -28t-14 -24q-3 -7 2 -18q-2 2 -12 -8q15 0 9 -16q-5 -16 -3 -21l-18 -4q4 -12 12 -14
q-20 -137 -8 -199q-16 -12 -47 -14t-45 10q10 23 -18 31q2 8 -4 30t12 29l-15 10l37 250q-10 10 -46 22t-46 27q0 4 10 4q-51 41 -78 101q0 4 -8 5t-8 3q-20 143 84 301q-6 23 41 55q-8 -14 -4 -18q23 33 81 37t101 -15q4 -16 -9 -26t-15 -17q-47 4 -64 -25q-16 -30 -21 -80
t-18 -69q12 -8 16 -33t9 -30q18 -32 66 -52q49 -20 105 -13t97 61q2 0 11 -3t16 -2q45 55 58 128t-21 147q-53 -2 -165 94t-118 105q-84 92 -64 196l11 23q8 23 4 37q27 27 41 93t18 79q12 -2 19 4q93 139 125 219q86 90 184 82q14 34 38 106t47 124q24 52 58 87q3 0 23 5
t45 5zM280 2q1 -1 3 -4q-2 2 -3 4z" />
    <glyph glyph-name="percent" unicode="%" horiz-adv-x="1261" 
d="M839 1575q14 0 33 -29l21 4q0 -2 20 -30q-35 -72 -251 -701t-242 -727q-43 -47 -111 -74q-8 2 -4 12t0 9q-8 -2 -37 -15t-53 -10q-6 17 5 29t13 16q10 53 253 714t257 685q13 24 25 51q29 66 71 66zM956 352q36 26 94 134t35 147q-34 21 -53 12q-18 -8 -30 -13t-19 -14
l-31 -32q-4 4 -26 4q-8 -10 -58 -55t-71 -86q-48 -93 -6 -116t120 0q31 9 45 19zM950 725q12 0 17 -8q55 55 131 39t123 -70q-12 -123 -115 -299q-10 -18 -35 -46t-31 -38q-72 -94 -184 -96q-66 -2 -119 30t-80 85q2 248 273 407q8 -4 20 -4zM152 1031q39 -9 83 3
q43 12 71 32t86 128t34 147q-43 33 -100 -17q-8 -7 -15 -13t-16 -19q-6 6 -27 6q-10 -12 -57 -54t-72 -88t-25 -81t38 -44zM383 1012q-72 -94 -184 -97q-66 -2 -119 30t-80 85q2 248 272 408q4 -2 18 -4t17 -9q55 53 132 38t124 -68q-12 -123 -114 -299q-10 -18 -35 -46
t-31 -38z" />
    <glyph glyph-name="ampersand" unicode="&#x26;" horiz-adv-x="1601" 
d="M121 43q4 6 -3 17t-18 12q1 -17 21 -29zM33 475q0 11 9 25t13 21t-2 18q0 -10 -12 -31t-8 -33zM20 203v35q-2 10 -8 36q-24 100 4 158q0 6 -7 1t-7 1q-2 39 18 64q0 8 -6 4t-6 0q106 211 226 337t319 171q-2 2 -11 18t-19 30t-12 24q-3 10 -11 28t-7 24t-7 24
q-7 18 -4 26t-2 30t1 31q-1 10 13 58t20 79q6 32 15 58t49 74t69 53q43 57 151 85t189 -22q27 2 55 -12t45 -16q5 -12 23 -30l25 -24q33 33 111 123q79 90 114 125q10 10 46 -7t48 -15q-25 -34 -81 -92q-55 -58 -69 -74t-137 -201q-1 -13 -25 -67t-7 -91q-6 -14 -36 -10
t-36 4q-6 8 -9 44t-18 48q10 31 11 60q47 41 30 94q-16 53 -65 82q-65 -1 -94 -13q-28 -12 -53 -22t-61 -46q-36 -35 -61 -54q-117 -274 -43 -406q170 -37 256 -86q-14 -23 -84 -102q-20 4 -71 -4t-80 20q-151 0 -187 -32q-13 -10 -40 -17q-70 -19 -156 -116t-89 -156
q-1 -18 -3 -27q-27 -90 -19 -175t58 -218q10 -29 49 -80t47 -80q6 -4 41 -40t70 -40q84 -8 210 44t205 204q73 130 48 256q-13 68 -64 111q-123 -84 -156 -132q-57 -84 -35 -139q-65 -10 -129 52q-29 28 -51 38q-2 7 3 15t5 12q-4 4 -28 14q78 139 268 248q121 33 172 48
t141 54q90 38 126 66t67 58t53 42q4 6 16 30l21 41q40 80 35 148q-4 68 -29 104t-90 32q14 10 4 25q-10 14 -6 22t6 8l23 -6q104 -12 129 -27q86 -47 114 -157t-16 -205q-4 -12 -39 -55t-57 -73t-36 -41q-12 -11 -68 -39t-74 -52q-49 -27 -149 -58q-99 -32 -132 -45
q127 -123 84 -227q13 -68 -36 -163q-24 -46 -32 -69q-23 -14 -55 -54t-49 -54q-123 -96 -275 -117q-41 -29 -115 -36t-137 39q-24 17 -36 24q-279 168 -308 340z" />
    <glyph glyph-name="quotesingle" unicode="'" horiz-adv-x="206" 
d="M147 1753q-7 -119 -29 -141t-61 6l-20 -12q-4 8 -29 22q13 62 0 178t-16 162q23 51 78 107q14 -2 12 -19q6 4 28 25t48 26q8 -8 8 -13l-10 -34q4 -29 4 -118t-13 -189z" />
    <glyph glyph-name="parenleft" unicode="(" horiz-adv-x="794" 
d="M754 1540q-132 -85 -183 -124q-123 -96 -165 -189q-46 -41 -69 -83q-23 -41 -57 -94t-54 -92q-21 -39 -36 -57q-8 -66 -36 -203t-33 -174q8 -36 -7 -74t-12 -77q16 -182 144 -373q-8 -41 -17 -57h-61q-29 12 -50 36q-21 23 -30 29q-58 94 -76 240t-2 285q16 138 70 321
q-2 80 33 150t94 159t69 107t18 27t18 25t40 38q13 43 65 88q52 44 71 65q20 21 32 32t46 43t65 44q0 4 4 7t4 6q68 -19 115 -105z" />
    <glyph glyph-name="parenright" unicode=")" horiz-adv-x="794" 
d="M0 47q54 36 198 136q36 26 81 75t69 102q36 32 64 78t55 88t57 96t39 62q8 66 36 202t34 177q-8 35 7 74t11 77q-20 188 -145 373q6 35 18 58h62q18 -10 44 -34t36 -32q114 -182 73 -559q-14 -102 -67 -287q2 -79 -30 -145t-150 -246q-57 -94 -93 -115q-14 -46 -62 -88
q-69 -60 -118 -113t-96 -71q0 -2 -4 -5t-4 -7q-68 18 -115 104z" />
    <glyph glyph-name="asterisk" unicode="*" horiz-adv-x="563" 
d="M364 1380q-11 0 -41 -5t-47 -5q49 -74 119 -84q-29 -14 -44 -10t-44 17t-45 16q-2 -10 -6 -48q-9 -89 -41 -102q-18 20 -18 111q-25 -6 -47 -31t-46 -31q10 20 15 28q4 8 9 16q16 29 46 44q0 8 -12 9q23 25 31 57q-31 2 -76 -10t-78 -9q-1 11 -21 23t-24 23q6 -2 8 1t1 7
t1 8q16 0 72 -8t90 14q-63 84 -78 105q29 2 46 -6t38 -30q20 -24 25 -26q10 16 11 66t11 65q23 0 37 -7t20 -9v-84q16 25 54 65q8 2 18 -5t17 -7q-4 -33 -33 -72t-33 -47q29 -10 111 -9t112 -9q-27 -24 -87 -22q-60 1 -71 1z" />
    <glyph glyph-name="plus" unicode="+" horiz-adv-x="741" 
d="M1 993l42 -12q86 10 240 0q2 33 3 55t6 64q5 43 25 84q19 41 35 35t41 -15l23 17q2 -4 39 -29q-12 -76 -4 -223q248 -10 247 -76q0 -17 -14 -37l14 -22q-6 -2 -28 -37q-80 10 -207 4q8 -82 10 -117q-23 -61 -96 -135q-10 0 -10 18q-3 7 -40 -26q-36 -32 -59 -35
q-10 6 -10 16l10 43q-8 74 0 221q-45 -2 -106 -10q-66 29 -135 98q0 10 13 10t11 5q-6 8 -35 37t-32 57q12 10 17 10z" />
    <glyph glyph-name="comma" unicode="," horiz-adv-x="335" 
d="M295 158l-2 -58q-4 0 -6 -20v-1q0 -1 -2 -1q-13 -48 -53 -108t-78 -96t-48 -28q-21 16 -13 43q7 26 15 38t50 65h-4l-2 4q-102 8 -121 43h16q-2 4 -18 11t-6 11l-31 -6v27l4 53q6 81 9 97t22 30q12 4 28 8h39q8 2 17 19q88 16 88 -51l4 18q4 -10 23 -6t30 0q-6 -8 -20 0
q2 -8 -6 -14t-7 -11q9 -2 15 5t14 6q4 -10 -8 -14t-13 -5q5 -6 19 -5t18 -7q6 12 4 14q8 8 12 -5t-8 -15q6 0 9 6q10 -31 10 -41v-6z" />
    <glyph glyph-name="hyphen" unicode="-" horiz-adv-x="663" 
d="M478 766q-58 0 -96 -3t-113 -12t-107 -12q-72 31 -135 99q0 10 13 9t11 5q-6 8 -35 38t-32 56q12 10 17 10l42 -12q68 8 387 -12q143 -8 176 -34t-4 -79l14 -22q-11 -6 -18 -18q-6 -13 -10 -19q-52 6 -110 6z" />
    <glyph glyph-name="period" unicode="." horiz-adv-x="378" 
d="M-4 239q0 22 24 33q33 6 117 7q2 0 17 18q88 16 88 -51q2 0 2 3v7q0 4 2 8q4 -10 23 -6t30 0q-8 -8 -20 0q3 -8 -5 -14t-8 -11q8 -3 14 5t15 6q4 -10 -8 -14t-13 -5q4 -6 18 -5t17 -7q6 12 4 14q11 8 13 -5t-9 -15q8 0 9 6q14 -25 8 -53t0 -51l-17 -3q-1 -18 5 -18h8
q-6 -6 -17 2q3 -26 -23 -49q-28 -23 -32 -29q-6 -8 -32 -8l-29 -4q0 4 -4 4q-102 8 -121 43h16q-6 6 -18 11t-7 12q-47 -6 -51 -7q-8 8 -13 35t-1 35t10 17q-6 20 -3 24t-1 25q-8 18 -8 40zM313 90q0 4 -4 12q0 -4 4 -12z" />
    <glyph glyph-name="slash" unicode="/" horiz-adv-x="743" 
d="M698 1571q6 -15 -5 -27t-13 -16q-10 -53 -238 -675t-268 -716q-45 -96 -65 -114q-33 -31 -68 18l-21 -6q-2 8 -20 31q35 72 251 700t243 727q41 45 110 76q8 -3 4 -13t0 -10q8 2 38 15t52 10z" />
    <glyph glyph-name="zero" unicode="0" horiz-adv-x="1087" 
d="M33 729v-29q8 -4 10 11q0 18 -10 18zM322 498q19 -145 80 -250t145 -17q231 285 299 486q13 36 28 87q16 50 42 124t30 96q29 199 -47 317q-70 119 -135 94q-12 -5 -32 -15t-36 -15q-18 -25 -68 -85t-75 -92q-73 -94 -100 -204q-15 -4 -23 -34t-22 -34q-2 -26 -20 -62
t-22 -47q-3 -11 -2 -37t-4 -36q-18 -86 -41 -125q-1 -2 9 -3t8 -9q-25 -61 -14 -139zM814 1483q58 1 81 -11t55 -53t50 -83t40 -146q10 -49 -16 -217q-6 -37 -64 -195t-108 -244q-49 -88 -119 -190q-98 -152 -166 -201q-12 -10 -43 -26q-67 -35 -80 -72q-96 -16 -202 12
q-129 119 -162 179q10 41 -17 69q-10 8 -10 -8q-39 94 -28 117q-2 4 -9 10q-6 6 -8 10q-39 301 117 688q61 156 154 250q-6 4 -1 14t5 19q31 25 88 99t106 104q8 0 39 -10t39 1l63 -40q8 8 24 1q16 -8 24 -8q6 0 20 -13t18 -16t18 -19q13 -16 15 -17q19 -4 77 -4z" />
    <glyph glyph-name="one" unicode="1" horiz-adv-x="790" 
d="M178 794q0 38 19 48q1 4 -9 6t-12 6q0 53 25 57q-16 31 22 62q-10 29 17 76t12 61q0 4 8 5t8 3q-4 29 -2 38q2 10 14 30t17 33q-23 -4 -45 -30t-33 -32q-82 -125 -141 -184q-84 -78 -122 -88t-60 39q100 68 185 165t180 229t153 200v20q39 35 57 37q-2 4 1 7t3 5
q56 3 102 -26q46 -31 57 -35q76 -31 107 -64v-6q-2 -6 -1 -11t10 -3q0 -4 -13 -17q2 -131 -84 -260q-2 -6 1 -12t3 -10q-78 -150 -90 -297q-27 -27 -47 -102t-37 -101q-10 -57 -38 -169q-56 -224 -44 -408q0 -15 13 -41q-18 0 -11 -13q2 -4 -2 -8q-18 4 -50 -15t-50 -22
q-65 -10 -181 27t-114 72q4 4 47 4l-39 34q12 58 39 232q-2 6 5 9q6 3 8 8t-6 6q-7 1 -3 10q29 25 17 37q14 0 20 8q0 6 -14 4q-4 2 -6 4q2 10 16 22t15 18t-11 23q20 19 30 93t36 90q2 6 -9 10t8 41t19 75z" />
    <glyph glyph-name="two" unicode="2" horiz-adv-x="1261" 
d="M528 344q-16 0 -12 -16q12 -4 12 16zM1217 1323q-21 -21 -9 -39q-49 -96 -133 -170q-4 -12 0 -24q-18 0 -16 -25q-41 -39 -105 -144t-110 -147q-6 -29 -32 -51q-25 -22 -32 -31q-2 -66 -78 -133q-4 -45 -53 -82q2 -5 -2 -13t2 -13q-29 -23 -86 -89t-98 -90q2 -18 -1 -27
t-36 -42q43 20 180 55t185 61q27 2 125 29t165 25q14 -16 84 -25q-4 -4 -21 -5t-22 -7q6 -8 26 -7t26 -10q4 -16 -9 -16q3 -4 13 -8t12 -4l-34 -10q-5 0 -8 5q-40 -5 -184 -11t-176 -38q-17 -17 -42 -20q-25 -2 -39 -8q-15 -6 -69 -37t-83 -39q-16 -12 -25 -31
q-59 -26 -147 -100t-135 -98q-33 0 -37 -8q-12 8 -52 14t-67 23q-26 18 -48 38q-22 21 -29 27t-24 10t-11 37q69 45 137 146q20 31 58 95t52 87q160 199 232 323q16 5 26 13q29 74 110 177t93 122q6 37 21 36q0 4 -3 8t-1 9q23 23 49 87t49 87q10 45 61 130t64 140
q-41 17 -63 13q-21 -4 -63 -24t-54 -22t-15 -11q-2 -9 -4 -11q-143 -86 -219 -227q-43 -43 -91 -156t-75 -152q-10 3 -30 17t-37 12q2 12 13 34t18 52q7 31 12 39q78 172 235 315q31 66 145 129q181 105 316 25q2 -2 3 -12t5 -13q49 -9 88 -39t57 -57t50 -78q-1 -2 -7 -3
t-6 -5q-2 -8 9 -8z" />
    <glyph glyph-name="three" unicode="3" horiz-adv-x="1046" 
d="M178 76q-2 8 -17 13t-18 7q2 -12 35 -20zM219 12q-3 13 17 13q-33 12 -83 43t-71 41q-6 -1 -2 -9t-2 -8q-45 35 -66 106q-20 71 -8 130q39 -10 53 -9q19 -20 53 -64t56 -71t64 -46q84 -37 194 12q47 20 73 40t70 60q4 31 29 41q0 18 30 68t19 90q6 27 5 29q-11 27 -17 73
q-11 90 -117 133t-219 -14q-10 4 -57 4q-25 23 -47 74q-23 51 -33 67q-25 -7 -41 23q-8 14 -13 18q152 53 224 92q170 86 274 203q53 61 101 145q107 188 19 225q-67 29 -177 -37q-59 -36 -89 -45t-38 -19t-10 -25q-85 -52 -203 -189q-55 -63 -84 -92q-3 -2 -19 1t-26 -1
q-27 35 -29 45q68 84 219 236q39 16 108 68q158 119 286 116q158 -8 190 -100q12 -19 61 -63t61 -70t14 -71q3 -44 13 -58q0 -9 -2 -21t-3 -19t-5 -17t-6 -17t-9 -17t-8 -14q-2 -4 -12 -15t-12 -17t-16 -21q-14 -14 -31 -37t-45 -29q0 -8 10 -8q-43 -46 -166 -145
q80 -25 145 -74t87 -121q2 -4 10 -12t10 -12l-4 -13q2 -4 10 -11t12 -27q6 -34 28 -98t-9 -132q-4 -55 -27 -87q-36 -52 -65 -81l-31 -31q-74 -31 -129 -96q-16 -2 -33 -12q-59 -51 -188 -73q-50 -8 -115 -17q1 6 11 8t10 8q-55 2 -78 -4q0 6 5 11t-1 9h-88q-2 10 6 12
q8 1 18 2t9 7q-41 16 -45 0q-4 0 -8 10t-17 6z" />
    <glyph glyph-name="four" unicode="4" horiz-adv-x="1128" 
d="M224 1151q-5 0 -7 -6q6 18 32 69t38 85t12 91t-39 92t-35 60q29 10 62 0q8 8 -5 28t-3 25q4 8 16 -4t35 -4q6 -6 17 -29t36 -20q-8 -8 -3 -11t17 -9t15 -13q2 -27 22 -57t23 -51q-14 -14 -12 -41t-15 -80q-18 -52 -21 -72t-13 -34t-13 -16q-2 -3 2 -11q9 -18 -31 -82
q-74 -145 -170 -264q113 37 158 69l30 10q24 7 32 11t39 15q30 11 65 44q23 -4 30 -1t18 15t13 15q31 -4 45 4q35 41 74 149t68 148q29 117 75 170q16 102 46 145q32 0 68 -40q17 -17 29 -20t23 -11q12 -8 46 -41t39 -46t-1 -57q-5 -44 -27 -105q-22 -60 -52 -133t-39 -106
q-3 -2 -13 -14t-20 -14q12 -78 -58 -175q6 -57 -28 -92q-16 -59 -36 -140t-36 -133q-14 -52 -24 -109t-37 -101q-3 -31 -23 -80t-16 -98q-6 -2 -21 -21q-21 2 -79 -6q-132 -18 -169 23q-45 -10 -79 16q-8 36 10 102t18 89q23 23 38 91t34 91v39q29 45 31 85t30 84
q27 44 23 64q26 29 56 95t38 83q-74 -12 -230 -103t-259 -103q-49 -4 -99 24q-6 20 -16 43q0 2 14 22t19 35q53 45 114 165t84 151q0 6 -5 6z" />
    <glyph glyph-name="five" unicode="5" horiz-adv-x="1173" 
d="M1057 825v-8q4 2 9 1t9 0t2 7h-20zM454 -74h-44q-6 -2 -8 5t-9 8q-170 27 -269 95t-112 199q-2 21 6 55t8 46t-13 27q-11 15 -13 27t13 55t23 53t18 16q12 6 18 14t22 37t32 45t66 51q74 47 156 -11q28 -20 41 -25q-55 -29 -87 -123t-18 -194t68 -136q55 -35 150 6
q115 111 165 171t78 114q6 23 27 77q76 206 72 293q-2 41 -26 77t-68 50q-80 4 -136 -16q-184 -66 -303 -141q-6 -5 -25 -21t-46 -16q-10 2 -18 24t-27 21q-2 8 4 14t4 15q-1 9 -11 4q-10 -4 -10 0q3 45 30 99q26 53 30 63t-2 13t-4 9q41 92 108 272q68 180 100 258
q0 2 -4 12t1 16q5 5 8 9q13 4 41 -9t40 -16t48 -3h45q98 -10 313 -64q25 -6 86 -6t88 -6q2 -1 7 -15t16 -14q-10 -8 -38 -17t-38 -20q-57 0 -181 23q-124 22 -205 14t-153 4q-12 -18 -17 -61t-12 -67t-40 -93q-33 -71 -44 -101t-27 -114t-34 -123q39 10 114 45
q168 78 292 62q188 -23 276 -104t84 -265q-2 -109 -62 -241t-108 -200q-49 -68 -135 -130q-117 -80 -217 -105q-25 -6 -84 -14t-94 -19q4 -4 21 -3t26 -1q4 -4 -3 -4z" />
    <glyph glyph-name="six" unicode="6" horiz-adv-x="927" 
d="M486 253q83 83 86 173q1 36 10 76q8 41 9 53t5 38q13 83 -21 150q-14 35 -58 71t-68 17q-57 -39 -103 -222t-51 -245q-6 -62 12 -151q6 -6 22 -32t48 -25q14 14 51 45t58 52zM16 487v45q2 25 15 79q12 54 16 115t37 140q33 78 41 103q2 0 7 -3t9 -1q12 31 52 86
q39 55 51 92q0 4 -6 -1t-11 -3q3 3 13 27t24 26q2 8 0 8l-8 -2v6q53 70 172 190t168 183q55 49 117 -4q0 -31 15 -49t47 -34t42 -26q1 -26 19 -44t33 -31q15 -12 18 -15q-207 -170 -418 -493q2 -2 16 -1t21 5q12 -11 43 -19t35 -10q110 -47 146 -204t-25 -277
q3 -55 -17 -101q-20 -45 -24 -61q-25 -29 -80 -71t-78 -66q-141 -80 -258 -49q-4 2 -18 11t-23 9q-21 27 -81 73t-82 80t-31 76q-10 42 -13 162q2 0 4 -6q16 0 2 34q-2 5 -2 9q12 8 12 12z" />
    <glyph glyph-name="seven" unicode="7" horiz-adv-x="1261" 
d="M1071 950q-20 17 -63 17q-42 0 -83 2q-41 3 -71 -11t-69 -59q-38 -45 -84 -117t-87 -125t-64 -104q-22 -51 -30 -69t-28 -77q-20 -58 -30 -88t-40 -146q-29 -116 -72 -173q-184 12 -239 12q-9 10 -49 34t-52 46q84 190 128 288q113 253 265 488q-227 -72 -279 -97
t-93 -53t-72 -37t-70 1l-24 49q14 6 89 41t118 47q4 0 5 10t3 11q184 82 297 108t125 38q12 13 24 39t101 120q90 95 103 111t21 31q7 15 13 22q8 6 32 16q24 11 32 21t20 53q45 31 82 104q-129 -14 -187 -59q-6 -2 -7 5q0 7 -24 -5t-122 -32t-137 -38q-17 2 -113 -4t-156 6
t-69 56q10 10 66 1t85 -6q0 15 -12 25t-12 23q12 10 42 7t29 -26q137 0 217 14t114 20t107 26t89 24t101 32t89 30q20 -12 41 -13q12 -14 13 -41t6 -41q4 -14 44 -45q40 -32 66 -66t17 -79q-29 -29 -33 -51q-89 -60 -177 -147q-87 -87 -98 -97q19 -6 69 -8t84 -12t46 -37
q-20 -1 -32 -13t-13 -26q-6 2 -41 24l33 -12q6 0 16 12z" />
    <glyph glyph-name="eight" unicode="8" horiz-adv-x="1130" 
d="M582 344q-2 6 -29 61t-25 77t0 28t-15 17t-16 15t-1 11v6q-8 16 -54 72q-16 -11 -63 -31t-61 -30t-32 -25l-36 -27t-36 -32t-42 -53q-22 -32 -31 -44q-74 -104 -57 -229q6 -76 35 -104t125 -50q2 0 44 -12t48 -11t51 1q-4 16 15 25t49 3q125 121 131 332zM905 1540
q2 8 -8 14q-11 6 -29 10l-24 9l16 -13q22 -20 45 -20zM1073 1462l17 -53q0 -35 -10 -67t-17 -38q-6 -6 -8 -10t-1 -12t-5 -26t-41 -81q-35 -62 -43 -87t-32 -51t-28 -33q-39 -88 -47 -98t-28 -28q-20 -17 -49 -50q-30 -33 -85 -64q12 -37 76 -116t80 -140q18 -61 36 -120
q18 -58 16 -84t-12 -57q-9 -30 -5 -44q-3 -7 -13 -25t-8 -35q-86 -115 -127 -149q-92 -76 -223 -72q-14 0 -8 8q4 6 0 7q-176 -33 -418 38q-12 5 -30 23t-23 22q-51 92 -39 220t144 248q132 118 261 198q-4 20 -30 52q-27 32 -32 42t-9 33t-25 46t-24 40q-4 18 -10 41
q-5 23 -7 33t-11 32q-9 21 -12 29t-1 35q3 37 -8 80t14 63q0 4 -3 24t9 24q-2 8 -10 4q10 133 96 198q121 -14 125 -16q25 -20 65 -70t68 -69q-4 -15 -29 -49t-30 -62q-15 -88 -11 -123t28 -86t34 -87q11 -36 39 -50q59 47 90 75q94 85 133 181q6 14 19 57t19 59t14 27
q7 10 9 15q29 92 -34 198q-101 101 -210 101q-36 0 -55 14q13 17 33 14q29 -5 50 6q93 51 221 3q129 -48 155 -111q2 -2 1 -11t-1 -16z" />
    <glyph glyph-name="nine" unicode="9" horiz-adv-x="995" 
d="M63 -61q-72 16 -94 12q48 -38 94 -12zM293 63q0 -25 -39 -33t-41 -26q29 -2 57 20t43 23q-4 16 -20 16zM322 55q20 1 27 13t-3 16q0 -10 -12 -16t-12 -13zM362 80q23 2 33 29q-23 -2 -28 4q-3 -7 -3 -17t-2 -16zM487 92q-5 -20 -39 -44t-32 -44q61 39 121 129
q-16 3 -26 -19t-24 -22zM541 1538q0 -16 -13 -29q-66 20 -157 -8t-115 -86q-13 -30 -35 -35q-2 -12 0 -24q-86 -76 -78 -287l-32 -29q0 -8 20 -28q87 20 149 81t110 124t68 87t73 103q54 78 85 115q-4 29 9 32q229 29 297 -186q37 -113 30 -227q-25 -379 -137 -656
q-6 -10 -24 -36t-58 -109q-39 -82 -59 -115q-113 -193 -161 -233q-49 -40 -117 -74q-68 -32 -100 -54q-84 -56 -155 -20q-38 20 -92 23q-55 4 -65 8t-51 27q-40 23 -68 16q-4 20 -31 36t-39 32t-20 53q-27 59 -21 143q-6 4 -10 -1t-7 -17t-5 -14q10 150 75 282q5 0 15 -1
t21 -2t18 -5q-15 -94 -13 -172t48 -125t135 -43q31 0 75 37q18 10 56 20q38 9 62 25t32 51q4 2 14 8t19 8q2 8 82 123q0 4 -3 10t-1 11q37 37 36 76q16 12 41 63t33 81t27 38q-2 35 37 125q98 451 92 708q-26 -15 -45 -48q-20 -34 -35 -54t-69 -82q-54 -60 -67 -78t-51 -71
t-56 -73q-66 -73 -134 -91q-27 -6 -90 12q-4 8 -21 31t-22 39q-14 184 96 348q72 109 166 166q49 31 116 33t124 -37q-4 -9 -4 -25z" />
    <glyph glyph-name="colon" unicode=":" horiz-adv-x="378" 
d="M294 467q9 0 9 -4q-4 0 -5 -6t-3 -6q8 -4 18 -2q0 2 5 8t4 14l-7 2l-2 4q-9 -2 -33 3t-26 -1l16 -10q0 8 4 8q-2 -6 4 -8t16 -2zM309 477l8 6q-6 10 -18 6t0 -10q0 8 4 3t6 -5zM322 379h8q-6 -6 -17 2q3 -26 -23 -49q-28 -24 -32 -30q-6 -8 -32 -7l-29 -4q0 4 -4 4
q-102 8 -121 43h16q-10 10 -25 15q-2 1 0 7q-47 -6 -51 -6q-8 8 -13 35t-1 35t10 16q-6 20 -3 24t-1 25q-8 18 -8 40t24 34q33 6 117 6q2 0 17 19q88 16 88 -51q2 0 2 3v7q0 4 2 8q4 -10 23 -6t30 0q-8 -8 -20 0q3 -8 -5 -14t-8 -11q8 -2 14 5t15 6q4 -9 -8 -13t-13 -6
q4 -6 18 -5t17 -7q6 12 4 14q11 8 13 -5t-9 -15q9 0 9 6q14 -24 8 -52t0 -53l-17 -2q-1 -18 5 -18zM303 1212q-4 0 -5 -6t-3 -6q8 -4 18 -2q0 2 5 8t4 15l-7 2l-2 4q-9 -2 -33 3t-26 -1l16 -10q0 8 4 8q-2 -6 4 -7t16 -2q9 -1 9 -6zM309 1227l8 6q-6 10 -18 6t0 -10q0 8 4 3
t6 -5zM-4 1280q0 20 24 33q33 6 77 6t47 3t6 8q2 5 4 7q88 16 88 -51q2 0 2 3v7q0 4 2 9q4 -11 23 -7t30 0q-8 -8 -20 0q3 -8 -5 -14t-8 -10q8 -2 14 5t15 5q4 -8 -8 -11t-13 -7q4 -6 18 -5t17 -8q6 12 4 15q11 8 13 -5t-9 -16q8 0 9 6q14 -23 8 -51t0 -53l-17 -2
q-1 -19 5 -19h8q-6 -6 -17 2q3 -24 -23 -49q-27 -24 -32 -30t-23 -6q-18 -1 -38 -5q0 4 -4 4q-102 8 -121 43h16q-8 9 -19 13t-6 10q-47 -6 -51 -6q-8 8 -11 25t-5 29t12 32q-6 20 -3 24t-1 25q-8 21 -8 41zM313 381q0 4 -4 12q0 -4 4 -12zM313 1130q0 4 -4 13q0 -5 4 -13z
" />
    <glyph glyph-name="semicolon" unicode=";" horiz-adv-x="378" 
d="M336 457q0 -35 -2 -51v-7l-2 -2q0 -6 -4 -18h2q0 -2 -2 -2q-12 -49 -52 -109t-80 -95q-38 -36 -51 -25t-9 41t20 44q2 4 45 58h-4q0 4 -4 4q-102 8 -121 43h16q-2 4 -12 9t-13 7q-2 2 0 6q-8 -2 -28 -6v27l2 53q4 72 10 94t23 33q12 4 28 8h39q2 0 17 19q88 16 88 -51
q2 0 2 3v7q0 4 2 8q4 -10 23 -6t30 0q-8 -8 -20 0q3 -8 -5 -14t-8 -11q8 -2 14 5t15 6q4 -9 -8 -13t-13 -6q2 -6 18 -5t17 -7q6 12 4 14q11 8 13 -5t-9 -15q8 0 9 6q4 -8 10 -27v-20zM-4 1280q0 20 24 33q33 6 77 6t47 3t6 8q2 5 4 7q88 16 88 -51q2 0 2 3v7q0 4 2 9
q4 -11 23 -7t30 0q-8 -8 -20 0q3 -8 -5 -14t-8 -10q8 -2 14 5t15 5q4 -8 -8 -11t-13 -7q4 -6 18 -5t17 -8q6 12 4 15q11 8 13 -5t-9 -16q8 0 9 6q14 -23 8 -51t0 -53l-17 -2q-1 -19 5 -19h8q-6 -6 -17 2q3 -24 -23 -49q-27 -24 -32 -30t-23 -6q-18 -1 -38 -5q0 4 -4 4
q-102 8 -121 43h16q-8 9 -19 13t-6 10q-47 -6 -51 -6q-8 8 -11 25t-5 29t12 32q-6 20 -3 24t-1 25q-8 21 -8 41zM313 1130q0 4 -4 13q0 -5 4 -13z" />
    <glyph glyph-name="less" unicode="&#x3c;" horiz-adv-x="927" 
d="M221 803q0 -41 98 -116q99 -75 247 -176t220 -171q8 -8 25 -33q35 -74 4 -131q-18 18 -44 3t-34 -15q-147 78 -404 251q-140 95 -242 198q-101 103 -101 173q0 43 64 127t222 202t369 210q8 8 94 51q8 0 34 -15t44 3q43 -76 -29 -166q-84 -82 -230 -167t-242 -140
t-95 -88z" />
    <glyph glyph-name="equal" unicode="=" horiz-adv-x="663" 
d="M43 1047q94 4 158 4q64 -1 211 -13t178 -28q55 -27 12 -88l14 -23q-12 -6 -18 -18t-10 -19q-52 6 -110 6t-96 -3t-113 -12t-107 -11q-72 31 -135 98q0 10 13 9t11 5q-6 8 -35 38t-32 57q12 10 17 10zM480 618q-58 0 -99 -3t-112 -11t-107 -10q-63 25 -135 96q0 10 13 9
t11 6q-6 8 -35 37t-32 57q10 10 16 10l43 -12q70 10 387 -11q152 -8 180 -36t-8 -76l14 -25q-6 -2 -28 -37q-50 6 -108 6z" />
    <glyph glyph-name="greater" unicode="&#x3e;" horiz-adv-x="882" 
d="M842 786q0 -70 -102 -173q-150 -153 -488 -358q-106 -65 -158 -91q-8 0 -34 15t-44 -3q-31 57 4 131q16 25 25 33q72 70 220 171t247 176q98 75 98 116q0 33 -95 88t-241 140t-231 167q-72 90 -29 166q18 -18 44 -3t34 15q86 -43 94 -51q211 -92 369 -210
q159 -118 223 -202t64 -127z" />
    <glyph glyph-name="question" unicode="?" horiz-adv-x="931" 
d="M135 201q10 -2 12 10t-4 16q0 -4 -6 -12q-7 -7 -2 -14zM123 174q0 10 -8 10l-4 -2q-4 -6 -5 -8h17zM49 4q4 0 5 6t3 6q-4 2 -20 2q0 -4 -4 -11t-2 -13h6v-4q8 2 32 -3t29 -1q-4 2 -8 6t-8 6q0 -8 -4 -8q2 6 -5 7t-15 2t-9 5zM41 -10l-6 -6q6 -10 18 -8t0 10l-4 -2
q-4 6 -8 6zM356 -63q0 -47 -109 -41q-36 2 -39 -1t-5 -9t-4 -7q-88 -16 -88 51q-2 -2 -2 -8t-3 -10q-8 8 -23 5t-30 1q8 8 21 0q-2 6 5 12t7 11q-8 2 -13 -4t-16 -5q-3 8 9 12t12 7q-4 6 -18 5t-19 7l-4 -16q-10 -6 -11 6t9 14q-8 2 -8 -4q-15 23 -9 51t0 52q4 4 8 2t7 2
q4 18 -10 18q8 8 16 -4q-4 24 30 56t37 50q4 2 8 0t5 -2q-5 12 9 26q13 13 15 19q13 -5 11 -29t4 -34q102 -4 123 -41h-17q2 -4 10 -8t12 -7t1 -10q33 9 53 7q11 -22 12 -31q2 -10 4 -23t-12 -32q6 -17 3 -23t3 -26t6 -39zM90 -236l-8 -30h-19q2 8 3 14q0 6 2 10q6 0 11 4
t11 2zM713 981q0 -6 -4 -31q-78 -76 -115 -164q-35 -22 -75 -88t-66 -88q-16 -59 -44 -114q-28 -56 -39 -98t-8 -115q2 -8 -6 -7q-20 4 -20 -6q-2 -12 10 -8q4 2 4 0v-6q-37 2 -85 26t-64 27q-6 10 -4 23q-8 -8 -23 -4q-63 127 -24 221q-6 57 3 85t31 60t33 76q33 36 88 121
q53 85 73 115t60 77q91 105 113 179q4 18 23 63t31 75q11 30 4 62t-42 49q-59 7 -124 -33t-78 -44q-14 -23 -40 -60t-64 -93t-46 -96t-15 -91t7 -97q-7 2 -15 -5t-12 -7q-152 53 -180 66q-6 86 49 210t62 154q29 43 68 79q41 36 99 81t82 65q80 13 157 15t97 -2t59 -15
t70 -63q23 -1 56 -19t41 -34q47 -104 49 -122t-6 -22l-2 -2q-2 -10 1 -32t2 -35q0 -15 -16 -55t-14 -58q-16 -36 -57 -100t-58 -103q-8 2 -13 -5t-13 -7zM39 84l2 -4q0 2 -2 4z" />
    <glyph glyph-name="at" unicode="@" horiz-adv-x="1298" 
d="M25 686q0 2 7 18t-7 17q0 -3 -5 -19t5 -16zM700 748l-4 -17h13q4 16 -9 17zM582 625q16 3 26 33t23 36q0 4 -7 6t-8 5q20 35 11 47q-18 -29 -45 -127zM657 809q0 8 9 4q-5 13 13 37q3 4 -5 12q-31 -47 -17 -53zM586 840v22q57 40 145 189q-55 7 -89 -7t-77 -51
q-66 -49 -87 -75t-40 -81q-18 -55 -31 -108t-18 -65q39 16 74 47t106 129h17zM209 938q10 0 16 16t0 23q-16 -33 -16 -39zM563 517q0 15 2 15t8 -4q7 -4 9 3t-9 28q-8 -2 -7 -10t-1 -12q-2 22 27 149q-23 -43 -80 -73q-56 -29 -120 -23t-95 57q2 39 21 108t22 99q-4 4 -8 -4
q26 94 108 188t176 105q36 4 92 -25t68 -33q14 8 66 -8q-4 -4 -22 -13t-23 -22q18 -34 73 -72t72 -59q4 -12 -4 -21q-8 -10 -8 -16t15 -20t15 -22t-34 -76q-109 -172 -111 -350q118 74 194 220q49 95 124 275q-1 43 25 149t13 169q-2 16 -25 70q-24 54 -36 75
q-86 121 -238 135q-33 -16 -93 -24q-59 -7 -77 -13t-35 -23t-29 -25t-45 -19q-32 -11 -40 -17t-15 -16q-6 -10 -16 -19t-53 -36t-54 -41t-45 -72t-65 -76q-20 -53 -49 -88v-31q-10 -12 -28 -55t-42 -55q3 -38 -7 -77q-9 -40 -11 -50v-8h-2q-6 4 -10 2q0 -10 18 -25
q0 -23 -10 -65q-41 -171 35 -402q2 -4 10 -6t8 -6q33 -92 123 -141q20 8 31 8q4 -3 8 -15t6 -16q67 -22 125 -4q59 18 96 36q37 19 41 21q6 -8 6 -17l-6 -40q-26 -35 -91 -58q-65 -24 -71 -26q-16 13 -34 8q-19 -4 -27 -4q-80 4 -150 47t-102 83t-82 112q2 39 -31 76l13 22
q-23 45 -35 154t-19 131q-10 -4 -8 -28t-4 -34q-6 63 -3 100t34 169q15 3 17 -6q3 -9 5 -11q8 -2 11 4q2 6 2 17q-4 4 -16 3t-15 7q8 16 17 54q21 88 59 112q4 8 -3 12t-8 10q70 90 93 154q25 12 53 60q29 48 41 63q104 117 299 207q120 55 178 57t182 -35q29 -20 119 -67
t123 -93q6 -8 12 -32t18 -41q13 -18 17 -27q35 -96 -8 -334q0 -4 -8 -10t-6 -28q2 -23 -4 -60t-33 -96t-72 -133t-57 -99q0 -6 -4 -17t-5 -24q-20 -16 -79 -79t-127 -91q-10 -4 -15 -22q-39 0 -43 -23q-53 -4 -110 15q6 25 -8 41t-42 33t-38 30q4 23 -8 69q-11 46 -11 61z
" />
    <glyph glyph-name="A" unicode="A" 
d="M326 1210h-19q2 -10 1 -19t-11 -3q-2 -6 2 -12t-2 -15q-13 -8 -27 -45t-39 -47q8 -4 5 -18q-25 -15 -43 -61t-31 -58q30 -14 112 -16t90 -4q8 0 10 8q3 8 7 8q14 47 56 222t74 263t32 117q-37 -50 -105 -144t-104 -145q0 8 -4 0q4 -3 -3 -15t-1 -16zM698 1583
q8 16 -15 19q-9 0 -15 -7q16 -12 30 -12zM-6 928l74 -4q12 2 24 18t19 21q4 8 3 19t5 11q2 4 25 37q24 33 32 55q4 3 12 13t15 10q106 207 289 453q10 16 39 46t40 68q65 0 175 -20t139 -45q3 -4 31 -43t57 -49q6 -31 -34 -125q-40 -93 -48 -129q-9 -36 -23 -90
q-48 -177 -30 -211q-25 -47 -45 -189q-2 -6 0 -28t1 -37q0 -15 -62 -350t-56 -390q-8 0 -22 -5t-25 -3q-7 -9 -4 -21q2 -12 0 -14q-20 2 -133 4q-251 4 -279 58q23 72 80 419t69 394q-41 8 -134 13t-119 9q-49 -73 -239 -441t-228 -425q-45 0 -72 8q55 90 233 435t234 462
q-4 8 -28 18t-25 25q13 0 11 14q-1 7 -1 9z" />
    <glyph glyph-name="B" unicode="B" horiz-adv-x="1257" 
d="M455 -6q33 2 84 58t83 120t54 216q20 152 -8 192q-14 14 -47 27t-48 26q-70 -186 -213 -604q16 -3 46 -21t49 -14zM1083 1559q-178 -178 -479 -869q16 0 28 -3t85 38q155 76 227 261q128 327 146 440q18 112 4 133h-11zM807 1298q20 4 37 31q18 28 27 41t40 60
q31 46 51 76q51 77 115 122h80q9 -6 21 -21t20 -22q22 -106 14 -142t-23 -92t-25 -93t-81 -209q-70 -172 -125 -250q-63 -78 -180 -154q-4 -15 14 -27t19 -16q31 -49 -1 -225t-73 -266q-4 -5 -12 -19t-14 -24q-7 -10 -15 -30t-14 -32q-66 -64 -161 -78t-163 39q-10 2 -13 -9
t-11 -9q-25 25 -165 39t-165 26q-2 53 -3 95t34 193q36 152 52 204q15 51 19 82q44 150 172 542t156 482q8 6 37 0q-10 23 6 39q291 -49 346 -70q16 -47 35 -57q16 -41 5 -76t-14 -44l-9 -27q-6 -17 -14 -31t-19 -48z" />
    <glyph glyph-name="C" unicode="C" horiz-adv-x="1118" 
d="M907 1583q2 0 70 19l27 -17q25 -14 47 -14q8 -7 15 -27t11 -26q-6 -97 -21 -147t-24 -83t-22 -60q-13 -26 -27 -62t-18 -44q-11 2 -19 -11t-12 -15q-33 14 -38 52t6 76t28 92q16 54 20 83q-80 -49 -137 -180q-4 -3 -10 -11t-15 -8q-14 -43 -149 -314q-135 -272 -151 -318
t-23 -95q-8 -49 -14 -74q-68 -233 -13 -342q47 12 82 48q35 37 68 89t57 74q14 41 64 132q49 91 65 153q12 -4 32 9t40 5q-4 -16 -7 -65t-28 -72q-63 -240 -164 -324q-6 -2 -5 -11t1 -11q-8 -6 -49 -47t-75 -59t-79 -21q-4 0 -7 -10t-16 -7t-124 2t-131 1q-109 14 -140 178
q-32 164 -3 352q30 188 73 288q42 101 104 219t76 146t22 66q17 92 138 252q61 84 146 174q6 6 22 6q6 2 3 9t5 12q47 27 157 13t144 -40q0 -27 -2 -35z" />
    <glyph glyph-name="D" unicode="D" horiz-adv-x="1261" 
d="M137 0q0 20 -41 20q-2 -14 12 -21t29 1zM887 1323q7 -18 -9 -38t-19 -36t-5 -22q-47 -88 -72 -150q-317 -924 -333 -981q74 33 178 119q106 129 270 399t219 424q-35 121 -85 195t-144 90zM958 1500q0 -19 -5 -19h-11q10 -23 6 -39q181 -120 223 -182q43 -61 47 -126
q5 -65 -49 -206q-35 -42 -159 -312t-160 -309q0 -4 -4 -4t-4 4q-6 -2 0 -8q-164 -139 -199 -176q-154 -106 -194 -150q-18 -2 -141 -28t-162 -22q-38 5 -87 32t-54 42t-5 54q6 100 144 507t143 423q18 13 24 12q-20 12 8 31q7 10 -6 10q-6 -2 -8 -1t6 23t45 90q37 67 52 103
q-12 12 -1 47t31 45q-7 18 9 49t18 40q-8 6 -47 23t-54 37t-4 58q16 0 32 -12t32 -10q4 4 8 15t8 15q8 -2 26 -11t34 -11q16 18 32 64t21 55q109 -4 233 -35t152 -80q6 2 12 -1t13 -3q-5 -15 -5 -34z" />
    <glyph glyph-name="E" unicode="E" horiz-adv-x="1400" 
d="M588 459l-10 -15q0 -4 8 -1t14 1q0 -29 -10 -36t-23 -13q0 -4 5 -6t8 2v4q6 -16 -1 -41t-4 -37q-27 -14 -29 -19t5 -3q6 2 8 0q0 -25 -24 -23q12 -24 -12 -94t-9 -92q43 -2 122 0t120 0q12 -14 10 -47q-4 0 -18 -14q-125 10 -424 -32t-402 -30q-16 45 -10 76q10 4 43 5
t47 7q4 20 27 138t35 164t42 117q31 72 41 102t63 166q52 136 70 192t68 172q51 117 116 252t87 188l-82 31q0 43 -6 80l12 2q10 4 8 14q5 0 17 -10t28 -6q10 4 4 13t-2 17q2 3 14 5t13 8q8 -2 12 -14t11 -13q74 -10 394 -4t365 -23q1 -4 9 -17t12 -21q-14 -20 -27 -31
q-47 -2 -132 5t-136 3q-39 -49 -70 -166q-4 -2 -12 0q-27 -109 -118 -276q-91 -166 -93 -195q25 6 79 8t81 9q2 -3 16 -19t17 -31q-12 -10 -27 -30q-35 0 -47 1q-33 3 -81 -14t-85 -26q-2 -31 -43 -147t-45 -150q-2 -6 -8 -3t-13 3q6 -37 7 -39q-8 -2 -12 5q-3 7 -5 7
q-4 -12 -1 -36t-1 -33q-2 27 -16 10z" />
    <glyph glyph-name="F" unicode="F" horiz-adv-x="1378" 
d="M350 -51l-10 43q-20 -16 -33 -49q-23 10 -99 12t-142 10t-74 35q18 53 55 164t69 204t46 138t67 186t50 191q0 6 -8 18q-7 13 -4 17t7 12q-2 12 14 14t19 4q16 46 82 268t94 293q-12 11 -55 17t-55 16q2 12 -6 57t6 52q47 -27 139 -13q6 18 35 35q12 -2 40 -10t46 -8
q21 13 20 26q-2 13 -2 15q72 4 185 -16t143 -46q23 2 135 -1t137 5q10 0 43 13t41 -11q4 -12 1 -25t1 -26q-61 -27 -195 -34t-177 -19q-41 -100 -111 -299t-96 -289q26 -14 58 -7q95 20 99 -19q-8 -14 -28 -43q-27 -3 -82 -13t-84 -14q-21 -21 -31 -60q-13 -49 -85 -256
q-73 -207 -84 -265t-24 -157t-21 -118q-10 -18 -30 -38t-24 -32q-14 0 -34 12t-38 11z" />
    <glyph glyph-name="G" unicode="G" horiz-adv-x="1218" 
d="M376 -10q44 0 99 85q14 22 26 36t21 31q10 18 16 20q19 6 103 180q45 82 45 176q-12 2 -74 2t-82 6q6 59 54 127q44 -35 156 -33t171 -6q-8 -35 -59 -55t-57 -24q-9 -104 -96 -253q-39 -69 -61 -122t-63 -109q-63 -80 -125 -117t-145 -6q-29 -14 -243 49t-222 101t1 100
t14 158t23 167q17 71 65 163q14 32 87 232t91 235t61 97t56 91q30 15 38 27q2 8 12 26q9 18 11 31q27 29 80 99q175 230 222 199q13 -9 26 -28l14 -20q19 -15 155 -55t154 -68h27q33 -31 36 -105t-65 -198q-16 11 -28 -11t-17 -24q-27 16 3 87t20 93q23 18 10 35
q-31 -6 -66 -47t-67 -49q-27 -47 -53 -58q-4 -16 -5 -26q-93 -115 -201 -307t-187 -430t-44 -375q16 -72 37 -97q0 -4 -4 -10t-2 -12q16 -8 32 -8z" />
    <glyph glyph-name="H" unicode="H" horiz-adv-x="1728" 
d="M168 514q0 -6 -2 -10q8 -6 12 10q-2 10 -8 10q-2 -4 -2 -10zM231 723q12 2 21 29q8 27 -4 32q-15 -26 -17 -61zM1477 995q16 -4 16 19q-14 -1 -16 -19zM1094 -48q0 -12 -2 -20q-40 -14 -176 -10t-160 33q23 166 98 464q76 298 137 466q-16 10 -102 2t-105 -6q0 -4 13 -4
q-10 -2 -40 -5t-61 -22q-8 -31 -34 -124q-25 -93 -41 -175q-82 -422 -129 -508q-4 -6 0 -27q-64 -47 -246 -67t-246 26q8 17 17 65t26 69q3 127 92 422q88 295 90 303q-17 7 -48 8q-31 2 -42 4q-14 24 -12 49q2 24 0 43q25 0 43 -4l-8 -23q18 -2 46 4t36 7q20 35 54 124
t57 186q24 98 30 116t66 173t54 164q-7 9 -5 15q24 -14 180 -22t172 -44q2 0 4 -2h2v10q25 -4 53 -24q-4 -49 13 -57q-12 -90 -25 -103q8 -6 -2 -28t-4 -37q-62 -80 -148 -424q5 -14 47 -9t122 22t118 22q57 130 90 242t35 114t7 3t7 3q6 47 48 136t53 151q10 -12 63 -6
t65 3t111 -17q98 -14 108 -18q9 -5 11 -11t4 -9q8 -4 28 -12q49 -19 11 -65q-19 -23 -23 -53q-4 -37 -18 -63q-15 -26 -29 -65t-28 -49q4 -70 -66 -248q-6 -14 -25 -85t-38 -101q-31 -160 -103 -440t-120 -428q-20 2 -45 -15q-4 -10 0 -22t-3 -17q-33 20 -65 35
q-12 -3 -12 -15z" />
    <glyph glyph-name="I" unicode="I" horiz-adv-x="1359" 
d="M615 1027q16 16 18 26q-6 2 -12 -6q-5 -7 -6 -20zM602 1456q8 0 14 6t2 11q-8 3 -11 -3t-5 -14zM1159 1694q119 0 146 -27q10 -10 14 -22q-20 -7 -33 -7t-45 11q-14 -3 -6 -13t4 -18q-33 10 -93 9t-108 1q-6 -16 20 -34t17 -42l58 -34q-4 -39 -38 -107t-37 -80t-5 -14
t-7 -3t-8 -3q-8 -49 -101 -291t-103 -291q-4 2 -8 -3t-7 -5q-20 -84 -77 -284t-83 -359q19 6 63 8t62 10q10 -6 12 -25t3 -24q-27 -12 -29 -20q0 -4 2 -11q-57 -12 -293 -34t-291 -39q15 14 25 16q-4 6 -16 3t-15 5q-8 -2 -1 -9t1 -15q-29 6 -32 8q6 -14 -25 -11t-51 11
q10 8 20 8l47 -8q4 19 -20 17q-10 -1 -31 -5t-27 -4q-61 53 -63 107q47 -6 190 4q0 6 -3 20t8 25q10 12 12 16q48 197 153 525q105 327 120 376t54 215q38 166 54 205t41 82t30 68q-23 12 -91 9t-103 7q-4 70 8 88q41 -31 197 -31q8 -2 13 6t7 9q92 -5 263 -1q172 5 206 5z
" />
    <glyph glyph-name="J" unicode="J" horiz-adv-x="1646" 
d="M139 29q-6 -13 8 -15t17 11q-13 10 -25 4zM104 121q0 6 -8 13t-10 13q-10 -6 -9 -15t9 -13t18 2zM340 137q2 9 -2 13t-12 2q-6 -18 6 -19q4 0 8 4zM703 1068l16 30q0 6 -4 19t9 30t15 25t2 23t3 23t16 5q-2 55 49 179t55 181q-32 14 -107 14l-112 -2q0 5 -8 25t-4 29h266
q23 0 163 -4t166 -1l59 7q34 4 47 4t52 -4t82 -1q115 8 138 -32q-2 -8 -12 -14t-11 -13q-43 -6 -124 1t-118 -5q-2 -12 0 -29t-16 -20q-31 -92 -63 -196t-48 -132q-16 -30 -28 -66t-103 -364q-14 -51 -62 -148t-79 -187q-30 -90 -61 -132q1 -16 -5 -28t-11 -12q-5 1 -9 -3
q0 -6 2 -6q6 2 10 2q-45 -104 -90 -168t-112 -96q-34 -43 -140 -61q-106 -17 -210 -13t-166 21q4 12 -4 19q-7 7 -7 12q-44 0 -65 29q-22 29 -29 36q-8 4 -12 -2t-10 -6q-30 75 -23 144q7 70 27 173q21 5 41 13q14 -23 20 -92t35 -89q143 2 213 101q6 -2 13 2t11 4
q102 121 156 272q2 -2 4 -6h2q-6 11 -5 17t15 25t20 35t12 52q5 37 14 53q94 188 88 213q4 6 12 6t12 11q-2 8 -3 8t-5 -4t-8 -4q6 45 35 84q3 -5 -9 -23t-10 -31q8 5 16 19t21 18q-12 20 10 39q-2 -2 -9 1t-11 0t-4 -19q-10 6 -10 9z" />
    <glyph glyph-name="K" unicode="K" horiz-adv-x="1083" 
d="M166 322q2 -6 12 -5q10 2 10 13q-20 4 -22 -8zM1178 1278q0 -4 6 -4q2 14 -13 10q-8 0 -8 -10l8 -4q0 8 7 8zM846 1534l14 16q0 -2 2 -4t8 8v7q-16 -6 -27 2t-24 2q11 -4 15 0q0 -5 1 -11t0 -10t3 -7t8 -3zM1352 1431q0 3 -5 5t-6 3q-6 -30 -6 -42q-69 -54 -116 -105
q-4 0 -5 6q-2 8 -10 7q-10 -1 -3 -9t3 -14q-123 -119 -172 -158q4 -4 -1 -20t5 -19q-6 -23 -39 -137q-136 -471 -155 -684q-31 -80 -40 -209t-14 -159q-10 6 -32 -13q-39 39 -11 78q2 6 -5 10t-4 15t16 20q0 4 -4 4t-9 1q-4 1 -3 10t10 14q8 4 10 6q-8 0 -8 12q0 6 -7 0
l13 80q-2 0 -6 -8q31 248 155 854q-131 -117 -178 -169t-50 -49t-9 3q-4 -12 -16 -39t-12 -35q-1 -8 3 -33q-18 -71 -105 -307t-104 -305q-2 -8 8 -22q-8 -15 -49 -29t-39 -41q-53 -27 -197 -20t-163 47q14 12 31 47q16 35 24 45l-8 22q15 20 25 80t15 74t17 16q-16 8 23 39
l28 14q-7 15 3 49t6 52q24 26 76 176t69 170q-20 20 -27 0q-8 5 2 14q10 8 9 13q4 1 7 -5q10 -18 21 20q6 19 21 23q-5 15 -15 35q-18 -4 -18 -24q-6 4 9 36q15 31 18 42q-10 0 -17 -9q0 13 27 25t35 29q-7 10 -17 -1q-10 -10 -12 -4t8 12t19 1q0 17 -18 19q-9 1 -13 3
q4 7 14 9q10 1 15 4q-2 2 -11 9q-8 7 -10 13q2 4 16 15q13 11 15 24q-10 0 -10 6t2 10q2 3 4 11t4 12q2 -4 8 -1t14 1q-12 27 7 94q12 2 6 -14q10 2 10 13t6 18q-8 0 -10 -5q8 49 48 158t48 133q-14 15 -12 33t9 54t5 52q14 -6 26 2t13 17q12 2 31 2l84 -2l6 12l73 2
q104 0 99 -18q-8 6 -47 12l22 -22q7 0 23 4t27 2q11 -3 1 -9t-10 -10q4 -6 42 -30t30 -62q12 -4 22 -22t21 -23q-10 2 -13 -1t-4 -14t-3 -16q16 0 13 13q-2 10 13 10q6 -10 -10 -36t-31 -26q-4 -6 0 -8t9 -1t8 1q-74 -109 -147 -282q-72 -173 -101 -232q45 35 119 123
t110 118t72 66t80 77t62 59q17 18 200 190q6 16 21 32t20 25q10 -2 39 0t39 -4q0 -2 -2 -14t8 -16q-8 -10 -25 -11q-4 -8 5 -9t3 -11q-12 4 -19 1t-23 -17t-25 -17q-2 -8 2 -17t4 -14q-17 -2 -35 -24t-31 -27q1 5 7 9t6 7z" />
    <glyph glyph-name="L" unicode="L" horiz-adv-x="995" 
d="M401 207q18 0 19 26q-29 -3 -19 -26zM428 268q0 20 6 27h-18q4 -6 2 -12q-5 -15 10 -15zM498 608q0 -6 -24 -91t-23 -91q-3 6 -9 1t-10 -5q-4 -14 4 -31q-23 2 -18 -18q18 -4 18 -8q-12 -7 -13 -25t-5 -25q16 -6 20 -12q0 14 11 43q10 29 13 45t-7 39q12 4 41 98t16 99
q-6 -5 -3 -9q7 -10 -11 -10zM514 700q8 -25 -6 -57q30 0 37 62l4 18h-12q-5 -19 -23 -23zM541 741q27 0 26 39h-16q-10 -31 -10 -39zM383 926q10 0 16 12t0 23q0 -11 -6 -5t-10 5q7 -10 3 -16q-3 -7 -3 -19zM573 846q-24 5 -20 -12q6 2 13 -1t12 -4q2 14 26 82q25 68 19 99
q-32 -70 -50 -164zM322 1018h-3q-6 -4 -6 2q16 20 25 54q8 34 31 59q-3 8 -9 1t-14 -4q44 103 102 287q58 183 72 238q2 8 -6 14t-8 12q8 -2 84 -28q8 0 15 8t11 8q109 6 224 -57q12 -8 55 -26t55 -47q12 -30 -14 -82t-33 -71q0 -2 7 -3t8 -5q8 -43 -28 -135t-40 -110
q-35 -41 -80 -150t-78 -149q-2 -6 1 -12t3 -11q-45 -96 -121 -386t-112 -378q25 -6 71 5t70 9q0 -12 4 -14q12 0 1 -8t-11 -12q20 2 126 9t161 17q14 0 28 -8t21 -10q-4 -7 -14 -15t-9 -20q-25 6 -31 6l-67 -10q-73 -10 -231 -28t-236 -29t-228 -21t-229 -6q-8 33 -24 39
q0 12 15 24t14 29q32 -6 66 -5t65 -3q19 11 15 35q-4 23 10 76q13 53 9 73q13 26 27 92t31 101q2 47 54 195t52 180l29 14q-2 10 -23 6q18 35 44 125t49 117v8z" />
    <glyph glyph-name="M" unicode="M" horiz-adv-x="2072" 
d="M1368 1024q0 4 8 17t-2 18q0 -6 -6 -17q-7 -11 0 -18zM1729 1673l-25 -35q8 -12 68 -26q12 -19 8 -31q16 -6 82 -26t104 -40q74 -38 64 -92q-6 -25 -38 -63t-40 -64q-18 -16 -47 -66t-52 -67q-2 -8 9 -8q-33 -37 -87 -124t-85 -126q8 -12 -6 -35t-7 -26q2 -8 -7 -10
t-9 -9q-166 -442 -191 -622q-3 -30 -21 -89q-19 -59 -17 -83q-31 -27 -100 -35t-119 -5t-141 15t-97 12q2 25 -17 39q64 131 182 485t169 468q4 2 11 9t13 9q0 31 6 35q2 0 2 -14q27 35 15 36q23 23 30 38q6 15 11 24q-6 6 7 24q14 19 28 31t20 19q0 4 -16 4q20 31 48 101
t36 83q-26 -3 -44 -44q-9 -19 -54 -71t-64 -86q-109 -180 -174 -241q-18 -51 -74 -126t-63 -85q-25 2 -51 24t-31 23q4 25 6 35q-16 43 -22 145q-5 102 -17 141q14 37 -6 80q-98 -158 -186 -440t-132 -526q2 -8 -8 -10q-10 -1 -12 -3q0 -2 8 -6t8 -12q-6 -35 -46 -91
t-42 -110q-63 -14 -74 -22q-47 -57 -184 -80t-190 26q2 12 0 14t-14 -14t-19 -22q12 38 100 363t127 423q0 2 10 10t26 96q17 88 25 118q8 31 12 61q3 30 25 78q21 47 29 71t32 77q24 55 33 91t62 181t47 211q45 14 94 -41q12 -2 107 -4t116 -11q21 -10 30 -22
q10 -12 14 -16t30 -12q26 -9 33 -19q6 -9 5 -29t1 -32t8 -24q7 -14 9 -22t-6 -34t-7 -38l13 -30q10 -20 7 -110t-1 -110q2 -18 11 -100t7 -121q32 14 46 37q41 66 70 113q28 47 64 80q2 14 18 28t19 27q7 2 19 14t20 17q0 10 10 20q10 9 50 61q39 52 65 68q24 56 68 113
q45 57 57 74q12 -2 41 8q10 10 25 42q14 32 26 42q23 -4 97 16zM35 -94v2l-2 -2h2zM33 -94q-12 -10 -17 0h17z" />
    <glyph glyph-name="N" unicode="N" horiz-adv-x="1916" 
d="M913 1477l27 -37q-4 -535 86 -901q25 49 84 230t113 249q43 104 146 332t153 354q285 -86 331 -109q-6 -25 0 -29q7 -6 14 -10t9 -6q0 -16 -9 -45t-3 -43q-28 -28 -44 -67q-20 -47 -76 -146t-73 -178q-68 -90 -129 -303q-8 0 -18 -11t-21 -12q12 -27 -18 -34
q-7 -90 -15 -126t-71 -242q-63 -207 -65 -239t4 -63q5 -31 -1 -37q-18 -47 -181 -58t-218 11l-10 15t-25 12q10 20 -6 51t-16 41q47 90 47 432q-8 8 -18 36q-9 28 -27 31q10 76 -13 189q0 2 -8 18t8 29q2 8 -1 10t-6 1q-9 -3 -9 7q-4 299 -29 388q-20 -20 -43 -80
q-6 -23 -34 -129q-36 -137 -99 -297q-64 -160 -82 -238q-86 -356 -161 -469q-16 -2 -28 10t-22 13q-10 -6 1 -18t-13 -28t-29 -20q-16 2 -147 6t-166 25q-10 54 30 132t100 290t142 403q16 88 90 263q73 175 85 263q8 29 35 78q62 108 48 160q29 -4 173 -15t208 -42
q4 -29 0 -47z" />
    <glyph glyph-name="O" unicode="O" horiz-adv-x="1288" 
d="M31 233q6 2 12 -1t10 1q-8 39 -20 46q-8 -8 -1 -20t-1 -26zM20 336q4 -2 10 1t7 3q2 8 -1 11t-13 1q-3 -6 -3 -16zM748 1262q18 -4 18 12q-18 4 -18 -12zM956 1569q16 0 50 5t57 3q-9 25 -53 20t-54 -28zM496 1411q0 10 -9 12q80 71 177 172q10 -2 88 -4t90 0q4 8 -101 8
l-63 5q12 8 35 34t39 35q66 0 158 -9t110 -26q94 2 139 -43q53 -44 53 -79q-24 -25 -80 -60t-77 -51q-62 -19 -107 -70q-14 -16 -43 -52t-39 -48q-27 -10 -32 -10q-3 -6 4 -8q6 -3 8 -5q-29 -44 -59 -84q-29 -40 -79 -118q-71 -110 -104 -246q-31 -39 -80 -224t-39 -280
q1 -99 7 -126q6 -28 34 -56t31 -41q160 94 352 461q31 61 83 196q52 134 64 182t45 160q34 112 36 215l-7 23q2 10 14 36q11 26 11 37t-10 31t-6 37q29 10 47 5t32 -7t22 -28q7 -25 6 -48t-3 -37t-5 -38t-5 -39q-2 -14 -3 -63t-19 -98q-17 -50 -28 -102q-18 -88 -50 -112
q1 -28 -15 -51t-21 -34t-21 -69q-43 -148 -68 -151q6 -53 -37 -103q-96 -236 -289 -413q-25 -100 -143 -101q-4 -2 -15 -18q-18 2 -154 6t-174 12q-69 15 -125 109q-28 45 -40 59q2 2 3 11t5 10q0 4 -16 4q-10 6 -7 41q4 35 4 39l-20 65q0 10 6 30t7 30t-9 28q0 18 15 62
t10 65l26 31q0 4 -8 6t-8 4q14 10 8 58q14 18 45 107t27 106q12 -1 10 -15q4 2 9 5t9 5q2 4 -6 5h-14q16 31 8 47q2 10 15 10q-6 6 9 28t5 33q6 -4 11 2t7 7q-2 2 -20 8q18 35 60 91q42 55 52 75t5 22q-4 2 -5 6q55 111 199 269l-16 8q18 14 39 14z" />
    <glyph glyph-name="P" unicode="P" horiz-adv-x="1290" 
d="M348 795q40 -6 104 12t62 22q-4 -6 -84 -20t-82 -14zM311 961q-16 0 -18 -5q13 -4 2 -11q-10 -7 -10 -15q14 -14 32 12q-6 4 -6 19zM307 983q-4 -10 1 -12t18 -2q6 12 -3 17q-10 5 -16 -3zM623 846q25 2 73 26l66 33q87 38 144 89t123 106t89 84t26 80t-16 75
q-12 21 -64 40q-53 19 -65 27t-20 17q-12 14 -41 24q-30 9 -48 22q-36 28 -59 24q-35 -57 -69 -161q-35 -104 -39 -114t-8 -37q-4 -28 -19 -56q-16 -29 -23 -51t-21 -104t-29 -124zM385 1751q11 -2 21 -10t14 -10q113 23 332 -66q8 -4 46 -8t167 -51q129 -46 149 -65t49 -66
t60 -62q4 -19 9 -79t17 -93q-16 -8 -16 -55q-4 -10 -27 -32t-20 -36q-25 -18 -100 -88t-125 -96q-2 -4 -3 -12q-12 4 -22 -10t-18 -21q-8 -6 -51 -19t-95 -42q-52 -28 -156 -80q-27 -10 -63 -70q-12 -92 -87 -347t-85 -351q-63 -31 -255 -30t-228 48q104 328 127 408
q0 2 -2 9q-2 9 22 56t18 74q3 8 9 3t10 -3q6 14 -7 22t3 13q-18 10 -60 10q-2 14 -24 28q-23 13 -27 19q66 2 160 61q20 49 37 130q16 81 41 126q12 31 -8 27q20 39 37 120t42 118q4 8 -2 14t-6 12q31 92 84 293q61 63 -8 150q25 18 41 61z" />
    <glyph glyph-name="Q" unicode="Q" horiz-adv-x="1314" 
d="M264 950h-16q0 -2 -1 -12t1 -10q2 4 9 9t7 13zM285 1004q14 -2 18 12q4 6 -6 8q0 -2 -7 -8t-5 -12zM307 1034q16 2 31 39h-12q-7 -21 -19 -39zM1049 912q0 9 2 14q72 90 111 230q40 140 44 290q-33 -10 -82 -51t-86 -49q-33 -41 -114 -103q-7 -14 -11 -20q-4 -7 -8 -13
q-14 -22 -35 -28q-12 -45 -49 -64q-16 -40 -65 -106t-68 -107q-4 2 -9 -1t-9 -3q0 -53 -43 -84q6 -16 -26 -97t-46 -108q-4 -28 -25 -72q-22 -43 -28 -55q-102 -279 -25 -409q-2 -10 3 -22t5 -17q39 16 111 88q72 73 78 101t-17 69t-23 47t4 11q5 5 -9 16q-35 25 -35 82
l16 18q0 4 -10 7t4 9q63 4 106 -36q42 -41 56 -97q14 2 22 18t5 27q16 17 40 61t39 64q51 55 52 96q16 23 64 144t54 131t7 19zM354 1151q14 0 23 6q5 10 -10 10q-4 0 0 9q0 6 9 3t11 -3q-12 12 -18 16q4 2 15 2t19 4q2 10 -10 14l-12 2q8 20 47 40t43 51q-6 6 -17 -2
t-20 -9q14 25 35 27q-6 25 0 35q12 10 63 77t97 85q-1 16 23 35t82 65t75 59q11 -8 71 -19q163 -30 156 -63q141 43 232 -77q0 -4 -7 -6t-8 -9q33 -77 18 -167q-26 -155 -77 -335q-20 -10 -20 -31q0 -20 -4 -32t-23 -35t-25 -35t-41 -114t-39 -111q-55 -143 -131 -213
l-2 -27q-17 -8 -35 -48t-36 -50q-34 -69 -12 -146q8 -26 26 -73t22 -59q-12 0 -14 -7q57 -59 74 -174q-33 -12 -92 9q0 33 -20 48t-44 29q-2 88 -57 187q-90 -72 -115 -93q-71 -59 -121 -75t-94 -17q-303 0 -334 54q-23 40 -42 112t-13 115l14 23q10 28 10 96t13 102
q12 8 24 49t37 43q0 -6 -9 -8t-9 -6q4 -2 29 -8q4 12 18 44t16 50q-31 0 -30 -41q-3 0 -11 3t-16 1q10 25 65 167q54 142 96 242t86 128q13 8 14 12t-7 14q2 4 6 2t8 2q3 15 -20 15q4 6 18 6z" />
    <glyph glyph-name="R" unicode="R" horiz-adv-x="1476" 
d="M952 1244q90 34 170 54t152 64q51 35 54 80t-30 69q-49 47 -168 79t-192 9q-8 -73 -58 -205t-61 -190q43 6 133 40zM436 1579l21 82q55 0 222 4t277 5t233 -17q124 -19 171 -53t66 -102t-11 -132q-46 -72 -151 -120q-36 -17 -100 -43t-91 -38q90 -63 123 -110l-16 -35
q6 -12 37 -8q0 -2 -17 -19q6 -56 -35 -157q-41 -100 -50 -132t-27 -73t-22 -66q-3 -25 -22 -33q0 -6 6 -10t3 -12q-137 -424 -162 -561q-16 -6 -27 -23q-139 -4 -159 0q-100 12 -48 92q18 90 87 327q70 237 86 317t51 185q35 104 37 207q0 50 -23 55t-72 -17t-65 -19
q-34 -61 -54 -140t-49 -164t-31 -97t-5 -43q-2 -31 -25 -45q0 -54 -62 -240t-64 -210q-3 -24 -11 -30q-8 -4 -11 -6q8 -18 0 -80q8 -18 54 -34q-4 -8 -18 -16t-13 -15q-51 -9 -226 -21t-229 -20q2 20 -27 29q-30 8 -32 20q3 16 24 18q21 3 25 5q-13 27 12 74q38 70 31 83
t22 75t40 97t53 192q41 157 76 268t64 213q30 102 96 291q67 189 102 302q-4 4 -28 1t-36 -1z" />
    <glyph glyph-name="S" unicode="S" horiz-adv-x="1349" 
d="M760 344q-18 49 -45 72q4 -17 45 -72zM559 909l-18 -6q-2 -10 6 -12t10 -2zM148 113q17 -23 48 -23t60 16q28 16 57 28q199 89 269 177q-31 49 -144 191t-139 166q-26 22 -50 73t-44 68l6 18q-25 41 -53 47q168 305 409 558q33 59 131 153q33 31 112 80t116 86h20
q18 -31 83 -97t83 -118q94 109 109 193q47 -9 63 -51t-6 -103q2 -4 16 -12t13 -21q-31 -78 -102 -198t-91 -166q-6 -2 -15 -10t-18 -11q-2 -8 9 -22q-31 -22 -60 -131q-8 -34 -33 -54t-65 -4q-39 84 -13 176t64 168q37 76 41 88q-125 -86 -303 -294q-90 -105 -125 -142
q-6 -12 -17 -50t-30 -50q0 -4 12 -4q-4 -14 -20 -11q23 -33 82 -61q170 -82 245 -475q-4 -16 -10 -48t-16 -68q-14 -50 -47 -89q-20 0 -39 -18q-2 -14 -18 -32t-17 -32q-233 -188 -531 -172q-90 43 -120 47q0 7 -5 17t-6 18q-51 12 -58 85t24 159q8 2 11 -8t13 -7
q10 12 6 38t2 44q9 0 25 -7t31 -3q8 -45 13 -62t22 -40z" />
    <glyph glyph-name="T" unicode="T" horiz-adv-x="1341" 
d="M78 -41q2 0 11 -4t17 -2q-12 31 -28 31v-25zM150 324l6 16q-13 2 -19 -4q-2 -6 1 -10t12 -2zM88 324q10 2 14 34h-12q-2 -11 -2 -34zM479 358q-4 0 -5 8t-7 5q0 -3 -6 -7t-4 -10q2 0 12 -2q10 -1 10 6zM483 469h-12q-6 -29 -2 -37q0 2 7 14t7 23zM168 442q10 0 14 14
t-4 21q-4 -3 -5 -17t-5 -18zM305 739q11 -15 23 5t-4 26q0 -10 -10 -16t-9 -15zM256 928q2 0 12 3t11 -3q4 4 8 21t10 22q-8 2 -12 -5t-15 -3q-2 12 8 20t11 10q6 86 76 283t81 248q-24 20 -168 6t-200 -10q-2 4 -23 92q10 14 35 10q0 6 -5 14t-3 17q6 10 24 9t25 7
q8 2 19 -12q44 -4 322 1t302 -16q15 0 77 3t95 -15q129 16 199 4q8 -2 31 -5q24 -3 32 -5t28 -5t39 -18q19 -14 22 -30q7 -33 -17 -33q12 -12 8 -22q-326 33 -565 26q-4 -20 9 -26t38 -5q-4 -23 9 -37t42 -26q29 -14 37 -21q-10 -20 23 -73q-8 -23 -27 -23q-2 -6 3 -8t5 -4
q-20 -10 -25 -43t-22 -37q12 -37 -20 -76q-13 -47 -115 -357t-133 -413q-4 -2 -10 -8t-9 -8q-2 -39 -41 -133q-5 -59 -35 -170t-36 -156q-92 -37 -275 -3q-182 34 -131 132q4 6 18 22t15 48q0 4 -8 5t-8 3q10 18 17 60t24 59q2 -8 -2 -18t-5 -17q23 35 20 48t-13 13
q2 4 12 14t12 14q2 5 -4 21q-2 0 -6 -14q-6 78 47 164q0 2 -6 3t-5 9t8 6t9 -2q6 12 40 125t46 129q4 13 -10 13q-6 0 -6 4q24 48 20 71q31 23 31 101z" />
    <glyph glyph-name="U" unicode="U" horiz-adv-x="1265" 
d="M412 244l6 41q-27 3 -29 -11q14 0 15 -13t8 -17zM145 281q4 13 -3 15q-7 1 -13 1q-2 -14 2 -18t14 2zM526 731h19q1 10 -9 12q-10 3 -10 -12zM1126 1074q0 -6 -4 -24t0 -34q-2 -4 -9 -1t-13 1q-4 -8 5 -11t7 -10q-45 -86 -59 -190q-4 2 -6 6t-7 4q-2 -4 -3 -18t-11 -19
q2 -6 6 -5t6 -3q-24 -38 -118 -278t-150 -314q0 -4 2 -9t0 -11q-53 -68 -89 -108t-108 -82t-145 -40q-131 4 -352 62q-2 4 -11 44q-17 74 -67 87q23 244 80 414q82 225 90 284t42 136t41 97t11 55t9 55t31 73t34 76q-4 20 -4 27t13 27t48 127q36 107 82 153q2 8 -1 14t-3 12
q45 23 147 -14t160 -78q4 -2 12 -2t15 -5t27 -33t32 -34q-6 -25 8 -30q-14 -78 -47 -95q-3 -7 4 -8q7 -2 9 -4q-31 -49 -84 -162q-6 2 -12 -2t-11 -4q2 -18 -15 -43q-24 -36 -32 -80q-5 -29 -20 -20q6 -33 -17 -78t-22 -64q-10 -8 -19 0q4 -4 4 -34q-8 -2 -16 1t-10 -1
q-2 -9 0 -13t12 -2q-4 -6 -4 -14t-2 -12q-8 -4 -11 1t-10 -1q-1 -14 9 -9t12 5q0 -8 -3 -10q-3 -1 -7 0t-9 -3q11 -11 8 -25q-3 -15 -3 -24q-2 0 -6 4t-9 4q6 -42 -56 -212q-15 -44 -15 -48q-6 -6 -14 -6t-13 -8q0 -4 16 -4q-4 -25 -20 -66q-6 -6 -10 4q-2 8 -7 9
q-6 -4 -2 -14q4 -9 2 -13q0 -4 6 2t11 -2q-2 -10 -9 -24q-8 -14 -10 -19q-2 -6 4 -23q-17 0 -32 -20q12 -12 12 -23q6 1 6 11t4 12q6 -4 4 -18t-6 -19q-2 2 -6 9t-11 7t-14 -10q1 -8 13 -9t14 -5q-14 -72 -20 -88q18 -11 36 -57t39 -58q20 12 35 0q109 63 189 217
q135 233 247 585t146 664q16 4 59 -12q9 -2 15 7t14 10q8 -5 14 -19t19 -16q-14 -4 -15 -5q0 -1 11 -22q-9 -2 -17 4t-14 6q0 -18 13 -25t18 11q6 0 4 -14q-4 -14 -11 -2q10 -35 2 -58q-6 1 -4 7t0 10q-4 -8 -18 -10t-16 -3q2 -8 7 -5t11 1q2 -8 -10 -10q-8 0 -8 -6t16 -6
q10 0 10 26q10 0 7 -18t-1 -27q-6 -2 -11 -2t-13 13q0 -29 20 -19q0 -8 -7 -18t-3 -25q-6 -6 -23 -4q0 -6 -3 -13t3 -9q2 -8 7 -3q5 10 12 7l-14 -34q0 -3 8 -5q2 -8 -2 -14t-4 -13q-2 4 -10 1t-17 -1q6 23 12 66t11 61q-12 -20 -22 -76t-13 -69l26 12q4 0 13 -4
q-4 -23 -35 -12q-8 -9 -10 -23t8 -20q4 0 -2 4q-8 4 -2 12q14 10 26 4q-14 -18 -28 -64t-21 -59q12 8 12 1z" />
    <glyph glyph-name="V" unicode="V" horiz-adv-x="1325" 
d="M156 541q0 18 -17 18q-3 -12 3 -17t14 -1zM770 795q0 -4 -22 -87t-15 -87q-2 14 22 91t33 87q-4 2 -9 -1t-9 -3zM145 807q12 -4 15 12q0 8 -6 10q-9 -8 -9 -22zM791 830q0 -2 6 -9q8 3 10 15t-6 16q0 -8 -5 -14t-5 -8zM229 948q11 0 15 8t6 11l-12 4q-9 -9 -9 -23z
M256 1006q8 4 7 14t-9 8q-6 -18 2 -22zM1139 1622h-23q-4 -12 8 -14q13 2 15 14zM469 471h10q6 0 5 -11q-1 -12 -12 -28t-7 -41q-4 2 -4 10q-10 -57 -4 -340q33 20 51 95q88 152 147 342q20 39 80 209q59 170 80 211q4 -6 -2 -29t-6 -33q19 14 37 64t35 67q25 74 89 207
q65 133 77 173t10 42q0 3 10 21t14 30t-4 29q4 8 10 6t13 2q4 18 35 84q-25 25 -25 35q31 27 39 26q-6 16 13 41t16 39q30 16 64 10t44 -32q-139 -295 -201 -387q-23 -94 -53 -119q-18 -54 -63 -154t-64 -153q-4 2 -8 -3t-6 -5q-4 -37 -96 -293q4 -8 1 -26t-1 -32
q-7 2 -15 -1t-12 -3q6 -10 -7 -34t7 -27q-5 -13 -18 0q-2 -2 -9 -31q2 2 5 7t4 1v-8q8 2 12 17q4 -2 1 -15q-3 -12 -3 -16q-12 2 -23 -4q12 -14 -2 -43q-13 6 -9 18q3 12 1 17q-19 -15 -9 -34q9 -19 9 -24q-4 -2 -11 -21t-20 -18q6 -41 -24 -41q-4 -41 -36 -100t-40 -80
q-30 -13 -44 -35t-20 -30t-17 -33t-13 -29q-6 0 -22 -9t-25 -3q-23 -37 -88 -37q-23 16 -167 23t-165 14q-18 59 -8 119q-2 4 -23 20q-14 201 49 467q23 18 27 27q-2 10 -17 4q1 10 5 7t8 -3q-2 53 46 213t50 215q2 6 10 12t10 10q-2 12 8 54t9 53q-8 -3 -11 -14t-8 -17
q-10 14 -24 -18q-2 24 26 62t46 84t36 172q18 127 13 179q2 6 20 3t23 -3q0 9 6 23t2 29q35 12 140 1t118 -32q92 -18 102 -43l-10 -14q9 -32 1 -46q-9 -14 -2 -18t7 -6q-2 -53 -30 -155t-36 -137q-6 -34 -22 -139t-28 -135t-42 -182q-32 -152 -51 -190q11 -11 8 -18
q-4 -7 3 -9q-4 -8 -11 -4q-4 -8 2 -14t4 -12q-8 -2 -14 -10t-10 -9q0 -4 4 -4z" />
    <glyph glyph-name="W" unicode="W" horiz-adv-x="1900" 
d="M412 -59q23 4 24 18q-18 0 -24 -18zM1274 248h22q-3 10 -1 15q3 5 1 7q-2 -4 -11 -10t-11 -12zM1337 373q0 8 13 14q12 6 14 16h-16q-15 -28 -11 -30zM481 403q14 -4 15 13q2 8 -7 8q-8 -9 -8 -21zM276 989q0 12 -6 15l-14 -54q8 0 14 14t6 25zM309 1171q17 -3 17 9
t-9 12q-10 -17 -8 -21zM962 1065q6 0 9 4q5 -5 -7 -17t-18 -14q-2 8 5 12t7 7q-10 2 -14 -4t-6 -19q0 -6 4 -3t4 1t-2 -6q-12 3 -12 -8q2 -8 -1 -14t-28 -32t-33 -38q-42 -56 -150 -280t-126 -257q-11 -56 -69 -137q-58 -82 -68 -98q-4 -55 -23 -125q18 -27 4 -96
q-25 -5 -142 -27q-234 -45 -296 0q2 4 13 4t16 6q-1 6 -9 10t-10 7q31 283 88 448q4 41 48 213t55 225q29 8 39 19q2 8 5 26t5 27q-14 -4 -12 -20t-7 -29q-4 0 -3 9t-5 9q10 39 29 128q18 89 35 141q8 2 8 -1q0 -2 -2 -8t4 -6q14 6 3 18t-11 13q6 25 52 190t46 263
q92 25 260 -5t209 -88q-109 -262 -168 -495q-4 -6 -13 -14t-13 -13q0 -10 10 -10q-20 -43 -33 -82q-4 6 -11 -4t-18 -6q-2 -12 -5 -45t-15 -47q2 0 10 -3t8 7q2 -12 -35 -123t-49 -117q-2 6 3 13t5 14q-25 -39 -26 -53q2 -10 22 4q2 -16 -9 -40t-7 -44q0 -8 -11 -6t-14 -11
q-8 -8 5 -10q12 0 12 6q4 -26 -19 -68t-26 -55q12 -1 22 15t23 16q2 14 5 20t13 5q4 20 4 26q14 4 27 23q168 342 317 588q4 2 12 9t13 9q-1 21 21 39t26 24t-4 11q-8 4 -8 -9q-2 15 11 23t34 12q4 20 10 27q-4 8 -13 2t-9 -2q4 16 28 4q10 6 6 17t-14 10l29 34q2 0 4 -6
t10 -2q0 -8 -10 -8q0 -12 35 -6q-12 6 -2 26t8 31q-7 1 -13 -21t-20 -18q8 2 8 10t-8 -1l14 22q14 25 6 39q36 22 60 82q24 61 33 78h43q4 -14 4 -25l-10 -63q-4 -8 3 -10t5 -9q-58 -231 -66 -277t-59 -308q-51 -264 -62 -345q13 -3 17 5t6 26q33 33 69 131q13 11 65 145
t69 144q4 31 36 85q33 54 41 73l11 -8q6 39 62 133t71 127q70 166 88 254q18 22 40 104t44 111q80 -8 94 -35q35 3 60 -12q24 -15 36 -19q6 2 15 13t22 6q2 -6 -4 -8t-6 -7q2 -6 27 -16q4 -84 -49 -212q-52 -128 -77 -207t-40 -118l-31 -18q0 -10 8 -13q-4 -4 -15 -6t-16 -8
q-31 -71 -137 -363t-155 -386q-2 2 -4 12t-11 10q-10 -16 -26 -22q4 -6 17 -6t15 -4q2 -3 -12 -29q-4 6 -1 15t-3 15q-31 -18 -43 -41q4 -6 12 2t21 5q6 -11 -4 -27q-11 -16 -11 -19t-15 2t-19 -1q-18 -44 -72 -54t-98 1q-43 11 -88 30q-6 0 -12 -9t-13 -7q-23 27 -49 20
q-2 31 -37 41q-2 133 72 475t84 420q-15 -4 -35 -43q-6 8 4 28t10 29q-31 -23 -49 -75q-17 0 -23 -8t-3 -13q3 -6 9 -6z" />
    <glyph glyph-name="X" unicode="X" horiz-adv-x="1595" 
d="M1450 1470q16 -2 20 8t0 13q-2 -5 -10 -11t-10 -10zM723 704q0 10 -9 42t-5 55q-27 -4 -52 -38t-43 -40q-6 -18 -34 -42t-33 -42q-72 -63 -133 -163l-84 -140t-69 -127q-46 -86 -52 -96q-27 -17 -65 -79t-78 -75q-13 13 -13 31q-16 2 -30 21t-23 24q10 25 33 26
q98 99 322 407t341 417q0 48 -12 114q11 0 9 -15t9 -15q12 20 4 58q-9 38 -8 48q-6 2 -10 -6q0 -6 -8 -4q-2 8 4 16t6 11q-18 6 -20 47t-17 49q-20 244 -30 299q-1 6 -9 3t-14 -3q-2 8 3 14t5 12q-12 13 -13 57t-24 54q20 -2 129 1q254 7 275 -50q49 14 97 -24
q24 -17 36 -23q10 -90 10 -379q55 47 155 148q99 101 140 155q12 4 31 26q18 22 24 26t22 6q16 0 21 14q10 -4 -4 -16t-28 -21q-3 -13 -19 -31t-18 -35q-35 -41 -320 -334l-8 -171q0 -40 5 -58t-1 -22t-6 -9q6 -57 7 -311t28 -350q4 -16 23 -69t16 -107l-53 -4q-7 -4 -7 -14
t-4 -13q-20 0 -122 -19t-130 -16q-18 -32 -61 -28t-70 24q0 8 -9 49t9 74q-10 45 4 222q13 177 9 213t-19 91t-12 89q2 35 2 46zM686 1038q-6 -2 -8 1t0 11t2 11q8 2 8 -8zM1511 1528q-6 12 13 24t30 11q-27 -31 -43 -35z" />
    <glyph glyph-name="Y" unicode="Y" horiz-adv-x="1302" 
d="M1262 1358q0 -34 -25 -104q-25 -71 -25 -74q-61 -256 -135 -340q-16 -66 -94 -247t-90 -241q-2 -2 -17 -28t-30 -33q-3 -57 -52 -116q-48 -59 -78 -119t-43 -74t-38 -32t-32 -28t-11 -25t-9 -23t-85 -99q-141 -164 -346 -183q-88 -8 -232 14t-196 56h-31q-4 14 -27 32
t-26 36q0 -8 -14 -10t-13 4v6q8 6 14 0q2 12 -18 110q0 10 9 12q9 1 9 5q-2 8 -7 26t-7 31q31 4 61 -7t42 -21q13 -10 41 -40q28 -29 32 -32q89 -31 159 -3t115 72q180 170 326 424q4 48 43 136q39 87 69 152t36 88t10 31t15 21q12 11 16 21t8 28t8 29q129 301 145 350
q6 43 41 143t41 148q-14 -18 -39 -50t-58 -76t-87 -102q-53 -58 -88 -98t-108 -174t-80 -145q-7 -12 -67 -97t-83 -117t-33 -44t-34 -42t-74 -48q-27 -2 -66 24q0 18 -3 79t4 98t28 88q20 52 24 76t17 71q16 63 16 102q16 63 62 185t59 168q55 182 156 331q14 0 28 -7
t27 -13t16 -22q3 -20 -21 -66q-23 -47 -81 -173t-78 -165q-18 -90 -78 -285q-60 -196 -74 -270q-12 -74 0 -102q84 76 207 261t152 220q18 43 53 87t82 101t128 168q81 110 130 164q-2 19 6 33t6 31q27 4 105 -11l8 -43q13 -12 113 -47t114 -51q-4 -29 24 -65t28 -70z" />
    <glyph glyph-name="Z" unicode="Z" horiz-adv-x="1841" 
d="M1481 178q4 0 16 -2t12 10h-26q-2 -2 -2 -8zM950 1470q49 2 84 31q-10 -4 -40 -11q-30 -6 -44 -20zM1071 1628h-22q-4 -12 8 -12q12 2 14 12zM1051 -145h26q-12 16 -84 13t-73 13q-25 -12 -41 -8q-2 6 2 7t12 1q-6 10 -41 4q-16 -2 -8 -8q-36 15 -142 -7t-143 -11
q-66 -47 -178 -23q-8 0 -8 -8t-8 -12q-41 6 -125 -19t-115 -26q-43 37 -33 57q-31 31 -61 115q-31 84 -30 176t60 125q2 32 27 60t45 40t60 33q65 51 233 233t246 238q-18 14 -100 11t-117 3q-43 51 -25 96q10 -8 80 -18q6 4 2 13t6 14q34 -17 127 -12q94 5 133 1
q40 -4 62 15t110 82t119 90q6 2 14 5t13 3q53 43 172 116t172 113q14 -9 25 4t16 15q-79 -7 -157 -31q-77 -24 -222 -72q-70 -8 -200 -48t-166 -44t-42 -12q-8 -8 -14 -8q-2 8 -8 24t-4 45q-16 2 -30 43q-13 41 -27 80q-13 39 -29 37q0 18 -20 47q-19 29 -9 53
q141 20 516 129q-4 -2 12 -6q18 29 131 23q8 0 5 7q-4 7 -3 11q8 0 38 7t28 -7q11 -5 25 17q41 10 145 24t132 22t32 7q4 -2 2 -8q12 14 63 22t58 25q17 0 28 -12q12 -12 17 -15q-14 -27 -9 -65t16 -96q11 -60 10 -78t-11 -40t-8 -34q-31 -20 -333 -204t-443 -296
q266 -37 407 -31q-27 12 -55 9q43 31 104 -31q39 -35 33 -76q-4 4 -66 4q12 11 -9 15t-70 4q-50 0 -60 2t-11 5t1 7t-2 8q-47 -8 -157 0t-144 -8q-8 -2 -12 7q-9 21 -74 1q-63 -51 -133 -101q-70 -51 -226 -231q-158 -180 -235 -225q-25 -37 -131 -92q434 31 713 35
q6 2 6 -12q81 8 275 -10t280 -17q4 -6 0 -27q20 0 45 14t28 13q14 -29 54 -23q23 -18 35 -124t10 -136q-2 -32 2 -36t10 -5q6 -2 8 -4q-18 -10 -36 -47t-21 -41q-78 -4 -264 23t-283 20q0 19 25 19z" />
    <glyph glyph-name="bracketleft" unicode="[" horiz-adv-x="770" 
d="M150 -6h-9q-104 -4 -110 -5t-11 7l-6 12l-10 10l10 19q-31 43 4 67q-4 246 -6 732t2 596q-4 6 -10 10l10 18q-33 46 1 66q33 20 127 26t279 10t261 1q4 -4 10 -7q25 -25 37 -47l-20 -22q0 -6 10 -5t10 -7q-59 -59 -108 -78q-225 20 -471 20q4 -760 32 -1288
q330 16 500 10q30 -24 47 -55q-14 -14 -20 -23q0 -4 10 -3t10 -9q-55 -55 -108 -78q-248 23 -471 23z" />
    <glyph glyph-name="backslash" unicode="\" horiz-adv-x="743" 
d="M532 125l-4 12q-35 80 -265 708q-231 628 -243 683q-2 4 -12 15t-4 28q22 4 52 -10q30 -13 38 -15q4 0 0 9t4 14q72 -33 109 -76q27 -100 243 -728t252 -699q-18 -23 -20 -31l-23 6q-57 -82 -127 84z" />
    <glyph glyph-name="bracketright" unicode="]" horiz-adv-x="770" 
d="M580 -6q-219 0 -474 -23q-51 23 -106 78q2 14 18 12q-5 10 -18 23q17 31 47 55q168 6 500 -10q29 651 33 1288q-244 0 -474 -20q-47 18 -106 78q0 8 12 8q16 -4 -3 15q-7 7 -9 11q16 29 30 40t17 14q76 4 346 -2t313 -28q42 -23 7 -73l12 -18q-6 -2 -10 -10q2 -90 1 -595
t-5 -733q35 -25 2 -67l12 -19q-8 -6 -13 -16t-10 -14q-12 2 -116 6h-6z" />
    <glyph glyph-name="asciicircum" unicode="^" horiz-adv-x="1253" 
d="M635 1214q105 0 237 -112t216 -279q86 -168 73 -313q8 -8 51 -94q0 -8 -15 -34t3 -44q-76 -43 -166 29q-63 67 -103 161t-54 163q-13 69 -57 122t-108 58q-113 9 -229 -117q-53 -59 -152 -193t-131 -167t-57 -50q-74 -35 -131 -4q18 18 3 44t-15 34q6 12 35 89t61 159
q83 206 204 363q60 79 145 132t190 53z" />
    <glyph glyph-name="underscore" unicode="_" horiz-adv-x="735" 
 />
    <glyph glyph-name="grave" unicode="`" horiz-adv-x="337" 
d="M158 1913v-2q4 -2 10 -8q70 -145 129 -220q-12 -33 -12 -34h-23q-39 -94 -145 59q-4 4 -41 53t-76 109q0 23 10 47q39 19 80 29l4 2q45 -18 62 -35h2z" />
    <glyph glyph-name="a" unicode="a" horiz-adv-x="860" 
d="M180 635h25q31 16 71 60t52 55h-2q4 4 10 9q8 7 60 66q52 60 79 115q-4 2 -12 2q-8 2 -2 12q-84 -23 -164 -98q-96 -96 -117 -221zM958 879q10 5 16 -5t9 -24q-4 -16 -97 -194t-124 -226q-31 -47 -59 -102t-52 -70q-51 -32 -129 -20t-121 49q-27 53 -26 124q0 71 15 126
t41 134t34 117q-121 -147 -201 -241q-49 -53 -69 -60q-88 -20 -145 42q-115 128 41 338q81 110 168 159t157 27q72 -53 108 -58q46 70 152 41t119 -114q2 -10 -5 -28t-4 -33q4 -15 -2 -47t-51 -162q-45 -132 -47 -183q54 44 112 151t81 142t45 67t34 50z" />
    <glyph glyph-name="b" unicode="b" horiz-adv-x="870" 
d="M780 961q4 27 -8 53q-36 21 -82 -25l-24 -24q-10 -9 -32 -25t-29 -26t-20 -38q-13 -30 -57 -88t-118 -182q-4 -16 -31 -84t-23 -108q10 -4 18 4t17 6q22 -29 59 -9t60 23q6 4 3 14t5 17q8 6 21 3t16 11q-4 0 -8 -2t-6 2q6 0 6 4q78 69 144 205t89 269zM838 1069
q72 -80 -25 -344q-6 -18 -18 -63q-13 -44 -19 -58t-18 -24t-16 -18t-8 -24q-3 -15 -5 -20q-27 -43 -78 -94q-125 -111 -217 -109q-10 -1 -41 17t-43 15q-31 -8 -45 -79q-4 -20 -6 -26q-324 -72 -297 168q12 111 90 378l6 7q2 14 13 55q10 41 12 63q8 14 10 29q14 27 27 53v2
q16 16 27 46t44 125t54 147l98 196q91 189 119 229t44 70q33 62 60 60q47 0 100 -12q54 -12 70 -23q37 -23 63 -80t-8 -82q8 -18 -5 -45t-13 -39q-61 -92 -124 -218l-78 -156q-56 -112 -71 -176q-14 -64 -21 -87t-21 -41q-2 -10 0 -22q2 -11 -2 -17t-24 -32t-26 -47
q23 18 65 76t66 84t35 38q96 96 171 90q26 -2 55 -12z" />
    <glyph glyph-name="c" unicode="c" horiz-adv-x="630" 
d="M803 879q4 -5 10 -7t17 -20t1 -42q-9 -24 -77 -124t-72 -133q-18 -23 -53 -69q-127 -167 -196 -203q-106 -56 -176 -53t-136 24q-90 47 -114 194t20 269q6 16 26 57t23 70q25 20 30 20q-8 2 -3 14t3 21q115 158 216 211q240 -8 315 -129q25 -244 -113 -387q-27 -3 -40 10
q-13 14 -19 19q55 172 59 227q-55 -47 -99 -126t-60 -176t26 -186q35 0 79 52q14 18 46 52t138 183q105 150 149 232z" />
    <glyph glyph-name="d" unicode="d" horiz-adv-x="751" 
d="M397 823q2 -12 -6 -23t-8 -16q18 16 28 47q9 31 11 37q-115 -20 -195 -120t-45 -209q4 8 9 0t16 -4q100 88 180 225q2 10 -4 17t-4 18q6 0 8 14t10 14zM307 974q0 -5 2 -7h13q2 0 0 5t-3 9q45 -6 138 -59q10 16 30 71t43 76v45q137 307 250 428q6 0 33 -4t55 -7t58 -21
q29 -17 42 -39t11 -57q-1 -36 -19 -76t-45 -88t-50 -106t-73 -180t-56 -147t-8 -32q-3 -7 -25 -46q-21 -39 -27 -59t-27 -87q-45 -138 -45 -212q98 76 187 214q88 138 145 284q32 4 55 -25q10 0 -50 -128t-147 -279t-145 -197q-10 -31 -10 -35q-115 -74 -207 -80
q-8 6 -47 28t-55 38q-33 109 -31 186q0 8 5 29t3 32t8 19t9 18q-4 9 -2 21t-3 18q-35 -49 -105 -59q-70 -9 -131 21q-60 30 -73 89v3q-4 27 -10 36q72 206 122 258q71 74 159 91q10 2 12 8t6 10q8 -2 8 -7z" />
    <glyph glyph-name="e" unicode="e" horiz-adv-x="870" 
d="M532 768q-77 -41 -134 -146q-19 -38 -46 -104q137 37 180 250zM952 911q4 -4 10 -5q6 -2 16 -22q11 -20 -3 -44t-88 -124q-74 -99 -80 -132q-18 -20 -85 -110t-120 -130q-96 -110 -162 -148t-129 -51q-143 -27 -221 29q-134 95 -70 380q27 116 83 222q55 106 121 170
q66 63 148 50t154 -61t101 -97q20 -176 -74 -275q-6 -6 -25 -15t-40 -37t-35 -36t-119 -31q-49 -154 8 -206h8l6 -5q58 -22 84 23q2 4 11 12l12 6l6 2q237 217 483 635z" />
    <glyph glyph-name="f" unicode="f" horiz-adv-x="768" 
d="M285 508q6 6 41 37t43 78q61 33 61 221q-127 -281 -145 -336zM0 -391q6 0 12 6h6q0 8 2 10t10 20t40 70q33 52 51 125q4 4 6 4q0 2 -4 2v11q69 111 111 273t16 271q-28 -25 -56 -99t-49 -97q-35 -117 -122 -305q0 -6 3 -12t1 -13q-37 -43 -50 -165q-4 -38 -6 -52
q6 -2 11 -18l-2 -15q0 -14 9 -32q3 -5 13 1q-8 8 -10 15h8zM928 885q16 0 23 -13t-4 -44q-11 -32 -17 -48t-6 -22l-4 14q-36 -90 -106 -183q-70 -92 -132 -146t-150 -87q-86 -33 -174 -20q-33 -377 -137 -594q-14 -29 -51 -113t-75 -135q-38 -50 -74 -68t-74 -38
q-165 -87 -256 -15q-45 86 -44 206t25 209q25 89 69 225t56 186h-2q8 10 21 67q8 59 47 164q16 12 24 14q25 82 85 182q61 98 74 124t63 140q49 114 90 165q-2 14 5 32t3 31q49 6 98 -9t73 -29t71 -46q89 -139 35 -333t-187 -250q16 -2 46 -25t48 -25q94 -8 183 46t142 122
q52 68 97 138t55 77q6 25 25 63t35 38z" />
    <glyph glyph-name="g" unicode="g" horiz-adv-x="937" 
d="M414 805q10 0 16 4q0 9 11 23t12 26q-137 16 -225 -70t-89 -241q6 0 8 -8t11 -7q52 19 116 99q-12 4 -19 -7t-11 -12q-4 16 14 28t23 22q-1 -6 -7 -14t5 -11q90 109 108 141q-2 -4 -1 -8t13 9t8 15t-8 -1q5 12 15 12zM-385 -92q33 -16 43 -25q-6 -33 23 -73t67 -39
q8 2 24 10t27 10q10 2 41 3t65 12t101 65q68 55 78 61q16 27 52 81l58 87q56 84 99 197t125 414q-27 -23 -80 -94q-52 -71 -106 -105t-136 -33q-72 29 -58 149t121 224q108 104 236 84q8 -2 48 -20t77 -9q0 8 10 8q2 -4 -4 -4q-2 -10 14 0t21 11q78 0 135 -35t61 -86
q11 -124 -67 -333q-24 -65 -47 -141q-52 -174 -100 -227q-7 -61 -62 -127q-55 -65 -65 -78t-28 -49t-38 -56q-18 -22 -47 -30q-18 -37 -82 -92q-111 -104 -364 -84q-133 12 -189 60q-4 4 -9 19t-11 21t-20 10q-14 5 -19 9q-8 12 -25 55q-16 43 -16 58q2 47 47 92z" />
    <glyph glyph-name="h" unicode="h" horiz-adv-x="956" 
d="M1106 879q6 0 6 -9q-29 -51 -35 -57l-266 -432q-68 -57 -152 -31t-90 116q-6 89 72 246t82 179q-43 4 -157 -138q-26 -32 -40 -48q-8 -39 -58 -101t-70 -104t-40 -116q-22 -74 -27 -98q-13 -64 -43 -76q-30 -13 -109 -16t-113 9q-16 7 -34 29t-32 26q16 94 84 267t84 249
q43 102 173 424t234 528q0 31 3 35q127 14 190 -14q-4 -31 18 -80q-4 -23 -26 -70t-15 -81q-35 -50 -73 -180t-72 -179q0 -55 -30 -116t-34 -81q-42 -163 -71 -217q42 24 87 81q46 56 82 84t72 34t89 -6q39 -60 18 -113q-8 -20 -35 -78t-44 -128t-34 -108q-16 -38 -19 -51
t2 -36t26 -37q49 20 114 109q133 170 264 378q6 6 15 7h4z" />
    <glyph glyph-name="i" unicode="i" horiz-adv-x="704" 
d="M-57 143l-17 93q0 16 6 45t8 43q1 14 -6 41q23 47 21 90t20 102l2 8q-6 -2 -6 2q33 61 52 123q10 10 14 33q90 170 96 178q150 -2 258 -137q2 -56 -35 -140q-36 -84 -62 -198t-13 -184q69 51 137 130t166 213t112 152q-6 4 -6 9l6 26l19 -6q-5 63 35 59q-10 13 -8 21
t16 21q12 13 14 22q6 0 22 -6t31 -4q4 -51 -23 -97q-27 -45 -32 -55q-26 -63 -270 -358t-299 -340q-248 -29 -258 114zM559 1317q0 -4 -2 -19q49 -39 66 -73q-8 -13 -39 -53t-44 -59q-42 -61 -53 -134q-23 6 -81 17q-58 10 -90 18q-30 8 -66 30t-53 54q6 4 17 -3t22 -3
q-9 64 32 143q42 80 51 113q14 0 38 20t32 25q68 -12 162 -45q2 -8 5 -18t3 -13z" />
    <glyph glyph-name="j" unicode="j" horiz-adv-x="360" 
d="M-958 -287l65 6q96 -96 163 -105q99 -13 275 144q66 63 174 236q8 14 22 48t41 68q26 34 32 52q90 209 120 358q6 33 48 160q41 127 38 203q8 -4 31 -1t33 -3q16 25 53 20q37 -6 51 -6q6 -15 36 -31t35 -23t8 -27t25 -50q23 -30 21 -76q-2 -47 -39 -186q-4 -20 -8 -58
t-10 -59q-50 -197 -114 -303t-101 -199q-51 -43 -123 -148t-108 -143q-18 -2 -46 -20t-49 -14q-29 -25 -41 -33q-225 -72 -350 -65t-203 73t-79 182zM438 1421l45 -18q-18 -92 -96 -305q-281 -39 -340 53q20 82 96 211q35 60 73 70t116 0q16 0 51 4t47 0q2 0 1 -3
q-4 -12 7 -12z" />
    <glyph glyph-name="k" unicode="k" horiz-adv-x="1107" 
d="M104 637h5q29 61 87 245t109 265q2 53 55 150q54 97 62 115t19 59q11 39 17 51t38 68q33 56 36 93q36 -4 90 -24t91 -25q22 -22 19 -52q-2 -30 -6 -59q-5 -30 -15 -123q-9 -93 -19 -131t-41 -118t-49 -159q-18 -80 -32 -120t-42 -69q-2 -35 -24 -81t-27 -67q7 6 109 117
t170 150q68 0 84 -11q12 -4 22 -23t19 -26q1 -135 -63 -228t-175 -130q-2 -14 -22 -112q-19 -98 -13 -151q6 -54 51 -81q137 31 311 298t195 390q4 4 4 8q4 17 41 23h17l4 -5q-37 -132 -201 -404q-76 -126 -175 -227t-185 -119t-133 50q-81 115 -13 340q4 8 -4 13t-4 16
q59 2 97 22t75 72q80 113 98 225q-63 -18 -116 -78q-54 -60 -106 -133q-52 -74 -97 -108q-70 -121 -166 -389q-25 0 -65 -14t-58 -15q-20 -2 -55 14l-70 -4q-2 4 -33 25q-2 8 11 8q4 2 6 2q-63 58 -28 183q7 26 25 74q17 48 21 65q10 14 19 46q8 32 19 64t11 35z" />
    <glyph glyph-name="l" unicode="l" horiz-adv-x="593" 
d="M170 127q6 0 8 2q82 27 186 161q103 134 184 289t103 255v14q4 4 4 8q4 16 41 23h15q2 0 6 -5q-19 -84 -115 -280t-196 -326q-12 -20 -21 -41q-27 -25 -79 -85t-87 -94t-97 -64t-134 -31q-4 8 2 9t17 0t24 1q-13 10 -33 8t-31 -14q-9 3 -7 10q3 6 3 10q-75 1 -111 51
t-37 118t1 139q6 6 5 22q-1 17 5 63t-2 64q10 0 10 -18q102 293 149 425q46 132 142 365t182 393q25 47 68 84q135 -29 209 -103t37 -206q-109 -131 -197 -341q-48 -110 -94 -231q-47 -120 -58 -147q-28 -47 -68 -157t-65 -156q0 -8 -3 -62q-7 -132 20 -151q2 0 6 -4
q2 2 8 2z" />
    <glyph glyph-name="m" unicode="m" horiz-adv-x="1409" 
d="M895 908q0 7 3 8t7 -1t6 0t0 13q-27 -4 -63 -51t-55 -58q-39 -59 -121 -175t-121 -175q-4 -12 2 -18t6 -13l-14 -20q-12 -20 -23 -29q-23 -4 -41 9t-26 16q-13 49 -13 111t18 162t23 142q-193 -228 -253 -368q-59 -140 -68 -299q-188 -35 -301 10q-31 74 -14 134
q18 60 24 76q5 16 19 51q14 36 32 69t20 52q1 20 21 28q-23 9 23 101q12 26 16 40q35 66 27 117q66 176 100 260q27 -20 124 -49t120 -74q-17 -103 -60 -199q-43 -97 -55 -127q35 33 114 148t134 157q70 0 92 -18q13 -71 -28 -258q-11 -55 -17 -84q25 13 43 52t40 66t66 70
q78 143 189 197q23 -11 91 -25t89 -32q20 -18 43 -117t4 -152q-49 -84 -107 -260q-57 -175 -67 -197t-10 -26q25 -6 35 16l327 404q8 14 24 36t40 61q25 38 40 61q15 22 21 32t22 35t17 39q2 14 4 20t2 17q4 4 6 13q4 18 56 18l4 -4q-27 -98 -156 -322t-256 -346l-16 -16
q-29 -62 -40 -74q-10 -12 -24 -22t-27 -26t-59 -40t-63 -35q-107 -7 -198 43q-39 21 -77 45q10 119 83 290q26 58 112 238t98 248q2 8 -6 3t-8 2z" />
    <glyph glyph-name="n" unicode="n" horiz-adv-x="763" 
d="M872 879q31 -41 -16 -121q-68 -76 -196 -332q-40 -82 -86 -159q-98 -163 -232 -144q-50 7 -45 37q2 12 11 42t11 52q8 78 78 225t80 183q-38 -6 -60 -33q-23 -26 -42 -45q-150 -168 -248 -316q-23 -53 -35 -105t-22 -87q4 -8 6 -16t8 -15q-157 -45 -254 -1q-56 26 -66 77
t6 123t27 67q4 -2 9 6t12 29q33 61 28 135q8 19 30 53t33 54t44 119q14 14 12 23t4 15q2 8 -2 17q6 12 30 49t27 46t6 36t19 35q21 3 71 -24q11 -5 17 4t12 5t-4 -10q43 -33 160 -84q-2 -2 -10 -23t18 -30q-16 -39 -59 -130t-64 -140q32 39 88 88q56 48 80 72l36 37
q83 83 154 39q38 -24 42 -62t-40 -122t-49 -102t-6 -32t-3 -23v-2q-8 -27 -62 -188q20 -16 34 -8t20 18q5 10 15 32q9 22 33 47q24 26 172 294q150 268 168 295z" />
    <glyph glyph-name="o" unicode="o" horiz-adv-x="626" 
d="M174 348q10 -47 62 -4q88 76 139 270q6 23 10 48q-45 10 -83 49t-44 45q-59 -68 -85 -180t1 -228zM381 745q-7 53 -25 77t-53 -13q39 -48 78 -64zM743 874q0 -4 7 -25q0 -3 -5 -11q-53 -78 -125 -137q-73 -58 -145 -58q-12 -27 -26 -93q-13 -66 -23 -86t-14 -36t-6 -20
t-16 -14t-30 -36q-14 -26 -57 -68t-92 -58q-49 -17 -72 -17l-49 10q8 0 -1 2t-38 9q-133 23 -149 153q-13 99 8 273q2 18 4 26l26 48q39 66 65 93q135 137 307 83q42 -11 114 -38q39 -53 49 -178q67 0 198 134q46 48 55 52t17 -3q-2 -1 -2 -5z" />
    <glyph glyph-name="p" unicode="p" horiz-adv-x="856" 
d="M479 429q53 79 82 153t41 188q-6 0 -12 6t-17 4q-5 -8 -31 -34t-35 -34q-23 -19 -85 -93q-95 -114 -133 -228q12 -2 37 -30q24 -27 62 -19t91 87zM297 367q-8 -12 4 -17q12 0 14 12q0 5 -18 5zM754 799q25 -74 1 -177t-83 -143q-45 -135 -193 -250q-141 -14 -223 78
q-24 -23 -50 -89t-46 -87q0 6 4 11t2 14q-18 -33 -33 -133q-25 -27 -35 -113q-29 -56 -78 -194t-69 -181q2 -14 -7 -38t-5 -44q0 -16 -23 -16q2 -13 4 -21t-6 -22t-12 -22t-14 -20q-10 -13 -15 -18q-51 -22 -151 -8t-119 62q-4 10 -3 37t-10 32q2 7 14 55t27 64
q23 158 90 303q12 27 50 108t80 221q43 140 60 162t24 42t27 91q19 71 38 107q16 23 16 45l-2 2q14 49 56 133t57 128q104 20 229 -64q8 -59 3 -86t-20 -81t-20 -89q23 20 81 98t112 117t127 35q72 -4 115 -49z" />
    <glyph glyph-name="q" unicode="q" horiz-adv-x="1042" 
d="M23 649v-12q4 -2 5 2t-1 6v2zM1124 731l-8 -8q4 2 6 -2v2l-2 2l2 2q6 2 2 4zM137 492q43 29 150 157q6 0 8 2v13q16 4 31 28q14 25 18 29h2l2 -2q8 9 46 41t24 40t-68 3q-2 -4 2 -7t2 -8l-80 -4q-10 -4 -28 -21t-35 -22q0 -12 -14 -22t-15 -25q-8 -2 -14 -15t-12 -15
q-2 -12 -10 -30t-5 -34q-23 -82 -4 -108zM740 27q3 0 5 -2q-14 -2 -26 -27q-47 -74 -60 -88q-25 -80 -59 -119q-6 -23 -29 -57t-28 -47l-8 -2q0 -12 -5 -33q4 6 5 0l2 -14q-7 -8 -21 -34t-27 -32q-2 -23 -20 -33q-4 -14 0 -16q-6 -9 -38 -17t-30 -26q-4 -4 -10 2
q-55 -33 -112 -47q-3 0 -13 -15q-37 4 -51 -8q-6 -18 -8 -20q-6 0 -6 12q-14 4 -42 -1t-42 -3t-40 16t-36 19l4 14h-6q-2 0 -1 -4t-3 -4l-6 10q8 18 8 39q18 30 25 96t24 109t35 86q45 127 49 153q10 10 14 41q10 7 10 23t13 22q0 2 -4 7t12 20q0 14 6 14q1 17 15 49t28 84
t33 82q-4 8 -4 13q8 2 12 13t0 15q6 21 29 71t31 81q4 -8 10 2l-6 2q0 1 10 41q2 0 4 4t6 2q0 2 -3 2h-5q2 6 18 27q-2 4 -4 2q0 12 11 18q2 12 17 44t9 46l-45 -38v-5q0 -2 -6 -6t-11 -20q-6 -16 -12 -22t-6 1q0 -23 -30 -30q-2 -5 0 -7t2 -4q-8 -6 -26 -26t-30 -25
q-2 -2 -5 -9t-11 -7q-4 -8 -6 -10q-2 0 -2 6q-14 -24 -45 -40q-32 -17 -35 -22q-8 2 -55 11t-76 32l-4 19q-10 12 -14 42q-3 30 -11 42v12q0 2 -4 4q8 2 8 15t6 16q-12 23 9 43h-3q-4 2 -4 4q6 55 35 84l-2 -8q4 -2 4 2t2 5t-1 3t-1 5t4 3q6 18 15 23q29 57 82 104h8l20 18
q8 0 11 -2q4 8 6 11q109 33 135 -9q6 4 21 -3t26 -3q6 -6 47 -10t41 -8q23 10 25 16q4 2 24 19t37 10q49 10 115 -43q31 -25 56 -40t67 -73q-2 -4 -2 -11t-7 -9q4 -25 9 -29q-1 -6 -9 -26t-6 -29q-2 2 -4 0t-4 -2q0 -18 -6 -23q29 -37 -2 -73q0 -2 6 -2q-4 -8 -14 -42
t-27 -51q0 -4 3 -2t3 0q-12 -27 -21 -78q-12 -67 -29 -93q-18 -26 -54 -185q31 35 30 51l17 10q2 -1 2 5v8q6 2 16 24q2 0 2 -1t2 -1q10 12 26 32t24 32h-3q6 27 25 37q2 26 44 56q-1 -1 -5 2t8 11h6q-2 8 4 16t15 7q2 6 2 14q8 6 26 32t33 30l2 6q2 8 4 6l15 24
q36 28 76 80q39 52 53 68l6 16q14 7 18 23h4l2 -2q0 8 16 24q15 16 11 29q14 12 25 35l24 16q1 -1 -4 -6q27 12 51 43q6 0 17 6q-5 3 4 19q10 2 28 0t25 14q43 -10 49 -16q-31 -47 -88 -97q-21 -47 -79 -117t-81 -110q-10 -2 -14 -18q-10 -14 -46 -53t-44 -56
q-7 -15 -21 -33t-16 -33q-18 -23 -76 -105t-96 -126q-2 -29 -31 -57q0 -2 3 -2z" />
    <glyph glyph-name="r" unicode="r" horiz-adv-x="856" 
d="M645 662q0 -16 -5 -34q-4 -18 -64 -119q-293 -497 -236 -550q37 41 115 111t140 127t145 169t149 248q-4 35 14 82t21 56q23 -6 34 -17l7 -24q14 -45 12 -60q-29 -43 -53 -129t-36 -106q-11 -20 -16 -33q-12 -43 -215 -232t-249 -255q-29 -37 -99 -38q-71 -2 -139 24
t-120 69t-50 73t35 113q61 166 192 391q12 20 44 69t30 58q-8 29 -99 44t-102 46q-37 111 -8 246t96 187q18 -8 64 -20t77 -28q30 -16 42 -45q2 -45 -34 -130t-26 -146q47 -61 197 -64q53 0 95 -19t42 -64z" />
    <glyph glyph-name="s" unicode="s" horiz-adv-x="714" 
d="M92 172q-2 0 -6 3t-8 1q-285 -219 -234 -452q4 -4 18 -2t16 2q4 -2 16 4t14 6t15 8t15 9t16 11q13 10 17 11q3 1 17 33t17 37t27 63t28 79t18 69q14 49 14 118zM25 692q0 36 -5 45q-20 178 121 334q50 7 100 -32q24 -17 40 -23q-13 -16 -9 -22t16 -20q12 -12 15 -26
q2 -14 -6 -53t-8 -59q4 -160 26 -228q3 -10 23 -52t20 -81q80 23 194 110t226 183t162 125q4 -5 3 -27t-83 -108t-220 -195t-259 -166q6 -45 23 -119q18 -74 28 -127q28 -137 -22 -249q-2 -6 -12 -16t-11 -17q-2 -6 -6 -59t-35 -76q2 -26 -10 -52t-24 -38t-41 -36
q-28 -24 -35 -32q-98 -41 -207 -41t-197 47q-16 10 -46 39t-50 35l4 39q-23 23 -26 78q-4 55 4 79t23 55q15 32 9 48q14 -14 14 8q0 6 -2 12q31 29 91 103q59 74 113 119t124 67q-4 41 -38 161t-19 208q-8 0 -13 -2q5 25 5 61z" />
    <glyph glyph-name="t" unicode="t" horiz-adv-x="716" 
d="M18 756q-6 0 -6 4q6 10 19 60q12 50 32 63q-4 41 32 125t40 96q-53 2 -186 -4t-193 0q-45 55 -49 63q334 0 459 29q26 76 92 228q78 177 92 232q15 55 39 81q256 -33 246 -172q-4 -43 -57 -158t-52 -180q50 -8 100 -3q140 14 179 -32q8 -2 30 3t23 -3q-56 -63 -227 -47
q-63 6 -129 -2q-84 -240 -117 -482q-14 -86 -70 -231t-75 -236q25 12 71 74q33 39 93 131q60 91 108 147t274 355q16 -2 25 -31q66 25 70 25q-39 -78 -207 -310t-180 -253q-104 -158 -281 -330q-137 -137 -317 -51q-61 29 -76 65q-12 51 -8 82t18 87t16 87q14 -14 4 -60
t-6 -58l43 167q-6 4 -11 -3t-10 -19t-9 -16q47 211 131 333q14 23 18 88h2q-2 10 10 20t13 25q4 8 -1 10q-6 1 -12 1z" />
    <glyph glyph-name="u" unicode="u" horiz-adv-x="802" 
d="M290 147q-75 0 -106 35q6 14 -5 38q-26 56 -8 158q17 103 46 148q-8 12 -2 49q-31 -61 -123 -75t-123 55q-26 44 -5 128t59 143t63 96t35 55q55 -18 78 -49q-11 -18 -59 -100t-66 -135q-18 -54 -15 -118q4 0 17 -5t33 5q5 7 9 21q5 14 9 22q31 18 75 68t70 70q8 26 38 66
t38 73q26 15 82 78q52 -1 104 -21q79 -29 44 -89q-22 -37 -26 -64q-5 -27 -12 -45q-6 -18 -16 -60q-10 -41 -43 -120q-33 -78 -39 -110t-7 -81t-7 -74q28 -2 52 22t36 27q31 51 169 245t198 292q5 -10 27 -13t10 -32q-54 -133 -235 -366q-52 -67 -89 -106t-117 -142
q-39 -16 -69 -64q-45 -25 -120 -25z" />
    <glyph glyph-name="v" unicode="v" horiz-adv-x="606" 
d="M324 860q35 -45 77 -63q-6 53 -24 77t-53 -14zM723 881q0 -5 3 -19t-1 -16q-51 -74 -104 -113t-125 -39q-4 -4 -27 2q-147 -408 -393 -655q-7 -7 -25 -16q-73 18 -104 32q-6 10 -18 36q-11 26 -21 38t-31 21q0 6 7 10t4 12t-6 1t-9 1q18 55 29 186q10 131 30 197
q-2 0 -6 -2h-2q4 12 7 36t5 36q2 13 42 81q39 68 96 191q43 -12 55 -33q31 10 57 -3t31 -40q-119 -227 -123 -614l4 -4q-10 -33 -12 -41t-4 -10h2q23 -2 33 16l157 254q2 4 11 18l12 21q78 129 125 242q-60 22 -72 30t-38 36t-33 34l-11 -12q6 104 61 125q17 6 40 11t32 9
q7 -2 23 -8t22 -8q33 -51 48 -162q0 -10 2 -14q66 0 166 100q37 37 49 43q8 -4 14 -4q-2 -2 -2 -6z" />
    <glyph glyph-name="w" unicode="w" horiz-adv-x="1048" 
d="M-117 279l4 29q0 12 -10 9q-4 -32 6 -38zM736 913q20 0 28 -2q10 -2 16 7q18 -6 50 -10t47 -19q18 -27 10 -90l-15 -105t33 -71q117 66 201 264q49 4 65 4q-33 -86 -89 -177t-111 -130q-23 -14 -55 -22t-50 1l-11 -11q-1 -1 -19 7q-23 -55 -131 -172q-49 -53 -91 -59
q-135 -16 -186 178q12 24 11 28t-3 15q-26 -17 -54 -65t-44 -62q-34 -100 -157 -211q-60 -55 -83 -80q-98 -41 -156 -7t-75 120q8 8 3 50t-5 54q10 -10 14 -10q50 244 109 369q-19 -11 -36 -59t-24 -60q6 45 45 129t50 123q-1 6 -7 -4t-14 -7q4 12 21 35q16 23 20 39
q18 0 47 12t47 13q29 -10 80 -39t82 -39q-12 -45 -52 -123t-52 -129q0 -16 -17 -14q0 -8 6 -14t2 -15q-51 -111 -82 -287q67 50 227 328q85 147 138 219q2 8 23 49q39 -6 65 15l33 -21q-4 -28 -22 -100t-29 -121q-28 -136 22 -197q-14 4 -16 -4q35 -4 66 50q15 26 24 34
q-8 31 33 88q4 31 20 116t20 117q3 31 -3 43t-3 23q14 6 34 6z" />
    <glyph glyph-name="x" unicode="x" horiz-adv-x="614" 
d="M99 899q81 0 128 -10q10 -29 45 -102t39 -138q15 -15 19 0q10 -6 8 -9t-8 -11t-4 -15q23 25 14 45q6 -6 14 -6v25h17q37 61 128 182t132 193q8 2 25 11t28 13q0 -35 -32 -85t-49 -81t-49 -64t-50 -55t-48 -85t-41 -80t-40 -45t-39 -52q16 -45 61 -193t97 -243
q20 2 42 -15t31 -40q-9 -5 -20 3q-10 7 -15 7q2 -6 14 -26q12 -19 13 -27q0 -8 -2 -35q-36 -9 -107 -50q-71 -35 -135 -13q-92 178 -141 442q-36 -20 -102 -106t-111 -111q-63 -25 -97 -23t-104 19q27 33 127 33q7 6 21 12t22 12t7 17q18 -7 32 19t23 19q2 6 -10 11
q27 9 73 61t60 66q-1 10 -11 1t-10 -1q-2 8 6 11t9 9l6 -16q8 -2 13 7t11 9q-8 57 -39 189t-41 204l-18 25q4 53 -31 67q4 12 0 25h89z" />
    <glyph glyph-name="y" unicode="y" horiz-adv-x="745" 
d="M-352 -293q-10 0 -20 -1t-21 1q158 4 221 33q10 2 14 24q115 70 207 186t139 253q12 6 24 34q11 28 21 35q13 50 53 152t50 172q-14 -6 -57 -52t-78 -57q-80 -8 -126 15q-46 22 -53 66q-16 97 24 183q61 131 116 218q39 14 88 -4q10 -27 -14 -60q-25 -32 -31 -43
q-111 -240 -41 -325q25 6 31 18t8 37q6 2 7 -2t1 -15q27 14 18 35q6 -6 27 6q4 6 63 74t82 113q2 29 18 81q15 52 30 60q63 39 147 9t90 -90q6 -61 -13 -167t-40 -149q-13 -49 -27 -153t-30 -144q-16 -41 -50 -94q-33 -53 -43 -81q-10 -29 -16 -40q-141 -236 -244 -314
q-69 -51 -193 -100t-216 -61t-185 3q-92 15 -145 46q-4 2 -4 10q-2 10 -15 -2q0 2 -14 31q-8 0 -21 7t-28 3q18 24 14 50t0 38q49 25 120 -17t124 -28q-2 6 -12 6z" />
    <glyph glyph-name="z" unicode="z" horiz-adv-x="968" 
d="M41 -197q68 29 110 94q13 19 17 25t16 26t17 27q47 80 43 162q0 6 -8 6q-182 -121 -250 -217q-92 -133 -47 -186q27 -6 61 17t41 46zM143 924q0 2 -6 6t-2 14q31 2 53 22t21 46q23 10 90 45t131 39t127 -16q139 -43 122 -171t-99 -250q-8 -6 -31 -6q-8 -2 -5 -12t1 -16
q-63 -39 -154 -133q16 -18 56 -42t55 -36q76 59 263 229t214 217q14 2 48 20t65 5q-2 -27 -4 -34t-8 -3q-5 4 -11 10t-24 -1t-84 -107q-67 -100 -89 -124t-52 -44q-37 -25 -100 -86q-96 -93 -167 -131q5 -22 19 -59t27 -92t2 -107t-16 -100q-5 -47 -15 -81t-48 -107
q-39 -73 -45 -89q-10 -8 -52 -54q-41 -46 -65 -60q-24 -15 -56 -40t-51 -38q-53 -36 -128 -25q-9 2 -29 14t-30 16q-170 70 -205 103q-4 4 -17 23t-37 22q-4 66 19 113q24 48 52 88q28 39 32 45q119 178 334 294q-8 47 -39 91t-49 59q-18 16 -83 59t-71 47l12 21q0 2 -2 12
q29 10 39 35q59 4 105 39q92 70 227 291q29 47 38 78t3 69q-84 -10 -140 -63t-114 -148q-2 -2 -18 -5t-15 -19q-14 2 -29 19t-32 20q4 14 25 34q22 20 16 43q8 -1 15 5t11 6z" />
    <glyph glyph-name="braceleft" unicode="{" horiz-adv-x="964" 
d="M98 431q70 113 82 210q-12 39 -43 64t-74 49t-63 41q2 10 12 8t19 2q0 10 -16 15q-15 5 -15 16q18 12 57 13t71 8t79 63q47 55 61 69q18 59 70 127v23q18 18 40 84t52 82q4 53 50 119t52 92q25 6 50 43t51 40q2 7 -6 11t-9 12q23 6 55 24t48 23q4 6 -4 10q-8 0 -4 9
q17 -6 41 3t24 19q8 8 20 -7t25 -15q14 0 23 4t25 -7q16 -12 30 -23t17 -13q-8 -27 6 -54l-45 4q-66 -20 -108 -77q-42 -58 -58 -118q-47 -179 -111 -249q6 -37 -39 -100q-29 -106 -99 -174t-169 -68q2 -10 18 -16t21 -11q59 -95 40 -173q-8 -28 -28 -85t-31 -94
q-105 -132 -119 -317q-7 -94 44 -162q12 -2 21 3t15 5q2 -17 -10 -33t-12 -18q-45 -4 -75 7q-31 11 -65 46t-40 39q-2 8 -22 72q-23 74 -23 158q-1 84 69 197z" />
    <glyph glyph-name="bar" unicode="|" horiz-adv-x="223" 
d="M33 35q-23 0 -33 -2q8 15 7 47t-1 60t-6 40v2q29 559 33 1276h-4q0 104 4 135q100 -6 134 -24t-1 -68l12 -18q-6 -4 -10 -10q4 -106 2 -594t-6 -734q35 -25 2 -67l12 -19l-18 -22q0 -4 -4 -8q-12 2 -117 6h-6z" />
    <glyph glyph-name="braceright" unicode="}" horiz-adv-x="964" 
d="M145 1710q0 -10 24 -19t42 -3q2 -6 -4 -9t-4 -10q14 -6 47 -23t53 -24q2 -8 -7 -11t-7 -12q29 -5 55 -41t47 -42q6 -27 52 -93t49 -118q30 -16 52 -82t40 -84v-23q51 -66 71 -127q12 -12 42 -48q64 -76 120 -89q8 -2 48 -3t59 -13q0 -10 -16 -16t-15 -15q7 -6 19 0
t12 -10q-6 -7 -86 -55t-95 -99q9 -95 69 -193t77 -180q2 -39 7 -65t-19 -105q-23 -80 -27 -94q-10 -6 -44 -39t-63 -45t-73 -8q-2 4 -14 16t-9 35q5 0 15 -5t20 -3q51 68 44 162q-13 175 -118 317q-10 37 -31 94q-22 57 -29 85q-19 78 40 173q4 4 21 10t20 17
q-102 0 -171 68t-98 174q-45 59 -38 100q-66 73 -113 249q-16 60 -58 118t-108 77q-8 0 -20 -3t-23 -1q10 31 4 54q4 2 13 10t24 18t21 10q6 1 20 4t22 -3q8 0 20 15t21 7z" />
    <glyph glyph-name="asciitilde" unicode="~" horiz-adv-x="786" 
d="M653 549q-35 -16 -41 -23q-33 -20 -75 -18h-15q-72 -14 -142 32q-141 92 -235 56q-59 -22 -112 -46q-20 -9 -31 5q-14 10 -6 35q33 86 98 110q8 4 25 15h4q51 22 119 27q67 6 100 -22t137 -83q66 -37 123 0l35 14q48 19 72 49q12 12 16 8t14 -18t-18 -69q-27 -56 -68 -72
z" />
    <glyph glyph-name="exclamdown" unicode="&#xa1;" horiz-adv-x="704" 
d="M516 1081q0 -70 16 -92q0 -6 10 -3t13 3q-6 -96 -61 -260q4 -31 -16 -88t-19 -82q-9 -6 -15 -35t-20 -32q-12 -90 -53 -140q-2 -35 -30 -89t-32 -67t-12 -52t-27 -56q4 -6 4 -27q-11 3 -13 -3q-3 -5 -5 -5q-12 -45 -47 -117t-45 -98q17 4 22 14q6 9 9 12q2 3 6 14t6 16
q8 -2 -4 -25q-37 -100 -82 -168q-61 4 -130 77t-91 85q8 86 53 88q14 31 54 88t56 92q6 41 32 108t34 99q6 2 12 9t11 9q14 50 66 150t60 138t12 101q5 63 36 103q4 36 21 106t20 115q2 0 12 4t8 12t-4 7l-12 -2q37 45 145 -9zM420 1421q33 0 54 81q20 81 46 106q-2 16 5 36
t7 33q10 -21 30 -10q19 10 24 10q23 -39 61 -49q31 -104 -10 -219t-43 -166q-57 15 -87 27t-67 38t-53 60q11 53 33 53z" />
    <glyph glyph-name="cent" unicode="&#xa2;" horiz-adv-x="964" 
d="M115 373q-4 53 -15 92q-22 -31 15 -92zM111 551l4 26q0 9 -11 9q2 -6 0 -20t7 -15zM724 1286h-11q51 -31 77 -115t-14 -159q-10 -20 -23 -47t-17 -36t-6 -23q-1 -14 -4 -19q-3 -4 -14 -10t-14 -9q-2 -4 1 -14t-1 -14q-18 -27 -50 -40t-64 -1q63 98 88 305
q-60 -14 -104 -50t-92 -94t-73 -83q-49 -90 -79 -159q-30 -68 -52 -176q-20 -108 -4 -206q6 -6 20 -28t29 -23q15 -2 17 0t4 2q-2 6 -10 2t-13 2q1 6 13 5t14 -5q127 80 164 155q47 20 88 109q37 6 47 4q-2 -20 10 -27q-90 -215 -344 -335q0 -9 8 -19t7 -22
q-44 -60 -94 -206t-87 -208l-30 4q-20 55 -13 90q8 35 24 94q15 59 13 99q4 2 8 10t11 8q-8 29 9 69t17 62q-12 8 -54 28t-60 40q-53 61 -62 170q-13 179 66 383q109 270 282 424q35 12 77 56t87 70t105 9q92 147 139 436q106 6 164 -41q-8 -23 -31 -109t-62 -126
q-6 -72 -44 -136q-38 -65 -48 -88q-6 -8 -15 -8z" />
    <glyph glyph-name="sterling" unicode="&#xa3;" horiz-adv-x="1101" 
d="M825 1442q-18 16 -22 -2q2 0 9 1t13 1zM14 635l-37 8l-8 27q6 0 6 6h-4q-10 -8 -10 4q0 4 -12 8q-55 18 -55 64q-4 12 -9 20q63 21 162 21h47q58 4 78 6t23 14q12 57 18 77t12 42q5 23 9 30t13 34t29 65q20 39 33 68q11 28 17 37t38 65t49 71t26 22t15 16t28 23
q23 14 24 25q2 11 15 20q13 8 49 34q80 56 108 57q20 7 24 17t11 10q14 -6 20 -11t33 -10q63 -4 96 -24q63 -43 72 -47q15 -17 31 -17l20 -20q31 -39 27 -53t0 -27v-8q-4 -25 -2 -55t-3 -42t3 -16t-8 -26t-20 -32q-3 -11 -18 -33t-30 -28l-14 -14q-15 -15 -76 2q-6 4 -10 14
l-3 2q9 9 19 21t23 24t15 18t15 33q14 28 13 41t5 48t-14 86q-9 20 -32 20h-27q-12 2 -49 -12q-77 -43 -135 -109q-25 -25 -29 -45q-6 -10 -17 -21q-10 -11 -14 -25t-10 -24t-11 -20t-9 -15t-20 -40q-14 -35 -19 -53t-20 -65q-15 -46 -15 -52q0 -5 -10 -33t-11 -41h15
q49 6 90 -2q39 0 43 2h24l4 8q17 -10 38 -3t31 9t28 -12q16 -14 22 -22h2q-2 -3 2 -15t0 -18t-5 -20t-14 -27t-21 -23t-36 -10l-24 -2q0 2 -11 0t-15 -2t-15 4t-25 1t-26 -1h-35q-45 -4 -66 -4q0 6 -9 6t-13 -10q-18 -68 -14 -111l-3 -43q0 -20 -6 -31t6 -36q-2 -6 5 -27
q4 -31 -15 -43q-2 -2 0 -6l-6 -45l-12 -10q12 -16 4 -24t-12 -15q0 -43 -6 -51t-22 -40q-14 -32 -24 -48q-33 -57 -18 -58q25 -10 55 -18q29 -8 48 -15t65 -16q47 -10 78 -13t35 2t25 4t50 22q35 29 53 35q17 6 17 17v5q20 17 28 41t3 75q0 78 -49 115q6 6 6 10l2 2l55 6
l31 2l67 -12q47 -10 84 -57q56 -59 66 -150q6 -37 -23 -75q-14 -23 -47 -64q-14 -25 -30 -41t-19 -27q-4 -11 -22 -22l-25 -18q-25 -16 -43 -30t-62 -30q-45 -14 -51 -14h-2q-12 -6 -37 -9t-36 -10h-27q-25 -4 -42 -2t-63 2q-69 10 -112 31q-42 14 -65 27t-35 18
q-12 6 -29 19q-39 20 -39 22q0 3 -29 25h-2q-15 -6 -35 2t-32 12v2q-12 4 -26 4t-25 9t-31 14q-28 13 -57 17q-29 3 -43 6t-46 -1q-31 -4 -39 13q-12 16 -18 22q-4 11 3 21t13 26l-2 2q10 8 35 20t36 28t29 39t33 57t17 37t2 6q14 14 20 31t21 42q14 26 16 40t18 46t17 54
l12 49q10 25 9 31q0 6 2 28q2 23 4 30t-6 11t-11 0q-4 -4 -8 2q-10 6 -35 0t-35 -2q-25 -8 -43 -8z" />
    <glyph glyph-name="currency" unicode="&#xa4;" horiz-adv-x="1165" 
d="M559 498q66 43 124 125q110 155 88 273q-11 58 -46 93q-133 2 -199 -84t-108 -237q-10 -2 -14 -22t-17 -21q0 -10 -1 -35q-3 -84 24 -111q-2 -4 -6 -2t-9 2q16 -31 44 -34q27 -3 49 9t44 26q22 16 27 18zM821 229l-20 -22q-9 0 -23 12t-30 10q-12 37 -48 89
q-35 52 -45 77q-29 -6 -65 -41t-68 -41q-8 -4 -12 4t-8 9q-70 -18 -145 -6t-115 49q-147 -137 -176 -158q-12 4 -30 18t-36 17q0 8 10 16t8 21q61 23 193 127q-78 170 -23 370t191 285q-106 182 -168 250q6 4 31 8q2 11 -10 27t-9 22q68 6 107 -37q38 -43 68 -109t63 -91
q31 20 92 -9t80 -30q8 0 0 5t0 7q72 -4 88 -49q18 0 48 -5t45 -7t38 8q0 10 -5 17t1 13q53 23 134 103t142 100q-28 -72 -112 -167t-103 -124q41 -98 4 -180q-2 -6 -12 -16t-12 -19q-23 -72 -160 -303q63 -106 92 -250z" />
    <glyph glyph-name="yen" unicode="&#xa5;" horiz-adv-x="1347" 
d="M262 84q-3 0 -10 -14v-4q10 4 10 8v10zM494 1200q-12 -12 -15 -18q4 0 17 4q0 2 -1 6t-1 8zM799 586q-2 -2 -2 -4q20 -4 34 10q-7 -2 -32 -6zM487 1225v-4h5q4 16 14 149h-4l-6 -22l-7 -62v-57q-2 -2 -2 -4zM918 768l-125 -10q-17 0 -37 -4t-42 -6t-32 -5q-23 -4 -16 -16
q2 -17 -33 -109q-6 -10 6 -10q105 15 154 15q57 6 69 2q25 -14 27 -27l2 -2h-12v-4q12 -12 39 -33q-4 -2 -5 -4h-6q-9 0 -57 -16q-2 8 -19 3t-30 -5h-35q-20 0 -37 -2t-61 -7l-68 -12q-14 0 -14 -14l-8 -27q-6 -23 -14 -34t-9 -23q-2 -12 -9 -21q-7 -10 -7 -16q-1 -7 -7 -25
t-8 -26t-12 -26t-19 -55q-17 -70 -32 -118l-6 -25l-15 -22q0 -2 3 -5t9 0t32 -8t30 -28q0 -10 -12 -18t-15 -21q0 -10 -12 -10l-108 -4h-39q-16 0 -41 -4l-60 -2h-63q-35 0 -53 -2q-25 6 -35 -7l-8 -4q-2 0 -2 4v5q0 18 -25 11t-23 19l-8 15q0 2 -4 10l29 2q20 6 25 11t12 5
q16 -8 82 2q8 3 11 15t9 30t12 29q35 58 37 92l25 60l10 34q2 16 13 44t13 40t20 53q17 41 -5 42q-51 0 -139 -15h-31q-37 -4 -56 -7t-32 -5q2 4 2 14l-6 15q-2 0 -6 10q0 10 -4 16t0 22t22 23l2 -2h2q4 -4 7 -9q2 -5 6 -9q10 -11 106 2t154 18q18 2 26 27l8 27l13 61l2 2
q0 6 4 6q4 11 -2 13q-6 1 -15 1t-16 3l-61 10h-17q-60 -6 -83 -6t-31 -2l-48 -13q0 2 -4 10t0 21q6 14 -6 41q18 14 30 4t57 -4q44 6 188 6q23 0 20 21v51q0 20 4 41t0 64t-3 81t1 70q4 23 8 67l-2 35q2 12 2 68v64v26q0 18 5 63q0 10 -11 11q-9 0 -31 2t-34 0t-32 -1t-24 1
h-8q-2 0 -4 -2q-23 -8 -35 20q-2 6 -5 18t-5 17q9 -6 23 1t19 2t25 -2t40 3h40l132 12q39 -2 94 11h6q31 0 59 8h13q52 6 68 5t40 -9t31 -26q8 -18 -18 -32q-26 -15 -68 -20q-31 -8 -31 -37q-2 -12 -4 -35t-4 -35l-12 -98q-2 -12 -11 -51q0 -20 -5 -39t-3 -28t-4 -64
q6 -23 4 -29v-88l6 -27l2 -28q2 -1 -3 -9t-5 -18t8 -10l5 4q38 63 53 84q15 20 67 84q47 65 72 105t47 72q23 32 36 51q13 18 16 24t5 9t7 10q6 7 14 19t52 74t32 62q-37 8 -45 6q-8 16 -6 20t3 10t0 9q-1 4 -3 10t-2 10q28 -14 63 -14l68 6l16 -2l78 2q46 -9 53 -15
q6 -5 17 -18q-2 -2 -2 -4q-59 -19 -69 -26t-27 -5q-17 3 -21 3l-29 2q-16 4 -20 -15q-29 -55 -80 -122t-66 -89q-14 -22 -28 -39q-31 -38 -53 -71t-53 -73q-42 -52 -55 -74t-30 -39q-5 -20 -19 -35t-16 -15t-6 -11t-11 -19t-9 -13q-2 -4 -7 -9t-1 -9t10 -4l88 -2l90 2h6
q15 8 30 -2t19 -10t29 -15q-33 -8 -59 -8z" />
    <glyph glyph-name="brokenbar" unicode="&#xa6;" horiz-adv-x="282" 
d="M147 760q6 0 13 -12q14 -16 24 -46q12 -451 -2 -475q2 -19 10 -137t17 -153q52 -4 24 -89q-55 -32 -66 -11t-77 16q-27 74 -27 165q0 2 -5 14t8 13q0 -39 9 -46t15 -9q0 30 -15 100t-12 115q-2 0 -4 6t-12 2q4 18 12 27q-13 16 -8 55q4 39 4 51q-14 59 -14 340l16 49v4
q2 2 4 7q14 34 72 24l2 -2q2 0 7 -3t5 -5zM63 944q0 2 -1 2t-13 25q0 10 -6 22q8 424 23 494l-11 112q0 25 11 64q16 0 20 2q16 16 30 53q13 37 17 43q35 19 35 2q0 -25 14 -51q-6 -2 -13 2t-7 -8q-2 -8 7 -11t9 -5l-20 -140q21 -50 6 -147q-4 -25 -5 -34t13 -345
q-2 -2 -2 -10v-17q0 -6 -4 -18q-24 -35 -60 -47h-18l-2 2h-4q-2 0 -4 2h-2z" />
    <glyph glyph-name="section" unicode="&#xa7;" horiz-adv-x="1122" 
d="M664 485q8 -4 17 -10t99 -51v-4l31 -37q94 39 94 53l15 86q0 30 -52 82q-10 16 -58 40t-64 30t-120 57q-105 51 -150 66t-87 34q-43 19 -49 19q-51 38 -100 65v5q-10 10 -15 20q-27 -12 -87 -46t-58 -44q0 -2 -5 -42t1 -61t53 -61q7 -10 61 -34q54 -25 68 -29t124 -46
t124 -47q57 -12 84 -20zM893 1223q1 -19 -17 -67t-26 -55t-18 -23q-41 -61 -99 -58q-13 0 -25 -2t-16 2q-16 20 -38 24t-27 19q-10 16 10 31q61 41 66 145q1 28 5 54q4 25 -12 42q-8 23 -28 64q-25 39 -31 45q-29 25 -47 29q-56 9 -76 -11h-2q-6 2 -16 -6t-22 -5t-15 -9
q-2 -20 -27 -27l-4 -2q-33 -65 -39 -89t-4 -64t5 -54q3 -16 7 -31t6 -25q3 -10 13 -24q10 -16 14 -24t34 -37t50 -43q21 -14 62 -32t57 -21q16 -2 120 -55t154 -83q49 -30 113 -94q10 -8 24 -39q14 -32 18 -38t13 -49q14 -63 -3 -97q-64 -135 -77 -149q-12 -20 -123 -76
q4 -12 5 -39q14 -30 14 -74q0 -46 5 -64t-2 -39t-7 -34t-25 -66q-25 -52 -55 -84l-62 -55q-35 -31 -57 -38t-38 -14t-25 -11l-25 -7q-4 -2 -12 -2h-13q-31 -8 -47 -4h-41q-16 10 -48 16t-47 10q-14 5 -24 9t-24 6q-17 2 -50 25t-51 36q-18 12 -34 37t-37 52l-6 28
q-23 91 -6 149q18 58 33 74t24 38q37 43 80 43l31 6q6 2 16 -10q10 -13 33 -15t31 -16t-11 -31q-45 -37 -55 -115q-2 -12 0 -34t2 -44q0 -21 9 -43q9 -21 33 -61q25 -41 40 -51q26 -23 64 -26t57 14l4 2q8 -4 17 7q10 11 22 8t12 9q2 23 25 31q4 0 6 2q2 8 20 54t12 94
q-6 47 -17 76q-11 28 -13 38t-13 24t-14 21l-20 21q-53 43 -75 56q-22 12 -63 26t-56 16t-151 58t-159 71q-66 45 -82 59t-36 44q-57 84 -52 163q0 7 5 21t10 30t9 22t23 54q21 47 25 57q4 9 70 53t108 64q-10 25 -6 60q-13 26 -10 67q4 41 2 68t7 49t14 45t54 88
q19 32 97 88q33 27 59 33q27 6 41 12t22 8l27 5h25q37 4 47 0h24q11 1 21 -7t42 -14t48 -15t38 -17t28 -9q6 -2 32 -24q4 -6 34 -28t41 -46t23 -44t13 -42l6 -41v-49z" />
    <glyph glyph-name="dieresis" unicode="&#xa8;" horiz-adv-x="602" 
d="M514 1749q0 -6 11 -6t12 -4q-4 0 -5 -4q0 -4 -2 -4q7 -6 15 -2q0 2 4 7t2 9q-6 2 -6 4q-7 -2 -25 2t-20 0q2 -2 6 -4t6 -4q0 6 2 6zM543 1749l4 6q-4 8 -17 4q-6 -4 2 -8q2 6 6 2t5 -4zM478 1614l-21 -4l-2 4q-76 4 -90 31h12q-2 4 -12 9t-7 9l-14 -4q0 41 -1 73t8 52
q9 18 40 35h21l12 12q70 12 65 -37l5 14q6 -6 16 -5t22 -1q-4 -6 -14 0q2 -4 -4 -8t-6 -8q6 -2 10 2t12 4q2 -6 -2 -7t-9 -2t-5 -5q2 -4 14 -3t15 -6l2 13q8 4 9 -5t-7 -12q6 0 6 4q10 -15 6 -37t0 -40l-12 -2q0 -14 10 -15q-6 -4 -12 2q3 -16 -17 -35q-20 -18 -26 -26h-8
q-4 -2 -16 -2zM186 1743q6 0 7 -4q-3 0 -3 -4t-4 -4q9 -4 17 -2q0 2 4 7t2 9q-6 2 -6 4q-7 -2 -25 2t-20 0l12 -8q0 6 2 6q-2 -4 3 -5t11 -1zM199 1749l6 6q-6 8 -17 4q-6 -4 2 -8l3 4zM152 1616q-6 -2 -18 -2t-19 -4l-2 4q-78 4 -90 31h10q0 5 -10 8q-10 6 -7 10l-16 -4
q0 75 20 111t103 63q25 -8 24 -39l5 14q6 -6 16 -5t22 -1q-4 -6 -14 0q2 -4 -4 -8t-6 -8q8 -2 11 2t9 4q2 -6 -1 -7t-8 -2t-5 -5q2 -4 13 -3t14 -6q6 10 4 13q6 4 8 -5t-6 -12q6 0 6 4q10 -15 6 -37t0 -40l-12 -2q0 -14 10 -15q-6 -4 -12 2q-1 -17 -19 -35t-24 -26h-8z
M545 1677q0 2 -1 5t-1 6q-2 -7 2 -11zM201 1682q0 3 -2 6q0 -9 4 -11q-2 2 -2 5z" />
    <glyph glyph-name="copyright" unicode="&#xa9;" horiz-adv-x="1568" 
d="M862 371q-2 -3 -2 -7t-57 -4t-68 2q-53 8 -93 84t-53 163t-9 126t30 185q4 2 1 24t-3 25q25 94 70 174q6 2 10 2v4q-2 4 0 4q18 12 72 7t71 -17l7 -19l24 8t20 -4q14 -8 23 -8q7 -4 13 -13t8 -11q12 -40 12 -100l-4 -85q-10 0 -10 -12q-38 13 -36 92q1 35 -3 47
q-33 -18 -37 -82q-4 0 -4 -4t-4 -4q0 -20 -24 -147t-23 -158l8 -68q4 -111 47 -157q30 7 42 46q13 40 19 50q2 14 13 58q10 44 6 77q8 -2 14 3t16 1l11 -44q0 -5 -4 -19q4 -113 -29 -152q-2 -2 2 -10q-4 -4 -13 -16t-22 -26q-12 -14 -41 -15zM678 1243q-27 15 -79 29t-85 14
q-16 -38 -62 -106t-78 -123t-59 -161t-26 -239q0 -70 102 -305q43 -117 152 -165q109 -47 225 -33t215 48q98 34 135 70q41 44 78 176t49 254q47 494 -112 641q-344 156 -455 -100zM500 1438q95 -16 112 -33q29 77 118 101q155 41 422 -72q114 -50 200 -111
q113 -322 47 -819q-4 -49 -34 -124t-38 -112q-94 -258 -389 -258q-176 -6 -357 80t-323 227q-204 464 -38 794q52 103 120 178t160 149z" />
    <glyph glyph-name="ordfeminine" unicode="&#xaa;" horiz-adv-x="667" 
d="M178 1341h2q51 96 56 121l-13 2q-2 2 0 9q-53 -17 -92 -73t-27 -136q6 -2 9 0h8q16 10 33 38q16 28 24 35l-2 2q2 0 2 2zM451 1436v-15l10 -24q4 -35 -1 -128t5 -114q33 35 102 260q2 11 37 103q12 6 21 -19q2 -10 -44 -172q-45 -161 -57 -193t-19 -69t-28 -52t-74 -8
t-88 31q-68 82 -54 221q5 51 -1 107q-94 -188 -119 -197q-53 -12 -101 28q-98 81 -40 220q31 72 77 105t99 16q49 -33 82 -39q14 47 90 29t101 -76q2 -6 2 -14z" />
    <glyph glyph-name="guillemotleft" unicode="&#xab;" horiz-adv-x="1363" 
d="M711 893q0 -41 98 -115q99 -74 247 -175t220 -173q16 -12 24 -33q39 -72 5 -131q-16 18 -43 3t-35 -15q-150 79 -349 214q-397 269 -399 409q0 43 65 127q66 84 224 202t369 209q17 21 92 51q8 0 35 -15t43 3q35 -59 -4 -131q-8 -20 -25 -33q-84 -82 -230 -168t-242 -141
t-95 -88zM0 877q0 43 65 127t223 202t369 209q16 20 93 51q8 0 34 -15t43 3q35 -59 -4 -131q-8 -20 -24 -33q-85 -82 -231 -168t-241 -141t-96 -88q1 -41 99 -115t246 -175t221 -173q16 -12 24 -33q39 -72 4 -131q-16 18 -43 3t-34 -15q-150 79 -349 214q-399 270 -399 409z
" />
    <glyph glyph-name="logicalnot" unicode="&#xac;" horiz-adv-x="1058" 
d="M805 1327q-2 0 -14 -3t-13 7l30 2q19 0 28 21q-31 0 -101 -12t-114 -5q-1 -2 -7 -3t-4 -11q-18 4 -26 12q-10 -8 -27 -8l-78 8q-107 -10 -127 -7t-110 28q-27 0 -70 -4t-109 16q4 16 -5 26t-46 28q-37 17 -41 20q-17 31 1 35q28 0 53 10q2 -6 -2 -11t0 -8q14 -5 18 5
t6 10q45 -17 72 -19t65 -12q18 8 50 8t80 -10q47 -10 51 -10l110 18q109 18 127 -2q37 4 147 24t136 25q4 45 88 21q20 -56 18 -66t-12 -41t-8 -73q-2 -2 -6 -3q4 -31 11 -71t9 -60q45 -4 21 -88q-56 -20 -66 -18t-41 12t-74 8q-23 70 -18 166q0 2 -3 14t7 13l2 -30
q0 -21 21 -27q0 33 6 65h-35z" />
    <glyph glyph-name="registered" unicode="&#xae;" horiz-adv-x="1536" 
d="M793 928l108 39q66 23 78 34q37 35 -10 70q-29 19 -89 35t-92 6q8 -30 4 -94t1 -90zM782 734v-52l4 -29q0 -6 -6 -10q8 -25 7 -107t3 -98t-2 -17q-4 -1 -4 -3q8 -8 11 -37q6 -6 30 -16q0 -1 -5 -5t-3 -10l-205 -16q-2 8 -17 12t-17 10q0 9 20 9q-10 3 -6 31t4 32l-4 21
l6 61l-10 190q0 94 -2 140l4 260h-29q0 19 -4 41q14 0 131 3q232 6 301 -34q23 -14 42 -48t12 -58t-26 -39q-19 -16 -54 -33t-45 -23q49 -29 71 -49q0 -12 -2 -16q6 -6 19 -4q0 -2 -7 -9q8 -16 9 -36l-4 -105l-5 -45q0 -25 -2 -27t3 -4t4 -6q0 -205 8 -260q-8 -4 -11 -10
q-2 0 -50 -2t-59 19q-5 9 1 26q-4 39 -7 149t-9 154q-6 45 -3 76q0 117 -30 123q-14 4 -34 -5t-26 -10q-8 -34 -5 -66t3 -68zM678 1243q-27 15 -79 29t-85 14q-16 -38 -62 -106t-78 -123t-59 -161t-26 -239q0 -70 102 -305q43 -117 152 -165q109 -47 225 -33t215 48
q98 34 135 70q41 44 78 176t49 254q47 494 -112 641q-344 156 -455 -100zM500 1438q95 -16 112 -33q29 77 118 101q155 41 422 -72q114 -50 200 -111q113 -322 47 -819q-4 -49 -34 -124t-38 -112q-94 -258 -389 -258q-176 -6 -357 80t-323 227q-204 464 -38 794
q52 103 120 178t160 149z" />
    <glyph glyph-name="degree" unicode="&#xb0;" horiz-adv-x="407" 
d="M84 1284q0 -53 26 -87t66 -46t70 -7q31 5 43 19q25 25 36 129t-32 146q-54 24 -74 5t-31 -44q-18 14 -49 14q-3 -12 -29 -44t-26 -85zM346 1430q29 -80 12 -207q-2 -13 -9 -31t-9 -29q-22 -67 -106 -67t-164 80q-76 172 61 282q27 -4 29 -8q23 37 80 26t106 -46z" />
    <glyph glyph-name="plusminus" unicode="&#xb1;" horiz-adv-x="790" 
d="M41 1020h10q10 -2 8 4q-6 8 -35 38t-32 56q10 10 16 10l43 -12q86 10 240 0q2 32 3 54t7 67t24 84q19 39 35 33t41 -15l23 17q7 -13 18 -19q12 -6 19 -10q-10 -74 -2 -223q246 -10 246 -74q-1 -17 -15 -37l17 -24q-6 -2 -29 -37q-80 10 -207 4q8 -84 10 -117
q-23 -61 -96 -135q-43 0 -47 -4q-20 0 -40 11q-19 11 -22 14q-8 72 0 217q-90 -9 -106 -9q-61 23 -135 97q0 10 6 10zM598 600q150 -6 150 -51q2 -16 -15 -39l12 -18q-8 -3 -13 -14t-9 -17q-109 10 -305 3t-312 -20q-53 25 -106 80q2 12 18 11q-4 8 -18 22q20 36 32 45
q13 8 15 10q201 11 551 -12z" />
    <glyph glyph-name="twosuperior" unicode="&#xb2;" horiz-adv-x="346" 
d="M125 1214q6 1 3 4q-8 8 -3 -4zM133 1405v4l14 41l17 70q-14 11 -28 6q-13 -4 -17 -4t-4 -2v-4q-31 -16 -45 -50q-8 -10 -14 -38t-11 -37l-18 12v10q2 2 2 9v12q12 45 45 73q2 15 38 31t74 -16q0 -4 4 -6q27 -12 62 -60q0 -2 -2 -2v-14q-2 -18 -23 -39v-6q-4 0 -2 -6
q-10 -8 -20 -34t-19 -34q0 -3 -12 -21q2 -14 -12 -32q2 -6 -10 -19v-4q0 -2 2 -2q-4 -3 -16 -19t-23 -20q4 -4 0 -10t-4 -8l88 10q3 0 33 2t39 -5t20 -9q-4 0 -4 -2l14 -8q0 -2 -2 -3l6 -6l-49 7q-35 7 -49 4l-8 -5h-13l-39 -12q-4 -4 -4 -8q-14 -4 -32 -18t-31 -19h-10
q-2 2 -16 7t-42 34q-12 8 -12 14q23 12 32 37q8 25 15 39q33 51 39 65t8 13q4 27 18 45q15 18 19 27q0 10 2 10z" />
    <glyph glyph-name="threesuperior" unicode="&#xb3;" horiz-adv-x="319" 
d="M57 1141q-2 2 -10 6q0 -2 10 -6zM161 1552q42 0 54 -26q4 -4 21 -19t19 -32q3 -17 5 -27t-14 -32t-23 -23q0 -2 4 -2q-12 -16 -43 -41q53 -12 68 -54l6 -6v-2l6 -8q2 -8 7 -24t5 -20q0 -45 -32 -77q-20 -8 -33 -26q-4 -1 -15 -11t-75 -18q0 2 2 2l4 2q-14 2 -25 0l2 6
h-24q-2 2 4 2t6 2h-14q-8 8 -2 8l-43 23q-2 0 0 -2v-2q-31 20 -27 65q18 -6 37 -27q54 -61 119 5q0 10 8 12q0 4 7 18t3 25q4 4 0 11t-7 24t-34 29t-59 -2h-17l-22 38q-8 -2 -16 13q78 23 131 80q0 2 15 24t19 46q4 26 -10 32q-18 8 -40 -6q-22 -13 -33 -17q-11 -3 -11 -12
q-10 -6 -74 -76q-2 -2 -5 0t-5 0q-6 4 -10 11q10 16 55 65q8 5 36 27t70 22z" />
    <glyph glyph-name="acute" unicode="&#xb4;" horiz-adv-x="337" 
d="M12 1649q0 2 -12 34q59 74 129 220q6 6 10 8v2h2q15 15 62 35q1 -2 23 -7t61 -24q10 -25 10 -47q-39 -59 -113 -156q-70 -100 -102 -103t-47 38h-23z" />
    <glyph glyph-name="mu" unicode="&#xb5;" horiz-adv-x="937" 
d="M83 -188q-15 0 -19 8q-14 25 -76 18q-25 76 -21 166q-6 29 4 27l2 -29q0 -16 21 -27q0 31 -13 101t-8 114l-2 7q-2 6 -12 4q4 16 12 24q-11 22 -6 59q6 36 6 48q-12 68 -2 342l19 47v4q20 39 78 29l2 -2q2 0 10 -9q4 0 12 -14q16 -18 23 -45q-4 -449 -19 -475l2 -33
l19 -47q2 0 17 -6t32 6l4 43q28 18 56 70t48 69q0 6 21 164q20 158 18 193q8 6 58 77q53 -2 110 -21t72 -52q4 -12 -3 -35t-7 -33l4 -69q-4 -39 -1 -73t-5 -113t-5 -113t15 -82t14 -72q29 -2 46 22t28 27q16 49 96 242t111 295q10 -17 27 -15q16 2 21 -5t3 -23
q-16 -147 -164 -445q-10 -18 -34 -62t-58 -110q-37 -16 -51 -63q-39 -25 -114 -24t-114 34q2 14 -17 38t-24 36q-20 53 -40 32q2 2 8 19q-14 18 -17 49q-8 -41 -62 -65t-108 -7q5 -108 11 -139q51 -7 20 -90q-33 -16 -48 -16z" />
    <glyph glyph-name="periodcentered" unicode="&#xb7;" horiz-adv-x="260" 
d="M147 965l5 12q6 -6 17 -4t21 0q-4 -4 -16 0q2 -6 -3 -10t-5 -7q8 -2 11 2t9 5q2 -6 -1 -8q-3 -1 -8 -2t-5 -5q2 -4 13 -3t14 -5l4 10q8 8 8 -6q0 -6 -6 -8q6 -2 6 4q10 -18 6 -38t0 -40l-12 -2q0 -14 10 -14q-8 -4 -12 2q1 -21 -19 -38t-24 -24q-4 0 -8 -2l-31 -2h-2
l-4 -2q-2 2 -2 4q-78 4 -93 31h13q0 5 -10 8q-10 6 -7 11q-13 0 -16 -5q0 74 20 111t103 64q25 -8 24 -39zM201 853q0 3 -2 5q0 -8 4 -10q-2 2 -2 5z" />
    <glyph glyph-name="cedilla" unicode="&#xb8;" horiz-adv-x="565" 
d="M424 -4q31 -10 47 -47q-41 -51 -73 -126t-38 -87q12 -14 69 -72t71 -117q2 -4 9 -6q19 -5 11 -133q-4 -60 -48 -118t-124 -83q4 8 4 13q-70 -37 -158 -18t-149 87q-55 70 -49 130t63 100q3 -2 15 -4t16 -9q-27 -61 50 -141t134 -33q10 27 15 31q57 51 38 143t-100 123
q8 8 13 30q4 22 24 28q-2 4 -7 6t-7 8q72 205 174 295z" />
    <glyph glyph-name="onesuperior" unicode="&#xb9;" horiz-adv-x="221" 
d="M70 1149l-7 63v2q2 2 -2 5q4 8 2 10q2 0 5 2q0 2 -3 0t-4 0l7 12l-7 6q4 3 1 23t4 24q0 2 -2 2t-3 2l2 19l-4 18q0 4 4 4q-2 2 -8 2q-2 5 -1 11t5 6q-10 8 0 18q-4 6 -1 18t-3 15l6 2q-6 2 -3 14t3 15q-6 -2 -10 -9t-6 -8q-6 -25 -25 -47q-25 -39 -43 -14q30 24 56 81
q26 56 37 73v2l-2 4q7 12 11 12q3 0 11 1t33 -15q26 -10 39 -23q0 -4 -2 -4q10 -27 -2 -70l2 -2v-2q-8 -43 -2 -78q-4 -6 -3 -24t-1 -29q0 -114 26 -162q-2 0 -2 -4q-4 2 -15 -6t-52 2q-40 10 -41 19h4q6 0 8 2z" />
    <glyph glyph-name="ordmasculine" unicode="&#xba;" horiz-adv-x="407" 
d="M84 1284q0 -53 26 -87t66 -46t70 -7q31 5 43 19q25 25 36 129t-32 146q-54 24 -74 5t-31 -44q-18 14 -49 14q-3 -12 -29 -44t-26 -85zM346 1430q29 -80 12 -207q-2 -13 -9 -31t-9 -29q-22 -67 -106 -67t-164 80q-76 172 61 282q27 -4 29 -8q23 37 80 26t106 -46z" />
    <glyph glyph-name="guillemotright" unicode="&#xbb;" horiz-adv-x="1361" 
d="M610 893q0 33 -95 88t-241 141t-231 168q-14 14 -25 33q-39 72 -4 131q18 -18 44 -3t34 15q86 -43 94 -51q211 -92 369 -210q159 -117 223 -201t64 -127q0 -169 -589 -531q-103 -63 -159 -92q-8 0 -34 15t-44 -3q-33 59 4 131q35 62 214 185q179 122 278 196
q98 74 98 115zM1321 877q0 -169 -589 -531q-103 -63 -159 -92q-7 0 -33 15t-44 -3q-33 59 4 131q35 64 214 185q178 122 277 196q98 74 99 115q0 33 -96 88t-241 141q-146 86 -231 168q-14 14 -24 33q-39 72 -4 131q18 -18 44 -3t33 15q86 -43 95 -51q210 -92 368 -210
q158 -117 222 -201t65 -127z" />
    <glyph glyph-name="onequarter" unicode="&#xbc;" horiz-adv-x="935" 
d="M868 18v-87q0 -28 4 -40q-2 0 -6 -8q-8 0 -39 -3t-49 9q-16 -2 -30 9q-6 12 -6 36t-3 29q6 8 4 33t2 31q-2 8 -4 14q8 11 4 25t0 34l7 28q2 7 6 30t6 28q-25 -4 -84 -45t-105 -18q-4 6 -12 14l8 21q12 14 23 57q10 43 14 53h-4q0 4 6 32q13 63 -25 90q-15 11 -18 20
q10 2 23 0l-8 18h4q10 -6 13 -5t11 -8t15 -7q-4 -2 4 -6t10 -7q2 -8 12 -18t13 -19q-4 0 0 -13t4 -32v-28l-6 -13l4 -8q0 -6 -7 -24q-4 -37 -32 -95q35 14 49 25q45 18 51 29h10l8 10q12 0 17 2q8 14 10 52t8 52q0 45 11 60q-2 33 2 51q12 0 24 -10q13 -10 17 -10t6 -3
q47 -23 47 -51l-6 -123l-11 -10q12 -25 -4 -61q10 -20 0 -33zM128 1327q3 0 3 2q-8 3 -4 19t4 18q-8 -2 -14 -11t-11 -12q-10 -41 -34 -71q-39 -55 -66 -21q54 44 99 155q22 52 38 79q0 6 -2 8q12 14 19 14q0 16 67 -18q27 -9 52 -25q4 -10 5 -11t-3 -5q18 -49 -2 -102l4 -9
q-16 -55 -4 -116q-7 -10 -7 -40t-4 -40q4 -25 6 -91q2 -87 35 -153q-2 0 -3 -1t1 -1v-4q-8 2 -17 -7q-22 -22 -82 -2q-60 19 -63 33h17q-12 12 -19 15q-3 33 -6 62q-4 30 -4 31t2 1t2 3t-3 3t1 7t-2 12q4 -2 8 2q0 2 -4 1t-6 3l10 16l-8 8q6 8 2 36t4 36q0 2 -4 3t-4 5l4 27
l-4 25q0 5 4 8q-2 2 -6 2l-4 2q-8 23 4 24q-14 10 0 25q-6 12 -1 30t-3 23q0 2 3 2zM129 -188q-47 28 -61 20t-30 -5t-42 40q4 16 5 21q1 6 6 20t7 15t10 11t13 6q6 -4 18 -3q20 29 76 132q55 103 68 121q-4 46 362 780q125 251 127 254t12 39q26 94 64 123q10 41 20 66
t19 70q2 2 12 1t10 7q4 15 -6 10q-4 -2 -10 4q12 10 21 24t14 21q5 8 30 -20q0 -8 -3 -53q-3 -46 3 -52t21 -12q-13 -67 -37 -103q-24 -35 -37 -59q-20 -84 -214 -528t-245 -516q-4 -10 -16 -47t-31 -47q4 -10 0 -29q-6 6 -11 2t-7 -4q-14 -43 -57 -101t-56 -83q21 0 29 12
t16 28q9 -9 -8 -26q-43 -90 -92 -139z" />
    <glyph glyph-name="onehalf" unicode="&#xbd;" horiz-adv-x="937" 
d="M684 33q-2 2 -4 0t1 -4t3 4zM670 5q0 -3 -8 -11l106 10q8 0 32 3t58 -5q6 -6 27 -14h-6q-6 2 -7 0q2 -2 8 -4t11 -11h-2q2 -2 6 -4l2 -2h-6q-6 -2 -6 2q-13 1 -51 9t-56 4l-10 -7h-16l-45 -16q-4 0 -5 -6q-18 -3 -40 -23t-35 -24q-8 4 -13 0q-4 4 -20 10t-49 39
q-14 10 -15 16q26 20 34 39q7 19 14 33q6 14 8 20q37 57 51 93q4 0 6 2q3 24 21 50t22 34q0 12 4 12l-2 2v2q6 6 10 26t11 25q0 14 10 39t8 43q-10 8 -19 8l-36 -6q-2 0 -4 -4v-2q-39 -20 -54 -59q-10 -12 -17 -46t-13 -46l-23 16l4 24v13q12 55 53 88q4 18 46 37t90 -19
l4 -8q33 -12 73 -72h-2q-2 0 -2 -2l4 -4v-2q-2 -6 0 -10q-8 -27 -19 -39t-11 -14v-8q-9 -10 -23 -41t-26 -41q0 -8 -15 -23q4 -20 -14 -39q4 -16 -10 -24v-9q-5 -5 -19 -23t-26 -22q2 -6 2 -9zM128 1327q3 0 3 2q-8 3 -4 19t4 18q-8 -2 -14 -11t-11 -12q-10 -41 -34 -71
q-39 -55 -66 -21q54 44 99 155q22 52 38 79q0 6 -2 8q12 14 19 14q0 16 67 -18q27 -9 52 -25q4 -10 5 -11t-3 -5q18 -49 -2 -102l4 -9q-16 -55 -4 -116q-7 -10 -7 -40t-4 -40q4 -25 6 -91q2 -87 35 -153q-2 0 -3 -1t1 -1v-4q-8 2 -17 -7q-22 -22 -82 -2q-60 19 -63 33h17
q-12 12 -19 15q-3 33 -6 62q-4 30 -4 31t2 1t2 3t-3 3t1 7t-2 12q4 -2 8 2q0 2 -4 1t-6 3l10 16l-8 8q6 8 2 36t4 36q0 2 -4 3t-4 5l4 27l-4 25q0 5 4 8q-2 2 -6 2l-4 2q-8 23 4 24q-14 10 0 25q-6 12 -1 30t-3 23q0 2 3 2zM129 -188q-47 28 -61 20t-30 -5t-42 40q4 16 5 21
q1 6 6 20t7 15t10 11t13 6q6 -4 18 -3q20 29 76 132q55 103 68 121q-4 46 362 780q125 251 127 254t12 39q26 94 64 123q10 41 20 66t19 70q2 2 12 1t10 7q4 15 -6 10q-4 -2 -10 4q12 10 21 24t14 21q5 8 30 -20q0 -8 -3 -53q-3 -46 3 -52t21 -12q-13 -67 -37 -103
q-24 -35 -37 -59q-20 -84 -214 -528t-245 -516q-4 -10 -16 -47t-31 -47q4 -10 0 -29q-6 6 -11 2t-7 -4q-14 -43 -57 -101t-56 -83q21 0 29 12t16 28q9 -9 -8 -26q-43 -90 -92 -139z" />
    <glyph glyph-name="threequarters" unicode="&#xbe;" horiz-adv-x="929" 
d="M868 18v-87q0 -28 4 -40q-2 0 -6 -8q-8 0 -39 -3t-49 9q-16 -2 -30 9q-6 12 -6 36t-3 29q6 8 4 33t2 31q-2 8 -4 14q8 11 4 25t0 34l7 28q2 7 6 30t6 28q-25 -4 -84 -45t-105 -18q-4 6 -12 14l8 21q12 14 23 57q10 43 14 53h-4q0 4 6 32q13 63 -25 90q-15 11 -18 20
q10 2 23 0l-8 18h4q10 -6 13 -5t11 -8t15 -7q-4 -2 4 -6t10 -7q2 -8 12 -18t13 -19q-4 0 0 -13t4 -32v-28l-6 -13l4 -8q0 -6 -7 -24q-4 -37 -32 -95q35 14 49 25q45 18 51 29h10l8 10q12 0 17 2q8 14 10 52t8 52q0 45 11 60q-2 33 2 51q12 0 24 -10q13 -10 17 -10t6 -3
q47 -23 47 -51l-6 -123l-11 -10q12 -25 -4 -61q10 -20 0 -33zM80 1012q-3 3 -12 6q0 -6 12 -6zM213 1538q51 0 68 -35q6 -8 23 -23q18 -16 22 -24t6 -23t6 -22q2 -27 -20 -53t-25 -25q0 -2 2 -2q-8 -10 -53 -51q68 -20 86 -70l8 -8q0 -2 -1 -4t2 -4t5 -10t10 -26t8 -23
q0 -58 -43 -101q-18 -8 -43 -33q-6 0 -10 -4q-20 -20 -104 -32l6 6q-20 0 -27 -2q0 2 1 4t-1 4q0 -2 -42 1t-9 3t33 2q-14 6 -17 0q-2 0 -3 4t-5 2q-2 4 4 4q-10 5 -28 15t-27 14q2 -4 0 -6q-41 31 -33 84q12 -4 19 -4q8 -6 25 -28q65 -85 155 5q0 12 8 14q0 5 9 23t5 33
q2 8 -1 16t-5 19q-6 33 -45 48t-76 -5h-20q-10 8 -19 26t-14 23q-6 -2 -11 6t-7 10q150 49 196 150q34 69 5 80t-55 -6t-40 -21t-14 -14q-30 -18 -94 -99h-15q-10 12 -12 15q35 47 72 84q12 7 48 35t87 28zM68 -188q-48 28 -62 20t-30 -5t-42 40q13 53 17 55t11 12t13 6
t19 -3q20 29 76 132q55 103 67 121q-4 44 363 780q125 251 127 254t20 67t55 95q10 41 21 66q10 25 18 70q3 2 13 1t10 7q4 15 -6 10q-4 -2 -10 4q16 13 33 42q7 12 32 -17q0 -8 -3 -53q-3 -46 2 -52t22 -12q-12 -64 -37 -101q-24 -37 -37 -61q-20 -84 -214 -528t-245 -516
q-4 -10 -16 -46t-31 -48q4 -10 0 -29q-6 6 -11 2t-7 -4q-14 -43 -58 -101t-55 -83q23 0 33 18t12 22q9 -9 -8 -26q-43 -90 -92 -139z" />
    <glyph glyph-name="questiondown" unicode="&#xbf;" horiz-adv-x="931" 
d="M754 1188q-10 2 -12 -10t3 -17q0 4 7 12t2 15zM766 1214q0 -10 8 -12q0 2 5 5t3 7h-16zM850 1399q-8 -2 -31 3t-28 1q8 -4 16 -12q0 8 4 8q-2 -6 5 -7t15 -2t9 -6q-4 0 -5 -6t-4 -6q8 -4 19 -2q0 4 5 10t3 13l-6 2zM848 1399l6 6q-6 10 -18 7t0 -9l4 2zM780 1466
q0 6 2 11q4 -11 24 -7t30 0q-8 -8 -21 0q2 -6 -5 -12t-7 -10q8 -2 13 4t15 4q4 -8 -8 -11t-12 -7q4 -6 18 -5t19 -8q4 14 2 17q12 6 12 -8q2 -12 -8 -15q8 0 8 6q16 -20 9 -49t-1 -55l-16 -2q0 -20 12 -19q-6 -6 -16 3q4 -23 -30 -54t-38 -51q-4 -2 -7 0t-5 2q6 -14 -8 -28
q-14 -13 -17 -17q-12 4 -10 29t-6 35q-100 4 -121 41h17q-3 4 -11 8t-13 7t-1 9q-28 -8 -51 -6q-11 22 -13 32q-1 9 -4 21t13 33q-6 18 -3 24t-3 24q-7 20 -7 40t25 33q49 10 85 8t39 1t5 8t4 7q88 16 88 -51q2 2 2 8zM803 1638q0 12 4 17h18q-2 -9 -2 -15t-2 -12
q-6 2 -11 -2t-11 -2q4 2 4 14zM539 1125v8q37 -2 85 -26t64 -28q6 -10 4 -22q8 8 23 4q63 -127 24 -221q6 -57 -3 -85q-8 -28 -30 -60t-34 -77q-49 -57 -109 -154t-106 -152q-47 -56 -76 -97t-38 -73t-29 -78t-30 -76q-11 -30 -4 -63q7 -34 42 -50q59 -4 122 36t78 44
q14 23 41 59q101 137 113 199q24 123 6 178q8 -2 15 5t12 7q152 -53 180 -65q6 -88 -49 -211t-62 -154q-47 -70 -139 -139t-111 -86q-73 -12 -153 -14t-127 7t-67 30q-21 20 -36 43q-20 -2 -54 17t-42 36q-63 139 -46 142q5 1 5 3l-4 62q2 20 18 60q15 40 13 59q16 35 57 99
t58 103q8 0 13 7t13 6q0 6 4 30q80 78 115 164q35 22 75 88t66 86q16 58 44 114t39 99t7 117q-2 8 6 6q18 0 21 6q0 10 -7 7t-7 0zM850 1303q0 2 -1 6t-1 6q-2 -4 2 -12z" />
    <glyph glyph-name="Agrave" unicode="&#xc0;" 
d="M838 1751h-23q-40 -95 -149 68q-88 117 -113 153q0 23 10 47q33 17 80 31h4q45 -18 62 -35h2q6 -6 10 -8q68 -145 129 -219q-12 -35 -12 -37zM326 1210h-19q2 -10 1 -19t-11 -3q-2 -6 2 -12t-2 -15q-13 -8 -27 -45t-39 -47q8 -4 5 -18q-25 -15 -43 -61t-31 -58
q30 -14 112 -16t90 -4q8 0 10 8q3 8 7 8q14 47 56 222t74 263t32 117q-37 -50 -105 -144t-104 -145q0 8 -4 0q4 -3 -3 -15t-1 -16zM698 1583q8 16 -15 19q-9 0 -15 -7q16 -12 30 -12zM-6 928l74 -4q12 2 24 18t19 21q4 8 3 19t5 11q2 4 25 37q24 33 32 55q4 3 12 13t15 10
q106 207 289 453q10 16 39 46t40 68q65 0 175 -20t139 -45q3 -4 31 -43t57 -49q6 -31 -34 -125q-40 -93 -48 -129q-9 -36 -23 -90q-48 -177 -30 -211q-25 -47 -45 -189q-2 -6 0 -28t1 -37q0 -15 -62 -350t-56 -390q-8 0 -22 -5t-25 -3q-7 -9 -4 -21q2 -12 0 -14
q-20 2 -133 4q-251 4 -279 58q23 72 80 419t69 394q-41 8 -134 13t-119 9q-49 -73 -239 -441t-228 -425q-45 0 -72 8q55 90 233 435t234 462q-4 8 -28 18t-25 25q13 0 11 14q-1 7 -1 9z" />
    <glyph glyph-name="Aacute" unicode="&#xc1;" 
d="M688 1751q0 2 -12 37q61 74 129 219q4 2 10 8h2q18 18 62 35h4q47 -14 80 -31q10 -25 10 -47q-25 -37 -113 -153q-68 -97 -100 -105t-49 37h-23zM326 1210h-19q2 -10 1 -19t-11 -3q-2 -6 2 -12t-2 -15q-13 -8 -27 -45t-39 -47q8 -4 5 -18q-25 -15 -43 -61t-31 -58
q30 -14 112 -16t90 -4q8 0 10 8q3 8 7 8q14 47 56 222t74 263t32 117q-37 -50 -105 -144t-104 -145q0 8 -4 0q4 -3 -3 -15t-1 -16zM698 1583q8 16 -15 19q-9 0 -15 -7q16 -12 30 -12zM-6 928l74 -4q12 2 24 18t19 21q4 10 3 18t5 12q6 11 29 43q22 33 28 49q4 3 12 13t15 10
q106 207 289 453q10 16 39 46t40 68q65 0 175 -20t139 -45q3 -4 31 -43t57 -49q6 -31 -34 -125q-40 -93 -48 -129q-9 -36 -23 -90q-48 -177 -30 -211q-25 -47 -45 -189q-2 -6 0 -28t1 -37q0 -15 -62 -350t-56 -390q-8 0 -22 -5t-25 -3q-6 -10 -4 -23q2 -12 0 -12
q-20 2 -133 4q-251 4 -279 58q23 72 80 419t69 394q-41 8 -134 13t-119 9q-49 -73 -239 -441t-228 -425q-45 0 -72 8q55 90 233 435t234 462q-4 8 -28 18t-25 25q13 0 11 14q-1 7 -1 9z" />
    <glyph glyph-name="Acircumflex" unicode="&#xc2;" 
d="M422 1751q0 2 -12 37q61 74 129 219q4 2 10 8h2q18 18 61 35h4q47 -14 80 -31q10 -25 11 -47q0 23 10 47q33 16 80 31h4q43 -17 61 -35h2q6 -6 10 -8q69 -145 130 -219q-12 -35 -13 -37h-22q-41 -96 -150 68q-88 117 -112 153q-25 -37 -113 -153q-68 -97 -100 -105
t-50 37h-22zM326 1210h-19q2 -10 1 -19t-11 -3q-2 -6 2 -12t-2 -15q-13 -8 -27 -45t-39 -47q8 -4 5 -18q-25 -15 -43 -61t-31 -58q30 -14 112 -16t90 -4q8 0 10 8q3 8 7 8q14 47 56 222t74 263t32 117q-37 -50 -105 -144t-104 -145q0 8 -4 0q4 -3 -3 -15t-1 -16zM698 1583
q8 16 -15 19q-9 0 -15 -7q16 -12 30 -12zM-6 928l74 -4q12 2 24 18t19 21q4 10 3 18t5 12q6 11 29 43q22 33 28 49q4 3 12 13t15 10q106 207 289 453q10 16 39 46t40 68q65 0 175 -20t139 -45q3 -4 31 -43t57 -49q6 -31 -34 -125q-40 -93 -48 -129q-9 -36 -23 -90
q-48 -177 -30 -211q-25 -47 -45 -189q-2 -6 0 -28t1 -37q0 -15 -62 -350t-56 -390q-8 0 -22 -5t-25 -3q-6 -10 -4 -23q2 -12 0 -12q-20 2 -133 4q-251 4 -279 58q23 72 80 419t69 394q-41 8 -134 13t-119 9q-49 -73 -239 -441t-228 -425q-45 0 -72 8q55 90 233 435t234 462
q-4 8 -28 18t-25 25q13 0 11 14q-1 7 -1 9z" />
    <glyph glyph-name="Atilde" unicode="&#xc3;" 
d="M1139 1751q-21 -29 -52 -44t-51 -27t-63 -11h-15q-72 -14 -142 32q-141 93 -226 60q-86 -33 -114 -46q-27 -13 -38 1q-14 10 -6 35q33 86 98 111q8 2 25 14h4q50 21 118 27t101 -22t137 -83q66 -37 123 0l35 14q49 19 72 50q11 12 15 8t19 -22q13 -17 -40 -97zM326 1210
h-19q2 -10 1 -19t-11 -3q-2 -6 2 -12t-2 -15q-13 -8 -27 -45t-39 -47q8 -4 5 -18q-25 -15 -43 -61t-31 -58q30 -14 112 -16t90 -4q8 0 10 8q3 8 7 8q14 47 56 222t74 263t32 117q-37 -50 -105 -144t-104 -145q0 8 -4 0q4 -3 -3 -15t-1 -16zM698 1583q8 16 -15 19
q-9 0 -15 -7q16 -12 30 -12zM-6 928l74 -4q12 2 24 18t19 21q4 8 3 19t5 11q2 4 25 37q24 33 32 55q4 3 12 13t15 10q106 207 289 453q10 16 39 46t40 68q65 0 175 -20t139 -45q3 -4 31 -43t57 -49q6 -31 -34 -125q-40 -93 -48 -129q-9 -36 -23 -90q-48 -177 -30 -211
q-25 -47 -45 -189q-2 -6 0 -28t1 -37q0 -15 -62 -350t-56 -390q-8 0 -22 -5t-25 -3q-7 -9 -4 -21q2 -12 0 -14q-20 2 -133 4q-251 4 -279 58q23 72 80 419t69 394q-41 8 -134 13t-119 9q-49 -73 -239 -441t-228 -425q-45 0 -72 8q55 90 233 435t234 462q-4 8 -28 18t-25 25
q13 0 11 14q-1 7 -1 9z" />
    <glyph glyph-name="Adieresis" unicode="&#xc4;" 
d="M985 1864q0 -6 11 -6t12 -5q-4 0 -4 -4t-3 -4q5 -6 15 -2q0 2 4 7t2 10q-6 2 -6 4q-6 -2 -24 2t-21 0l12 -8q0 6 2 6zM1014 1864l4 6q-4 8 -17 4q-6 -4 3 -8q2 6 5 2t5 -4zM1014 1884l2 12q8 4 9 -5t-7 -11q6 0 6 4q10 -16 6 -38t0 -40l-12 -2q0 -14 10 -14q-6 -4 -12 2
q3 -18 -17 -36q-20 -17 -26 -25h-8l-31 -5l-2 -2h-4l-2 5q-76 4 -90 30h12q-2 4 -12 9t-7 10l-14 -4q0 42 -1 74t8 50t40 35h21l12 13q70 12 66 -37l4 14q6 -6 16 -5t23 -1q-4 -6 -15 0q2 -4 -4 -8t-6 -8q6 -2 10 2t12 4q2 -6 -7 -8t-9 -7q2 -4 14 -3t15 -5zM657 1858
q6 0 7 -5q-2 0 -2 -4t-5 -4q9 -4 17 -2q0 2 4 7t2 10q-6 2 -6 4q-6 -2 -24 2t-21 0l12 -8q0 6 2 6q-2 -4 3 -5t11 -1zM670 1864l6 6q-6 8 -17 4q-6 -4 3 -8l2 4q4 -6 6 -6zM504 1759q0 5 -10 8q-10 6 -7 11l-16 -4q-1 74 19 110t104 64q25 -8 24 -39l5 14q6 -6 16 -5t23 -1
q-4 -6 -15 0q2 -4 -4 -8t-6 -8q8 -2 11 2t9 4q2 -6 -1 -7q-3 0 -8 -2t-5 -6q2 -4 13 -3t14 -5q6 10 4 12q6 4 8 -5t-6 -11q6 0 6 4q10 -16 6 -38t0 -40l-12 -2q0 -14 10 -14q-6 -4 -12 2q0 -18 -18 -36q-18 -17 -25 -25h-8l-31 -5q-2 0 -6 -2l-2 5q-78 4 -90 30h10z
M326 1210h-19q2 -10 1 -19t-11 -3q-2 -6 2 -12t-2 -15q-13 -8 -27 -45t-39 -47q8 -4 5 -18q-25 -15 -43 -61t-31 -58q30 -14 112 -16t90 -4q8 0 10 8q3 8 7 8q14 47 56 222t74 263t32 117q-37 -50 -105 -144t-104 -145q0 8 -4 0q4 -3 -3 -15t-1 -16zM698 1583q8 16 -15 19
q-9 0 -15 -7q16 -12 30 -12zM-6 928l74 -4q12 2 24 18t19 21q4 10 3 18t5 12q6 11 29 43q22 33 28 49q4 3 12 13t15 10q106 207 289 453q10 16 39 46t40 68q65 0 175 -20t139 -45q3 -4 31 -43t57 -49q6 -31 -34 -125q-40 -93 -48 -129q-9 -36 -23 -90q-48 -177 -30 -211
q-25 -47 -45 -189q-2 -6 0 -28t1 -37q0 -15 -62 -350t-56 -390q-8 0 -22 -5t-25 -3q-6 -10 -4 -23q2 -12 0 -12q-20 2 -133 4q-251 4 -279 58q23 72 80 419t69 394q-41 8 -134 13t-119 9q-49 -73 -239 -441t-228 -425q-45 0 -72 8q55 90 233 435t234 462q-4 8 -28 18t-25 25
q13 0 11 14q-1 7 -1 9zM1016 1792q0 2 -1 5t-1 5q-2 -6 2 -10zM674 1792l-4 10q0 -8 4 -10z" />
    <glyph glyph-name="Aring" unicode="&#xc5;" 
d="M795 1872l-17 8q-53 -18 -61 -36t-12 -56q12 -8 14 -16q37 -8 51 -13h2l16 2l17 17q10 10 14 16q6 32 4 51zM791 1712q-10 0 -15 -2h-6q-82 10 -92 35q4 2 -8 8l-15 6q0 74 17 105q20 41 106 67q10 -2 35 -14t33 -14q-4 -6 12 -23q6 4 8 -5t-6 -11q6 0 6 4q8 -18 7 -43
t-5 -35t2 -14q-45 -45 -55 -62h-8q-6 -2 -16 -2zM326 1210h-19q2 -10 1 -19t-11 -3q-2 -6 2 -12t-2 -15q-13 -8 -27 -45t-39 -47q8 -4 5 -18q-25 -15 -43 -61t-31 -58q30 -14 112 -16t90 -4q8 0 10 8q3 8 7 8q14 47 56 222t74 263t32 117q-37 -50 -105 -144t-104 -145
q0 8 -4 0q4 -3 -3 -15t-1 -16zM698 1583q8 16 -15 19q-9 0 -15 -7q16 -12 30 -12zM-6 928l74 -4q12 2 24 18t19 21q4 10 3 18t5 12q6 11 29 43q22 33 28 49q4 3 12 13t15 10q106 207 289 453q10 16 39 46t40 68q65 0 175 -20t139 -45q3 -4 31 -43t57 -49q6 -31 -34 -125
q-40 -93 -48 -129q-9 -36 -23 -90q-48 -177 -30 -211q-25 -47 -45 -189q-2 -6 0 -28t1 -37q0 -15 -62 -350t-56 -390q-8 0 -22 -5t-25 -3q-6 -10 -4 -23q2 -12 0 -12q-20 2 -133 4q-251 4 -279 58q23 72 80 419t69 394q-41 8 -134 13t-119 9q-49 -73 -239 -441t-228 -425
q-45 0 -72 8q55 90 233 435t234 462q-4 8 -28 18t-25 25q13 0 11 14q-1 7 -1 9z" />
    <glyph glyph-name="AE" unicode="&#xc6;" horiz-adv-x="1540" 
d="M178 961q29 -17 109 -19t89 -3t12 7t7 10q11 48 55 222t76 264t33 117q-209 -289 -211 -291q0 8 -4 0q6 -2 -2 -14t-2 -17h-18q4 -8 2 -18t-13 -5q-2 -6 2 -12t0 -14q-16 -8 -29 -44t-38 -48q8 -2 4 -17q-26 -16 -44 -61t-28 -57zM640 -45q-1 0 -1 -2l-12 2
q-147 -23 -238 -27q-23 10 -35 25q2 4 2 14q-66 6 -96 23q-23 8 -33 24q21 64 77 404t73 409q-41 7 -133 13t-119 10q-51 -72 -244 -442t-225 -424q-37 0 -72 10q55 90 236 437q180 347 231 458q-3 8 -27 19t-26 26q13 0 11 13q-1 7 -1 9l74 -6q12 4 24 20t19 21q4 9 3 19
t5 12q2 4 26 37t31 55q19 19 29 23q100 199 287 452q10 12 39 45t41 70l99 -9q11 -1 15 -3h5q16 0 40 -6q127 -23 154 -50l8 -8l323 6q163 0 245 -24q2 -4 11 -18t13 -23q-8 -16 -22 -31q-43 -2 -129 6t-140 4q-35 -51 -49 -168q-4 -2 -12 0q-4 -33 -45 -180
q-6 -16 -58 -135t-51 -156q23 7 77 9t81 10l20 -20q16 -15 19 -29q-8 -6 -23 -31q-61 4 -95 -5q-35 -9 -68 -19t-46 -15q0 -31 -26 -147t-25 -150q-2 -6 -9 -3t-13 3l12 -41q-8 -2 -11 6t-5 8q-2 -14 3 -38t3 -33q-6 27 -21 4q-4 -6 -6 -8q0 -6 7 -2t16 2q2 -35 -29 -48
q4 -12 12 -8q2 0 0 8q8 -16 5 -42t3 -37q-16 -6 -28 -19q0 -6 7 -1t7 -3q4 -24 -22 -20q14 -23 -1 -95t3 -92q39 -2 122 -1t119 1q14 -16 17 -49q-6 2 -10 -5t-9 -7q-146 11 -438 -35q0 -2 -1 -2z" />
    <glyph glyph-name="Ccedilla" unicode="&#xc7;" horiz-adv-x="1118" 
d="M371 -375q4 0 8 -4q74 -174 -62 -252q2 4 2 10q-43 -39 -106 -41t-115 34t-57 81q-6 45 27 80h10q8 0 12 -4q-8 -47 58 -88t98 0q0 16 4 24q31 45 2 105t-88 68q4 6 3 24t11 21q-2 2 -6 2t-6 4q17 157 70 233q20 0 38 -24q-16 -39 -38 -166q6 -4 57 -36t72 -69q2 -2 6 -2
zM907 1583q2 0 70 19l27 -17q25 -14 47 -14q8 -7 15 -27t11 -26q-6 -97 -21 -147t-24 -83t-22 -60q-13 -26 -27 -62t-18 -44q-11 2 -19 -11t-12 -15q-33 14 -38 52t6 76t28 92q16 54 20 83q-80 -49 -137 -180q-4 -3 -10 -11t-15 -8q-14 -43 -149 -314q-135 -272 -151 -318
t-23 -95q-8 -49 -14 -74q-68 -233 -13 -342q47 12 82 48q35 37 68 89t57 74q14 41 64 132q49 91 65 153q12 -4 32 9t40 5q-4 -16 -7 -65t-28 -72q-63 -240 -164 -324q-6 -2 -5 -11t1 -11q-8 -6 -49 -47t-75 -59t-79 -21q-4 0 -7 -10t-16 -7t-124 2t-131 1q-109 14 -140 178
q-32 164 -3 352q30 188 73 288q42 101 104 219t76 146t22 66q17 92 138 252q61 84 146 174q6 6 22 6q6 2 3 9t5 12q47 27 157 13t144 -40q0 -27 -2 -35z" />
    <glyph glyph-name="Egrave" unicode="&#xc8;" horiz-adv-x="1400" 
d="M920 1751h-23q-40 -95 -149 68q-88 117 -113 153q0 23 10 47q33 17 80 31h4q37 -15 62 -35h2q6 -6 10 -8q68 -145 129 -219q-12 -35 -12 -37zM588 459l-10 -15q0 -4 8 -1t14 1q0 -29 -10 -36t-23 -13q0 -4 5 -6t8 2v4q6 -16 -1 -41t-4 -37q-27 -14 -29 -19t5 -3q6 2 8 0
q0 -25 -24 -23q12 -24 -12 -94t-9 -92q43 -2 122 0t120 0q12 -14 10 -47q-4 0 -18 -14q-125 10 -424 -32t-402 -30q-16 45 -10 76q10 4 43 5t47 7q4 20 27 138t35 164t42 117q31 72 41 102t63 166q52 136 70 192t68 172q51 117 116 252t87 188l-82 31q0 43 -6 80l12 2
q10 4 8 14q5 0 17 -10t28 -6q10 4 4 13t-2 17q2 3 14 5t13 8q8 -2 12 -14t11 -13q74 -10 394 -4t365 -23q1 -4 9 -17t12 -21q-14 -20 -27 -31q-47 -2 -132 5t-136 3q-39 -49 -70 -166q-4 -2 -12 0q-27 -109 -118 -276q-91 -166 -93 -195q25 6 79 8t81 9q2 -3 16 -19t17 -31
q-12 -10 -27 -30q-35 0 -47 1q-33 3 -81 -14t-85 -26q-2 -31 -43 -147t-45 -150q-2 -6 -8 -3t-13 3q6 -37 7 -39q-8 -2 -12 5q-3 7 -5 7q-4 -12 -1 -36t-1 -33q-2 27 -16 10z" />
    <glyph glyph-name="Eacute" unicode="&#xc9;" horiz-adv-x="1400" 
d="M770 1751q0 2 -12 37q61 74 129 219q4 2 10 8h2q18 18 62 35h4q47 -14 79 -31q10 -25 11 -47q-25 -37 -113 -153q-68 -97 -100 -105t-49 37h-23zM469 1573q0 43 -6 80q2 2 12 4t8 12q5 0 17 -10t28 -6q10 4 4 13t-2 17q2 3 14 5t13 8q8 -2 12 -14t11 -13q116 -8 396 -3
t363 -24q1 -4 9 -17t12 -21q-14 -20 -27 -31q-47 -2 -132 5t-136 3q-39 -49 -70 -166q-4 -2 -12 0q-27 -109 -118 -276q-91 -166 -93 -195q25 6 79 8t81 9q2 -3 16 -19t17 -31q-12 -10 -27 -30q-35 0 -47 1q-33 3 -81 -14t-85 -26q-2 -31 -43 -147t-45 -150q-2 -6 -8 -3
t-13 3q6 -37 7 -39q-8 -2 -12 5q-3 7 -5 7q-2 -12 -1 -36t-1 -33q0 10 -3 16t-23 -21q2 -4 9 0t13 0q0 -29 -10 -36t-23 -13q4 -6 11 -8q2 2 2 8q6 -16 -1 -41t-4 -37q-34 -18 -29 -23q1 -1 8 4t5 -3q0 -25 -24 -23q12 -24 -12 -94t-9 -92q43 -2 122 0t120 0q12 -14 10 -47
q-8 0 -18 -14q-125 10 -424 -32t-402 -30q-16 45 -10 76q10 4 43 5t47 7q4 20 27 138t35 164t42 117q31 72 41 102t63 166q52 136 70 192t68 172q51 117 116 252t87 188q-14 8 -47 20t-35 11z" />
    <glyph glyph-name="Ecircumflex" unicode="&#xca;" horiz-adv-x="1400" 
d="M1237 1751h-23q-40 -95 -149 68q-88 117 -113 153q-25 -37 -112 -153q-68 -97 -100 -105t-50 37h-22q0 2 -13 37q61 74 129 219q4 2 11 8h2q19 19 61 35h4q47 -14 80 -31q10 -25 10 -47q0 23 11 47q33 16 79 31h5q43 -17 61 -35h2q6 -6 10 -8q68 -145 129 -219
q-12 -35 -12 -37zM469 1573q0 43 -6 80q2 2 12 4t8 12q5 0 17 -10t28 -6q10 4 4 13t-2 17q2 3 14 5t13 8q8 -2 12 -14t11 -13q116 -8 396 -3t363 -24q1 -4 9 -17t12 -21q-14 -20 -27 -31q-47 -2 -132 5t-136 3q-39 -49 -70 -166q-4 -2 -12 0q-27 -109 -118 -276
q-91 -166 -93 -195q25 6 79 8t81 9q2 -3 16 -19t17 -31q-12 -10 -27 -30q-35 0 -47 1q-33 3 -81 -14t-85 -26q-2 -31 -43 -147t-45 -150q-2 -6 -8 -3t-13 3q6 -37 7 -39q-8 -2 -12 5q-3 7 -5 7q-2 -12 -1 -36t-1 -33q0 10 -3 16t-23 -21q2 -4 9 0t13 0q0 -29 -10 -36
t-23 -13q4 -6 11 -8q2 2 2 8q6 -16 -1 -41t-4 -37q-34 -18 -29 -23q1 -1 8 4t5 -3q0 -25 -24 -23q12 -24 -12 -94t-9 -92q43 -2 122 0t120 0q12 -14 10 -47q-8 0 -18 -14q-125 10 -424 -32t-402 -30q-16 45 -10 76q10 4 43 5t47 7q4 20 27 138t35 164t42 117q31 72 41 102
t63 166q52 136 70 192t68 172q51 117 116 252t87 188q-14 8 -47 20t-35 11z" />
    <glyph glyph-name="Edieresis" unicode="&#xcb;" horiz-adv-x="1400" 
d="M1128 1864q0 -6 12 -6t11 -5q-4 0 -4 -4t-2 -4q6 -6 14 -2q0 2 4 7t2 10q-6 2 -6 4q-6 -2 -24 2t-21 0l12 -8q0 6 2 6zM1157 1864l4 6q-4 8 -16 4q-6 -4 2 -8q2 6 5 2t5 -4zM1157 1884l2 12q8 4 9 -5t-7 -11q6 0 6 4q11 -16 7 -38t0 -40l-13 -2q0 -14 10 -14q-6 -4 -12 2
q3 -17 -17 -35q-19 -18 -26 -26h-8l-31 -5l-2 -2h-4l-2 5q-76 4 -90 30h12q-2 4 -12 9t-6 10l-15 -4q0 42 -1 74t9 50t40 35h20l12 13q70 12 66 -37l4 14q6 -6 16 -5t23 -1q-4 -6 -14 0q1 -4 -5 -8t-6 -8q6 -2 10 2t13 4q2 -6 -7 -8t-10 -7q2 -4 14 -3t15 -5zM801 1858
q6 0 6 -5q-2 0 -2 -4t-4 -4q8 -4 16 -2q0 2 4 7t2 10q-6 2 -6 4q-6 -2 -24 2t-21 0l12 -8q0 6 2 6q-2 -4 4 -5t11 -1zM813 1864l6 6q-6 8 -16 4q-6 -4 2 -8l2 4q4 -6 6 -6zM647 1759q0 5 -10 8q-10 6 -6 11l-17 -4q0 74 20 110t103 64q25 -8 25 -39l4 14q6 -6 16 -5t23 -1
q-4 -6 -14 0q1 -4 -5 -8t-6 -8q8 -2 12 2t9 4q2 -6 -1 -7q-3 0 -8 -2t-6 -6q2 -4 14 -3t13 -5q6 10 4 12q6 4 8 -5t-6 -11q6 0 6 4q10 -16 6 -38t0 -40l-12 -2q0 -14 10 -14q-6 -4 -12 2q0 -17 -18 -35t-25 -26h-8l-31 -5q-2 0 -6 -2l-2 5q-78 4 -90 30h10zM469 1573
q0 43 -6 80q2 2 12 4t8 12q5 0 17 -10t28 -6q10 4 4 13t-2 17q2 3 14 5t13 8q8 -2 12 -14t11 -13q116 -8 396 -3t363 -24q1 -4 9 -17t12 -21q-14 -20 -27 -31q-47 -2 -132 5t-136 3q-39 -49 -70 -166q-4 -2 -12 0q-27 -109 -118 -276q-91 -166 -93 -195q25 6 79 8t81 9
q2 -3 16 -19t17 -31q-12 -10 -27 -30q-35 0 -47 1q-33 3 -81 -14t-85 -26q-2 -31 -43 -147t-45 -150q-2 -6 -8 -3t-13 3q6 -37 7 -39q-8 -2 -12 5q-3 7 -5 7q-2 -12 -1 -36t-1 -33q0 10 -3 16t-23 -21q2 -4 9 0t13 0q0 -29 -10 -36t-23 -13q4 -6 11 -8q2 2 2 8q6 -16 -1 -41
t-4 -37q-34 -18 -29 -23q1 -1 8 4t5 -3q0 -25 -24 -23q12 -24 -12 -94t-9 -92q43 -2 122 0t120 0q12 -14 10 -47q-8 0 -18 -14q-125 10 -424 -32t-402 -30q-16 45 -10 76q10 4 43 5t47 7q4 20 27 138t35 164t42 117q31 72 41 102t63 166q52 136 70 192t68 172
q51 117 116 252t87 188q-14 8 -47 20t-35 11zM1159 1792q0 2 -1 5t-1 5q-2 -6 2 -10zM817 1792l-4 10q0 -8 4 -10z" />
    <glyph glyph-name="Igrave" unicode="&#xcc;" horiz-adv-x="1359" 
d="M961 1751h-23q-40 -95 -143 59q-3 6 -49 66t-70 96q0 23 10 47q33 17 80 31h4q43 -17 61 -35h3q6 -6 10 -8q68 -145 129 -219q-12 -35 -12 -37zM615 1027q16 16 18 26q-6 2 -12 -6q-5 -7 -6 -20zM602 1456q8 0 14 6t2 11q-8 3 -11 -3t-5 -14zM1159 1694q119 0 146 -27
q10 -10 14 -22q-20 -7 -33 -7t-45 11q-14 -3 -6 -13t4 -18q-33 10 -93 9t-108 1q-6 -16 20 -34t17 -42l58 -34q-4 -39 -38 -107t-37 -80t-5 -14t-7 -3t-8 -3q-8 -49 -101 -291t-103 -291q-4 2 -8 -3t-7 -5q-20 -84 -77 -284t-83 -359q19 6 63 8t62 10q10 -6 12 -25t3 -24
q-27 -12 -29 -20q0 -4 2 -11q-57 -12 -293 -34t-291 -39q15 14 25 16q-4 6 -16 3t-15 5q-8 -2 -1 -9t1 -15q-29 6 -32 8q6 -14 -25 -11t-51 11q10 8 20 8l47 -8q4 19 -20 17q-10 -1 -31 -5t-27 -4q-61 53 -63 107q47 -6 190 4q0 6 -3 20t8 25q10 12 12 16q48 197 153 525
q105 327 120 376t54 215q38 166 54 205t41 82t30 68q-23 12 -91 9t-103 7q-4 70 8 88q41 -31 197 -31q8 -2 13 6t7 9q92 -5 263 -1q172 5 206 5z" />
    <glyph glyph-name="Iacute" unicode="&#xcd;" horiz-adv-x="1359" 
d="M831 1751q0 2 -12 37q61 74 129 219q4 2 10 8h3q19 19 61 35h4q47 -14 80 -31q10 -25 10 -47q-25 -37 -112 -153q-68 -97 -100 -105t-50 37h-23zM615 1027q16 16 18 26q-6 2 -12 -6q-5 -7 -6 -20zM602 1456q8 0 14 6t2 11q-8 1 -11 -3t-5 -14zM1162 1694h48q95 0 109 -49
q-20 -7 -33 -7t-45 11q-14 -3 -6 -13t4 -18q-6 10 -92 9t-109 1q-6 -16 20 -34t17 -42l58 -34q-4 -39 -38 -107t-38 -80t-13 -18q-4 0 -6 -2q-8 -49 -101 -291t-103 -291q-4 2 -8 -3t-7 -5q-20 -84 -77 -284t-83 -359q19 6 63 8t62 10q10 -6 12 -25t3 -24q-15 -4 -17 -6
t-8 -7t-3 -7t1 -11q-57 -12 -293 -34t-291 -39q15 14 25 16q-6 6 -16 3t-15 5q-8 -2 -1 -9t1 -15q-29 6 -32 8q4 -8 -5 -10q-23 -10 -71 10q10 8 20 8l47 -8q4 19 -20 17q-10 -1 -31 -5t-27 -4q-61 53 -63 107q47 -6 190 4q0 6 -3 20t8 25q10 12 12 16q48 197 153 525
q105 327 120 376t54 215q38 166 54 205t41 82t30 68q-16 12 -91 9t-103 7q-4 70 8 88q41 -31 197 -31q8 -2 13 6t7 9q92 -5 263 -1q171 5 209 5z" />
    <glyph glyph-name="Icircumflex" unicode="&#xce;" horiz-adv-x="1359" 
d="M1217 1751h-23q-40 -95 -143 59q-3 6 -49 66t-70 96q-25 -37 -113 -153q-67 -97 -99 -105t-50 37h-23q0 2 -12 37q61 74 129 219q4 2 10 8h2q18 18 62 35h4q47 -14 80 -31q10 -25 10 -47q0 23 10 47q33 16 80 31h4q43 -17 61 -35h3q6 -6 10 -8q68 -145 129 -219
q-12 -35 -12 -37zM615 1027q16 16 18 26q-6 2 -12 -6q-5 -7 -6 -20zM602 1456q8 0 14 6t2 11q-8 1 -11 -3t-5 -14zM1162 1694h48q95 0 109 -49q-20 -7 -33 -7t-45 11q-14 -3 -6 -13t4 -18q-6 10 -92 9t-109 1q-6 -16 20 -34t17 -42l58 -34q-4 -39 -38 -107t-38 -80t-13 -18
q-4 0 -6 -2q-8 -49 -101 -291t-103 -291q-4 2 -8 -3t-7 -5q-20 -84 -77 -284t-83 -359q19 6 63 8t62 10q10 -6 12 -25t3 -24q-15 -4 -17 -6t-8 -7t-3 -7t1 -11q-57 -12 -293 -34t-291 -39q15 14 25 16q-6 6 -16 3t-15 5q-8 -2 -1 -9t1 -15q-29 6 -32 8q4 -8 -5 -10
q-23 -10 -71 10q10 8 20 8l47 -8q4 19 -20 17q-10 -1 -31 -5t-27 -4q-61 53 -63 107q47 -6 190 4q0 6 -3 20t8 25q10 12 12 16q48 197 153 525q105 327 120 376t54 215q38 166 54 205t41 82t30 68q-16 12 -91 9t-103 7q-4 70 8 88q41 -31 197 -31q8 -2 13 6t7 9
q92 -5 263 -1q171 5 209 5z" />
    <glyph glyph-name="Idieresis" unicode="&#xcf;" horiz-adv-x="1359" 
d="M1108 1884q0 -6 11 -6t11 -4q-4 0 -4 -4t-2 -4q7 -6 15 -2q0 2 4 7t2 9q-6 2 -6 4q-7 -2 -25 2t-20 0l12 -8q0 6 2 6zM1137 1884l4 6q-4 8 -17 4q-6 -4 2 -8q2 6 6 2t5 -4zM1137 1905l2 12q8 4 9 -5t-7 -11q6 0 6 4q10 -16 6 -38t0 -40l-12 -2q0 -14 10 -15q-6 -4 -12 2
q3 -16 -17 -35q-20 -18 -26 -26h-9l-30 -4l-2 -2h-4l-2 4q-76 4 -91 31h13q-2 4 -12 9t-7 9l-14 -4q0 42 -1 74t8 50t40 36h21l12 12q70 12 65 -37l4 15q7 -6 17 -6t22 -1q-4 -6 -14 0q2 -4 -4 -8t-6 -8q6 -2 10 2t12 4q2 -6 -2 -7t-9 -2t-5 -5q2 -4 14 -3t15 -5zM780 1878
q6 0 6 -4q-2 0 -2 -4t-4 -4q9 -4 17 -2q0 2 4 7t2 9q-6 2 -6 4q-7 -2 -25 2t-20 0l12 -8q0 6 2 6q-2 -4 3 -5t11 -1zM793 1884l6 6q-6 8 -17 4q-6 -4 2 -8l2 4q4 -6 7 -6zM627 1780q0 5 -11 8q-10 6 -6 10l-16 -4q0 74 20 111t103 63q25 -8 24 -39l4 15q7 -6 17 -6t22 -1
q-4 -6 -14 0q2 -4 -4 -8t-6 -8q8 -2 11 2t9 4q2 -6 -1 -7t-8 -2t-5 -5q2 -4 13 -3t14 -5q6 10 4 12q6 4 8 -5t-6 -11q6 0 6 4q10 -16 6 -38t0 -40l-12 -2q0 -14 10 -15q-6 -4 -12 2q-1 -16 -19 -34t-24 -27h-9l-30 -4q-2 0 -6 -2l-2 4q-78 4 -91 31h11zM615 1027
q16 16 18 26q-6 2 -12 -6q-5 -7 -6 -20zM602 1456q8 0 14 6t2 11q-8 1 -11 -3t-5 -14zM1162 1694h48q95 0 109 -49q-20 -7 -33 -7t-45 11q-14 -3 -6 -13t4 -18q-6 10 -92 9t-109 1q-6 -16 20 -34t17 -42l58 -34q-4 -39 -38 -107t-38 -80t-13 -18q-4 0 -6 -2
q-8 -49 -101 -291t-103 -291q-4 2 -8 -3t-7 -5q-20 -84 -77 -284t-83 -359q19 6 63 8t62 10q10 -6 12 -25t3 -24q-15 -4 -17 -6t-8 -7t-3 -7t1 -11q-57 -12 -293 -34t-291 -39q15 14 25 16q-6 6 -16 3t-15 5q-8 -2 -1 -9t1 -15q-29 6 -32 8q4 -8 -5 -10q-23 -10 -71 10
q10 8 20 8l47 -8q4 19 -20 17q-10 -1 -31 -5t-27 -4q-61 53 -63 107q47 -6 190 4q0 6 -3 20t8 25q10 12 12 16q48 197 153 525q105 327 120 376t54 215q38 166 54 205t41 82t30 68q-16 12 -91 9t-103 7q-4 70 8 88q41 -31 197 -31q8 -2 13 6t7 9q92 -5 263 -1q171 5 209 5z
M1139 1812q0 2 -1 6t-1 5q-2 -7 2 -11zM797 1812l-4 11q0 -9 4 -11z" />
    <glyph glyph-name="Eth" unicode="&#xd0;" horiz-adv-x="921" 
d="M446 295q287 424 338 676q-51 119 -112 193t-160 91q5 -22 -4 -39q-10 -18 -12 -22v-35q-38 -95 -52 -169t-28 -138q18 -2 95 -6q144 -7 87 -88l12 -19q-10 -3 -14 -13t-8 -17q-41 6 -201 6q-76 -387 -98 -539q61 31 157 119zM94 100q-2 -14 14 -21t31 1q-4 12 -45 20z
M0 286q0 12 9 65t11 69t13 70q10 54 15 82t26 128q-45 -2 -82 -6q-47 18 -107 78q0 8 13 8q8 -2 6 4q-8 14 -19 21q33 55 47 55q39 2 172 2q4 18 9 51q10 15 22 13q-20 12 4 30q2 8 -2 10q-4 1 -10 1t-6 4q8 41 36 107t36 104q-14 14 -9 48q6 34 25 44q-4 18 -4 26l18 62
q-10 6 -53 24t-60 38t-10 57q16 1 34 -11t32 -12l12 31l62 -23q14 18 24 68t10 51q178 -6 256 -115q6 2 14 -1t13 -3q-2 -14 0 -27q5 -34 -14 -26q14 -16 14 -39q14 -10 102 -63t143 -113q55 -61 70 -127q16 -65 -16 -211q-32 -46 -102 -240t-97 -233q-4 -4 -8 0l-6 -2
q6 -4 6 -6q-135 -131 -172 -176q-133 -100 -172 -150q-25 -5 -69 -29t-79 -20q-36 4 -90 31q-53 27 -63 46t-9 54t-3 40t2 52t6 59z" />
    <glyph glyph-name="Ntilde" unicode="&#xd1;" horiz-adv-x="1916" 
d="M1487 1843q4 -4 -16 -49t-40 -61q-21 -17 -45 -29t-44 -24t-62 -11h-14q-72 -14 -142 32q-142 92 -235 56q-64 -24 -99 -40q-34 -15 -45 -1q-14 10 -6 35q33 86 99 111q8 2 24 14h4q50 21 118 27t101 -22t138 -83q66 -37 123 0q81 33 99 54q17 22 25 14q2 0 17 -23z
M913 1477l27 -37q-4 -535 86 -901q25 49 84 230t113 249q43 104 146 332t153 354q285 -86 331 -109q-6 -25 0 -29q7 -6 14 -10t9 -6q0 -16 -9 -45t-3 -43q-28 -28 -44 -67q-20 -47 -76 -146t-73 -178q-68 -90 -129 -303q-8 0 -18 -11t-21 -12q12 -27 -18 -34
q-7 -90 -15 -126t-71 -242q-63 -207 -65 -239t4 -63q5 -31 -1 -37q-18 -47 -181 -58t-218 11l-10 15t-25 12q10 20 -6 51t-16 41q47 90 47 432q-8 8 -18 36q-9 28 -27 31q10 76 -13 189q0 2 -8 18t8 29q2 8 -1 10t-6 1q-9 -3 -9 7q-4 299 -29 388q-20 -20 -43 -80
q-6 -23 -34 -129q-36 -137 -99 -297q-64 -160 -82 -238q-86 -356 -161 -469q-16 -2 -28 10t-22 13q-10 -6 1 -18t-13 -28t-29 -20q-16 2 -147 6t-166 25q-10 54 30 132t100 290t142 403q16 88 90 263q73 175 85 263q8 29 35 78q62 108 48 160q29 -4 173 -15t208 -42
q4 -29 0 -47z" />
    <glyph glyph-name="Ograve" unicode="&#xd2;" horiz-adv-x="1288" 
d="M1022 1751h-23q-40 -95 -149 68q-88 117 -113 153q0 23 11 47q32 17 79 31h4q45 -18 62 -35h2q6 -6 10 -8q68 -145 129 -219q-12 -35 -12 -37zM31 233q6 2 12 -1t10 1q-8 39 -20 46q-8 -8 -1 -20t-1 -26zM20 336q4 -2 10 1t7 3q2 8 -1 11t-13 1q-3 -6 -3 -16zM748 1262
q18 -4 18 12q-18 4 -18 -12zM956 1569q16 0 50 5t57 3q-9 25 -53 20t-54 -28zM496 1411q0 10 -9 12q80 71 177 172q10 -2 88 -4t90 0q4 8 -101 8l-63 5q12 8 35 34t39 35q66 0 158 -9t110 -26q94 2 139 -43q53 -44 53 -79q-24 -25 -80 -60t-77 -51q-62 -19 -107 -70
q-14 -16 -43 -52t-39 -48q-27 -10 -32 -10q-3 -6 4 -8q6 -3 8 -5q-29 -44 -59 -84q-29 -40 -79 -118q-71 -110 -104 -246q-31 -39 -80 -224t-39 -280q1 -99 7 -126q6 -28 34 -56t31 -41q160 94 352 461q31 61 83 196q52 134 64 182t45 160q34 112 36 215l-7 23q2 10 14 36
q11 26 11 37t-10 31t-6 37q29 10 47 5t32 -7t22 -28q7 -25 6 -48t-3 -37t-5 -38t-5 -39q-2 -14 -3 -63t-19 -98q-17 -50 -28 -102q-18 -88 -50 -112q1 -28 -15 -51t-21 -34t-21 -69q-43 -148 -68 -151q6 -53 -37 -103q-96 -236 -289 -413q-25 -100 -143 -101q-4 -2 -15 -18
q-18 2 -154 6t-174 12q-69 15 -125 109q-28 45 -40 59q2 2 3 11t5 10q0 4 -16 4q-10 6 -7 41q4 35 4 39l-20 65q0 10 6 30t7 30t-9 28q0 18 15 62t10 65l26 31q0 4 -8 6t-8 4q14 10 8 58q14 18 45 107t27 106q12 -1 10 -15q4 2 9 5t9 5q2 4 -6 5h-14q16 31 8 47q2 10 15 10
q-6 6 9 28t5 33q6 -4 11 2t7 7q-2 2 -20 8q18 35 60 91q42 55 52 75t5 22q-4 2 -5 6q55 111 199 269l-16 8q18 14 39 14z" />
    <glyph glyph-name="Oacute" unicode="&#xd3;" horiz-adv-x="1288" 
d="M872 1751q0 2 -12 37q61 74 129 219q4 2 10 8h2q27 22 62 35h4q47 -14 80 -31q10 -25 10 -47q-25 -37 -113 -153q-68 -97 -100 -105t-49 37h-23zM31 233q6 2 12 -1t10 1q-8 39 -20 46q-8 -8 -1 -21t-1 -25zM20 336q4 -2 10 1t7 3q2 8 -1 11t-13 1q-3 -6 -3 -16zM748 1262
q18 -4 18 12q-18 4 -18 -12zM956 1569q16 0 50 5t57 3q-9 25 -53 20t-54 -28zM139 848h11q-6 6 9 28t5 33q6 -4 11 2t7 7q-2 2 -20 8q18 35 60 91q42 55 52 75t5 22q-4 2 -5 6q55 111 199 269l-16 8q18 14 39 14q0 10 -9 12q80 71 177 172q10 -2 88 -4t90 0q2 6 -81 8t-83 5
q12 8 35 34t39 35q66 0 158 -9t110 -26q99 2 165 -64q24 -24 27 -58q-24 -25 -80 -60t-77 -51q-62 -19 -107 -70q-14 -16 -43 -52t-39 -48q-27 -10 -32 -10q0 -4 6 -11q4 0 6 -2q-29 -44 -59 -84q-29 -40 -79 -118q-71 -110 -104 -246q-31 -39 -80 -224t-39 -280
q1 -99 7 -126q6 -28 34 -56t31 -41q160 94 352 461q31 61 83 196q52 134 64 182t45 160q34 112 36 215l-7 23q2 10 14 36q11 26 11 37t-10 31t-6 37q29 10 47 5t32 -7t22 -28q7 -25 6 -48t-3 -37t-5 -38t-5 -39q-2 -14 -3 -63t-19 -98q-17 -50 -28 -102q-18 -88 -50 -112
q1 -28 -15 -51t-21 -34t-21 -69q-43 -148 -68 -151q6 -53 -37 -103q-96 -236 -289 -413q-25 -100 -143 -101q-4 -2 -15 -18q-18 2 -154 6t-174 12q-69 15 -125 109q-28 45 -40 59q2 2 2 12t6 9q0 4 -16 4q-10 6 -7 41q4 35 4 39l-20 65q0 10 6 30t7 30t-9 28q0 18 15 62
t10 65l26 31q0 4 -8 6t-8 4q14 10 8 58q14 18 45 107t27 106q12 -1 10 -15l18 10q0 5 -20 5q16 31 8 47q0 10 4 10z" />
    <glyph glyph-name="Ocircumflex" unicode="&#xd4;" horiz-adv-x="1288" 
d="M688 1751q0 2 -12 37q61 74 129 219q4 2 10 8h2q18 18 62 35h4q47 -14 80 -31q10 -25 10 -47q0 23 10 47q33 16 80 31h4q43 -17 61 -35h2q6 -6 11 -8q68 -145 129 -219q-12 -35 -13 -37h-22q-40 -95 -143 59q-4 6 -50 66t-69 96q-25 -37 -113 -153q-68 -97 -100 -105
t-49 37h-23zM31 233q6 2 12 -1t10 1q-8 39 -20 46q-8 -8 -1 -21t-1 -25zM20 336q4 -2 10 1t7 3q2 8 -1 11t-13 1q-3 -6 -3 -16zM748 1262q18 -4 18 12q-18 4 -18 -12zM956 1569q16 0 50 5t57 3q-9 25 -53 20t-54 -28zM139 848h11q-6 6 9 28t5 33q6 -4 11 2t7 7q-2 2 -20 8
q18 35 60 91q42 55 52 75t5 22q-4 2 -5 6q55 111 199 269l-16 8q18 14 39 14q0 10 -9 12q80 71 177 172q10 -2 88 -4t90 0q2 6 -81 8t-83 5q12 8 35 34t39 35q66 0 158 -9t110 -26q99 2 165 -64q24 -24 27 -58q-24 -25 -80 -60t-77 -51q-62 -19 -107 -70q-14 -16 -43 -52
t-39 -48q-27 -10 -32 -10q0 -4 6 -11q4 0 6 -2q-29 -44 -59 -84q-29 -40 -79 -118q-71 -110 -104 -246q-31 -39 -80 -224t-39 -280q1 -99 7 -126q6 -28 34 -56t31 -41q160 94 352 461q31 61 83 196q52 134 64 182t45 160q34 112 36 215l-7 23q2 10 14 36q11 26 11 37t-10 31
t-6 37q29 10 47 5t32 -7t22 -28q7 -25 6 -48t-3 -37t-5 -38t-5 -39q-2 -14 -3 -63t-19 -98q-17 -50 -28 -102q-18 -88 -50 -112q1 -28 -15 -51t-21 -34t-21 -69q-43 -148 -68 -151q6 -53 -37 -103q-96 -236 -289 -413q-25 -100 -143 -101q-4 -2 -15 -18q-18 2 -154 6
t-174 12q-69 15 -125 109q-28 45 -40 59q2 2 2 12t6 9q0 4 -16 4q-10 6 -7 41q4 35 4 39l-20 65q0 10 6 30t7 30t-9 28q0 18 15 62t10 65l26 31q0 4 -8 6t-8 4q14 10 8 58q14 18 45 107t27 106q12 -1 10 -15l18 10q0 5 -20 5q16 31 8 47q0 10 4 10z" />
    <glyph glyph-name="Otilde" unicode="&#xd5;" horiz-adv-x="1288" 
d="M1364 1843q4 -4 -16 -49t-40 -61q-20 -17 -44 -29t-44 -24t-63 -11h-14q-73 -14 -143 32q-141 92 -234 56q-64 -24 -98 -39q-35 -16 -45 -2q-14 10 -7 35q33 86 99 111q8 2 24 14h4q50 21 118 27q69 6 102 -22t137 -83q66 -37 123 0q81 33 98 54t23 17q6 -3 20 -26z
M31 233q6 2 12 -1t10 1q-8 39 -20 46q-8 -8 -1 -20t-1 -26zM20 336q4 -2 10 1t7 3q2 8 -1 11t-13 1q-3 -6 -3 -16zM748 1262q18 -4 18 12q-18 4 -18 -12zM956 1569q16 0 50 5t57 3q-9 25 -53 20t-54 -28zM496 1411q0 10 -9 12q80 71 177 172q10 -2 88 -4t90 0q4 8 -101 8
l-63 5q12 8 35 34t39 35q66 0 158 -9t110 -26q94 2 139 -43q53 -44 53 -79q-24 -25 -80 -60t-77 -51q-62 -19 -107 -70q-14 -16 -43 -52t-39 -48q-27 -10 -32 -10q-3 -6 4 -8q6 -3 8 -5q-29 -44 -59 -84q-29 -40 -79 -118q-71 -110 -104 -246q-31 -39 -80 -224t-39 -280
q1 -99 7 -126q6 -28 34 -56t31 -41q160 94 352 461q31 61 83 196q52 134 64 182t45 160q34 112 36 215l-7 23q2 10 14 36q11 26 11 37t-10 31t-6 37q29 10 47 5t32 -7t22 -28q7 -25 6 -48t-3 -37t-5 -38t-5 -39q-2 -14 -3 -63t-19 -98q-17 -50 -28 -102q-18 -88 -50 -112
q1 -28 -15 -51t-21 -34t-21 -69q-43 -148 -68 -151q6 -53 -37 -103q-96 -236 -289 -413q-25 -100 -143 -101q-4 -2 -15 -18q-18 2 -154 6t-174 12q-69 15 -125 109q-28 45 -40 59q2 2 3 11t5 10q0 4 -16 4q-10 6 -7 41q4 35 4 39l-20 65q0 10 6 30t7 30t-9 28q0 18 15 62
t10 65l26 31q0 4 -8 6t-8 4q14 10 8 58q14 18 45 107t27 106q12 -1 10 -15q4 2 9 5t9 5q2 4 -6 5h-14q16 31 8 47q2 10 15 10q-6 6 9 28t5 33q6 -4 11 2t7 7q-2 2 -20 8q18 35 60 91q42 55 52 75t5 22q-4 2 -5 6q55 111 199 269l-16 8q18 14 39 14z" />
    <glyph glyph-name="Odieresis" unicode="&#xd6;" horiz-adv-x="1288" 
d="M1169 1884q-1 -6 11 -6t12 -4q-4 0 -4 -4t-2 -4q6 -6 14 -2q0 2 4 7t2 9q-6 2 -6 4q-6 -2 -24 2t-21 0l12 -8q0 6 2 6zM1198 1884l4 6q-4 8 -16 4q-6 -4 2 -8q2 6 5 2t5 -4zM1198 1905l2 12q8 4 9 -5t-7 -11q6 0 6 4q10 -16 6 -38t0 -40l-12 -2q0 -14 10 -15q-6 -4 -12 2
q3 -15 -17 -34q-19 -19 -26 -27h-8l-31 -4l-2 -2h-4l-2 4q-76 4 -90 31h12q-2 4 -12 9t-6 9l-15 -4q0 42 -1 74q-2 32 8 50t41 36h20l12 12q70 12 66 -37l4 15q6 -6 16 -6t23 -1q-4 -6 -14 0q2 -4 -4 -8t-7 -8q6 -2 10 2t13 4q2 -6 -2 -7t-9 -2t-6 -5q3 -4 15 -3t14 -5z
M842 1878q6 0 6 -4q-2 0 -2 -4t-4 -4q8 -4 16 -2q0 2 4 7t2 9q-6 2 -6 4q-6 -2 -24 2t-21 0l12 -8q0 6 2 6q-2 -4 3 -5q6 -1 12 -1zM854 1884l6 6q-6 8 -16 4q-6 -4 2 -8l2 4q4 -6 6 -6zM688 1780q0 5 -10 8q-10 6 -6 10l-17 -4q0 74 20 111t103 63q25 -8 25 -39l4 15
q6 -6 16 -6t23 -1q-4 -6 -15 0q2 -4 -4 -8t-6 -8q8 -2 11 2t10 4q2 -6 -1 -7t-8 -2t-6 -5q1 -4 13 -3t14 -5q6 10 4 12q6 4 8 -5t-6 -11q6 0 6 4q10 -16 6 -38t0 -40l-12 -2q0 -14 10 -15q-6 -4 -12 2q0 -15 -18 -34t-25 -27h-8l-31 -4q-2 0 -6 -2l-2 4q-78 4 -90 31h10z
M31 233q6 2 12 -1t10 1q-8 39 -20 46q-8 -8 -1 -21t-1 -25zM20 336q4 -2 10 1t7 3q2 8 -1 11t-13 1q-3 -6 -3 -16zM748 1262q18 -4 18 12q-18 4 -18 -12zM956 1569q16 0 50 5t57 3q-9 25 -53 20t-54 -28zM139 848h11q-6 6 9 28t5 33q6 -4 11 2t7 7q-2 2 -20 8q18 35 60 91
q42 55 52 75t5 22q-4 2 -5 6q55 111 199 269l-16 8q18 14 39 14q0 10 -9 12q80 71 177 172q10 -2 88 -4t90 0q2 6 -81 8t-83 5q12 8 35 34t39 35q66 0 158 -9t110 -26q99 2 165 -64q24 -24 27 -58q-24 -25 -80 -60t-77 -51q-62 -19 -107 -70q-14 -16 -43 -52t-39 -48
q-27 -10 -32 -10q0 -4 6 -11q4 0 6 -2q-29 -44 -59 -84q-29 -40 -79 -118q-71 -110 -104 -246q-31 -39 -80 -224t-39 -280q1 -99 7 -126q6 -28 34 -56t31 -41q160 94 352 461q31 61 83 196q52 134 64 182t45 160q34 112 36 215l-7 23q2 10 14 36q11 26 11 37t-10 31t-6 37
q29 10 47 5t32 -7t22 -28q7 -25 6 -48t-3 -37t-5 -38t-5 -39q-2 -14 -3 -63t-19 -98q-17 -50 -28 -102q-18 -88 -50 -112q1 -28 -15 -51t-21 -34t-21 -69q-43 -148 -68 -151q6 -53 -37 -103q-96 -236 -289 -413q-25 -100 -143 -101q-4 -2 -15 -18q-18 2 -154 6t-174 12
q-69 15 -125 109q-28 45 -40 59q2 2 2 12t6 9q0 4 -16 4q-10 6 -7 41q4 35 4 39l-20 65q0 10 6 30t7 30t-9 28q0 18 15 62t10 65l26 31q0 4 -8 6t-8 4q14 10 8 58q14 18 45 107t27 106q12 -1 10 -15l18 10q0 5 -20 5q16 31 8 47q0 10 4 10zM1200 1812q0 2 -1 6t-1 5
q-2 -7 2 -11zM858 1812l-4 11q0 -9 4 -11z" />
    <glyph glyph-name="multiply" unicode="&#xd7;" horiz-adv-x="550" 
d="M352 801q47 -60 124 -168t-17 -115l-6 -22h-37q-29 45 -160 198q-127 -145 -162 -198h-37l-6 22q-100 6 4 146q2 2 7 9t96 128q-96 111 -148 157q-16 53 -6 134q6 6 12 -2t9 -5q4 16 4 29q48 9 71 -2q33 -35 156 -186q109 139 154 186q23 12 71 2q0 -12 4 -29q3 -3 9 5
t12 2q10 -80 -6 -134q-52 -46 -148 -157z" />
    <glyph glyph-name="Oslash" unicode="&#xd8;" horiz-adv-x="1550" 
d="M1401 1733q14 23 59 27t49 -19q-23 2 -57 -3t-51 -5zM735 1280q23 -4 25 14q-21 0 -25 -14zM-20 354l18 4q4 14 -12 15q-6 -12 -6 -19zM-12 254q6 0 12 -3t10 3q-4 37 -20 43q-6 -7 0 -19t-2 -24zM956 1587q14 0 50 6t59 4q-9 23 -53 18t-56 -28zM1053 1425
q-65 -19 -111 -68t-88 -104q-20 -10 -33 -8q-2 -6 5 -9t8 -5q-6 -9 -44 -61q-131 -177 -188 -316q414 479 450 533q35 55 48 71q-22 -13 -47 -33zM475 514q-4 -16 -23 -88t-12 -145v-134q4 -23 31 -49t31 -43q100 57 187 174q159 214 274 485q57 136 68 181t52 161t45 216
q-6 16 -4 25t13 34q10 25 12 35q-105 -142 -321 -416t-353 -436zM-16 125q0 10 8 10q0 4 -17 4q-10 8 -4 41t6 39l-20 66q2 10 9 29q7 18 8 28t-7 31q0 16 17 60q16 44 10 67q2 2 11 14t18 16q-1 4 -9 6t-8 3q14 12 10 57q14 18 50 107q35 89 30 106q6 1 9 0q18 32 8 49
q2 8 16 8q-6 6 9 29t5 33q9 -2 21 10q-2 4 -21 8q18 33 63 90q44 56 54 76t6 22t-2 5q57 113 205 268q0 2 -6 3t-8 7q14 14 37 13q2 10 -9 14q141 129 183 170l178 -4q4 7 -79 9q-83 1 -83 5q14 8 37 35t37 35q244 -10 268 -35q82 2 133 -41q31 -25 43 -43q43 59 60 90
q2 2 12 1t12 7q6 10 4 10q-14 2 -16 5q23 13 36 27q13 13 19 17q9 5 21 -20q-2 -10 -20 -48t-15 -58q2 -6 14 -11q-41 -69 -75 -101t-52 -56q36 -8 38 -44t-6 -87q-7 -50 -14 -109q-6 -58 -10 -72t-19 -54t-20 -56q-14 -76 -26 -109q-9 -8 -19 -21t-16 -20q0 -27 -18 -49
q-18 -23 -22 -33q-6 -10 -24 -69q-46 -148 -73 -154q6 -49 -39 -100q-102 -233 -305 -414q-13 -49 -55 -75t-91 -25q-10 -10 -16 -19q-18 2 -151 6q-134 4 -180 14q-46 11 -85 68q-64 -56 -69 -61q-47 34 -70 18t-45 37q39 62 55 68t29 2l33 33q2 2 2 12zM105 809q4 0 1 -12
l19 8q0 7 -9 5t-11 -1z" />
    <glyph glyph-name="Ugrave" unicode="&#xd9;" horiz-adv-x="1265" 
d="M920 1751h-23q-40 -95 -149 68q-88 117 -113 153q0 23 10 47q33 17 80 31h4q37 -15 62 -35h2q6 -6 10 -8q68 -145 129 -219q-12 -35 -12 -37zM412 244l6 41q-27 3 -29 -11q14 0 15 -13t8 -17zM145 281q4 13 -3 15q-7 1 -13 1q-2 -14 2 -18t14 2zM526 731h19q1 10 -9 12
q-10 3 -10 -12zM1126 1074q0 -6 -4 -24t0 -34q-2 -4 -9 -1t-13 1q-4 -8 5 -11t7 -10q-45 -86 -59 -190q-4 2 -6 6t-7 4q-2 -4 -3 -18t-11 -19q2 -6 6 -5t6 -3q-24 -38 -118 -278t-150 -314q0 -4 2 -9t0 -11q-53 -68 -89 -108t-108 -82t-145 -40q-131 4 -352 62q-2 4 -11 44
q-17 74 -67 87q23 244 80 414q82 225 90 284t42 136t41 97t11 55t9 55t31 73t34 76q-4 20 -4 27t13 27t48 127q36 107 82 153q2 8 -1 14t-3 12q45 23 147 -14t160 -78q4 -2 12 -2t15 -5t27 -33t32 -34q-6 -25 8 -30q-14 -78 -47 -95q-3 -7 4 -8q7 -2 9 -4q-31 -49 -84 -162
q-6 2 -12 -2t-11 -4q2 -18 -15 -43q-24 -36 -32 -80q-5 -29 -20 -20q6 -33 -17 -78t-22 -64q-10 -8 -19 0q4 -4 4 -34q-8 -2 -16 1t-10 -1q-2 -9 0 -13t12 -2q-4 -6 -4 -14t-2 -12q-8 -4 -11 1t-10 -1q-1 -14 9 -9t12 5q0 -8 -3 -10q-3 -1 -7 0t-9 -3q11 -11 8 -25
q-3 -15 -3 -24q-2 0 -6 4t-9 4q6 -42 -56 -212q-15 -44 -15 -48q-6 -6 -14 -6t-13 -8q0 -4 16 -4q-4 -25 -20 -66q-6 -6 -10 4q-2 8 -7 9q-6 -4 -2 -14q4 -9 2 -13q0 -4 6 2t11 -2q-2 -10 -9 -24q-8 -14 -10 -19q-2 -6 4 -23q-17 0 -32 -20q12 -12 12 -23q6 1 6 11t4 12
q6 -4 4 -18t-6 -19q-2 2 -6 9t-11 7t-14 -10q1 -8 13 -9t14 -5q-14 -72 -20 -88q18 -11 36 -57t39 -58q20 12 35 0q109 63 189 217q135 233 247 585t146 664q16 4 59 -12q9 -2 15 7t14 10q8 -5 14 -19t19 -16q-14 -4 -15 -5q0 -1 11 -22q-9 -2 -17 4t-14 6q0 -18 13 -25
t18 11q6 0 4 -14q-4 -14 -11 -2q10 -35 2 -58q-6 1 -4 7t0 10q-4 -8 -18 -10t-16 -3q2 -8 7 -5t11 1q2 -8 -10 -10q-8 0 -8 -6t16 -6q10 0 10 26q10 0 7 -18t-1 -27q-6 -2 -11 -2t-13 13q0 -29 20 -19q0 -8 -7 -18t-3 -25q-6 -6 -23 -4q0 -6 -3 -13t3 -9q2 -8 7 -3
q5 10 12 7l-14 -34q0 -3 8 -5q2 -8 -2 -14t-4 -13q-2 4 -10 1t-17 -1q6 23 12 66t11 61q-12 -20 -22 -76t-13 -69l26 12q4 0 13 -4q-4 -23 -35 -12q-8 -9 -10 -23t8 -20q4 0 -2 4q-8 4 -2 12q14 10 26 4q-14 -18 -28 -64t-21 -59q12 8 12 1z" />
    <glyph glyph-name="Uacute" unicode="&#xda;" horiz-adv-x="1265" 
d="M852 1751q0 2 -12 37q61 74 129 219q4 2 10 8h2q18 18 61 35h5q47 -14 79 -31q10 -25 11 -47q-25 -37 -113 -153q-68 -97 -100 -105t-50 37h-22zM412 244l6 41q-27 3 -29 -11q14 0 15 -13t8 -17zM145 281q4 20 -16 16q-2 -14 2 -18t14 2zM545 731v4q-1 10 -11 8t-8 -12
h19zM1124 1077q4 -1 -1 -23t-1 -38q-2 -4 -9 -1t-13 1q-4 -8 5 -11t7 -10q-45 -86 -59 -190q-4 2 -6 6t-7 4q-2 -4 -3 -18t-11 -19v-6q0 -2 5 0t7 -2q-24 -38 -118 -278t-150 -314q0 -4 2 -9t0 -11q-53 -68 -89 -108t-108 -82t-145 -40q-131 4 -352 62q-2 4 -11 44
q-17 74 -67 87q23 244 80 414q82 225 90 284t42 136t41 97t11 55t9 55t31 73t34 76q-4 20 -4 27t13 27t48 127q36 107 82 153q2 8 -1 14t-3 12q45 23 147 -14t160 -78q4 -2 12 -2t15 -5t27 -33t32 -34q-6 -25 8 -30q-14 -78 -47 -95q0 -4 7 -10q4 0 6 -2q-31 -49 -84 -162
q-6 2 -12 -2t-11 -4q2 -18 -15 -43t-20 -31l-6 -20q-4 -22 -6 -32q-4 -26 -20 -17q6 -33 -17 -78t-22 -64q-10 -8 -19 0q4 -4 4 -34q-8 -2 -16 1t-10 -1q-2 -9 0 -13t12 -2q-4 -6 -4 -14t-2 -12q-8 -4 -11 1t-10 -1q-1 -14 9 -9t12 5q0 -11 -8 -11t-11 -2q11 -11 8 -25
q-3 -15 -3 -24q-2 0 -6 4t-9 4q6 -42 -56 -212q-15 -44 -15 -48q-6 -6 -14 -6t-13 -8q0 -4 16 -4q-4 -25 -20 -66q-6 -6 -10 2q-2 10 -7 11q-6 -4 -2 -14q4 -9 2 -13q0 -4 6 2t11 -2q-2 -10 -9 -24q-8 -14 -10 -19q-2 -6 4 -23q-17 0 -32 -20q12 -12 12 -23q6 1 6 11t4 12
q6 -4 4 -18t-6 -19q-2 2 -6 9t-11 7t-14 -10q1 -8 13 -9t14 -5q-14 -72 -20 -88q18 -11 36 -57t39 -58q20 12 35 0q109 63 189 217q135 233 247 585t146 664q16 4 59 -12q9 -2 15 7t14 10q8 -5 14 -19t19 -16q-14 -4 -15 -5q0 -1 11 -22q-9 -2 -17 4t-14 6l6 -16
q18 -29 25 2q6 0 4 -14q-4 -14 -11 -2q10 -35 2 -58q-4 0 -4 9v8q-4 -8 -18 -10t-16 -3v-6q0 -4 6 0t12 2q2 -8 -8 -10t-10 -7t16 -5q10 0 10 26q10 0 7 -18t-1 -27q-6 -2 -11 -2t-13 13q0 -29 20 -19q0 -8 -7 -18t-3 -25q-6 -6 -23 -4q0 -6 -3 -13t3 -9q2 -6 7 -3
q6 10 12 7l-14 -34q0 -3 8 -5q2 -8 -2 -14t-4 -13q-2 4 -10 1t-17 -1q6 23 12 66t11 61q-12 -20 -22 -76t-13 -69l26 12q4 0 13 -4q-4 -23 -35 -12q-14 -14 -10 -35q0 3 4 8q14 10 26 4q-14 -18 -28 -64t-21 -59q6 4 10 4zM689 1089l1 3z" />
    <glyph glyph-name="Ucircumflex" unicode="&#xdb;" horiz-adv-x="1265" 
d="M1176 1751h-23q-40 -95 -149 68q-88 117 -113 153q-25 -37 -113 -153q-68 -97 -100 -105t-49 37h-23q0 2 -12 37q61 74 129 219q4 2 10 8h2q18 18 62 35h4q47 -14 80 -31q10 -25 10 -47q0 23 10 47q33 16 80 31h4q36 -15 62 -35h2q6 -6 10 -8q68 -145 129 -219
q-12 -35 -12 -37zM412 244l6 41q-27 3 -29 -11q14 0 15 -13t8 -17zM145 281q4 20 -16 16q-2 -14 2 -18t14 2zM545 731v4q-1 10 -11 8t-8 -12h19zM1124 1077q4 -1 -1 -23t-1 -38q-2 -4 -9 -1t-13 1q-4 -8 5 -11t7 -10q-45 -86 -59 -190q-4 2 -6 6t-7 4q-2 -4 -3 -18t-11 -19
v-6q0 -2 5 0t7 -2q-24 -38 -118 -278t-150 -314q0 -4 2 -9t0 -11q-53 -68 -89 -108t-108 -82t-145 -40q-131 4 -352 62q-2 4 -11 44q-17 74 -67 87q23 244 80 414q82 225 90 284t42 136t41 97t11 55t9 55t31 73t34 76q-4 20 -4 27t13 27t48 127q36 107 82 153q2 8 -1 14
t-3 12q45 23 147 -14t160 -78q4 -2 12 -2t15 -5t27 -33t32 -34q-6 -25 8 -30q-14 -78 -47 -95q0 -4 7 -10q4 0 6 -2q-31 -49 -84 -162q-6 2 -12 -2t-11 -4q2 -18 -15 -43t-20 -31l-6 -20q-4 -22 -6 -32q-4 -26 -20 -17q6 -33 -17 -78t-22 -64q-10 -8 -19 0q4 -4 4 -34
q-8 -2 -16 1t-10 -1q-2 -9 0 -13t12 -2q-4 -6 -4 -14t-2 -12q-8 -4 -11 1t-10 -1q-1 -14 9 -9t12 5q0 -11 -8 -11t-11 -2q11 -11 8 -25q-3 -15 -3 -24q-2 0 -6 4t-9 4q6 -42 -56 -212q-15 -44 -15 -48q-6 -6 -14 -6t-13 -8q0 -4 16 -4q-4 -25 -20 -66q-6 -6 -10 2
q-2 10 -7 11q-6 -4 -2 -14q4 -9 2 -13q0 -4 6 2t11 -2q-2 -10 -9 -24q-8 -14 -10 -19q-2 -6 4 -23q-17 0 -32 -20q12 -12 12 -23q6 1 6 11t4 12q6 -4 4 -18t-6 -19q-2 2 -6 9t-11 7t-14 -10q1 -8 13 -9t14 -5q-14 -72 -20 -88q18 -11 36 -57t39 -58q20 12 35 0
q109 63 189 217q135 233 247 585t146 664q16 4 59 -12q9 -2 15 7t14 10q8 -5 14 -19t19 -16q-14 -4 -15 -5q0 -1 11 -22q-9 -2 -17 4t-14 6l6 -16q18 -29 25 2q6 0 4 -14q-4 -14 -11 -2q10 -35 2 -58q-4 0 -4 9v8q-4 -8 -18 -10t-16 -3v-6q0 -4 6 0t12 2q2 -8 -8 -10t-10 -7
t16 -5q10 0 10 26q10 0 7 -18t-1 -27q-6 -2 -11 -2t-13 13q0 -29 20 -19q0 -8 -7 -18t-3 -25q-6 -6 -23 -4q0 -6 -3 -13t3 -9q2 -6 7 -3q6 10 12 7l-14 -34q0 -3 8 -5q2 -8 -2 -14t-4 -13q-2 4 -10 1t-17 -1q6 23 12 66t11 61q-12 -20 -22 -76t-13 -69l26 12q4 0 13 -4
q-4 -23 -35 -12q-14 -14 -10 -35q0 3 4 8q14 10 26 4q-14 -18 -28 -64t-21 -59q6 4 10 4zM689 1089l1 3z" />
    <glyph glyph-name="Udieresis" unicode="&#xdc;" horiz-adv-x="1265" 
d="M1169 1864q-1 -6 11 -6t12 -5q-4 0 -4 -4t-2 -4q6 -6 14 -2q0 2 4 7t2 10q-6 2 -6 4q-6 -2 -24 2t-21 0l12 -8q0 6 2 6zM1198 1864l4 6q-4 8 -16 4q-6 -4 2 -8q2 6 5 2t5 -4zM1198 1884l2 12q8 4 9 -5t-7 -11q6 0 6 4q10 -16 6 -38t0 -40l-12 -2q0 -14 10 -14
q-6 -4 -12 2q3 -17 -17 -35q-19 -18 -26 -26h-8l-31 -5l-2 -2h-4l-2 5q-76 4 -90 30h12q-2 4 -12 9t-6 10l-15 -4q0 42 -1 74q-2 32 8 50t41 35h20l12 13q70 12 66 -37l4 14q6 -6 16 -5t23 -1q-4 -6 -14 0q2 -4 -4 -8t-7 -8q6 -2 10 2t13 4q2 -6 -7 -8t-10 -7q3 -4 15 -3
t14 -5zM842 1858q6 0 6 -5q-2 0 -2 -4t-4 -4q8 -4 16 -2q0 2 4 7t2 10q-6 2 -6 4q-6 -2 -24 2t-21 0l12 -8q0 6 2 6q-2 -4 3 -5q6 -1 12 -1zM854 1864l6 6q-6 8 -16 4q-6 -4 2 -8l2 4q4 -6 6 -6zM688 1759q0 5 -10 8q-10 6 -6 11l-17 -4q0 74 20 110t103 64q25 -8 25 -39
l4 14q6 -6 16 -5t23 -1q-4 -6 -15 0q2 -4 -4 -8t-6 -8q8 -2 11 2t10 4q2 -6 -1 -7q-3 0 -8 -2t-6 -6q1 -4 13 -3t14 -5q6 10 4 12q6 4 8 -5t-6 -11q6 0 6 4q10 -16 6 -38t0 -40l-12 -2q0 -14 10 -14q-6 -4 -12 2q0 -17 -18 -35t-25 -26h-8l-31 -5q-2 0 -6 -2l-2 5
q-78 4 -90 30h10zM412 244l6 41q-27 3 -29 -11q14 0 15 -13t8 -17zM145 281q4 20 -16 16q-2 -14 2 -18t14 2zM545 731v4q-1 10 -11 8t-8 -12h19zM1124 1077q4 -1 -1 -23t-1 -38q-2 -4 -9 -1t-13 1q-4 -8 5 -11t7 -10q-45 -86 -59 -190q-4 2 -6 6t-7 4q-2 -4 -3 -18t-11 -19
v-6q0 -2 5 0t7 -2q-24 -38 -118 -278t-150 -314q0 -4 2 -9t0 -11q-53 -68 -89 -108t-108 -82t-145 -40q-131 4 -352 62q-2 4 -11 44q-17 74 -67 87q23 244 80 414q82 225 90 284t42 136t41 97t11 55t9 55t31 73t34 76q-4 20 -4 27t13 27t48 127q36 107 82 153q2 8 -1 14
t-3 12q45 23 147 -14t160 -78q4 -2 12 -2t15 -5t27 -33t32 -34q-6 -25 8 -30q-14 -78 -47 -95q0 -4 7 -10q4 0 6 -2q-31 -49 -84 -162q-6 2 -12 -2t-11 -4q2 -18 -15 -43t-20 -31l-6 -20q-4 -22 -6 -32q-4 -26 -20 -17q6 -33 -17 -78t-22 -64q-10 -8 -19 0q4 -4 4 -34
q-8 -2 -16 1t-10 -1q-2 -9 0 -13t12 -2q-4 -6 -4 -14t-2 -12q-8 -4 -11 1t-10 -1q-1 -14 9 -9t12 5q0 -11 -8 -11t-11 -2q11 -11 8 -25q-3 -15 -3 -24q-2 0 -6 4t-9 4q6 -42 -56 -212q-15 -44 -15 -48q-6 -6 -14 -6t-13 -8q0 -4 16 -4q-4 -25 -20 -66q-6 -6 -10 2
q-2 10 -7 11q-6 -4 -2 -14q4 -9 2 -13q0 -4 6 2t11 -2q-2 -10 -9 -24q-8 -14 -10 -19q-2 -6 4 -23q-17 0 -32 -20q12 -12 12 -23q6 1 6 11t4 12q6 -4 4 -18t-6 -19q-2 2 -6 9t-11 7t-14 -10q1 -8 13 -9t14 -5q-14 -72 -20 -88q18 -11 36 -57t39 -58q20 12 35 0
q109 63 189 217q135 233 247 585t146 664q16 4 59 -12q9 -2 15 7t14 10q8 -5 14 -19t19 -16q-14 -4 -15 -5q0 -1 11 -22q-9 -2 -17 4t-14 6l6 -16q18 -29 25 2q6 0 4 -14q-4 -14 -11 -2q10 -35 2 -58q-4 0 -4 9v8q-4 -8 -18 -10t-16 -3v-6q0 -4 6 0t12 2q2 -8 -8 -10t-10 -7
t16 -5q10 0 10 26q10 0 7 -18t-1 -27q-6 -2 -11 -2t-13 13q0 -29 20 -19q0 -8 -7 -18t-3 -25q-6 -6 -23 -4q0 -6 -3 -13t3 -9q2 -6 7 -3q6 10 12 7l-14 -34q0 -3 8 -5q2 -8 -2 -14t-4 -13q-2 4 -10 1t-17 -1q6 23 12 66t11 61q-12 -20 -22 -76t-13 -69l26 12q4 0 13 -4
q-4 -23 -35 -12q-14 -14 -10 -35q0 3 4 8q14 10 26 4q-14 -18 -28 -64t-21 -59q6 4 10 4zM1200 1792q0 2 -1 5t-1 5q-2 -6 2 -10zM858 1792l-4 10q0 -8 4 -10zM689 1089l1 3z" />
    <glyph glyph-name="Yacute" unicode="&#xdd;" horiz-adv-x="1302" 
d="M627 1751q0 2 -13 37q61 74 129 219q4 2 11 8h2q19 19 61 35h4q47 -14 80 -31q10 -25 10 -47q-25 -37 -112 -153q-68 -97 -100 -105t-50 37h-22zM1262 1358q0 -34 -25 -104q-25 -71 -25 -74q-61 -256 -135 -340q-16 -66 -94 -247t-90 -241q-6 -6 -17 -30t-30 -31
q-3 -57 -52 -116q-48 -59 -78 -119t-43 -74t-38 -32t-32 -28t-11 -25t-9 -23t-85 -99q-141 -164 -346 -183q-88 -8 -232 14t-196 56h-31q-4 14 -27 32t-26 36q-4 -10 -21 -11q-8 0 -6 11q8 6 14 0q2 12 -18 110q0 10 9 12q9 1 9 5q-2 8 -7 26t-7 31q31 4 61 -7t42 -21
q13 -10 41 -40q28 -29 32 -32q89 -31 159 -3t115 72q180 170 326 424q4 48 43 136q39 87 69 152t36 88t10 31t15 21q12 11 16 21t8 28t8 29q129 301 145 350q6 43 41 143t41 148q-14 -18 -39 -50t-58 -76t-87 -102q-53 -58 -88 -98t-108 -174t-80 -145q-7 -12 -67 -97
t-83 -117t-33 -44t-34 -42t-74 -48q-27 -2 -66 24q0 18 -3 79t4 98t28 88q20 52 24 76t17 71q16 63 16 102q16 63 62 185t59 168q55 182 156 331q14 0 28 -7t27 -13t16 -22q3 -20 -21 -66q-23 -47 -81 -173t-78 -165q-18 -90 -78 -285q-60 -196 -74 -270q-12 -74 0 -102
q84 76 207 261t152 220q18 43 53 87t82 101t128 168q81 110 130 164q-2 19 6 33t6 31q27 4 105 -11l8 -43q13 -12 113 -47t114 -51q-4 -29 24 -65t28 -70z" />
    <glyph glyph-name="Thorn" unicode="&#xde;" horiz-adv-x="770" 
d="M170 715q0 -178 -2 -262q2 0 2 2q270 18 391 114q-12 13 -27 51q-14 38 -32 52q-23 18 -121 67q-47 33 -90 47t-74 23q-31 10 -47 14v-108zM2 166l29 1014v4q2 98 2 258h-2q0 113 2 135q102 -6 129 -23q39 -23 6 -69l12 -19q-4 0 -12 -10q2 -43 2 -278v-21q4 0 16 4
q14 -14 32 -19q19 -5 22 1q23 -14 39 -8q18 -15 62 -21t60 -14q11 -23 42 -28t47 -12t60 -37t56 -46q0 -5 8 -13t13 -8q8 -18 41 -65q66 -94 58 -169q-9 -75 -40 -179q-14 0 -20 -6q-14 -47 -52 -75t-84 -16q-172 -80 -360 -86h-2q0 -109 -4 -231q37 -25 4 -68l12 -18
q-11 -7 -18 -23q-2 0 -6 -8q-12 2 -115 6h-39q10 16 8 54t-3 60q-1 20 -5 32v2z" />
    <glyph glyph-name="germandbls" unicode="&#xdf;" horiz-adv-x="1198" 
d="M1010 1479h80q10 -5 22 -21t21 -22q29 -96 21 -146t-26 -132q-20 -83 -82 -257t-114 -252q-53 -67 -174 -153q-3 -17 14 -27q16 -10 21 -16q31 -63 6 -253t-69 -259q-9 -14 -11 -19l-27 -65q-57 -57 -141 -75t-154 19q0 1 4 7t5 8l18 30q2 4 2 9q20 -13 47 -11t75 58
t77 122q29 64 42 215t-18 191q-10 12 -57 31q8 20 10 31q18 37 31 53q28 11 61 30q152 76 215 267q109 321 127 465q12 80 -6 102h-8q-172 -178 -432 -848q-14 -20 -35 -65q-9 -34 -27 -92t-84 -277t-67 -227q-6 -6 -6 -15l-13 -45q-10 -18 -12 -37q-29 23 -166 35t-164 27
q-4 51 -7 105t29 212q34 158 40 190t9 44t8 30t9 33q63 233 181 430q208 350 500 503q126 67 225 67z" />
    <glyph glyph-name="agrave" unicode="&#xe0;" horiz-adv-x="860" 
d="M381 1487l57 -29q0 -4 4 -6q10 -5 13 -8q68 -145 129 -219q-12 -33 -13 -35h-22q-40 -97 -143 57q-4 6 -42 55t-77 109q0 20 10 47q37 17 80 29h4zM180 635h25q31 16 71 60t52 55h-2q4 4 10 9q8 7 60 66q52 60 79 115q-4 2 -12 2q-8 2 -2 12q-84 -23 -164 -98
q-96 -96 -117 -221zM958 879q10 5 16 -5t9 -24q-4 -16 -97 -194t-124 -226q-31 -47 -59 -102t-52 -70q-51 -32 -129 -20t-121 49q-27 53 -26 124q0 71 15 126t41 134t34 117q-121 -147 -201 -241q-49 -53 -69 -60q-88 -20 -145 42q-115 128 41 338q81 110 168 159t157 27
q72 -53 108 -58q46 70 152 41t119 -114q2 -10 -5 -28t-4 -33q4 -15 -2 -47t-51 -162q-45 -132 -47 -183q54 44 112 151t81 142t45 67t34 50z" />
    <glyph glyph-name="aacute" unicode="&#xe1;" horiz-adv-x="860" 
d="M483 1190q0 2 -12 35q61 74 129 219q2 2 5 4t11 10q22 7 27 15q10 6 31 14h4q43 -12 80 -29q10 -27 10 -47q-39 -59 -113 -156q-67 -96 -99 -103t-50 38h-23zM180 635h25q31 16 71 60t52 55h-2q4 4 10 9q8 7 60 66q52 60 79 115q-4 2 -12 2q-8 2 -2 12q-84 -23 -164 -98
q-96 -96 -117 -221zM958 879q10 5 16 -5t9 -24q-4 -16 -97 -194t-124 -226q-31 -47 -59 -102t-52 -70q-51 -32 -129 -20t-121 49q-27 53 -26 124q0 71 15 126t41 134t34 117q-121 -147 -201 -241q-49 -53 -69 -60q-88 -20 -145 42q-115 128 41 338q81 110 168 159t157 27
q72 -53 108 -58q46 70 152 41t119 -114q2 -10 -5 -28t-4 -33q4 -15 -2 -47t-51 -162q-45 -132 -47 -183q54 44 112 151t81 142t45 67t34 50z" />
    <glyph glyph-name="acircumflex" unicode="&#xe2;" horiz-adv-x="860" 
d="M766 1190h-23q-40 -97 -143 57q-4 6 -42 55t-77 109q-39 -59 -112 -156q-68 -96 -100 -103t-50 38h-22q0 2 -13 35q61 74 129 219l13 10l4 4q21 7 26 15q10 6 31 14h4q43 -12 80 -29l10 -47l11 47q37 16 79 29h4q22 -9 37 -18q14 -9 21 -11q8 -8 11 -10t5 -4
q68 -145 129 -219q-12 -33 -12 -35zM180 635h25q31 16 71 60t52 55h-2q4 4 10 9q8 7 60 66q52 60 79 115q-4 2 -12 2q-8 2 -2 12q-84 -23 -164 -98q-96 -96 -117 -221zM958 879q10 5 16 -5t9 -24q-4 -16 -97 -194t-124 -226q-31 -47 -59 -102t-52 -70q-51 -32 -129 -20
t-121 49q-27 53 -26 124q0 71 15 126t41 134t34 117q-121 -147 -201 -241q-49 -53 -69 -60q-88 -20 -145 42q-115 128 41 338q81 110 168 159t157 27q72 -53 108 -58q46 70 152 41t119 -114q2 -10 -5 -28t-4 -33q4 -15 -2 -47t-51 -162q-45 -132 -47 -183q54 44 112 151
t81 142t45 67t34 50z" />
    <glyph glyph-name="atilde" unicode="&#xe3;" horiz-adv-x="860" 
d="M872 1202q-20 -28 -52 -43q-32 -16 -52 -28t-61 -11h-15q-72 -14 -142 32q-141 92 -235 56q-72 -27 -102 -41t-41 0q-14 10 -6 35q33 86 98 111q8 2 25 14h4q50 21 118 27t101 -22t137 -83q66 -37 123 0q84 33 107 64q11 11 15 7t19 -23q14 -20 -41 -95zM180 635h25
q31 16 71 60t52 55h-2q4 4 10 9q8 7 60 66q52 60 79 115q-4 2 -12 2q-8 2 -2 12q-84 -23 -164 -98q-96 -96 -117 -221zM958 879q10 5 16 -5t9 -24q-4 -16 -97 -194t-124 -226q-31 -47 -59 -102t-52 -70q-51 -32 -129 -20t-121 49q-27 53 -26 124q0 71 15 126t41 134t34 117
q-121 -147 -201 -241q-49 -53 -69 -60q-88 -20 -145 42q-115 128 41 338q81 110 168 159t157 27q72 -53 108 -58q46 70 152 41t119 -114q2 -10 -5 -28t-4 -33q4 -15 -2 -47t-51 -162q-45 -132 -47 -183q54 44 112 151t81 142t45 67t34 50z" />
    <glyph glyph-name="adieresis" unicode="&#xe4;" horiz-adv-x="860" 
d="M760 1288q0 -6 11 -6t11 -4q-4 0 -4 -4t-2 -4q7 -4 15 -2q0 2 4 7t2 9q-6 2 -6 4q-7 -2 -25 2t-21 0l13 -8q0 6 2 6zM788 1288l5 6q-4 8 -17 4q-6 -4 2 -8q2 6 5 2t5 -4zM788 1309l3 12q8 4 9 -5t-7 -11q6 0 6 4q10 -16 6 -38t0 -40l-12 -2q0 -14 10 -15q-6 -4 -12 3
q3 -17 -17 -35t-26 -27h-9l-30 -4h-2q-2 -2 -5 -2l-2 4q-76 4 -90 31q2 4 5 2t8 -2q-3 4 -13 9t-6 9l-14 -4q0 42 -1 74t8 50t40 36h20l13 12q70 12 65 -37l4 15q7 -6 17 -6t22 -1q-4 -6 -14 0q2 -4 -4 -8t-6 -8q6 -2 10 2t12 4q2 -6 -2 -7t-9 -2t-5 -5q2 -4 14 -3t14 -5z
M432 1282q6 0 6 -4q-2 0 -2 -4t-4 -4q9 -4 17 -2q0 2 4 7t2 9q-6 2 -6 4q-7 -2 -25 2t-21 0l13 -8q0 6 2 6q-2 -4 3 -5t11 -1zM444 1288l7 6q-6 8 -17 4q-6 -4 2 -8l2 4q4 -6 6 -6zM279 1184q0 4 -11 8q-10 6 -6 10l-16 -4q0 74 20 111t103 63q25 -8 24 -39l4 15q7 -6 17 -6
t22 -1q-4 -6 -14 0q2 -4 -4 -8t-6 -8q3 -1 20 6q2 -6 -1 -7t-8 -2t-5 -5q2 -4 13 -3t13 -5q6 10 5 12q6 4 8 -5t-6 -11q6 0 6 4q10 -16 6 -38t0 -40l-12 -2q0 -14 10 -15q-6 -4 -12 3q-1 -17 -19 -35t-24 -27h-9l-30 -4h-2l-5 -2l-2 4q-78 4 -90 31q2 4 4 2t7 -2zM180 635
h25q31 16 71 60t52 55h-2q4 4 10 9q8 7 60 66q52 60 79 115q-4 2 -12 2q-8 2 -2 12q-84 -23 -164 -98q-96 -96 -117 -221zM958 879q10 5 16 -5t9 -24q-4 -16 -97 -194t-124 -226q-31 -47 -59 -102t-52 -70q-51 -32 -129 -20t-121 49q-27 53 -26 124q0 71 15 126t41 134
t34 117q-121 -147 -201 -241q-49 -53 -69 -60q-88 -20 -145 42q-115 128 41 338q81 110 168 159t157 27q72 -53 108 -58q46 70 152 41t119 -114q2 -10 -5 -28t-4 -33q4 -15 -2 -47t-51 -162q-45 -132 -47 -183q54 44 112 151t81 142t45 67t34 50zM791 1217q0 4 -3 10
q-1 -6 3 -10zM449 1217l-5 10q1 -8 5 -10z" />
    <glyph glyph-name="aring" unicode="&#xe5;" horiz-adv-x="860" 
d="M594 1235q6 32 4 51l-29 27l-16 8q-53 -17 -61 -35t-13 -55q12 -12 15 -19q37 -8 51 -12h2q6 2 16 2q10 12 31 33zM180 635h25q31 16 71 60t52 55h-2q4 4 10 9q8 7 60 66q52 60 79 115q-4 2 -12 2q-8 2 -2 12q-84 -23 -164 -98q-96 -96 -117 -221zM958 879q10 5 16 -5
t9 -24q-4 -16 -97 -194t-124 -226q-31 -47 -59 -102t-52 -70q-51 -32 -129 -20t-121 49q-27 53 -26 124q0 71 15 126t41 134t34 117q-121 -147 -201 -241q-49 -53 -69 -60q-88 -20 -145 42q-115 128 41 338q81 110 168 159t157 27q72 -53 108 -58q46 70 152 41t119 -114
q2 -10 -5 -28t-4 -33q4 -15 -2 -47t-51 -162q-45 -132 -47 -183q54 44 112 151t81 142t45 67t34 50zM641 1309q-1 -4 -6 -4q5 -1 6 4zM430 1200q0 74 18 110t105 62q10 -2 35 -14t33 -15q-4 -6 12 -22q5 3 7 -3t6 -16t2 -36q-1 -26 -5 -35q-4 -10 2 -14q-45 -45 -55 -62h-8
l-31 -4h-6q-82 10 -92 35q4 2 -9 10q-10 4 -14 4z" />
    <glyph glyph-name="ae" unicode="&#xe6;" horiz-adv-x="1308" 
d="M322 555q6 6 62 70q55 64 81 116q-4 2 -12 2q-8 2 -2 15q-90 -27 -175 -112t-106 -208h6q6 -2 8 -2l11 2q31 14 71 58t51 55h-2l7 6v-2zM956 651q-68 -40 -105 -114q-36 -74 -56 -138q39 12 71 37q74 66 90 215zM811 119q4 0 8 -4q59 -23 84 24q1 2 3 5t3 6
q43 19 109 100q221 303 381 612l6 -6q6 -2 20 -22t2 -42q-12 -24 -96 -158t-88 -167q-13 -15 -75 -109t-111 -133q-93 -109 -153 -147t-124 -51q-115 -23 -192 12q-48 -8 -106 7t-91 42q-27 53 -26 124q0 71 15 126t41 134t34 118q-121 -147 -201 -242q-49 -53 -70 -57
q-88 -23 -144 39t-48 146q8 83 89 193t163 156q88 55 162 31q66 -51 108 -59q41 63 133 45q59 51 141 36q82 -14 155 -62t104 -97q29 -178 -56 -275q-4 -6 -18 -13t-21 -11q-10 -10 -25 -32t-35 -35t-62 -19t-50 -8q-12 -57 -12 -66q-8 -102 37 -141h6z" />
    <glyph glyph-name="ccedilla" unicode="&#xe7;" horiz-adv-x="630" 
d="M37 -201q8 0 12 -4q-8 -47 59 -88t97 0q0 15 4 25q31 45 2 104t-88 68q4 6 3 24t11 21q-2 2 -6 2t-6 4q17 157 70 233q20 0 38 -24q-16 -39 -38 -166q6 -4 57 -35t72 -69q2 -2 6 -2t8 -5q74 -174 -62 -252q2 4 3 11q-43 -39 -107 -41t-114 34q-52 37 -58 81t27 79h10z
M803 879q4 -5 10 -7t17 -20t1 -42q-9 -24 -77 -124t-72 -133q-18 -23 -53 -69q-127 -167 -196 -203q-106 -56 -176 -53t-136 24q-90 47 -114 194t20 269q6 16 26 57t23 70q25 20 30 20q-8 2 -3 14t3 21q115 158 216 211q240 -8 315 -129q25 -244 -113 -387q-27 -3 -40 10
q-13 14 -19 19q55 172 59 227q-55 -47 -99 -126t-60 -176t26 -186q35 0 79 52q14 18 46 52t138 183q105 150 149 232z" />
    <glyph glyph-name="egrave" unicode="&#xe8;" horiz-adv-x="870" 
d="M387 1190h-22q-41 -98 -144 57q-4 6 -42 55t-77 109q0 20 11 47q37 17 80 29h4l57 -29q0 -4 4 -6q8 -4 12 -8q68 -145 129 -219q-12 -33 -12 -35zM532 768q-77 -41 -134 -146q-19 -38 -46 -104q137 37 180 250zM952 911q4 -4 10 -5q6 -2 16 -22q11 -20 -3 -44t-88 -124
q-74 -99 -80 -132q-18 -20 -85 -110t-120 -130q-96 -110 -162 -148t-129 -51q-143 -27 -221 29q-134 95 -70 380q27 116 83 222q55 106 121 170q66 63 148 50t154 -61t101 -97q20 -176 -74 -275q-6 -6 -25 -15t-40 -37t-35 -36t-119 -31q-49 -154 8 -206h8l6 -5
q58 -22 84 23q2 4 11 12l12 6l6 2q237 217 483 635z" />
    <glyph glyph-name="eacute" unicode="&#xe9;" horiz-adv-x="870" 
d="M279 1190q0 2 -13 35q61 74 129 219l13 10l4 4q21 7 26 15q10 6 31 14h4q43 -12 80 -29q10 -27 10 -47q-39 -59 -112 -156q-68 -96 -100 -103t-50 38h-22zM532 768q-77 -41 -134 -146q-19 -38 -46 -104q137 37 180 250zM952 911q4 -4 10 -5q6 -2 16 -22q11 -20 -3 -44
t-88 -124q-74 -99 -80 -132q-18 -20 -85 -110t-120 -130q-96 -110 -162 -148t-129 -51q-143 -27 -221 29q-134 95 -70 380q27 116 83 222q55 106 121 170q66 63 148 50t154 -61t101 -97q20 -176 -74 -275q-6 -6 -25 -15t-40 -37t-35 -36t-119 -31q-49 -154 8 -206h8l6 -5
q58 -22 84 23q2 4 11 12l12 6l6 2q237 217 483 635z" />
    <glyph glyph-name="ecircumflex" unicode="&#xea;" horiz-adv-x="870" 
d="M643 1190h-22q-41 -98 -144 57q-4 6 -42 55t-77 109q-39 -59 -112 -156q-68 -96 -100 -103t-50 38h-22q0 2 -13 35q61 74 129 219q2 2 6 4t11 10q21 7 26 15q10 6 31 14h4q43 -12 80 -29l10 -47l11 47q37 16 80 29h4q20 -8 33 -17t24 -12q8 -8 11 -10t5 -4
q68 -145 129 -219q-12 -33 -12 -35zM532 768q-77 -41 -134 -146q-19 -38 -46 -104q137 37 180 250zM952 911q4 -4 10 -5q6 -2 16 -22q11 -20 -3 -44t-88 -124q-74 -99 -80 -132q-18 -20 -85 -110t-120 -130q-96 -110 -162 -148t-129 -51q-143 -27 -221 29q-134 95 -70 380
q27 116 83 222q55 106 121 170q66 63 148 50t154 -61t101 -97q20 -176 -74 -275q-6 -6 -25 -15t-40 -37t-35 -36t-119 -31q-49 -154 8 -206h8l6 -5q58 -22 84 23q2 4 11 12l12 6l6 2q237 217 483 635z" />
    <glyph glyph-name="edieresis" unicode="&#xeb;" horiz-adv-x="870" 
d="M657 1288q-1 -6 11 -6t12 -4q-4 0 -4 -4t-2 -4q6 -4 14 -2q0 2 4 7t2 9q-6 2 -6 4q-6 -2 -24 2t-21 0l12 -8q0 6 2 6zM686 1288l4 6q-4 8 -16 4q-6 -4 2 -8q2 6 5 2t5 -4zM686 1309l2 12q8 4 9 -5t-7 -11q6 0 6 4q10 -16 6 -38t0 -40l-12 -2q0 -14 10 -15q-6 -4 -12 3
q3 -17 -17 -35q-19 -18 -26 -27h-8l-31 -4h-2q-2 -2 -4 -2l-2 4q-76 4 -90 31q2 4 5 2t7 -2q-2 4 -12 9t-6 9l-15 -4q0 42 -1 74q-2 32 8 50t41 36h20l12 12q70 12 66 -37l4 15q6 -6 16 -6t23 -1q-4 -6 -14 0q2 -4 -4 -8t-7 -8q6 -2 10 2t13 4q2 -6 -2 -7t-9 -2t-6 -5
q3 -4 15 -3t14 -5zM330 1282q6 0 6 -4q-2 0 -2 -4t-4 -4q8 -4 16 -2q0 2 4 7t2 9q-6 2 -6 4q-6 -2 -24 2t-21 0l12 -8q0 6 2 6q-2 -4 3 -5q6 -1 12 -1zM342 1288l6 6q-6 8 -16 4q-6 -4 2 -8l2 4q4 -6 6 -6zM176 1184q0 5 -10 8q-10 6 -6 10l-17 -4q0 74 20 111t103 63
q25 -8 25 -39l4 15q6 -6 16 -6t23 -1q-4 -6 -15 0q2 -4 -4 -8t-6 -8q3 -1 21 6q2 -6 -1 -7t-8 -2t-6 -5q1 -4 13 -3t14 -5q6 10 4 12q6 4 8 -5t-6 -11q6 0 6 4q10 -16 6 -38t0 -40l-12 -2q0 -14 10 -15q-6 -4 -12 3q0 -17 -18 -35t-25 -27h-8l-31 -4h-2l-4 -2l-2 4
q-78 4 -90 31h10zM532 768q-77 -41 -134 -146q-19 -38 -46 -104q137 37 180 250zM952 911q4 -4 10 -5q6 -2 16 -22q11 -20 -3 -44t-88 -124q-74 -99 -80 -132q-18 -20 -85 -110t-120 -130q-96 -110 -162 -148t-129 -51q-143 -27 -221 29q-134 95 -70 380q27 116 83 222
q55 106 121 170q66 63 148 50t154 -61t101 -97q20 -176 -74 -275q-6 -6 -25 -15t-40 -37t-35 -36t-119 -31q-49 -154 8 -206h8l6 -5q58 -22 84 23q2 4 11 12l12 6l6 2q237 217 483 635zM688 1217q0 2 -1 5t-1 5q-2 -6 2 -10zM346 1217l-4 10q0 -8 4 -10z" />
    <glyph glyph-name="igrave" unicode="&#xec;" horiz-adv-x="704" 
d="M408 1497h-23q-40 -97 -149 66q-74 96 -113 155q0 20 10 47q37 17 80 29h4l57 -29q0 -4 5 -4q4 -4 7 -6t5 -4q68 -145 129 -219q-12 -33 -12 -35zM-57 143l-17 93q0 16 6 45t8 43q1 14 -6 41q23 47 21 90t20 102l2 8q-6 -2 -6 2q33 61 52 123q10 10 14 33q90 170 96 178
q150 -2 258 -137q2 -56 -35 -140q-36 -84 -62 -198t-13 -184q69 51 137 130t166 213t112 152q-6 4 -6 9l6 26l19 -6q-5 63 35 59q-10 13 -8 21t16 21q12 13 14 22q6 0 22 -6t31 -4q4 -51 -23 -97q-27 -45 -32 -55q-26 -63 -270 -358t-299 -340q-248 -29 -258 114zM559 1317
q0 -4 -2 -19q49 -39 66 -73q-8 -13 -39 -53t-44 -59q-42 -61 -53 -134q-23 6 -81 17q-58 10 -90 18q-30 8 -66 30t-53 54q6 4 17 -3t22 -3q-9 64 32 143q42 80 51 113q14 0 38 20t32 25q68 -12 162 -45q2 -8 5 -18t3 -13z" />
    <glyph glyph-name="iacute" unicode="&#xed;" horiz-adv-x="704" 
d="M340 1497q0 2 -12 35q61 74 129 219q2 2 5 4t11 10q9 3 23 12t34 17h5q43 -12 79 -29q10 -27 11 -47q-39 -59 -113 -155q-68 -96 -100 -105q-31 -6 -50 39h-22zM-57 143l-17 93q0 16 6 45t8 43q1 14 -6 41q23 47 21 90t20 102l2 8q-6 -2 -6 2q33 61 52 123q10 10 14 33
q90 170 96 178q150 -2 258 -137q2 -56 -35 -140q-36 -84 -62 -198t-13 -184q69 51 137 130t166 213t112 152q-6 4 -6 9l6 26l19 -6q-5 63 35 59q-10 13 -8 21t16 21q12 13 14 22q6 0 22 -6t31 -4q4 -51 -23 -97q-27 -45 -32 -55q-26 -63 -270 -358t-299 -340
q-248 -29 -258 114zM559 1317q0 -4 -2 -19q49 -39 66 -73q-8 -13 -39 -53t-44 -59q-42 -61 -53 -134q-23 6 -81 17q-58 10 -90 18q-30 8 -66 30t-53 54q6 4 17 -3t22 -3q-9 64 32 143q42 80 51 113q14 0 38 20t32 25q68 -12 162 -45q2 -8 5 -18t3 -13z" />
    <glyph glyph-name="icircumflex" unicode="&#xee;" horiz-adv-x="704" 
d="M705 1395h-23q-40 -97 -143 57q-5 6 -43 55t-76 109q-39 -59 -113 -156q-67 -96 -99 -103t-50 38h-23q0 2 -12 35q61 74 129 219q2 2 5 4t11 10q20 6 28 13q9 7 30 16h4q43 -12 80 -29l10 -47l10 47q37 16 80 29h4q20 -8 32 -16t25 -13l17 -14q68 -145 129 -219
q-12 -33 -12 -35zM-57 143l-17 93q0 16 6 45t8 43q1 14 -6 41q23 47 21 90t20 102l2 8q-6 -2 -6 2q33 61 52 123q10 10 14 33q90 170 96 178q150 -2 258 -137q2 -56 -35 -140q-36 -84 -62 -198t-13 -184q69 51 137 130t166 213t112 152q-6 4 -6 9l6 26l19 -6q-5 63 35 59
q-10 13 -8 21t16 21q12 13 14 22q6 0 22 -6t31 -4q4 -51 -23 -97q-27 -45 -32 -55q-26 -63 -270 -358t-299 -340q-248 -29 -258 114zM559 1317q0 -4 -2 -19q49 -39 66 -73q-8 -13 -39 -53t-44 -59q-42 -61 -53 -134q-23 6 -81 17q-58 10 -90 18q-30 8 -66 30t-53 54
q6 4 17 -3t22 -3q-9 64 32 143q42 80 51 113q14 0 38 20t32 25q68 -12 162 -45q2 -8 5 -18t3 -13z" />
    <glyph glyph-name="idieresis" unicode="&#xef;" horiz-adv-x="704" 
d="M680 1575q0 -6 11 -6t11 -4q-4 0 -4 -4t-2 -5q5 -4 15 -2q0 2 4 8t2 9q-6 2 -6 4q-7 -2 -25 2t-20 0l12 -8q0 6 2 6zM709 1575l4 6q-4 8 -17 4q-6 -4 2 -8q2 6 5 2t6 -4zM709 1595l2 13q8 4 9 -5t-7 -12q6 0 6 4q10 -15 6 -37t0 -40l-12 -2q0 -14 10 -15q-6 -4 -12 2
q3 -16 -17 -35q-20 -18 -26 -26h-9l-30 -4h-2l-4 -2l-2 4q-76 4 -91 30q3 5 13 0q-3 4 -13 10t-6 9l-14 -4q0 41 -1 73t8 52q9 18 40 35h21l12 12q70 12 65 -37l4 14q7 -6 17 -5t22 -1q-4 -6 -14 0q2 -4 -4 -8t-6 -8q6 -2 10 2t12 4q2 -6 -2 -7t-9 -2t-5 -5q2 -4 14 -3
t15 -6zM352 1569q6 0 6 -4q-2 0 -2 -4t-4 -5q9 -4 17 -2q0 2 4 8t2 9q-6 2 -6 4q-7 -2 -25 2t-20 0l12 -8q0 6 2 6q-2 -4 3 -5t11 -1zM365 1575l6 6q-6 8 -17 4q-6 -4 2 -8l2 4q4 -6 7 -6zM199 1470q0 6 -11 9q-10 6 -6 10l-16 -4q0 75 20 111t103 63q25 -8 24 -39l4 14
q7 -6 17 -5t22 -1q-4 -6 -14 0q2 -4 -4 -8t-6 -8q3 -1 20 6q2 -6 -1 -7t-8 -2t-5 -5q2 -4 13 -3t14 -6q6 10 4 13q6 4 8 -5t-6 -12q6 0 6 4q10 -15 6 -37t0 -40l-12 -2q0 -14 10 -15q-6 -4 -12 2q-1 -14 -19 -33q-18 -20 -24 -28h-9l-30 -4h-2q-2 -2 -4 -2l-2 4
q-78 4 -91 30h11zM-57 143l-17 93q0 16 6 45t8 43q1 14 -6 41q23 47 21 90t20 102l2 8q-6 -2 -6 2q33 61 52 123q10 10 14 33q90 170 96 178q150 -2 258 -137q2 -56 -35 -140q-36 -84 -62 -198t-13 -184q69 51 137 130t166 213t112 152q-6 4 -6 9l6 26l19 -6q-5 63 35 59
q-10 13 -8 21t16 21q12 13 14 22q6 0 22 -6t31 -4q4 -51 -23 -97q-27 -45 -32 -55q-26 -63 -270 -358t-299 -340q-248 -29 -258 114zM559 1317q0 -4 -2 -19q49 -39 66 -73q-8 -13 -39 -53t-44 -59q-42 -61 -53 -134q-23 6 -81 17q-58 10 -90 18q-30 8 -66 30t-53 54
q6 4 17 -3t22 -3q-9 64 32 143q42 80 51 113q14 0 38 20t32 25q68 -12 162 -45q2 -8 5 -18t3 -13zM711 1503q0 2 -1 5t-1 5q-2 -6 2 -10zM369 1503l-4 10q0 -8 4 -10z" />
    <glyph glyph-name="eth" unicode="&#xf0;" horiz-adv-x="974" 
d="M45 340q6 0 12 -3t11 3q-12 39 -27 45q-6 -9 2 -21t2 -24zM35 446q4 17 -17 13v-17q4 -2 10 1t7 3zM449 1233q-7 2 -13 -1t-4 -11q8 -2 14 1t3 11zM635 1686q-11 -10 -27 -30l-24 -30q41 -10 63 -29q27 2 68 -6q-40 50 -80 95zM594 1528q14 0 48 5t58 3q-12 25 -56 20
t-50 -28zM334 588v-94q0 -76 8 -106t14 -74q6 -45 17 -73q10 -28 42 -56t38 -42q150 96 282 461q59 166 63 222t15 137q10 80 16 164t-16 106q0 10 8 36t7 37q-1 12 -15 32t-12 36q27 10 45 5t33 -7t29 -33q14 -30 14 -79l2 -80q0 -6 6 -52t-4 -100q-10 -55 -12 -100t-9 -82
q-2 -2 -10 -18t-14 -21q7 -28 -10 -55t-18 -54q-1 -28 -6 -38t-20 -13q12 -53 -22 -100q-55 -231 -223 -414q-4 -49 -41 -75t-88 -25l-13 -19q-135 8 -179 18q-71 15 -144 109q-35 45 -49 60q2 4 -4 14t-11 10q-10 17 -25 71q-21 76 -16 110q6 33 -12 53q-2 18 7 65t-3 62
q6 6 7 21t-1 20q11 11 6 32q-6 21 -6 25q25 37 13 66q8 0 12 17t-4 30q0 4 10 45t4 43q12 35 46 91t41 76t2 21q-5 2 -5 6q39 111 158 269l-19 8q14 14 35 14q2 8 -8 12q89 99 115 129q-66 18 28 148q6 8 41 55t60 78q-102 113 -148 158q-18 57 -8 133q6 6 12 -3t8 -5l7 30
q48 9 71 -2q29 -33 154 -186q125 154 153 186q24 12 72 2l6 -30q2 -4 8 5t13 3q10 -76 -8 -133q-45 -45 -148 -158q25 -31 92 -121q61 -88 66 -117q8 -39 -41 -45h-4q8 -14 14 -34q-23 -25 -73 -60t-68 -51q-59 -19 -95 -70q-12 -16 -35 -52l-32 -48q-27 -10 -31 -10
q-3 -7 3 -8q7 -2 10 -5q-4 -10 -27 -51q-137 -244 -145 -397q-31 -51 -31 -135z" />
    <glyph glyph-name="ntilde" unicode="&#xf1;" horiz-adv-x="763" 
d="M709 1202q-19 -26 -52 -43q-33 -16 -53 -28t-61 -11h-15q-72 -14 -142 32q-141 93 -226 60q-86 -33 -114 -46q-27 -13 -38 1q-14 10 -6 35q33 86 98 111q8 2 25 14h4q50 21 118 27t101 -22t137 -83q66 -37 123 0q84 33 107 64q11 11 15 7t19 -21q13 -17 -40 -97zM872 879
q31 -41 -16 -121q-68 -76 -196 -332q-40 -82 -86 -159q-98 -163 -232 -144q-50 7 -45 37q2 12 11 42t11 52q8 78 78 225t80 183q-38 -6 -60 -33q-23 -26 -42 -45q-150 -168 -248 -316q-23 -53 -35 -105t-22 -87q4 -8 6 -16t8 -15q-157 -45 -254 -1q-56 26 -66 77t6 123
t27 67q4 -2 9 6t12 29q33 61 28 135q8 19 30 53t33 54t44 119q14 14 12 23t4 15q2 8 -2 17q6 12 30 49t27 46t6 36t19 35q21 3 71 -24q11 -5 17 4t12 5t-4 -10q43 -33 160 -84q-2 -2 -10 -23t18 -30q-16 -39 -59 -130t-64 -140q32 39 88 88q56 48 80 72l36 37q83 83 154 39
q38 -24 42 -62t-40 -122t-49 -102t-6 -32t-3 -23v-2q-8 -27 -62 -188q20 -16 34 -8t20 18q5 10 15 32q9 22 33 47q24 26 172 294q150 268 168 295z" />
    <glyph glyph-name="ograve" unicode="&#xf2;" horiz-adv-x="626" 
d="M244 1190h-23q-40 -97 -143 57q-4 6 -42 55t-77 109q0 20 10 47q37 17 80 29h4l58 -29q0 -4 4 -4q4 -4 7 -6t5 -4q68 -145 129 -219q-12 -33 -12 -35zM174 348q10 -47 62 -4q88 76 139 270q6 23 10 48q-45 10 -83 49t-44 45q-59 -68 -85 -180t1 -228zM381 745
q-7 53 -25 77t-53 -13q39 -48 78 -64zM743 874q0 -4 7 -25q0 -3 -5 -11q-53 -78 -125 -137q-73 -58 -145 -58q-12 -27 -26 -93q-13 -66 -23 -86t-14 -36t-6 -20t-16 -14t-30 -36q-14 -26 -57 -68t-92 -58q-49 -17 -72 -17l-49 10q8 0 -1 2t-38 9q-133 23 -149 153
q-13 99 8 273q2 18 4 26l26 48q39 66 65 93q135 137 307 83q42 -11 114 -38q39 -53 49 -178q67 0 198 134q46 48 55 52t17 -3q-2 -1 -2 -5z" />
    <glyph glyph-name="oacute" unicode="&#xf3;" horiz-adv-x="626" 
d="M94 1190q0 2 -12 35q61 74 129 219q2 2 5 4t11 10q22 7 27 15q10 6 31 14h4q43 -12 80 -29q10 -27 10 -47q-39 -59 -113 -156q-68 -96 -100 -103t-49 38h-23zM174 348q10 -47 62 -4q88 76 139 270q6 23 10 48q-45 10 -83 49t-44 45q-59 -68 -85 -180t1 -228zM381 745
q-7 53 -25 77t-53 -13q39 -48 78 -64zM743 874q0 -4 7 -25q0 -3 -5 -11q-53 -78 -125 -137q-73 -58 -145 -58q-12 -27 -26 -93q-13 -66 -23 -86t-14 -36t-6 -20t-16 -14t-30 -36q-14 -26 -57 -68t-92 -58q-49 -17 -72 -17l-49 10q8 0 -1 2t-38 9q-133 23 -149 153
q-13 99 8 273q2 18 4 26l26 48q39 66 65 93q135 137 307 83q42 -11 114 -38q39 -53 49 -178q67 0 198 134q46 48 55 52t17 -3q-2 -1 -2 -5z" />
    <glyph glyph-name="ocircumflex" unicode="&#xf4;" horiz-adv-x="626" 
d="M459 1190h-23q-40 -97 -143 57q-4 6 -42 55t-77 109q-39 -59 -113 -156q-67 -96 -99 -103t-50 38h-23q0 2 -12 35q61 74 129 219l17 14q21 7 26 15q10 6 31 14h4q43 -12 80 -29l10 -47l10 47q37 16 80 29h4q23 -9 37 -18t21 -11q8 -8 11 -10t5 -4q68 -145 129 -219
q-12 -33 -12 -35zM174 348q10 -47 62 -4q88 76 139 270q6 23 10 48q-45 10 -83 49t-44 45q-59 -68 -85 -180t1 -228zM381 745q-7 53 -25 77t-53 -13q39 -48 78 -64zM743 874q0 -4 7 -25q0 -3 -5 -11q-53 -78 -125 -137q-73 -58 -145 -58q-12 -27 -26 -93q-13 -66 -23 -86
t-14 -36t-6 -20t-16 -14t-30 -36q-14 -26 -57 -68t-92 -58q-49 -17 -72 -17l-49 10q8 0 -1 2t-38 9q-133 23 -149 153q-13 99 8 273q2 18 4 26l26 48q39 66 65 93q135 137 307 83q42 -11 114 -38q39 -53 49 -178q67 0 198 134q46 48 55 52t17 -3q-2 -1 -2 -5z" />
    <glyph glyph-name="otilde" unicode="&#xf5;" horiz-adv-x="626" 
d="M566 1202q-20 -28 -53 -43q-31 -16 -51 -28t-63 -11h-14q-73 -14 -143 32q-141 92 -234 56q-72 -27 -102 -41t-41 0q-14 10 -6 35q33 86 98 111q8 2 25 14h4q50 21 118 27t101 -22t137 -83q66 -37 123 0q84 33 100 55t25 13q2 0 16 -20q15 -20 -40 -95zM174 348
q10 -47 62 -4q88 76 139 270q6 23 10 48q-45 10 -83 49t-44 45q-59 -68 -85 -180t1 -228zM381 745q-7 53 -25 77t-53 -13q39 -48 78 -64zM743 874q0 -4 7 -25q0 -3 -5 -11q-53 -78 -125 -137q-73 -58 -145 -58q-12 -27 -26 -93q-13 -66 -23 -86t-14 -36t-6 -20t-16 -14
t-30 -36q-14 -26 -57 -68t-92 -58q-49 -17 -72 -17l-49 10q8 0 -1 2t-38 9q-133 23 -149 153q-13 99 8 273q2 18 4 26l26 48q39 66 65 93q135 137 307 83q42 -11 114 -38q39 -53 49 -178q67 0 198 134q46 48 55 52t17 -3q-2 -1 -2 -5z" />
    <glyph glyph-name="odieresis" unicode="&#xf6;" horiz-adv-x="626" 
d="M453 1288q0 -6 11 -6t11 -4q-4 0 -4 -4t-2 -4q4 -4 14 -2q0 2 4 7t2 9q-6 2 -6 4q-6 -2 -24 2t-21 0l13 -8q0 6 2 6zM481 1288l4 6q-4 8 -16 4q-6 -4 2 -8q2 6 5 2t5 -4zM481 1309l2 12q8 4 10 -5q1 -9 -8 -11q6 0 7 4q10 -16 6 -38t0 -40l-13 -2q0 -14 11 -15
q-6 -4 -13 3q3 -17 -17 -35q-19 -18 -26 -27h-8l-31 -4h-2q-2 -2 -4 -2l-2 4q-76 4 -90 31q2 4 5 2t7 -2q-2 4 -12 9t-6 9l-14 -4q0 42 -1 74t8 50t40 36h20l12 12q70 12 66 -37l4 15q6 -6 16 -6t23 -1q-4 -6 -14 0q2 -4 -4 -8t-7 -8q6 -2 11 2t12 4q2 -6 -2 -7t-9 -2t-5 -5
q2 -4 14 -3t14 -5zM125 1282q6 0 6 -4q-2 0 -2 -4t-4 -4q8 -4 16 -2q0 2 4 7t2 9q-6 2 -6 4q-6 -2 -24 2t-21 0l13 -8q0 6 2 6q-2 -4 3 -5t11 -1zM137 1288l6 6q-6 8 -16 4q-6 -4 2 -8l2 4zM-29 1184q0 5 -10 8q-10 6 -6 10l-16 -4q-1 74 19 111t103 63q25 -8 25 -39l4 15
q6 -6 16 -6t23 -1q-4 -6 -14 0q2 -4 -4 -8t-7 -8l21 6q2 -6 -1 -7t-8 -2t-5 -5q2 -4 13 -3t13 -5q6 10 4 12q7 4 9 -5t-7 -11q7 0 7 4q10 -16 6 -38t0 -40l-13 -2q0 -14 11 -15q-6 -4 -13 3q0 -17 -18 -35t-25 -27h-8l-31 -4h-2l-4 -2l-2 4q-78 4 -90 31h10zM174 348
q10 -47 62 -4q88 76 139 270q6 23 10 48q-45 10 -83 49t-44 45q-59 -68 -85 -180t1 -228zM381 745q-7 53 -25 77t-53 -13q39 -48 78 -64zM743 874q0 -4 7 -25q0 -3 -5 -11q-53 -78 -125 -137q-73 -58 -145 -58q-12 -27 -26 -93q-13 -66 -23 -86t-14 -36t-6 -20t-16 -14
t-30 -36q-14 -26 -57 -68t-92 -58q-49 -17 -72 -17l-49 10q8 0 -1 2t-38 9q-133 23 -149 153q-13 99 8 273q2 18 4 26l26 48q39 66 65 93q135 137 307 83q42 -11 114 -38q39 -53 49 -178q67 0 198 134q46 48 55 52t17 -3q-2 -1 -2 -5zM483 1217q0 2 -1 5t-1 5q-2 -6 2 -10z
M141 1217l-4 10q0 -8 4 -10z" />
    <glyph glyph-name="divide" unicode="&#xf7;" horiz-adv-x="790" 
d="M476 518q-3 0 -5 -2q0 -14 8 -12q-4 -4 -12 2q4 -23 -18 -39q-21 -17 -24 -21t-17 -4t-21 -4h-8q-2 2 -2 4q-76 4 -90 31h12q-2 2 -12 7t-6 9l-17 -2q0 74 18 109t105 63q25 -6 27 -32q0 4 2 8q4 -8 18 -5t21 1q-4 -6 -15 0q2 -6 -4 -10t-6 -9q6 0 10 4t13 2q3 -6 -7 -8
t-10 -4q2 -4 14 -3t15 -5q4 8 2 10q8 4 9 -5t-5 -11q4 0 6 6q12 -16 6 -38t-2 -42h-5zM416 963q-22 0 -29 -5q-6 0 -8 -2l-2 5q-76 4 -90 30q2 4 5 2t7 -2q-2 4 -12 9t-6 10q-4 0 -17 -4q0 76 18 110t105 64q25 -6 27 -35q0 6 2 10q4 -8 18 -5t21 1q-4 -6 -15 0q2 -6 -4 -10
t-6 -8q6 0 10 4t13 2q3 -7 -7 -9t-10 -4q2 -4 14 -4t15 -6l2 12q8 4 9 -5t-5 -11q2 0 6 4q10 -16 5 -38t-1 -40l-10 -2q0 -14 8 -12q-4 -4 -12 0q3 -16 -17 -34q-20 -19 -26 -27h-8zM47 889q77 4 273 0t294 -11t124 -29q24 -22 -5 -63l12 -18q-9 -4 -13 -14t-9 -15
q-170 20 -617 -16q-53 20 -106 78q0 8 12 8q16 -4 -3 15q-7 7 -9 12q17 38 47 53zM467 506q0 2 -1 4t-1 4q-2 -2 2 -8zM467 1024q0 2 -1 5t-1 5q-2 -2 2 -10z" />
    <glyph glyph-name="oslash" unicode="&#xf8;" horiz-adv-x="937" 
d="M475 565l29 43q-24 29 -55 -12zM406 543q-78 -86 -117 -189q92 106 141 162zM530 449l-14 2q-88 -129 -166 -205q-6 -8 -28 -45t-48 -49q0 -8 -8 -25q18 -39 86 12q109 80 166 260zM891 659q0 -2 4 -18t-2 -16q-55 -79 -128 -137t-147 -58q-12 -29 -60 -109t-53 -102
t-7 -24q-2 -3 -16 -13t-30 -36t-57 -68q-41 -41 -92 -59q-51 -17 -74 -17l-49 10q20 0 -22 6q-59 -55 -80 -81q23 -2 57 40q2 -6 3 -8t-8 -9t-11 -9q-65 -86 -135 -139q-45 33 -70 17t-47 38q37 63 53 69t29 1q25 25 110 122q-29 27 -36 78q-8 51 -3 93q6 42 21 125
q14 83 20 120l25 47q56 93 103 128q81 59 150 63q68 4 204 -41q33 43 67 67q23 39 40 65t40 70q2 2 12 2t14 8q4 9 -2 10q-7 1 -9 3q24 14 34 27q10 14 17 18t20 -20q-2 -8 -22 -62q-20 -53 0 -53q4 0 8 -2q-33 -68 -69 -103t-56 -59l-33 -55q10 -43 14 -105q70 0 200 133
q48 49 61 56l12 -6v-7z" />
    <glyph glyph-name="ugrave" unicode="&#xf9;" horiz-adv-x="802" 
d="M387 1190h-22q-41 -98 -144 57q-4 6 -42 55t-77 109q0 20 11 47q37 17 80 29h4l57 -29q0 -4 4 -6q8 -4 12 -8q68 -145 129 -219q-12 -33 -12 -35zM290 147q-75 0 -106 35q6 14 -5 38q-26 56 -8 158q17 103 46 148q-8 12 -2 49q-31 -61 -123 -75t-123 55q-26 44 -5 128
t59 143t63 96t35 55q55 -18 78 -49q-11 -18 -59 -100t-66 -135q-18 -54 -15 -118q4 0 17 -5t33 5q5 7 9 21q5 14 9 22q31 18 75 68t70 70q8 26 38 66t38 73q26 15 82 78q52 -1 104 -21q79 -29 44 -89q-22 -37 -26 -64q-5 -27 -12 -45q-6 -18 -16 -60q-10 -41 -43 -120
q-33 -78 -39 -110t-7 -81t-7 -74q28 -2 52 22t36 27q31 51 169 245t198 292q5 -10 27 -13t10 -32q-54 -133 -235 -366q-52 -67 -89 -106t-117 -142q-39 -16 -69 -64q-45 -25 -120 -25z" />
    <glyph glyph-name="uacute" unicode="&#xfa;" horiz-adv-x="802" 
d="M299 1190q0 2 -12 35q61 74 129 219q2 2 5 4t11 10q18 6 28 14t29 15h5q43 -12 79 -29q10 -27 11 -47q-39 -59 -113 -156q-67 -96 -99 -103t-50 38h-23zM290 147q-75 0 -106 35q6 14 -5 38q-26 56 -8 158q17 103 46 148q-8 12 -2 49q-31 -61 -123 -75t-123 55
q-26 44 -5 128t59 143t63 96t35 55q55 -18 78 -49q-11 -18 -59 -100t-66 -135q-18 -54 -15 -118q4 0 17 -5t33 5q5 7 9 21q5 14 9 22q31 18 75 68t70 70q8 26 38 66t38 73q26 15 82 78q52 -1 104 -21q79 -29 44 -89q-22 -37 -26 -64q-5 -27 -12 -45q-6 -18 -16 -60
q-10 -41 -43 -120q-33 -78 -39 -110t-7 -81t-7 -74q28 -2 52 22t36 27q31 51 169 245t198 292q5 -10 27 -13t10 -32q-54 -133 -235 -366q-52 -67 -89 -106t-117 -142q-39 -16 -69 -64q-45 -25 -120 -25z" />
    <glyph glyph-name="ucircumflex" unicode="&#xfb;" horiz-adv-x="802" 
d="M602 1190h-22q-41 -98 -144 57q-4 6 -42 55t-77 109q-39 -59 -112 -156q-68 -96 -100 -103t-50 38h-22q0 2 -13 35q61 74 130 219q2 2 5 4t11 10q18 6 28 14q9 8 29 15h4q43 -12 80 -29l10 -47l11 47q37 16 80 29h4q20 -8 33 -17t24 -12q8 -8 11 -10t5 -4
q68 -145 129 -219q-12 -33 -12 -35zM290 147q-75 0 -106 35q6 14 -5 38q-26 56 -8 158q17 103 46 148q-8 12 -2 49q-31 -61 -123 -75t-123 55q-26 44 -5 128t59 143t63 96t35 55q55 -18 78 -49q-11 -18 -59 -100t-66 -135q-18 -54 -15 -118q4 0 17 -5t33 5q5 7 9 21
q5 14 9 22q31 18 75 68t70 70q8 26 38 66t38 73q26 15 82 78q52 -1 104 -21q79 -29 44 -89q-22 -37 -26 -64q-5 -27 -12 -45q-6 -18 -16 -60q-10 -41 -43 -120q-33 -78 -39 -110t-7 -81t-7 -74q28 -2 52 22t36 27q31 51 169 245t198 292q5 -10 27 -13t10 -32
q-54 -133 -235 -366q-52 -67 -89 -106t-117 -142q-39 -16 -69 -64q-45 -25 -120 -25z" />
    <glyph glyph-name="udieresis" unicode="&#xfc;" horiz-adv-x="802" 
d="M575 1288q-1 -6 11 -6t12 -4q-4 0 -4 -4t-2 -4q6 -4 14 -2q0 2 4 7t2 9q-6 2 -6 4q-6 -2 -24 2t-21 0l12 -8q0 6 2 6zM604 1288l4 6q-4 8 -16 4q-6 -4 2 -8q2 6 5 2t5 -4zM604 1309l2 12q8 4 9 -5t-7 -11q6 0 6 4q10 -16 6 -38t1 -40l-13 -2q0 -14 10 -15q-6 -4 -12 3
q3 -17 -17 -35q-19 -18 -26 -27h-8l-31 -4h-2q-2 -2 -4 -2l-2 4q-76 4 -90 31q2 4 5 2t7 -2q-2 4 -12 9t-6 9l-14 -4q0 41 -3 59q-1 47 9 65t41 36h20l12 12q70 12 66 -37l4 15q6 -6 16 -6t23 -1q-4 -6 -14 0q2 -4 -4 -8t-7 -8q6 -2 11 2t12 4q2 -6 -2 -7t-9 -2t-6 -5
q3 -4 15 -3t14 -5zM248 1282q6 0 6 -4q-2 0 -2 -4t-4 -4q8 -4 16 -2q0 2 4 7t2 9q-6 2 -6 4q-6 -2 -24 2t-21 0l12 -8q0 6 2 6q-3 -4 3 -5t12 -1zM260 1288l6 6q-6 8 -16 4q-6 -4 2 -8l2 4zM94 1184q0 5 -10 8q-10 6 -6 10l-17 -4q0 74 20 111t103 63q25 -8 25 -39l4 15
q6 -6 16 -6t23 -1q-4 -6 -14 0q2 -4 -4 -8t-7 -8q7 -2 11 2t10 4q2 -6 -1 -7t-8 -2t-6 -5q1 -4 13 -3t14 -5q6 10 4 12q6 4 8 -5t-6 -11q6 0 6 4q10 -16 6 -38t1 -40l-13 -2q0 -14 10 -15q-6 -4 -12 3q0 -17 -18 -35t-25 -27h-8l-31 -4h-2l-4 -2l-2 4q-78 4 -90 31h10z
M290 147q-75 0 -106 35q6 14 -5 38q-26 56 -8 158q17 103 46 148q-8 12 -2 49q-31 -61 -123 -75t-123 55q-26 44 -5 128t59 143t63 96t35 55q55 -18 78 -49q-11 -18 -59 -100t-66 -135q-18 -54 -15 -118q4 0 17 -5t33 5q5 7 9 21q5 14 9 22q31 18 75 68t70 70q8 26 38 66
t38 73q26 15 82 78q52 -1 104 -21q79 -29 44 -89q-22 -37 -26 -64q-5 -27 -12 -45q-6 -18 -16 -60q-10 -41 -43 -120q-33 -78 -39 -110t-7 -81t-7 -74q28 -2 52 22t36 27q31 51 169 245t198 292q5 -10 27 -13t10 -32q-54 -133 -235 -366q-52 -67 -89 -106t-117 -142
q-39 -16 -69 -64q-45 -25 -120 -25zM606 1217q0 2 -1 5t-1 5q-2 -6 2 -10zM264 1217l-4 10q0 -8 4 -10z" />
    <glyph glyph-name="yacute" unicode="&#xfd;" horiz-adv-x="745" 
d="M299 1190q0 2 -12 35q61 74 129 219q2 2 5 4t11 10q18 6 28 14t29 15h5q43 -12 79 -29q10 -27 11 -47q-39 -59 -113 -156q-67 -96 -99 -103t-50 38h-23zM-352 -293q-10 0 -20 -1t-21 1q158 4 221 33q10 2 14 24q115 70 207 186t139 253q12 6 24 34q11 28 21 35
q13 50 53 152t50 172q-14 -6 -57 -52t-78 -57q-80 -8 -126 15q-46 22 -53 66q-16 97 24 183q61 131 116 218q39 14 88 -4q10 -27 -14 -60q-25 -32 -31 -43q-111 -240 -41 -325q25 6 31 18t8 37q4 0 8 -17q27 14 18 35q6 -6 27 6q4 6 63 74t82 113q2 29 18 81q15 52 30 60
q63 39 147 9t90 -90q6 -61 -13 -167t-40 -149q-13 -49 -27 -153t-30 -144q-16 -41 -50 -94q-33 -53 -43 -81q-10 -29 -16 -40q-141 -236 -244 -314q-69 -51 -193 -100t-216 -61t-185 3q-92 15 -145 46q-4 2 -5 11t-14 -3q0 2 -14 31q-8 0 -21 7t-28 3q18 22 13 50t1 38
q49 25 120 -17t124 -28q-2 6 -12 6z" />
    <glyph glyph-name="thorn" unicode="&#xfe;" horiz-adv-x="770" 
d="M170 715q0 -178 -2 -262q2 0 2 2q270 18 391 114q-12 13 -27 51q-14 38 -32 52q-23 18 -121 67q-47 33 -90 47t-74 23q-31 10 -47 14v-108zM2 166l29 1014v4q2 98 2 258h-2q0 113 2 135q102 -6 129 -23q39 -23 6 -69l12 -19q-4 0 -12 -10q2 -43 2 -278v-21q4 0 16 4
q14 -14 32 -19q19 -5 22 1q23 -14 39 -8q18 -15 62 -21t60 -14q11 -23 42 -28t47 -12t60 -37t56 -46q0 -5 8 -13t13 -8q8 -18 41 -65q66 -94 58 -169q-9 -75 -40 -179q-14 0 -20 -6q-14 -47 -52 -75t-84 -16q-172 -80 -360 -86h-2q0 -109 -4 -231q37 -25 4 -68l12 -18
q-11 -7 -18 -23q-2 0 -6 -8q-12 2 -115 6h-39q10 16 8 54t-3 60q-1 20 -5 32v2z" />
    <glyph glyph-name="ydieresis" unicode="&#xff;" horiz-adv-x="745" 
d="M637 1288q0 -6 11 -6t11 -4q-4 0 -4 -4t-2 -4q7 -4 15 -2q0 2 4 7t2 9q-6 2 -6 4q-6 -2 -24 2t-21 0l12 -8q0 6 2 6zM666 1288l4 6q-4 8 -17 4q-6 -4 2 -8q2 6 5 2t6 -4zM666 1309l2 12q8 4 9 -5t-7 -11q6 0 6 4q10 -16 6 -38t0 -40l-12 -2q0 -14 10 -15q-6 -4 -12 3
q3 -18 -17 -36q-20 -17 -26 -26h-9l-30 -4h-2q-2 -2 -4 -2l-2 4q-76 4 -91 31q1 4 5 2t8 -2q-2 4 -12 9t-7 9l-14 -4q0 42 -1 74t8 50t40 36h21l12 12q70 12 65 -37l4 15q6 -6 16 -6t23 -1q-4 -6 -14 0q2 -4 -4 -8t-6 -8q6 -2 10 2t12 4q2 -6 -2 -7t-9 -2t-5 -5q2 -4 14 -3
t15 -5zM309 1282q6 0 6 -4q-2 0 -2 -4t-4 -4q9 -4 17 -2q0 2 4 7t2 9q-6 2 -6 4q-6 -2 -24 2t-21 0l12 -8q0 6 2 6q-2 -4 3 -5t11 -1zM322 1288l6 6q-6 8 -17 4q-6 -4 2 -8l2 4q4 -6 7 -6zM156 1184q0 5 -11 8q-10 6 -6 10l-16 -4q-1 74 19 111t104 63q25 -8 24 -39l4 15
q6 -6 16 -6t23 -1q-4 -6 -14 0q2 -4 -4 -8t-6 -8q3 -1 20 6q2 -6 -1 -7t-8 -2t-5 -5q2 -4 13 -3t14 -5q6 10 4 12q6 4 8 -5t-6 -11q6 0 6 4q10 -16 6 -38t0 -40l-12 -2q0 -14 10 -15q-6 -4 -12 3q0 -17 -18 -35t-25 -27h-9l-30 -4h-2l-4 -2l-2 4q-78 4 -91 31h11zM-352 -293
q-10 0 -20 -1t-21 1q158 4 221 33q10 2 14 24q115 70 207 186t139 253q12 6 24 34q11 28 21 35q13 50 53 152t50 172q-14 -6 -57 -52t-78 -57q-80 -8 -126 15q-46 22 -53 66q-16 97 24 183q61 131 116 218q39 14 88 -4q10 -27 -14 -60q-25 -32 -31 -43q-111 -240 -41 -325
q25 6 31 18t8 37q4 0 8 -17q27 14 18 35q6 -6 27 6q4 6 63 74t82 113q2 29 18 81q15 52 30 60q63 39 147 9t90 -90q6 -61 -13 -167t-40 -149q-13 -49 -27 -153t-30 -144q-16 -41 -50 -94q-33 -53 -43 -81q-10 -29 -16 -40q-141 -236 -244 -314q-69 -51 -193 -100t-216 -61
t-185 3q-92 15 -145 46q-4 2 -5 11t-14 -3q0 2 -14 31q-8 0 -21 7t-28 3q18 22 13 50t1 38q49 25 120 -17t124 -28q-2 6 -12 6zM668 1217q0 2 -1 5t-1 5q-2 -6 2 -10zM326 1217l-4 10q0 -8 4 -10z" />
    <glyph glyph-name="dotlessi" unicode="&#x131;" horiz-adv-x="763" 
d="M10 1063q-4 8 -18 22q21 38 33 46t14 10q223 9 427 -5t239 -32q34 -18 0 -66v-2l12 -18q-8 -4 -10 -8q8 -348 -5 -1008q-111 -4 -163 -8q31 623 32 999q-211 2 -473 -20q-51 23 -106 78q2 14 18 12z" />
    <glyph glyph-name="OE" unicode="&#x152;" horiz-adv-x="1978" 
d="M604 741q-31 -39 -81 -225t-41 -254q3 -26 4 -80q0 -54 6 -76t34 -50t31 -42q18 10 33 23q39 201 51 245t43 114t41 103q10 32 62 168t73 205t127 292q107 224 119 253q-41 -25 -51 -35q-63 -19 -103 -64t-86 -106q-27 -10 -32 -10q-3 -7 3 -8q7 -2 9 -4q-11 -17 -50 -71
q-38 -54 -65 -96q-94 -146 -127 -282zM766 1251q-18 4 -18 -12q18 -4 18 12zM1042 1571q-22 6 -50 -2t-36 -23q14 0 43 4t45 4q-2 7 -2 17zM31 211q6 0 12 -3t10 3q-8 39 -20 45q-8 -8 -1 -20t-1 -25zM20 313q4 -2 10 1t7 3q2 7 -1 11t-13 2q-3 -7 -3 -17zM39 92q0 4 -16 4
q-10 6 -7 41q4 35 4 39l-20 66q0 10 6 29t7 29t-9 30q0 16 15 60t10 67l26 30q0 5 -8 7t-8 4q12 8 12 25l-4 32q14 17 45 107t27 106q12 0 10 -14l18 10q2 4 -6 4h-14q16 31 8 47q2 10 15 10q-6 6 9 28t5 34q6 -4 11 2t7 6q-2 2 -20 8q18 35 73 108t44 81q-4 2 -5 6
q55 111 199 268l-16 8q18 14 39 12q0 12 -9 15q80 71 177 172q8 -2 88 -5t90 -1q3 10 -80 11q-84 1 -84 3q12 8 35 35t39 35q246 -10 268 -35q49 2 86 -12q0 7 13 10q13 2 16 8q8 -2 12 -13t10 -14q75 -9 395 -3t365 -23l20 -39q-14 -20 -26 -31q-47 -2 -132 5t-137 3
q-39 -49 -69 -166q-4 -2 -12 0q-27 -112 -119 -277q-91 -165 -92 -194l159 17q3 -3 17 -19t16 -30q-12 -10 -26 -31q-36 0 -48 1t-48 -7t-73 -19q-37 -12 -44 -14q-2 -30 -43 -146t-46 -151q-2 -6 -8 -3t-12 3q6 -37 6 -39q-8 -2 -11 5t-5 7q-4 -12 -1 -36t-1 -33
q-2 27 -17 10l-10 -14q0 -4 8 -1t15 1q0 -15 -6 -27t-12 -14q-5 -2 -17 -8q6 -10 10 -8t4 8q6 -16 -1 -41t-3 -37q-27 -14 -29 -19q-2 -6 6 -2q4 0 7 -2q0 -25 -25 -22q12 -23 -12 -94t-8 -93q44 -2 122 0t119 0q12 -14 10 -47q-4 0 -18 -14q-125 10 -413 -30t-388 -34v-2
q-18 2 -152 6t-174 12q-70 16 -127 109q-28 45 -40 60q2 2 3 11t5 9z" />
    <glyph glyph-name="oe" unicode="&#x153;" horiz-adv-x="1300" 
d="M283 309q12 -47 63 -2q90 78 141 281q4 18 9 35q-46 10 -85 50t-44 44q-59 -67 -85 -179t1 -229zM489 707q-4 45 -18 67q-27 42 -59 -4q34 -45 77 -63zM975 643q-43 -23 -79 -67t-55 -81q-19 -38 -46 -104q137 37 180 252zM791 111q6 0 8 -5q27 -10 51 -2t35 27
q-2 0 -4 -2q14 14 21 17q8 3 38 29t66 67q207 233 389 542q0 -4 6 -4q8 -2 19 -22t-2 -44t-88 -123t-81 -132q-16 -19 -85 -111t-120 -131q-100 -106 -164 -146t-126 -53q-166 -31 -241 45t-71 220q-39 -47 -93 -77t-99 -30l-51 10q10 0 -1 3q-12 3 -58 11q-145 27 -133 276
q7 146 18 170q76 179 218 230q92 30 179 -3q16 -5 63 -21t50 -16q33 -47 43 -131q61 92 92 118q63 59 145 47t155 -60t99 -99q18 -172 -74 -275q-6 -6 -20 -13q-13 -7 -23 -14t-27 -30t-32 -32t-119 -30q-49 -150 10 -206h7z" />
    <glyph glyph-name="Scaron" unicode="&#x160;" horiz-adv-x="1349" 
d="M664 1853q0 -12 -3 -21t-4 -20q-4 -6 0 -20q0 -31 -5 -41q-5 -11 -21 -23t-25 -12q-44 0 -100 108q-16 30 -37 38l-18 6l10 14q-3 6 6 23h6q6 2 19 2q51 0 92 -72q7 14 27 71q20 56 46 103l7 8q36 -9 55 -28q-55 -124 -55 -136zM760 344q-18 49 -45 72q4 -17 45 -72z
M559 909l-18 -6q0 -6 16 -14zM148 113q17 -23 48 -23t60 16q28 16 57 28q199 89 269 177q-31 49 -144 191t-139 166q-26 22 -50 73t-44 68l6 18q-25 41 -53 47q168 305 409 558q33 59 131 153q33 31 112 80t116 86h20q18 -31 83 -97t83 -118q94 109 109 193q47 -9 63 -51
t-6 -103q2 -4 16 -12t13 -21q-31 -78 -102 -198t-91 -166q-6 -2 -15 -10t-18 -11q-2 -8 9 -22q-31 -22 -60 -131q-8 -34 -33 -54t-65 -4q-39 84 -13 176t64 168q37 76 41 88q-125 -86 -303 -294q-90 -105 -125 -142q-8 -16 -17 -50t-30 -50q0 -4 12 -4q-4 -14 -20 -11
q23 -33 82 -61q170 -82 245 -475q-4 -16 -10 -48t-16 -68q-14 -50 -47 -89q-20 0 -39 -18q-2 -14 -18 -32t-17 -32q-233 -188 -531 -172q-90 43 -120 47q0 7 -5 17t-6 18q-51 12 -58 85t24 159q8 2 11 -8t13 -7q10 8 6 38t2 44q9 0 25 -7t31 -3q8 -45 13 -62t22 -40z" />
    <glyph glyph-name="scaron" unicode="&#x161;" horiz-adv-x="714" 
d="M160 1143h-4q-29 0 -66 45q-2 6 -9 18t-11 19q-29 53 -52 61l-18 6l10 15q-2 5 6 22h7q6 2 18 2q51 0 92 -71q65 161 80 182q35 -9 55 -29l-18 -39q-37 -94 -37 -103l-6 -34q-4 -6 0 -20q0 -31 -5 -41q-6 -10 -20 -22t-22 -11zM92 172q-2 0 -6 3t-8 1
q-285 -219 -234 -452q4 -4 18 -2t16 2q4 -2 16 4t14 6t15 8t15 9t16 11q13 10 17 11q3 1 17 33t17 37t27 63t28 79t18 69q14 49 14 118zM25 692q0 36 -5 45q-20 178 121 334q50 7 100 -32q24 -17 40 -23q-13 -16 -9 -22t16 -20q12 -12 15 -26q2 -14 -6 -53t-8 -59
q4 -160 26 -228q3 -10 23 -52t20 -81q80 23 168 113t171 187t137 126q19 -28 -45 -126q-64 -97 -176 -209t-232 -169q6 -45 23 -119q18 -74 28 -127q28 -137 -22 -249q-2 -6 -12 -16t-11 -17q-2 -6 -6 -59t-35 -76q2 -26 -10 -52t-24 -38t-41 -36q-28 -24 -35 -32
q-98 -41 -207 -41t-197 47q-16 10 -46 39t-50 35l4 39q-23 23 -26 78q-4 55 4 79t23 55q15 32 9 48q14 -14 14 8q0 6 -2 12q31 29 91 103q59 74 113 119t124 67q-4 41 -38 161t-19 208q-8 0 -13 -2q5 25 5 61z" />
    <glyph glyph-name="Ydieresis" unicode="&#x178;" horiz-adv-x="1302" 
d="M1047 1864q0 -6 11 -6t11 -5q-4 0 -4 -4t-2 -4q6 -6 14 -2q0 2 4 7t2 10q-6 2 -6 4q-6 -2 -24 2t-21 0l12 -8q0 6 3 6zM1075 1864l4 6q-4 8 -16 4q-6 -4 2 -8q2 6 5 2t5 -4zM1075 1884l2 12q8 4 9 -5t-7 -11q6 0 6 4q11 -16 7 -38t0 -40l-13 -2q0 -14 11 -14q-6 -4 -13 2
q3 -17 -17 -35q-19 -18 -26 -26h-8l-31 -5l-2 -2h-4l-2 5q-76 4 -90 30h12q-2 4 -12 9t-6 10l-14 -4q0 41 -3 59q0 47 10 65t40 35h20l12 13q70 12 66 -37l4 14q6 -6 16 -5t23 -1q-4 -6 -14 0q2 -4 -4 -8t-7 -8q6 -2 11 2t12 4q2 -6 -7 -8t-9 -7q2 -4 14 -3t14 -5zM719 1858
q6 0 6 -5q-2 0 -2 -4t-4 -4q8 -4 16 -2q0 2 4 7t2 10q-6 2 -6 4q-6 -2 -24 2t-21 0l12 -8q0 6 3 6q-2 -4 3 -5t11 -1zM731 1864l6 6q-6 8 -16 4q-6 -4 2 -8l2 4q4 -6 6 -6zM565 1759q0 5 -10 8q-10 6 -6 11l-17 -4q0 74 20 110t103 64q25 -8 25 -39l4 14q6 -6 16 -5t23 -1
q-4 -6 -14 0q2 -4 -4 -8t-7 -8q8 -2 12 2t9 4q2 -6 -1 -7q-3 0 -8 -2t-5 -6q2 -4 13 -3t13 -5q6 10 4 12q6 4 8 -5t-6 -11q6 0 6 4q11 -16 7 -38t0 -40l-13 -2q0 -14 11 -14q-6 -4 -13 2q0 -17 -18 -35t-25 -26h-8l-31 -5q-2 0 -6 -2l-2 5q-78 4 -90 30h10zM1262 1358
q0 -34 -25 -104q-25 -71 -25 -74q-61 -256 -135 -340q-16 -66 -94 -247t-90 -241q-6 -6 -17 -30t-30 -31q-3 -57 -52 -116q-48 -59 -78 -119t-43 -74t-38 -32t-32 -28t-11 -25t-9 -23t-85 -99q-141 -164 -346 -183q-88 -8 -232 14t-196 56h-31q-4 14 -27 32t-26 36
q-4 -10 -21 -11q-8 0 -6 11q8 6 14 0q2 12 -18 110q0 10 9 12q9 1 9 5q-2 8 -7 26t-7 31q31 4 61 -7t42 -21q13 -10 41 -40q28 -29 32 -32q89 -31 159 -3t115 72q180 170 326 424q4 48 43 136q39 87 69 152t36 88t10 31t15 21q12 11 16 21t8 28t8 29q129 301 145 350
q6 43 41 143t41 148q-14 -18 -39 -50t-58 -76t-87 -102q-53 -58 -88 -98t-108 -174t-80 -145q-7 -12 -67 -97t-83 -117t-33 -44t-34 -42t-74 -48q-27 -2 -66 24q0 18 -3 79t4 98t28 88q20 52 24 76t17 71q16 63 16 102q16 63 62 185t59 168q55 182 156 331q14 0 28 -7
t27 -13t16 -22q3 -20 -21 -66q-23 -47 -81 -173t-78 -165q-18 -90 -78 -285q-60 -196 -74 -270q-12 -74 0 -102q84 76 207 261t152 220q18 43 53 87t82 101t128 168q81 110 130 164q-2 19 6 33t6 31q27 4 105 -11l8 -43q13 -12 113 -47t114 -51q-4 -29 24 -65t28 -70z
M1077 1792q0 2 -1 5t-1 5q-2 -6 2 -10zM735 1792l-4 10q0 -8 4 -10z" />
    <glyph glyph-name="Zcaron" unicode="&#x17d;" horiz-adv-x="1841" 
d="M1139 1716q-29 0 -66 47q-4 7 -10 19q-33 69 -62 80l-18 6l10 14q-3 6 6 23h7q6 2 18 2q51 0 92 -72q6 11 31 81q26 70 49 101q36 -9 55 -28q-55 -124 -55 -143l-6 -34q-4 -6 0 -20q0 -31 -5 -41q-5 -11 -21 -23q-17 -12 -25 -12zM1481 178q4 0 16 -2t12 10h-26
q-2 -2 -2 -8zM950 1470q49 2 84 31q-10 -4 -40 -11q-30 -6 -44 -20zM1071 1628h-22q0 -8 8 -12q14 0 14 12zM1051 -145h26q-16 14 -85 13t-72 13q-25 -12 -41 -8q-2 6 2 7t12 1q-6 10 -41 4q-16 -2 -8 -8q-36 15 -142 -7t-143 -11q-66 -47 -178 -23q-8 0 -8 -8t-8 -12
q-41 6 -125 -19t-115 -26q-43 37 -33 57q-31 31 -61 115q-31 84 -30 176t60 125q2 32 27 60t45 40t60 33q65 51 233 233t246 238q-6 14 -100 11t-117 3q-43 51 -25 96q10 -8 80 -18q6 6 2 13t6 14q34 -17 127 -12q94 5 133 1q40 -4 62 15t110 82t119 90q6 2 14 5t13 3
q53 43 172 116t172 113q19 -4 28 7q10 10 13 12q-79 -7 -157 -31q-77 -24 -222 -72q-70 -8 -200 -48t-166 -44t-42 -12q-8 -8 -14 -8q-2 8 -8 24t-4 45q-16 2 -30 43q-13 41 -27 80q-13 39 -29 37q0 18 -20 47q-19 29 -9 53q141 20 516 129q10 -2 12 -6q18 29 131 23
q8 0 5 7q-4 7 -3 11l29 6q18 4 25 7q14 0 12 -13q11 -5 25 17q41 10 145 24t132 22t32 7q4 -2 2 -8q12 14 63 22t58 25q17 0 28 -12q12 -12 17 -15q-14 -27 -9 -65t16 -96q11 -60 10 -78t-11 -40t-8 -34q-31 -20 -333 -204t-443 -296q266 -37 407 -31q-27 12 -55 9
q43 31 104 -31q39 -35 33 -76q-4 4 -66 4q5 4 5 10q0 5 -66 7t-78 4q-10 2 -11 4t0 8t-1 8q-47 -8 -157 0t-144 -8q-8 -2 -12 7q-9 21 -74 1q-63 -51 -133 -101q-70 -51 -226 -231q-158 -180 -235 -225q-25 -37 -131 -92q434 31 713 35q6 2 6 -12q81 8 275 -10t280 -17
q4 -6 0 -27q20 0 45 14t28 13q14 -29 54 -23q23 -18 35 -124t8 -162q3 -11 22 -19q-18 -10 -36 -47t-21 -41q-78 -4 -264 23t-283 20q0 19 25 19z" />
    <glyph glyph-name="zcaron" unicode="&#x17e;" horiz-adv-x="968" 
d="M385 1143h-4q-29 0 -66 45q-4 6 -10 18q-35 71 -61 80l-19 6l11 15q-2 5 6 22h6q6 2 18 2q51 0 92 -71q65 161 80 182q39 -10 49 -23l7 -6l-19 -39q-37 -94 -37 -103l-6 -34q-4 -6 0 -20q0 -31 -5 -41t-19 -22t-23 -11zM41 -197q68 29 110 94q13 19 17 25t16 26t17 27
q47 80 43 162q0 6 -8 6q-182 -121 -250 -217q-92 -133 -47 -186q27 -6 61 17t41 46zM143 924q0 2 -6 7t-2 13q31 2 53 22t21 46q23 10 90 45t131 39t127 -16q139 -43 122 -171t-99 -250q-8 -6 -31 -6q-8 -2 -5 -12t1 -16q-63 -39 -154 -133q16 -18 56 -42t55 -36
q76 59 263 229t214 217q14 2 48 20t65 5q-2 -27 -4 -34t-8 -3q-5 4 -11 10t-24 -1t-84 -107q-67 -100 -89 -124t-52 -44q-37 -25 -100 -86q-96 -93 -167 -131q5 -22 19 -59t27 -92t2 -107t-16 -100q-5 -47 -15 -81t-48 -107q-39 -73 -45 -89q-10 -8 -52 -54q-41 -46 -61 -57
q-20 -12 -69 -51t-99 -56t-101 15q-19 12 -29 16q-170 70 -205 103q-4 4 -17 23t-37 22q-7 93 52 172q8 12 25 38q137 210 360 330q-8 47 -39 91t-49 59q-18 16 -83 59t-71 47l12 21q0 2 -2 12q29 10 39 35q59 4 105 39q92 70 227 291q29 47 38 78t3 69q-84 -10 -140 -63
t-114 -148q-2 -2 -18 -5t-15 -19q-14 2 -29 19t-32 20q4 14 25 34q22 20 16 43q8 -1 15 5t11 6z" />
    <glyph glyph-name="florin" unicode="&#x192;" horiz-adv-x="768" 
d="M285 508q6 6 41 37t43 78q61 33 61 221q-127 -281 -145 -336zM0 -391q6 0 12 6h6q0 8 2 10t10 20t40 70q33 52 51 125q4 4 6 4q0 2 -4 2v11q69 111 111 273t16 271q-28 -25 -56 -99t-49 -97q-35 -117 -122 -305q0 -6 3 -12t1 -13q-37 -43 -50 -165q-4 -38 -6 -52
q6 -2 11 -18l-2 -15q0 -14 9 -32q3 -5 13 1q-8 8 -10 15h8zM928 885q16 0 23 -13t-4 -44q-11 -32 -17 -48t-6 -22l-4 14q-36 -90 -106 -183q-70 -92 -132 -146t-150 -87q-86 -33 -174 -20q-33 -377 -137 -594q-14 -29 -51 -113t-75 -135q-38 -50 -74 -68t-74 -38
q-165 -87 -256 -15q-45 86 -44 206t25 209q25 89 69 225t56 186h-2q8 10 21 67q8 59 47 164q16 12 24 14q25 82 85 182q61 98 74 124t63 140q49 114 90 165q-2 14 5 32t3 31q49 6 98 -9t73 -29t71 -46q89 -139 35 -333t-187 -250q16 -2 46 -25t48 -25q94 -8 183 46t142 122
q52 68 97 138t55 77q6 25 25 63t35 38z" />
    <glyph glyph-name="circumflex" unicode="&#x2c6;" horiz-adv-x="497" 
d="M303 2138q20 0 44 -14t32 -17q45 -71 65 -165t-4 -187q2 -2 13 -57q1 -4 -11 -14t-8 -25q-54 -13 -88 50q-16 30 -31 158q-14 128 -16 138q-38 -27 -64 -86q-53 -121 -174 -309l-61 35q6 34 42 88t86 141q50 86 62 106t44 57q31 36 33 54q1 18 5 25q2 2 15 7t8 15h8z" />
    <glyph glyph-name="caron" unicode="&#x2c7;" horiz-adv-x="581" 
d="M541 2214q-50 -114 -72 -163q-23 -48 -45 -136q-22 -87 -24 -103t0 -78q3 -62 -9 -67q-8 -12 -36 -34t-33 -21q-53 -10 -134 96q-18 25 -50 86t-63 101q-32 40 -75 55q6 8 3 21t1 18q91 17 140 -34q50 -51 81 -106t39 -67q27 55 90 221t111 246q53 -10 76 -35z" />
    <glyph glyph-name="breve" unicode="&#x2d8;" horiz-adv-x="456" 
d="M117 1822q0 -87 61 -155q41 3 72 42q32 38 43 46q4 27 39 93t37 110q33 12 47 10q-10 -27 -38 -124t-73 -152q-4 -6 -16 -27t-27 -31q-88 -53 -190 17q-82 129 -69 291t112 251l27 -9q75 -24 94 -87q-119 -133 -119 -275z" />
    <glyph glyph-name="dotaccent" unicode="&#x2d9;" horiz-adv-x="382" 
d="M317 1786q0 4 6 11q5 7 3 13l-7 2l-2 5q-7 -4 -31 1t-28 1q6 -3 16 -13q0 8 5 11q-4 -11 12 -11t16 -6q-4 0 -5 -5t-3 -5q4 -4 18 -4zM315 1817l7 6q-6 10 -18 7t-7 -6q4 -3 6 -5l4 4zM211 1630h-10l-4 4q-100 4 -121 41h16q-2 4 -16 11t-8 14q-29 -8 -52 -6
q-11 22 -13 32q-1 9 -3 21t12 33q-6 20 -3 24t-1 25q-8 18 -8 40t25 34q33 6 77 6t46 3q3 3 6 7q2 4 4 6q88 18 88 -49q2 0 2 6t2 10q8 -8 23 -5t30 -1q-10 -8 -20 0q2 -6 -5 -12t-8 -10q8 -2 14 4t15 4q4 -8 -8 -11t-12 -6q4 -6 18 -5t18 -7q6 12 2 15q11 8 13 -6t-8 -15
q8 -2 8 6q16 -23 9 -51t-1 -53q-4 -2 -8 -2t-8 -2v-11q0 -6 12 -6q-8 -10 -17 2q3 -26 -23 -50q-27 -25 -34 -34h-10q-18 -6 -39 -6zM317 1720q0 2 -1 6t-1 7q-4 -7 2 -13z" />
    <glyph glyph-name="ring" unicode="&#x2da;" horiz-adv-x="604" 
d="M295 1989q-6 4 -27 4q-8 -10 -58 -56t-69 -86q-52 -90 -8 -115t121 0q31 9 45 19q37 27 95 135t32 148q-25 17 -42 12q-17 -4 -28 -7t-35 -27q-24 -25 -26 -27zM563 2089q-12 -123 -114 -299q-10 -18 -34 -45t-32 -37q-74 -96 -184 -98q-66 -2 -119 30t-80 84
q2 250 272 410q4 -2 18 -5t17 -9q55 54 132 38t124 -69z" />
    <glyph glyph-name="ogonek" unicode="&#x2db;" horiz-adv-x="475" 
d="M303 -127q-111 -66 -177 -168t-11 -223q45 -10 85 16t50 31q12 23 66 76t71 92q35 0 47 -4q-16 -20 -71 -103t-121 -127q-31 -31 -58 -38q-102 -25 -176 73q-37 147 27 298q63 151 184 204q70 -47 80 -90q4 -17 4 -37z" />
    <glyph glyph-name="tilde" unicode="&#x2dc;" horiz-adv-x="786" 
d="M743 2116q6 -7 -12 -42q-18 -36 -33 -57t-48 -36q-32 -15 -52 -28t-61 -11h-15q-72 -14 -142 32q-141 92 -235 56q-59 -22 -112 -46q-20 -9 -31 5q-14 10 -6 34q33 86 98 111q8 4 25 14h4q54 23 120 28t99 -23t137 -82q66 -37 123 0l35 14q50 20 72 49q11 12 15 8t19 -26
z" />
    <glyph glyph-name="hungarumlaut" unicode="&#x2dd;" horiz-adv-x="700" 
d="M563 2054l62 8q10 0 30 -4q6 -13 -9 -23q-15 -11 -17 -16q-25 -53 -172 -254q-68 -96 -100 -104t-50 37h-22q-1 2 -13 37q59 70 107 167q47 97 61 126q43 33 123 49q6 -5 0 -13t0 -10zM0 1702q104 202 116 236t18 54q7 20 9 25q3 3 9 19t12 20t19 15t46 6q8 -5 5 -19
t-1 -16q13 2 59 22t77 13q6 -1 5 -19t5 -20q-39 -20 -73 -87q-35 -67 -95 -151q-59 -94 -93 -132t-69 -58z" />
    <glyph glyph-name="endash" unicode="&#x2013;" horiz-adv-x="770" 
d="M18 829q-5 10 -18 23q24 43 47 55q224 8 531 -12q119 -8 139 -31t-4 -59l12 -19q-2 0 -23 -30q-162 20 -596 -17q-51 23 -106 78q2 14 18 12z" />
    <glyph glyph-name="emdash" unicode="&#x2014;" horiz-adv-x="1056" 
d="M18 829q-5 10 -18 23q24 43 47 55q81 2 413 -3t428 -11t116 -27q20 -25 -5 -61l13 -19q-2 0 -23 -30q-104 8 -438 1t-445 -18q-51 23 -106 78q2 14 18 12z" />
    <glyph glyph-name="quoteleft" unicode="&#x2018;" horiz-adv-x="344" 
d="M0 1331q0 33 4 49q-2 2 -2 6l2 3l4 18h-2l2 2q12 49 53 109t79 95t52 25t10 -37t-13 -39t-52 -67h2l4 -4q100 -4 121 -41h-16q1 -2 24 -16q2 -2 0 -9l31 7l-2 -27q0 -73 -10 -143q-6 -25 -25 -37q-20 -4 -26 -8h-41q-4 0 -15 -17q-90 -18 -90 49v-6q-2 -6 -4 -10
q-8 8 -23 5t-28 1q6 6 20 0q-3 6 5 12t8 11q-8 2 -14 -4t-15 -5q-4 7 8 11t12 6q-4 6 -19 5t-17 7q-6 -12 -4 -14q-8 -8 -12 5q-3 13 7 15q-8 2 -8 -6q-6 12 -10 29v20z" />
    <glyph glyph-name="quoteright" unicode="&#x2019;" horiz-adv-x="344" 
d="M53 1450h-14q16 37 121 41v2l2 2h4q-8 9 -18 23l-18 23q-7 9 -9 11l-12 24q-20 45 6 64q10 8 48 -28t78 -94q40 -59 52 -109q2 0 2 -2h-2q4 -12 4 -18l2 -3v-6q4 -33 4 -43t-2 -12q4 -6 0 -18t-8 -25q-4 8 -8 6q12 -2 7 -14t-11 -6q2 2 -5 14q-4 -8 -18 -7t-18 -5
q0 -2 12 -5t8 -12q-10 -2 -15 4t-14 5q-1 -4 7 -10t6 -13q14 6 20 0q-12 -4 -30 -1t-23 -5l-4 16q0 -68 -88 -49q-10 16 -17 17h-39q-12 4 -28 8q-17 13 -21 29t-7 74t-7 77v27l31 -7q-11 7 5 13q16 5 17 12z" />
    <glyph glyph-name="quotesinglbase" unicode="&#x201a;" horiz-adv-x="344" 
d="M303 159q0 -11 -4 -44v-6l-2 -3q0 -6 -4 -18h2q0 -2 -2 -2q-12 -48 -52 -108t-78 -96t-48 -28q-33 28 2 80q6 14 49 66h-4l-2 4q-104 8 -121 43h14q-3 4 -17 11t-5 12l-31 -7v27l4 53q6 81 9 97t22 30q12 4 28 9h39q8 2 17 18q88 16 88 -51l4 18q4 -10 23 -6t30 0
q-6 -8 -20 0q2 -8 -5 -14t-8 -11q7 -3 13 5t16 6q4 -10 -8 -14t-12 -5q4 -6 18 -5t18 -7q6 12 5 14q8 8 11 -5t-7 -15q6 0 8 6q11 -32 8 -41q2 -2 2 -13z" />
    <glyph glyph-name="quotedblleft" unicode="&#x201c;" horiz-adv-x="698" 
d="M371 1243h-21q-39 -94 -145 60q-4 4 -9 12t-32 44l-42 56q-54 72 -93 150q-2 4 -18 13t-9 26q20 4 30 4l62 -9q4 1 -2 9t2 14q80 -18 123 -49q12 -23 61 -124t107 -171q-2 -6 -8 -16t-6 -19zM283 1602q0 18 6 20q31 6 76 -13t59 -22q2 3 -1 15t5 20q45 4 63 -20t41 -94
q24 -70 125 -261l-49 -92q-56 28 -116 118q-12 17 -16 22l-15 25q-11 19 -17 28t-32 46t-55 90q-30 54 -45 71t-33 26q4 3 4 21z" />
    <glyph glyph-name="quotedblright" unicode="&#x201d;" horiz-adv-x="700" 
d="M563 1599l62 9q10 0 30 -4q8 -16 -8 -25q-16 -10 -18 -14q-29 -59 -172 -256q-70 -100 -105 -105q-29 2 -45 39h-22q-1 2 -13 35q55 65 105 168q51 103 63 127q43 33 123 49q6 -6 0 -13t0 -10zM49 1155q-34 56 -49 92q109 204 133 289q4 14 7 20t8 18q22 56 81 48
q8 -8 5 -20t-1 -15q13 1 59 21t77 14q6 -2 5 -20t5 -21q-38 -16 -65 -69q-27 -52 -35 -65t-33 -49t-31 -48q-59 -114 -142 -181q-11 -8 -24 -14z" />
    <glyph glyph-name="quotedblbase" unicode="&#x201e;" horiz-adv-x="686" 
d="M645 166q0 -35 -2 -51v-6q-4 1 -4 -9t-2 -12h2l-2 -2q-12 -48 -52 -108t-79 -96t-52 -24t-10 37q3 26 13 39t53 66h-4l-4 4q-102 8 -121 43h16q-2 4 -12 9t-13 7t1 7q-20 0 -29 -7v27l2 53q4 76 10 101t50 35h40q2 0 17 18q88 16 88 -51q2 0 2 3v7q0 4 2 8q5 -10 23 -6
t28 0q-6 -8 -18 0q2 -8 -5 -14t-8 -11q9 -3 13 5t14 6q4 -10 -7 -14t-11 -5q2 -6 17 -5t17 -7q6 12 5 14q8 8 11 -5t-7 -15q8 0 8 6q4 -8 10 -27v-20zM303 159q0 -11 -4 -44v-6l-2 -3q0 -6 -4 -18h2q0 -2 -2 -2q-12 -48 -52 -108t-78 -96t-48 -28q-33 28 2 80q6 14 49 66h-4
l-2 4q-104 8 -121 43h14q-3 4 -17 11t-5 12l-31 -7v27l4 53q6 81 9 97t22 30q12 4 28 9h39q8 2 17 18q88 16 88 -51l4 18q4 -10 23 -6t30 0q-6 -8 -20 0q2 -8 -5 -14t-8 -11q7 -3 13 5t16 6q4 -10 -8 -14t-12 -5q4 -6 18 -5t18 -7q6 12 5 14q8 8 11 -5t-7 -15q6 0 8 6
q11 -32 8 -41q2 -2 2 -13z" />
    <glyph glyph-name="dagger" unicode="&#x2020;" horiz-adv-x="741" 
d="M264 228q0 492 4 558q-45 -2 -106 -10q-66 29 -135 98q0 10 13 10t11 5q-6 8 -35 37t-32 57q12 10 17 10l42 -12q86 10 240 0q2 33 3 55t6 64q5 43 25 84q19 41 35 35t41 -15l23 17q2 -4 39 -29q-12 -76 -4 -223q248 -10 247 -76q0 -17 -14 -37l14 -22q-6 -2 -28 -37
q-80 10 -207 4q2 -23 6 -504t4 -494q-23 -61 -96 -135q-10 0 -10 19q-3 7 -38 -25t-61 -37q-10 6 -10 17l10 43q-4 51 -4 543z" />
    <glyph glyph-name="daggerdbl" unicode="&#x2021;" horiz-adv-x="794" 
d="M713 1194q0 -16 -15 -37l17 -24q-6 -2 -29 -37q-82 10 -207 4q2 -20 6 -475q99 -4 117 -4q123 -8 143 -35q18 -20 -8 -58l13 -18q-10 -3 -15 -14q-4 -10 -8 -17q-61 8 -242 4q4 -317 4 -319q-23 -61 -96 -135q-12 0 -10 20q0 9 -38 -26q-38 -34 -60 -37q-19 11 -9 32
q9 21 9 27q-4 53 -4 430l-150 -10q-51 18 -106 78q0 8 12 8q8 -2 6 4q-4 2 -10 10t-8 10q19 44 47 56q72 4 209 0q0 381 4 454q-80 -8 -107 -8q-61 23 -135 97q0 8 7 10t12 0t6 4q-6 8 -35 37t-33 57q10 10 16 10l43 -12q86 10 238 0q16 256 43 328t70 39l22 16
q6 -11 18 -18q13 -7 19 -11q-14 -115 -2 -366q246 -10 246 -74z" />
    <glyph glyph-name="bullet" unicode="&#x2022;" horiz-adv-x="378" 
d="M234 680q-18 0 -37 -4q0 4 -4 4q-102 8 -121 43h16q-10 10 -25 15q-2 1 0 7q-47 -6 -51 -6q-8 8 -13 35t-1 35t10 16q-6 21 -3 25t-1 24q-8 20 -8 40t24 34q33 6 77 6t47 3q4 3 6 9t4 7q88 16 88 -51q2 0 2 3v7q0 4 2 8q4 -10 23 -6t30 0q-8 -8 -20 0q3 -8 -5 -14t-8 -11
q8 -2 14 5t15 6q4 -8 -8 -12t-13 -7q4 -6 18 -5t17 -7q6 12 4 14q11 8 13 -5t-9 -15q8 0 9 6q14 -23 8 -51t0 -54l-17 -2q-1 -18 5 -18h8q-6 -6 -17 2q3 -26 -23 -49q-26 -25 -32 -31t-24 -6zM313 766q0 4 -4 12q0 -4 4 -12z" />
    <glyph glyph-name="ellipsis" unicode="&#x2026;" horiz-adv-x="1230" 
d="M1174 88h8q-6 -6 -17 2q3 -27 -23 -49q-27 -22 -32 -30t-34 -7l-27 -4l-5 4q-102 8 -120 43h16q-6 6 -18 11t-7 12q-47 -6 -51 -7q-8 8 -13 35t-1 35t10 17q-8 18 -5 24t1 25q-8 18 -8 40t24 33q33 6 117 7q2 0 17 18q88 16 88 -51q2 0 2 3v7q0 4 2 8q4 -10 22 -6t29 0
q-6 -8 -19 0q2 -8 -5 -14t-7 -11q8 -3 12 5t15 6q4 -10 -7 -14t-12 -5q2 -6 18 -5t17 -7q6 12 4 14q7 8 11 -5t-7 -15q8 0 9 6q14 -25 8 -52t0 -52l-17 -3q-1 -18 5 -18zM750 88h8q-8 -6 -17 2q3 -27 -23 -49q-28 -23 -32 -29q-6 -8 -32 -8l-29 -4q0 4 -4 4q-102 8 -121 43
h16q-6 6 -18 11t-6 12q-47 -6 -52 -7q-8 8 -13 35t-1 35t10 17q-6 20 -3 24t-1 25q-8 18 -8 40t25 33q33 6 116 7q2 0 17 18q88 16 88 -51q2 0 2 3v7q0 4 2 8q4 -10 23 -6t30 0q-8 -8 -20 0q3 -8 -5 -14t-8 -11q8 -3 14 5t15 6q4 -10 -8 -14t-13 -5q2 -6 18 -5t17 -7
q6 12 4 14q7 8 11 -5t-7 -15q9 0 9 6q14 -25 8 -53t0 -51l-17 -3q-1 -18 5 -18zM327 88h7q-6 -6 -17 2q3 -26 -23 -49q-28 -23 -32 -29q-6 -7 -32 -8l-29 -4q0 4 -4 4q-102 8 -121 43h16q-6 6 -18 11t-6 12q-47 -6 -52 -7q-8 8 -13 35t-1 35t10 17q-6 20 -3 24t-1 25
q-8 18 -8 40t25 33q33 6 116 7q2 0 17 18q88 16 88 -51q2 0 2 3v7q0 4 2 8q4 -10 23 -6t30 0q-8 -8 -20 0q2 -8 -5 -14t-8 -11q8 -3 14 5t15 6q4 -10 -8 -14t-12 -5q4 -6 18 -5t18 -7q6 12 2 14q11 8 13 -5t-8 -15q8 0 8 6q16 -23 9 -51t-1 -53l-16 -3q0 -18 5 -18zM1165 90
q0 4 -4 12q0 -8 4 -12zM741 90q0 4 -4 12q0 -4 4 -12zM317 90q0 2 -1 6t-1 6q-2 -4 2 -12z" />
    </font>
</defs>
</svg>
